midi.Pattern(format=1, resolution=240, tracks=\
[midi.Track(\
  [midi.TimeSignatureEvent(tick=0, data=[4, 2, 24, 8]),
   midi.SetTempoEvent(tick=0, data=[6, 200, 28]),
   midi.EndOfTrackEvent(tick=0, data=[])]),
 midi.Track(\
  [midi.TrackNameEvent(tick=0, text="'Demonoid Phenomenon'", data=[39, 68, 101, 109, 111, 110, 111, 105, 100, 32, 80, 104, 101, 110, 111, 109, 101, 110, 111, 110, 39]),
   midi.ProgramChangeEvent(tick=0, channel=0, data=[30]),
   midi.NoteOnEvent(tick=4800, channel=0, data=[57, 100]),
   midi.NoteOnEvent(tick=0, channel=0, data=[62, 100]),
   midi.NoteOffEvent(tick=120, channel=0, data=[57, 64]),
   midi.NoteOffEvent(tick=0, channel=0, data=[62, 64]),
   midi.NoteOnEvent(tick=0, channel=0, data=[62, 100]),
   midi.NoteOnEvent(tick=0, channel=0, data=[57, 100]),
   midi.NoteOffEvent(tick=120, channel=0, data=[62, 64]),
   midi.NoteOffEvent(tick=0, channel=0, data=[57, 64]),
   midi.NoteOnEvent(tick=0, channel=0, data=[62, 100]),
   midi.NoteOnEvent(tick=0, channel=0, data=[57, 100]),
   midi.NoteOffEvent(tick=120, channel=0, data=[62, 64]),
   midi.NoteOffEvent(tick=0, channel=0, data=[57, 64]),
   midi.NoteOnEvent(tick=0, channel=0, data=[62, 100]),
   midi.NoteOnEvent(tick=0, channel=0, data=[57, 100]),
   midi.NoteOffEvent(tick=120, channel=0, data=[62, 64]),
   midi.NoteOffEvent(tick=0, channel=0, data=[57, 64]),
   midi.NoteOnEvent(tick=0, channel=0, data=[62, 100]),
   midi.NoteOnEvent(tick=0, channel=0, data=[57, 100]),
   midi.NoteOffEvent(tick=120, channel=0, data=[62, 64]),
   midi.NoteOffEvent(tick=0, channel=0, data=[57, 0]),
   midi.NoteOnEvent(tick=0, channel=0, data=[57, 100]),
   midi.NoteOnEvent(tick=0, channel=0, data=[62, 100]),
   midi.NoteOffEvent(tick=120, channel=0, data=[57, 64]),
   midi.NoteOffEvent(tick=0, channel=0, data=[62, 64]),
   midi.NoteOnEvent(tick=0, channel=0, data=[62, 100]),
   midi.NoteOnEvent(tick=0, channel=0, data=[57, 100]),
   midi.NoteOffEvent(tick=120, channel=0, data=[62, 64]),
   midi.NoteOffEvent(tick=0, channel=0, data=[57, 64]),
   midi.NoteOnEvent(tick=0, channel=0, data=[63, 100]),
   midi.NoteOnEvent(tick=0, channel=0, data=[58, 100]),
   midi.NoteOffEvent(tick=120, channel=0, data=[63, 64]),
   midi.NoteOffEvent(tick=0, channel=0, data=[58, 0]),
   midi.NoteOnEvent(tick=0, channel=0, data=[62, 100]),
   midi.NoteOnEvent(tick=0, channel=0, data=[57, 100]),
   midi.NoteOffEvent(tick=120, channel=0, data=[62, 64]),
   midi.NoteOffEvent(tick=0, channel=0, data=[57, 64]),
   midi.NoteOnEvent(tick=0, channel=0, data=[57, 100]),
   midi.NoteOnEvent(tick=0, channel=0, data=[62, 100]),
   midi.NoteOffEvent(tick=120, channel=0, data=[57, 64]),
   midi.NoteOffEvent(tick=0, channel=0, data=[62, 64]),
   midi.NoteOnEvent(tick=0, channel=0, data=[57, 100]),
   midi.NoteOnEvent(tick=0, channel=0, data=[62, 100]),
   midi.NoteOffEvent(tick=120, channel=0, data=[57, 0]),
   midi.NoteOffEvent(tick=0, channel=0, data=[62, 64]),
   midi.NoteOnEvent(tick=0, channel=0, data=[57, 100]),
   midi.NoteOnEvent(tick=0, channel=0, data=[62, 100]),
   midi.NoteOffEvent(tick=120, channel=0, data=[57, 64]),
   midi.NoteOffEvent(tick=0, channel=0, data=[62, 64]),
   midi.NoteOnEvent(tick=0, channel=0, data=[57, 100]),
   midi.NoteOnEvent(tick=0, channel=0, data=[62, 100]),
   midi.NoteOffEvent(tick=120, channel=0, data=[57, 64]),
   midi.NoteOffEvent(tick=0, channel=0, data=[62, 64]),
   midi.NoteOnEvent(tick=0, channel=0, data=[62, 100]),
   midi.NoteOnEvent(tick=0, channel=0, data=[57, 100]),
   midi.NoteOffEvent(tick=120, channel=0, data=[62, 64]),
   midi.NoteOffEvent(tick=0, channel=0, data=[57, 0]),
   midi.NoteOnEvent(tick=0, channel=0, data=[62, 100]),
   midi.NoteOnEvent(tick=0, channel=0, data=[57, 100]),
   midi.NoteOffEvent(tick=120, channel=0, data=[62, 64]),
   midi.NoteOffEvent(tick=0, channel=0, data=[57, 64]),
   midi.NoteOnEvent(tick=0, channel=0, data=[61, 100]),
   midi.NoteOnEvent(tick=0, channel=0, data=[56, 100]),
   midi.NoteOffEvent(tick=120, channel=0, data=[61, 0]),
   midi.NoteOffEvent(tick=0, channel=0, data=[56, 0]),
   midi.NoteOnEvent(tick=0, channel=0, data=[62, 100]),
   midi.NoteOnEvent(tick=0, channel=0, data=[57, 100]),
   midi.NoteOffEvent(tick=120, channel=0, data=[62, 64]),
   midi.NoteOffEvent(tick=0, channel=0, data=[57, 64]),
   midi.NoteOnEvent(tick=0, channel=0, data=[57, 100]),
   midi.NoteOnEvent(tick=0, channel=0, data=[62, 100]),
   midi.NoteOffEvent(tick=120, channel=0, data=[57, 64]),
   midi.NoteOffEvent(tick=0, channel=0, data=[62, 64]),
   midi.NoteOnEvent(tick=0, channel=0, data=[57, 100]),
   midi.NoteOnEvent(tick=0, channel=0, data=[62, 100]),
   midi.NoteOffEvent(tick=120, channel=0, data=[57, 64]),
   midi.NoteOffEvent(tick=0, channel=0, data=[62, 64]),
   midi.NoteOnEvent(tick=0, channel=0, data=[57, 100]),
   midi.NoteOnEvent(tick=0, channel=0, data=[62, 100]),
   midi.NoteOffEvent(tick=120, channel=0, data=[57, 64]),
   midi.NoteOffEvent(tick=0, channel=0, data=[62, 64]),
   midi.NoteOnEvent(tick=0, channel=0, data=[57, 100]),
   midi.NoteOnEvent(tick=0, channel=0, data=[62, 100]),
   midi.NoteOffEvent(tick=120, channel=0, data=[57, 0]),
   midi.NoteOffEvent(tick=0, channel=0, data=[62, 64]),
   midi.NoteOnEvent(tick=0, channel=0, data=[62, 100]),
   midi.NoteOnEvent(tick=0, channel=0, data=[57, 100]),
   midi.NoteOffEvent(tick=120, channel=0, data=[62, 64]),
   midi.NoteOffEvent(tick=0, channel=0, data=[57, 64]),
   midi.NoteOnEvent(tick=0, channel=0, data=[57, 100]),
   midi.NoteOnEvent(tick=0, channel=0, data=[62, 100]),
   midi.NoteOffEvent(tick=120, channel=0, data=[57, 64]),
   midi.NoteOffEvent(tick=0, channel=0, data=[62, 64]),
   midi.NoteOnEvent(tick=0, channel=0, data=[58, 100]),
   midi.NoteOnEvent(tick=0, channel=0, data=[63, 100]),
   midi.NoteOffEvent(tick=120, channel=0, data=[58, 0]),
   midi.NoteOffEvent(tick=0, channel=0, data=[63, 64]),
   midi.NoteOnEvent(tick=0, channel=0, data=[57, 100]),
   midi.NoteOnEvent(tick=0, channel=0, data=[62, 100]),
   midi.NoteOffEvent(tick=120, channel=0, data=[57, 64]),
   midi.NoteOffEvent(tick=0, channel=0, data=[62, 64]),
   midi.NoteOnEvent(tick=0, channel=0, data=[62, 100]),
   midi.NoteOnEvent(tick=0, channel=0, data=[57, 100]),
   midi.NoteOffEvent(tick=120, channel=0, data=[62, 64]),
   midi.NoteOffEvent(tick=0, channel=0, data=[57, 64]),
   midi.NoteOnEvent(tick=0, channel=0, data=[62, 100]),
   midi.NoteOnEvent(tick=0, channel=0, data=[57, 100]),
   midi.NoteOffEvent(tick=120, channel=0, data=[62, 64]),
   midi.NoteOffEvent(tick=0, channel=0, data=[57, 0]),
   midi.NoteOnEvent(tick=0, channel=0, data=[62, 100]),
   midi.NoteOnEvent(tick=0, channel=0, data=[57, 100]),
   midi.NoteOffEvent(tick=120, channel=0, data=[62, 64]),
   midi.NoteOffEvent(tick=0, channel=0, data=[57, 64]),
   midi.NoteOnEvent(tick=0, channel=0, data=[62, 100]),
   midi.NoteOnEvent(tick=0, channel=0, data=[57, 100]),
   midi.NoteOffEvent(tick=120, channel=0, data=[62, 64]),
   midi.NoteOffEvent(tick=0, channel=0, data=[57, 64]),
   midi.NoteOnEvent(tick=0, channel=0, data=[57, 100]),
   midi.NoteOnEvent(tick=0, channel=0, data=[62, 100]),
   midi.NoteOffEvent(tick=120, channel=0, data=[57, 0]),
   midi.NoteOffEvent(tick=0, channel=0, data=[62, 64]),
   midi.NoteOnEvent(tick=0, channel=0, data=[57, 100]),
   midi.NoteOnEvent(tick=0, channel=0, data=[62, 100]),
   midi.NoteOffEvent(tick=120, channel=0, data=[57, 64]),
   midi.NoteOffEvent(tick=0, channel=0, data=[62, 64]),
   midi.NoteOnEvent(tick=0, channel=0, data=[56, 100]),
   midi.NoteOnEvent(tick=0, channel=0, data=[61, 100]),
   midi.NoteOffEvent(tick=120, channel=0, data=[56, 0]),
   midi.NoteOffEvent(tick=0, channel=0, data=[61, 0]),
   midi.NoteOnEvent(tick=0, channel=0, data=[62, 100]),
   midi.NoteOnEvent(tick=0, channel=0, data=[57, 100]),
   midi.NoteOffEvent(tick=120, channel=0, data=[62, 64]),
   midi.NoteOffEvent(tick=0, channel=0, data=[57, 64]),
   midi.NoteOnEvent(tick=0, channel=0, data=[57, 100]),
   midi.NoteOnEvent(tick=0, channel=0, data=[62, 100]),
   midi.NoteOffEvent(tick=60, channel=0, data=[57, 0]),
   midi.NoteOffEvent(tick=0, channel=0, data=[62, 64]),
   midi.NoteOnEvent(tick=60, channel=0, data=[57, 100]),
   midi.NoteOnEvent(tick=0, channel=0, data=[62, 100]),
   midi.NoteOffEvent(tick=60, channel=0, data=[57, 0]),
   midi.NoteOffEvent(tick=0, channel=0, data=[62, 64]),
   midi.NoteOnEvent(tick=0, channel=0, data=[57, 100]),
   midi.NoteOnEvent(tick=0, channel=0, data=[62, 100]),
   midi.NoteOffEvent(tick=60, channel=0, data=[57, 64]),
   midi.NoteOffEvent(tick=0, channel=0, data=[62, 64]),
   midi.NoteOnEvent(tick=0, channel=0, data=[57, 100]),
   midi.NoteOnEvent(tick=0, channel=0, data=[62, 100]),
   midi.NoteOffEvent(tick=60, channel=0, data=[57, 64]),
   midi.NoteOffEvent(tick=0, channel=0, data=[62, 64]),
   midi.NoteOnEvent(tick=60, channel=0, data=[57, 100]),
   midi.NoteOnEvent(tick=0, channel=0, data=[62, 100]),
   midi.NoteOffEvent(tick=120, channel=0, data=[57, 64]),
   midi.NoteOffEvent(tick=0, channel=0, data=[62, 64]),
   midi.NoteOnEvent(tick=0, channel=0, data=[57, 100]),
   midi.NoteOnEvent(tick=0, channel=0, data=[62, 100]),
   midi.NoteOffEvent(tick=60, channel=0, data=[57, 64]),
   midi.NoteOffEvent(tick=0, channel=0, data=[62, 0]),
   midi.NoteOnEvent(tick=60, channel=0, data=[57, 100]),
   midi.NoteOnEvent(tick=0, channel=0, data=[62, 100]),
   midi.NoteOffEvent(tick=60, channel=0, data=[57, 64]),
   midi.NoteOffEvent(tick=0, channel=0, data=[62, 0]),
   midi.NoteOnEvent(tick=0, channel=0, data=[57, 100]),
   midi.NoteOnEvent(tick=0, channel=0, data=[62, 100]),
   midi.NoteOffEvent(tick=60, channel=0, data=[57, 64]),
   midi.NoteOffEvent(tick=0, channel=0, data=[62, 64]),
   midi.NoteOnEvent(tick=0, channel=0, data=[58, 100]),
   midi.NoteOnEvent(tick=0, channel=0, data=[63, 100]),
   midi.NoteOffEvent(tick=120, channel=0, data=[58, 0]),
   midi.NoteOffEvent(tick=0, channel=0, data=[63, 64]),
   midi.NoteOnEvent(tick=0, channel=0, data=[57, 100]),
   midi.NoteOnEvent(tick=0, channel=0, data=[62, 100]),
   midi.NoteOffEvent(tick=120, channel=0, data=[57, 64]),
   midi.NoteOffEvent(tick=0, channel=0, data=[62, 64]),
   midi.NoteOnEvent(tick=0, channel=0, data=[62, 100]),
   midi.NoteOnEvent(tick=0, channel=0, data=[57, 100]),
   midi.NoteOffEvent(tick=60, channel=0, data=[62, 64]),
   midi.NoteOffEvent(tick=0, channel=0, data=[57, 0]),
   midi.NoteOnEvent(tick=60, channel=0, data=[62, 100]),
   midi.NoteOnEvent(tick=0, channel=0, data=[57, 100]),
   midi.NoteOffEvent(tick=60, channel=0, data=[62, 64]),
   midi.NoteOffEvent(tick=0, channel=0, data=[57, 0]),
   midi.NoteOnEvent(tick=0, channel=0, data=[62, 100]),
   midi.NoteOnEvent(tick=0, channel=0, data=[57, 100]),
   midi.NoteOffEvent(tick=60, channel=0, data=[62, 64]),
   midi.NoteOffEvent(tick=0, channel=0, data=[57, 64]),
   midi.NoteOnEvent(tick=0, channel=0, data=[62, 100]),
   midi.NoteOnEvent(tick=0, channel=0, data=[57, 100]),
   midi.NoteOffEvent(tick=60, channel=0, data=[62, 64]),
   midi.NoteOffEvent(tick=0, channel=0, data=[57, 64]),
   midi.NoteOnEvent(tick=60, channel=0, data=[62, 100]),
   midi.NoteOnEvent(tick=0, channel=0, data=[57, 100]),
   midi.NoteOffEvent(tick=120, channel=0, data=[62, 64]),
   midi.NoteOffEvent(tick=0, channel=0, data=[57, 64]),
   midi.NoteOnEvent(tick=0, channel=0, data=[62, 100]),
   midi.NoteOnEvent(tick=0, channel=0, data=[57, 100]),
   midi.NoteOffEvent(tick=60, channel=0, data=[62, 0]),
   midi.NoteOffEvent(tick=0, channel=0, data=[57, 64]),
   midi.NoteOnEvent(tick=60, channel=0, data=[62, 100]),
   midi.NoteOnEvent(tick=0, channel=0, data=[57, 100]),
   midi.NoteOffEvent(tick=60, channel=0, data=[62, 0]),
   midi.NoteOffEvent(tick=0, channel=0, data=[57, 64]),
   midi.NoteOnEvent(tick=0, channel=0, data=[62, 100]),
   midi.NoteOnEvent(tick=0, channel=0, data=[57, 100]),
   midi.NoteOffEvent(tick=60, channel=0, data=[62, 64]),
   midi.NoteOffEvent(tick=0, channel=0, data=[57, 64]),
   midi.NoteOnEvent(tick=0, channel=0, data=[56, 100]),
   midi.NoteOnEvent(tick=0, channel=0, data=[61, 100]),
   midi.NoteOffEvent(tick=120, channel=0, data=[56, 0]),
   midi.NoteOffEvent(tick=0, channel=0, data=[61, 0]),
   midi.NoteOnEvent(tick=0, channel=0, data=[57, 100]),
   midi.NoteOnEvent(tick=0, channel=0, data=[62, 100]),
   midi.NoteOffEvent(tick=120, channel=0, data=[57, 64]),
   midi.NoteOffEvent(tick=0, channel=0, data=[62, 64]),
   midi.NoteOnEvent(tick=0, channel=0, data=[62, 100]),
   midi.NoteOnEvent(tick=0, channel=0, data=[57, 100]),
   midi.NoteOffEvent(tick=60, channel=0, data=[62, 64]),
   midi.NoteOffEvent(tick=0, channel=0, data=[57, 0]),
   midi.NoteOnEvent(tick=60, channel=0, data=[62, 100]),
   midi.NoteOnEvent(tick=0, channel=0, data=[57, 100]),
   midi.NoteOffEvent(tick=60, channel=0, data=[62, 64]),
   midi.NoteOffEvent(tick=0, channel=0, data=[57, 0]),
   midi.NoteOnEvent(tick=0, channel=0, data=[62, 100]),
   midi.NoteOnEvent(tick=0, channel=0, data=[57, 100]),
   midi.NoteOffEvent(tick=60, channel=0, data=[62, 64]),
   midi.NoteOffEvent(tick=0, channel=0, data=[57, 64]),
   midi.NoteOnEvent(tick=0, channel=0, data=[62, 100]),
   midi.NoteOnEvent(tick=0, channel=0, data=[57, 100]),
   midi.NoteOffEvent(tick=60, channel=0, data=[62, 64]),
   midi.NoteOffEvent(tick=0, channel=0, data=[57, 64]),
   midi.NoteOnEvent(tick=60, channel=0, data=[62, 100]),
   midi.NoteOnEvent(tick=0, channel=0, data=[57, 100]),
   midi.NoteOffEvent(tick=120, channel=0, data=[62, 64]),
   midi.NoteOffEvent(tick=0, channel=0, data=[57, 64]),
   midi.NoteOnEvent(tick=0, channel=0, data=[62, 100]),
   midi.NoteOnEvent(tick=0, channel=0, data=[57, 100]),
   midi.NoteOffEvent(tick=60, channel=0, data=[62, 0]),
   midi.NoteOffEvent(tick=0, channel=0, data=[57, 64]),
   midi.NoteOnEvent(tick=60, channel=0, data=[62, 100]),
   midi.NoteOnEvent(tick=0, channel=0, data=[57, 100]),
   midi.NoteOffEvent(tick=60, channel=0, data=[62, 0]),
   midi.NoteOffEvent(tick=0, channel=0, data=[57, 64]),
   midi.NoteOnEvent(tick=0, channel=0, data=[62, 100]),
   midi.NoteOnEvent(tick=0, channel=0, data=[57, 100]),
   midi.NoteOffEvent(tick=60, channel=0, data=[62, 64]),
   midi.NoteOffEvent(tick=0, channel=0, data=[57, 64]),
   midi.NoteOnEvent(tick=0, channel=0, data=[63, 100]),
   midi.NoteOnEvent(tick=0, channel=0, data=[58, 100]),
   midi.NoteOffEvent(tick=120, channel=0, data=[63, 64]),
   midi.NoteOffEvent(tick=0, channel=0, data=[58, 0]),
   midi.NoteOnEvent(tick=0, channel=0, data=[62, 100]),
   midi.NoteOnEvent(tick=0, channel=0, data=[57, 100]),
   midi.NoteOffEvent(tick=120, channel=0, data=[62, 64]),
   midi.NoteOffEvent(tick=0, channel=0, data=[57, 64]),
   midi.NoteOnEvent(tick=0, channel=0, data=[57, 100]),
   midi.NoteOnEvent(tick=0, channel=0, data=[62, 100]),
   midi.NoteOffEvent(tick=60, channel=0, data=[57, 0]),
   midi.NoteOffEvent(tick=0, channel=0, data=[62, 64]),
   midi.NoteOnEvent(tick=60, channel=0, data=[57, 100]),
   midi.NoteOnEvent(tick=0, channel=0, data=[62, 100]),
   midi.NoteOffEvent(tick=60, channel=0, data=[57, 0]),
   midi.NoteOffEvent(tick=0, channel=0, data=[62, 64]),
   midi.NoteOnEvent(tick=0, channel=0, data=[57, 100]),
   midi.NoteOnEvent(tick=0, channel=0, data=[62, 100]),
   midi.NoteOffEvent(tick=60, channel=0, data=[57, 64]),
   midi.NoteOffEvent(tick=0, channel=0, data=[62, 64]),
   midi.NoteOnEvent(tick=0, channel=0, data=[57, 100]),
   midi.NoteOnEvent(tick=0, channel=0, data=[62, 100]),
   midi.NoteOffEvent(tick=60, channel=0, data=[57, 64]),
   midi.NoteOffEvent(tick=0, channel=0, data=[62, 64]),
   midi.NoteOnEvent(tick=60, channel=0, data=[57, 100]),
   midi.NoteOnEvent(tick=0, channel=0, data=[62, 100]),
   midi.NoteOffEvent(tick=120, channel=0, data=[57, 64]),
   midi.NoteOffEvent(tick=0, channel=0, data=[62, 64]),
   midi.NoteOnEvent(tick=0, channel=0, data=[57, 100]),
   midi.NoteOnEvent(tick=0, channel=0, data=[62, 100]),
   midi.NoteOffEvent(tick=60, channel=0, data=[57, 64]),
   midi.NoteOffEvent(tick=0, channel=0, data=[62, 0]),
   midi.NoteOnEvent(tick=60, channel=0, data=[57, 100]),
   midi.NoteOnEvent(tick=0, channel=0, data=[62, 100]),
   midi.NoteOffEvent(tick=60, channel=0, data=[57, 64]),
   midi.NoteOffEvent(tick=0, channel=0, data=[62, 0]),
   midi.NoteOnEvent(tick=0, channel=0, data=[57, 100]),
   midi.NoteOnEvent(tick=0, channel=0, data=[62, 100]),
   midi.NoteOffEvent(tick=60, channel=0, data=[57, 64]),
   midi.NoteOffEvent(tick=0, channel=0, data=[62, 64]),
   midi.NoteOnEvent(tick=0, channel=0, data=[61, 100]),
   midi.NoteOnEvent(tick=0, channel=0, data=[56, 100]),
   midi.NoteOffEvent(tick=120, channel=0, data=[61, 0]),
   midi.NoteOffEvent(tick=0, channel=0, data=[56, 0]),
   midi.NoteOnEvent(tick=0, channel=0, data=[62, 100]),
   midi.NoteOnEvent(tick=0, channel=0, data=[57, 100]),
   midi.NoteOffEvent(tick=480, channel=0, data=[62, 64]),
   midi.NoteOffEvent(tick=0, channel=0, data=[57, 64]),
   midi.NoteOnEvent(tick=0, channel=0, data=[61, 100]),
   midi.NoteOnEvent(tick=0, channel=0, data=[56, 100]),
   midi.NoteOffEvent(tick=360, channel=0, data=[61, 64]),
   midi.NoteOffEvent(tick=0, channel=0, data=[56, 64]),
   midi.NoteOnEvent(tick=0, channel=0, data=[55, 100]),
   midi.NoteOnEvent(tick=0, channel=0, data=[60, 100]),
   midi.NoteOffEvent(tick=840, channel=0, data=[55, 64]),
   midi.NoteOffEvent(tick=0, channel=0, data=[60, 64]),
   midi.NoteOnEvent(tick=0, channel=0, data=[59, 100]),
   midi.NoteOnEvent(tick=0, channel=0, data=[54, 100]),
   midi.NoteOffEvent(tick=240, channel=0, data=[59, 64]),
   midi.NoteOffEvent(tick=0, channel=0, data=[54, 64]),
   midi.NoteOnEvent(tick=0, channel=0, data=[57, 100]),
   midi.NoteOnEvent(tick=0, channel=0, data=[62, 100]),
   midi.NoteOffEvent(tick=480, channel=0, data=[57, 64]),
   midi.NoteOffEvent(tick=0, channel=0, data=[62, 64]),
   midi.NoteOnEvent(tick=0, channel=0, data=[56, 100]),
   midi.NoteOnEvent(tick=0, channel=0, data=[61, 100]),
   midi.NoteOffEvent(tick=360, channel=0, data=[56, 64]),
   midi.NoteOffEvent(tick=0, channel=0, data=[61, 64]),
   midi.NoteOnEvent(tick=0, channel=0, data=[60, 100]),
   midi.NoteOnEvent(tick=0, channel=0, data=[55, 100]),
   midi.NoteOffEvent(tick=840, channel=0, data=[60, 64]),
   midi.NoteOffEvent(tick=0, channel=0, data=[55, 64]),
   midi.NoteOnEvent(tick=240, channel=0, data=[57, 100]),
   midi.NoteOnEvent(tick=0, channel=0, data=[62, 100]),
   midi.NoteOffEvent(tick=480, channel=0, data=[57, 64]),
   midi.NoteOffEvent(tick=0, channel=0, data=[62, 64]),
   midi.NoteOnEvent(tick=0, channel=0, data=[56, 100]),
   midi.NoteOnEvent(tick=0, channel=0, data=[61, 100]),
   midi.NoteOffEvent(tick=360, channel=0, data=[56, 64]),
   midi.NoteOffEvent(tick=0, channel=0, data=[61, 64]),
   midi.NoteOnEvent(tick=0, channel=0, data=[60, 100]),
   midi.NoteOnEvent(tick=0, channel=0, data=[55, 100]),
   midi.NoteOffEvent(tick=840, channel=0, data=[60, 64]),
   midi.NoteOffEvent(tick=0, channel=0, data=[55, 64]),
   midi.NoteOnEvent(tick=0, channel=0, data=[54, 100]),
   midi.NoteOnEvent(tick=0, channel=0, data=[59, 100]),
   midi.NoteOffEvent(tick=240, channel=0, data=[54, 64]),
   midi.NoteOffEvent(tick=0, channel=0, data=[59, 64]),
   midi.NoteOnEvent(tick=0, channel=0, data=[57, 100]),
   midi.NoteOnEvent(tick=0, channel=0, data=[62, 100]),
   midi.NoteOffEvent(tick=480, channel=0, data=[57, 64]),
   midi.NoteOffEvent(tick=0, channel=0, data=[62, 64]),
   midi.NoteOnEvent(tick=0, channel=0, data=[56, 100]),
   midi.NoteOnEvent(tick=0, channel=0, data=[61, 100]),
   midi.NoteOffEvent(tick=360, channel=0, data=[56, 64]),
   midi.NoteOffEvent(tick=0, channel=0, data=[61, 64]),
   midi.NoteOnEvent(tick=0, channel=0, data=[60, 100]),
   midi.NoteOnEvent(tick=0, channel=0, data=[55, 100]),
   midi.NoteOffEvent(tick=840, channel=0, data=[60, 64]),
   midi.NoteOffEvent(tick=0, channel=0, data=[55, 64]),
   midi.NoteOnEvent(tick=12720, channel=0, data=[50, 100]),
   midi.NoteOnEvent(tick=0, channel=0, data=[57, 100]),
   midi.NoteOffEvent(tick=720, channel=0, data=[50, 64]),
   midi.NoteOffEvent(tick=0, channel=0, data=[57, 64]),
   midi.NoteOnEvent(tick=0, channel=0, data=[58, 100]),
   midi.NoteOnEvent(tick=0, channel=0, data=[51, 100]),
   midi.NoteOffEvent(tick=120, channel=0, data=[58, 64]),
   midi.NoteOffEvent(tick=0, channel=0, data=[51, 0]),
   midi.NoteOnEvent(tick=120, channel=0, data=[57, 100]),
   midi.NoteOnEvent(tick=0, channel=0, data=[50, 100]),
   midi.NoteOffEvent(tick=720, channel=0, data=[57, 64]),
   midi.NoteOffEvent(tick=0, channel=0, data=[50, 64]),
   midi.NoteOnEvent(tick=0, channel=0, data=[51, 100]),
   midi.NoteOnEvent(tick=0, channel=0, data=[58, 100]),
   midi.NoteOffEvent(tick=120, channel=0, data=[51, 0]),
   midi.NoteOffEvent(tick=0, channel=0, data=[58, 64]),
   midi.NoteOnEvent(tick=120, channel=0, data=[57, 100]),
   midi.NoteOnEvent(tick=0, channel=0, data=[50, 100]),
   midi.NoteOffEvent(tick=720, channel=0, data=[57, 64]),
   midi.NoteOffEvent(tick=0, channel=0, data=[50, 64]),
   midi.NoteOnEvent(tick=0, channel=0, data=[56, 100]),
   midi.NoteOnEvent(tick=0, channel=0, data=[49, 100]),
   midi.NoteOffEvent(tick=120, channel=0, data=[56, 64]),
   midi.NoteOffEvent(tick=0, channel=0, data=[49, 0]),
   midi.NoteOnEvent(tick=1080, channel=0, data=[57, 100]),
   midi.NoteOnEvent(tick=0, channel=0, data=[50, 100]),
   midi.NoteOffEvent(tick=720, channel=0, data=[57, 64]),
   midi.NoteOffEvent(tick=0, channel=0, data=[50, 64]),
   midi.NoteOnEvent(tick=0, channel=0, data=[51, 100]),
   midi.NoteOnEvent(tick=0, channel=0, data=[58, 100]),
   midi.NoteOffEvent(tick=120, channel=0, data=[51, 0]),
   midi.NoteOffEvent(tick=0, channel=0, data=[58, 64]),
   midi.NoteOnEvent(tick=120, channel=0, data=[50, 100]),
   midi.NoteOnEvent(tick=0, channel=0, data=[57, 100]),
   midi.NoteOffEvent(tick=720, channel=0, data=[50, 64]),
   midi.NoteOffEvent(tick=0, channel=0, data=[57, 64]),
   midi.NoteOnEvent(tick=0, channel=0, data=[58, 100]),
   midi.NoteOnEvent(tick=0, channel=0, data=[51, 100]),
   midi.NoteOffEvent(tick=120, channel=0, data=[58, 64]),
   midi.NoteOffEvent(tick=0, channel=0, data=[51, 0]),
   midi.NoteOnEvent(tick=120, channel=0, data=[50, 100]),
   midi.NoteOnEvent(tick=0, channel=0, data=[57, 100]),
   midi.NoteOffEvent(tick=720, channel=0, data=[50, 64]),
   midi.NoteOffEvent(tick=0, channel=0, data=[57, 64]),
   midi.NoteOnEvent(tick=0, channel=0, data=[49, 100]),
   midi.NoteOnEvent(tick=0, channel=0, data=[56, 100]),
   midi.NoteOffEvent(tick=120, channel=0, data=[49, 0]),
   midi.NoteOffEvent(tick=0, channel=0, data=[56, 64]),
   midi.NoteOnEvent(tick=1080, channel=0, data=[57, 100]),
   midi.NoteOnEvent(tick=0, channel=0, data=[62, 100]),
   midi.NoteOffEvent(tick=120, channel=0, data=[57, 64]),
   midi.NoteOffEvent(tick=0, channel=0, data=[62, 64]),
   midi.NoteOnEvent(tick=0, channel=0, data=[62, 100]),
   midi.NoteOnEvent(tick=0, channel=0, data=[57, 100]),
   midi.NoteOffEvent(tick=60, channel=0, data=[62, 64]),
   midi.NoteOffEvent(tick=0, channel=0, data=[57, 0]),
   midi.NoteOnEvent(tick=60, channel=0, data=[62, 100]),
   midi.NoteOnEvent(tick=0, channel=0, data=[57, 100]),
   midi.NoteOffEvent(tick=60, channel=0, data=[62, 64]),
   midi.NoteOffEvent(tick=0, channel=0, data=[57, 0]),
   midi.NoteOnEvent(tick=0, channel=0, data=[62, 100]),
   midi.NoteOnEvent(tick=0, channel=0, data=[57, 100]),
   midi.NoteOffEvent(tick=60, channel=0, data=[62, 64]),
   midi.NoteOffEvent(tick=0, channel=0, data=[57, 64]),
   midi.NoteOnEvent(tick=0, channel=0, data=[62, 100]),
   midi.NoteOnEvent(tick=0, channel=0, data=[57, 100]),
   midi.NoteOffEvent(tick=60, channel=0, data=[62, 64]),
   midi.NoteOffEvent(tick=0, channel=0, data=[57, 64]),
   midi.NoteOnEvent(tick=60, channel=0, data=[62, 100]),
   midi.NoteOnEvent(tick=0, channel=0, data=[57, 100]),
   midi.NoteOffEvent(tick=120, channel=0, data=[62, 64]),
   midi.NoteOffEvent(tick=0, channel=0, data=[57, 64]),
   midi.NoteOnEvent(tick=0, channel=0, data=[62, 100]),
   midi.NoteOnEvent(tick=0, channel=0, data=[57, 100]),
   midi.NoteOffEvent(tick=60, channel=0, data=[62, 0]),
   midi.NoteOffEvent(tick=0, channel=0, data=[57, 64]),
   midi.NoteOnEvent(tick=60, channel=0, data=[62, 100]),
   midi.NoteOnEvent(tick=0, channel=0, data=[57, 100]),
   midi.NoteOffEvent(tick=60, channel=0, data=[62, 0]),
   midi.NoteOffEvent(tick=0, channel=0, data=[57, 64]),
   midi.NoteOnEvent(tick=0, channel=0, data=[62, 100]),
   midi.NoteOnEvent(tick=0, channel=0, data=[57, 100]),
   midi.NoteOffEvent(tick=60, channel=0, data=[62, 64]),
   midi.NoteOffEvent(tick=0, channel=0, data=[57, 64]),
   midi.NoteOnEvent(tick=0, channel=0, data=[63, 100]),
   midi.NoteOnEvent(tick=0, channel=0, data=[58, 100]),
   midi.NoteOffEvent(tick=120, channel=0, data=[63, 64]),
   midi.NoteOffEvent(tick=0, channel=0, data=[58, 0]),
   midi.NoteOnEvent(tick=0, channel=0, data=[62, 100]),
   midi.NoteOnEvent(tick=0, channel=0, data=[57, 100]),
   midi.NoteOffEvent(tick=120, channel=0, data=[62, 64]),
   midi.NoteOffEvent(tick=0, channel=0, data=[57, 64]),
   midi.NoteOnEvent(tick=0, channel=0, data=[57, 100]),
   midi.NoteOnEvent(tick=0, channel=0, data=[62, 100]),
   midi.NoteOffEvent(tick=60, channel=0, data=[57, 0]),
   midi.NoteOffEvent(tick=0, channel=0, data=[62, 64]),
   midi.NoteOnEvent(tick=60, channel=0, data=[57, 100]),
   midi.NoteOnEvent(tick=0, channel=0, data=[62, 100]),
   midi.NoteOffEvent(tick=60, channel=0, data=[57, 0]),
   midi.NoteOffEvent(tick=0, channel=0, data=[62, 64]),
   midi.NoteOnEvent(tick=0, channel=0, data=[57, 100]),
   midi.NoteOnEvent(tick=0, channel=0, data=[62, 100]),
   midi.NoteOffEvent(tick=60, channel=0, data=[57, 64]),
   midi.NoteOffEvent(tick=0, channel=0, data=[62, 64]),
   midi.NoteOnEvent(tick=0, channel=0, data=[57, 100]),
   midi.NoteOnEvent(tick=0, channel=0, data=[62, 100]),
   midi.NoteOffEvent(tick=60, channel=0, data=[57, 64]),
   midi.NoteOffEvent(tick=0, channel=0, data=[62, 64]),
   midi.NoteOnEvent(tick=60, channel=0, data=[57, 100]),
   midi.NoteOnEvent(tick=0, channel=0, data=[62, 100]),
   midi.NoteOffEvent(tick=120, channel=0, data=[57, 64]),
   midi.NoteOffEvent(tick=0, channel=0, data=[62, 64]),
   midi.NoteOnEvent(tick=0, channel=0, data=[57, 100]),
   midi.NoteOnEvent(tick=0, channel=0, data=[62, 100]),
   midi.NoteOffEvent(tick=60, channel=0, data=[57, 64]),
   midi.NoteOffEvent(tick=0, channel=0, data=[62, 0]),
   midi.NoteOnEvent(tick=60, channel=0, data=[57, 100]),
   midi.NoteOnEvent(tick=0, channel=0, data=[62, 100]),
   midi.NoteOffEvent(tick=60, channel=0, data=[57, 64]),
   midi.NoteOffEvent(tick=0, channel=0, data=[62, 0]),
   midi.NoteOnEvent(tick=0, channel=0, data=[57, 100]),
   midi.NoteOnEvent(tick=0, channel=0, data=[62, 100]),
   midi.NoteOffEvent(tick=60, channel=0, data=[57, 64]),
   midi.NoteOffEvent(tick=0, channel=0, data=[62, 64]),
   midi.NoteOnEvent(tick=0, channel=0, data=[61, 100]),
   midi.NoteOnEvent(tick=0, channel=0, data=[56, 100]),
   midi.NoteOffEvent(tick=120, channel=0, data=[61, 0]),
   midi.NoteOffEvent(tick=0, channel=0, data=[56, 0]),
   midi.NoteOnEvent(tick=0, channel=0, data=[62, 100]),
   midi.NoteOnEvent(tick=0, channel=0, data=[57, 100]),
   midi.NoteOffEvent(tick=120, channel=0, data=[62, 64]),
   midi.NoteOffEvent(tick=0, channel=0, data=[57, 64]),
   midi.NoteOnEvent(tick=0, channel=0, data=[57, 100]),
   midi.NoteOnEvent(tick=0, channel=0, data=[62, 100]),
   midi.NoteOffEvent(tick=60, channel=0, data=[57, 0]),
   midi.NoteOffEvent(tick=0, channel=0, data=[62, 64]),
   midi.NoteOnEvent(tick=60, channel=0, data=[57, 100]),
   midi.NoteOnEvent(tick=0, channel=0, data=[62, 100]),
   midi.NoteOffEvent(tick=60, channel=0, data=[57, 0]),
   midi.NoteOffEvent(tick=0, channel=0, data=[62, 64]),
   midi.NoteOnEvent(tick=0, channel=0, data=[57, 100]),
   midi.NoteOnEvent(tick=0, channel=0, data=[62, 100]),
   midi.NoteOffEvent(tick=60, channel=0, data=[57, 64]),
   midi.NoteOffEvent(tick=0, channel=0, data=[62, 64]),
   midi.NoteOnEvent(tick=0, channel=0, data=[57, 100]),
   midi.NoteOnEvent(tick=0, channel=0, data=[62, 100]),
   midi.NoteOffEvent(tick=60, channel=0, data=[57, 64]),
   midi.NoteOffEvent(tick=0, channel=0, data=[62, 64]),
   midi.NoteOnEvent(tick=60, channel=0, data=[57, 100]),
   midi.NoteOnEvent(tick=0, channel=0, data=[62, 100]),
   midi.NoteOffEvent(tick=120, channel=0, data=[57, 64]),
   midi.NoteOffEvent(tick=0, channel=0, data=[62, 64]),
   midi.NoteOnEvent(tick=0, channel=0, data=[57, 100]),
   midi.NoteOnEvent(tick=0, channel=0, data=[62, 100]),
   midi.NoteOffEvent(tick=60, channel=0, data=[57, 64]),
   midi.NoteOffEvent(tick=0, channel=0, data=[62, 0]),
   midi.NoteOnEvent(tick=60, channel=0, data=[57, 100]),
   midi.NoteOnEvent(tick=0, channel=0, data=[62, 100]),
   midi.NoteOffEvent(tick=60, channel=0, data=[57, 64]),
   midi.NoteOffEvent(tick=0, channel=0, data=[62, 0]),
   midi.NoteOnEvent(tick=0, channel=0, data=[57, 100]),
   midi.NoteOnEvent(tick=0, channel=0, data=[62, 100]),
   midi.NoteOffEvent(tick=60, channel=0, data=[57, 64]),
   midi.NoteOffEvent(tick=0, channel=0, data=[62, 64]),
   midi.NoteOnEvent(tick=0, channel=0, data=[58, 100]),
   midi.NoteOnEvent(tick=0, channel=0, data=[63, 100]),
   midi.NoteOffEvent(tick=120, channel=0, data=[58, 0]),
   midi.NoteOffEvent(tick=0, channel=0, data=[63, 64]),
   midi.NoteOnEvent(tick=0, channel=0, data=[57, 100]),
   midi.NoteOnEvent(tick=0, channel=0, data=[62, 100]),
   midi.NoteOffEvent(tick=120, channel=0, data=[57, 64]),
   midi.NoteOffEvent(tick=0, channel=0, data=[62, 64]),
   midi.NoteOnEvent(tick=0, channel=0, data=[62, 100]),
   midi.NoteOnEvent(tick=0, channel=0, data=[57, 100]),
   midi.NoteOffEvent(tick=60, channel=0, data=[62, 64]),
   midi.NoteOffEvent(tick=0, channel=0, data=[57, 0]),
   midi.NoteOnEvent(tick=60, channel=0, data=[62, 100]),
   midi.NoteOnEvent(tick=0, channel=0, data=[57, 100]),
   midi.NoteOffEvent(tick=60, channel=0, data=[62, 64]),
   midi.NoteOffEvent(tick=0, channel=0, data=[57, 0]),
   midi.NoteOnEvent(tick=0, channel=0, data=[62, 100]),
   midi.NoteOnEvent(tick=0, channel=0, data=[57, 100]),
   midi.NoteOffEvent(tick=60, channel=0, data=[62, 64]),
   midi.NoteOffEvent(tick=0, channel=0, data=[57, 64]),
   midi.NoteOnEvent(tick=0, channel=0, data=[62, 100]),
   midi.NoteOnEvent(tick=0, channel=0, data=[57, 100]),
   midi.NoteOffEvent(tick=60, channel=0, data=[62, 64]),
   midi.NoteOffEvent(tick=0, channel=0, data=[57, 64]),
   midi.NoteOnEvent(tick=60, channel=0, data=[62, 100]),
   midi.NoteOnEvent(tick=0, channel=0, data=[57, 100]),
   midi.NoteOffEvent(tick=120, channel=0, data=[62, 64]),
   midi.NoteOffEvent(tick=0, channel=0, data=[57, 64]),
   midi.NoteOnEvent(tick=0, channel=0, data=[62, 100]),
   midi.NoteOnEvent(tick=0, channel=0, data=[57, 100]),
   midi.NoteOffEvent(tick=60, channel=0, data=[62, 0]),
   midi.NoteOffEvent(tick=0, channel=0, data=[57, 64]),
   midi.NoteOnEvent(tick=60, channel=0, data=[62, 100]),
   midi.NoteOnEvent(tick=0, channel=0, data=[57, 100]),
   midi.NoteOffEvent(tick=60, channel=0, data=[62, 0]),
   midi.NoteOffEvent(tick=0, channel=0, data=[57, 64]),
   midi.NoteOnEvent(tick=0, channel=0, data=[62, 100]),
   midi.NoteOnEvent(tick=0, channel=0, data=[57, 100]),
   midi.NoteOffEvent(tick=60, channel=0, data=[62, 64]),
   midi.NoteOffEvent(tick=0, channel=0, data=[57, 64]),
   midi.NoteOnEvent(tick=0, channel=0, data=[56, 100]),
   midi.NoteOnEvent(tick=0, channel=0, data=[61, 100]),
   midi.NoteOffEvent(tick=120, channel=0, data=[56, 0]),
   midi.NoteOffEvent(tick=0, channel=0, data=[61, 0]),
   midi.NoteOnEvent(tick=0, channel=0, data=[62, 100]),
   midi.NoteOnEvent(tick=0, channel=0, data=[57, 100]),
   midi.NoteOffEvent(tick=120, channel=0, data=[62, 64]),
   midi.NoteOffEvent(tick=0, channel=0, data=[57, 64]),
   midi.NoteOnEvent(tick=0, channel=0, data=[57, 100]),
   midi.NoteOnEvent(tick=0, channel=0, data=[62, 100]),
   midi.NoteOffEvent(tick=60, channel=0, data=[57, 0]),
   midi.NoteOffEvent(tick=0, channel=0, data=[62, 64]),
   midi.NoteOnEvent(tick=60, channel=0, data=[57, 100]),
   midi.NoteOnEvent(tick=0, channel=0, data=[62, 100]),
   midi.NoteOffEvent(tick=60, channel=0, data=[57, 0]),
   midi.NoteOffEvent(tick=0, channel=0, data=[62, 64]),
   midi.NoteOnEvent(tick=0, channel=0, data=[57, 100]),
   midi.NoteOnEvent(tick=0, channel=0, data=[62, 100]),
   midi.NoteOffEvent(tick=60, channel=0, data=[57, 64]),
   midi.NoteOffEvent(tick=0, channel=0, data=[62, 64]),
   midi.NoteOnEvent(tick=0, channel=0, data=[57, 100]),
   midi.NoteOnEvent(tick=0, channel=0, data=[62, 100]),
   midi.NoteOffEvent(tick=60, channel=0, data=[57, 64]),
   midi.NoteOffEvent(tick=0, channel=0, data=[62, 64]),
   midi.NoteOnEvent(tick=60, channel=0, data=[57, 100]),
   midi.NoteOnEvent(tick=0, channel=0, data=[62, 100]),
   midi.NoteOffEvent(tick=120, channel=0, data=[57, 64]),
   midi.NoteOffEvent(tick=0, channel=0, data=[62, 64]),
   midi.NoteOnEvent(tick=0, channel=0, data=[57, 100]),
   midi.NoteOnEvent(tick=0, channel=0, data=[62, 100]),
   midi.NoteOffEvent(tick=60, channel=0, data=[57, 64]),
   midi.NoteOffEvent(tick=0, channel=0, data=[62, 0]),
   midi.NoteOnEvent(tick=60, channel=0, data=[57, 100]),
   midi.NoteOnEvent(tick=0, channel=0, data=[62, 100]),
   midi.NoteOffEvent(tick=60, channel=0, data=[57, 64]),
   midi.NoteOffEvent(tick=0, channel=0, data=[62, 0]),
   midi.NoteOnEvent(tick=0, channel=0, data=[57, 100]),
   midi.NoteOnEvent(tick=0, channel=0, data=[62, 100]),
   midi.NoteOffEvent(tick=60, channel=0, data=[57, 64]),
   midi.NoteOffEvent(tick=0, channel=0, data=[62, 64]),
   midi.NoteOnEvent(tick=0, channel=0, data=[58, 100]),
   midi.NoteOnEvent(tick=0, channel=0, data=[63, 100]),
   midi.NoteOffEvent(tick=120, channel=0, data=[58, 0]),
   midi.NoteOffEvent(tick=0, channel=0, data=[63, 64]),
   midi.NoteOnEvent(tick=0, channel=0, data=[57, 100]),
   midi.NoteOnEvent(tick=0, channel=0, data=[62, 100]),
   midi.NoteOffEvent(tick=120, channel=0, data=[57, 64]),
   midi.NoteOffEvent(tick=0, channel=0, data=[62, 64]),
   midi.NoteOnEvent(tick=0, channel=0, data=[62, 100]),
   midi.NoteOnEvent(tick=0, channel=0, data=[57, 100]),
   midi.NoteOffEvent(tick=60, channel=0, data=[62, 64]),
   midi.NoteOffEvent(tick=0, channel=0, data=[57, 0]),
   midi.NoteOnEvent(tick=60, channel=0, data=[62, 100]),
   midi.NoteOnEvent(tick=0, channel=0, data=[57, 100]),
   midi.NoteOffEvent(tick=60, channel=0, data=[62, 64]),
   midi.NoteOffEvent(tick=0, channel=0, data=[57, 0]),
   midi.NoteOnEvent(tick=0, channel=0, data=[62, 100]),
   midi.NoteOnEvent(tick=0, channel=0, data=[57, 100]),
   midi.NoteOffEvent(tick=60, channel=0, data=[62, 64]),
   midi.NoteOffEvent(tick=0, channel=0, data=[57, 64]),
   midi.NoteOnEvent(tick=0, channel=0, data=[62, 100]),
   midi.NoteOnEvent(tick=0, channel=0, data=[57, 100]),
   midi.NoteOffEvent(tick=60, channel=0, data=[62, 64]),
   midi.NoteOffEvent(tick=0, channel=0, data=[57, 64]),
   midi.NoteOnEvent(tick=60, channel=0, data=[62, 100]),
   midi.NoteOnEvent(tick=0, channel=0, data=[57, 100]),
   midi.NoteOffEvent(tick=120, channel=0, data=[62, 64]),
   midi.NoteOffEvent(tick=0, channel=0, data=[57, 64]),
   midi.NoteOnEvent(tick=0, channel=0, data=[62, 100]),
   midi.NoteOnEvent(tick=0, channel=0, data=[57, 100]),
   midi.NoteOffEvent(tick=60, channel=0, data=[62, 0]),
   midi.NoteOffEvent(tick=0, channel=0, data=[57, 64]),
   midi.NoteOnEvent(tick=60, channel=0, data=[62, 100]),
   midi.NoteOnEvent(tick=0, channel=0, data=[57, 100]),
   midi.NoteOffEvent(tick=60, channel=0, data=[62, 0]),
   midi.NoteOffEvent(tick=0, channel=0, data=[57, 64]),
   midi.NoteOnEvent(tick=0, channel=0, data=[62, 100]),
   midi.NoteOnEvent(tick=0, channel=0, data=[57, 100]),
   midi.NoteOffEvent(tick=60, channel=0, data=[62, 64]),
   midi.NoteOffEvent(tick=0, channel=0, data=[57, 64]),
   midi.NoteOnEvent(tick=0, channel=0, data=[56, 100]),
   midi.NoteOnEvent(tick=0, channel=0, data=[61, 100]),
   midi.NoteOffEvent(tick=120, channel=0, data=[56, 0]),
   midi.NoteOffEvent(tick=0, channel=0, data=[61, 0]),
   midi.NoteOnEvent(tick=0, channel=0, data=[62, 100]),
   midi.NoteOnEvent(tick=0, channel=0, data=[57, 100]),
   midi.NoteOffEvent(tick=120, channel=0, data=[62, 64]),
   midi.NoteOffEvent(tick=0, channel=0, data=[57, 64]),
   midi.NoteOnEvent(tick=0, channel=0, data=[57, 100]),
   midi.NoteOnEvent(tick=0, channel=0, data=[62, 100]),
   midi.NoteOffEvent(tick=60, channel=0, data=[57, 0]),
   midi.NoteOffEvent(tick=0, channel=0, data=[62, 64]),
   midi.NoteOnEvent(tick=60, channel=0, data=[57, 100]),
   midi.NoteOnEvent(tick=0, channel=0, data=[62, 100]),
   midi.NoteOffEvent(tick=60, channel=0, data=[57, 0]),
   midi.NoteOffEvent(tick=0, channel=0, data=[62, 64]),
   midi.NoteOnEvent(tick=0, channel=0, data=[57, 100]),
   midi.NoteOnEvent(tick=0, channel=0, data=[62, 100]),
   midi.NoteOffEvent(tick=60, channel=0, data=[57, 64]),
   midi.NoteOffEvent(tick=0, channel=0, data=[62, 64]),
   midi.NoteOnEvent(tick=0, channel=0, data=[57, 100]),
   midi.NoteOnEvent(tick=0, channel=0, data=[62, 100]),
   midi.NoteOffEvent(tick=60, channel=0, data=[57, 64]),
   midi.NoteOffEvent(tick=0, channel=0, data=[62, 64]),
   midi.NoteOnEvent(tick=60, channel=0, data=[57, 100]),
   midi.NoteOnEvent(tick=0, channel=0, data=[62, 100]),
   midi.NoteOffEvent(tick=120, channel=0, data=[57, 64]),
   midi.NoteOffEvent(tick=0, channel=0, data=[62, 64]),
   midi.NoteOnEvent(tick=0, channel=0, data=[57, 100]),
   midi.NoteOnEvent(tick=0, channel=0, data=[62, 100]),
   midi.NoteOffEvent(tick=60, channel=0, data=[57, 64]),
   midi.NoteOffEvent(tick=0, channel=0, data=[62, 0]),
   midi.NoteOnEvent(tick=60, channel=0, data=[57, 100]),
   midi.NoteOnEvent(tick=0, channel=0, data=[62, 100]),
   midi.NoteOffEvent(tick=60, channel=0, data=[57, 64]),
   midi.NoteOffEvent(tick=0, channel=0, data=[62, 0]),
   midi.NoteOnEvent(tick=0, channel=0, data=[57, 100]),
   midi.NoteOnEvent(tick=0, channel=0, data=[62, 100]),
   midi.NoteOffEvent(tick=60, channel=0, data=[57, 64]),
   midi.NoteOffEvent(tick=0, channel=0, data=[62, 64]),
   midi.NoteOnEvent(tick=0, channel=0, data=[58, 100]),
   midi.NoteOnEvent(tick=0, channel=0, data=[63, 100]),
   midi.NoteOffEvent(tick=120, channel=0, data=[58, 0]),
   midi.NoteOffEvent(tick=0, channel=0, data=[63, 64]),
   midi.NoteOnEvent(tick=0, channel=0, data=[57, 100]),
   midi.NoteOnEvent(tick=0, channel=0, data=[62, 100]),
   midi.NoteOffEvent(tick=120, channel=0, data=[57, 64]),
   midi.NoteOffEvent(tick=0, channel=0, data=[62, 64]),
   midi.NoteOnEvent(tick=0, channel=0, data=[62, 100]),
   midi.NoteOnEvent(tick=0, channel=0, data=[57, 100]),
   midi.NoteOffEvent(tick=60, channel=0, data=[62, 64]),
   midi.NoteOffEvent(tick=0, channel=0, data=[57, 0]),
   midi.NoteOnEvent(tick=60, channel=0, data=[62, 100]),
   midi.NoteOnEvent(tick=0, channel=0, data=[57, 100]),
   midi.NoteOffEvent(tick=60, channel=0, data=[62, 64]),
   midi.NoteOffEvent(tick=0, channel=0, data=[57, 0]),
   midi.NoteOnEvent(tick=0, channel=0, data=[62, 100]),
   midi.NoteOnEvent(tick=0, channel=0, data=[57, 100]),
   midi.NoteOffEvent(tick=60, channel=0, data=[62, 64]),
   midi.NoteOffEvent(tick=0, channel=0, data=[57, 64]),
   midi.NoteOnEvent(tick=0, channel=0, data=[62, 100]),
   midi.NoteOnEvent(tick=0, channel=0, data=[57, 100]),
   midi.NoteOffEvent(tick=60, channel=0, data=[62, 64]),
   midi.NoteOffEvent(tick=0, channel=0, data=[57, 64]),
   midi.NoteOnEvent(tick=60, channel=0, data=[62, 100]),
   midi.NoteOnEvent(tick=0, channel=0, data=[57, 100]),
   midi.NoteOffEvent(tick=120, channel=0, data=[62, 64]),
   midi.NoteOffEvent(tick=0, channel=0, data=[57, 64]),
   midi.NoteOnEvent(tick=0, channel=0, data=[62, 100]),
   midi.NoteOnEvent(tick=0, channel=0, data=[57, 100]),
   midi.NoteOffEvent(tick=60, channel=0, data=[62, 0]),
   midi.NoteOffEvent(tick=0, channel=0, data=[57, 64]),
   midi.NoteOnEvent(tick=60, channel=0, data=[62, 100]),
   midi.NoteOnEvent(tick=0, channel=0, data=[57, 100]),
   midi.NoteOffEvent(tick=60, channel=0, data=[62, 0]),
   midi.NoteOffEvent(tick=0, channel=0, data=[57, 64]),
   midi.NoteOnEvent(tick=0, channel=0, data=[62, 100]),
   midi.NoteOnEvent(tick=0, channel=0, data=[57, 100]),
   midi.NoteOffEvent(tick=60, channel=0, data=[62, 64]),
   midi.NoteOffEvent(tick=0, channel=0, data=[57, 64]),
   midi.NoteOnEvent(tick=0, channel=0, data=[56, 100]),
   midi.NoteOnEvent(tick=0, channel=0, data=[61, 100]),
   midi.NoteOffEvent(tick=120, channel=0, data=[56, 0]),
   midi.NoteOffEvent(tick=0, channel=0, data=[61, 0]),
   midi.NoteOnEvent(tick=0, channel=0, data=[57, 100]),
   midi.NoteOnEvent(tick=0, channel=0, data=[62, 100]),
   midi.NoteOffEvent(tick=480, channel=0, data=[57, 64]),
   midi.NoteOffEvent(tick=0, channel=0, data=[62, 64]),
   midi.NoteOnEvent(tick=0, channel=0, data=[56, 100]),
   midi.NoteOnEvent(tick=0, channel=0, data=[61, 100]),
   midi.NoteOffEvent(tick=360, channel=0, data=[56, 64]),
   midi.NoteOffEvent(tick=0, channel=0, data=[61, 64]),
   midi.NoteOnEvent(tick=0, channel=0, data=[60, 100]),
   midi.NoteOnEvent(tick=0, channel=0, data=[55, 100]),
   midi.NoteOffEvent(tick=840, channel=0, data=[60, 64]),
   midi.NoteOffEvent(tick=0, channel=0, data=[55, 64]),
   midi.NoteOnEvent(tick=0, channel=0, data=[54, 100]),
   midi.NoteOnEvent(tick=0, channel=0, data=[59, 100]),
   midi.NoteOffEvent(tick=240, channel=0, data=[54, 64]),
   midi.NoteOffEvent(tick=0, channel=0, data=[59, 64]),
   midi.NoteOnEvent(tick=0, channel=0, data=[62, 100]),
   midi.NoteOnEvent(tick=0, channel=0, data=[57, 100]),
   midi.NoteOffEvent(tick=480, channel=0, data=[62, 64]),
   midi.NoteOffEvent(tick=0, channel=0, data=[57, 64]),
   midi.NoteOnEvent(tick=0, channel=0, data=[61, 100]),
   midi.NoteOnEvent(tick=0, channel=0, data=[56, 100]),
   midi.NoteOffEvent(tick=360, channel=0, data=[61, 64]),
   midi.NoteOffEvent(tick=0, channel=0, data=[56, 64]),
   midi.NoteOnEvent(tick=0, channel=0, data=[55, 100]),
   midi.NoteOnEvent(tick=0, channel=0, data=[60, 100]),
   midi.NoteOffEvent(tick=840, channel=0, data=[55, 64]),
   midi.NoteOffEvent(tick=0, channel=0, data=[60, 64]),
   midi.NoteOnEvent(tick=240, channel=0, data=[62, 100]),
   midi.NoteOnEvent(tick=0, channel=0, data=[57, 100]),
   midi.NoteOffEvent(tick=480, channel=0, data=[62, 64]),
   midi.NoteOffEvent(tick=0, channel=0, data=[57, 64]),
   midi.NoteOnEvent(tick=0, channel=0, data=[61, 100]),
   midi.NoteOnEvent(tick=0, channel=0, data=[56, 100]),
   midi.NoteOffEvent(tick=360, channel=0, data=[61, 64]),
   midi.NoteOffEvent(tick=0, channel=0, data=[56, 64]),
   midi.NoteOnEvent(tick=0, channel=0, data=[55, 100]),
   midi.NoteOnEvent(tick=0, channel=0, data=[60, 100]),
   midi.NoteOffEvent(tick=840, channel=0, data=[55, 64]),
   midi.NoteOffEvent(tick=0, channel=0, data=[60, 64]),
   midi.NoteOnEvent(tick=0, channel=0, data=[59, 100]),
   midi.NoteOnEvent(tick=0, channel=0, data=[54, 100]),
   midi.NoteOffEvent(tick=240, channel=0, data=[59, 64]),
   midi.NoteOffEvent(tick=0, channel=0, data=[54, 64]),
   midi.NoteOnEvent(tick=0, channel=0, data=[62, 100]),
   midi.NoteOnEvent(tick=0, channel=0, data=[57, 100]),
   midi.NoteOffEvent(tick=480, channel=0, data=[62, 64]),
   midi.NoteOffEvent(tick=0, channel=0, data=[57, 64]),
   midi.NoteOnEvent(tick=0, channel=0, data=[61, 100]),
   midi.NoteOnEvent(tick=0, channel=0, data=[56, 100]),
   midi.NoteOffEvent(tick=360, channel=0, data=[61, 64]),
   midi.NoteOffEvent(tick=0, channel=0, data=[56, 64]),
   midi.NoteOnEvent(tick=0, channel=0, data=[55, 100]),
   midi.NoteOnEvent(tick=0, channel=0, data=[60, 100]),
   midi.NoteOffEvent(tick=840, channel=0, data=[55, 64]),
   midi.NoteOffEvent(tick=0, channel=0, data=[60, 64]),
   midi.NoteOnEvent(tick=11760, channel=0, data=[50, 100]),
   midi.NoteOnEvent(tick=0, channel=0, data=[57, 100]),
   midi.NoteOffEvent(tick=720, channel=0, data=[50, 64]),
   midi.NoteOffEvent(tick=0, channel=0, data=[57, 64]),
   midi.NoteOnEvent(tick=0, channel=0, data=[58, 100]),
   midi.NoteOnEvent(tick=0, channel=0, data=[51, 100]),
   midi.NoteOffEvent(tick=120, channel=0, data=[58, 64]),
   midi.NoteOffEvent(tick=0, channel=0, data=[51, 0]),
   midi.NoteOnEvent(tick=120, channel=0, data=[57, 100]),
   midi.NoteOnEvent(tick=0, channel=0, data=[50, 100]),
   midi.NoteOffEvent(tick=720, channel=0, data=[57, 64]),
   midi.NoteOffEvent(tick=0, channel=0, data=[50, 64]),
   midi.NoteOnEvent(tick=0, channel=0, data=[51, 100]),
   midi.NoteOnEvent(tick=0, channel=0, data=[58, 100]),
   midi.NoteOffEvent(tick=120, channel=0, data=[51, 0]),
   midi.NoteOffEvent(tick=0, channel=0, data=[58, 64]),
   midi.NoteOnEvent(tick=120, channel=0, data=[57, 100]),
   midi.NoteOnEvent(tick=0, channel=0, data=[50, 100]),
   midi.NoteOffEvent(tick=720, channel=0, data=[57, 64]),
   midi.NoteOffEvent(tick=0, channel=0, data=[50, 64]),
   midi.NoteOnEvent(tick=0, channel=0, data=[56, 100]),
   midi.NoteOnEvent(tick=0, channel=0, data=[49, 100]),
   midi.NoteOffEvent(tick=120, channel=0, data=[56, 64]),
   midi.NoteOffEvent(tick=0, channel=0, data=[49, 0]),
   midi.NoteOnEvent(tick=1080, channel=0, data=[57, 100]),
   midi.NoteOnEvent(tick=0, channel=0, data=[50, 100]),
   midi.NoteOffEvent(tick=720, channel=0, data=[57, 64]),
   midi.NoteOffEvent(tick=0, channel=0, data=[50, 64]),
   midi.NoteOnEvent(tick=0, channel=0, data=[51, 100]),
   midi.NoteOnEvent(tick=0, channel=0, data=[58, 100]),
   midi.NoteOffEvent(tick=120, channel=0, data=[51, 0]),
   midi.NoteOffEvent(tick=0, channel=0, data=[58, 64]),
   midi.NoteOnEvent(tick=120, channel=0, data=[50, 100]),
   midi.NoteOnEvent(tick=0, channel=0, data=[57, 100]),
   midi.NoteOffEvent(tick=720, channel=0, data=[50, 64]),
   midi.NoteOffEvent(tick=0, channel=0, data=[57, 64]),
   midi.NoteOnEvent(tick=0, channel=0, data=[58, 100]),
   midi.NoteOnEvent(tick=0, channel=0, data=[51, 100]),
   midi.NoteOffEvent(tick=120, channel=0, data=[58, 64]),
   midi.NoteOffEvent(tick=0, channel=0, data=[51, 0]),
   midi.NoteOnEvent(tick=120, channel=0, data=[50, 100]),
   midi.NoteOnEvent(tick=0, channel=0, data=[57, 100]),
   midi.NoteOffEvent(tick=720, channel=0, data=[50, 64]),
   midi.NoteOffEvent(tick=0, channel=0, data=[57, 64]),
   midi.NoteOnEvent(tick=0, channel=0, data=[49, 100]),
   midi.NoteOnEvent(tick=0, channel=0, data=[56, 100]),
   midi.NoteOffEvent(tick=120, channel=0, data=[49, 0]),
   midi.NoteOffEvent(tick=0, channel=0, data=[56, 64]),
   midi.NoteOnEvent(tick=1080, channel=0, data=[57, 100]),
   midi.NoteOnEvent(tick=0, channel=0, data=[62, 100]),
   midi.NoteOffEvent(tick=120, channel=0, data=[57, 64]),
   midi.NoteOffEvent(tick=0, channel=0, data=[62, 64]),
   midi.NoteOnEvent(tick=0, channel=0, data=[62, 100]),
   midi.NoteOnEvent(tick=0, channel=0, data=[57, 100]),
   midi.NoteOffEvent(tick=60, channel=0, data=[62, 64]),
   midi.NoteOffEvent(tick=0, channel=0, data=[57, 0]),
   midi.NoteOnEvent(tick=60, channel=0, data=[62, 100]),
   midi.NoteOnEvent(tick=0, channel=0, data=[57, 100]),
   midi.NoteOffEvent(tick=60, channel=0, data=[62, 64]),
   midi.NoteOffEvent(tick=0, channel=0, data=[57, 0]),
   midi.NoteOnEvent(tick=0, channel=0, data=[62, 100]),
   midi.NoteOnEvent(tick=0, channel=0, data=[57, 100]),
   midi.NoteOffEvent(tick=60, channel=0, data=[62, 64]),
   midi.NoteOffEvent(tick=0, channel=0, data=[57, 64]),
   midi.NoteOnEvent(tick=0, channel=0, data=[62, 100]),
   midi.NoteOnEvent(tick=0, channel=0, data=[57, 100]),
   midi.NoteOffEvent(tick=60, channel=0, data=[62, 64]),
   midi.NoteOffEvent(tick=0, channel=0, data=[57, 64]),
   midi.NoteOnEvent(tick=60, channel=0, data=[62, 100]),
   midi.NoteOnEvent(tick=0, channel=0, data=[57, 100]),
   midi.NoteOffEvent(tick=120, channel=0, data=[62, 64]),
   midi.NoteOffEvent(tick=0, channel=0, data=[57, 64]),
   midi.NoteOnEvent(tick=0, channel=0, data=[62, 100]),
   midi.NoteOnEvent(tick=0, channel=0, data=[57, 100]),
   midi.NoteOffEvent(tick=60, channel=0, data=[62, 0]),
   midi.NoteOffEvent(tick=0, channel=0, data=[57, 64]),
   midi.NoteOnEvent(tick=60, channel=0, data=[62, 100]),
   midi.NoteOnEvent(tick=0, channel=0, data=[57, 100]),
   midi.NoteOffEvent(tick=60, channel=0, data=[62, 0]),
   midi.NoteOffEvent(tick=0, channel=0, data=[57, 64]),
   midi.NoteOnEvent(tick=0, channel=0, data=[62, 100]),
   midi.NoteOnEvent(tick=0, channel=0, data=[57, 100]),
   midi.NoteOffEvent(tick=60, channel=0, data=[62, 64]),
   midi.NoteOffEvent(tick=0, channel=0, data=[57, 64]),
   midi.NoteOnEvent(tick=0, channel=0, data=[63, 100]),
   midi.NoteOnEvent(tick=0, channel=0, data=[58, 100]),
   midi.NoteOffEvent(tick=120, channel=0, data=[63, 64]),
   midi.NoteOffEvent(tick=0, channel=0, data=[58, 0]),
   midi.NoteOnEvent(tick=0, channel=0, data=[62, 100]),
   midi.NoteOnEvent(tick=0, channel=0, data=[57, 100]),
   midi.NoteOffEvent(tick=120, channel=0, data=[62, 64]),
   midi.NoteOffEvent(tick=0, channel=0, data=[57, 64]),
   midi.NoteOnEvent(tick=0, channel=0, data=[57, 100]),
   midi.NoteOnEvent(tick=0, channel=0, data=[62, 100]),
   midi.NoteOffEvent(tick=60, channel=0, data=[57, 0]),
   midi.NoteOffEvent(tick=0, channel=0, data=[62, 64]),
   midi.NoteOnEvent(tick=60, channel=0, data=[57, 100]),
   midi.NoteOnEvent(tick=0, channel=0, data=[62, 100]),
   midi.NoteOffEvent(tick=60, channel=0, data=[57, 0]),
   midi.NoteOffEvent(tick=0, channel=0, data=[62, 64]),
   midi.NoteOnEvent(tick=0, channel=0, data=[57, 100]),
   midi.NoteOnEvent(tick=0, channel=0, data=[62, 100]),
   midi.NoteOffEvent(tick=60, channel=0, data=[57, 64]),
   midi.NoteOffEvent(tick=0, channel=0, data=[62, 64]),
   midi.NoteOnEvent(tick=0, channel=0, data=[57, 100]),
   midi.NoteOnEvent(tick=0, channel=0, data=[62, 100]),
   midi.NoteOffEvent(tick=60, channel=0, data=[57, 64]),
   midi.NoteOffEvent(tick=0, channel=0, data=[62, 64]),
   midi.NoteOnEvent(tick=60, channel=0, data=[57, 100]),
   midi.NoteOnEvent(tick=0, channel=0, data=[62, 100]),
   midi.NoteOffEvent(tick=120, channel=0, data=[57, 64]),
   midi.NoteOffEvent(tick=0, channel=0, data=[62, 64]),
   midi.NoteOnEvent(tick=0, channel=0, data=[57, 100]),
   midi.NoteOnEvent(tick=0, channel=0, data=[62, 100]),
   midi.NoteOffEvent(tick=60, channel=0, data=[57, 64]),
   midi.NoteOffEvent(tick=0, channel=0, data=[62, 0]),
   midi.NoteOnEvent(tick=60, channel=0, data=[57, 100]),
   midi.NoteOnEvent(tick=0, channel=0, data=[62, 100]),
   midi.NoteOffEvent(tick=60, channel=0, data=[57, 64]),
   midi.NoteOffEvent(tick=0, channel=0, data=[62, 0]),
   midi.NoteOnEvent(tick=0, channel=0, data=[57, 100]),
   midi.NoteOnEvent(tick=0, channel=0, data=[62, 100]),
   midi.NoteOffEvent(tick=60, channel=0, data=[57, 64]),
   midi.NoteOffEvent(tick=0, channel=0, data=[62, 64]),
   midi.NoteOnEvent(tick=0, channel=0, data=[61, 100]),
   midi.NoteOnEvent(tick=0, channel=0, data=[56, 100]),
   midi.NoteOffEvent(tick=120, channel=0, data=[61, 0]),
   midi.NoteOffEvent(tick=0, channel=0, data=[56, 0]),
   midi.NoteOnEvent(tick=0, channel=0, data=[62, 100]),
   midi.NoteOnEvent(tick=0, channel=0, data=[57, 100]),
   midi.NoteOffEvent(tick=120, channel=0, data=[62, 64]),
   midi.NoteOffEvent(tick=0, channel=0, data=[57, 64]),
   midi.NoteOnEvent(tick=0, channel=0, data=[57, 100]),
   midi.NoteOnEvent(tick=0, channel=0, data=[62, 100]),
   midi.NoteOffEvent(tick=60, channel=0, data=[57, 0]),
   midi.NoteOffEvent(tick=0, channel=0, data=[62, 64]),
   midi.NoteOnEvent(tick=60, channel=0, data=[57, 100]),
   midi.NoteOnEvent(tick=0, channel=0, data=[62, 100]),
   midi.NoteOffEvent(tick=60, channel=0, data=[57, 0]),
   midi.NoteOffEvent(tick=0, channel=0, data=[62, 64]),
   midi.NoteOnEvent(tick=0, channel=0, data=[57, 100]),
   midi.NoteOnEvent(tick=0, channel=0, data=[62, 100]),
   midi.NoteOffEvent(tick=60, channel=0, data=[57, 64]),
   midi.NoteOffEvent(tick=0, channel=0, data=[62, 64]),
   midi.NoteOnEvent(tick=0, channel=0, data=[57, 100]),
   midi.NoteOnEvent(tick=0, channel=0, data=[62, 100]),
   midi.NoteOffEvent(tick=60, channel=0, data=[57, 64]),
   midi.NoteOffEvent(tick=0, channel=0, data=[62, 64]),
   midi.NoteOnEvent(tick=60, channel=0, data=[57, 100]),
   midi.NoteOnEvent(tick=0, channel=0, data=[62, 100]),
   midi.NoteOffEvent(tick=120, channel=0, data=[57, 64]),
   midi.NoteOffEvent(tick=0, channel=0, data=[62, 64]),
   midi.NoteOnEvent(tick=0, channel=0, data=[57, 100]),
   midi.NoteOnEvent(tick=0, channel=0, data=[62, 100]),
   midi.NoteOffEvent(tick=60, channel=0, data=[57, 64]),
   midi.NoteOffEvent(tick=0, channel=0, data=[62, 0]),
   midi.NoteOnEvent(tick=60, channel=0, data=[57, 100]),
   midi.NoteOnEvent(tick=0, channel=0, data=[62, 100]),
   midi.NoteOffEvent(tick=60, channel=0, data=[57, 64]),
   midi.NoteOffEvent(tick=0, channel=0, data=[62, 0]),
   midi.NoteOnEvent(tick=0, channel=0, data=[57, 100]),
   midi.NoteOnEvent(tick=0, channel=0, data=[62, 100]),
   midi.NoteOffEvent(tick=60, channel=0, data=[57, 64]),
   midi.NoteOffEvent(tick=0, channel=0, data=[62, 64]),
   midi.NoteOnEvent(tick=0, channel=0, data=[58, 100]),
   midi.NoteOnEvent(tick=0, channel=0, data=[63, 100]),
   midi.NoteOffEvent(tick=120, channel=0, data=[58, 0]),
   midi.NoteOffEvent(tick=0, channel=0, data=[63, 64]),
   midi.NoteOnEvent(tick=0, channel=0, data=[57, 100]),
   midi.NoteOnEvent(tick=0, channel=0, data=[62, 100]),
   midi.NoteOffEvent(tick=120, channel=0, data=[57, 64]),
   midi.NoteOffEvent(tick=0, channel=0, data=[62, 64]),
   midi.NoteOnEvent(tick=0, channel=0, data=[62, 100]),
   midi.NoteOnEvent(tick=0, channel=0, data=[57, 100]),
   midi.NoteOffEvent(tick=60, channel=0, data=[62, 64]),
   midi.NoteOffEvent(tick=0, channel=0, data=[57, 0]),
   midi.NoteOnEvent(tick=60, channel=0, data=[62, 100]),
   midi.NoteOnEvent(tick=0, channel=0, data=[57, 100]),
   midi.NoteOffEvent(tick=60, channel=0, data=[62, 64]),
   midi.NoteOffEvent(tick=0, channel=0, data=[57, 0]),
   midi.NoteOnEvent(tick=0, channel=0, data=[62, 100]),
   midi.NoteOnEvent(tick=0, channel=0, data=[57, 100]),
   midi.NoteOffEvent(tick=60, channel=0, data=[62, 64]),
   midi.NoteOffEvent(tick=0, channel=0, data=[57, 64]),
   midi.NoteOnEvent(tick=0, channel=0, data=[62, 100]),
   midi.NoteOnEvent(tick=0, channel=0, data=[57, 100]),
   midi.NoteOffEvent(tick=60, channel=0, data=[62, 64]),
   midi.NoteOffEvent(tick=0, channel=0, data=[57, 64]),
   midi.NoteOnEvent(tick=60, channel=0, data=[62, 100]),
   midi.NoteOnEvent(tick=0, channel=0, data=[57, 100]),
   midi.NoteOffEvent(tick=120, channel=0, data=[62, 64]),
   midi.NoteOffEvent(tick=0, channel=0, data=[57, 64]),
   midi.NoteOnEvent(tick=0, channel=0, data=[62, 100]),
   midi.NoteOnEvent(tick=0, channel=0, data=[57, 100]),
   midi.NoteOffEvent(tick=60, channel=0, data=[62, 0]),
   midi.NoteOffEvent(tick=0, channel=0, data=[57, 64]),
   midi.NoteOnEvent(tick=60, channel=0, data=[62, 100]),
   midi.NoteOnEvent(tick=0, channel=0, data=[57, 100]),
   midi.NoteOffEvent(tick=60, channel=0, data=[62, 0]),
   midi.NoteOffEvent(tick=0, channel=0, data=[57, 64]),
   midi.NoteOnEvent(tick=0, channel=0, data=[62, 100]),
   midi.NoteOnEvent(tick=0, channel=0, data=[57, 100]),
   midi.NoteOffEvent(tick=60, channel=0, data=[62, 64]),
   midi.NoteOffEvent(tick=0, channel=0, data=[57, 64]),
   midi.NoteOnEvent(tick=0, channel=0, data=[56, 100]),
   midi.NoteOnEvent(tick=0, channel=0, data=[61, 100]),
   midi.NoteOffEvent(tick=120, channel=0, data=[56, 0]),
   midi.NoteOffEvent(tick=0, channel=0, data=[61, 0]),
   midi.NoteOnEvent(tick=0, channel=0, data=[62, 100]),
   midi.NoteOnEvent(tick=0, channel=0, data=[57, 100]),
   midi.NoteOffEvent(tick=120, channel=0, data=[62, 64]),
   midi.NoteOffEvent(tick=0, channel=0, data=[57, 64]),
   midi.NoteOnEvent(tick=0, channel=0, data=[57, 100]),
   midi.NoteOnEvent(tick=0, channel=0, data=[62, 100]),
   midi.NoteOffEvent(tick=60, channel=0, data=[57, 0]),
   midi.NoteOffEvent(tick=0, channel=0, data=[62, 64]),
   midi.NoteOnEvent(tick=60, channel=0, data=[57, 100]),
   midi.NoteOnEvent(tick=0, channel=0, data=[62, 100]),
   midi.NoteOffEvent(tick=60, channel=0, data=[57, 0]),
   midi.NoteOffEvent(tick=0, channel=0, data=[62, 64]),
   midi.NoteOnEvent(tick=0, channel=0, data=[57, 100]),
   midi.NoteOnEvent(tick=0, channel=0, data=[62, 100]),
   midi.NoteOffEvent(tick=60, channel=0, data=[57, 64]),
   midi.NoteOffEvent(tick=0, channel=0, data=[62, 64]),
   midi.NoteOnEvent(tick=0, channel=0, data=[57, 100]),
   midi.NoteOnEvent(tick=0, channel=0, data=[62, 100]),
   midi.NoteOffEvent(tick=60, channel=0, data=[57, 64]),
   midi.NoteOffEvent(tick=0, channel=0, data=[62, 64]),
   midi.NoteOnEvent(tick=60, channel=0, data=[57, 100]),
   midi.NoteOnEvent(tick=0, channel=0, data=[62, 100]),
   midi.NoteOffEvent(tick=120, channel=0, data=[57, 64]),
   midi.NoteOffEvent(tick=0, channel=0, data=[62, 64]),
   midi.NoteOnEvent(tick=0, channel=0, data=[57, 100]),
   midi.NoteOnEvent(tick=0, channel=0, data=[62, 100]),
   midi.NoteOffEvent(tick=60, channel=0, data=[57, 64]),
   midi.NoteOffEvent(tick=0, channel=0, data=[62, 0]),
   midi.NoteOnEvent(tick=60, channel=0, data=[57, 100]),
   midi.NoteOnEvent(tick=0, channel=0, data=[62, 100]),
   midi.NoteOffEvent(tick=60, channel=0, data=[57, 64]),
   midi.NoteOffEvent(tick=0, channel=0, data=[62, 0]),
   midi.NoteOnEvent(tick=0, channel=0, data=[57, 100]),
   midi.NoteOnEvent(tick=0, channel=0, data=[62, 100]),
   midi.NoteOffEvent(tick=60, channel=0, data=[57, 64]),
   midi.NoteOffEvent(tick=0, channel=0, data=[62, 64]),
   midi.NoteOnEvent(tick=0, channel=0, data=[58, 100]),
   midi.NoteOnEvent(tick=0, channel=0, data=[63, 100]),
   midi.NoteOffEvent(tick=120, channel=0, data=[58, 0]),
   midi.NoteOffEvent(tick=0, channel=0, data=[63, 64]),
   midi.NoteOnEvent(tick=0, channel=0, data=[57, 100]),
   midi.NoteOnEvent(tick=0, channel=0, data=[62, 100]),
   midi.NoteOffEvent(tick=120, channel=0, data=[57, 64]),
   midi.NoteOffEvent(tick=0, channel=0, data=[62, 64]),
   midi.NoteOnEvent(tick=0, channel=0, data=[62, 100]),
   midi.NoteOnEvent(tick=0, channel=0, data=[57, 100]),
   midi.NoteOffEvent(tick=60, channel=0, data=[62, 64]),
   midi.NoteOffEvent(tick=0, channel=0, data=[57, 0]),
   midi.NoteOnEvent(tick=60, channel=0, data=[62, 100]),
   midi.NoteOnEvent(tick=0, channel=0, data=[57, 100]),
   midi.NoteOffEvent(tick=60, channel=0, data=[62, 64]),
   midi.NoteOffEvent(tick=0, channel=0, data=[57, 0]),
   midi.NoteOnEvent(tick=0, channel=0, data=[62, 100]),
   midi.NoteOnEvent(tick=0, channel=0, data=[57, 100]),
   midi.NoteOffEvent(tick=60, channel=0, data=[62, 64]),
   midi.NoteOffEvent(tick=0, channel=0, data=[57, 64]),
   midi.NoteOnEvent(tick=0, channel=0, data=[62, 100]),
   midi.NoteOnEvent(tick=0, channel=0, data=[57, 100]),
   midi.NoteOffEvent(tick=60, channel=0, data=[62, 64]),
   midi.NoteOffEvent(tick=0, channel=0, data=[57, 64]),
   midi.NoteOnEvent(tick=60, channel=0, data=[62, 100]),
   midi.NoteOnEvent(tick=0, channel=0, data=[57, 100]),
   midi.NoteOffEvent(tick=120, channel=0, data=[62, 64]),
   midi.NoteOffEvent(tick=0, channel=0, data=[57, 64]),
   midi.NoteOnEvent(tick=0, channel=0, data=[62, 100]),
   midi.NoteOnEvent(tick=0, channel=0, data=[57, 100]),
   midi.NoteOffEvent(tick=60, channel=0, data=[62, 0]),
   midi.NoteOffEvent(tick=0, channel=0, data=[57, 64]),
   midi.NoteOnEvent(tick=60, channel=0, data=[62, 100]),
   midi.NoteOnEvent(tick=0, channel=0, data=[57, 100]),
   midi.NoteOffEvent(tick=60, channel=0, data=[62, 0]),
   midi.NoteOffEvent(tick=0, channel=0, data=[57, 64]),
   midi.NoteOnEvent(tick=0, channel=0, data=[62, 100]),
   midi.NoteOnEvent(tick=0, channel=0, data=[57, 100]),
   midi.NoteOffEvent(tick=60, channel=0, data=[62, 64]),
   midi.NoteOffEvent(tick=0, channel=0, data=[57, 64]),
   midi.NoteOnEvent(tick=0, channel=0, data=[56, 100]),
   midi.NoteOnEvent(tick=0, channel=0, data=[61, 100]),
   midi.NoteOffEvent(tick=120, channel=0, data=[56, 0]),
   midi.NoteOffEvent(tick=0, channel=0, data=[61, 0]),
   midi.NoteOnEvent(tick=0, channel=0, data=[62, 100]),
   midi.NoteOnEvent(tick=0, channel=0, data=[57, 100]),
   midi.NoteOffEvent(tick=120, channel=0, data=[62, 64]),
   midi.NoteOffEvent(tick=0, channel=0, data=[57, 64]),
   midi.NoteOnEvent(tick=0, channel=0, data=[57, 100]),
   midi.NoteOnEvent(tick=0, channel=0, data=[62, 100]),
   midi.NoteOffEvent(tick=60, channel=0, data=[57, 0]),
   midi.NoteOffEvent(tick=0, channel=0, data=[62, 64]),
   midi.NoteOnEvent(tick=60, channel=0, data=[57, 100]),
   midi.NoteOnEvent(tick=0, channel=0, data=[62, 100]),
   midi.NoteOffEvent(tick=60, channel=0, data=[57, 0]),
   midi.NoteOffEvent(tick=0, channel=0, data=[62, 64]),
   midi.NoteOnEvent(tick=0, channel=0, data=[57, 100]),
   midi.NoteOnEvent(tick=0, channel=0, data=[62, 100]),
   midi.NoteOffEvent(tick=60, channel=0, data=[57, 64]),
   midi.NoteOffEvent(tick=0, channel=0, data=[62, 64]),
   midi.NoteOnEvent(tick=0, channel=0, data=[57, 100]),
   midi.NoteOnEvent(tick=0, channel=0, data=[62, 100]),
   midi.NoteOffEvent(tick=60, channel=0, data=[57, 64]),
   midi.NoteOffEvent(tick=0, channel=0, data=[62, 64]),
   midi.NoteOnEvent(tick=60, channel=0, data=[57, 100]),
   midi.NoteOnEvent(tick=0, channel=0, data=[62, 100]),
   midi.NoteOffEvent(tick=120, channel=0, data=[57, 64]),
   midi.NoteOffEvent(tick=0, channel=0, data=[62, 64]),
   midi.NoteOnEvent(tick=0, channel=0, data=[57, 100]),
   midi.NoteOnEvent(tick=0, channel=0, data=[62, 100]),
   midi.NoteOffEvent(tick=60, channel=0, data=[57, 64]),
   midi.NoteOffEvent(tick=0, channel=0, data=[62, 0]),
   midi.NoteOnEvent(tick=60, channel=0, data=[57, 100]),
   midi.NoteOnEvent(tick=0, channel=0, data=[62, 100]),
   midi.NoteOffEvent(tick=60, channel=0, data=[57, 64]),
   midi.NoteOffEvent(tick=0, channel=0, data=[62, 0]),
   midi.NoteOnEvent(tick=0, channel=0, data=[57, 100]),
   midi.NoteOnEvent(tick=0, channel=0, data=[62, 100]),
   midi.NoteOffEvent(tick=60, channel=0, data=[57, 64]),
   midi.NoteOffEvent(tick=0, channel=0, data=[62, 64]),
   midi.NoteOnEvent(tick=0, channel=0, data=[58, 100]),
   midi.NoteOnEvent(tick=0, channel=0, data=[63, 100]),
   midi.NoteOffEvent(tick=120, channel=0, data=[58, 0]),
   midi.NoteOffEvent(tick=0, channel=0, data=[63, 64]),
   midi.NoteOnEvent(tick=0, channel=0, data=[57, 100]),
   midi.NoteOnEvent(tick=0, channel=0, data=[62, 100]),
   midi.NoteOffEvent(tick=120, channel=0, data=[57, 64]),
   midi.NoteOffEvent(tick=0, channel=0, data=[62, 64]),
   midi.NoteOnEvent(tick=0, channel=0, data=[62, 100]),
   midi.NoteOnEvent(tick=0, channel=0, data=[57, 100]),
   midi.NoteOffEvent(tick=60, channel=0, data=[62, 64]),
   midi.NoteOffEvent(tick=0, channel=0, data=[57, 0]),
   midi.NoteOnEvent(tick=60, channel=0, data=[62, 100]),
   midi.NoteOnEvent(tick=0, channel=0, data=[57, 100]),
   midi.NoteOffEvent(tick=60, channel=0, data=[62, 64]),
   midi.NoteOffEvent(tick=0, channel=0, data=[57, 0]),
   midi.NoteOnEvent(tick=0, channel=0, data=[62, 100]),
   midi.NoteOnEvent(tick=0, channel=0, data=[57, 100]),
   midi.NoteOffEvent(tick=60, channel=0, data=[62, 64]),
   midi.NoteOffEvent(tick=0, channel=0, data=[57, 64]),
   midi.NoteOnEvent(tick=0, channel=0, data=[62, 100]),
   midi.NoteOnEvent(tick=0, channel=0, data=[57, 100]),
   midi.NoteOffEvent(tick=60, channel=0, data=[62, 64]),
   midi.NoteOffEvent(tick=0, channel=0, data=[57, 64]),
   midi.NoteOnEvent(tick=60, channel=0, data=[62, 100]),
   midi.NoteOnEvent(tick=0, channel=0, data=[57, 100]),
   midi.NoteOffEvent(tick=120, channel=0, data=[62, 64]),
   midi.NoteOffEvent(tick=0, channel=0, data=[57, 64]),
   midi.NoteOnEvent(tick=0, channel=0, data=[62, 100]),
   midi.NoteOnEvent(tick=0, channel=0, data=[57, 100]),
   midi.NoteOffEvent(tick=60, channel=0, data=[62, 0]),
   midi.NoteOffEvent(tick=0, channel=0, data=[57, 64]),
   midi.NoteOnEvent(tick=60, channel=0, data=[62, 100]),
   midi.NoteOnEvent(tick=0, channel=0, data=[57, 100]),
   midi.NoteOffEvent(tick=60, channel=0, data=[62, 0]),
   midi.NoteOffEvent(tick=0, channel=0, data=[57, 64]),
   midi.NoteOnEvent(tick=0, channel=0, data=[62, 100]),
   midi.NoteOnEvent(tick=0, channel=0, data=[57, 100]),
   midi.NoteOffEvent(tick=60, channel=0, data=[62, 64]),
   midi.NoteOffEvent(tick=0, channel=0, data=[57, 64]),
   midi.NoteOnEvent(tick=0, channel=0, data=[56, 100]),
   midi.NoteOnEvent(tick=0, channel=0, data=[61, 100]),
   midi.NoteOffEvent(tick=120, channel=0, data=[56, 0]),
   midi.NoteOffEvent(tick=0, channel=0, data=[61, 0]),
   midi.NoteOnEvent(tick=0, channel=0, data=[57, 100]),
   midi.NoteOnEvent(tick=0, channel=0, data=[62, 100]),
   midi.NoteOffEvent(tick=480, channel=0, data=[57, 64]),
   midi.NoteOffEvent(tick=0, channel=0, data=[62, 64]),
   midi.NoteOnEvent(tick=0, channel=0, data=[56, 100]),
   midi.NoteOnEvent(tick=0, channel=0, data=[61, 100]),
   midi.NoteOffEvent(tick=360, channel=0, data=[56, 64]),
   midi.NoteOffEvent(tick=0, channel=0, data=[61, 64]),
   midi.NoteOnEvent(tick=0, channel=0, data=[60, 100]),
   midi.NoteOnEvent(tick=0, channel=0, data=[55, 100]),
   midi.NoteOffEvent(tick=840, channel=0, data=[60, 64]),
   midi.NoteOffEvent(tick=0, channel=0, data=[55, 64]),
   midi.NoteOnEvent(tick=0, channel=0, data=[54, 100]),
   midi.NoteOnEvent(tick=0, channel=0, data=[59, 100]),
   midi.NoteOffEvent(tick=240, channel=0, data=[54, 64]),
   midi.NoteOffEvent(tick=0, channel=0, data=[59, 64]),
   midi.NoteOnEvent(tick=0, channel=0, data=[62, 100]),
   midi.NoteOnEvent(tick=0, channel=0, data=[57, 100]),
   midi.NoteOffEvent(tick=480, channel=0, data=[62, 64]),
   midi.NoteOffEvent(tick=0, channel=0, data=[57, 64]),
   midi.NoteOnEvent(tick=0, channel=0, data=[61, 100]),
   midi.NoteOnEvent(tick=0, channel=0, data=[56, 100]),
   midi.NoteOffEvent(tick=360, channel=0, data=[61, 64]),
   midi.NoteOffEvent(tick=0, channel=0, data=[56, 64]),
   midi.NoteOnEvent(tick=0, channel=0, data=[55, 100]),
   midi.NoteOnEvent(tick=0, channel=0, data=[60, 100]),
   midi.NoteOffEvent(tick=840, channel=0, data=[55, 64]),
   midi.NoteOffEvent(tick=0, channel=0, data=[60, 64]),
   midi.NoteOnEvent(tick=240, channel=0, data=[62, 100]),
   midi.NoteOnEvent(tick=0, channel=0, data=[57, 100]),
   midi.NoteOffEvent(tick=480, channel=0, data=[62, 64]),
   midi.NoteOffEvent(tick=0, channel=0, data=[57, 64]),
   midi.NoteOnEvent(tick=0, channel=0, data=[61, 100]),
   midi.NoteOnEvent(tick=0, channel=0, data=[56, 100]),
   midi.NoteOffEvent(tick=360, channel=0, data=[61, 64]),
   midi.NoteOffEvent(tick=0, channel=0, data=[56, 64]),
   midi.NoteOnEvent(tick=0, channel=0, data=[55, 100]),
   midi.NoteOnEvent(tick=0, channel=0, data=[60, 100]),
   midi.NoteOffEvent(tick=840, channel=0, data=[55, 64]),
   midi.NoteOffEvent(tick=0, channel=0, data=[60, 64]),
   midi.NoteOnEvent(tick=0, channel=0, data=[59, 100]),
   midi.NoteOnEvent(tick=0, channel=0, data=[54, 100]),
   midi.NoteOffEvent(tick=240, channel=0, data=[59, 64]),
   midi.NoteOffEvent(tick=0, channel=0, data=[54, 64]),
   midi.NoteOnEvent(tick=0, channel=0, data=[62, 100]),
   midi.NoteOnEvent(tick=0, channel=0, data=[57, 100]),
   midi.NoteOffEvent(tick=480, channel=0, data=[62, 64]),
   midi.NoteOffEvent(tick=0, channel=0, data=[57, 64]),
   midi.NoteOnEvent(tick=0, channel=0, data=[61, 100]),
   midi.NoteOnEvent(tick=0, channel=0, data=[56, 100]),
   midi.NoteOffEvent(tick=360, channel=0, data=[61, 64]),
   midi.NoteOffEvent(tick=0, channel=0, data=[56, 64]),
   midi.NoteOnEvent(tick=0, channel=0, data=[55, 100]),
   midi.NoteOnEvent(tick=0, channel=0, data=[60, 100]),
   midi.NoteOffEvent(tick=840, channel=0, data=[55, 64]),
   midi.NoteOffEvent(tick=0, channel=0, data=[60, 64]),
   midi.NoteOnEvent(tick=240, channel=0, data=[57, 100]),
   midi.NoteOnEvent(tick=0, channel=0, data=[62, 100]),
   midi.NoteOffEvent(tick=480, channel=0, data=[57, 64]),
   midi.NoteOffEvent(tick=0, channel=0, data=[62, 64]),
   midi.NoteOnEvent(tick=0, channel=0, data=[56, 100]),
   midi.NoteOnEvent(tick=0, channel=0, data=[61, 100]),
   midi.NoteOffEvent(tick=360, channel=0, data=[56, 64]),
   midi.NoteOffEvent(tick=0, channel=0, data=[61, 64]),
   midi.NoteOnEvent(tick=0, channel=0, data=[60, 100]),
   midi.NoteOnEvent(tick=0, channel=0, data=[55, 100]),
   midi.NoteOffEvent(tick=840, channel=0, data=[60, 64]),
   midi.NoteOffEvent(tick=0, channel=0, data=[55, 64]),
   midi.NoteOnEvent(tick=0, channel=0, data=[54, 100]),
   midi.NoteOnEvent(tick=0, channel=0, data=[59, 100]),
   midi.NoteOffEvent(tick=240, channel=0, data=[54, 64]),
   midi.NoteOffEvent(tick=0, channel=0, data=[59, 64]),
   midi.NoteOnEvent(tick=0, channel=0, data=[62, 100]),
   midi.NoteOnEvent(tick=0, channel=0, data=[57, 100]),
   midi.NoteOffEvent(tick=480, channel=0, data=[62, 64]),
   midi.NoteOffEvent(tick=0, channel=0, data=[57, 64]),
   midi.NoteOnEvent(tick=0, channel=0, data=[61, 100]),
   midi.NoteOnEvent(tick=0, channel=0, data=[56, 100]),
   midi.NoteOffEvent(tick=360, channel=0, data=[61, 64]),
   midi.NoteOffEvent(tick=0, channel=0, data=[56, 64]),
   midi.NoteOnEvent(tick=0, channel=0, data=[55, 100]),
   midi.NoteOnEvent(tick=0, channel=0, data=[60, 100]),
   midi.NoteOffEvent(tick=840, channel=0, data=[55, 64]),
   midi.NoteOffEvent(tick=0, channel=0, data=[60, 64]),
   midi.NoteOnEvent(tick=240, channel=0, data=[62, 100]),
   midi.NoteOnEvent(tick=0, channel=0, data=[57, 100]),
   midi.NoteOffEvent(tick=480, channel=0, data=[62, 64]),
   midi.NoteOffEvent(tick=0, channel=0, data=[57, 64]),
   midi.NoteOnEvent(tick=0, channel=0, data=[61, 100]),
   midi.NoteOnEvent(tick=0, channel=0, data=[56, 100]),
   midi.NoteOffEvent(tick=360, channel=0, data=[61, 64]),
   midi.NoteOffEvent(tick=0, channel=0, data=[56, 64]),
   midi.NoteOnEvent(tick=0, channel=0, data=[55, 100]),
   midi.NoteOnEvent(tick=0, channel=0, data=[60, 100]),
   midi.NoteOffEvent(tick=840, channel=0, data=[55, 64]),
   midi.NoteOffEvent(tick=0, channel=0, data=[60, 64]),
   midi.NoteOnEvent(tick=0, channel=0, data=[59, 100]),
   midi.NoteOnEvent(tick=0, channel=0, data=[54, 100]),
   midi.NoteOffEvent(tick=240, channel=0, data=[59, 64]),
   midi.NoteOffEvent(tick=0, channel=0, data=[54, 64]),
   midi.NoteOnEvent(tick=0, channel=0, data=[62, 100]),
   midi.NoteOnEvent(tick=0, channel=0, data=[57, 100]),
   midi.NoteOffEvent(tick=480, channel=0, data=[62, 64]),
   midi.NoteOffEvent(tick=0, channel=0, data=[57, 64]),
   midi.NoteOnEvent(tick=0, channel=0, data=[61, 100]),
   midi.NoteOnEvent(tick=0, channel=0, data=[56, 100]),
   midi.NoteOffEvent(tick=360, channel=0, data=[61, 64]),
   midi.NoteOffEvent(tick=0, channel=0, data=[56, 64]),
   midi.NoteOnEvent(tick=0, channel=0, data=[55, 100]),
   midi.NoteOnEvent(tick=0, channel=0, data=[60, 100]),
   midi.NoteOffEvent(tick=840, channel=0, data=[55, 64]),
   midi.NoteOffEvent(tick=0, channel=0, data=[60, 64]),
   midi.NoteOnEvent(tick=9075, channel=0, data=[82, 100]),
   midi.NoteOnEvent(tick=307, channel=0, data=[82, 0]),
   midi.NoteOnEvent(tick=103, channel=0, data=[82, 100]),
   midi.NoteOnEvent(tick=253, channel=0, data=[82, 0]),
   midi.NoteOnEvent(tick=44, channel=0, data=[84, 100]),
   midi.NoteOnEvent(tick=939, channel=0, data=[84, 0]),
   midi.NoteOnEvent(tick=90, channel=0, data=[82, 100]),
   midi.NoteOnEvent(tick=379, channel=0, data=[82, 0]),
   midi.NoteOnEvent(tick=94, channel=0, data=[82, 100]),
   midi.NoteOnEvent(tick=311, channel=0, data=[82, 0]),
   midi.NoteOnEvent(tick=40, channel=0, data=[83, 100]),
   midi.NoteOnEvent(tick=860, channel=0, data=[83, 0]),
   midi.NoteOnEvent(tick=225, channel=0, data=[50, 100]),
   midi.NoteOnEvent(tick=0, channel=0, data=[57, 100]),
   midi.NoteOffEvent(tick=720, channel=0, data=[50, 64]),
   midi.NoteOffEvent(tick=0, channel=0, data=[57, 64]),
   midi.NoteOnEvent(tick=0, channel=0, data=[58, 100]),
   midi.NoteOnEvent(tick=0, channel=0, data=[51, 100]),
   midi.NoteOffEvent(tick=120, channel=0, data=[58, 64]),
   midi.NoteOffEvent(tick=0, channel=0, data=[51, 0]),
   midi.NoteOnEvent(tick=120, channel=0, data=[57, 100]),
   midi.NoteOnEvent(tick=0, channel=0, data=[50, 100]),
   midi.NoteOffEvent(tick=720, channel=0, data=[57, 64]),
   midi.NoteOffEvent(tick=0, channel=0, data=[50, 64]),
   midi.NoteOnEvent(tick=0, channel=0, data=[51, 100]),
   midi.NoteOnEvent(tick=0, channel=0, data=[58, 100]),
   midi.NoteOffEvent(tick=120, channel=0, data=[51, 0]),
   midi.NoteOffEvent(tick=0, channel=0, data=[58, 64]),
   midi.NoteOnEvent(tick=120, channel=0, data=[57, 100]),
   midi.NoteOnEvent(tick=0, channel=0, data=[50, 100]),
   midi.NoteOffEvent(tick=720, channel=0, data=[57, 64]),
   midi.NoteOffEvent(tick=0, channel=0, data=[50, 64]),
   midi.NoteOnEvent(tick=0, channel=0, data=[56, 100]),
   midi.NoteOnEvent(tick=0, channel=0, data=[49, 100]),
   midi.NoteOffEvent(tick=120, channel=0, data=[56, 64]),
   midi.NoteOffEvent(tick=0, channel=0, data=[49, 0]),
   midi.NoteOnEvent(tick=1080, channel=0, data=[57, 100]),
   midi.NoteOnEvent(tick=0, channel=0, data=[50, 100]),
   midi.NoteOffEvent(tick=720, channel=0, data=[57, 64]),
   midi.NoteOffEvent(tick=0, channel=0, data=[50, 64]),
   midi.NoteOnEvent(tick=0, channel=0, data=[51, 100]),
   midi.NoteOnEvent(tick=0, channel=0, data=[58, 100]),
   midi.NoteOffEvent(tick=120, channel=0, data=[51, 0]),
   midi.NoteOffEvent(tick=0, channel=0, data=[58, 64]),
   midi.NoteOnEvent(tick=120, channel=0, data=[50, 100]),
   midi.NoteOnEvent(tick=0, channel=0, data=[57, 100]),
   midi.NoteOffEvent(tick=720, channel=0, data=[50, 64]),
   midi.NoteOffEvent(tick=0, channel=0, data=[57, 64]),
   midi.NoteOnEvent(tick=0, channel=0, data=[58, 100]),
   midi.NoteOnEvent(tick=0, channel=0, data=[51, 100]),
   midi.NoteOffEvent(tick=120, channel=0, data=[58, 64]),
   midi.NoteOffEvent(tick=0, channel=0, data=[51, 0]),
   midi.NoteOnEvent(tick=120, channel=0, data=[50, 100]),
   midi.NoteOnEvent(tick=0, channel=0, data=[57, 100]),
   midi.NoteOffEvent(tick=720, channel=0, data=[50, 64]),
   midi.NoteOffEvent(tick=0, channel=0, data=[57, 64]),
   midi.NoteOnEvent(tick=0, channel=0, data=[49, 100]),
   midi.NoteOnEvent(tick=0, channel=0, data=[56, 100]),
   midi.NoteOffEvent(tick=120, channel=0, data=[49, 0]),
   midi.NoteOffEvent(tick=0, channel=0, data=[56, 64]),
   midi.NoteOnEvent(tick=1080, channel=0, data=[57, 100]),
   midi.NoteOnEvent(tick=0, channel=0, data=[62, 100]),
   midi.NoteOffEvent(tick=120, channel=0, data=[57, 64]),
   midi.NoteOffEvent(tick=0, channel=0, data=[62, 64]),
   midi.NoteOnEvent(tick=0, channel=0, data=[62, 100]),
   midi.NoteOnEvent(tick=0, channel=0, data=[57, 100]),
   midi.NoteOffEvent(tick=60, channel=0, data=[62, 64]),
   midi.NoteOffEvent(tick=0, channel=0, data=[57, 0]),
   midi.NoteOnEvent(tick=60, channel=0, data=[62, 100]),
   midi.NoteOnEvent(tick=0, channel=0, data=[57, 100]),
   midi.NoteOffEvent(tick=60, channel=0, data=[62, 64]),
   midi.NoteOffEvent(tick=0, channel=0, data=[57, 0]),
   midi.NoteOnEvent(tick=0, channel=0, data=[62, 100]),
   midi.NoteOnEvent(tick=0, channel=0, data=[57, 100]),
   midi.NoteOffEvent(tick=60, channel=0, data=[62, 64]),
   midi.NoteOffEvent(tick=0, channel=0, data=[57, 64]),
   midi.NoteOnEvent(tick=0, channel=0, data=[62, 100]),
   midi.NoteOnEvent(tick=0, channel=0, data=[57, 100]),
   midi.NoteOffEvent(tick=60, channel=0, data=[62, 64]),
   midi.NoteOffEvent(tick=0, channel=0, data=[57, 64]),
   midi.NoteOnEvent(tick=60, channel=0, data=[62, 100]),
   midi.NoteOnEvent(tick=0, channel=0, data=[57, 100]),
   midi.NoteOffEvent(tick=120, channel=0, data=[62, 64]),
   midi.NoteOffEvent(tick=0, channel=0, data=[57, 64]),
   midi.NoteOnEvent(tick=0, channel=0, data=[62, 100]),
   midi.NoteOnEvent(tick=0, channel=0, data=[57, 100]),
   midi.NoteOffEvent(tick=60, channel=0, data=[62, 0]),
   midi.NoteOffEvent(tick=0, channel=0, data=[57, 64]),
   midi.NoteOnEvent(tick=60, channel=0, data=[62, 100]),
   midi.NoteOnEvent(tick=0, channel=0, data=[57, 100]),
   midi.NoteOffEvent(tick=60, channel=0, data=[62, 0]),
   midi.NoteOffEvent(tick=0, channel=0, data=[57, 64]),
   midi.NoteOnEvent(tick=0, channel=0, data=[62, 100]),
   midi.NoteOnEvent(tick=0, channel=0, data=[57, 100]),
   midi.NoteOffEvent(tick=60, channel=0, data=[62, 64]),
   midi.NoteOffEvent(tick=0, channel=0, data=[57, 64]),
   midi.NoteOnEvent(tick=0, channel=0, data=[63, 100]),
   midi.NoteOnEvent(tick=0, channel=0, data=[58, 100]),
   midi.NoteOffEvent(tick=120, channel=0, data=[63, 64]),
   midi.NoteOffEvent(tick=0, channel=0, data=[58, 0]),
   midi.NoteOnEvent(tick=0, channel=0, data=[62, 100]),
   midi.NoteOnEvent(tick=0, channel=0, data=[57, 100]),
   midi.NoteOffEvent(tick=120, channel=0, data=[62, 64]),
   midi.NoteOffEvent(tick=0, channel=0, data=[57, 64]),
   midi.NoteOnEvent(tick=0, channel=0, data=[57, 100]),
   midi.NoteOnEvent(tick=0, channel=0, data=[62, 100]),
   midi.NoteOffEvent(tick=60, channel=0, data=[57, 0]),
   midi.NoteOffEvent(tick=0, channel=0, data=[62, 64]),
   midi.NoteOnEvent(tick=60, channel=0, data=[57, 100]),
   midi.NoteOnEvent(tick=0, channel=0, data=[62, 100]),
   midi.NoteOffEvent(tick=60, channel=0, data=[57, 0]),
   midi.NoteOffEvent(tick=0, channel=0, data=[62, 64]),
   midi.NoteOnEvent(tick=0, channel=0, data=[57, 100]),
   midi.NoteOnEvent(tick=0, channel=0, data=[62, 100]),
   midi.NoteOffEvent(tick=60, channel=0, data=[57, 64]),
   midi.NoteOffEvent(tick=0, channel=0, data=[62, 64]),
   midi.NoteOnEvent(tick=0, channel=0, data=[57, 100]),
   midi.NoteOnEvent(tick=0, channel=0, data=[62, 100]),
   midi.NoteOffEvent(tick=60, channel=0, data=[57, 64]),
   midi.NoteOffEvent(tick=0, channel=0, data=[62, 64]),
   midi.NoteOnEvent(tick=60, channel=0, data=[57, 100]),
   midi.NoteOnEvent(tick=0, channel=0, data=[62, 100]),
   midi.NoteOffEvent(tick=120, channel=0, data=[57, 64]),
   midi.NoteOffEvent(tick=0, channel=0, data=[62, 64]),
   midi.NoteOnEvent(tick=0, channel=0, data=[57, 100]),
   midi.NoteOnEvent(tick=0, channel=0, data=[62, 100]),
   midi.NoteOffEvent(tick=60, channel=0, data=[57, 64]),
   midi.NoteOffEvent(tick=0, channel=0, data=[62, 0]),
   midi.NoteOnEvent(tick=60, channel=0, data=[57, 100]),
   midi.NoteOnEvent(tick=0, channel=0, data=[62, 100]),
   midi.NoteOffEvent(tick=60, channel=0, data=[57, 64]),
   midi.NoteOffEvent(tick=0, channel=0, data=[62, 0]),
   midi.NoteOnEvent(tick=0, channel=0, data=[57, 100]),
   midi.NoteOnEvent(tick=0, channel=0, data=[62, 100]),
   midi.NoteOffEvent(tick=60, channel=0, data=[57, 64]),
   midi.NoteOffEvent(tick=0, channel=0, data=[62, 64]),
   midi.NoteOnEvent(tick=0, channel=0, data=[61, 100]),
   midi.NoteOnEvent(tick=0, channel=0, data=[56, 100]),
   midi.NoteOffEvent(tick=120, channel=0, data=[61, 0]),
   midi.NoteOffEvent(tick=0, channel=0, data=[56, 0]),
   midi.NoteOnEvent(tick=0, channel=0, data=[62, 100]),
   midi.NoteOnEvent(tick=0, channel=0, data=[57, 100]),
   midi.NoteOffEvent(tick=120, channel=0, data=[62, 64]),
   midi.NoteOffEvent(tick=0, channel=0, data=[57, 64]),
   midi.NoteOnEvent(tick=0, channel=0, data=[57, 100]),
   midi.NoteOnEvent(tick=0, channel=0, data=[62, 100]),
   midi.NoteOffEvent(tick=60, channel=0, data=[57, 0]),
   midi.NoteOffEvent(tick=0, channel=0, data=[62, 64]),
   midi.NoteOnEvent(tick=60, channel=0, data=[57, 100]),
   midi.NoteOnEvent(tick=0, channel=0, data=[62, 100]),
   midi.NoteOffEvent(tick=60, channel=0, data=[57, 0]),
   midi.NoteOffEvent(tick=0, channel=0, data=[62, 64]),
   midi.NoteOnEvent(tick=0, channel=0, data=[57, 100]),
   midi.NoteOnEvent(tick=0, channel=0, data=[62, 100]),
   midi.NoteOffEvent(tick=60, channel=0, data=[57, 64]),
   midi.NoteOffEvent(tick=0, channel=0, data=[62, 64]),
   midi.NoteOnEvent(tick=0, channel=0, data=[57, 100]),
   midi.NoteOnEvent(tick=0, channel=0, data=[62, 100]),
   midi.NoteOffEvent(tick=60, channel=0, data=[57, 64]),
   midi.NoteOffEvent(tick=0, channel=0, data=[62, 64]),
   midi.NoteOnEvent(tick=60, channel=0, data=[57, 100]),
   midi.NoteOnEvent(tick=0, channel=0, data=[62, 100]),
   midi.NoteOffEvent(tick=120, channel=0, data=[57, 64]),
   midi.NoteOffEvent(tick=0, channel=0, data=[62, 64]),
   midi.NoteOnEvent(tick=0, channel=0, data=[57, 100]),
   midi.NoteOnEvent(tick=0, channel=0, data=[62, 100]),
   midi.NoteOffEvent(tick=60, channel=0, data=[57, 64]),
   midi.NoteOffEvent(tick=0, channel=0, data=[62, 0]),
   midi.NoteOnEvent(tick=60, channel=0, data=[57, 100]),
   midi.NoteOnEvent(tick=0, channel=0, data=[62, 100]),
   midi.NoteOffEvent(tick=60, channel=0, data=[57, 64]),
   midi.NoteOffEvent(tick=0, channel=0, data=[62, 0]),
   midi.NoteOnEvent(tick=0, channel=0, data=[57, 100]),
   midi.NoteOnEvent(tick=0, channel=0, data=[62, 100]),
   midi.NoteOffEvent(tick=60, channel=0, data=[57, 64]),
   midi.NoteOffEvent(tick=0, channel=0, data=[62, 64]),
   midi.NoteOnEvent(tick=0, channel=0, data=[58, 100]),
   midi.NoteOnEvent(tick=0, channel=0, data=[63, 100]),
   midi.NoteOffEvent(tick=120, channel=0, data=[58, 0]),
   midi.NoteOffEvent(tick=0, channel=0, data=[63, 64]),
   midi.NoteOnEvent(tick=0, channel=0, data=[57, 100]),
   midi.NoteOnEvent(tick=0, channel=0, data=[62, 100]),
   midi.NoteOffEvent(tick=120, channel=0, data=[57, 64]),
   midi.NoteOffEvent(tick=0, channel=0, data=[62, 64]),
   midi.NoteOnEvent(tick=0, channel=0, data=[62, 100]),
   midi.NoteOnEvent(tick=0, channel=0, data=[57, 100]),
   midi.NoteOffEvent(tick=60, channel=0, data=[62, 64]),
   midi.NoteOffEvent(tick=0, channel=0, data=[57, 0]),
   midi.NoteOnEvent(tick=60, channel=0, data=[62, 100]),
   midi.NoteOnEvent(tick=0, channel=0, data=[57, 100]),
   midi.NoteOffEvent(tick=60, channel=0, data=[62, 64]),
   midi.NoteOffEvent(tick=0, channel=0, data=[57, 0]),
   midi.NoteOnEvent(tick=0, channel=0, data=[62, 100]),
   midi.NoteOnEvent(tick=0, channel=0, data=[57, 100]),
   midi.NoteOffEvent(tick=60, channel=0, data=[62, 64]),
   midi.NoteOffEvent(tick=0, channel=0, data=[57, 64]),
   midi.NoteOnEvent(tick=0, channel=0, data=[62, 100]),
   midi.NoteOnEvent(tick=0, channel=0, data=[57, 100]),
   midi.NoteOffEvent(tick=60, channel=0, data=[62, 64]),
   midi.NoteOffEvent(tick=0, channel=0, data=[57, 64]),
   midi.NoteOnEvent(tick=60, channel=0, data=[62, 100]),
   midi.NoteOnEvent(tick=0, channel=0, data=[57, 100]),
   midi.NoteOffEvent(tick=120, channel=0, data=[62, 64]),
   midi.NoteOffEvent(tick=0, channel=0, data=[57, 64]),
   midi.NoteOnEvent(tick=0, channel=0, data=[62, 100]),
   midi.NoteOnEvent(tick=0, channel=0, data=[57, 100]),
   midi.NoteOffEvent(tick=60, channel=0, data=[62, 0]),
   midi.NoteOffEvent(tick=0, channel=0, data=[57, 64]),
   midi.NoteOnEvent(tick=60, channel=0, data=[62, 100]),
   midi.NoteOnEvent(tick=0, channel=0, data=[57, 100]),
   midi.NoteOffEvent(tick=60, channel=0, data=[62, 0]),
   midi.NoteOffEvent(tick=0, channel=0, data=[57, 64]),
   midi.NoteOnEvent(tick=0, channel=0, data=[62, 100]),
   midi.NoteOnEvent(tick=0, channel=0, data=[57, 100]),
   midi.NoteOffEvent(tick=60, channel=0, data=[62, 64]),
   midi.NoteOffEvent(tick=0, channel=0, data=[57, 64]),
   midi.NoteOnEvent(tick=0, channel=0, data=[56, 100]),
   midi.NoteOnEvent(tick=0, channel=0, data=[61, 100]),
   midi.NoteOffEvent(tick=120, channel=0, data=[56, 0]),
   midi.NoteOffEvent(tick=0, channel=0, data=[61, 0]),
   midi.NoteOnEvent(tick=0, channel=0, data=[62, 100]),
   midi.NoteOnEvent(tick=0, channel=0, data=[57, 100]),
   midi.NoteOffEvent(tick=120, channel=0, data=[62, 64]),
   midi.NoteOffEvent(tick=0, channel=0, data=[57, 64]),
   midi.NoteOnEvent(tick=0, channel=0, data=[57, 100]),
   midi.NoteOnEvent(tick=0, channel=0, data=[62, 100]),
   midi.NoteOffEvent(tick=60, channel=0, data=[57, 0]),
   midi.NoteOffEvent(tick=0, channel=0, data=[62, 64]),
   midi.NoteOnEvent(tick=60, channel=0, data=[57, 100]),
   midi.NoteOnEvent(tick=0, channel=0, data=[62, 100]),
   midi.NoteOffEvent(tick=60, channel=0, data=[57, 0]),
   midi.NoteOffEvent(tick=0, channel=0, data=[62, 64]),
   midi.NoteOnEvent(tick=0, channel=0, data=[57, 100]),
   midi.NoteOnEvent(tick=0, channel=0, data=[62, 100]),
   midi.NoteOffEvent(tick=60, channel=0, data=[57, 64]),
   midi.NoteOffEvent(tick=0, channel=0, data=[62, 64]),
   midi.NoteOnEvent(tick=0, channel=0, data=[57, 100]),
   midi.NoteOnEvent(tick=0, channel=0, data=[62, 100]),
   midi.NoteOffEvent(tick=60, channel=0, data=[57, 64]),
   midi.NoteOffEvent(tick=0, channel=0, data=[62, 64]),
   midi.NoteOnEvent(tick=60, channel=0, data=[57, 100]),
   midi.NoteOnEvent(tick=0, channel=0, data=[62, 100]),
   midi.NoteOffEvent(tick=120, channel=0, data=[57, 64]),
   midi.NoteOffEvent(tick=0, channel=0, data=[62, 64]),
   midi.NoteOnEvent(tick=0, channel=0, data=[57, 100]),
   midi.NoteOnEvent(tick=0, channel=0, data=[62, 100]),
   midi.NoteOffEvent(tick=60, channel=0, data=[57, 64]),
   midi.NoteOffEvent(tick=0, channel=0, data=[62, 0]),
   midi.NoteOnEvent(tick=60, channel=0, data=[57, 100]),
   midi.NoteOnEvent(tick=0, channel=0, data=[62, 100]),
   midi.NoteOffEvent(tick=60, channel=0, data=[57, 64]),
   midi.NoteOffEvent(tick=0, channel=0, data=[62, 0]),
   midi.NoteOnEvent(tick=0, channel=0, data=[57, 100]),
   midi.NoteOnEvent(tick=0, channel=0, data=[62, 100]),
   midi.NoteOffEvent(tick=60, channel=0, data=[57, 64]),
   midi.NoteOffEvent(tick=0, channel=0, data=[62, 64]),
   midi.NoteOnEvent(tick=0, channel=0, data=[58, 100]),
   midi.NoteOnEvent(tick=0, channel=0, data=[63, 100]),
   midi.NoteOffEvent(tick=120, channel=0, data=[58, 0]),
   midi.NoteOffEvent(tick=0, channel=0, data=[63, 64]),
   midi.NoteOnEvent(tick=0, channel=0, data=[57, 100]),
   midi.NoteOnEvent(tick=0, channel=0, data=[62, 100]),
   midi.NoteOffEvent(tick=120, channel=0, data=[57, 64]),
   midi.NoteOffEvent(tick=0, channel=0, data=[62, 64]),
   midi.NoteOnEvent(tick=0, channel=0, data=[62, 100]),
   midi.NoteOnEvent(tick=0, channel=0, data=[57, 100]),
   midi.NoteOffEvent(tick=60, channel=0, data=[62, 64]),
   midi.NoteOffEvent(tick=0, channel=0, data=[57, 0]),
   midi.NoteOnEvent(tick=60, channel=0, data=[62, 100]),
   midi.NoteOnEvent(tick=0, channel=0, data=[57, 100]),
   midi.NoteOffEvent(tick=60, channel=0, data=[62, 64]),
   midi.NoteOffEvent(tick=0, channel=0, data=[57, 0]),
   midi.NoteOnEvent(tick=0, channel=0, data=[62, 100]),
   midi.NoteOnEvent(tick=0, channel=0, data=[57, 100]),
   midi.NoteOffEvent(tick=60, channel=0, data=[62, 64]),
   midi.NoteOffEvent(tick=0, channel=0, data=[57, 64]),
   midi.NoteOnEvent(tick=0, channel=0, data=[62, 100]),
   midi.NoteOnEvent(tick=0, channel=0, data=[57, 100]),
   midi.NoteOffEvent(tick=60, channel=0, data=[62, 64]),
   midi.NoteOffEvent(tick=0, channel=0, data=[57, 64]),
   midi.NoteOnEvent(tick=60, channel=0, data=[62, 100]),
   midi.NoteOnEvent(tick=0, channel=0, data=[57, 100]),
   midi.NoteOffEvent(tick=120, channel=0, data=[62, 64]),
   midi.NoteOffEvent(tick=0, channel=0, data=[57, 64]),
   midi.NoteOnEvent(tick=0, channel=0, data=[62, 100]),
   midi.NoteOnEvent(tick=0, channel=0, data=[57, 100]),
   midi.NoteOffEvent(tick=60, channel=0, data=[62, 0]),
   midi.NoteOffEvent(tick=0, channel=0, data=[57, 64]),
   midi.NoteOnEvent(tick=60, channel=0, data=[62, 100]),
   midi.NoteOnEvent(tick=0, channel=0, data=[57, 100]),
   midi.NoteOffEvent(tick=60, channel=0, data=[62, 0]),
   midi.NoteOffEvent(tick=0, channel=0, data=[57, 64]),
   midi.NoteOnEvent(tick=0, channel=0, data=[62, 100]),
   midi.NoteOnEvent(tick=0, channel=0, data=[57, 100]),
   midi.NoteOffEvent(tick=60, channel=0, data=[62, 64]),
   midi.NoteOffEvent(tick=0, channel=0, data=[57, 64]),
   midi.NoteOnEvent(tick=0, channel=0, data=[56, 100]),
   midi.NoteOnEvent(tick=0, channel=0, data=[61, 100]),
   midi.NoteOffEvent(tick=120, channel=0, data=[56, 0]),
   midi.NoteOffEvent(tick=0, channel=0, data=[61, 0]),
   midi.NoteOnEvent(tick=0, channel=0, data=[62, 100]),
   midi.NoteOnEvent(tick=0, channel=0, data=[57, 100]),
   midi.NoteOffEvent(tick=120, channel=0, data=[62, 64]),
   midi.NoteOffEvent(tick=0, channel=0, data=[57, 64]),
   midi.NoteOnEvent(tick=0, channel=0, data=[57, 100]),
   midi.NoteOnEvent(tick=0, channel=0, data=[62, 100]),
   midi.NoteOffEvent(tick=60, channel=0, data=[57, 0]),
   midi.NoteOffEvent(tick=0, channel=0, data=[62, 64]),
   midi.NoteOnEvent(tick=60, channel=0, data=[57, 100]),
   midi.NoteOnEvent(tick=0, channel=0, data=[62, 100]),
   midi.NoteOffEvent(tick=60, channel=0, data=[57, 0]),
   midi.NoteOffEvent(tick=0, channel=0, data=[62, 64]),
   midi.NoteOnEvent(tick=0, channel=0, data=[57, 100]),
   midi.NoteOnEvent(tick=0, channel=0, data=[62, 100]),
   midi.NoteOffEvent(tick=60, channel=0, data=[57, 64]),
   midi.NoteOffEvent(tick=0, channel=0, data=[62, 64]),
   midi.NoteOnEvent(tick=0, channel=0, data=[57, 100]),
   midi.NoteOnEvent(tick=0, channel=0, data=[62, 100]),
   midi.NoteOffEvent(tick=60, channel=0, data=[57, 64]),
   midi.NoteOffEvent(tick=0, channel=0, data=[62, 64]),
   midi.NoteOnEvent(tick=60, channel=0, data=[57, 100]),
   midi.NoteOnEvent(tick=0, channel=0, data=[62, 100]),
   midi.NoteOffEvent(tick=120, channel=0, data=[57, 64]),
   midi.NoteOffEvent(tick=0, channel=0, data=[62, 64]),
   midi.NoteOnEvent(tick=0, channel=0, data=[57, 100]),
   midi.NoteOnEvent(tick=0, channel=0, data=[62, 100]),
   midi.NoteOffEvent(tick=60, channel=0, data=[57, 64]),
   midi.NoteOffEvent(tick=0, channel=0, data=[62, 0]),
   midi.NoteOnEvent(tick=60, channel=0, data=[57, 100]),
   midi.NoteOnEvent(tick=0, channel=0, data=[62, 100]),
   midi.NoteOffEvent(tick=60, channel=0, data=[57, 64]),
   midi.NoteOffEvent(tick=0, channel=0, data=[62, 0]),
   midi.NoteOnEvent(tick=0, channel=0, data=[57, 100]),
   midi.NoteOnEvent(tick=0, channel=0, data=[62, 100]),
   midi.NoteOffEvent(tick=60, channel=0, data=[57, 64]),
   midi.NoteOffEvent(tick=0, channel=0, data=[62, 64]),
   midi.NoteOnEvent(tick=0, channel=0, data=[58, 100]),
   midi.NoteOnEvent(tick=0, channel=0, data=[63, 100]),
   midi.NoteOffEvent(tick=120, channel=0, data=[58, 0]),
   midi.NoteOffEvent(tick=0, channel=0, data=[63, 64]),
   midi.NoteOnEvent(tick=0, channel=0, data=[57, 100]),
   midi.NoteOnEvent(tick=0, channel=0, data=[62, 100]),
   midi.NoteOffEvent(tick=120, channel=0, data=[57, 64]),
   midi.NoteOffEvent(tick=0, channel=0, data=[62, 64]),
   midi.NoteOnEvent(tick=0, channel=0, data=[62, 100]),
   midi.NoteOnEvent(tick=0, channel=0, data=[57, 100]),
   midi.NoteOffEvent(tick=60, channel=0, data=[62, 64]),
   midi.NoteOffEvent(tick=0, channel=0, data=[57, 0]),
   midi.NoteOnEvent(tick=60, channel=0, data=[62, 100]),
   midi.NoteOnEvent(tick=0, channel=0, data=[57, 100]),
   midi.NoteOffEvent(tick=60, channel=0, data=[62, 64]),
   midi.NoteOffEvent(tick=0, channel=0, data=[57, 0]),
   midi.NoteOnEvent(tick=0, channel=0, data=[62, 100]),
   midi.NoteOnEvent(tick=0, channel=0, data=[57, 100]),
   midi.NoteOffEvent(tick=60, channel=0, data=[62, 64]),
   midi.NoteOffEvent(tick=0, channel=0, data=[57, 64]),
   midi.NoteOnEvent(tick=0, channel=0, data=[62, 100]),
   midi.NoteOnEvent(tick=0, channel=0, data=[57, 100]),
   midi.NoteOffEvent(tick=60, channel=0, data=[62, 64]),
   midi.NoteOffEvent(tick=0, channel=0, data=[57, 64]),
   midi.NoteOnEvent(tick=60, channel=0, data=[62, 100]),
   midi.NoteOnEvent(tick=0, channel=0, data=[57, 100]),
   midi.NoteOffEvent(tick=120, channel=0, data=[62, 64]),
   midi.NoteOffEvent(tick=0, channel=0, data=[57, 64]),
   midi.NoteOnEvent(tick=0, channel=0, data=[62, 100]),
   midi.NoteOnEvent(tick=0, channel=0, data=[57, 100]),
   midi.NoteOffEvent(tick=60, channel=0, data=[62, 0]),
   midi.NoteOffEvent(tick=0, channel=0, data=[57, 64]),
   midi.NoteOnEvent(tick=60, channel=0, data=[62, 100]),
   midi.NoteOnEvent(tick=0, channel=0, data=[57, 100]),
   midi.NoteOffEvent(tick=60, channel=0, data=[62, 0]),
   midi.NoteOffEvent(tick=0, channel=0, data=[57, 64]),
   midi.NoteOnEvent(tick=0, channel=0, data=[62, 100]),
   midi.NoteOnEvent(tick=0, channel=0, data=[57, 100]),
   midi.NoteOffEvent(tick=60, channel=0, data=[62, 64]),
   midi.NoteOffEvent(tick=0, channel=0, data=[57, 64]),
   midi.NoteOnEvent(tick=0, channel=0, data=[56, 100]),
   midi.NoteOnEvent(tick=0, channel=0, data=[61, 100]),
   midi.NoteOffEvent(tick=120, channel=0, data=[56, 0]),
   midi.NoteOffEvent(tick=0, channel=0, data=[61, 0]),
   midi.NoteOnEvent(tick=19, channel=0, data=[76, 100]),
   midi.NoteOnEvent(tick=568, channel=0, data=[81, 100]),
   midi.NoteOnEvent(tick=21, channel=0, data=[76, 0]),
   midi.NoteOnEvent(tick=735, channel=0, data=[84, 100]),
   midi.NoteOnEvent(tick=6, channel=0, data=[81, 0]),
   midi.NoteOnEvent(tick=579, channel=0, data=[76, 100]),
   midi.NoteOnEvent(tick=5, channel=0, data=[84, 0]),
   midi.NoteOnEvent(tick=501, channel=0, data=[81, 100]),
   midi.NoteOnEvent(tick=11, channel=0, data=[76, 0]),
   midi.NoteOnEvent(tick=1019, channel=0, data=[81, 0]),
   midi.NoteOnEvent(tick=2, channel=0, data=[84, 100]),
   midi.NoteOnEvent(tick=372, channel=0, data=[76, 100]),
   midi.NoteOnEvent(tick=7, channel=0, data=[84, 0]),
   midi.NoteOnEvent(tick=499, channel=0, data=[81, 100]),
   midi.NoteOnEvent(tick=15, channel=0, data=[76, 0]),
   midi.NoteOnEvent(tick=970, channel=0, data=[84, 100]),
   midi.NoteOnEvent(tick=14, channel=0, data=[81, 0]),
   midi.NoteOnEvent(tick=413, channel=0, data=[76, 100]),
   midi.NoteOnEvent(tick=2, channel=0, data=[84, 0]),
   midi.NoteOnEvent(tick=500, channel=0, data=[81, 100]),
   midi.NoteOnEvent(tick=8, channel=0, data=[76, 0]),
   midi.NoteOnEvent(tick=1045, channel=0, data=[84, 100]),
   midi.NoteOnEvent(tick=14, channel=0, data=[81, 0]),
   midi.NoteOnEvent(tick=373, channel=0, data=[84, 0]),
   midi.NoteOnEvent(tick=1, channel=0, data=[76, 100]),
   midi.NoteOnEvent(tick=568, channel=0, data=[81, 100]),
   midi.NoteOnEvent(tick=21, channel=0, data=[76, 0]),
   midi.NoteOnEvent(tick=735, channel=0, data=[84, 100]),
   midi.NoteOnEvent(tick=6, channel=0, data=[81, 0]),
   midi.NoteOnEvent(tick=579, channel=0, data=[76, 100]),
   midi.NoteOnEvent(tick=5, channel=0, data=[84, 0]),
   midi.NoteOnEvent(tick=501, channel=0, data=[81, 100]),
   midi.NoteOnEvent(tick=11, channel=0, data=[76, 0]),
   midi.NoteOnEvent(tick=1019, channel=0, data=[81, 0]),
   midi.NoteOnEvent(tick=2, channel=0, data=[84, 100]),
   midi.NoteOnEvent(tick=372, channel=0, data=[76, 100]),
   midi.NoteOnEvent(tick=7, channel=0, data=[84, 0]),
   midi.NoteOnEvent(tick=499, channel=0, data=[81, 100]),
   midi.NoteOnEvent(tick=15, channel=0, data=[76, 0]),
   midi.NoteOnEvent(tick=970, channel=0, data=[84, 100]),
   midi.NoteOnEvent(tick=14, channel=0, data=[81, 0]),
   midi.NoteOnEvent(tick=413, channel=0, data=[76, 100]),
   midi.NoteOnEvent(tick=2, channel=0, data=[84, 0]),
   midi.NoteOnEvent(tick=500, channel=0, data=[81, 100]),
   midi.NoteOnEvent(tick=8, channel=0, data=[76, 0]),
   midi.NoteOnEvent(tick=1045, channel=0, data=[84, 100]),
   midi.NoteOnEvent(tick=14, channel=0, data=[81, 0]),
   midi.NoteOnEvent(tick=373, channel=0, data=[84, 0]),
   midi.EndOfTrackEvent(tick=0, data=[])]),
 midi.Track(\
  [midi.TrackNameEvent(tick=0, text="from Rob Zombie's", data=[102, 114, 111, 109, 32, 82, 111, 98, 32, 90, 111, 109, 98, 105, 101, 39, 115]),
   midi.NoteOnEvent(tick=4800, channel=9, data=[44, 100]),
   midi.NoteOnEvent(tick=0, channel=9, data=[44, 100]),
   midi.NoteOnEvent(tick=0, channel=9, data=[36, 100]),
   midi.NoteOffEvent(tick=120, channel=9, data=[44, 64]),
   midi.NoteOffEvent(tick=0, channel=9, data=[44, 64]),
   midi.NoteOnEvent(tick=0, channel=9, data=[44, 100]),
   midi.NoteOnEvent(tick=0, channel=9, data=[44, 100]),
   midi.NoteOffEvent(tick=120, channel=9, data=[36, 64]),
   midi.NoteOffEvent(tick=0, channel=9, data=[44, 64]),
   midi.NoteOffEvent(tick=0, channel=9, data=[44, 64]),
   midi.NoteOnEvent(tick=0, channel=9, data=[54, 100]),
   midi.NoteOnEvent(tick=0, channel=9, data=[44, 100]),
   midi.NoteOnEvent(tick=0, channel=9, data=[40, 100]),
   midi.NoteOffEvent(tick=120, channel=9, data=[54, 64]),
   midi.NoteOffEvent(tick=0, channel=9, data=[44, 64]),
   midi.NoteOnEvent(tick=0, channel=9, data=[54, 100]),
   midi.NoteOnEvent(tick=0, channel=9, data=[44, 100]),
   midi.NoteOffEvent(tick=120, channel=9, data=[40, 64]),
   midi.NoteOffEvent(tick=0, channel=9, data=[54, 64]),
   midi.NoteOffEvent(tick=0, channel=9, data=[44, 64]),
   midi.NoteOnEvent(tick=0, channel=9, data=[44, 100]),
   midi.NoteOnEvent(tick=0, channel=9, data=[44, 100]),
   midi.NoteOnEvent(tick=0, channel=9, data=[36, 100]),
   midi.NoteOffEvent(tick=120, channel=9, data=[44, 64]),
   midi.NoteOffEvent(tick=0, channel=9, data=[44, 64]),
   midi.NoteOnEvent(tick=0, channel=9, data=[44, 100]),
   midi.NoteOnEvent(tick=0, channel=9, data=[44, 100]),
   midi.NoteOffEvent(tick=120, channel=9, data=[36, 64]),
   midi.NoteOffEvent(tick=0, channel=9, data=[44, 64]),
   midi.NoteOffEvent(tick=0, channel=9, data=[44, 64]),
   midi.NoteOnEvent(tick=0, channel=9, data=[54, 100]),
   midi.NoteOnEvent(tick=0, channel=9, data=[44, 100]),
   midi.NoteOnEvent(tick=0, channel=9, data=[40, 100]),
   midi.NoteOffEvent(tick=120, channel=9, data=[54, 64]),
   midi.NoteOffEvent(tick=0, channel=9, data=[44, 64]),
   midi.NoteOnEvent(tick=0, channel=9, data=[54, 100]),
   midi.NoteOnEvent(tick=0, channel=9, data=[44, 100]),
   midi.NoteOffEvent(tick=120, channel=9, data=[40, 64]),
   midi.NoteOffEvent(tick=0, channel=9, data=[54, 64]),
   midi.NoteOffEvent(tick=0, channel=9, data=[44, 64]),
   midi.NoteOnEvent(tick=0, channel=9, data=[44, 100]),
   midi.NoteOnEvent(tick=0, channel=9, data=[44, 100]),
   midi.NoteOnEvent(tick=0, channel=9, data=[36, 100]),
   midi.NoteOffEvent(tick=120, channel=9, data=[44, 64]),
   midi.NoteOffEvent(tick=0, channel=9, data=[44, 64]),
   midi.NoteOnEvent(tick=0, channel=9, data=[44, 100]),
   midi.NoteOnEvent(tick=0, channel=9, data=[44, 100]),
   midi.NoteOffEvent(tick=120, channel=9, data=[36, 64]),
   midi.NoteOffEvent(tick=0, channel=9, data=[44, 64]),
   midi.NoteOffEvent(tick=0, channel=9, data=[44, 64]),
   midi.NoteOnEvent(tick=0, channel=9, data=[54, 100]),
   midi.NoteOnEvent(tick=0, channel=9, data=[44, 100]),
   midi.NoteOnEvent(tick=0, channel=9, data=[40, 100]),
   midi.NoteOffEvent(tick=120, channel=9, data=[54, 64]),
   midi.NoteOffEvent(tick=0, channel=9, data=[44, 64]),
   midi.NoteOnEvent(tick=0, channel=9, data=[54, 100]),
   midi.NoteOnEvent(tick=0, channel=9, data=[44, 100]),
   midi.NoteOffEvent(tick=120, channel=9, data=[40, 64]),
   midi.NoteOffEvent(tick=0, channel=9, data=[54, 64]),
   midi.NoteOffEvent(tick=0, channel=9, data=[44, 64]),
   midi.NoteOnEvent(tick=0, channel=9, data=[44, 100]),
   midi.NoteOnEvent(tick=0, channel=9, data=[44, 100]),
   midi.NoteOnEvent(tick=0, channel=9, data=[36, 100]),
   midi.NoteOffEvent(tick=120, channel=9, data=[44, 64]),
   midi.NoteOffEvent(tick=0, channel=9, data=[44, 64]),
   midi.NoteOnEvent(tick=0, channel=9, data=[44, 100]),
   midi.NoteOnEvent(tick=0, channel=9, data=[44, 100]),
   midi.NoteOffEvent(tick=120, channel=9, data=[36, 64]),
   midi.NoteOffEvent(tick=0, channel=9, data=[44, 64]),
   midi.NoteOffEvent(tick=0, channel=9, data=[44, 64]),
   midi.NoteOnEvent(tick=0, channel=9, data=[54, 100]),
   midi.NoteOnEvent(tick=0, channel=9, data=[44, 100]),
   midi.NoteOnEvent(tick=0, channel=9, data=[40, 100]),
   midi.NoteOffEvent(tick=120, channel=9, data=[54, 0]),
   midi.NoteOffEvent(tick=0, channel=9, data=[44, 64]),
   midi.NoteOnEvent(tick=0, channel=9, data=[54, 100]),
   midi.NoteOnEvent(tick=0, channel=9, data=[44, 100]),
   midi.NoteOffEvent(tick=120, channel=9, data=[40, 64]),
   midi.NoteOffEvent(tick=0, channel=9, data=[54, 64]),
   midi.NoteOffEvent(tick=0, channel=9, data=[44, 64]),
   midi.NoteOnEvent(tick=0, channel=9, data=[44, 100]),
   midi.NoteOnEvent(tick=0, channel=9, data=[44, 100]),
   midi.NoteOnEvent(tick=0, channel=9, data=[44, 100]),
   midi.NoteOnEvent(tick=0, channel=9, data=[36, 100]),
   midi.NoteOffEvent(tick=120, channel=9, data=[44, 64]),
   midi.NoteOffEvent(tick=0, channel=9, data=[44, 64]),
   midi.NoteOffEvent(tick=0, channel=9, data=[44, 64]),
   midi.NoteOnEvent(tick=0, channel=9, data=[44, 100]),
   midi.NoteOnEvent(tick=0, channel=9, data=[44, 100]),
   midi.NoteOffEvent(tick=120, channel=9, data=[36, 64]),
   midi.NoteOffEvent(tick=0, channel=9, data=[44, 64]),
   midi.NoteOffEvent(tick=0, channel=9, data=[44, 64]),
   midi.NoteOnEvent(tick=0, channel=9, data=[54, 100]),
   midi.NoteOnEvent(tick=0, channel=9, data=[44, 100]),
   midi.NoteOnEvent(tick=0, channel=9, data=[40, 100]),
   midi.NoteOffEvent(tick=120, channel=9, data=[54, 64]),
   midi.NoteOffEvent(tick=0, channel=9, data=[44, 64]),
   midi.NoteOnEvent(tick=0, channel=9, data=[54, 100]),
   midi.NoteOnEvent(tick=0, channel=9, data=[44, 100]),
   midi.NoteOffEvent(tick=120, channel=9, data=[40, 64]),
   midi.NoteOffEvent(tick=0, channel=9, data=[54, 64]),
   midi.NoteOffEvent(tick=0, channel=9, data=[44, 64]),
   midi.NoteOnEvent(tick=0, channel=9, data=[44, 100]),
   midi.NoteOnEvent(tick=0, channel=9, data=[44, 100]),
   midi.NoteOnEvent(tick=0, channel=9, data=[36, 100]),
   midi.NoteOffEvent(tick=120, channel=9, data=[44, 64]),
   midi.NoteOffEvent(tick=0, channel=9, data=[44, 64]),
   midi.NoteOnEvent(tick=0, channel=9, data=[44, 100]),
   midi.NoteOnEvent(tick=0, channel=9, data=[44, 100]),
   midi.NoteOffEvent(tick=120, channel=9, data=[36, 64]),
   midi.NoteOffEvent(tick=0, channel=9, data=[44, 64]),
   midi.NoteOffEvent(tick=0, channel=9, data=[44, 64]),
   midi.NoteOnEvent(tick=0, channel=9, data=[54, 100]),
   midi.NoteOnEvent(tick=0, channel=9, data=[44, 100]),
   midi.NoteOnEvent(tick=0, channel=9, data=[40, 100]),
   midi.NoteOffEvent(tick=120, channel=9, data=[54, 64]),
   midi.NoteOffEvent(tick=0, channel=9, data=[44, 64]),
   midi.NoteOnEvent(tick=0, channel=9, data=[54, 100]),
   midi.NoteOnEvent(tick=0, channel=9, data=[44, 100]),
   midi.NoteOffEvent(tick=120, channel=9, data=[40, 64]),
   midi.NoteOffEvent(tick=0, channel=9, data=[54, 64]),
   midi.NoteOffEvent(tick=0, channel=9, data=[44, 64]),
   midi.NoteOnEvent(tick=0, channel=9, data=[44, 100]),
   midi.NoteOnEvent(tick=0, channel=9, data=[44, 100]),
   midi.NoteOnEvent(tick=0, channel=9, data=[36, 100]),
   midi.NoteOffEvent(tick=120, channel=9, data=[44, 64]),
   midi.NoteOffEvent(tick=0, channel=9, data=[44, 64]),
   midi.NoteOnEvent(tick=0, channel=9, data=[44, 100]),
   midi.NoteOnEvent(tick=0, channel=9, data=[44, 100]),
   midi.NoteOffEvent(tick=120, channel=9, data=[36, 64]),
   midi.NoteOffEvent(tick=0, channel=9, data=[44, 64]),
   midi.NoteOffEvent(tick=0, channel=9, data=[44, 64]),
   midi.NoteOnEvent(tick=0, channel=9, data=[54, 100]),
   midi.NoteOnEvent(tick=0, channel=9, data=[44, 100]),
   midi.NoteOnEvent(tick=0, channel=9, data=[40, 100]),
   midi.NoteOffEvent(tick=120, channel=9, data=[54, 64]),
   midi.NoteOffEvent(tick=0, channel=9, data=[44, 64]),
   midi.NoteOnEvent(tick=0, channel=9, data=[54, 100]),
   midi.NoteOnEvent(tick=0, channel=9, data=[44, 100]),
   midi.NoteOffEvent(tick=120, channel=9, data=[40, 64]),
   midi.NoteOffEvent(tick=0, channel=9, data=[54, 64]),
   midi.NoteOffEvent(tick=0, channel=9, data=[44, 64]),
   midi.NoteOnEvent(tick=0, channel=9, data=[44, 100]),
   midi.NoteOnEvent(tick=0, channel=9, data=[44, 100]),
   midi.NoteOnEvent(tick=0, channel=9, data=[36, 100]),
   midi.NoteOffEvent(tick=120, channel=9, data=[44, 64]),
   midi.NoteOffEvent(tick=0, channel=9, data=[44, 64]),
   midi.NoteOnEvent(tick=0, channel=9, data=[44, 100]),
   midi.NoteOnEvent(tick=0, channel=9, data=[44, 100]),
   midi.NoteOffEvent(tick=120, channel=9, data=[36, 64]),
   midi.NoteOffEvent(tick=0, channel=9, data=[44, 64]),
   midi.NoteOffEvent(tick=0, channel=9, data=[44, 64]),
   midi.NoteOnEvent(tick=0, channel=9, data=[54, 100]),
   midi.NoteOnEvent(tick=0, channel=9, data=[44, 100]),
   midi.NoteOnEvent(tick=0, channel=9, data=[40, 100]),
   midi.NoteOffEvent(tick=120, channel=9, data=[54, 64]),
   midi.NoteOffEvent(tick=0, channel=9, data=[44, 64]),
   midi.NoteOnEvent(tick=0, channel=9, data=[54, 100]),
   midi.NoteOnEvent(tick=0, channel=9, data=[44, 100]),
   midi.NoteOffEvent(tick=120, channel=9, data=[40, 64]),
   midi.NoteOffEvent(tick=0, channel=9, data=[54, 64]),
   midi.NoteOffEvent(tick=0, channel=9, data=[44, 64]),
   midi.NoteOnEvent(tick=0, channel=9, data=[44, 100]),
   midi.NoteOnEvent(tick=0, channel=9, data=[44, 100]),
   midi.NoteOnEvent(tick=0, channel=9, data=[36, 100]),
   midi.NoteOffEvent(tick=120, channel=9, data=[44, 64]),
   midi.NoteOffEvent(tick=0, channel=9, data=[44, 64]),
   midi.NoteOnEvent(tick=0, channel=9, data=[44, 100]),
   midi.NoteOnEvent(tick=0, channel=9, data=[44, 100]),
   midi.NoteOffEvent(tick=120, channel=9, data=[36, 64]),
   midi.NoteOffEvent(tick=0, channel=9, data=[44, 64]),
   midi.NoteOffEvent(tick=0, channel=9, data=[44, 64]),
   midi.NoteOnEvent(tick=0, channel=9, data=[54, 100]),
   midi.NoteOnEvent(tick=0, channel=9, data=[44, 100]),
   midi.NoteOnEvent(tick=0, channel=9, data=[40, 100]),
   midi.NoteOffEvent(tick=120, channel=9, data=[54, 64]),
   midi.NoteOffEvent(tick=0, channel=9, data=[44, 64]),
   midi.NoteOnEvent(tick=0, channel=9, data=[54, 100]),
   midi.NoteOnEvent(tick=0, channel=9, data=[44, 100]),
   midi.NoteOffEvent(tick=120, channel=9, data=[40, 64]),
   midi.NoteOffEvent(tick=0, channel=9, data=[54, 64]),
   midi.NoteOffEvent(tick=0, channel=9, data=[44, 64]),
   midi.NoteOnEvent(tick=0, channel=9, data=[44, 100]),
   midi.NoteOnEvent(tick=0, channel=9, data=[44, 100]),
   midi.NoteOnEvent(tick=0, channel=9, data=[36, 100]),
   midi.NoteOffEvent(tick=120, channel=9, data=[44, 64]),
   midi.NoteOffEvent(tick=0, channel=9, data=[44, 64]),
   midi.NoteOnEvent(tick=0, channel=9, data=[44, 100]),
   midi.NoteOnEvent(tick=0, channel=9, data=[44, 100]),
   midi.NoteOffEvent(tick=120, channel=9, data=[36, 64]),
   midi.NoteOffEvent(tick=0, channel=9, data=[44, 64]),
   midi.NoteOffEvent(tick=0, channel=9, data=[44, 64]),
   midi.NoteOnEvent(tick=0, channel=9, data=[54, 100]),
   midi.NoteOnEvent(tick=0, channel=9, data=[44, 100]),
   midi.NoteOnEvent(tick=0, channel=9, data=[40, 100]),
   midi.NoteOffEvent(tick=120, channel=9, data=[54, 64]),
   midi.NoteOffEvent(tick=0, channel=9, data=[44, 64]),
   midi.NoteOnEvent(tick=0, channel=9, data=[54, 100]),
   midi.NoteOnEvent(tick=0, channel=9, data=[44, 100]),
   midi.NoteOffEvent(tick=120, channel=9, data=[40, 64]),
   midi.NoteOffEvent(tick=0, channel=9, data=[54, 64]),
   midi.NoteOffEvent(tick=0, channel=9, data=[44, 64]),
   midi.NoteOnEvent(tick=0, channel=9, data=[44, 100]),
   midi.NoteOnEvent(tick=0, channel=9, data=[44, 100]),
   midi.NoteOnEvent(tick=0, channel=9, data=[36, 100]),
   midi.NoteOffEvent(tick=120, channel=9, data=[44, 64]),
   midi.NoteOffEvent(tick=0, channel=9, data=[44, 64]),
   midi.NoteOnEvent(tick=0, channel=9, data=[44, 100]),
   midi.NoteOnEvent(tick=0, channel=9, data=[44, 100]),
   midi.NoteOffEvent(tick=120, channel=9, data=[36, 64]),
   midi.NoteOffEvent(tick=0, channel=9, data=[44, 64]),
   midi.NoteOffEvent(tick=0, channel=9, data=[44, 64]),
   midi.NoteOnEvent(tick=0, channel=9, data=[54, 100]),
   midi.NoteOnEvent(tick=0, channel=9, data=[44, 100]),
   midi.NoteOnEvent(tick=0, channel=9, data=[40, 100]),
   midi.NoteOffEvent(tick=120, channel=9, data=[54, 64]),
   midi.NoteOffEvent(tick=0, channel=9, data=[44, 64]),
   midi.NoteOnEvent(tick=0, channel=9, data=[54, 100]),
   midi.NoteOnEvent(tick=0, channel=9, data=[44, 100]),
   midi.NoteOffEvent(tick=120, channel=9, data=[40, 64]),
   midi.NoteOffEvent(tick=0, channel=9, data=[54, 64]),
   midi.NoteOffEvent(tick=0, channel=9, data=[44, 64]),
   midi.NoteOnEvent(tick=0, channel=9, data=[44, 100]),
   midi.NoteOnEvent(tick=0, channel=9, data=[44, 100]),
   midi.NoteOnEvent(tick=0, channel=9, data=[36, 100]),
   midi.NoteOffEvent(tick=120, channel=9, data=[44, 64]),
   midi.NoteOffEvent(tick=0, channel=9, data=[44, 64]),
   midi.NoteOnEvent(tick=0, channel=9, data=[44, 100]),
   midi.NoteOnEvent(tick=0, channel=9, data=[44, 100]),
   midi.NoteOffEvent(tick=120, channel=9, data=[36, 64]),
   midi.NoteOffEvent(tick=0, channel=9, data=[44, 64]),
   midi.NoteOffEvent(tick=0, channel=9, data=[44, 64]),
   midi.NoteOnEvent(tick=0, channel=9, data=[54, 100]),
   midi.NoteOnEvent(tick=0, channel=9, data=[44, 100]),
   midi.NoteOnEvent(tick=0, channel=9, data=[40, 100]),
   midi.NoteOffEvent(tick=120, channel=9, data=[54, 64]),
   midi.NoteOffEvent(tick=0, channel=9, data=[44, 0]),
   midi.NoteOnEvent(tick=0, channel=9, data=[54, 100]),
   midi.NoteOnEvent(tick=0, channel=9, data=[44, 100]),
   midi.NoteOffEvent(tick=120, channel=9, data=[40, 64]),
   midi.NoteOffEvent(tick=0, channel=9, data=[54, 64]),
   midi.NoteOffEvent(tick=0, channel=9, data=[44, 64]),
   midi.NoteOnEvent(tick=0, channel=9, data=[44, 100]),
   midi.NoteOnEvent(tick=0, channel=9, data=[44, 100]),
   midi.NoteOnEvent(tick=0, channel=9, data=[36, 100]),
   midi.NoteOffEvent(tick=120, channel=9, data=[44, 64]),
   midi.NoteOffEvent(tick=0, channel=9, data=[44, 64]),
   midi.NoteOnEvent(tick=0, channel=9, data=[44, 100]),
   midi.NoteOnEvent(tick=0, channel=9, data=[44, 100]),
   midi.NoteOffEvent(tick=120, channel=9, data=[36, 64]),
   midi.NoteOffEvent(tick=0, channel=9, data=[44, 64]),
   midi.NoteOffEvent(tick=0, channel=9, data=[44, 64]),
   midi.NoteOnEvent(tick=0, channel=9, data=[54, 100]),
   midi.NoteOnEvent(tick=0, channel=9, data=[44, 100]),
   midi.NoteOnEvent(tick=0, channel=9, data=[40, 100]),
   midi.NoteOffEvent(tick=120, channel=9, data=[54, 64]),
   midi.NoteOffEvent(tick=0, channel=9, data=[44, 64]),
   midi.NoteOnEvent(tick=0, channel=9, data=[54, 100]),
   midi.NoteOnEvent(tick=0, channel=9, data=[44, 100]),
   midi.NoteOffEvent(tick=120, channel=9, data=[40, 64]),
   midi.NoteOffEvent(tick=0, channel=9, data=[54, 64]),
   midi.NoteOffEvent(tick=0, channel=9, data=[44, 64]),
   midi.NoteOnEvent(tick=0, channel=9, data=[44, 100]),
   midi.NoteOnEvent(tick=0, channel=9, data=[44, 100]),
   midi.NoteOnEvent(tick=0, channel=9, data=[36, 100]),
   midi.NoteOffEvent(tick=120, channel=9, data=[44, 64]),
   midi.NoteOffEvent(tick=0, channel=9, data=[44, 64]),
   midi.NoteOnEvent(tick=0, channel=9, data=[44, 100]),
   midi.NoteOnEvent(tick=0, channel=9, data=[44, 100]),
   midi.NoteOffEvent(tick=120, channel=9, data=[36, 64]),
   midi.NoteOffEvent(tick=0, channel=9, data=[44, 64]),
   midi.NoteOffEvent(tick=0, channel=9, data=[44, 64]),
   midi.NoteOnEvent(tick=0, channel=9, data=[54, 100]),
   midi.NoteOnEvent(tick=0, channel=9, data=[44, 100]),
   midi.NoteOnEvent(tick=0, channel=9, data=[40, 100]),
   midi.NoteOffEvent(tick=120, channel=9, data=[54, 64]),
   midi.NoteOffEvent(tick=0, channel=9, data=[44, 64]),
   midi.NoteOnEvent(tick=0, channel=9, data=[54, 100]),
   midi.NoteOnEvent(tick=0, channel=9, data=[44, 100]),
   midi.NoteOffEvent(tick=120, channel=9, data=[40, 64]),
   midi.NoteOffEvent(tick=0, channel=9, data=[54, 64]),
   midi.NoteOffEvent(tick=0, channel=9, data=[44, 64]),
   midi.NoteOnEvent(tick=0, channel=9, data=[47, 100]),
   midi.NoteOnEvent(tick=0, channel=9, data=[44, 100]),
   midi.NoteOnEvent(tick=0, channel=9, data=[44, 100]),
   midi.NoteOnEvent(tick=0, channel=9, data=[36, 100]),
   midi.NoteOffEvent(tick=120, channel=9, data=[47, 64]),
   midi.NoteOffEvent(tick=0, channel=9, data=[44, 64]),
   midi.NoteOffEvent(tick=0, channel=9, data=[44, 64]),
   midi.NoteOnEvent(tick=0, channel=9, data=[47, 100]),
   midi.NoteOnEvent(tick=0, channel=9, data=[44, 100]),
   midi.NoteOnEvent(tick=0, channel=9, data=[44, 100]),
   midi.NoteOffEvent(tick=120, channel=9, data=[36, 64]),
   midi.NoteOffEvent(tick=0, channel=9, data=[47, 64]),
   midi.NoteOffEvent(tick=0, channel=9, data=[44, 64]),
   midi.NoteOffEvent(tick=0, channel=9, data=[44, 64]),
   midi.NoteOnEvent(tick=0, channel=9, data=[47, 100]),
   midi.NoteOnEvent(tick=0, channel=9, data=[54, 100]),
   midi.NoteOnEvent(tick=0, channel=9, data=[44, 100]),
   midi.NoteOnEvent(tick=0, channel=9, data=[40, 100]),
   midi.NoteOffEvent(tick=120, channel=9, data=[47, 64]),
   midi.NoteOffEvent(tick=0, channel=9, data=[54, 64]),
   midi.NoteOffEvent(tick=0, channel=9, data=[44, 64]),
   midi.NoteOnEvent(tick=0, channel=9, data=[47, 100]),
   midi.NoteOnEvent(tick=0, channel=9, data=[54, 100]),
   midi.NoteOnEvent(tick=0, channel=9, data=[44, 100]),
   midi.NoteOffEvent(tick=120, channel=9, data=[40, 64]),
   midi.NoteOffEvent(tick=0, channel=9, data=[47, 64]),
   midi.NoteOffEvent(tick=0, channel=9, data=[54, 64]),
   midi.NoteOffEvent(tick=0, channel=9, data=[44, 64]),
   midi.NoteOnEvent(tick=0, channel=9, data=[47, 100]),
   midi.NoteOnEvent(tick=0, channel=9, data=[44, 100]),
   midi.NoteOnEvent(tick=0, channel=9, data=[44, 100]),
   midi.NoteOnEvent(tick=0, channel=9, data=[36, 100]),
   midi.NoteOffEvent(tick=120, channel=9, data=[47, 64]),
   midi.NoteOffEvent(tick=0, channel=9, data=[44, 64]),
   midi.NoteOffEvent(tick=0, channel=9, data=[44, 64]),
   midi.NoteOnEvent(tick=0, channel=9, data=[47, 100]),
   midi.NoteOnEvent(tick=0, channel=9, data=[44, 100]),
   midi.NoteOnEvent(tick=0, channel=9, data=[44, 100]),
   midi.NoteOffEvent(tick=120, channel=9, data=[36, 64]),
   midi.NoteOffEvent(tick=0, channel=9, data=[47, 64]),
   midi.NoteOffEvent(tick=0, channel=9, data=[44, 64]),
   midi.NoteOffEvent(tick=0, channel=9, data=[44, 64]),
   midi.NoteOnEvent(tick=0, channel=9, data=[47, 100]),
   midi.NoteOnEvent(tick=0, channel=9, data=[54, 100]),
   midi.NoteOnEvent(tick=0, channel=9, data=[44, 100]),
   midi.NoteOnEvent(tick=0, channel=9, data=[40, 100]),
   midi.NoteOffEvent(tick=120, channel=9, data=[47, 64]),
   midi.NoteOffEvent(tick=0, channel=9, data=[54, 64]),
   midi.NoteOffEvent(tick=0, channel=9, data=[44, 64]),
   midi.NoteOnEvent(tick=0, channel=9, data=[45, 100]),
   midi.NoteOnEvent(tick=0, channel=9, data=[54, 100]),
   midi.NoteOnEvent(tick=0, channel=9, data=[44, 100]),
   midi.NoteOffEvent(tick=120, channel=9, data=[40, 64]),
   midi.NoteOffEvent(tick=0, channel=9, data=[45, 64]),
   midi.NoteOffEvent(tick=0, channel=9, data=[54, 64]),
   midi.NoteOffEvent(tick=0, channel=9, data=[44, 64]),
   midi.NoteOnEvent(tick=0, channel=9, data=[44, 100]),
   midi.NoteOnEvent(tick=0, channel=9, data=[36, 100]),
   midi.NoteOffEvent(tick=120, channel=9, data=[44, 64]),
   midi.NoteOnEvent(tick=0, channel=9, data=[44, 100]),
   midi.NoteOffEvent(tick=120, channel=9, data=[36, 64]),
   midi.NoteOffEvent(tick=0, channel=9, data=[44, 64]),
   midi.NoteOnEvent(tick=0, channel=9, data=[44, 100]),
   midi.NoteOnEvent(tick=0, channel=9, data=[40, 100]),
   midi.NoteOffEvent(tick=120, channel=9, data=[44, 64]),
   midi.NoteOnEvent(tick=0, channel=9, data=[44, 100]),
   midi.NoteOffEvent(tick=120, channel=9, data=[40, 64]),
   midi.NoteOffEvent(tick=0, channel=9, data=[44, 64]),
   midi.NoteOnEvent(tick=0, channel=9, data=[44, 100]),
   midi.NoteOnEvent(tick=0, channel=9, data=[36, 100]),
   midi.NoteOffEvent(tick=120, channel=9, data=[44, 64]),
   midi.NoteOnEvent(tick=0, channel=9, data=[44, 100]),
   midi.NoteOffEvent(tick=120, channel=9, data=[36, 64]),
   midi.NoteOffEvent(tick=0, channel=9, data=[44, 64]),
   midi.NoteOnEvent(tick=0, channel=9, data=[44, 100]),
   midi.NoteOnEvent(tick=0, channel=9, data=[40, 100]),
   midi.NoteOffEvent(tick=120, channel=9, data=[44, 64]),
   midi.NoteOnEvent(tick=0, channel=9, data=[44, 100]),
   midi.NoteOffEvent(tick=120, channel=9, data=[40, 64]),
   midi.NoteOffEvent(tick=0, channel=9, data=[44, 64]),
   midi.NoteOnEvent(tick=0, channel=9, data=[44, 100]),
   midi.NoteOnEvent(tick=0, channel=9, data=[36, 100]),
   midi.NoteOffEvent(tick=120, channel=9, data=[44, 64]),
   midi.NoteOnEvent(tick=0, channel=9, data=[44, 100]),
   midi.NoteOffEvent(tick=120, channel=9, data=[36, 64]),
   midi.NoteOffEvent(tick=0, channel=9, data=[44, 64]),
   midi.NoteOnEvent(tick=0, channel=9, data=[44, 100]),
   midi.NoteOnEvent(tick=0, channel=9, data=[40, 100]),
   midi.NoteOffEvent(tick=120, channel=9, data=[44, 64]),
   midi.NoteOnEvent(tick=0, channel=9, data=[44, 100]),
   midi.NoteOffEvent(tick=120, channel=9, data=[40, 64]),
   midi.NoteOffEvent(tick=0, channel=9, data=[44, 64]),
   midi.NoteOnEvent(tick=0, channel=9, data=[44, 100]),
   midi.NoteOnEvent(tick=0, channel=9, data=[36, 100]),
   midi.NoteOffEvent(tick=120, channel=9, data=[44, 64]),
   midi.NoteOffEvent(tick=0, channel=9, data=[36, 64]),
   midi.NoteOnEvent(tick=0, channel=9, data=[44, 100]),
   midi.NoteOnEvent(tick=0, channel=9, data=[36, 100]),
   midi.NoteOffEvent(tick=120, channel=9, data=[44, 64]),
   midi.NoteOffEvent(tick=0, channel=9, data=[36, 64]),
   midi.NoteOnEvent(tick=0, channel=9, data=[44, 100]),
   midi.NoteOnEvent(tick=0, channel=9, data=[40, 100]),
   midi.NoteOffEvent(tick=120, channel=9, data=[44, 64]),
   midi.NoteOnEvent(tick=0, channel=9, data=[44, 100]),
   midi.NoteOffEvent(tick=120, channel=9, data=[40, 64]),
   midi.NoteOffEvent(tick=0, channel=9, data=[44, 64]),
   midi.NoteOnEvent(tick=0, channel=9, data=[36, 100]),
   midi.NoteOnEvent(tick=0, channel=9, data=[44, 100]),
   midi.NoteOffEvent(tick=120, channel=9, data=[44, 64]),
   midi.NoteOnEvent(tick=0, channel=9, data=[44, 100]),
   midi.NoteOffEvent(tick=120, channel=9, data=[36, 64]),
   midi.NoteOffEvent(tick=0, channel=9, data=[44, 64]),
   midi.NoteOnEvent(tick=0, channel=9, data=[40, 100]),
   midi.NoteOnEvent(tick=0, channel=9, data=[44, 100]),
   midi.NoteOffEvent(tick=120, channel=9, data=[44, 64]),
   midi.NoteOnEvent(tick=0, channel=9, data=[44, 100]),
   midi.NoteOffEvent(tick=120, channel=9, data=[40, 64]),
   midi.NoteOffEvent(tick=0, channel=9, data=[44, 64]),
   midi.NoteOnEvent(tick=0, channel=9, data=[36, 100]),
   midi.NoteOnEvent(tick=0, channel=9, data=[44, 100]),
   midi.NoteOffEvent(tick=120, channel=9, data=[44, 64]),
   midi.NoteOnEvent(tick=0, channel=9, data=[44, 100]),
   midi.NoteOffEvent(tick=120, channel=9, data=[36, 64]),
   midi.NoteOffEvent(tick=0, channel=9, data=[44, 64]),
   midi.NoteOnEvent(tick=0, channel=9, data=[40, 100]),
   midi.NoteOnEvent(tick=0, channel=9, data=[44, 100]),
   midi.NoteOffEvent(tick=120, channel=9, data=[44, 64]),
   midi.NoteOnEvent(tick=0, channel=9, data=[44, 100]),
   midi.NoteOffEvent(tick=120, channel=9, data=[40, 64]),
   midi.NoteOffEvent(tick=0, channel=9, data=[44, 64]),
   midi.NoteOnEvent(tick=0, channel=9, data=[36, 100]),
   midi.NoteOnEvent(tick=0, channel=9, data=[44, 100]),
   midi.NoteOffEvent(tick=120, channel=9, data=[44, 64]),
   midi.NoteOnEvent(tick=0, channel=9, data=[44, 100]),
   midi.NoteOffEvent(tick=120, channel=9, data=[36, 64]),
   midi.NoteOffEvent(tick=0, channel=9, data=[44, 64]),
   midi.NoteOnEvent(tick=0, channel=9, data=[40, 100]),
   midi.NoteOnEvent(tick=0, channel=9, data=[44, 100]),
   midi.NoteOffEvent(tick=120, channel=9, data=[44, 64]),
   midi.NoteOnEvent(tick=0, channel=9, data=[44, 100]),
   midi.NoteOffEvent(tick=120, channel=9, data=[40, 64]),
   midi.NoteOffEvent(tick=0, channel=9, data=[44, 64]),
   midi.NoteOnEvent(tick=0, channel=9, data=[36, 100]),
   midi.NoteOnEvent(tick=0, channel=9, data=[44, 100]),
   midi.NoteOffEvent(tick=120, channel=9, data=[36, 64]),
   midi.NoteOffEvent(tick=0, channel=9, data=[44, 64]),
   midi.NoteOnEvent(tick=0, channel=9, data=[36, 100]),
   midi.NoteOnEvent(tick=0, channel=9, data=[44, 100]),
   midi.NoteOffEvent(tick=120, channel=9, data=[36, 64]),
   midi.NoteOffEvent(tick=0, channel=9, data=[44, 64]),
   midi.NoteOnEvent(tick=0, channel=9, data=[40, 100]),
   midi.NoteOnEvent(tick=0, channel=9, data=[44, 100]),
   midi.NoteOffEvent(tick=60, channel=9, data=[40, 64]),
   midi.NoteOnEvent(tick=0, channel=9, data=[40, 100]),
   midi.NoteOffEvent(tick=60, channel=9, data=[44, 64]),
   midi.NoteOffEvent(tick=0, channel=9, data=[40, 64]),
   midi.NoteOnEvent(tick=0, channel=9, data=[36, 100]),
   midi.NoteOnEvent(tick=0, channel=9, data=[44, 100]),
   midi.NoteOffEvent(tick=120, channel=9, data=[36, 64]),
   midi.NoteOffEvent(tick=0, channel=9, data=[44, 64]),
   midi.NoteOnEvent(tick=0, channel=9, data=[44, 100]),
   midi.NoteOnEvent(tick=0, channel=9, data=[36, 100]),
   midi.NoteOffEvent(tick=120, channel=9, data=[44, 64]),
   midi.NoteOnEvent(tick=0, channel=9, data=[44, 100]),
   midi.NoteOffEvent(tick=120, channel=9, data=[36, 64]),
   midi.NoteOffEvent(tick=0, channel=9, data=[44, 64]),
   midi.NoteOnEvent(tick=0, channel=9, data=[44, 100]),
   midi.NoteOnEvent(tick=0, channel=9, data=[40, 100]),
   midi.NoteOffEvent(tick=120, channel=9, data=[44, 64]),
   midi.NoteOnEvent(tick=0, channel=9, data=[44, 100]),
   midi.NoteOffEvent(tick=120, channel=9, data=[40, 64]),
   midi.NoteOffEvent(tick=0, channel=9, data=[44, 64]),
   midi.NoteOnEvent(tick=0, channel=9, data=[44, 100]),
   midi.NoteOnEvent(tick=0, channel=9, data=[36, 100]),
   midi.NoteOffEvent(tick=120, channel=9, data=[44, 64]),
   midi.NoteOnEvent(tick=0, channel=9, data=[44, 100]),
   midi.NoteOffEvent(tick=120, channel=9, data=[36, 64]),
   midi.NoteOffEvent(tick=0, channel=9, data=[44, 64]),
   midi.NoteOnEvent(tick=0, channel=9, data=[44, 100]),
   midi.NoteOnEvent(tick=0, channel=9, data=[40, 100]),
   midi.NoteOffEvent(tick=120, channel=9, data=[44, 64]),
   midi.NoteOnEvent(tick=0, channel=9, data=[44, 100]),
   midi.NoteOffEvent(tick=120, channel=9, data=[40, 64]),
   midi.NoteOffEvent(tick=0, channel=9, data=[44, 64]),
   midi.NoteOnEvent(tick=0, channel=9, data=[44, 100]),
   midi.NoteOnEvent(tick=0, channel=9, data=[36, 100]),
   midi.NoteOffEvent(tick=120, channel=9, data=[44, 64]),
   midi.NoteOnEvent(tick=0, channel=9, data=[44, 100]),
   midi.NoteOffEvent(tick=120, channel=9, data=[36, 64]),
   midi.NoteOffEvent(tick=0, channel=9, data=[44, 64]),
   midi.NoteOnEvent(tick=0, channel=9, data=[44, 100]),
   midi.NoteOnEvent(tick=0, channel=9, data=[40, 100]),
   midi.NoteOffEvent(tick=120, channel=9, data=[44, 64]),
   midi.NoteOnEvent(tick=0, channel=9, data=[44, 100]),
   midi.NoteOffEvent(tick=120, channel=9, data=[40, 64]),
   midi.NoteOffEvent(tick=0, channel=9, data=[44, 64]),
   midi.NoteOnEvent(tick=0, channel=9, data=[44, 100]),
   midi.NoteOnEvent(tick=0, channel=9, data=[36, 100]),
   midi.NoteOffEvent(tick=120, channel=9, data=[44, 64]),
   midi.NoteOffEvent(tick=0, channel=9, data=[36, 64]),
   midi.NoteOnEvent(tick=0, channel=9, data=[44, 100]),
   midi.NoteOnEvent(tick=0, channel=9, data=[36, 100]),
   midi.NoteOffEvent(tick=120, channel=9, data=[44, 64]),
   midi.NoteOffEvent(tick=0, channel=9, data=[36, 64]),
   midi.NoteOnEvent(tick=0, channel=9, data=[44, 100]),
   midi.NoteOnEvent(tick=0, channel=9, data=[40, 100]),
   midi.NoteOffEvent(tick=60, channel=9, data=[40, 64]),
   midi.NoteOnEvent(tick=0, channel=9, data=[40, 100]),
   midi.NoteOffEvent(tick=60, channel=9, data=[44, 64]),
   midi.NoteOffEvent(tick=0, channel=9, data=[40, 64]),
   midi.NoteOnEvent(tick=0, channel=9, data=[44, 100]),
   midi.NoteOnEvent(tick=0, channel=9, data=[36, 100]),
   midi.NoteOffEvent(tick=120, channel=9, data=[44, 64]),
   midi.NoteOffEvent(tick=0, channel=9, data=[36, 64]),
   midi.NoteOnEvent(tick=0, channel=9, data=[44, 100]),
   midi.NoteOnEvent(tick=0, channel=9, data=[36, 100]),
   midi.NoteOffEvent(tick=120, channel=9, data=[44, 64]),
   midi.NoteOnEvent(tick=0, channel=9, data=[44, 100]),
   midi.NoteOffEvent(tick=120, channel=9, data=[36, 64]),
   midi.NoteOffEvent(tick=0, channel=9, data=[44, 64]),
   midi.NoteOnEvent(tick=0, channel=9, data=[44, 100]),
   midi.NoteOnEvent(tick=0, channel=9, data=[40, 100]),
   midi.NoteOffEvent(tick=120, channel=9, data=[44, 64]),
   midi.NoteOnEvent(tick=0, channel=9, data=[44, 100]),
   midi.NoteOffEvent(tick=120, channel=9, data=[40, 64]),
   midi.NoteOffEvent(tick=0, channel=9, data=[44, 64]),
   midi.NoteOnEvent(tick=0, channel=9, data=[44, 100]),
   midi.NoteOnEvent(tick=0, channel=9, data=[36, 100]),
   midi.NoteOffEvent(tick=120, channel=9, data=[44, 64]),
   midi.NoteOnEvent(tick=0, channel=9, data=[44, 100]),
   midi.NoteOffEvent(tick=120, channel=9, data=[36, 64]),
   midi.NoteOffEvent(tick=0, channel=9, data=[44, 64]),
   midi.NoteOnEvent(tick=0, channel=9, data=[44, 100]),
   midi.NoteOnEvent(tick=0, channel=9, data=[40, 100]),
   midi.NoteOffEvent(tick=120, channel=9, data=[44, 64]),
   midi.NoteOnEvent(tick=0, channel=9, data=[44, 100]),
   midi.NoteOffEvent(tick=120, channel=9, data=[40, 64]),
   midi.NoteOffEvent(tick=0, channel=9, data=[44, 64]),
   midi.NoteOnEvent(tick=0, channel=9, data=[44, 100]),
   midi.NoteOnEvent(tick=0, channel=9, data=[36, 100]),
   midi.NoteOffEvent(tick=120, channel=9, data=[44, 64]),
   midi.NoteOnEvent(tick=0, channel=9, data=[44, 100]),
   midi.NoteOffEvent(tick=120, channel=9, data=[36, 64]),
   midi.NoteOffEvent(tick=0, channel=9, data=[44, 64]),
   midi.NoteOnEvent(tick=0, channel=9, data=[44, 100]),
   midi.NoteOnEvent(tick=0, channel=9, data=[40, 100]),
   midi.NoteOffEvent(tick=120, channel=9, data=[44, 64]),
   midi.NoteOnEvent(tick=0, channel=9, data=[44, 100]),
   midi.NoteOffEvent(tick=120, channel=9, data=[40, 64]),
   midi.NoteOffEvent(tick=0, channel=9, data=[44, 64]),
   midi.NoteOnEvent(tick=0, channel=9, data=[44, 100]),
   midi.NoteOnEvent(tick=0, channel=9, data=[36, 100]),
   midi.NoteOffEvent(tick=120, channel=9, data=[44, 64]),
   midi.NoteOffEvent(tick=0, channel=9, data=[36, 64]),
   midi.NoteOnEvent(tick=0, channel=9, data=[44, 100]),
   midi.NoteOnEvent(tick=0, channel=9, data=[36, 100]),
   midi.NoteOffEvent(tick=120, channel=9, data=[44, 64]),
   midi.NoteOffEvent(tick=0, channel=9, data=[36, 64]),
   midi.NoteOnEvent(tick=0, channel=9, data=[44, 100]),
   midi.NoteOnEvent(tick=0, channel=9, data=[40, 100]),
   midi.NoteOffEvent(tick=60, channel=9, data=[40, 64]),
   midi.NoteOnEvent(tick=0, channel=9, data=[40, 100]),
   midi.NoteOffEvent(tick=60, channel=9, data=[44, 64]),
   midi.NoteOffEvent(tick=0, channel=9, data=[40, 64]),
   midi.NoteOnEvent(tick=0, channel=9, data=[44, 100]),
   midi.NoteOnEvent(tick=0, channel=9, data=[36, 100]),
   midi.NoteOffEvent(tick=120, channel=9, data=[44, 64]),
   midi.NoteOffEvent(tick=0, channel=9, data=[36, 64]),
   midi.NoteOnEvent(tick=960, channel=9, data=[42, 100]),
   midi.NoteOffEvent(tick=60, channel=9, data=[42, 64]),
   midi.NoteOnEvent(tick=0, channel=9, data=[44, 100]),
   midi.NoteOffEvent(tick=60, channel=9, data=[44, 64]),
   midi.NoteOnEvent(tick=0, channel=9, data=[42, 100]),
   midi.NoteOffEvent(tick=60, channel=9, data=[42, 64]),
   midi.NoteOnEvent(tick=0, channel=9, data=[44, 100]),
   midi.NoteOffEvent(tick=60, channel=9, data=[44, 64]),
   midi.NoteOnEvent(tick=0, channel=9, data=[42, 100]),
   midi.NoteOffEvent(tick=60, channel=9, data=[42, 64]),
   midi.NoteOnEvent(tick=0, channel=9, data=[44, 100]),
   midi.NoteOffEvent(tick=60, channel=9, data=[44, 64]),
   midi.NoteOnEvent(tick=0, channel=9, data=[42, 100]),
   midi.NoteOffEvent(tick=60, channel=9, data=[42, 64]),
   midi.NoteOnEvent(tick=0, channel=9, data=[44, 100]),
   midi.NoteOffEvent(tick=60, channel=9, data=[44, 64]),
   midi.NoteOnEvent(tick=0, channel=9, data=[42, 100]),
   midi.NoteOffEvent(tick=60, channel=9, data=[42, 64]),
   midi.NoteOnEvent(tick=0, channel=9, data=[44, 100]),
   midi.NoteOffEvent(tick=60, channel=9, data=[44, 64]),
   midi.NoteOnEvent(tick=0, channel=9, data=[42, 100]),
   midi.NoteOffEvent(tick=60, channel=9, data=[42, 64]),
   midi.NoteOnEvent(tick=0, channel=9, data=[44, 100]),
   midi.NoteOffEvent(tick=60, channel=9, data=[44, 64]),
   midi.NoteOnEvent(tick=0, channel=9, data=[42, 100]),
   midi.NoteOnEvent(tick=0, channel=9, data=[40, 100]),
   midi.NoteOffEvent(tick=60, channel=9, data=[42, 64]),
   midi.NoteOnEvent(tick=0, channel=9, data=[44, 100]),
   midi.NoteOffEvent(tick=60, channel=9, data=[44, 64]),
   midi.NoteOnEvent(tick=0, channel=9, data=[42, 100]),
   midi.NoteOffEvent(tick=60, channel=9, data=[42, 64]),
   midi.NoteOnEvent(tick=0, channel=9, data=[44, 100]),
   midi.NoteOffEvent(tick=60, channel=9, data=[40, 64]),
   midi.NoteOffEvent(tick=0, channel=9, data=[44, 64]),
   midi.NoteOnEvent(tick=0, channel=9, data=[42, 100]),
   midi.NoteOffEvent(tick=60, channel=9, data=[42, 64]),
   midi.NoteOnEvent(tick=0, channel=9, data=[44, 100]),
   midi.NoteOffEvent(tick=60, channel=9, data=[44, 64]),
   midi.NoteOnEvent(tick=0, channel=9, data=[42, 100]),
   midi.NoteOffEvent(tick=60, channel=9, data=[42, 64]),
   midi.NoteOnEvent(tick=0, channel=9, data=[44, 100]),
   midi.NoteOffEvent(tick=60, channel=9, data=[44, 64]),
   midi.NoteOnEvent(tick=0, channel=9, data=[42, 100]),
   midi.NoteOnEvent(tick=0, channel=9, data=[40, 100]),
   midi.NoteOffEvent(tick=60, channel=9, data=[42, 64]),
   midi.NoteOnEvent(tick=0, channel=9, data=[44, 100]),
   midi.NoteOffEvent(tick=60, channel=9, data=[44, 64]),
   midi.NoteOnEvent(tick=0, channel=9, data=[42, 100]),
   midi.NoteOffEvent(tick=60, channel=9, data=[42, 64]),
   midi.NoteOnEvent(tick=0, channel=9, data=[44, 100]),
   midi.NoteOffEvent(tick=60, channel=9, data=[40, 64]),
   midi.NoteOffEvent(tick=0, channel=9, data=[44, 64]),
   midi.NoteOnEvent(tick=0, channel=9, data=[42, 100]),
   midi.NoteOffEvent(tick=60, channel=9, data=[42, 64]),
   midi.NoteOnEvent(tick=0, channel=9, data=[44, 100]),
   midi.NoteOffEvent(tick=60, channel=9, data=[44, 64]),
   midi.NoteOnEvent(tick=0, channel=9, data=[42, 100]),
   midi.NoteOffEvent(tick=60, channel=9, data=[42, 64]),
   midi.NoteOnEvent(tick=0, channel=9, data=[44, 100]),
   midi.NoteOffEvent(tick=60, channel=9, data=[44, 64]),
   midi.NoteOnEvent(tick=0, channel=9, data=[42, 100]),
   midi.NoteOnEvent(tick=0, channel=9, data=[40, 100]),
   midi.NoteOffEvent(tick=60, channel=9, data=[42, 64]),
   midi.NoteOnEvent(tick=0, channel=9, data=[44, 100]),
   midi.NoteOffEvent(tick=60, channel=9, data=[44, 64]),
   midi.NoteOnEvent(tick=0, channel=9, data=[42, 100]),
   midi.NoteOffEvent(tick=60, channel=9, data=[42, 64]),
   midi.NoteOnEvent(tick=0, channel=9, data=[44, 100]),
   midi.NoteOffEvent(tick=60, channel=9, data=[40, 64]),
   midi.NoteOffEvent(tick=0, channel=9, data=[44, 64]),
   midi.NoteOnEvent(tick=0, channel=9, data=[42, 100]),
   midi.NoteOffEvent(tick=60, channel=9, data=[42, 64]),
   midi.NoteOnEvent(tick=0, channel=9, data=[44, 100]),
   midi.NoteOffEvent(tick=60, channel=9, data=[44, 64]),
   midi.NoteOnEvent(tick=0, channel=9, data=[42, 100]),
   midi.NoteOffEvent(tick=60, channel=9, data=[42, 64]),
   midi.NoteOnEvent(tick=0, channel=9, data=[44, 100]),
   midi.NoteOffEvent(tick=60, channel=9, data=[44, 64]),
   midi.NoteOnEvent(tick=0, channel=9, data=[42, 100]),
   midi.NoteOnEvent(tick=0, channel=9, data=[40, 127]),
   midi.NoteOffEvent(tick=60, channel=9, data=[42, 64]),
   midi.NoteOnEvent(tick=0, channel=9, data=[44, 100]),
   midi.NoteOffEvent(tick=60, channel=9, data=[44, 64]),
   midi.NoteOnEvent(tick=0, channel=9, data=[42, 100]),
   midi.NoteOffEvent(tick=60, channel=9, data=[42, 64]),
   midi.NoteOnEvent(tick=0, channel=9, data=[44, 100]),
   midi.NoteOffEvent(tick=60, channel=9, data=[40, 64]),
   midi.NoteOffEvent(tick=0, channel=9, data=[44, 64]),
   midi.NoteOnEvent(tick=0, channel=9, data=[42, 100]),
   midi.NoteOffEvent(tick=60, channel=9, data=[42, 64]),
   midi.NoteOnEvent(tick=0, channel=9, data=[44, 100]),
   midi.NoteOffEvent(tick=60, channel=9, data=[44, 64]),
   midi.NoteOnEvent(tick=0, channel=9, data=[42, 100]),
   midi.NoteOffEvent(tick=60, channel=9, data=[42, 64]),
   midi.NoteOnEvent(tick=0, channel=9, data=[44, 100]),
   midi.NoteOffEvent(tick=60, channel=9, data=[44, 64]),
   midi.NoteOnEvent(tick=0, channel=9, data=[42, 100]),
   midi.NoteOnEvent(tick=0, channel=9, data=[40, 127]),
   midi.NoteOffEvent(tick=60, channel=9, data=[42, 64]),
   midi.NoteOnEvent(tick=0, channel=9, data=[44, 100]),
   midi.NoteOnEvent(tick=0, channel=9, data=[44, 100]),
   midi.NoteOffEvent(tick=60, channel=9, data=[44, 0]),
   midi.NoteOffEvent(tick=0, channel=9, data=[44, 0]),
   midi.NoteOnEvent(tick=0, channel=9, data=[42, 100]),
   midi.NoteOffEvent(tick=60, channel=9, data=[42, 64]),
   midi.NoteOnEvent(tick=0, channel=9, data=[44, 100]),
   midi.NoteOnEvent(tick=0, channel=9, data=[44, 100]),
   midi.NoteOffEvent(tick=60, channel=9, data=[40, 64]),
   midi.NoteOffEvent(tick=0, channel=9, data=[44, 0]),
   midi.NoteOffEvent(tick=0, channel=9, data=[44, 0]),
   midi.NoteOnEvent(tick=0, channel=9, data=[42, 100]),
   midi.NoteOffEvent(tick=60, channel=9, data=[42, 64]),
   midi.NoteOnEvent(tick=0, channel=9, data=[44, 100]),
   midi.NoteOnEvent(tick=0, channel=9, data=[44, 100]),
   midi.NoteOffEvent(tick=60, channel=9, data=[44, 0]),
   midi.NoteOffEvent(tick=0, channel=9, data=[44, 0]),
   midi.NoteOnEvent(tick=0, channel=9, data=[42, 100]),
   midi.NoteOffEvent(tick=60, channel=9, data=[42, 64]),
   midi.NoteOnEvent(tick=0, channel=9, data=[44, 100]),
   midi.NoteOffEvent(tick=60, channel=9, data=[44, 64]),
   midi.NoteOnEvent(tick=0, channel=9, data=[42, 100]),
   midi.NoteOnEvent(tick=0, channel=9, data=[40, 127]),
   midi.NoteOffEvent(tick=60, channel=9, data=[42, 64]),
   midi.NoteOnEvent(tick=0, channel=9, data=[44, 100]),
   midi.NoteOffEvent(tick=60, channel=9, data=[44, 64]),
   midi.NoteOnEvent(tick=0, channel=9, data=[42, 100]),
   midi.NoteOffEvent(tick=60, channel=9, data=[42, 64]),
   midi.NoteOnEvent(tick=0, channel=9, data=[44, 100]),
   midi.NoteOffEvent(tick=60, channel=9, data=[40, 64]),
   midi.NoteOffEvent(tick=0, channel=9, data=[44, 64]),
   midi.NoteOnEvent(tick=0, channel=9, data=[42, 100]),
   midi.NoteOffEvent(tick=60, channel=9, data=[42, 64]),
   midi.NoteOnEvent(tick=0, channel=9, data=[44, 100]),
   midi.NoteOffEvent(tick=60, channel=9, data=[44, 64]),
   midi.NoteOnEvent(tick=0, channel=9, data=[42, 100]),
   midi.NoteOffEvent(tick=60, channel=9, data=[42, 64]),
   midi.NoteOnEvent(tick=0, channel=9, data=[44, 100]),
   midi.NoteOffEvent(tick=60, channel=9, data=[44, 64]),
   midi.NoteOnEvent(tick=0, channel=9, data=[42, 100]),
   midi.NoteOnEvent(tick=0, channel=9, data=[40, 127]),
   midi.NoteOffEvent(tick=60, channel=9, data=[42, 64]),
   midi.NoteOnEvent(tick=0, channel=9, data=[44, 100]),
   midi.NoteOffEvent(tick=60, channel=9, data=[44, 64]),
   midi.NoteOnEvent(tick=0, channel=9, data=[42, 100]),
   midi.NoteOffEvent(tick=60, channel=9, data=[42, 64]),
   midi.NoteOnEvent(tick=0, channel=9, data=[44, 100]),
   midi.NoteOffEvent(tick=60, channel=9, data=[40, 64]),
   midi.NoteOffEvent(tick=0, channel=9, data=[44, 64]),
   midi.NoteOnEvent(tick=0, channel=9, data=[42, 100]),
   midi.NoteOffEvent(tick=60, channel=9, data=[42, 64]),
   midi.NoteOnEvent(tick=0, channel=9, data=[44, 100]),
   midi.NoteOffEvent(tick=60, channel=9, data=[44, 64]),
   midi.NoteOnEvent(tick=0, channel=9, data=[42, 100]),
   midi.NoteOffEvent(tick=60, channel=9, data=[42, 64]),
   midi.NoteOnEvent(tick=0, channel=9, data=[44, 100]),
   midi.NoteOffEvent(tick=60, channel=9, data=[44, 64]),
   midi.NoteOnEvent(tick=0, channel=9, data=[42, 100]),
   midi.NoteOnEvent(tick=0, channel=9, data=[40, 127]),
   midi.NoteOffEvent(tick=60, channel=9, data=[42, 64]),
   midi.NoteOnEvent(tick=0, channel=9, data=[44, 100]),
   midi.NoteOffEvent(tick=60, channel=9, data=[44, 64]),
   midi.NoteOnEvent(tick=0, channel=9, data=[42, 100]),
   midi.NoteOffEvent(tick=60, channel=9, data=[42, 64]),
   midi.NoteOnEvent(tick=0, channel=9, data=[44, 100]),
   midi.NoteOffEvent(tick=60, channel=9, data=[40, 64]),
   midi.NoteOffEvent(tick=0, channel=9, data=[44, 64]),
   midi.NoteOnEvent(tick=0, channel=9, data=[42, 100]),
   midi.NoteOffEvent(tick=60, channel=9, data=[42, 64]),
   midi.NoteOnEvent(tick=0, channel=9, data=[44, 100]),
   midi.NoteOffEvent(tick=60, channel=9, data=[44, 64]),
   midi.NoteOnEvent(tick=0, channel=9, data=[42, 100]),
   midi.NoteOffEvent(tick=60, channel=9, data=[42, 64]),
   midi.NoteOnEvent(tick=0, channel=9, data=[44, 100]),
   midi.NoteOffEvent(tick=60, channel=9, data=[44, 64]),
   midi.NoteOnEvent(tick=0, channel=9, data=[42, 100]),
   midi.NoteOnEvent(tick=0, channel=9, data=[40, 127]),
   midi.NoteOffEvent(tick=60, channel=9, data=[42, 64]),
   midi.NoteOnEvent(tick=0, channel=9, data=[44, 100]),
   midi.NoteOffEvent(tick=60, channel=9, data=[44, 64]),
   midi.NoteOnEvent(tick=0, channel=9, data=[42, 100]),
   midi.NoteOffEvent(tick=60, channel=9, data=[42, 64]),
   midi.NoteOnEvent(tick=0, channel=9, data=[44, 100]),
   midi.NoteOffEvent(tick=60, channel=9, data=[40, 64]),
   midi.NoteOffEvent(tick=0, channel=9, data=[44, 64]),
   midi.NoteOnEvent(tick=0, channel=9, data=[42, 100]),
   midi.NoteOffEvent(tick=60, channel=9, data=[42, 64]),
   midi.NoteOnEvent(tick=0, channel=9, data=[44, 100]),
   midi.NoteOffEvent(tick=60, channel=9, data=[44, 64]),
   midi.NoteOnEvent(tick=0, channel=9, data=[42, 100]),
   midi.NoteOffEvent(tick=60, channel=9, data=[42, 64]),
   midi.NoteOnEvent(tick=0, channel=9, data=[44, 100]),
   midi.NoteOffEvent(tick=60, channel=9, data=[44, 64]),
   midi.NoteOnEvent(tick=0, channel=9, data=[42, 100]),
   midi.NoteOnEvent(tick=0, channel=9, data=[40, 127]),
   midi.NoteOffEvent(tick=60, channel=9, data=[42, 64]),
   midi.NoteOnEvent(tick=0, channel=9, data=[44, 100]),
   midi.NoteOffEvent(tick=60, channel=9, data=[44, 64]),
   midi.NoteOnEvent(tick=0, channel=9, data=[42, 100]),
   midi.NoteOffEvent(tick=60, channel=9, data=[42, 64]),
   midi.NoteOnEvent(tick=0, channel=9, data=[44, 100]),
   midi.NoteOffEvent(tick=60, channel=9, data=[40, 64]),
   midi.NoteOffEvent(tick=0, channel=9, data=[44, 64]),
   midi.NoteOnEvent(tick=0, channel=9, data=[42, 100]),
   midi.NoteOffEvent(tick=60, channel=9, data=[42, 64]),
   midi.NoteOnEvent(tick=0, channel=9, data=[44, 100]),
   midi.NoteOffEvent(tick=60, channel=9, data=[44, 64]),
   midi.NoteOnEvent(tick=0, channel=9, data=[42, 100]),
   midi.NoteOffEvent(tick=60, channel=9, data=[42, 64]),
   midi.NoteOnEvent(tick=0, channel=9, data=[44, 100]),
   midi.NoteOffEvent(tick=60, channel=9, data=[44, 64]),
   midi.NoteOnEvent(tick=0, channel=9, data=[42, 100]),
   midi.NoteOnEvent(tick=0, channel=9, data=[40, 127]),
   midi.NoteOffEvent(tick=60, channel=9, data=[42, 64]),
   midi.NoteOnEvent(tick=0, channel=9, data=[44, 100]),
   midi.NoteOffEvent(tick=60, channel=9, data=[44, 64]),
   midi.NoteOnEvent(tick=0, channel=9, data=[42, 100]),
   midi.NoteOffEvent(tick=60, channel=9, data=[42, 64]),
   midi.NoteOnEvent(tick=0, channel=9, data=[44, 100]),
   midi.NoteOffEvent(tick=60, channel=9, data=[40, 64]),
   midi.NoteOffEvent(tick=0, channel=9, data=[44, 64]),
   midi.NoteOnEvent(tick=0, channel=9, data=[42, 100]),
   midi.NoteOffEvent(tick=60, channel=9, data=[42, 64]),
   midi.NoteOnEvent(tick=0, channel=9, data=[44, 100]),
   midi.NoteOffEvent(tick=60, channel=9, data=[44, 64]),
   midi.NoteOnEvent(tick=0, channel=9, data=[42, 100]),
   midi.NoteOffEvent(tick=60, channel=9, data=[42, 64]),
   midi.NoteOnEvent(tick=0, channel=9, data=[44, 100]),
   midi.NoteOffEvent(tick=60, channel=9, data=[44, 64]),
   midi.NoteOnEvent(tick=0, channel=9, data=[42, 100]),
   midi.NoteOnEvent(tick=0, channel=9, data=[40, 127]),
   midi.NoteOffEvent(tick=60, channel=9, data=[42, 64]),
   midi.NoteOnEvent(tick=0, channel=9, data=[44, 100]),
   midi.NoteOffEvent(tick=60, channel=9, data=[44, 64]),
   midi.NoteOnEvent(tick=0, channel=9, data=[42, 100]),
   midi.NoteOffEvent(tick=60, channel=9, data=[42, 64]),
   midi.NoteOnEvent(tick=0, channel=9, data=[44, 100]),
   midi.NoteOffEvent(tick=60, channel=9, data=[40, 64]),
   midi.NoteOffEvent(tick=0, channel=9, data=[44, 64]),
   midi.NoteOnEvent(tick=0, channel=9, data=[42, 100]),
   midi.NoteOffEvent(tick=60, channel=9, data=[42, 64]),
   midi.NoteOnEvent(tick=0, channel=9, data=[44, 100]),
   midi.NoteOffEvent(tick=60, channel=9, data=[44, 64]),
   midi.NoteOnEvent(tick=0, channel=9, data=[42, 100]),
   midi.NoteOffEvent(tick=60, channel=9, data=[42, 64]),
   midi.NoteOnEvent(tick=0, channel=9, data=[44, 100]),
   midi.NoteOffEvent(tick=60, channel=9, data=[44, 64]),
   midi.NoteOnEvent(tick=0, channel=9, data=[42, 100]),
   midi.NoteOnEvent(tick=0, channel=9, data=[40, 127]),
   midi.NoteOffEvent(tick=60, channel=9, data=[42, 64]),
   midi.NoteOnEvent(tick=0, channel=9, data=[44, 100]),
   midi.NoteOffEvent(tick=60, channel=9, data=[44, 64]),
   midi.NoteOnEvent(tick=0, channel=9, data=[42, 100]),
   midi.NoteOffEvent(tick=60, channel=9, data=[42, 64]),
   midi.NoteOnEvent(tick=0, channel=9, data=[44, 100]),
   midi.NoteOffEvent(tick=60, channel=9, data=[40, 64]),
   midi.NoteOffEvent(tick=0, channel=9, data=[44, 64]),
   midi.NoteOnEvent(tick=0, channel=9, data=[42, 100]),
   midi.NoteOffEvent(tick=60, channel=9, data=[42, 64]),
   midi.NoteOnEvent(tick=0, channel=9, data=[44, 100]),
   midi.NoteOffEvent(tick=60, channel=9, data=[44, 64]),
   midi.NoteOnEvent(tick=0, channel=9, data=[42, 100]),
   midi.NoteOffEvent(tick=60, channel=9, data=[42, 64]),
   midi.NoteOnEvent(tick=0, channel=9, data=[44, 100]),
   midi.NoteOffEvent(tick=60, channel=9, data=[44, 64]),
   midi.NoteOnEvent(tick=0, channel=9, data=[42, 100]),
   midi.NoteOnEvent(tick=0, channel=9, data=[40, 127]),
   midi.NoteOffEvent(tick=60, channel=9, data=[42, 64]),
   midi.NoteOnEvent(tick=0, channel=9, data=[44, 100]),
   midi.NoteOffEvent(tick=60, channel=9, data=[44, 64]),
   midi.NoteOnEvent(tick=0, channel=9, data=[42, 100]),
   midi.NoteOffEvent(tick=60, channel=9, data=[42, 64]),
   midi.NoteOnEvent(tick=0, channel=9, data=[44, 100]),
   midi.NoteOffEvent(tick=60, channel=9, data=[40, 64]),
   midi.NoteOffEvent(tick=0, channel=9, data=[44, 64]),
   midi.NoteOnEvent(tick=0, channel=9, data=[42, 100]),
   midi.NoteOffEvent(tick=60, channel=9, data=[42, 64]),
   midi.NoteOnEvent(tick=0, channel=9, data=[44, 100]),
   midi.NoteOffEvent(tick=60, channel=9, data=[44, 64]),
   midi.NoteOnEvent(tick=0, channel=9, data=[42, 100]),
   midi.NoteOffEvent(tick=60, channel=9, data=[42, 64]),
   midi.NoteOnEvent(tick=0, channel=9, data=[44, 100]),
   midi.NoteOffEvent(tick=60, channel=9, data=[44, 64]),
   midi.NoteOnEvent(tick=0, channel=9, data=[42, 100]),
   midi.NoteOnEvent(tick=0, channel=9, data=[40, 127]),
   midi.NoteOffEvent(tick=60, channel=9, data=[42, 64]),
   midi.NoteOnEvent(tick=0, channel=9, data=[44, 100]),
   midi.NoteOffEvent(tick=60, channel=9, data=[44, 64]),
   midi.NoteOnEvent(tick=0, channel=9, data=[42, 100]),
   midi.NoteOffEvent(tick=60, channel=9, data=[42, 64]),
   midi.NoteOnEvent(tick=0, channel=9, data=[44, 100]),
   midi.NoteOffEvent(tick=60, channel=9, data=[40, 64]),
   midi.NoteOffEvent(tick=0, channel=9, data=[44, 64]),
   midi.NoteOnEvent(tick=0, channel=9, data=[42, 100]),
   midi.NoteOffEvent(tick=60, channel=9, data=[42, 64]),
   midi.NoteOnEvent(tick=0, channel=9, data=[44, 100]),
   midi.NoteOffEvent(tick=60, channel=9, data=[44, 64]),
   midi.NoteOnEvent(tick=0, channel=9, data=[42, 100]),
   midi.NoteOffEvent(tick=60, channel=9, data=[42, 64]),
   midi.NoteOnEvent(tick=0, channel=9, data=[44, 100]),
   midi.NoteOffEvent(tick=60, channel=9, data=[44, 64]),
   midi.NoteOnEvent(tick=0, channel=9, data=[42, 100]),
   midi.NoteOnEvent(tick=0, channel=9, data=[40, 127]),
   midi.NoteOffEvent(tick=60, channel=9, data=[42, 64]),
   midi.NoteOnEvent(tick=0, channel=9, data=[44, 100]),
   midi.NoteOffEvent(tick=60, channel=9, data=[44, 64]),
   midi.NoteOnEvent(tick=0, channel=9, data=[42, 100]),
   midi.NoteOffEvent(tick=60, channel=9, data=[42, 64]),
   midi.NoteOnEvent(tick=0, channel=9, data=[44, 100]),
   midi.NoteOffEvent(tick=60, channel=9, data=[40, 64]),
   midi.NoteOffEvent(tick=0, channel=9, data=[44, 64]),
   midi.NoteOnEvent(tick=0, channel=9, data=[42, 100]),
   midi.NoteOffEvent(tick=60, channel=9, data=[42, 64]),
   midi.NoteOnEvent(tick=0, channel=9, data=[44, 100]),
   midi.NoteOffEvent(tick=60, channel=9, data=[44, 64]),
   midi.NoteOnEvent(tick=0, channel=9, data=[42, 100]),
   midi.NoteOffEvent(tick=60, channel=9, data=[42, 64]),
   midi.NoteOnEvent(tick=0, channel=9, data=[44, 100]),
   midi.NoteOffEvent(tick=60, channel=9, data=[44, 64]),
   midi.NoteOnEvent(tick=0, channel=9, data=[42, 100]),
   midi.NoteOnEvent(tick=0, channel=9, data=[40, 127]),
   midi.NoteOffEvent(tick=60, channel=9, data=[42, 64]),
   midi.NoteOnEvent(tick=0, channel=9, data=[44, 100]),
   midi.NoteOffEvent(tick=60, channel=9, data=[44, 64]),
   midi.NoteOnEvent(tick=0, channel=9, data=[42, 100]),
   midi.NoteOffEvent(tick=60, channel=9, data=[42, 64]),
   midi.NoteOnEvent(tick=0, channel=9, data=[44, 100]),
   midi.NoteOffEvent(tick=60, channel=9, data=[40, 64]),
   midi.NoteOffEvent(tick=0, channel=9, data=[44, 64]),
   midi.NoteOnEvent(tick=0, channel=9, data=[42, 100]),
   midi.NoteOffEvent(tick=60, channel=9, data=[42, 64]),
   midi.NoteOnEvent(tick=0, channel=9, data=[44, 100]),
   midi.NoteOffEvent(tick=60, channel=9, data=[44, 64]),
   midi.NoteOnEvent(tick=0, channel=9, data=[42, 100]),
   midi.NoteOffEvent(tick=60, channel=9, data=[42, 64]),
   midi.NoteOnEvent(tick=0, channel=9, data=[44, 100]),
   midi.NoteOffEvent(tick=60, channel=9, data=[44, 64]),
   midi.NoteOnEvent(tick=0, channel=9, data=[42, 100]),
   midi.NoteOnEvent(tick=0, channel=9, data=[40, 127]),
   midi.NoteOffEvent(tick=60, channel=9, data=[42, 64]),
   midi.NoteOnEvent(tick=0, channel=9, data=[44, 100]),
   midi.NoteOffEvent(tick=60, channel=9, data=[44, 64]),
   midi.NoteOnEvent(tick=0, channel=9, data=[42, 100]),
   midi.NoteOffEvent(tick=60, channel=9, data=[42, 64]),
   midi.NoteOnEvent(tick=0, channel=9, data=[44, 100]),
   midi.NoteOffEvent(tick=60, channel=9, data=[40, 64]),
   midi.NoteOffEvent(tick=0, channel=9, data=[44, 64]),
   midi.NoteOnEvent(tick=0, channel=9, data=[42, 100]),
   midi.NoteOffEvent(tick=60, channel=9, data=[42, 64]),
   midi.NoteOnEvent(tick=0, channel=9, data=[44, 100]),
   midi.NoteOffEvent(tick=60, channel=9, data=[44, 64]),
   midi.NoteOnEvent(tick=0, channel=9, data=[42, 100]),
   midi.NoteOffEvent(tick=60, channel=9, data=[42, 64]),
   midi.NoteOnEvent(tick=0, channel=9, data=[44, 100]),
   midi.NoteOffEvent(tick=60, channel=9, data=[44, 64]),
   midi.NoteOnEvent(tick=0, channel=9, data=[42, 100]),
   midi.NoteOnEvent(tick=0, channel=9, data=[40, 127]),
   midi.NoteOffEvent(tick=60, channel=9, data=[42, 64]),
   midi.NoteOnEvent(tick=0, channel=9, data=[44, 100]),
   midi.NoteOffEvent(tick=60, channel=9, data=[44, 64]),
   midi.NoteOnEvent(tick=0, channel=9, data=[42, 100]),
   midi.NoteOffEvent(tick=60, channel=9, data=[42, 64]),
   midi.NoteOnEvent(tick=0, channel=9, data=[44, 100]),
   midi.NoteOffEvent(tick=60, channel=9, data=[40, 64]),
   midi.NoteOffEvent(tick=0, channel=9, data=[44, 64]),
   midi.NoteOnEvent(tick=0, channel=9, data=[42, 100]),
   midi.NoteOffEvent(tick=60, channel=9, data=[42, 64]),
   midi.NoteOnEvent(tick=0, channel=9, data=[44, 100]),
   midi.NoteOffEvent(tick=60, channel=9, data=[44, 64]),
   midi.NoteOnEvent(tick=0, channel=9, data=[42, 100]),
   midi.NoteOffEvent(tick=60, channel=9, data=[42, 64]),
   midi.NoteOnEvent(tick=0, channel=9, data=[44, 100]),
   midi.NoteOffEvent(tick=60, channel=9, data=[44, 64]),
   midi.NoteOnEvent(tick=0, channel=9, data=[42, 100]),
   midi.NoteOnEvent(tick=0, channel=9, data=[40, 127]),
   midi.NoteOffEvent(tick=60, channel=9, data=[42, 64]),
   midi.NoteOnEvent(tick=0, channel=9, data=[44, 100]),
   midi.NoteOffEvent(tick=60, channel=9, data=[44, 64]),
   midi.NoteOnEvent(tick=0, channel=9, data=[42, 100]),
   midi.NoteOffEvent(tick=60, channel=9, data=[42, 64]),
   midi.NoteOnEvent(tick=0, channel=9, data=[44, 100]),
   midi.NoteOffEvent(tick=60, channel=9, data=[40, 64]),
   midi.NoteOffEvent(tick=0, channel=9, data=[44, 64]),
   midi.NoteOnEvent(tick=0, channel=9, data=[42, 100]),
   midi.NoteOffEvent(tick=60, channel=9, data=[42, 64]),
   midi.NoteOnEvent(tick=0, channel=9, data=[44, 100]),
   midi.NoteOffEvent(tick=60, channel=9, data=[44, 64]),
   midi.NoteOnEvent(tick=0, channel=9, data=[42, 100]),
   midi.NoteOffEvent(tick=60, channel=9, data=[42, 64]),
   midi.NoteOnEvent(tick=0, channel=9, data=[44, 100]),
   midi.NoteOffEvent(tick=60, channel=9, data=[44, 64]),
   midi.NoteOnEvent(tick=0, channel=9, data=[42, 100]),
   midi.NoteOnEvent(tick=0, channel=9, data=[40, 127]),
   midi.NoteOffEvent(tick=60, channel=9, data=[42, 64]),
   midi.NoteOnEvent(tick=0, channel=9, data=[44, 100]),
   midi.NoteOffEvent(tick=60, channel=9, data=[44, 64]),
   midi.NoteOnEvent(tick=0, channel=9, data=[42, 100]),
   midi.NoteOffEvent(tick=60, channel=9, data=[42, 64]),
   midi.NoteOnEvent(tick=0, channel=9, data=[44, 100]),
   midi.NoteOffEvent(tick=60, channel=9, data=[40, 64]),
   midi.NoteOffEvent(tick=0, channel=9, data=[44, 64]),
   midi.NoteOnEvent(tick=0, channel=9, data=[42, 100]),
   midi.NoteOffEvent(tick=60, channel=9, data=[42, 64]),
   midi.NoteOnEvent(tick=0, channel=9, data=[44, 100]),
   midi.NoteOffEvent(tick=60, channel=9, data=[44, 64]),
   midi.NoteOnEvent(tick=0, channel=9, data=[42, 100]),
   midi.NoteOffEvent(tick=60, channel=9, data=[42, 64]),
   midi.NoteOnEvent(tick=0, channel=9, data=[44, 100]),
   midi.NoteOffEvent(tick=60, channel=9, data=[44, 64]),
   midi.NoteOnEvent(tick=0, channel=9, data=[40, 127]),
   midi.NoteOnEvent(tick=0, channel=9, data=[42, 100]),
   midi.NoteOffEvent(tick=60, channel=9, data=[42, 64]),
   midi.NoteOnEvent(tick=0, channel=9, data=[44, 100]),
   midi.NoteOffEvent(tick=60, channel=9, data=[44, 64]),
   midi.NoteOnEvent(tick=0, channel=9, data=[42, 100]),
   midi.NoteOffEvent(tick=60, channel=9, data=[42, 64]),
   midi.NoteOnEvent(tick=0, channel=9, data=[44, 100]),
   midi.NoteOffEvent(tick=60, channel=9, data=[40, 64]),
   midi.NoteOffEvent(tick=0, channel=9, data=[44, 64]),
   midi.NoteOnEvent(tick=0, channel=9, data=[42, 100]),
   midi.NoteOffEvent(tick=60, channel=9, data=[42, 64]),
   midi.NoteOnEvent(tick=0, channel=9, data=[44, 100]),
   midi.NoteOffEvent(tick=60, channel=9, data=[44, 64]),
   midi.NoteOnEvent(tick=0, channel=9, data=[42, 100]),
   midi.NoteOffEvent(tick=60, channel=9, data=[42, 64]),
   midi.NoteOnEvent(tick=0, channel=9, data=[44, 100]),
   midi.NoteOffEvent(tick=60, channel=9, data=[44, 64]),
   midi.NoteOnEvent(tick=0, channel=9, data=[40, 127]),
   midi.NoteOnEvent(tick=0, channel=9, data=[42, 100]),
   midi.NoteOffEvent(tick=60, channel=9, data=[42, 64]),
   midi.NoteOnEvent(tick=0, channel=9, data=[44, 100]),
   midi.NoteOffEvent(tick=60, channel=9, data=[44, 64]),
   midi.NoteOnEvent(tick=0, channel=9, data=[42, 100]),
   midi.NoteOffEvent(tick=60, channel=9, data=[42, 64]),
   midi.NoteOnEvent(tick=0, channel=9, data=[44, 100]),
   midi.NoteOffEvent(tick=60, channel=9, data=[40, 64]),
   midi.NoteOffEvent(tick=0, channel=9, data=[44, 64]),
   midi.NoteOnEvent(tick=0, channel=9, data=[44, 100]),
   midi.NoteOnEvent(tick=0, channel=9, data=[36, 100]),
   midi.NoteOffEvent(tick=120, channel=9, data=[44, 64]),
   midi.NoteOnEvent(tick=0, channel=9, data=[44, 100]),
   midi.NoteOffEvent(tick=120, channel=9, data=[36, 64]),
   midi.NoteOffEvent(tick=0, channel=9, data=[44, 64]),
   midi.NoteOnEvent(tick=0, channel=9, data=[44, 100]),
   midi.NoteOnEvent(tick=0, channel=9, data=[40, 100]),
   midi.NoteOffEvent(tick=120, channel=9, data=[44, 64]),
   midi.NoteOnEvent(tick=0, channel=9, data=[44, 100]),
   midi.NoteOffEvent(tick=120, channel=9, data=[40, 64]),
   midi.NoteOffEvent(tick=0, channel=9, data=[44, 64]),
   midi.NoteOnEvent(tick=0, channel=9, data=[44, 100]),
   midi.NoteOnEvent(tick=0, channel=9, data=[36, 100]),
   midi.NoteOffEvent(tick=120, channel=9, data=[44, 64]),
   midi.NoteOffEvent(tick=0, channel=9, data=[36, 64]),
   midi.NoteOnEvent(tick=0, channel=9, data=[44, 100]),
   midi.NoteOnEvent(tick=0, channel=9, data=[36, 100]),
   midi.NoteOffEvent(tick=120, channel=9, data=[44, 64]),
   midi.NoteOffEvent(tick=0, channel=9, data=[36, 64]),
   midi.NoteOnEvent(tick=0, channel=9, data=[44, 100]),
   midi.NoteOnEvent(tick=0, channel=9, data=[40, 100]),
   midi.NoteOffEvent(tick=60, channel=9, data=[40, 64]),
   midi.NoteOnEvent(tick=0, channel=9, data=[40, 100]),
   midi.NoteOffEvent(tick=60, channel=9, data=[44, 64]),
   midi.NoteOffEvent(tick=0, channel=9, data=[40, 64]),
   midi.NoteOnEvent(tick=0, channel=9, data=[44, 100]),
   midi.NoteOnEvent(tick=0, channel=9, data=[36, 100]),
   midi.NoteOffEvent(tick=120, channel=9, data=[44, 64]),
   midi.NoteOffEvent(tick=0, channel=9, data=[36, 64]),
   midi.NoteOnEvent(tick=0, channel=9, data=[36, 100]),
   midi.NoteOnEvent(tick=0, channel=9, data=[44, 100]),
   midi.NoteOffEvent(tick=120, channel=9, data=[44, 64]),
   midi.NoteOnEvent(tick=0, channel=9, data=[44, 100]),
   midi.NoteOffEvent(tick=120, channel=9, data=[36, 64]),
   midi.NoteOffEvent(tick=0, channel=9, data=[44, 64]),
   midi.NoteOnEvent(tick=0, channel=9, data=[40, 100]),
   midi.NoteOnEvent(tick=0, channel=9, data=[44, 100]),
   midi.NoteOffEvent(tick=120, channel=9, data=[44, 64]),
   midi.NoteOnEvent(tick=0, channel=9, data=[44, 100]),
   midi.NoteOffEvent(tick=120, channel=9, data=[40, 64]),
   midi.NoteOffEvent(tick=0, channel=9, data=[44, 64]),
   midi.NoteOnEvent(tick=0, channel=9, data=[36, 100]),
   midi.NoteOnEvent(tick=0, channel=9, data=[44, 100]),
   midi.NoteOffEvent(tick=120, channel=9, data=[36, 64]),
   midi.NoteOffEvent(tick=0, channel=9, data=[44, 64]),
   midi.NoteOnEvent(tick=0, channel=9, data=[36, 100]),
   midi.NoteOnEvent(tick=0, channel=9, data=[44, 100]),
   midi.NoteOffEvent(tick=120, channel=9, data=[36, 64]),
   midi.NoteOffEvent(tick=0, channel=9, data=[44, 64]),
   midi.NoteOnEvent(tick=0, channel=9, data=[40, 100]),
   midi.NoteOnEvent(tick=0, channel=9, data=[44, 100]),
   midi.NoteOffEvent(tick=60, channel=9, data=[40, 64]),
   midi.NoteOnEvent(tick=0, channel=9, data=[40, 100]),
   midi.NoteOffEvent(tick=60, channel=9, data=[44, 64]),
   midi.NoteOffEvent(tick=0, channel=9, data=[40, 64]),
   midi.NoteOnEvent(tick=0, channel=9, data=[36, 100]),
   midi.NoteOnEvent(tick=0, channel=9, data=[44, 100]),
   midi.NoteOffEvent(tick=120, channel=9, data=[36, 64]),
   midi.NoteOffEvent(tick=0, channel=9, data=[44, 64]),
   midi.NoteOnEvent(tick=0, channel=9, data=[36, 100]),
   midi.NoteOnEvent(tick=0, channel=9, data=[44, 100]),
   midi.NoteOffEvent(tick=120, channel=9, data=[44, 64]),
   midi.NoteOnEvent(tick=0, channel=9, data=[44, 100]),
   midi.NoteOffEvent(tick=120, channel=9, data=[36, 64]),
   midi.NoteOffEvent(tick=0, channel=9, data=[44, 64]),
   midi.NoteOnEvent(tick=0, channel=9, data=[40, 100]),
   midi.NoteOnEvent(tick=0, channel=9, data=[44, 100]),
   midi.NoteOffEvent(tick=120, channel=9, data=[44, 64]),
   midi.NoteOnEvent(tick=0, channel=9, data=[44, 100]),
   midi.NoteOffEvent(tick=120, channel=9, data=[40, 64]),
   midi.NoteOffEvent(tick=0, channel=9, data=[44, 64]),
   midi.NoteOnEvent(tick=0, channel=9, data=[36, 100]),
   midi.NoteOnEvent(tick=0, channel=9, data=[44, 100]),
   midi.NoteOffEvent(tick=120, channel=9, data=[36, 64]),
   midi.NoteOffEvent(tick=0, channel=9, data=[44, 64]),
   midi.NoteOnEvent(tick=0, channel=9, data=[36, 100]),
   midi.NoteOnEvent(tick=0, channel=9, data=[44, 100]),
   midi.NoteOffEvent(tick=120, channel=9, data=[36, 64]),
   midi.NoteOffEvent(tick=0, channel=9, data=[44, 64]),
   midi.NoteOnEvent(tick=0, channel=9, data=[40, 100]),
   midi.NoteOnEvent(tick=0, channel=9, data=[44, 100]),
   midi.NoteOffEvent(tick=60, channel=9, data=[40, 64]),
   midi.NoteOnEvent(tick=0, channel=9, data=[40, 100]),
   midi.NoteOffEvent(tick=60, channel=9, data=[44, 64]),
   midi.NoteOffEvent(tick=0, channel=9, data=[40, 64]),
   midi.NoteOnEvent(tick=0, channel=9, data=[36, 100]),
   midi.NoteOnEvent(tick=0, channel=9, data=[44, 100]),
   midi.NoteOffEvent(tick=120, channel=9, data=[36, 64]),
   midi.NoteOffEvent(tick=0, channel=9, data=[44, 64]),
   midi.NoteOnEvent(tick=0, channel=9, data=[36, 100]),
   midi.NoteOnEvent(tick=0, channel=9, data=[44, 100]),
   midi.NoteOffEvent(tick=120, channel=9, data=[44, 64]),
   midi.NoteOnEvent(tick=0, channel=9, data=[44, 100]),
   midi.NoteOffEvent(tick=120, channel=9, data=[36, 64]),
   midi.NoteOffEvent(tick=0, channel=9, data=[44, 64]),
   midi.NoteOnEvent(tick=0, channel=9, data=[40, 100]),
   midi.NoteOnEvent(tick=0, channel=9, data=[44, 100]),
   midi.NoteOffEvent(tick=120, channel=9, data=[44, 64]),
   midi.NoteOnEvent(tick=0, channel=9, data=[44, 100]),
   midi.NoteOffEvent(tick=120, channel=9, data=[40, 64]),
   midi.NoteOffEvent(tick=0, channel=9, data=[44, 64]),
   midi.NoteOnEvent(tick=0, channel=9, data=[36, 100]),
   midi.NoteOnEvent(tick=0, channel=9, data=[44, 100]),
   midi.NoteOffEvent(tick=120, channel=9, data=[36, 64]),
   midi.NoteOffEvent(tick=0, channel=9, data=[44, 64]),
   midi.NoteOnEvent(tick=0, channel=9, data=[36, 100]),
   midi.NoteOnEvent(tick=0, channel=9, data=[44, 100]),
   midi.NoteOffEvent(tick=120, channel=9, data=[36, 64]),
   midi.NoteOffEvent(tick=0, channel=9, data=[44, 64]),
   midi.NoteOnEvent(tick=0, channel=9, data=[40, 100]),
   midi.NoteOnEvent(tick=0, channel=9, data=[44, 100]),
   midi.NoteOffEvent(tick=60, channel=9, data=[40, 64]),
   midi.NoteOnEvent(tick=0, channel=9, data=[40, 100]),
   midi.NoteOffEvent(tick=60, channel=9, data=[44, 64]),
   midi.NoteOffEvent(tick=0, channel=9, data=[40, 64]),
   midi.NoteOnEvent(tick=0, channel=9, data=[36, 100]),
   midi.NoteOnEvent(tick=0, channel=9, data=[44, 100]),
   midi.NoteOffEvent(tick=120, channel=9, data=[36, 64]),
   midi.NoteOffEvent(tick=0, channel=9, data=[44, 64]),
   midi.NoteOnEvent(tick=0, channel=9, data=[36, 100]),
   midi.NoteOnEvent(tick=0, channel=9, data=[44, 100]),
   midi.NoteOffEvent(tick=120, channel=9, data=[44, 64]),
   midi.NoteOnEvent(tick=0, channel=9, data=[44, 100]),
   midi.NoteOffEvent(tick=120, channel=9, data=[36, 64]),
   midi.NoteOffEvent(tick=0, channel=9, data=[44, 64]),
   midi.NoteOnEvent(tick=0, channel=9, data=[40, 100]),
   midi.NoteOnEvent(tick=0, channel=9, data=[44, 100]),
   midi.NoteOffEvent(tick=120, channel=9, data=[44, 64]),
   midi.NoteOnEvent(tick=0, channel=9, data=[44, 100]),
   midi.NoteOffEvent(tick=120, channel=9, data=[40, 64]),
   midi.NoteOffEvent(tick=0, channel=9, data=[44, 64]),
   midi.NoteOnEvent(tick=0, channel=9, data=[36, 100]),
   midi.NoteOnEvent(tick=0, channel=9, data=[44, 100]),
   midi.NoteOffEvent(tick=120, channel=9, data=[36, 64]),
   midi.NoteOffEvent(tick=0, channel=9, data=[44, 64]),
   midi.NoteOnEvent(tick=0, channel=9, data=[36, 100]),
   midi.NoteOnEvent(tick=0, channel=9, data=[44, 100]),
   midi.NoteOffEvent(tick=120, channel=9, data=[36, 64]),
   midi.NoteOffEvent(tick=0, channel=9, data=[44, 64]),
   midi.NoteOnEvent(tick=0, channel=9, data=[40, 100]),
   midi.NoteOnEvent(tick=0, channel=9, data=[44, 100]),
   midi.NoteOffEvent(tick=60, channel=9, data=[40, 64]),
   midi.NoteOnEvent(tick=0, channel=9, data=[40, 100]),
   midi.NoteOffEvent(tick=60, channel=9, data=[44, 64]),
   midi.NoteOffEvent(tick=0, channel=9, data=[40, 64]),
   midi.NoteOnEvent(tick=0, channel=9, data=[36, 100]),
   midi.NoteOnEvent(tick=0, channel=9, data=[44, 100]),
   midi.NoteOffEvent(tick=120, channel=9, data=[36, 64]),
   midi.NoteOffEvent(tick=0, channel=9, data=[44, 64]),
   midi.NoteOnEvent(tick=0, channel=9, data=[44, 100]),
   midi.NoteOnEvent(tick=0, channel=9, data=[36, 100]),
   midi.NoteOffEvent(tick=120, channel=9, data=[44, 64]),
   midi.NoteOnEvent(tick=0, channel=9, data=[44, 100]),
   midi.NoteOffEvent(tick=120, channel=9, data=[36, 64]),
   midi.NoteOffEvent(tick=0, channel=9, data=[44, 64]),
   midi.NoteOnEvent(tick=0, channel=9, data=[44, 100]),
   midi.NoteOnEvent(tick=0, channel=9, data=[40, 100]),
   midi.NoteOffEvent(tick=120, channel=9, data=[44, 64]),
   midi.NoteOnEvent(tick=0, channel=9, data=[44, 100]),
   midi.NoteOffEvent(tick=120, channel=9, data=[40, 64]),
   midi.NoteOffEvent(tick=0, channel=9, data=[44, 64]),
   midi.NoteOnEvent(tick=0, channel=9, data=[44, 100]),
   midi.NoteOnEvent(tick=0, channel=9, data=[36, 100]),
   midi.NoteOffEvent(tick=120, channel=9, data=[44, 64]),
   midi.NoteOffEvent(tick=0, channel=9, data=[36, 64]),
   midi.NoteOnEvent(tick=0, channel=9, data=[44, 100]),
   midi.NoteOnEvent(tick=0, channel=9, data=[36, 100]),
   midi.NoteOffEvent(tick=120, channel=9, data=[44, 64]),
   midi.NoteOffEvent(tick=0, channel=9, data=[36, 64]),
   midi.NoteOnEvent(tick=0, channel=9, data=[44, 100]),
   midi.NoteOnEvent(tick=0, channel=9, data=[40, 100]),
   midi.NoteOffEvent(tick=60, channel=9, data=[40, 64]),
   midi.NoteOnEvent(tick=0, channel=9, data=[40, 100]),
   midi.NoteOffEvent(tick=60, channel=9, data=[44, 64]),
   midi.NoteOffEvent(tick=0, channel=9, data=[40, 64]),
   midi.NoteOnEvent(tick=0, channel=9, data=[44, 100]),
   midi.NoteOnEvent(tick=0, channel=9, data=[36, 100]),
   midi.NoteOffEvent(tick=120, channel=9, data=[44, 64]),
   midi.NoteOffEvent(tick=0, channel=9, data=[36, 64]),
   midi.NoteOnEvent(tick=0, channel=9, data=[44, 100]),
   midi.NoteOnEvent(tick=0, channel=9, data=[36, 100]),
   midi.NoteOffEvent(tick=120, channel=9, data=[44, 64]),
   midi.NoteOnEvent(tick=0, channel=9, data=[44, 100]),
   midi.NoteOffEvent(tick=120, channel=9, data=[36, 64]),
   midi.NoteOffEvent(tick=0, channel=9, data=[44, 64]),
   midi.NoteOnEvent(tick=0, channel=9, data=[44, 100]),
   midi.NoteOnEvent(tick=0, channel=9, data=[40, 100]),
   midi.NoteOffEvent(tick=120, channel=9, data=[44, 64]),
   midi.NoteOnEvent(tick=0, channel=9, data=[44, 100]),
   midi.NoteOffEvent(tick=120, channel=9, data=[40, 64]),
   midi.NoteOffEvent(tick=0, channel=9, data=[44, 64]),
   midi.NoteOnEvent(tick=0, channel=9, data=[44, 100]),
   midi.NoteOnEvent(tick=0, channel=9, data=[36, 100]),
   midi.NoteOffEvent(tick=120, channel=9, data=[44, 64]),
   midi.NoteOffEvent(tick=0, channel=9, data=[36, 64]),
   midi.NoteOnEvent(tick=0, channel=9, data=[44, 100]),
   midi.NoteOnEvent(tick=0, channel=9, data=[36, 100]),
   midi.NoteOffEvent(tick=120, channel=9, data=[44, 64]),
   midi.NoteOffEvent(tick=0, channel=9, data=[36, 64]),
   midi.NoteOnEvent(tick=0, channel=9, data=[44, 100]),
   midi.NoteOnEvent(tick=0, channel=9, data=[40, 100]),
   midi.NoteOffEvent(tick=60, channel=9, data=[40, 64]),
   midi.NoteOnEvent(tick=0, channel=9, data=[40, 100]),
   midi.NoteOffEvent(tick=60, channel=9, data=[44, 64]),
   midi.NoteOffEvent(tick=0, channel=9, data=[40, 64]),
   midi.NoteOnEvent(tick=0, channel=9, data=[44, 100]),
   midi.NoteOnEvent(tick=0, channel=9, data=[36, 100]),
   midi.NoteOffEvent(tick=120, channel=9, data=[44, 64]),
   midi.NoteOffEvent(tick=0, channel=9, data=[36, 64]),
   midi.NoteOnEvent(tick=960, channel=9, data=[36, 100]),
   midi.NoteOnEvent(tick=0, channel=9, data=[44, 100]),
   midi.NoteOnEvent(tick=0, channel=9, data=[44, 100]),
   midi.NoteOffEvent(tick=120, channel=9, data=[44, 64]),
   midi.NoteOffEvent(tick=0, channel=9, data=[44, 64]),
   midi.NoteOnEvent(tick=0, channel=9, data=[44, 100]),
   midi.NoteOnEvent(tick=0, channel=9, data=[44, 100]),
   midi.NoteOffEvent(tick=120, channel=9, data=[36, 64]),
   midi.NoteOffEvent(tick=0, channel=9, data=[44, 64]),
   midi.NoteOffEvent(tick=0, channel=9, data=[44, 64]),
   midi.NoteOnEvent(tick=0, channel=9, data=[40, 100]),
   midi.NoteOnEvent(tick=0, channel=9, data=[44, 100]),
   midi.NoteOnEvent(tick=0, channel=9, data=[54, 100]),
   midi.NoteOffEvent(tick=120, channel=9, data=[44, 64]),
   midi.NoteOffEvent(tick=0, channel=9, data=[54, 64]),
   midi.NoteOnEvent(tick=0, channel=9, data=[44, 100]),
   midi.NoteOnEvent(tick=0, channel=9, data=[54, 100]),
   midi.NoteOffEvent(tick=120, channel=9, data=[40, 64]),
   midi.NoteOffEvent(tick=0, channel=9, data=[44, 64]),
   midi.NoteOffEvent(tick=0, channel=9, data=[54, 64]),
   midi.NoteOnEvent(tick=0, channel=9, data=[36, 100]),
   midi.NoteOnEvent(tick=0, channel=9, data=[44, 100]),
   midi.NoteOnEvent(tick=0, channel=9, data=[44, 100]),
   midi.NoteOffEvent(tick=120, channel=9, data=[44, 64]),
   midi.NoteOffEvent(tick=0, channel=9, data=[44, 64]),
   midi.NoteOnEvent(tick=0, channel=9, data=[44, 100]),
   midi.NoteOnEvent(tick=0, channel=9, data=[44, 100]),
   midi.NoteOffEvent(tick=120, channel=9, data=[36, 64]),
   midi.NoteOffEvent(tick=0, channel=9, data=[44, 64]),
   midi.NoteOffEvent(tick=0, channel=9, data=[44, 64]),
   midi.NoteOnEvent(tick=0, channel=9, data=[40, 100]),
   midi.NoteOnEvent(tick=0, channel=9, data=[44, 100]),
   midi.NoteOnEvent(tick=0, channel=9, data=[54, 100]),
   midi.NoteOffEvent(tick=120, channel=9, data=[44, 64]),
   midi.NoteOffEvent(tick=0, channel=9, data=[54, 64]),
   midi.NoteOnEvent(tick=0, channel=9, data=[44, 100]),
   midi.NoteOnEvent(tick=0, channel=9, data=[54, 100]),
   midi.NoteOffEvent(tick=120, channel=9, data=[40, 64]),
   midi.NoteOffEvent(tick=0, channel=9, data=[44, 64]),
   midi.NoteOffEvent(tick=0, channel=9, data=[54, 64]),
   midi.NoteOnEvent(tick=0, channel=9, data=[36, 100]),
   midi.NoteOnEvent(tick=0, channel=9, data=[44, 100]),
   midi.NoteOnEvent(tick=0, channel=9, data=[44, 100]),
   midi.NoteOffEvent(tick=120, channel=9, data=[44, 64]),
   midi.NoteOffEvent(tick=0, channel=9, data=[44, 64]),
   midi.NoteOnEvent(tick=0, channel=9, data=[44, 100]),
   midi.NoteOnEvent(tick=0, channel=9, data=[44, 100]),
   midi.NoteOffEvent(tick=120, channel=9, data=[36, 64]),
   midi.NoteOffEvent(tick=0, channel=9, data=[44, 64]),
   midi.NoteOffEvent(tick=0, channel=9, data=[44, 64]),
   midi.NoteOnEvent(tick=0, channel=9, data=[40, 100]),
   midi.NoteOnEvent(tick=0, channel=9, data=[44, 100]),
   midi.NoteOnEvent(tick=0, channel=9, data=[54, 100]),
   midi.NoteOffEvent(tick=120, channel=9, data=[44, 64]),
   midi.NoteOffEvent(tick=0, channel=9, data=[54, 64]),
   midi.NoteOnEvent(tick=0, channel=9, data=[44, 100]),
   midi.NoteOnEvent(tick=0, channel=9, data=[54, 100]),
   midi.NoteOffEvent(tick=120, channel=9, data=[40, 64]),
   midi.NoteOffEvent(tick=0, channel=9, data=[44, 64]),
   midi.NoteOffEvent(tick=0, channel=9, data=[54, 64]),
   midi.NoteOnEvent(tick=0, channel=9, data=[36, 100]),
   midi.NoteOnEvent(tick=0, channel=9, data=[44, 100]),
   midi.NoteOnEvent(tick=0, channel=9, data=[44, 100]),
   midi.NoteOffEvent(tick=120, channel=9, data=[44, 64]),
   midi.NoteOffEvent(tick=0, channel=9, data=[44, 64]),
   midi.NoteOnEvent(tick=0, channel=9, data=[44, 100]),
   midi.NoteOnEvent(tick=0, channel=9, data=[44, 100]),
   midi.NoteOffEvent(tick=120, channel=9, data=[36, 64]),
   midi.NoteOffEvent(tick=0, channel=9, data=[44, 64]),
   midi.NoteOffEvent(tick=0, channel=9, data=[44, 64]),
   midi.NoteOnEvent(tick=0, channel=9, data=[40, 100]),
   midi.NoteOnEvent(tick=0, channel=9, data=[44, 100]),
   midi.NoteOnEvent(tick=0, channel=9, data=[54, 100]),
   midi.NoteOffEvent(tick=120, channel=9, data=[44, 0]),
   midi.NoteOffEvent(tick=0, channel=9, data=[54, 64]),
   midi.NoteOnEvent(tick=0, channel=9, data=[44, 100]),
   midi.NoteOnEvent(tick=0, channel=9, data=[54, 100]),
   midi.NoteOnEvent(tick=117, channel=9, data=[36, 100]),
   midi.NoteOnEvent(tick=0, channel=9, data=[44, 100]),
   midi.NoteOnEvent(tick=0, channel=9, data=[44, 100]),
   midi.NoteOffEvent(tick=3, channel=9, data=[40, 64]),
   midi.NoteOffEvent(tick=0, channel=9, data=[44, 64]),
   midi.NoteOffEvent(tick=0, channel=9, data=[54, 64]),
   midi.NoteOffEvent(tick=0, channel=9, data=[44, 64]),
   midi.NoteOffEvent(tick=0, channel=9, data=[44, 64]),
   midi.NoteOnEvent(tick=117, channel=9, data=[44, 100]),
   midi.NoteOnEvent(tick=0, channel=9, data=[44, 100]),
   midi.NoteOffEvent(tick=120, channel=9, data=[36, 64]),
   midi.NoteOffEvent(tick=0, channel=9, data=[44, 64]),
   midi.NoteOffEvent(tick=0, channel=9, data=[44, 64]),
   midi.NoteOnEvent(tick=0, channel=9, data=[40, 100]),
   midi.NoteOnEvent(tick=0, channel=9, data=[44, 100]),
   midi.NoteOnEvent(tick=0, channel=9, data=[54, 100]),
   midi.NoteOffEvent(tick=120, channel=9, data=[44, 64]),
   midi.NoteOffEvent(tick=0, channel=9, data=[54, 64]),
   midi.NoteOnEvent(tick=0, channel=9, data=[44, 100]),
   midi.NoteOnEvent(tick=0, channel=9, data=[54, 100]),
   midi.NoteOffEvent(tick=120, channel=9, data=[40, 64]),
   midi.NoteOffEvent(tick=0, channel=9, data=[44, 64]),
   midi.NoteOffEvent(tick=0, channel=9, data=[54, 64]),
   midi.NoteOnEvent(tick=0, channel=9, data=[36, 100]),
   midi.NoteOnEvent(tick=0, channel=9, data=[44, 100]),
   midi.NoteOnEvent(tick=0, channel=9, data=[44, 100]),
   midi.NoteOffEvent(tick=120, channel=9, data=[44, 64]),
   midi.NoteOffEvent(tick=0, channel=9, data=[44, 64]),
   midi.NoteOnEvent(tick=0, channel=9, data=[44, 100]),
   midi.NoteOnEvent(tick=0, channel=9, data=[44, 100]),
   midi.NoteOffEvent(tick=120, channel=9, data=[36, 64]),
   midi.NoteOffEvent(tick=0, channel=9, data=[44, 64]),
   midi.NoteOffEvent(tick=0, channel=9, data=[44, 64]),
   midi.NoteOnEvent(tick=0, channel=9, data=[40, 100]),
   midi.NoteOnEvent(tick=0, channel=9, data=[44, 100]),
   midi.NoteOnEvent(tick=0, channel=9, data=[54, 100]),
   midi.NoteOffEvent(tick=120, channel=9, data=[44, 64]),
   midi.NoteOffEvent(tick=0, channel=9, data=[54, 64]),
   midi.NoteOnEvent(tick=0, channel=9, data=[44, 100]),
   midi.NoteOnEvent(tick=0, channel=9, data=[54, 100]),
   midi.NoteOffEvent(tick=120, channel=9, data=[40, 64]),
   midi.NoteOffEvent(tick=0, channel=9, data=[44, 64]),
   midi.NoteOffEvent(tick=0, channel=9, data=[54, 64]),
   midi.NoteOnEvent(tick=0, channel=9, data=[36, 100]),
   midi.NoteOnEvent(tick=0, channel=9, data=[44, 100]),
   midi.NoteOnEvent(tick=0, channel=9, data=[44, 100]),
   midi.NoteOffEvent(tick=120, channel=9, data=[44, 64]),
   midi.NoteOffEvent(tick=0, channel=9, data=[44, 64]),
   midi.NoteOnEvent(tick=0, channel=9, data=[44, 100]),
   midi.NoteOnEvent(tick=0, channel=9, data=[44, 100]),
   midi.NoteOffEvent(tick=120, channel=9, data=[36, 64]),
   midi.NoteOffEvent(tick=0, channel=9, data=[44, 64]),
   midi.NoteOffEvent(tick=0, channel=9, data=[44, 64]),
   midi.NoteOnEvent(tick=0, channel=9, data=[40, 100]),
   midi.NoteOnEvent(tick=0, channel=9, data=[44, 100]),
   midi.NoteOnEvent(tick=0, channel=9, data=[54, 100]),
   midi.NoteOffEvent(tick=120, channel=9, data=[44, 64]),
   midi.NoteOffEvent(tick=0, channel=9, data=[54, 64]),
   midi.NoteOnEvent(tick=0, channel=9, data=[44, 100]),
   midi.NoteOnEvent(tick=0, channel=9, data=[54, 100]),
   midi.NoteOffEvent(tick=120, channel=9, data=[40, 64]),
   midi.NoteOffEvent(tick=0, channel=9, data=[44, 64]),
   midi.NoteOffEvent(tick=0, channel=9, data=[54, 64]),
   midi.NoteOnEvent(tick=0, channel=9, data=[36, 100]),
   midi.NoteOnEvent(tick=0, channel=9, data=[44, 100]),
   midi.NoteOnEvent(tick=0, channel=9, data=[44, 100]),
   midi.NoteOffEvent(tick=120, channel=9, data=[44, 64]),
   midi.NoteOffEvent(tick=0, channel=9, data=[44, 64]),
   midi.NoteOnEvent(tick=0, channel=9, data=[44, 100]),
   midi.NoteOnEvent(tick=0, channel=9, data=[44, 100]),
   midi.NoteOffEvent(tick=120, channel=9, data=[36, 64]),
   midi.NoteOffEvent(tick=0, channel=9, data=[44, 64]),
   midi.NoteOffEvent(tick=0, channel=9, data=[44, 64]),
   midi.NoteOnEvent(tick=0, channel=9, data=[40, 100]),
   midi.NoteOnEvent(tick=0, channel=9, data=[44, 100]),
   midi.NoteOnEvent(tick=0, channel=9, data=[54, 100]),
   midi.NoteOffEvent(tick=120, channel=9, data=[44, 0]),
   midi.NoteOffEvent(tick=0, channel=9, data=[54, 64]),
   midi.NoteOnEvent(tick=0, channel=9, data=[44, 100]),
   midi.NoteOnEvent(tick=0, channel=9, data=[54, 100]),
   midi.NoteOffEvent(tick=120, channel=9, data=[40, 64]),
   midi.NoteOffEvent(tick=0, channel=9, data=[44, 64]),
   midi.NoteOffEvent(tick=0, channel=9, data=[54, 64]),
   midi.NoteOnEvent(tick=3, channel=9, data=[36, 100]),
   midi.NoteOnEvent(tick=0, channel=9, data=[44, 100]),
   midi.NoteOnEvent(tick=0, channel=9, data=[44, 100]),
   midi.NoteOffEvent(tick=120, channel=9, data=[44, 64]),
   midi.NoteOffEvent(tick=0, channel=9, data=[44, 64]),
   midi.NoteOnEvent(tick=0, channel=9, data=[44, 100]),
   midi.NoteOnEvent(tick=0, channel=9, data=[44, 100]),
   midi.NoteOffEvent(tick=120, channel=9, data=[36, 64]),
   midi.NoteOffEvent(tick=0, channel=9, data=[44, 64]),
   midi.NoteOffEvent(tick=0, channel=9, data=[44, 64]),
   midi.NoteOnEvent(tick=0, channel=9, data=[40, 100]),
   midi.NoteOnEvent(tick=0, channel=9, data=[44, 100]),
   midi.NoteOnEvent(tick=0, channel=9, data=[54, 100]),
   midi.NoteOffEvent(tick=120, channel=9, data=[44, 64]),
   midi.NoteOffEvent(tick=0, channel=9, data=[54, 64]),
   midi.NoteOnEvent(tick=0, channel=9, data=[44, 100]),
   midi.NoteOnEvent(tick=0, channel=9, data=[54, 100]),
   midi.NoteOffEvent(tick=120, channel=9, data=[40, 64]),
   midi.NoteOffEvent(tick=0, channel=9, data=[44, 64]),
   midi.NoteOffEvent(tick=0, channel=9, data=[54, 64]),
   midi.NoteOnEvent(tick=0, channel=9, data=[36, 100]),
   midi.NoteOnEvent(tick=0, channel=9, data=[44, 100]),
   midi.NoteOnEvent(tick=0, channel=9, data=[44, 100]),
   midi.NoteOffEvent(tick=120, channel=9, data=[44, 64]),
   midi.NoteOffEvent(tick=0, channel=9, data=[44, 64]),
   midi.NoteOnEvent(tick=0, channel=9, data=[44, 100]),
   midi.NoteOnEvent(tick=0, channel=9, data=[44, 100]),
   midi.NoteOffEvent(tick=120, channel=9, data=[36, 64]),
   midi.NoteOffEvent(tick=0, channel=9, data=[44, 64]),
   midi.NoteOffEvent(tick=0, channel=9, data=[44, 64]),
   midi.NoteOnEvent(tick=0, channel=9, data=[40, 100]),
   midi.NoteOnEvent(tick=0, channel=9, data=[44, 100]),
   midi.NoteOnEvent(tick=0, channel=9, data=[54, 100]),
   midi.NoteOffEvent(tick=120, channel=9, data=[44, 64]),
   midi.NoteOffEvent(tick=0, channel=9, data=[54, 64]),
   midi.NoteOnEvent(tick=0, channel=9, data=[44, 100]),
   midi.NoteOnEvent(tick=0, channel=9, data=[54, 100]),
   midi.NoteOffEvent(tick=120, channel=9, data=[40, 64]),
   midi.NoteOffEvent(tick=0, channel=9, data=[44, 64]),
   midi.NoteOffEvent(tick=0, channel=9, data=[54, 64]),
   midi.NoteOnEvent(tick=0, channel=9, data=[36, 100]),
   midi.NoteOnEvent(tick=0, channel=9, data=[44, 100]),
   midi.NoteOnEvent(tick=0, channel=9, data=[44, 100]),
   midi.NoteOffEvent(tick=120, channel=9, data=[44, 64]),
   midi.NoteOffEvent(tick=0, channel=9, data=[44, 64]),
   midi.NoteOnEvent(tick=0, channel=9, data=[44, 100]),
   midi.NoteOnEvent(tick=0, channel=9, data=[44, 100]),
   midi.NoteOffEvent(tick=120, channel=9, data=[36, 64]),
   midi.NoteOffEvent(tick=0, channel=9, data=[44, 64]),
   midi.NoteOffEvent(tick=0, channel=9, data=[44, 64]),
   midi.NoteOnEvent(tick=0, channel=9, data=[40, 100]),
   midi.NoteOnEvent(tick=0, channel=9, data=[44, 100]),
   midi.NoteOnEvent(tick=0, channel=9, data=[54, 100]),
   midi.NoteOffEvent(tick=120, channel=9, data=[44, 64]),
   midi.NoteOffEvent(tick=0, channel=9, data=[54, 64]),
   midi.NoteOnEvent(tick=0, channel=9, data=[44, 100]),
   midi.NoteOnEvent(tick=0, channel=9, data=[54, 100]),
   midi.NoteOffEvent(tick=120, channel=9, data=[40, 64]),
   midi.NoteOffEvent(tick=0, channel=9, data=[44, 64]),
   midi.NoteOffEvent(tick=0, channel=9, data=[54, 64]),
   midi.NoteOnEvent(tick=0, channel=9, data=[36, 100]),
   midi.NoteOnEvent(tick=0, channel=9, data=[44, 100]),
   midi.NoteOnEvent(tick=0, channel=9, data=[44, 100]),
   midi.NoteOffEvent(tick=120, channel=9, data=[44, 64]),
   midi.NoteOffEvent(tick=0, channel=9, data=[44, 64]),
   midi.NoteOnEvent(tick=0, channel=9, data=[44, 100]),
   midi.NoteOnEvent(tick=0, channel=9, data=[44, 100]),
   midi.NoteOffEvent(tick=120, channel=9, data=[36, 64]),
   midi.NoteOffEvent(tick=0, channel=9, data=[44, 64]),
   midi.NoteOffEvent(tick=0, channel=9, data=[44, 64]),
   midi.NoteOnEvent(tick=0, channel=9, data=[40, 100]),
   midi.NoteOnEvent(tick=0, channel=9, data=[44, 100]),
   midi.NoteOnEvent(tick=0, channel=9, data=[54, 100]),
   midi.NoteOffEvent(tick=120, channel=9, data=[44, 0]),
   midi.NoteOffEvent(tick=0, channel=9, data=[54, 64]),
   midi.NoteOnEvent(tick=0, channel=9, data=[44, 100]),
   midi.NoteOnEvent(tick=0, channel=9, data=[54, 100]),
   midi.NoteOffEvent(tick=120, channel=9, data=[40, 64]),
   midi.NoteOffEvent(tick=0, channel=9, data=[44, 64]),
   midi.NoteOffEvent(tick=0, channel=9, data=[54, 64]),
   midi.NoteOnEvent(tick=0, channel=9, data=[36, 100]),
   midi.NoteOnEvent(tick=0, channel=9, data=[44, 100]),
   midi.NoteOnEvent(tick=0, channel=9, data=[44, 100]),
   midi.NoteOffEvent(tick=120, channel=9, data=[44, 64]),
   midi.NoteOffEvent(tick=0, channel=9, data=[44, 64]),
   midi.NoteOnEvent(tick=0, channel=9, data=[44, 100]),
   midi.NoteOnEvent(tick=0, channel=9, data=[44, 100]),
   midi.NoteOffEvent(tick=120, channel=9, data=[36, 64]),
   midi.NoteOffEvent(tick=0, channel=9, data=[44, 64]),
   midi.NoteOffEvent(tick=0, channel=9, data=[44, 64]),
   midi.NoteOnEvent(tick=0, channel=9, data=[40, 100]),
   midi.NoteOnEvent(tick=0, channel=9, data=[44, 100]),
   midi.NoteOnEvent(tick=0, channel=9, data=[54, 100]),
   midi.NoteOffEvent(tick=120, channel=9, data=[44, 64]),
   midi.NoteOffEvent(tick=0, channel=9, data=[54, 64]),
   midi.NoteOnEvent(tick=0, channel=9, data=[44, 100]),
   midi.NoteOnEvent(tick=0, channel=9, data=[54, 100]),
   midi.NoteOffEvent(tick=120, channel=9, data=[40, 64]),
   midi.NoteOffEvent(tick=0, channel=9, data=[44, 64]),
   midi.NoteOffEvent(tick=0, channel=9, data=[54, 64]),
   midi.NoteOnEvent(tick=0, channel=9, data=[36, 100]),
   midi.NoteOnEvent(tick=0, channel=9, data=[44, 100]),
   midi.NoteOnEvent(tick=0, channel=9, data=[44, 100]),
   midi.NoteOffEvent(tick=120, channel=9, data=[44, 64]),
   midi.NoteOffEvent(tick=0, channel=9, data=[44, 64]),
   midi.NoteOnEvent(tick=0, channel=9, data=[44, 100]),
   midi.NoteOnEvent(tick=0, channel=9, data=[44, 100]),
   midi.NoteOffEvent(tick=120, channel=9, data=[36, 64]),
   midi.NoteOffEvent(tick=0, channel=9, data=[44, 64]),
   midi.NoteOffEvent(tick=0, channel=9, data=[44, 64]),
   midi.NoteOnEvent(tick=0, channel=9, data=[40, 100]),
   midi.NoteOnEvent(tick=0, channel=9, data=[44, 100]),
   midi.NoteOnEvent(tick=0, channel=9, data=[54, 100]),
   midi.NoteOffEvent(tick=120, channel=9, data=[44, 64]),
   midi.NoteOffEvent(tick=0, channel=9, data=[54, 64]),
   midi.NoteOnEvent(tick=0, channel=9, data=[44, 100]),
   midi.NoteOnEvent(tick=0, channel=9, data=[54, 100]),
   midi.NoteOffEvent(tick=120, channel=9, data=[40, 64]),
   midi.NoteOffEvent(tick=0, channel=9, data=[44, 64]),
   midi.NoteOffEvent(tick=0, channel=9, data=[54, 64]),
   midi.NoteOnEvent(tick=0, channel=9, data=[36, 100]),
   midi.NoteOnEvent(tick=0, channel=9, data=[44, 100]),
   midi.NoteOnEvent(tick=0, channel=9, data=[44, 100]),
   midi.NoteOffEvent(tick=120, channel=9, data=[44, 64]),
   midi.NoteOffEvent(tick=0, channel=9, data=[44, 64]),
   midi.NoteOnEvent(tick=0, channel=9, data=[44, 100]),
   midi.NoteOnEvent(tick=0, channel=9, data=[44, 100]),
   midi.NoteOffEvent(tick=120, channel=9, data=[36, 64]),
   midi.NoteOffEvent(tick=0, channel=9, data=[44, 64]),
   midi.NoteOffEvent(tick=0, channel=9, data=[44, 64]),
   midi.NoteOnEvent(tick=0, channel=9, data=[40, 100]),
   midi.NoteOnEvent(tick=0, channel=9, data=[44, 100]),
   midi.NoteOnEvent(tick=0, channel=9, data=[54, 100]),
   midi.NoteOffEvent(tick=120, channel=9, data=[44, 64]),
   midi.NoteOffEvent(tick=0, channel=9, data=[54, 64]),
   midi.NoteOnEvent(tick=0, channel=9, data=[44, 100]),
   midi.NoteOnEvent(tick=0, channel=9, data=[54, 100]),
   midi.NoteOffEvent(tick=120, channel=9, data=[40, 64]),
   midi.NoteOffEvent(tick=0, channel=9, data=[44, 64]),
   midi.NoteOffEvent(tick=0, channel=9, data=[54, 64]),
   midi.NoteOnEvent(tick=0, channel=9, data=[36, 100]),
   midi.NoteOnEvent(tick=0, channel=9, data=[44, 100]),
   midi.NoteOnEvent(tick=0, channel=9, data=[44, 100]),
   midi.NoteOffEvent(tick=120, channel=9, data=[44, 64]),
   midi.NoteOffEvent(tick=0, channel=9, data=[44, 64]),
   midi.NoteOnEvent(tick=0, channel=9, data=[44, 100]),
   midi.NoteOnEvent(tick=0, channel=9, data=[44, 100]),
   midi.NoteOffEvent(tick=120, channel=9, data=[36, 64]),
   midi.NoteOffEvent(tick=0, channel=9, data=[44, 64]),
   midi.NoteOffEvent(tick=0, channel=9, data=[44, 64]),
   midi.NoteOnEvent(tick=0, channel=9, data=[40, 100]),
   midi.NoteOnEvent(tick=0, channel=9, data=[44, 100]),
   midi.NoteOnEvent(tick=0, channel=9, data=[54, 100]),
   midi.NoteOffEvent(tick=120, channel=9, data=[44, 0]),
   midi.NoteOffEvent(tick=0, channel=9, data=[54, 64]),
   midi.NoteOnEvent(tick=0, channel=9, data=[44, 100]),
   midi.NoteOnEvent(tick=0, channel=9, data=[54, 100]),
   midi.NoteOffEvent(tick=120, channel=9, data=[40, 64]),
   midi.NoteOffEvent(tick=0, channel=9, data=[44, 64]),
   midi.NoteOffEvent(tick=0, channel=9, data=[54, 64]),
   midi.NoteOnEvent(tick=0, channel=9, data=[36, 100]),
   midi.NoteOnEvent(tick=0, channel=9, data=[44, 100]),
   midi.NoteOffEvent(tick=120, channel=9, data=[44, 64]),
   midi.NoteOnEvent(tick=0, channel=9, data=[44, 100]),
   midi.NoteOffEvent(tick=120, channel=9, data=[36, 64]),
   midi.NoteOffEvent(tick=0, channel=9, data=[44, 64]),
   midi.NoteOnEvent(tick=0, channel=9, data=[40, 100]),
   midi.NoteOnEvent(tick=0, channel=9, data=[44, 100]),
   midi.NoteOffEvent(tick=120, channel=9, data=[44, 64]),
   midi.NoteOnEvent(tick=0, channel=9, data=[44, 100]),
   midi.NoteOffEvent(tick=120, channel=9, data=[40, 64]),
   midi.NoteOffEvent(tick=0, channel=9, data=[44, 64]),
   midi.NoteOnEvent(tick=0, channel=9, data=[36, 100]),
   midi.NoteOnEvent(tick=0, channel=9, data=[44, 100]),
   midi.NoteOffEvent(tick=120, channel=9, data=[44, 64]),
   midi.NoteOnEvent(tick=0, channel=9, data=[44, 100]),
   midi.NoteOffEvent(tick=120, channel=9, data=[36, 64]),
   midi.NoteOffEvent(tick=0, channel=9, data=[44, 64]),
   midi.NoteOnEvent(tick=0, channel=9, data=[40, 100]),
   midi.NoteOnEvent(tick=0, channel=9, data=[44, 100]),
   midi.NoteOffEvent(tick=120, channel=9, data=[44, 64]),
   midi.NoteOnEvent(tick=0, channel=9, data=[44, 100]),
   midi.NoteOffEvent(tick=120, channel=9, data=[40, 64]),
   midi.NoteOffEvent(tick=0, channel=9, data=[44, 64]),
   midi.NoteOnEvent(tick=0, channel=9, data=[36, 100]),
   midi.NoteOnEvent(tick=0, channel=9, data=[44, 100]),
   midi.NoteOffEvent(tick=120, channel=9, data=[44, 64]),
   midi.NoteOnEvent(tick=0, channel=9, data=[44, 100]),
   midi.NoteOffEvent(tick=120, channel=9, data=[36, 64]),
   midi.NoteOffEvent(tick=0, channel=9, data=[44, 64]),
   midi.NoteOnEvent(tick=0, channel=9, data=[40, 100]),
   midi.NoteOnEvent(tick=0, channel=9, data=[44, 100]),
   midi.NoteOffEvent(tick=120, channel=9, data=[44, 64]),
   midi.NoteOnEvent(tick=0, channel=9, data=[44, 100]),
   midi.NoteOffEvent(tick=120, channel=9, data=[40, 64]),
   midi.NoteOffEvent(tick=0, channel=9, data=[44, 64]),
   midi.NoteOnEvent(tick=0, channel=9, data=[36, 100]),
   midi.NoteOnEvent(tick=0, channel=9, data=[44, 100]),
   midi.NoteOffEvent(tick=120, channel=9, data=[36, 64]),
   midi.NoteOffEvent(tick=0, channel=9, data=[44, 64]),
   midi.NoteOnEvent(tick=0, channel=9, data=[36, 100]),
   midi.NoteOnEvent(tick=0, channel=9, data=[44, 100]),
   midi.NoteOffEvent(tick=120, channel=9, data=[36, 64]),
   midi.NoteOffEvent(tick=0, channel=9, data=[44, 64]),
   midi.NoteOnEvent(tick=0, channel=9, data=[40, 100]),
   midi.NoteOnEvent(tick=0, channel=9, data=[44, 100]),
   midi.NoteOffEvent(tick=120, channel=9, data=[44, 64]),
   midi.NoteOnEvent(tick=0, channel=9, data=[44, 100]),
   midi.NoteOffEvent(tick=120, channel=9, data=[40, 64]),
   midi.NoteOffEvent(tick=0, channel=9, data=[44, 64]),
   midi.NoteOnEvent(tick=0, channel=9, data=[44, 100]),
   midi.NoteOnEvent(tick=0, channel=9, data=[36, 100]),
   midi.NoteOffEvent(tick=120, channel=9, data=[44, 64]),
   midi.NoteOnEvent(tick=0, channel=9, data=[44, 100]),
   midi.NoteOffEvent(tick=120, channel=9, data=[36, 64]),
   midi.NoteOffEvent(tick=0, channel=9, data=[44, 64]),
   midi.NoteOnEvent(tick=0, channel=9, data=[44, 100]),
   midi.NoteOnEvent(tick=0, channel=9, data=[40, 100]),
   midi.NoteOffEvent(tick=120, channel=9, data=[44, 64]),
   midi.NoteOnEvent(tick=0, channel=9, data=[44, 100]),
   midi.NoteOffEvent(tick=120, channel=9, data=[40, 64]),
   midi.NoteOffEvent(tick=0, channel=9, data=[44, 64]),
   midi.NoteOnEvent(tick=0, channel=9, data=[44, 100]),
   midi.NoteOnEvent(tick=0, channel=9, data=[36, 100]),
   midi.NoteOffEvent(tick=120, channel=9, data=[44, 64]),
   midi.NoteOnEvent(tick=0, channel=9, data=[44, 100]),
   midi.NoteOffEvent(tick=120, channel=9, data=[36, 64]),
   midi.NoteOffEvent(tick=0, channel=9, data=[44, 64]),
   midi.NoteOnEvent(tick=0, channel=9, data=[44, 100]),
   midi.NoteOnEvent(tick=0, channel=9, data=[40, 100]),
   midi.NoteOffEvent(tick=120, channel=9, data=[44, 64]),
   midi.NoteOnEvent(tick=0, channel=9, data=[44, 100]),
   midi.NoteOffEvent(tick=120, channel=9, data=[40, 64]),
   midi.NoteOffEvent(tick=0, channel=9, data=[44, 64]),
   midi.NoteOnEvent(tick=0, channel=9, data=[44, 100]),
   midi.NoteOnEvent(tick=0, channel=9, data=[36, 100]),
   midi.NoteOffEvent(tick=120, channel=9, data=[44, 64]),
   midi.NoteOnEvent(tick=0, channel=9, data=[44, 100]),
   midi.NoteOffEvent(tick=120, channel=9, data=[36, 64]),
   midi.NoteOffEvent(tick=0, channel=9, data=[44, 64]),
   midi.NoteOnEvent(tick=0, channel=9, data=[44, 100]),
   midi.NoteOnEvent(tick=0, channel=9, data=[40, 100]),
   midi.NoteOffEvent(tick=120, channel=9, data=[44, 64]),
   midi.NoteOnEvent(tick=0, channel=9, data=[44, 100]),
   midi.NoteOffEvent(tick=120, channel=9, data=[40, 64]),
   midi.NoteOffEvent(tick=0, channel=9, data=[44, 64]),
   midi.NoteOnEvent(tick=0, channel=9, data=[44, 100]),
   midi.NoteOnEvent(tick=0, channel=9, data=[36, 100]),
   midi.NoteOffEvent(tick=120, channel=9, data=[44, 64]),
   midi.NoteOffEvent(tick=0, channel=9, data=[36, 64]),
   midi.NoteOnEvent(tick=0, channel=9, data=[44, 100]),
   midi.NoteOnEvent(tick=0, channel=9, data=[36, 100]),
   midi.NoteOffEvent(tick=120, channel=9, data=[44, 64]),
   midi.NoteOffEvent(tick=0, channel=9, data=[36, 64]),
   midi.NoteOnEvent(tick=0, channel=9, data=[44, 100]),
   midi.NoteOnEvent(tick=0, channel=9, data=[40, 100]),
   midi.NoteOffEvent(tick=60, channel=9, data=[40, 64]),
   midi.NoteOnEvent(tick=0, channel=9, data=[40, 100]),
   midi.NoteOffEvent(tick=60, channel=9, data=[44, 64]),
   midi.NoteOffEvent(tick=0, channel=9, data=[40, 64]),
   midi.NoteOnEvent(tick=0, channel=9, data=[44, 100]),
   midi.NoteOnEvent(tick=0, channel=9, data=[36, 100]),
   midi.NoteOffEvent(tick=120, channel=9, data=[44, 64]),
   midi.NoteOffEvent(tick=0, channel=9, data=[36, 64]),
   midi.NoteOnEvent(tick=0, channel=9, data=[36, 100]),
   midi.NoteOnEvent(tick=0, channel=9, data=[44, 100]),
   midi.NoteOffEvent(tick=120, channel=9, data=[44, 64]),
   midi.NoteOnEvent(tick=0, channel=9, data=[44, 100]),
   midi.NoteOffEvent(tick=120, channel=9, data=[36, 64]),
   midi.NoteOffEvent(tick=0, channel=9, data=[44, 64]),
   midi.NoteOnEvent(tick=0, channel=9, data=[40, 100]),
   midi.NoteOnEvent(tick=0, channel=9, data=[44, 100]),
   midi.NoteOffEvent(tick=120, channel=9, data=[44, 64]),
   midi.NoteOnEvent(tick=0, channel=9, data=[44, 100]),
   midi.NoteOffEvent(tick=120, channel=9, data=[40, 64]),
   midi.NoteOffEvent(tick=0, channel=9, data=[44, 64]),
   midi.NoteOnEvent(tick=0, channel=9, data=[36, 100]),
   midi.NoteOnEvent(tick=0, channel=9, data=[44, 100]),
   midi.NoteOffEvent(tick=120, channel=9, data=[44, 64]),
   midi.NoteOnEvent(tick=0, channel=9, data=[44, 100]),
   midi.NoteOffEvent(tick=120, channel=9, data=[36, 64]),
   midi.NoteOffEvent(tick=0, channel=9, data=[44, 64]),
   midi.NoteOnEvent(tick=0, channel=9, data=[40, 100]),
   midi.NoteOnEvent(tick=0, channel=9, data=[44, 100]),
   midi.NoteOffEvent(tick=120, channel=9, data=[44, 64]),
   midi.NoteOnEvent(tick=0, channel=9, data=[44, 100]),
   midi.NoteOffEvent(tick=120, channel=9, data=[40, 64]),
   midi.NoteOffEvent(tick=0, channel=9, data=[44, 64]),
   midi.NoteOnEvent(tick=0, channel=9, data=[36, 100]),
   midi.NoteOnEvent(tick=0, channel=9, data=[44, 100]),
   midi.NoteOffEvent(tick=120, channel=9, data=[44, 64]),
   midi.NoteOnEvent(tick=0, channel=9, data=[44, 100]),
   midi.NoteOffEvent(tick=120, channel=9, data=[36, 64]),
   midi.NoteOffEvent(tick=0, channel=9, data=[44, 64]),
   midi.NoteOnEvent(tick=0, channel=9, data=[40, 100]),
   midi.NoteOnEvent(tick=0, channel=9, data=[44, 100]),
   midi.NoteOffEvent(tick=120, channel=9, data=[44, 64]),
   midi.NoteOnEvent(tick=0, channel=9, data=[44, 100]),
   midi.NoteOffEvent(tick=120, channel=9, data=[40, 64]),
   midi.NoteOffEvent(tick=0, channel=9, data=[44, 64]),
   midi.NoteOnEvent(tick=0, channel=9, data=[36, 100]),
   midi.NoteOnEvent(tick=0, channel=9, data=[44, 100]),
   midi.NoteOffEvent(tick=120, channel=9, data=[36, 64]),
   midi.NoteOffEvent(tick=0, channel=9, data=[44, 64]),
   midi.NoteOnEvent(tick=0, channel=9, data=[36, 100]),
   midi.NoteOnEvent(tick=0, channel=9, data=[44, 100]),
   midi.NoteOffEvent(tick=120, channel=9, data=[36, 64]),
   midi.NoteOffEvent(tick=0, channel=9, data=[44, 64]),
   midi.NoteOnEvent(tick=0, channel=9, data=[40, 100]),
   midi.NoteOnEvent(tick=0, channel=9, data=[44, 100]),
   midi.NoteOffEvent(tick=60, channel=9, data=[40, 64]),
   midi.NoteOnEvent(tick=0, channel=9, data=[40, 100]),
   midi.NoteOffEvent(tick=60, channel=9, data=[44, 64]),
   midi.NoteOffEvent(tick=0, channel=9, data=[40, 64]),
   midi.NoteOnEvent(tick=0, channel=9, data=[36, 100]),
   midi.NoteOnEvent(tick=0, channel=9, data=[44, 100]),
   midi.NoteOffEvent(tick=120, channel=9, data=[36, 64]),
   midi.NoteOffEvent(tick=0, channel=9, data=[44, 64]),
   midi.NoteOnEvent(tick=0, channel=9, data=[36, 100]),
   midi.NoteOnEvent(tick=0, channel=9, data=[44, 100]),
   midi.NoteOffEvent(tick=120, channel=9, data=[44, 64]),
   midi.NoteOnEvent(tick=0, channel=9, data=[44, 100]),
   midi.NoteOffEvent(tick=120, channel=9, data=[36, 64]),
   midi.NoteOffEvent(tick=0, channel=9, data=[44, 64]),
   midi.NoteOnEvent(tick=0, channel=9, data=[40, 100]),
   midi.NoteOnEvent(tick=0, channel=9, data=[44, 100]),
   midi.NoteOffEvent(tick=120, channel=9, data=[44, 64]),
   midi.NoteOnEvent(tick=0, channel=9, data=[44, 100]),
   midi.NoteOffEvent(tick=120, channel=9, data=[40, 64]),
   midi.NoteOffEvent(tick=0, channel=9, data=[44, 64]),
   midi.NoteOnEvent(tick=0, channel=9, data=[36, 100]),
   midi.NoteOnEvent(tick=0, channel=9, data=[44, 100]),
   midi.NoteOffEvent(tick=120, channel=9, data=[44, 64]),
   midi.NoteOnEvent(tick=0, channel=9, data=[44, 100]),
   midi.NoteOffEvent(tick=120, channel=9, data=[36, 64]),
   midi.NoteOffEvent(tick=0, channel=9, data=[44, 64]),
   midi.NoteOnEvent(tick=0, channel=9, data=[40, 100]),
   midi.NoteOnEvent(tick=0, channel=9, data=[44, 100]),
   midi.NoteOffEvent(tick=120, channel=9, data=[44, 64]),
   midi.NoteOnEvent(tick=0, channel=9, data=[44, 100]),
   midi.NoteOffEvent(tick=120, channel=9, data=[40, 64]),
   midi.NoteOffEvent(tick=0, channel=9, data=[44, 64]),
   midi.NoteOnEvent(tick=0, channel=9, data=[36, 100]),
   midi.NoteOnEvent(tick=0, channel=9, data=[44, 100]),
   midi.NoteOffEvent(tick=120, channel=9, data=[44, 64]),
   midi.NoteOnEvent(tick=0, channel=9, data=[44, 100]),
   midi.NoteOffEvent(tick=120, channel=9, data=[36, 64]),
   midi.NoteOffEvent(tick=0, channel=9, data=[44, 64]),
   midi.NoteOnEvent(tick=0, channel=9, data=[40, 100]),
   midi.NoteOnEvent(tick=0, channel=9, data=[44, 100]),
   midi.NoteOffEvent(tick=120, channel=9, data=[44, 64]),
   midi.NoteOnEvent(tick=0, channel=9, data=[44, 100]),
   midi.NoteOffEvent(tick=120, channel=9, data=[40, 64]),
   midi.NoteOffEvent(tick=0, channel=9, data=[44, 64]),
   midi.NoteOnEvent(tick=0, channel=9, data=[36, 100]),
   midi.NoteOnEvent(tick=0, channel=9, data=[44, 100]),
   midi.NoteOffEvent(tick=120, channel=9, data=[36, 64]),
   midi.NoteOffEvent(tick=0, channel=9, data=[44, 64]),
   midi.NoteOnEvent(tick=0, channel=9, data=[36, 100]),
   midi.NoteOnEvent(tick=0, channel=9, data=[44, 100]),
   midi.NoteOffEvent(tick=120, channel=9, data=[36, 64]),
   midi.NoteOffEvent(tick=0, channel=9, data=[44, 64]),
   midi.NoteOnEvent(tick=0, channel=9, data=[40, 100]),
   midi.NoteOnEvent(tick=0, channel=9, data=[44, 100]),
   midi.NoteOffEvent(tick=60, channel=9, data=[40, 64]),
   midi.NoteOnEvent(tick=0, channel=9, data=[40, 100]),
   midi.NoteOffEvent(tick=60, channel=9, data=[44, 64]),
   midi.NoteOffEvent(tick=0, channel=9, data=[40, 64]),
   midi.NoteOnEvent(tick=0, channel=9, data=[36, 100]),
   midi.NoteOnEvent(tick=0, channel=9, data=[44, 100]),
   midi.NoteOffEvent(tick=120, channel=9, data=[36, 64]),
   midi.NoteOffEvent(tick=0, channel=9, data=[44, 64]),
   midi.NoteOnEvent(tick=0, channel=9, data=[42, 100]),
   midi.NoteOffEvent(tick=60, channel=9, data=[42, 64]),
   midi.NoteOnEvent(tick=0, channel=9, data=[44, 100]),
   midi.NoteOffEvent(tick=60, channel=9, data=[44, 64]),
   midi.NoteOnEvent(tick=0, channel=9, data=[42, 100]),
   midi.NoteOffEvent(tick=60, channel=9, data=[42, 64]),
   midi.NoteOnEvent(tick=0, channel=9, data=[44, 100]),
   midi.NoteOffEvent(tick=60, channel=9, data=[44, 64]),
   midi.NoteOnEvent(tick=0, channel=9, data=[42, 100]),
   midi.NoteOffEvent(tick=60, channel=9, data=[42, 64]),
   midi.NoteOnEvent(tick=0, channel=9, data=[44, 100]),
   midi.NoteOffEvent(tick=60, channel=9, data=[44, 64]),
   midi.NoteOnEvent(tick=0, channel=9, data=[42, 100]),
   midi.NoteOffEvent(tick=60, channel=9, data=[42, 64]),
   midi.NoteOnEvent(tick=0, channel=9, data=[44, 100]),
   midi.NoteOffEvent(tick=60, channel=9, data=[44, 64]),
   midi.NoteOnEvent(tick=0, channel=9, data=[42, 100]),
   midi.NoteOffEvent(tick=60, channel=9, data=[42, 64]),
   midi.NoteOnEvent(tick=0, channel=9, data=[44, 100]),
   midi.NoteOffEvent(tick=60, channel=9, data=[44, 64]),
   midi.NoteOnEvent(tick=0, channel=9, data=[42, 100]),
   midi.NoteOffEvent(tick=60, channel=9, data=[42, 64]),
   midi.NoteOnEvent(tick=0, channel=9, data=[44, 100]),
   midi.NoteOffEvent(tick=60, channel=9, data=[44, 64]),
   midi.NoteOnEvent(tick=0, channel=9, data=[42, 100]),
   midi.NoteOnEvent(tick=0, channel=9, data=[40, 100]),
   midi.NoteOffEvent(tick=60, channel=9, data=[42, 64]),
   midi.NoteOnEvent(tick=0, channel=9, data=[44, 100]),
   midi.NoteOffEvent(tick=60, channel=9, data=[44, 64]),
   midi.NoteOnEvent(tick=0, channel=9, data=[42, 100]),
   midi.NoteOffEvent(tick=60, channel=9, data=[42, 64]),
   midi.NoteOnEvent(tick=0, channel=9, data=[44, 100]),
   midi.NoteOffEvent(tick=60, channel=9, data=[40, 64]),
   midi.NoteOffEvent(tick=0, channel=9, data=[44, 64]),
   midi.NoteOnEvent(tick=0, channel=9, data=[42, 100]),
   midi.NoteOffEvent(tick=60, channel=9, data=[42, 64]),
   midi.NoteOnEvent(tick=0, channel=9, data=[44, 100]),
   midi.NoteOffEvent(tick=60, channel=9, data=[44, 64]),
   midi.NoteOnEvent(tick=0, channel=9, data=[42, 100]),
   midi.NoteOffEvent(tick=60, channel=9, data=[42, 64]),
   midi.NoteOnEvent(tick=0, channel=9, data=[44, 100]),
   midi.NoteOffEvent(tick=60, channel=9, data=[44, 64]),
   midi.NoteOnEvent(tick=0, channel=9, data=[42, 100]),
   midi.NoteOnEvent(tick=0, channel=9, data=[40, 100]),
   midi.NoteOffEvent(tick=60, channel=9, data=[42, 64]),
   midi.NoteOnEvent(tick=0, channel=9, data=[44, 100]),
   midi.NoteOffEvent(tick=60, channel=9, data=[44, 64]),
   midi.NoteOnEvent(tick=0, channel=9, data=[42, 100]),
   midi.NoteOffEvent(tick=60, channel=9, data=[42, 64]),
   midi.NoteOnEvent(tick=0, channel=9, data=[44, 100]),
   midi.NoteOffEvent(tick=60, channel=9, data=[40, 64]),
   midi.NoteOffEvent(tick=0, channel=9, data=[44, 64]),
   midi.NoteOnEvent(tick=0, channel=9, data=[42, 100]),
   midi.NoteOffEvent(tick=60, channel=9, data=[42, 64]),
   midi.NoteOnEvent(tick=0, channel=9, data=[44, 100]),
   midi.NoteOffEvent(tick=60, channel=9, data=[44, 64]),
   midi.NoteOnEvent(tick=0, channel=9, data=[42, 100]),
   midi.NoteOffEvent(tick=60, channel=9, data=[42, 64]),
   midi.NoteOnEvent(tick=0, channel=9, data=[44, 100]),
   midi.NoteOffEvent(tick=60, channel=9, data=[44, 64]),
   midi.NoteOnEvent(tick=0, channel=9, data=[42, 100]),
   midi.NoteOnEvent(tick=0, channel=9, data=[40, 100]),
   midi.NoteOffEvent(tick=60, channel=9, data=[42, 64]),
   midi.NoteOnEvent(tick=0, channel=9, data=[44, 100]),
   midi.NoteOffEvent(tick=60, channel=9, data=[44, 64]),
   midi.NoteOnEvent(tick=0, channel=9, data=[42, 100]),
   midi.NoteOffEvent(tick=60, channel=9, data=[42, 64]),
   midi.NoteOnEvent(tick=0, channel=9, data=[44, 100]),
   midi.NoteOffEvent(tick=60, channel=9, data=[40, 64]),
   midi.NoteOffEvent(tick=0, channel=9, data=[44, 64]),
   midi.NoteOnEvent(tick=0, channel=9, data=[42, 100]),
   midi.NoteOffEvent(tick=60, channel=9, data=[42, 64]),
   midi.NoteOnEvent(tick=0, channel=9, data=[44, 100]),
   midi.NoteOffEvent(tick=60, channel=9, data=[44, 64]),
   midi.NoteOnEvent(tick=0, channel=9, data=[42, 100]),
   midi.NoteOffEvent(tick=60, channel=9, data=[42, 64]),
   midi.NoteOnEvent(tick=0, channel=9, data=[44, 100]),
   midi.NoteOffEvent(tick=60, channel=9, data=[44, 64]),
   midi.NoteOnEvent(tick=0, channel=9, data=[42, 100]),
   midi.NoteOnEvent(tick=0, channel=9, data=[40, 127]),
   midi.NoteOffEvent(tick=60, channel=9, data=[42, 64]),
   midi.NoteOnEvent(tick=0, channel=9, data=[44, 100]),
   midi.NoteOffEvent(tick=60, channel=9, data=[44, 64]),
   midi.NoteOnEvent(tick=0, channel=9, data=[42, 100]),
   midi.NoteOffEvent(tick=60, channel=9, data=[42, 64]),
   midi.NoteOnEvent(tick=0, channel=9, data=[44, 100]),
   midi.NoteOffEvent(tick=60, channel=9, data=[40, 64]),
   midi.NoteOffEvent(tick=0, channel=9, data=[44, 64]),
   midi.NoteOnEvent(tick=0, channel=9, data=[42, 100]),
   midi.NoteOffEvent(tick=60, channel=9, data=[42, 64]),
   midi.NoteOnEvent(tick=0, channel=9, data=[44, 100]),
   midi.NoteOffEvent(tick=60, channel=9, data=[44, 64]),
   midi.NoteOnEvent(tick=0, channel=9, data=[42, 100]),
   midi.NoteOffEvent(tick=60, channel=9, data=[42, 64]),
   midi.NoteOnEvent(tick=0, channel=9, data=[44, 100]),
   midi.NoteOffEvent(tick=60, channel=9, data=[44, 64]),
   midi.NoteOnEvent(tick=0, channel=9, data=[42, 100]),
   midi.NoteOnEvent(tick=0, channel=9, data=[40, 127]),
   midi.NoteOffEvent(tick=60, channel=9, data=[42, 64]),
   midi.NoteOnEvent(tick=0, channel=9, data=[44, 100]),
   midi.NoteOnEvent(tick=0, channel=9, data=[44, 100]),
   midi.NoteOffEvent(tick=60, channel=9, data=[44, 0]),
   midi.NoteOffEvent(tick=0, channel=9, data=[44, 0]),
   midi.NoteOnEvent(tick=0, channel=9, data=[42, 100]),
   midi.NoteOffEvent(tick=60, channel=9, data=[42, 64]),
   midi.NoteOnEvent(tick=0, channel=9, data=[44, 100]),
   midi.NoteOnEvent(tick=0, channel=9, data=[44, 100]),
   midi.NoteOffEvent(tick=60, channel=9, data=[40, 64]),
   midi.NoteOffEvent(tick=0, channel=9, data=[44, 0]),
   midi.NoteOffEvent(tick=0, channel=9, data=[44, 0]),
   midi.NoteOnEvent(tick=0, channel=9, data=[42, 100]),
   midi.NoteOffEvent(tick=60, channel=9, data=[42, 64]),
   midi.NoteOnEvent(tick=0, channel=9, data=[44, 100]),
   midi.NoteOnEvent(tick=0, channel=9, data=[44, 100]),
   midi.NoteOffEvent(tick=60, channel=9, data=[44, 0]),
   midi.NoteOffEvent(tick=0, channel=9, data=[44, 0]),
   midi.NoteOnEvent(tick=0, channel=9, data=[42, 100]),
   midi.NoteOffEvent(tick=60, channel=9, data=[42, 64]),
   midi.NoteOnEvent(tick=0, channel=9, data=[44, 100]),
   midi.NoteOffEvent(tick=60, channel=9, data=[44, 64]),
   midi.NoteOnEvent(tick=0, channel=9, data=[42, 100]),
   midi.NoteOnEvent(tick=0, channel=9, data=[40, 127]),
   midi.NoteOffEvent(tick=60, channel=9, data=[42, 64]),
   midi.NoteOnEvent(tick=0, channel=9, data=[44, 100]),
   midi.NoteOffEvent(tick=60, channel=9, data=[44, 64]),
   midi.NoteOnEvent(tick=0, channel=9, data=[42, 100]),
   midi.NoteOffEvent(tick=60, channel=9, data=[42, 64]),
   midi.NoteOnEvent(tick=0, channel=9, data=[44, 100]),
   midi.NoteOffEvent(tick=60, channel=9, data=[40, 64]),
   midi.NoteOffEvent(tick=0, channel=9, data=[44, 64]),
   midi.NoteOnEvent(tick=0, channel=9, data=[42, 100]),
   midi.NoteOffEvent(tick=60, channel=9, data=[42, 64]),
   midi.NoteOnEvent(tick=0, channel=9, data=[44, 100]),
   midi.NoteOffEvent(tick=60, channel=9, data=[44, 64]),
   midi.NoteOnEvent(tick=0, channel=9, data=[42, 100]),
   midi.NoteOffEvent(tick=60, channel=9, data=[42, 64]),
   midi.NoteOnEvent(tick=0, channel=9, data=[44, 100]),
   midi.NoteOffEvent(tick=60, channel=9, data=[44, 64]),
   midi.NoteOnEvent(tick=0, channel=9, data=[42, 100]),
   midi.NoteOnEvent(tick=0, channel=9, data=[40, 127]),
   midi.NoteOffEvent(tick=60, channel=9, data=[42, 64]),
   midi.NoteOnEvent(tick=0, channel=9, data=[44, 100]),
   midi.NoteOffEvent(tick=60, channel=9, data=[44, 64]),
   midi.NoteOnEvent(tick=0, channel=9, data=[42, 100]),
   midi.NoteOffEvent(tick=60, channel=9, data=[42, 64]),
   midi.NoteOnEvent(tick=0, channel=9, data=[44, 100]),
   midi.NoteOffEvent(tick=60, channel=9, data=[40, 64]),
   midi.NoteOffEvent(tick=0, channel=9, data=[44, 64]),
   midi.NoteOnEvent(tick=0, channel=9, data=[42, 100]),
   midi.NoteOffEvent(tick=60, channel=9, data=[42, 64]),
   midi.NoteOnEvent(tick=0, channel=9, data=[44, 100]),
   midi.NoteOffEvent(tick=60, channel=9, data=[44, 64]),
   midi.NoteOnEvent(tick=0, channel=9, data=[42, 100]),
   midi.NoteOffEvent(tick=60, channel=9, data=[42, 64]),
   midi.NoteOnEvent(tick=0, channel=9, data=[44, 100]),
   midi.NoteOffEvent(tick=60, channel=9, data=[44, 64]),
   midi.NoteOnEvent(tick=0, channel=9, data=[42, 100]),
   midi.NoteOnEvent(tick=0, channel=9, data=[40, 127]),
   midi.NoteOffEvent(tick=60, channel=9, data=[42, 64]),
   midi.NoteOnEvent(tick=0, channel=9, data=[44, 100]),
   midi.NoteOffEvent(tick=60, channel=9, data=[44, 64]),
   midi.NoteOnEvent(tick=0, channel=9, data=[42, 100]),
   midi.NoteOffEvent(tick=60, channel=9, data=[42, 64]),
   midi.NoteOnEvent(tick=0, channel=9, data=[44, 100]),
   midi.NoteOffEvent(tick=60, channel=9, data=[40, 64]),
   midi.NoteOffEvent(tick=0, channel=9, data=[44, 64]),
   midi.NoteOnEvent(tick=0, channel=9, data=[42, 100]),
   midi.NoteOffEvent(tick=60, channel=9, data=[42, 64]),
   midi.NoteOnEvent(tick=0, channel=9, data=[44, 100]),
   midi.NoteOffEvent(tick=60, channel=9, data=[44, 64]),
   midi.NoteOnEvent(tick=0, channel=9, data=[42, 100]),
   midi.NoteOffEvent(tick=60, channel=9, data=[42, 64]),
   midi.NoteOnEvent(tick=0, channel=9, data=[44, 100]),
   midi.NoteOffEvent(tick=60, channel=9, data=[44, 64]),
   midi.NoteOnEvent(tick=0, channel=9, data=[42, 100]),
   midi.NoteOnEvent(tick=0, channel=9, data=[40, 127]),
   midi.NoteOffEvent(tick=60, channel=9, data=[42, 64]),
   midi.NoteOnEvent(tick=0, channel=9, data=[44, 100]),
   midi.NoteOffEvent(tick=60, channel=9, data=[44, 64]),
   midi.NoteOnEvent(tick=0, channel=9, data=[42, 100]),
   midi.NoteOffEvent(tick=60, channel=9, data=[42, 64]),
   midi.NoteOnEvent(tick=0, channel=9, data=[44, 100]),
   midi.NoteOffEvent(tick=60, channel=9, data=[40, 64]),
   midi.NoteOffEvent(tick=0, channel=9, data=[44, 64]),
   midi.NoteOnEvent(tick=0, channel=9, data=[42, 100]),
   midi.NoteOffEvent(tick=60, channel=9, data=[42, 64]),
   midi.NoteOnEvent(tick=0, channel=9, data=[44, 100]),
   midi.NoteOffEvent(tick=60, channel=9, data=[44, 64]),
   midi.NoteOnEvent(tick=0, channel=9, data=[42, 100]),
   midi.NoteOffEvent(tick=60, channel=9, data=[42, 64]),
   midi.NoteOnEvent(tick=0, channel=9, data=[44, 100]),
   midi.NoteOffEvent(tick=60, channel=9, data=[44, 64]),
   midi.NoteOnEvent(tick=0, channel=9, data=[42, 100]),
   midi.NoteOnEvent(tick=0, channel=9, data=[40, 127]),
   midi.NoteOffEvent(tick=60, channel=9, data=[42, 64]),
   midi.NoteOnEvent(tick=0, channel=9, data=[44, 100]),
   midi.NoteOffEvent(tick=60, channel=9, data=[44, 64]),
   midi.NoteOnEvent(tick=0, channel=9, data=[42, 100]),
   midi.NoteOffEvent(tick=60, channel=9, data=[42, 64]),
   midi.NoteOnEvent(tick=0, channel=9, data=[44, 100]),
   midi.NoteOffEvent(tick=60, channel=9, data=[40, 64]),
   midi.NoteOffEvent(tick=0, channel=9, data=[44, 64]),
   midi.NoteOnEvent(tick=0, channel=9, data=[42, 100]),
   midi.NoteOffEvent(tick=60, channel=9, data=[42, 64]),
   midi.NoteOnEvent(tick=0, channel=9, data=[44, 100]),
   midi.NoteOffEvent(tick=60, channel=9, data=[44, 64]),
   midi.NoteOnEvent(tick=0, channel=9, data=[42, 100]),
   midi.NoteOffEvent(tick=60, channel=9, data=[42, 64]),
   midi.NoteOnEvent(tick=0, channel=9, data=[44, 100]),
   midi.NoteOffEvent(tick=60, channel=9, data=[44, 64]),
   midi.NoteOnEvent(tick=0, channel=9, data=[42, 100]),
   midi.NoteOnEvent(tick=0, channel=9, data=[40, 127]),
   midi.NoteOffEvent(tick=60, channel=9, data=[42, 64]),
   midi.NoteOnEvent(tick=0, channel=9, data=[44, 100]),
   midi.NoteOffEvent(tick=60, channel=9, data=[44, 64]),
   midi.NoteOnEvent(tick=0, channel=9, data=[42, 100]),
   midi.NoteOffEvent(tick=60, channel=9, data=[42, 64]),
   midi.NoteOnEvent(tick=0, channel=9, data=[44, 100]),
   midi.NoteOffEvent(tick=60, channel=9, data=[40, 64]),
   midi.NoteOffEvent(tick=0, channel=9, data=[44, 64]),
   midi.NoteOnEvent(tick=0, channel=9, data=[42, 100]),
   midi.NoteOffEvent(tick=60, channel=9, data=[42, 64]),
   midi.NoteOnEvent(tick=0, channel=9, data=[44, 100]),
   midi.NoteOffEvent(tick=60, channel=9, data=[44, 64]),
   midi.NoteOnEvent(tick=0, channel=9, data=[42, 100]),
   midi.NoteOffEvent(tick=60, channel=9, data=[42, 64]),
   midi.NoteOnEvent(tick=0, channel=9, data=[44, 100]),
   midi.NoteOffEvent(tick=60, channel=9, data=[44, 64]),
   midi.NoteOnEvent(tick=0, channel=9, data=[42, 100]),
   midi.NoteOnEvent(tick=0, channel=9, data=[40, 127]),
   midi.NoteOffEvent(tick=60, channel=9, data=[42, 64]),
   midi.NoteOnEvent(tick=0, channel=9, data=[44, 100]),
   midi.NoteOffEvent(tick=60, channel=9, data=[44, 64]),
   midi.NoteOnEvent(tick=0, channel=9, data=[42, 100]),
   midi.NoteOffEvent(tick=60, channel=9, data=[42, 64]),
   midi.NoteOnEvent(tick=0, channel=9, data=[44, 100]),
   midi.NoteOffEvent(tick=60, channel=9, data=[40, 64]),
   midi.NoteOffEvent(tick=0, channel=9, data=[44, 64]),
   midi.NoteOnEvent(tick=0, channel=9, data=[42, 100]),
   midi.NoteOffEvent(tick=60, channel=9, data=[42, 64]),
   midi.NoteOnEvent(tick=0, channel=9, data=[44, 100]),
   midi.NoteOffEvent(tick=60, channel=9, data=[44, 64]),
   midi.NoteOnEvent(tick=0, channel=9, data=[42, 100]),
   midi.NoteOffEvent(tick=60, channel=9, data=[42, 64]),
   midi.NoteOnEvent(tick=0, channel=9, data=[44, 100]),
   midi.NoteOffEvent(tick=60, channel=9, data=[44, 64]),
   midi.NoteOnEvent(tick=0, channel=9, data=[42, 100]),
   midi.NoteOnEvent(tick=0, channel=9, data=[40, 127]),
   midi.NoteOffEvent(tick=60, channel=9, data=[42, 64]),
   midi.NoteOnEvent(tick=0, channel=9, data=[44, 100]),
   midi.NoteOffEvent(tick=60, channel=9, data=[44, 64]),
   midi.NoteOnEvent(tick=0, channel=9, data=[42, 100]),
   midi.NoteOffEvent(tick=60, channel=9, data=[42, 64]),
   midi.NoteOnEvent(tick=0, channel=9, data=[44, 100]),
   midi.NoteOffEvent(tick=60, channel=9, data=[40, 64]),
   midi.NoteOffEvent(tick=0, channel=9, data=[44, 64]),
   midi.NoteOnEvent(tick=0, channel=9, data=[42, 100]),
   midi.NoteOffEvent(tick=60, channel=9, data=[42, 64]),
   midi.NoteOnEvent(tick=0, channel=9, data=[44, 100]),
   midi.NoteOffEvent(tick=60, channel=9, data=[44, 64]),
   midi.NoteOnEvent(tick=0, channel=9, data=[42, 100]),
   midi.NoteOffEvent(tick=60, channel=9, data=[42, 64]),
   midi.NoteOnEvent(tick=0, channel=9, data=[44, 100]),
   midi.NoteOffEvent(tick=60, channel=9, data=[44, 64]),
   midi.NoteOnEvent(tick=0, channel=9, data=[42, 100]),
   midi.NoteOnEvent(tick=0, channel=9, data=[40, 127]),
   midi.NoteOffEvent(tick=60, channel=9, data=[42, 64]),
   midi.NoteOnEvent(tick=0, channel=9, data=[44, 100]),
   midi.NoteOffEvent(tick=60, channel=9, data=[44, 64]),
   midi.NoteOnEvent(tick=0, channel=9, data=[42, 100]),
   midi.NoteOffEvent(tick=60, channel=9, data=[42, 64]),
   midi.NoteOnEvent(tick=0, channel=9, data=[44, 100]),
   midi.NoteOffEvent(tick=60, channel=9, data=[40, 64]),
   midi.NoteOffEvent(tick=0, channel=9, data=[44, 64]),
   midi.NoteOnEvent(tick=0, channel=9, data=[42, 100]),
   midi.NoteOffEvent(tick=60, channel=9, data=[42, 64]),
   midi.NoteOnEvent(tick=0, channel=9, data=[44, 100]),
   midi.NoteOffEvent(tick=60, channel=9, data=[44, 64]),
   midi.NoteOnEvent(tick=0, channel=9, data=[42, 100]),
   midi.NoteOffEvent(tick=60, channel=9, data=[42, 64]),
   midi.NoteOnEvent(tick=0, channel=9, data=[44, 100]),
   midi.NoteOffEvent(tick=60, channel=9, data=[44, 64]),
   midi.NoteOnEvent(tick=0, channel=9, data=[42, 100]),
   midi.NoteOnEvent(tick=0, channel=9, data=[40, 127]),
   midi.NoteOffEvent(tick=60, channel=9, data=[42, 64]),
   midi.NoteOnEvent(tick=0, channel=9, data=[44, 100]),
   midi.NoteOffEvent(tick=60, channel=9, data=[44, 64]),
   midi.NoteOnEvent(tick=0, channel=9, data=[42, 100]),
   midi.NoteOffEvent(tick=60, channel=9, data=[42, 64]),
   midi.NoteOnEvent(tick=0, channel=9, data=[44, 100]),
   midi.NoteOffEvent(tick=60, channel=9, data=[40, 64]),
   midi.NoteOffEvent(tick=0, channel=9, data=[44, 64]),
   midi.NoteOnEvent(tick=0, channel=9, data=[42, 100]),
   midi.NoteOffEvent(tick=60, channel=9, data=[42, 64]),
   midi.NoteOnEvent(tick=0, channel=9, data=[44, 100]),
   midi.NoteOffEvent(tick=60, channel=9, data=[44, 64]),
   midi.NoteOnEvent(tick=0, channel=9, data=[42, 100]),
   midi.NoteOffEvent(tick=60, channel=9, data=[42, 64]),
   midi.NoteOnEvent(tick=0, channel=9, data=[44, 100]),
   midi.NoteOffEvent(tick=60, channel=9, data=[44, 64]),
   midi.NoteOnEvent(tick=0, channel=9, data=[42, 100]),
   midi.NoteOnEvent(tick=0, channel=9, data=[40, 127]),
   midi.NoteOffEvent(tick=60, channel=9, data=[42, 64]),
   midi.NoteOnEvent(tick=0, channel=9, data=[44, 100]),
   midi.NoteOffEvent(tick=60, channel=9, data=[44, 64]),
   midi.NoteOnEvent(tick=0, channel=9, data=[42, 100]),
   midi.NoteOffEvent(tick=60, channel=9, data=[42, 64]),
   midi.NoteOnEvent(tick=0, channel=9, data=[44, 100]),
   midi.NoteOffEvent(tick=60, channel=9, data=[40, 64]),
   midi.NoteOffEvent(tick=0, channel=9, data=[44, 64]),
   midi.NoteOnEvent(tick=0, channel=9, data=[42, 100]),
   midi.NoteOffEvent(tick=60, channel=9, data=[42, 64]),
   midi.NoteOnEvent(tick=0, channel=9, data=[44, 100]),
   midi.NoteOffEvent(tick=60, channel=9, data=[44, 64]),
   midi.NoteOnEvent(tick=0, channel=9, data=[42, 100]),
   midi.NoteOffEvent(tick=60, channel=9, data=[42, 64]),
   midi.NoteOnEvent(tick=0, channel=9, data=[44, 100]),
   midi.NoteOffEvent(tick=60, channel=9, data=[44, 64]),
   midi.NoteOnEvent(tick=0, channel=9, data=[42, 100]),
   midi.NoteOnEvent(tick=0, channel=9, data=[40, 127]),
   midi.NoteOffEvent(tick=60, channel=9, data=[42, 64]),
   midi.NoteOnEvent(tick=0, channel=9, data=[44, 100]),
   midi.NoteOffEvent(tick=60, channel=9, data=[44, 64]),
   midi.NoteOnEvent(tick=0, channel=9, data=[42, 100]),
   midi.NoteOffEvent(tick=60, channel=9, data=[42, 64]),
   midi.NoteOnEvent(tick=0, channel=9, data=[44, 100]),
   midi.NoteOffEvent(tick=60, channel=9, data=[40, 64]),
   midi.NoteOffEvent(tick=0, channel=9, data=[44, 64]),
   midi.NoteOnEvent(tick=0, channel=9, data=[42, 100]),
   midi.NoteOffEvent(tick=60, channel=9, data=[42, 64]),
   midi.NoteOnEvent(tick=0, channel=9, data=[44, 100]),
   midi.NoteOffEvent(tick=60, channel=9, data=[44, 64]),
   midi.NoteOnEvent(tick=0, channel=9, data=[42, 100]),
   midi.NoteOffEvent(tick=60, channel=9, data=[42, 64]),
   midi.NoteOnEvent(tick=0, channel=9, data=[44, 100]),
   midi.NoteOffEvent(tick=60, channel=9, data=[44, 64]),
   midi.NoteOnEvent(tick=0, channel=9, data=[42, 100]),
   midi.NoteOnEvent(tick=0, channel=9, data=[40, 127]),
   midi.NoteOffEvent(tick=60, channel=9, data=[42, 64]),
   midi.NoteOnEvent(tick=0, channel=9, data=[44, 100]),
   midi.NoteOffEvent(tick=60, channel=9, data=[44, 64]),
   midi.NoteOnEvent(tick=0, channel=9, data=[42, 100]),
   midi.NoteOffEvent(tick=60, channel=9, data=[42, 64]),
   midi.NoteOnEvent(tick=0, channel=9, data=[44, 100]),
   midi.NoteOffEvent(tick=60, channel=9, data=[40, 64]),
   midi.NoteOffEvent(tick=0, channel=9, data=[44, 64]),
   midi.NoteOnEvent(tick=0, channel=9, data=[42, 100]),
   midi.NoteOffEvent(tick=60, channel=9, data=[42, 64]),
   midi.NoteOnEvent(tick=0, channel=9, data=[44, 100]),
   midi.NoteOffEvent(tick=60, channel=9, data=[44, 64]),
   midi.NoteOnEvent(tick=0, channel=9, data=[42, 100]),
   midi.NoteOffEvent(tick=60, channel=9, data=[42, 64]),
   midi.NoteOnEvent(tick=0, channel=9, data=[44, 100]),
   midi.NoteOffEvent(tick=60, channel=9, data=[44, 64]),
   midi.NoteOnEvent(tick=0, channel=9, data=[42, 100]),
   midi.NoteOnEvent(tick=0, channel=9, data=[40, 127]),
   midi.NoteOffEvent(tick=60, channel=9, data=[42, 64]),
   midi.NoteOnEvent(tick=0, channel=9, data=[44, 100]),
   midi.NoteOffEvent(tick=60, channel=9, data=[44, 64]),
   midi.NoteOnEvent(tick=0, channel=9, data=[42, 100]),
   midi.NoteOffEvent(tick=60, channel=9, data=[42, 64]),
   midi.NoteOnEvent(tick=0, channel=9, data=[44, 100]),
   midi.NoteOffEvent(tick=60, channel=9, data=[40, 64]),
   midi.NoteOffEvent(tick=0, channel=9, data=[44, 64]),
   midi.NoteOnEvent(tick=0, channel=9, data=[42, 100]),
   midi.NoteOffEvent(tick=60, channel=9, data=[42, 64]),
   midi.NoteOnEvent(tick=0, channel=9, data=[44, 100]),
   midi.NoteOffEvent(tick=60, channel=9, data=[44, 64]),
   midi.NoteOnEvent(tick=0, channel=9, data=[42, 100]),
   midi.NoteOffEvent(tick=60, channel=9, data=[42, 64]),
   midi.NoteOnEvent(tick=0, channel=9, data=[44, 100]),
   midi.NoteOffEvent(tick=60, channel=9, data=[44, 64]),
   midi.NoteOnEvent(tick=0, channel=9, data=[42, 100]),
   midi.NoteOnEvent(tick=0, channel=9, data=[40, 127]),
   midi.NoteOffEvent(tick=60, channel=9, data=[42, 64]),
   midi.NoteOnEvent(tick=0, channel=9, data=[44, 100]),
   midi.NoteOffEvent(tick=60, channel=9, data=[44, 64]),
   midi.NoteOnEvent(tick=0, channel=9, data=[42, 100]),
   midi.NoteOffEvent(tick=60, channel=9, data=[42, 64]),
   midi.NoteOnEvent(tick=0, channel=9, data=[44, 100]),
   midi.NoteOffEvent(tick=60, channel=9, data=[40, 64]),
   midi.NoteOffEvent(tick=0, channel=9, data=[44, 64]),
   midi.NoteOnEvent(tick=0, channel=9, data=[42, 100]),
   midi.NoteOffEvent(tick=60, channel=9, data=[42, 64]),
   midi.NoteOnEvent(tick=0, channel=9, data=[44, 100]),
   midi.NoteOffEvent(tick=60, channel=9, data=[44, 64]),
   midi.NoteOnEvent(tick=0, channel=9, data=[42, 100]),
   midi.NoteOffEvent(tick=60, channel=9, data=[42, 64]),
   midi.NoteOnEvent(tick=0, channel=9, data=[44, 100]),
   midi.NoteOffEvent(tick=60, channel=9, data=[44, 64]),
   midi.NoteOnEvent(tick=0, channel=9, data=[42, 100]),
   midi.NoteOnEvent(tick=0, channel=9, data=[40, 127]),
   midi.NoteOffEvent(tick=60, channel=9, data=[42, 64]),
   midi.NoteOnEvent(tick=0, channel=9, data=[44, 100]),
   midi.NoteOffEvent(tick=60, channel=9, data=[44, 64]),
   midi.NoteOnEvent(tick=0, channel=9, data=[42, 100]),
   midi.NoteOffEvent(tick=60, channel=9, data=[42, 64]),
   midi.NoteOnEvent(tick=0, channel=9, data=[44, 100]),
   midi.NoteOffEvent(tick=60, channel=9, data=[40, 64]),
   midi.NoteOffEvent(tick=0, channel=9, data=[44, 64]),
   midi.NoteOnEvent(tick=0, channel=9, data=[42, 100]),
   midi.NoteOffEvent(tick=60, channel=9, data=[42, 64]),
   midi.NoteOnEvent(tick=0, channel=9, data=[44, 100]),
   midi.NoteOffEvent(tick=60, channel=9, data=[44, 64]),
   midi.NoteOnEvent(tick=0, channel=9, data=[42, 100]),
   midi.NoteOffEvent(tick=60, channel=9, data=[42, 64]),
   midi.NoteOnEvent(tick=0, channel=9, data=[44, 100]),
   midi.NoteOffEvent(tick=60, channel=9, data=[44, 64]),
   midi.NoteOnEvent(tick=0, channel=9, data=[40, 127]),
   midi.NoteOnEvent(tick=0, channel=9, data=[42, 100]),
   midi.NoteOffEvent(tick=60, channel=9, data=[42, 64]),
   midi.NoteOnEvent(tick=0, channel=9, data=[44, 100]),
   midi.NoteOffEvent(tick=60, channel=9, data=[44, 64]),
   midi.NoteOnEvent(tick=0, channel=9, data=[42, 100]),
   midi.NoteOffEvent(tick=60, channel=9, data=[42, 64]),
   midi.NoteOnEvent(tick=0, channel=9, data=[44, 100]),
   midi.NoteOffEvent(tick=60, channel=9, data=[40, 64]),
   midi.NoteOffEvent(tick=0, channel=9, data=[44, 64]),
   midi.NoteOnEvent(tick=0, channel=9, data=[42, 100]),
   midi.NoteOffEvent(tick=60, channel=9, data=[42, 64]),
   midi.NoteOnEvent(tick=0, channel=9, data=[44, 100]),
   midi.NoteOffEvent(tick=60, channel=9, data=[44, 64]),
   midi.NoteOnEvent(tick=0, channel=9, data=[42, 100]),
   midi.NoteOffEvent(tick=60, channel=9, data=[42, 64]),
   midi.NoteOnEvent(tick=0, channel=9, data=[44, 100]),
   midi.NoteOffEvent(tick=60, channel=9, data=[44, 64]),
   midi.NoteOnEvent(tick=0, channel=9, data=[40, 127]),
   midi.NoteOnEvent(tick=0, channel=9, data=[42, 100]),
   midi.NoteOffEvent(tick=60, channel=9, data=[42, 64]),
   midi.NoteOnEvent(tick=0, channel=9, data=[44, 100]),
   midi.NoteOffEvent(tick=60, channel=9, data=[44, 64]),
   midi.NoteOnEvent(tick=0, channel=9, data=[42, 100]),
   midi.NoteOffEvent(tick=60, channel=9, data=[42, 64]),
   midi.NoteOnEvent(tick=0, channel=9, data=[44, 100]),
   midi.NoteOffEvent(tick=60, channel=9, data=[40, 64]),
   midi.NoteOffEvent(tick=0, channel=9, data=[44, 64]),
   midi.NoteOnEvent(tick=0, channel=9, data=[44, 100]),
   midi.NoteOnEvent(tick=0, channel=9, data=[36, 100]),
   midi.NoteOffEvent(tick=120, channel=9, data=[44, 64]),
   midi.NoteOnEvent(tick=0, channel=9, data=[44, 100]),
   midi.NoteOffEvent(tick=120, channel=9, data=[36, 64]),
   midi.NoteOffEvent(tick=0, channel=9, data=[44, 64]),
   midi.NoteOnEvent(tick=0, channel=9, data=[44, 100]),
   midi.NoteOnEvent(tick=0, channel=9, data=[40, 100]),
   midi.NoteOffEvent(tick=120, channel=9, data=[44, 64]),
   midi.NoteOnEvent(tick=0, channel=9, data=[44, 100]),
   midi.NoteOffEvent(tick=120, channel=9, data=[40, 64]),
   midi.NoteOffEvent(tick=0, channel=9, data=[44, 64]),
   midi.NoteOnEvent(tick=0, channel=9, data=[44, 100]),
   midi.NoteOnEvent(tick=0, channel=9, data=[36, 100]),
   midi.NoteOffEvent(tick=120, channel=9, data=[44, 64]),
   midi.NoteOffEvent(tick=0, channel=9, data=[36, 64]),
   midi.NoteOnEvent(tick=0, channel=9, data=[44, 100]),
   midi.NoteOnEvent(tick=0, channel=9, data=[36, 100]),
   midi.NoteOffEvent(tick=120, channel=9, data=[44, 64]),
   midi.NoteOffEvent(tick=0, channel=9, data=[36, 64]),
   midi.NoteOnEvent(tick=0, channel=9, data=[44, 100]),
   midi.NoteOnEvent(tick=0, channel=9, data=[40, 100]),
   midi.NoteOffEvent(tick=60, channel=9, data=[40, 64]),
   midi.NoteOnEvent(tick=0, channel=9, data=[40, 100]),
   midi.NoteOffEvent(tick=60, channel=9, data=[44, 64]),
   midi.NoteOffEvent(tick=0, channel=9, data=[40, 64]),
   midi.NoteOnEvent(tick=0, channel=9, data=[44, 100]),
   midi.NoteOnEvent(tick=0, channel=9, data=[36, 100]),
   midi.NoteOffEvent(tick=120, channel=9, data=[44, 64]),
   midi.NoteOffEvent(tick=0, channel=9, data=[36, 64]),
   midi.NoteOnEvent(tick=0, channel=9, data=[36, 100]),
   midi.NoteOnEvent(tick=0, channel=9, data=[44, 100]),
   midi.NoteOffEvent(tick=120, channel=9, data=[44, 64]),
   midi.NoteOnEvent(tick=0, channel=9, data=[44, 100]),
   midi.NoteOffEvent(tick=120, channel=9, data=[36, 64]),
   midi.NoteOffEvent(tick=0, channel=9, data=[44, 64]),
   midi.NoteOnEvent(tick=0, channel=9, data=[40, 100]),
   midi.NoteOnEvent(tick=0, channel=9, data=[44, 100]),
   midi.NoteOffEvent(tick=120, channel=9, data=[44, 64]),
   midi.NoteOnEvent(tick=0, channel=9, data=[44, 100]),
   midi.NoteOffEvent(tick=120, channel=9, data=[40, 64]),
   midi.NoteOffEvent(tick=0, channel=9, data=[44, 64]),
   midi.NoteOnEvent(tick=0, channel=9, data=[36, 100]),
   midi.NoteOnEvent(tick=0, channel=9, data=[44, 100]),
   midi.NoteOffEvent(tick=120, channel=9, data=[36, 64]),
   midi.NoteOffEvent(tick=0, channel=9, data=[44, 64]),
   midi.NoteOnEvent(tick=0, channel=9, data=[36, 100]),
   midi.NoteOnEvent(tick=0, channel=9, data=[44, 100]),
   midi.NoteOffEvent(tick=120, channel=9, data=[36, 64]),
   midi.NoteOffEvent(tick=0, channel=9, data=[44, 64]),
   midi.NoteOnEvent(tick=0, channel=9, data=[40, 100]),
   midi.NoteOnEvent(tick=0, channel=9, data=[44, 100]),
   midi.NoteOffEvent(tick=60, channel=9, data=[40, 64]),
   midi.NoteOnEvent(tick=0, channel=9, data=[40, 100]),
   midi.NoteOffEvent(tick=60, channel=9, data=[44, 64]),
   midi.NoteOffEvent(tick=0, channel=9, data=[40, 64]),
   midi.NoteOnEvent(tick=0, channel=9, data=[36, 100]),
   midi.NoteOnEvent(tick=0, channel=9, data=[44, 100]),
   midi.NoteOffEvent(tick=120, channel=9, data=[36, 64]),
   midi.NoteOffEvent(tick=0, channel=9, data=[44, 64]),
   midi.NoteOnEvent(tick=0, channel=9, data=[36, 100]),
   midi.NoteOnEvent(tick=0, channel=9, data=[44, 100]),
   midi.NoteOffEvent(tick=120, channel=9, data=[44, 64]),
   midi.NoteOnEvent(tick=0, channel=9, data=[44, 100]),
   midi.NoteOffEvent(tick=120, channel=9, data=[36, 64]),
   midi.NoteOffEvent(tick=0, channel=9, data=[44, 64]),
   midi.NoteOnEvent(tick=0, channel=9, data=[40, 100]),
   midi.NoteOnEvent(tick=0, channel=9, data=[44, 100]),
   midi.NoteOffEvent(tick=120, channel=9, data=[44, 64]),
   midi.NoteOnEvent(tick=0, channel=9, data=[44, 100]),
   midi.NoteOffEvent(tick=120, channel=9, data=[40, 64]),
   midi.NoteOffEvent(tick=0, channel=9, data=[44, 64]),
   midi.NoteOnEvent(tick=0, channel=9, data=[36, 100]),
   midi.NoteOnEvent(tick=0, channel=9, data=[44, 100]),
   midi.NoteOffEvent(tick=120, channel=9, data=[36, 64]),
   midi.NoteOffEvent(tick=0, channel=9, data=[44, 64]),
   midi.NoteOnEvent(tick=0, channel=9, data=[36, 100]),
   midi.NoteOnEvent(tick=0, channel=9, data=[44, 100]),
   midi.NoteOffEvent(tick=120, channel=9, data=[36, 64]),
   midi.NoteOffEvent(tick=0, channel=9, data=[44, 64]),
   midi.NoteOnEvent(tick=0, channel=9, data=[40, 100]),
   midi.NoteOnEvent(tick=0, channel=9, data=[44, 100]),
   midi.NoteOffEvent(tick=60, channel=9, data=[40, 64]),
   midi.NoteOnEvent(tick=0, channel=9, data=[40, 100]),
   midi.NoteOffEvent(tick=60, channel=9, data=[44, 64]),
   midi.NoteOffEvent(tick=0, channel=9, data=[40, 64]),
   midi.NoteOnEvent(tick=0, channel=9, data=[36, 100]),
   midi.NoteOnEvent(tick=0, channel=9, data=[44, 100]),
   midi.NoteOffEvent(tick=120, channel=9, data=[36, 64]),
   midi.NoteOffEvent(tick=0, channel=9, data=[44, 64]),
   midi.NoteOnEvent(tick=0, channel=9, data=[36, 100]),
   midi.NoteOnEvent(tick=0, channel=9, data=[44, 100]),
   midi.NoteOffEvent(tick=120, channel=9, data=[44, 64]),
   midi.NoteOnEvent(tick=0, channel=9, data=[44, 100]),
   midi.NoteOffEvent(tick=120, channel=9, data=[36, 64]),
   midi.NoteOffEvent(tick=0, channel=9, data=[44, 64]),
   midi.NoteOnEvent(tick=0, channel=9, data=[40, 100]),
   midi.NoteOnEvent(tick=0, channel=9, data=[44, 100]),
   midi.NoteOffEvent(tick=120, channel=9, data=[44, 64]),
   midi.NoteOnEvent(tick=0, channel=9, data=[44, 100]),
   midi.NoteOffEvent(tick=120, channel=9, data=[40, 64]),
   midi.NoteOffEvent(tick=0, channel=9, data=[44, 64]),
   midi.NoteOnEvent(tick=0, channel=9, data=[36, 100]),
   midi.NoteOnEvent(tick=0, channel=9, data=[44, 100]),
   midi.NoteOffEvent(tick=120, channel=9, data=[36, 64]),
   midi.NoteOffEvent(tick=0, channel=9, data=[44, 64]),
   midi.NoteOnEvent(tick=0, channel=9, data=[36, 100]),
   midi.NoteOnEvent(tick=0, channel=9, data=[44, 100]),
   midi.NoteOffEvent(tick=120, channel=9, data=[36, 64]),
   midi.NoteOffEvent(tick=0, channel=9, data=[44, 64]),
   midi.NoteOnEvent(tick=0, channel=9, data=[40, 100]),
   midi.NoteOnEvent(tick=0, channel=9, data=[44, 100]),
   midi.NoteOffEvent(tick=60, channel=9, data=[40, 64]),
   midi.NoteOnEvent(tick=0, channel=9, data=[40, 100]),
   midi.NoteOffEvent(tick=60, channel=9, data=[44, 64]),
   midi.NoteOffEvent(tick=0, channel=9, data=[40, 64]),
   midi.NoteOnEvent(tick=0, channel=9, data=[36, 100]),
   midi.NoteOnEvent(tick=0, channel=9, data=[44, 100]),
   midi.NoteOffEvent(tick=120, channel=9, data=[36, 64]),
   midi.NoteOffEvent(tick=0, channel=9, data=[44, 64]),
   midi.NoteOnEvent(tick=0, channel=9, data=[36, 100]),
   midi.NoteOnEvent(tick=0, channel=9, data=[44, 100]),
   midi.NoteOffEvent(tick=120, channel=9, data=[44, 64]),
   midi.NoteOnEvent(tick=0, channel=9, data=[44, 100]),
   midi.NoteOffEvent(tick=120, channel=9, data=[36, 64]),
   midi.NoteOffEvent(tick=0, channel=9, data=[44, 64]),
   midi.NoteOnEvent(tick=0, channel=9, data=[40, 100]),
   midi.NoteOnEvent(tick=0, channel=9, data=[44, 100]),
   midi.NoteOffEvent(tick=120, channel=9, data=[44, 64]),
   midi.NoteOnEvent(tick=0, channel=9, data=[44, 100]),
   midi.NoteOffEvent(tick=120, channel=9, data=[40, 64]),
   midi.NoteOffEvent(tick=0, channel=9, data=[44, 64]),
   midi.NoteOnEvent(tick=0, channel=9, data=[36, 100]),
   midi.NoteOnEvent(tick=0, channel=9, data=[44, 100]),
   midi.NoteOffEvent(tick=120, channel=9, data=[36, 64]),
   midi.NoteOffEvent(tick=0, channel=9, data=[44, 64]),
   midi.NoteOnEvent(tick=0, channel=9, data=[36, 100]),
   midi.NoteOnEvent(tick=0, channel=9, data=[44, 100]),
   midi.NoteOffEvent(tick=120, channel=9, data=[36, 64]),
   midi.NoteOffEvent(tick=0, channel=9, data=[44, 64]),
   midi.NoteOnEvent(tick=0, channel=9, data=[40, 100]),
   midi.NoteOnEvent(tick=0, channel=9, data=[44, 100]),
   midi.NoteOffEvent(tick=60, channel=9, data=[40, 64]),
   midi.NoteOnEvent(tick=0, channel=9, data=[40, 100]),
   midi.NoteOffEvent(tick=60, channel=9, data=[44, 64]),
   midi.NoteOffEvent(tick=0, channel=9, data=[40, 64]),
   midi.NoteOnEvent(tick=0, channel=9, data=[36, 100]),
   midi.NoteOnEvent(tick=0, channel=9, data=[44, 100]),
   midi.NoteOffEvent(tick=120, channel=9, data=[36, 64]),
   midi.NoteOffEvent(tick=0, channel=9, data=[44, 64]),
   midi.NoteOnEvent(tick=0, channel=9, data=[44, 100]),
   midi.NoteOnEvent(tick=0, channel=9, data=[36, 100]),
   midi.NoteOffEvent(tick=120, channel=9, data=[44, 64]),
   midi.NoteOnEvent(tick=0, channel=9, data=[44, 100]),
   midi.NoteOffEvent(tick=120, channel=9, data=[36, 64]),
   midi.NoteOffEvent(tick=0, channel=9, data=[44, 64]),
   midi.NoteOnEvent(tick=0, channel=9, data=[44, 100]),
   midi.NoteOnEvent(tick=0, channel=9, data=[40, 100]),
   midi.NoteOffEvent(tick=120, channel=9, data=[44, 64]),
   midi.NoteOnEvent(tick=0, channel=9, data=[44, 100]),
   midi.NoteOffEvent(tick=120, channel=9, data=[40, 64]),
   midi.NoteOffEvent(tick=0, channel=9, data=[44, 64]),
   midi.NoteOnEvent(tick=0, channel=9, data=[44, 100]),
   midi.NoteOnEvent(tick=0, channel=9, data=[36, 100]),
   midi.NoteOffEvent(tick=120, channel=9, data=[44, 64]),
   midi.NoteOffEvent(tick=0, channel=9, data=[36, 64]),
   midi.NoteOnEvent(tick=0, channel=9, data=[44, 100]),
   midi.NoteOnEvent(tick=0, channel=9, data=[36, 100]),
   midi.NoteOffEvent(tick=120, channel=9, data=[44, 64]),
   midi.NoteOffEvent(tick=0, channel=9, data=[36, 64]),
   midi.NoteOnEvent(tick=0, channel=9, data=[44, 100]),
   midi.NoteOnEvent(tick=0, channel=9, data=[40, 100]),
   midi.NoteOffEvent(tick=60, channel=9, data=[40, 64]),
   midi.NoteOnEvent(tick=0, channel=9, data=[40, 100]),
   midi.NoteOffEvent(tick=60, channel=9, data=[44, 64]),
   midi.NoteOffEvent(tick=0, channel=9, data=[40, 64]),
   midi.NoteOnEvent(tick=0, channel=9, data=[44, 100]),
   midi.NoteOnEvent(tick=0, channel=9, data=[36, 100]),
   midi.NoteOffEvent(tick=120, channel=9, data=[44, 64]),
   midi.NoteOffEvent(tick=0, channel=9, data=[36, 64]),
   midi.NoteOnEvent(tick=0, channel=9, data=[44, 100]),
   midi.NoteOnEvent(tick=0, channel=9, data=[36, 100]),
   midi.NoteOffEvent(tick=120, channel=9, data=[44, 64]),
   midi.NoteOnEvent(tick=0, channel=9, data=[44, 100]),
   midi.NoteOffEvent(tick=120, channel=9, data=[36, 64]),
   midi.NoteOffEvent(tick=0, channel=9, data=[44, 64]),
   midi.NoteOnEvent(tick=0, channel=9, data=[44, 100]),
   midi.NoteOnEvent(tick=0, channel=9, data=[40, 100]),
   midi.NoteOffEvent(tick=120, channel=9, data=[44, 64]),
   midi.NoteOnEvent(tick=0, channel=9, data=[44, 100]),
   midi.NoteOffEvent(tick=120, channel=9, data=[40, 64]),
   midi.NoteOffEvent(tick=0, channel=9, data=[44, 64]),
   midi.NoteOnEvent(tick=0, channel=9, data=[44, 100]),
   midi.NoteOnEvent(tick=0, channel=9, data=[36, 100]),
   midi.NoteOffEvent(tick=120, channel=9, data=[44, 64]),
   midi.NoteOffEvent(tick=0, channel=9, data=[36, 64]),
   midi.NoteOnEvent(tick=0, channel=9, data=[44, 100]),
   midi.NoteOnEvent(tick=0, channel=9, data=[36, 100]),
   midi.NoteOffEvent(tick=120, channel=9, data=[44, 64]),
   midi.NoteOffEvent(tick=0, channel=9, data=[36, 64]),
   midi.NoteOnEvent(tick=0, channel=9, data=[44, 100]),
   midi.NoteOnEvent(tick=0, channel=9, data=[40, 100]),
   midi.NoteOffEvent(tick=60, channel=9, data=[40, 64]),
   midi.NoteOnEvent(tick=0, channel=9, data=[40, 100]),
   midi.NoteOffEvent(tick=60, channel=9, data=[44, 64]),
   midi.NoteOffEvent(tick=0, channel=9, data=[40, 64]),
   midi.NoteOnEvent(tick=0, channel=9, data=[44, 100]),
   midi.NoteOnEvent(tick=0, channel=9, data=[36, 100]),
   midi.NoteOffEvent(tick=120, channel=9, data=[44, 64]),
   midi.NoteOffEvent(tick=0, channel=9, data=[36, 64]),
   midi.NoteOnEvent(tick=960, channel=9, data=[36, 100]),
   midi.NoteOnEvent(tick=0, channel=9, data=[44, 100]),
   midi.NoteOnEvent(tick=0, channel=9, data=[44, 100]),
   midi.NoteOffEvent(tick=120, channel=9, data=[44, 64]),
   midi.NoteOffEvent(tick=0, channel=9, data=[44, 64]),
   midi.NoteOnEvent(tick=0, channel=9, data=[44, 100]),
   midi.NoteOnEvent(tick=0, channel=9, data=[44, 100]),
   midi.NoteOffEvent(tick=120, channel=9, data=[36, 64]),
   midi.NoteOffEvent(tick=0, channel=9, data=[44, 64]),
   midi.NoteOffEvent(tick=0, channel=9, data=[44, 64]),
   midi.NoteOnEvent(tick=0, channel=9, data=[40, 100]),
   midi.NoteOnEvent(tick=0, channel=9, data=[44, 100]),
   midi.NoteOnEvent(tick=0, channel=9, data=[54, 100]),
   midi.NoteOffEvent(tick=120, channel=9, data=[44, 64]),
   midi.NoteOffEvent(tick=0, channel=9, data=[54, 64]),
   midi.NoteOnEvent(tick=0, channel=9, data=[44, 100]),
   midi.NoteOnEvent(tick=0, channel=9, data=[54, 100]),
   midi.NoteOffEvent(tick=120, channel=9, data=[40, 64]),
   midi.NoteOffEvent(tick=0, channel=9, data=[44, 64]),
   midi.NoteOffEvent(tick=0, channel=9, data=[54, 64]),
   midi.NoteOnEvent(tick=0, channel=9, data=[36, 100]),
   midi.NoteOnEvent(tick=0, channel=9, data=[44, 100]),
   midi.NoteOnEvent(tick=0, channel=9, data=[44, 100]),
   midi.NoteOffEvent(tick=120, channel=9, data=[44, 64]),
   midi.NoteOffEvent(tick=0, channel=9, data=[44, 64]),
   midi.NoteOnEvent(tick=0, channel=9, data=[44, 100]),
   midi.NoteOnEvent(tick=0, channel=9, data=[44, 100]),
   midi.NoteOffEvent(tick=120, channel=9, data=[36, 64]),
   midi.NoteOffEvent(tick=0, channel=9, data=[44, 64]),
   midi.NoteOffEvent(tick=0, channel=9, data=[44, 64]),
   midi.NoteOnEvent(tick=0, channel=9, data=[40, 100]),
   midi.NoteOnEvent(tick=0, channel=9, data=[44, 100]),
   midi.NoteOnEvent(tick=0, channel=9, data=[54, 100]),
   midi.NoteOffEvent(tick=120, channel=9, data=[44, 64]),
   midi.NoteOffEvent(tick=0, channel=9, data=[54, 64]),
   midi.NoteOnEvent(tick=0, channel=9, data=[44, 100]),
   midi.NoteOnEvent(tick=0, channel=9, data=[54, 100]),
   midi.NoteOffEvent(tick=120, channel=9, data=[40, 64]),
   midi.NoteOffEvent(tick=0, channel=9, data=[44, 64]),
   midi.NoteOffEvent(tick=0, channel=9, data=[54, 64]),
   midi.NoteOnEvent(tick=0, channel=9, data=[36, 100]),
   midi.NoteOnEvent(tick=0, channel=9, data=[44, 100]),
   midi.NoteOnEvent(tick=0, channel=9, data=[44, 100]),
   midi.NoteOffEvent(tick=120, channel=9, data=[44, 64]),
   midi.NoteOffEvent(tick=0, channel=9, data=[44, 64]),
   midi.NoteOnEvent(tick=0, channel=9, data=[44, 100]),
   midi.NoteOnEvent(tick=0, channel=9, data=[44, 100]),
   midi.NoteOffEvent(tick=120, channel=9, data=[36, 64]),
   midi.NoteOffEvent(tick=0, channel=9, data=[44, 64]),
   midi.NoteOffEvent(tick=0, channel=9, data=[44, 64]),
   midi.NoteOnEvent(tick=0, channel=9, data=[40, 100]),
   midi.NoteOnEvent(tick=0, channel=9, data=[44, 100]),
   midi.NoteOnEvent(tick=0, channel=9, data=[54, 100]),
   midi.NoteOffEvent(tick=120, channel=9, data=[44, 64]),
   midi.NoteOffEvent(tick=0, channel=9, data=[54, 64]),
   midi.NoteOnEvent(tick=0, channel=9, data=[44, 100]),
   midi.NoteOnEvent(tick=0, channel=9, data=[54, 100]),
   midi.NoteOffEvent(tick=120, channel=9, data=[40, 64]),
   midi.NoteOffEvent(tick=0, channel=9, data=[44, 64]),
   midi.NoteOffEvent(tick=0, channel=9, data=[54, 64]),
   midi.NoteOnEvent(tick=0, channel=9, data=[36, 100]),
   midi.NoteOnEvent(tick=0, channel=9, data=[44, 100]),
   midi.NoteOnEvent(tick=0, channel=9, data=[44, 100]),
   midi.NoteOffEvent(tick=120, channel=9, data=[44, 64]),
   midi.NoteOffEvent(tick=0, channel=9, data=[44, 64]),
   midi.NoteOnEvent(tick=0, channel=9, data=[44, 100]),
   midi.NoteOnEvent(tick=0, channel=9, data=[44, 100]),
   midi.NoteOffEvent(tick=120, channel=9, data=[36, 64]),
   midi.NoteOffEvent(tick=0, channel=9, data=[44, 64]),
   midi.NoteOffEvent(tick=0, channel=9, data=[44, 64]),
   midi.NoteOnEvent(tick=0, channel=9, data=[40, 100]),
   midi.NoteOnEvent(tick=0, channel=9, data=[44, 100]),
   midi.NoteOnEvent(tick=0, channel=9, data=[54, 100]),
   midi.NoteOffEvent(tick=120, channel=9, data=[44, 0]),
   midi.NoteOffEvent(tick=0, channel=9, data=[54, 64]),
   midi.NoteOnEvent(tick=0, channel=9, data=[44, 100]),
   midi.NoteOnEvent(tick=0, channel=9, data=[54, 100]),
   midi.NoteOnEvent(tick=117, channel=9, data=[36, 100]),
   midi.NoteOnEvent(tick=0, channel=9, data=[44, 100]),
   midi.NoteOnEvent(tick=0, channel=9, data=[44, 100]),
   midi.NoteOffEvent(tick=3, channel=9, data=[40, 64]),
   midi.NoteOffEvent(tick=0, channel=9, data=[44, 64]),
   midi.NoteOffEvent(tick=0, channel=9, data=[54, 64]),
   midi.NoteOffEvent(tick=0, channel=9, data=[44, 64]),
   midi.NoteOffEvent(tick=0, channel=9, data=[44, 64]),
   midi.NoteOnEvent(tick=117, channel=9, data=[44, 100]),
   midi.NoteOnEvent(tick=0, channel=9, data=[44, 100]),
   midi.NoteOffEvent(tick=120, channel=9, data=[36, 64]),
   midi.NoteOffEvent(tick=0, channel=9, data=[44, 64]),
   midi.NoteOffEvent(tick=0, channel=9, data=[44, 64]),
   midi.NoteOnEvent(tick=0, channel=9, data=[40, 100]),
   midi.NoteOnEvent(tick=0, channel=9, data=[44, 100]),
   midi.NoteOnEvent(tick=0, channel=9, data=[54, 100]),
   midi.NoteOffEvent(tick=120, channel=9, data=[44, 64]),
   midi.NoteOffEvent(tick=0, channel=9, data=[54, 64]),
   midi.NoteOnEvent(tick=0, channel=9, data=[44, 100]),
   midi.NoteOnEvent(tick=0, channel=9, data=[54, 100]),
   midi.NoteOffEvent(tick=120, channel=9, data=[40, 64]),
   midi.NoteOffEvent(tick=0, channel=9, data=[44, 64]),
   midi.NoteOffEvent(tick=0, channel=9, data=[54, 64]),
   midi.NoteOnEvent(tick=0, channel=9, data=[36, 100]),
   midi.NoteOnEvent(tick=0, channel=9, data=[44, 100]),
   midi.NoteOnEvent(tick=0, channel=9, data=[44, 100]),
   midi.NoteOffEvent(tick=120, channel=9, data=[44, 64]),
   midi.NoteOffEvent(tick=0, channel=9, data=[44, 64]),
   midi.NoteOnEvent(tick=0, channel=9, data=[44, 100]),
   midi.NoteOnEvent(tick=0, channel=9, data=[44, 100]),
   midi.NoteOffEvent(tick=120, channel=9, data=[36, 64]),
   midi.NoteOffEvent(tick=0, channel=9, data=[44, 64]),
   midi.NoteOffEvent(tick=0, channel=9, data=[44, 64]),
   midi.NoteOnEvent(tick=0, channel=9, data=[40, 100]),
   midi.NoteOnEvent(tick=0, channel=9, data=[44, 100]),
   midi.NoteOnEvent(tick=0, channel=9, data=[54, 100]),
   midi.NoteOffEvent(tick=120, channel=9, data=[44, 64]),
   midi.NoteOffEvent(tick=0, channel=9, data=[54, 64]),
   midi.NoteOnEvent(tick=0, channel=9, data=[44, 100]),
   midi.NoteOnEvent(tick=0, channel=9, data=[54, 100]),
   midi.NoteOffEvent(tick=120, channel=9, data=[40, 64]),
   midi.NoteOffEvent(tick=0, channel=9, data=[44, 64]),
   midi.NoteOffEvent(tick=0, channel=9, data=[54, 64]),
   midi.NoteOnEvent(tick=0, channel=9, data=[36, 100]),
   midi.NoteOnEvent(tick=0, channel=9, data=[44, 100]),
   midi.NoteOnEvent(tick=0, channel=9, data=[44, 100]),
   midi.NoteOffEvent(tick=120, channel=9, data=[44, 64]),
   midi.NoteOffEvent(tick=0, channel=9, data=[44, 64]),
   midi.NoteOnEvent(tick=0, channel=9, data=[44, 100]),
   midi.NoteOnEvent(tick=0, channel=9, data=[44, 100]),
   midi.NoteOffEvent(tick=120, channel=9, data=[36, 64]),
   midi.NoteOffEvent(tick=0, channel=9, data=[44, 64]),
   midi.NoteOffEvent(tick=0, channel=9, data=[44, 64]),
   midi.NoteOnEvent(tick=0, channel=9, data=[40, 100]),
   midi.NoteOnEvent(tick=0, channel=9, data=[44, 100]),
   midi.NoteOnEvent(tick=0, channel=9, data=[54, 100]),
   midi.NoteOffEvent(tick=120, channel=9, data=[44, 64]),
   midi.NoteOffEvent(tick=0, channel=9, data=[54, 64]),
   midi.NoteOnEvent(tick=0, channel=9, data=[44, 100]),
   midi.NoteOnEvent(tick=0, channel=9, data=[54, 100]),
   midi.NoteOffEvent(tick=120, channel=9, data=[40, 64]),
   midi.NoteOffEvent(tick=0, channel=9, data=[44, 64]),
   midi.NoteOffEvent(tick=0, channel=9, data=[54, 64]),
   midi.NoteOnEvent(tick=0, channel=9, data=[36, 100]),
   midi.NoteOnEvent(tick=0, channel=9, data=[44, 100]),
   midi.NoteOnEvent(tick=0, channel=9, data=[44, 100]),
   midi.NoteOffEvent(tick=120, channel=9, data=[44, 64]),
   midi.NoteOffEvent(tick=0, channel=9, data=[44, 64]),
   midi.NoteOnEvent(tick=0, channel=9, data=[44, 100]),
   midi.NoteOnEvent(tick=0, channel=9, data=[44, 100]),
   midi.NoteOffEvent(tick=120, channel=9, data=[36, 64]),
   midi.NoteOffEvent(tick=0, channel=9, data=[44, 64]),
   midi.NoteOffEvent(tick=0, channel=9, data=[44, 64]),
   midi.NoteOnEvent(tick=0, channel=9, data=[40, 100]),
   midi.NoteOnEvent(tick=0, channel=9, data=[44, 100]),
   midi.NoteOnEvent(tick=0, channel=9, data=[54, 100]),
   midi.NoteOffEvent(tick=120, channel=9, data=[44, 0]),
   midi.NoteOffEvent(tick=0, channel=9, data=[54, 64]),
   midi.NoteOnEvent(tick=0, channel=9, data=[44, 100]),
   midi.NoteOnEvent(tick=0, channel=9, data=[54, 100]),
   midi.NoteOffEvent(tick=120, channel=9, data=[40, 64]),
   midi.NoteOffEvent(tick=0, channel=9, data=[44, 64]),
   midi.NoteOffEvent(tick=0, channel=9, data=[54, 64]),
   midi.NoteOnEvent(tick=3, channel=9, data=[36, 100]),
   midi.NoteOnEvent(tick=0, channel=9, data=[44, 100]),
   midi.NoteOnEvent(tick=0, channel=9, data=[44, 100]),
   midi.NoteOffEvent(tick=120, channel=9, data=[44, 64]),
   midi.NoteOffEvent(tick=0, channel=9, data=[44, 64]),
   midi.NoteOnEvent(tick=0, channel=9, data=[44, 100]),
   midi.NoteOnEvent(tick=0, channel=9, data=[44, 100]),
   midi.NoteOffEvent(tick=120, channel=9, data=[36, 64]),
   midi.NoteOffEvent(tick=0, channel=9, data=[44, 64]),
   midi.NoteOffEvent(tick=0, channel=9, data=[44, 64]),
   midi.NoteOnEvent(tick=0, channel=9, data=[40, 100]),
   midi.NoteOnEvent(tick=0, channel=9, data=[44, 100]),
   midi.NoteOnEvent(tick=0, channel=9, data=[54, 100]),
   midi.NoteOffEvent(tick=120, channel=9, data=[44, 64]),
   midi.NoteOffEvent(tick=0, channel=9, data=[54, 64]),
   midi.NoteOnEvent(tick=0, channel=9, data=[44, 100]),
   midi.NoteOnEvent(tick=0, channel=9, data=[54, 100]),
   midi.NoteOffEvent(tick=120, channel=9, data=[40, 64]),
   midi.NoteOffEvent(tick=0, channel=9, data=[44, 64]),
   midi.NoteOffEvent(tick=0, channel=9, data=[54, 64]),
   midi.NoteOnEvent(tick=0, channel=9, data=[36, 100]),
   midi.NoteOnEvent(tick=0, channel=9, data=[44, 100]),
   midi.NoteOnEvent(tick=0, channel=9, data=[44, 100]),
   midi.NoteOffEvent(tick=120, channel=9, data=[44, 64]),
   midi.NoteOffEvent(tick=0, channel=9, data=[44, 64]),
   midi.NoteOnEvent(tick=0, channel=9, data=[44, 100]),
   midi.NoteOnEvent(tick=0, channel=9, data=[44, 100]),
   midi.NoteOffEvent(tick=120, channel=9, data=[36, 64]),
   midi.NoteOffEvent(tick=0, channel=9, data=[44, 64]),
   midi.NoteOffEvent(tick=0, channel=9, data=[44, 64]),
   midi.NoteOnEvent(tick=0, channel=9, data=[40, 100]),
   midi.NoteOnEvent(tick=0, channel=9, data=[44, 100]),
   midi.NoteOnEvent(tick=0, channel=9, data=[54, 100]),
   midi.NoteOffEvent(tick=120, channel=9, data=[44, 64]),
   midi.NoteOffEvent(tick=0, channel=9, data=[54, 64]),
   midi.NoteOnEvent(tick=0, channel=9, data=[44, 100]),
   midi.NoteOnEvent(tick=0, channel=9, data=[54, 100]),
   midi.NoteOffEvent(tick=120, channel=9, data=[40, 64]),
   midi.NoteOffEvent(tick=0, channel=9, data=[44, 64]),
   midi.NoteOffEvent(tick=0, channel=9, data=[54, 64]),
   midi.NoteOnEvent(tick=0, channel=9, data=[36, 100]),
   midi.NoteOnEvent(tick=0, channel=9, data=[44, 100]),
   midi.NoteOnEvent(tick=0, channel=9, data=[44, 100]),
   midi.NoteOffEvent(tick=120, channel=9, data=[44, 64]),
   midi.NoteOffEvent(tick=0, channel=9, data=[44, 64]),
   midi.NoteOnEvent(tick=0, channel=9, data=[44, 100]),
   midi.NoteOnEvent(tick=0, channel=9, data=[44, 100]),
   midi.NoteOffEvent(tick=120, channel=9, data=[36, 64]),
   midi.NoteOffEvent(tick=0, channel=9, data=[44, 64]),
   midi.NoteOffEvent(tick=0, channel=9, data=[44, 64]),
   midi.NoteOnEvent(tick=0, channel=9, data=[40, 100]),
   midi.NoteOnEvent(tick=0, channel=9, data=[44, 100]),
   midi.NoteOnEvent(tick=0, channel=9, data=[54, 100]),
   midi.NoteOffEvent(tick=120, channel=9, data=[44, 64]),
   midi.NoteOffEvent(tick=0, channel=9, data=[54, 64]),
   midi.NoteOnEvent(tick=0, channel=9, data=[44, 100]),
   midi.NoteOnEvent(tick=0, channel=9, data=[54, 100]),
   midi.NoteOffEvent(tick=120, channel=9, data=[40, 64]),
   midi.NoteOffEvent(tick=0, channel=9, data=[44, 64]),
   midi.NoteOffEvent(tick=0, channel=9, data=[54, 64]),
   midi.NoteOnEvent(tick=0, channel=9, data=[36, 100]),
   midi.NoteOnEvent(tick=0, channel=9, data=[44, 100]),
   midi.NoteOnEvent(tick=0, channel=9, data=[44, 100]),
   midi.NoteOffEvent(tick=120, channel=9, data=[44, 64]),
   midi.NoteOffEvent(tick=0, channel=9, data=[44, 64]),
   midi.NoteOnEvent(tick=0, channel=9, data=[44, 100]),
   midi.NoteOnEvent(tick=0, channel=9, data=[44, 100]),
   midi.NoteOffEvent(tick=120, channel=9, data=[36, 64]),
   midi.NoteOffEvent(tick=0, channel=9, data=[44, 64]),
   midi.NoteOffEvent(tick=0, channel=9, data=[44, 64]),
   midi.NoteOnEvent(tick=0, channel=9, data=[40, 100]),
   midi.NoteOnEvent(tick=0, channel=9, data=[44, 100]),
   midi.NoteOnEvent(tick=0, channel=9, data=[54, 100]),
   midi.NoteOffEvent(tick=120, channel=9, data=[44, 0]),
   midi.NoteOffEvent(tick=0, channel=9, data=[54, 64]),
   midi.NoteOnEvent(tick=0, channel=9, data=[44, 100]),
   midi.NoteOnEvent(tick=0, channel=9, data=[54, 100]),
   midi.NoteOffEvent(tick=120, channel=9, data=[40, 64]),
   midi.NoteOffEvent(tick=0, channel=9, data=[44, 64]),
   midi.NoteOffEvent(tick=0, channel=9, data=[54, 64]),
   midi.NoteOnEvent(tick=0, channel=9, data=[36, 100]),
   midi.NoteOnEvent(tick=0, channel=9, data=[44, 100]),
   midi.NoteOnEvent(tick=0, channel=9, data=[44, 100]),
   midi.NoteOffEvent(tick=120, channel=9, data=[44, 64]),
   midi.NoteOffEvent(tick=0, channel=9, data=[44, 64]),
   midi.NoteOnEvent(tick=0, channel=9, data=[44, 100]),
   midi.NoteOnEvent(tick=0, channel=9, data=[44, 100]),
   midi.NoteOffEvent(tick=120, channel=9, data=[36, 64]),
   midi.NoteOffEvent(tick=0, channel=9, data=[44, 64]),
   midi.NoteOffEvent(tick=0, channel=9, data=[44, 64]),
   midi.NoteOnEvent(tick=0, channel=9, data=[40, 100]),
   midi.NoteOnEvent(tick=0, channel=9, data=[44, 100]),
   midi.NoteOnEvent(tick=0, channel=9, data=[54, 100]),
   midi.NoteOffEvent(tick=120, channel=9, data=[44, 64]),
   midi.NoteOffEvent(tick=0, channel=9, data=[54, 64]),
   midi.NoteOnEvent(tick=0, channel=9, data=[44, 100]),
   midi.NoteOnEvent(tick=0, channel=9, data=[54, 100]),
   midi.NoteOffEvent(tick=120, channel=9, data=[40, 64]),
   midi.NoteOffEvent(tick=0, channel=9, data=[44, 64]),
   midi.NoteOffEvent(tick=0, channel=9, data=[54, 64]),
   midi.NoteOnEvent(tick=0, channel=9, data=[36, 100]),
   midi.NoteOnEvent(tick=0, channel=9, data=[44, 100]),
   midi.NoteOnEvent(tick=0, channel=9, data=[44, 100]),
   midi.NoteOffEvent(tick=120, channel=9, data=[44, 64]),
   midi.NoteOffEvent(tick=0, channel=9, data=[44, 64]),
   midi.NoteOnEvent(tick=0, channel=9, data=[44, 100]),
   midi.NoteOnEvent(tick=0, channel=9, data=[44, 100]),
   midi.NoteOffEvent(tick=120, channel=9, data=[36, 64]),
   midi.NoteOffEvent(tick=0, channel=9, data=[44, 64]),
   midi.NoteOffEvent(tick=0, channel=9, data=[44, 64]),
   midi.NoteOnEvent(tick=0, channel=9, data=[40, 100]),
   midi.NoteOnEvent(tick=0, channel=9, data=[44, 100]),
   midi.NoteOnEvent(tick=0, channel=9, data=[54, 100]),
   midi.NoteOffEvent(tick=120, channel=9, data=[44, 64]),
   midi.NoteOffEvent(tick=0, channel=9, data=[54, 64]),
   midi.NoteOnEvent(tick=0, channel=9, data=[44, 100]),
   midi.NoteOnEvent(tick=0, channel=9, data=[54, 100]),
   midi.NoteOffEvent(tick=120, channel=9, data=[40, 64]),
   midi.NoteOffEvent(tick=0, channel=9, data=[44, 64]),
   midi.NoteOffEvent(tick=0, channel=9, data=[54, 64]),
   midi.NoteOnEvent(tick=0, channel=9, data=[36, 100]),
   midi.NoteOnEvent(tick=0, channel=9, data=[44, 100]),
   midi.NoteOnEvent(tick=0, channel=9, data=[44, 100]),
   midi.NoteOffEvent(tick=120, channel=9, data=[44, 64]),
   midi.NoteOffEvent(tick=0, channel=9, data=[44, 64]),
   midi.NoteOnEvent(tick=0, channel=9, data=[44, 100]),
   midi.NoteOnEvent(tick=0, channel=9, data=[44, 100]),
   midi.NoteOffEvent(tick=120, channel=9, data=[36, 64]),
   midi.NoteOffEvent(tick=0, channel=9, data=[44, 64]),
   midi.NoteOffEvent(tick=0, channel=9, data=[44, 64]),
   midi.NoteOnEvent(tick=0, channel=9, data=[40, 100]),
   midi.NoteOnEvent(tick=0, channel=9, data=[44, 100]),
   midi.NoteOnEvent(tick=0, channel=9, data=[54, 100]),
   midi.NoteOffEvent(tick=120, channel=9, data=[44, 64]),
   midi.NoteOffEvent(tick=0, channel=9, data=[54, 64]),
   midi.NoteOnEvent(tick=0, channel=9, data=[44, 100]),
   midi.NoteOnEvent(tick=0, channel=9, data=[54, 100]),
   midi.NoteOffEvent(tick=120, channel=9, data=[40, 64]),
   midi.NoteOffEvent(tick=0, channel=9, data=[44, 64]),
   midi.NoteOffEvent(tick=0, channel=9, data=[54, 64]),
   midi.NoteOnEvent(tick=0, channel=9, data=[36, 100]),
   midi.NoteOnEvent(tick=0, channel=9, data=[44, 100]),
   midi.NoteOnEvent(tick=0, channel=9, data=[44, 100]),
   midi.NoteOffEvent(tick=120, channel=9, data=[44, 64]),
   midi.NoteOffEvent(tick=0, channel=9, data=[44, 64]),
   midi.NoteOnEvent(tick=0, channel=9, data=[44, 100]),
   midi.NoteOnEvent(tick=0, channel=9, data=[44, 100]),
   midi.NoteOffEvent(tick=120, channel=9, data=[36, 64]),
   midi.NoteOffEvent(tick=0, channel=9, data=[44, 64]),
   midi.NoteOffEvent(tick=0, channel=9, data=[44, 64]),
   midi.NoteOnEvent(tick=0, channel=9, data=[40, 100]),
   midi.NoteOnEvent(tick=0, channel=9, data=[44, 100]),
   midi.NoteOnEvent(tick=0, channel=9, data=[54, 100]),
   midi.NoteOffEvent(tick=120, channel=9, data=[44, 0]),
   midi.NoteOffEvent(tick=0, channel=9, data=[54, 64]),
   midi.NoteOnEvent(tick=0, channel=9, data=[44, 100]),
   midi.NoteOnEvent(tick=0, channel=9, data=[54, 100]),
   midi.NoteOffEvent(tick=120, channel=9, data=[40, 64]),
   midi.NoteOffEvent(tick=0, channel=9, data=[44, 64]),
   midi.NoteOffEvent(tick=0, channel=9, data=[54, 64]),
   midi.NoteOnEvent(tick=0, channel=9, data=[36, 100]),
   midi.NoteOnEvent(tick=0, channel=9, data=[44, 100]),
   midi.NoteOffEvent(tick=120, channel=9, data=[44, 64]),
   midi.NoteOnEvent(tick=0, channel=9, data=[44, 100]),
   midi.NoteOffEvent(tick=120, channel=9, data=[36, 64]),
   midi.NoteOffEvent(tick=0, channel=9, data=[44, 64]),
   midi.NoteOnEvent(tick=0, channel=9, data=[40, 100]),
   midi.NoteOnEvent(tick=0, channel=9, data=[44, 100]),
   midi.NoteOffEvent(tick=120, channel=9, data=[44, 64]),
   midi.NoteOnEvent(tick=0, channel=9, data=[44, 100]),
   midi.NoteOffEvent(tick=120, channel=9, data=[40, 64]),
   midi.NoteOffEvent(tick=0, channel=9, data=[44, 64]),
   midi.NoteOnEvent(tick=0, channel=9, data=[36, 100]),
   midi.NoteOnEvent(tick=0, channel=9, data=[44, 100]),
   midi.NoteOffEvent(tick=120, channel=9, data=[44, 64]),
   midi.NoteOnEvent(tick=0, channel=9, data=[44, 100]),
   midi.NoteOffEvent(tick=120, channel=9, data=[36, 64]),
   midi.NoteOffEvent(tick=0, channel=9, data=[44, 64]),
   midi.NoteOnEvent(tick=0, channel=9, data=[40, 100]),
   midi.NoteOnEvent(tick=0, channel=9, data=[44, 100]),
   midi.NoteOffEvent(tick=120, channel=9, data=[44, 64]),
   midi.NoteOnEvent(tick=0, channel=9, data=[44, 100]),
   midi.NoteOffEvent(tick=120, channel=9, data=[40, 64]),
   midi.NoteOffEvent(tick=0, channel=9, data=[44, 64]),
   midi.NoteOnEvent(tick=0, channel=9, data=[36, 100]),
   midi.NoteOnEvent(tick=0, channel=9, data=[44, 100]),
   midi.NoteOffEvent(tick=120, channel=9, data=[44, 64]),
   midi.NoteOnEvent(tick=0, channel=9, data=[44, 100]),
   midi.NoteOffEvent(tick=120, channel=9, data=[36, 64]),
   midi.NoteOffEvent(tick=0, channel=9, data=[44, 64]),
   midi.NoteOnEvent(tick=0, channel=9, data=[40, 100]),
   midi.NoteOnEvent(tick=0, channel=9, data=[44, 100]),
   midi.NoteOffEvent(tick=120, channel=9, data=[44, 64]),
   midi.NoteOnEvent(tick=0, channel=9, data=[44, 100]),
   midi.NoteOffEvent(tick=120, channel=9, data=[40, 64]),
   midi.NoteOffEvent(tick=0, channel=9, data=[44, 64]),
   midi.NoteOnEvent(tick=0, channel=9, data=[36, 100]),
   midi.NoteOnEvent(tick=0, channel=9, data=[44, 100]),
   midi.NoteOffEvent(tick=120, channel=9, data=[36, 64]),
   midi.NoteOffEvent(tick=0, channel=9, data=[44, 64]),
   midi.NoteOnEvent(tick=0, channel=9, data=[36, 100]),
   midi.NoteOnEvent(tick=0, channel=9, data=[44, 100]),
   midi.NoteOffEvent(tick=120, channel=9, data=[36, 64]),
   midi.NoteOffEvent(tick=0, channel=9, data=[44, 64]),
   midi.NoteOnEvent(tick=0, channel=9, data=[40, 100]),
   midi.NoteOnEvent(tick=0, channel=9, data=[44, 100]),
   midi.NoteOffEvent(tick=120, channel=9, data=[44, 64]),
   midi.NoteOnEvent(tick=0, channel=9, data=[44, 100]),
   midi.NoteOffEvent(tick=120, channel=9, data=[40, 64]),
   midi.NoteOffEvent(tick=0, channel=9, data=[44, 64]),
   midi.NoteOnEvent(tick=0, channel=9, data=[44, 100]),
   midi.NoteOnEvent(tick=0, channel=9, data=[36, 100]),
   midi.NoteOffEvent(tick=120, channel=9, data=[44, 64]),
   midi.NoteOnEvent(tick=0, channel=9, data=[44, 100]),
   midi.NoteOffEvent(tick=120, channel=9, data=[36, 64]),
   midi.NoteOffEvent(tick=0, channel=9, data=[44, 64]),
   midi.NoteOnEvent(tick=0, channel=9, data=[44, 100]),
   midi.NoteOnEvent(tick=0, channel=9, data=[40, 100]),
   midi.NoteOffEvent(tick=120, channel=9, data=[44, 64]),
   midi.NoteOnEvent(tick=0, channel=9, data=[44, 100]),
   midi.NoteOffEvent(tick=120, channel=9, data=[40, 64]),
   midi.NoteOffEvent(tick=0, channel=9, data=[44, 64]),
   midi.NoteOnEvent(tick=0, channel=9, data=[44, 100]),
   midi.NoteOnEvent(tick=0, channel=9, data=[36, 100]),
   midi.NoteOffEvent(tick=120, channel=9, data=[44, 64]),
   midi.NoteOnEvent(tick=0, channel=9, data=[44, 100]),
   midi.NoteOffEvent(tick=120, channel=9, data=[36, 64]),
   midi.NoteOffEvent(tick=0, channel=9, data=[44, 64]),
   midi.NoteOnEvent(tick=0, channel=9, data=[44, 100]),
   midi.NoteOnEvent(tick=0, channel=9, data=[40, 100]),
   midi.NoteOffEvent(tick=120, channel=9, data=[44, 64]),
   midi.NoteOnEvent(tick=0, channel=9, data=[44, 100]),
   midi.NoteOffEvent(tick=120, channel=9, data=[40, 64]),
   midi.NoteOffEvent(tick=0, channel=9, data=[44, 64]),
   midi.NoteOnEvent(tick=0, channel=9, data=[44, 100]),
   midi.NoteOnEvent(tick=0, channel=9, data=[36, 100]),
   midi.NoteOffEvent(tick=120, channel=9, data=[44, 64]),
   midi.NoteOnEvent(tick=0, channel=9, data=[44, 100]),
   midi.NoteOffEvent(tick=120, channel=9, data=[36, 64]),
   midi.NoteOffEvent(tick=0, channel=9, data=[44, 64]),
   midi.NoteOnEvent(tick=0, channel=9, data=[44, 100]),
   midi.NoteOnEvent(tick=0, channel=9, data=[40, 100]),
   midi.NoteOffEvent(tick=120, channel=9, data=[44, 64]),
   midi.NoteOnEvent(tick=0, channel=9, data=[44, 100]),
   midi.NoteOffEvent(tick=120, channel=9, data=[40, 64]),
   midi.NoteOffEvent(tick=0, channel=9, data=[44, 64]),
   midi.NoteOnEvent(tick=0, channel=9, data=[44, 100]),
   midi.NoteOnEvent(tick=0, channel=9, data=[36, 100]),
   midi.NoteOffEvent(tick=120, channel=9, data=[44, 64]),
   midi.NoteOffEvent(tick=0, channel=9, data=[36, 64]),
   midi.NoteOnEvent(tick=0, channel=9, data=[44, 100]),
   midi.NoteOnEvent(tick=0, channel=9, data=[36, 100]),
   midi.NoteOffEvent(tick=120, channel=9, data=[44, 64]),
   midi.NoteOffEvent(tick=0, channel=9, data=[36, 64]),
   midi.NoteOnEvent(tick=0, channel=9, data=[44, 100]),
   midi.NoteOnEvent(tick=0, channel=9, data=[40, 100]),
   midi.NoteOffEvent(tick=60, channel=9, data=[40, 64]),
   midi.NoteOnEvent(tick=0, channel=9, data=[40, 100]),
   midi.NoteOffEvent(tick=60, channel=9, data=[44, 64]),
   midi.NoteOffEvent(tick=0, channel=9, data=[40, 64]),
   midi.NoteOnEvent(tick=0, channel=9, data=[44, 100]),
   midi.NoteOnEvent(tick=0, channel=9, data=[36, 100]),
   midi.NoteOffEvent(tick=120, channel=9, data=[44, 64]),
   midi.NoteOffEvent(tick=0, channel=9, data=[36, 64]),
   midi.NoteOnEvent(tick=0, channel=9, data=[36, 100]),
   midi.NoteOnEvent(tick=0, channel=9, data=[44, 100]),
   midi.NoteOffEvent(tick=120, channel=9, data=[44, 64]),
   midi.NoteOnEvent(tick=0, channel=9, data=[44, 100]),
   midi.NoteOffEvent(tick=120, channel=9, data=[36, 64]),
   midi.NoteOffEvent(tick=0, channel=9, data=[44, 64]),
   midi.NoteOnEvent(tick=0, channel=9, data=[40, 100]),
   midi.NoteOnEvent(tick=0, channel=9, data=[44, 100]),
   midi.NoteOffEvent(tick=120, channel=9, data=[44, 64]),
   midi.NoteOnEvent(tick=0, channel=9, data=[44, 100]),
   midi.NoteOffEvent(tick=120, channel=9, data=[40, 64]),
   midi.NoteOffEvent(tick=0, channel=9, data=[44, 64]),
   midi.NoteOnEvent(tick=0, channel=9, data=[36, 100]),
   midi.NoteOnEvent(tick=0, channel=9, data=[44, 100]),
   midi.NoteOffEvent(tick=120, channel=9, data=[44, 64]),
   midi.NoteOnEvent(tick=0, channel=9, data=[44, 100]),
   midi.NoteOffEvent(tick=120, channel=9, data=[36, 64]),
   midi.NoteOffEvent(tick=0, channel=9, data=[44, 64]),
   midi.NoteOnEvent(tick=0, channel=9, data=[40, 100]),
   midi.NoteOnEvent(tick=0, channel=9, data=[44, 100]),
   midi.NoteOffEvent(tick=120, channel=9, data=[44, 64]),
   midi.NoteOnEvent(tick=0, channel=9, data=[44, 100]),
   midi.NoteOffEvent(tick=120, channel=9, data=[40, 64]),
   midi.NoteOffEvent(tick=0, channel=9, data=[44, 64]),
   midi.NoteOnEvent(tick=0, channel=9, data=[36, 100]),
   midi.NoteOnEvent(tick=0, channel=9, data=[44, 100]),
   midi.NoteOffEvent(tick=120, channel=9, data=[44, 64]),
   midi.NoteOnEvent(tick=0, channel=9, data=[44, 100]),
   midi.NoteOffEvent(tick=120, channel=9, data=[36, 64]),
   midi.NoteOffEvent(tick=0, channel=9, data=[44, 64]),
   midi.NoteOnEvent(tick=0, channel=9, data=[40, 100]),
   midi.NoteOnEvent(tick=0, channel=9, data=[44, 100]),
   midi.NoteOffEvent(tick=120, channel=9, data=[44, 64]),
   midi.NoteOnEvent(tick=0, channel=9, data=[44, 100]),
   midi.NoteOffEvent(tick=120, channel=9, data=[40, 64]),
   midi.NoteOffEvent(tick=0, channel=9, data=[44, 64]),
   midi.NoteOnEvent(tick=0, channel=9, data=[36, 100]),
   midi.NoteOnEvent(tick=0, channel=9, data=[44, 100]),
   midi.NoteOffEvent(tick=120, channel=9, data=[36, 64]),
   midi.NoteOffEvent(tick=0, channel=9, data=[44, 64]),
   midi.NoteOnEvent(tick=0, channel=9, data=[36, 100]),
   midi.NoteOnEvent(tick=0, channel=9, data=[44, 100]),
   midi.NoteOffEvent(tick=120, channel=9, data=[36, 64]),
   midi.NoteOffEvent(tick=0, channel=9, data=[44, 64]),
   midi.NoteOnEvent(tick=0, channel=9, data=[40, 100]),
   midi.NoteOnEvent(tick=0, channel=9, data=[44, 100]),
   midi.NoteOffEvent(tick=60, channel=9, data=[40, 64]),
   midi.NoteOnEvent(tick=0, channel=9, data=[40, 100]),
   midi.NoteOffEvent(tick=60, channel=9, data=[44, 64]),
   midi.NoteOffEvent(tick=0, channel=9, data=[40, 64]),
   midi.NoteOnEvent(tick=0, channel=9, data=[36, 100]),
   midi.NoteOnEvent(tick=0, channel=9, data=[44, 100]),
   midi.NoteOffEvent(tick=120, channel=9, data=[36, 64]),
   midi.NoteOffEvent(tick=0, channel=9, data=[44, 64]),
   midi.NoteOnEvent(tick=0, channel=9, data=[36, 100]),
   midi.NoteOnEvent(tick=0, channel=9, data=[44, 100]),
   midi.NoteOffEvent(tick=120, channel=9, data=[44, 64]),
   midi.NoteOnEvent(tick=0, channel=9, data=[44, 100]),
   midi.NoteOffEvent(tick=120, channel=9, data=[36, 64]),
   midi.NoteOffEvent(tick=0, channel=9, data=[44, 64]),
   midi.NoteOnEvent(tick=0, channel=9, data=[40, 100]),
   midi.NoteOnEvent(tick=0, channel=9, data=[44, 100]),
   midi.NoteOffEvent(tick=120, channel=9, data=[44, 64]),
   midi.NoteOnEvent(tick=0, channel=9, data=[44, 100]),
   midi.NoteOffEvent(tick=120, channel=9, data=[40, 64]),
   midi.NoteOffEvent(tick=0, channel=9, data=[44, 64]),
   midi.NoteOnEvent(tick=0, channel=9, data=[36, 100]),
   midi.NoteOnEvent(tick=0, channel=9, data=[44, 100]),
   midi.NoteOffEvent(tick=120, channel=9, data=[44, 64]),
   midi.NoteOnEvent(tick=0, channel=9, data=[44, 100]),
   midi.NoteOffEvent(tick=120, channel=9, data=[36, 64]),
   midi.NoteOffEvent(tick=0, channel=9, data=[44, 64]),
   midi.NoteOnEvent(tick=0, channel=9, data=[40, 100]),
   midi.NoteOnEvent(tick=0, channel=9, data=[44, 100]),
   midi.NoteOffEvent(tick=120, channel=9, data=[44, 64]),
   midi.NoteOnEvent(tick=0, channel=9, data=[44, 100]),
   midi.NoteOffEvent(tick=120, channel=9, data=[40, 64]),
   midi.NoteOffEvent(tick=0, channel=9, data=[44, 64]),
   midi.NoteOnEvent(tick=0, channel=9, data=[36, 100]),
   midi.NoteOnEvent(tick=0, channel=9, data=[44, 100]),
   midi.NoteOffEvent(tick=120, channel=9, data=[44, 64]),
   midi.NoteOnEvent(tick=0, channel=9, data=[44, 100]),
   midi.NoteOffEvent(tick=120, channel=9, data=[36, 64]),
   midi.NoteOffEvent(tick=0, channel=9, data=[44, 64]),
   midi.NoteOnEvent(tick=0, channel=9, data=[40, 100]),
   midi.NoteOnEvent(tick=0, channel=9, data=[44, 100]),
   midi.NoteOffEvent(tick=120, channel=9, data=[44, 64]),
   midi.NoteOnEvent(tick=0, channel=9, data=[44, 100]),
   midi.NoteOffEvent(tick=120, channel=9, data=[40, 64]),
   midi.NoteOffEvent(tick=0, channel=9, data=[44, 64]),
   midi.NoteOnEvent(tick=0, channel=9, data=[36, 100]),
   midi.NoteOnEvent(tick=0, channel=9, data=[44, 100]),
   midi.NoteOffEvent(tick=120, channel=9, data=[36, 64]),
   midi.NoteOffEvent(tick=0, channel=9, data=[44, 64]),
   midi.NoteOnEvent(tick=0, channel=9, data=[36, 100]),
   midi.NoteOnEvent(tick=0, channel=9, data=[44, 100]),
   midi.NoteOffEvent(tick=120, channel=9, data=[36, 64]),
   midi.NoteOffEvent(tick=0, channel=9, data=[44, 64]),
   midi.NoteOnEvent(tick=0, channel=9, data=[40, 100]),
   midi.NoteOnEvent(tick=0, channel=9, data=[44, 100]),
   midi.NoteOffEvent(tick=60, channel=9, data=[40, 64]),
   midi.NoteOnEvent(tick=0, channel=9, data=[40, 100]),
   midi.NoteOffEvent(tick=60, channel=9, data=[44, 64]),
   midi.NoteOffEvent(tick=0, channel=9, data=[40, 64]),
   midi.NoteOnEvent(tick=0, channel=9, data=[36, 100]),
   midi.NoteOnEvent(tick=0, channel=9, data=[44, 100]),
   midi.NoteOffEvent(tick=120, channel=9, data=[36, 64]),
   midi.NoteOffEvent(tick=0, channel=9, data=[44, 64]),
   midi.NoteOnEvent(tick=0, channel=9, data=[36, 100]),
   midi.NoteOffEvent(tick=0, channel=9, data=[36, 64]),
   midi.NoteOnEvent(tick=0, channel=9, data=[44, 100]),
   midi.NoteOffEvent(tick=0, channel=9, data=[44, 64]),
   midi.NoteOnEvent(tick=120, channel=9, data=[44, 100]),
   midi.NoteOffEvent(tick=120, channel=9, data=[44, 64]),
   midi.NoteOnEvent(tick=0, channel=9, data=[40, 100]),
   midi.NoteOnEvent(tick=0, channel=9, data=[44, 100]),
   midi.NoteOffEvent(tick=120, channel=9, data=[44, 64]),
   midi.NoteOnEvent(tick=0, channel=9, data=[44, 100]),
   midi.NoteOffEvent(tick=120, channel=9, data=[40, 64]),
   midi.NoteOffEvent(tick=0, channel=9, data=[44, 64]),
   midi.NoteOnEvent(tick=0, channel=9, data=[36, 100]),
   midi.NoteOnEvent(tick=0, channel=9, data=[44, 100]),
   midi.NoteOffEvent(tick=120, channel=9, data=[44, 64]),
   midi.NoteOnEvent(tick=0, channel=9, data=[44, 100]),
   midi.NoteOffEvent(tick=120, channel=9, data=[36, 64]),
   midi.NoteOffEvent(tick=0, channel=9, data=[44, 64]),
   midi.NoteOnEvent(tick=0, channel=9, data=[40, 100]),
   midi.NoteOnEvent(tick=0, channel=9, data=[44, 100]),
   midi.NoteOffEvent(tick=120, channel=9, data=[44, 64]),
   midi.NoteOnEvent(tick=0, channel=9, data=[44, 100]),
   midi.NoteOffEvent(tick=120, channel=9, data=[40, 64]),
   midi.NoteOffEvent(tick=0, channel=9, data=[44, 64]),
   midi.NoteOnEvent(tick=0, channel=9, data=[36, 100]),
   midi.NoteOnEvent(tick=0, channel=9, data=[44, 100]),
   midi.NoteOffEvent(tick=120, channel=9, data=[44, 64]),
   midi.NoteOnEvent(tick=0, channel=9, data=[44, 100]),
   midi.NoteOffEvent(tick=120, channel=9, data=[36, 64]),
   midi.NoteOffEvent(tick=0, channel=9, data=[44, 64]),
   midi.NoteOnEvent(tick=0, channel=9, data=[40, 100]),
   midi.NoteOnEvent(tick=0, channel=9, data=[44, 100]),
   midi.NoteOffEvent(tick=120, channel=9, data=[44, 64]),
   midi.NoteOnEvent(tick=0, channel=9, data=[44, 100]),
   midi.NoteOffEvent(tick=120, channel=9, data=[40, 64]),
   midi.NoteOffEvent(tick=0, channel=9, data=[44, 64]),
   midi.NoteOnEvent(tick=0, channel=9, data=[36, 100]),
   midi.NoteOnEvent(tick=0, channel=9, data=[44, 100]),
   midi.NoteOffEvent(tick=120, channel=9, data=[36, 64]),
   midi.NoteOffEvent(tick=0, channel=9, data=[44, 64]),
   midi.NoteOnEvent(tick=0, channel=9, data=[36, 100]),
   midi.NoteOnEvent(tick=0, channel=9, data=[44, 100]),
   midi.NoteOffEvent(tick=120, channel=9, data=[36, 64]),
   midi.NoteOffEvent(tick=0, channel=9, data=[44, 64]),
   midi.NoteOnEvent(tick=0, channel=9, data=[40, 100]),
   midi.NoteOnEvent(tick=0, channel=9, data=[44, 100]),
   midi.NoteOffEvent(tick=120, channel=9, data=[44, 64]),
   midi.NoteOnEvent(tick=0, channel=9, data=[44, 100]),
   midi.NoteOffEvent(tick=120, channel=9, data=[40, 64]),
   midi.NoteOffEvent(tick=0, channel=9, data=[44, 64]),
   midi.NoteOnEvent(tick=0, channel=9, data=[44, 100]),
   midi.NoteOnEvent(tick=0, channel=9, data=[36, 100]),
   midi.NoteOffEvent(tick=120, channel=9, data=[44, 64]),
   midi.NoteOnEvent(tick=0, channel=9, data=[44, 100]),
   midi.NoteOffEvent(tick=120, channel=9, data=[36, 64]),
   midi.NoteOffEvent(tick=0, channel=9, data=[44, 64]),
   midi.NoteOnEvent(tick=0, channel=9, data=[44, 100]),
   midi.NoteOnEvent(tick=0, channel=9, data=[40, 100]),
   midi.NoteOffEvent(tick=120, channel=9, data=[44, 64]),
   midi.NoteOnEvent(tick=0, channel=9, data=[44, 100]),
   midi.NoteOffEvent(tick=120, channel=9, data=[40, 64]),
   midi.NoteOffEvent(tick=0, channel=9, data=[44, 64]),
   midi.NoteOnEvent(tick=0, channel=9, data=[44, 100]),
   midi.NoteOnEvent(tick=0, channel=9, data=[36, 100]),
   midi.NoteOffEvent(tick=120, channel=9, data=[44, 64]),
   midi.NoteOnEvent(tick=0, channel=9, data=[44, 100]),
   midi.NoteOffEvent(tick=120, channel=9, data=[36, 64]),
   midi.NoteOffEvent(tick=0, channel=9, data=[44, 64]),
   midi.NoteOnEvent(tick=0, channel=9, data=[44, 100]),
   midi.NoteOnEvent(tick=0, channel=9, data=[40, 100]),
   midi.NoteOffEvent(tick=120, channel=9, data=[44, 64]),
   midi.NoteOnEvent(tick=0, channel=9, data=[44, 100]),
   midi.NoteOffEvent(tick=120, channel=9, data=[40, 64]),
   midi.NoteOffEvent(tick=0, channel=9, data=[44, 64]),
   midi.NoteOnEvent(tick=0, channel=9, data=[44, 100]),
   midi.NoteOnEvent(tick=0, channel=9, data=[36, 100]),
   midi.NoteOffEvent(tick=120, channel=9, data=[44, 64]),
   midi.NoteOnEvent(tick=0, channel=9, data=[44, 100]),
   midi.NoteOffEvent(tick=120, channel=9, data=[36, 64]),
   midi.NoteOffEvent(tick=0, channel=9, data=[44, 64]),
   midi.NoteOnEvent(tick=0, channel=9, data=[44, 100]),
   midi.NoteOnEvent(tick=0, channel=9, data=[40, 100]),
   midi.NoteOffEvent(tick=120, channel=9, data=[44, 64]),
   midi.NoteOnEvent(tick=0, channel=9, data=[44, 100]),
   midi.NoteOffEvent(tick=120, channel=9, data=[40, 64]),
   midi.NoteOffEvent(tick=0, channel=9, data=[44, 64]),
   midi.NoteOnEvent(tick=0, channel=9, data=[44, 100]),
   midi.NoteOnEvent(tick=0, channel=9, data=[36, 100]),
   midi.NoteOffEvent(tick=120, channel=9, data=[44, 64]),
   midi.NoteOffEvent(tick=0, channel=9, data=[36, 64]),
   midi.NoteOnEvent(tick=0, channel=9, data=[44, 100]),
   midi.NoteOnEvent(tick=0, channel=9, data=[36, 100]),
   midi.NoteOffEvent(tick=120, channel=9, data=[44, 64]),
   midi.NoteOffEvent(tick=0, channel=9, data=[36, 64]),
   midi.NoteOnEvent(tick=0, channel=9, data=[44, 100]),
   midi.NoteOnEvent(tick=0, channel=9, data=[40, 100]),
   midi.NoteOffEvent(tick=60, channel=9, data=[40, 64]),
   midi.NoteOnEvent(tick=0, channel=9, data=[40, 100]),
   midi.NoteOffEvent(tick=60, channel=9, data=[44, 64]),
   midi.NoteOffEvent(tick=0, channel=9, data=[40, 64]),
   midi.NoteOnEvent(tick=0, channel=9, data=[44, 100]),
   midi.NoteOnEvent(tick=0, channel=9, data=[36, 100]),
   midi.NoteOffEvent(tick=120, channel=9, data=[44, 64]),
   midi.NoteOffEvent(tick=0, channel=9, data=[36, 64]),
   midi.NoteOnEvent(tick=0, channel=9, data=[36, 100]),
   midi.NoteOnEvent(tick=0, channel=9, data=[44, 100]),
   midi.NoteOffEvent(tick=120, channel=9, data=[44, 64]),
   midi.NoteOnEvent(tick=0, channel=9, data=[44, 100]),
   midi.NoteOffEvent(tick=120, channel=9, data=[36, 64]),
   midi.NoteOffEvent(tick=0, channel=9, data=[44, 64]),
   midi.NoteOnEvent(tick=0, channel=9, data=[40, 100]),
   midi.NoteOnEvent(tick=0, channel=9, data=[44, 100]),
   midi.NoteOffEvent(tick=120, channel=9, data=[44, 64]),
   midi.NoteOnEvent(tick=0, channel=9, data=[44, 100]),
   midi.NoteOffEvent(tick=120, channel=9, data=[40, 64]),
   midi.NoteOffEvent(tick=0, channel=9, data=[44, 64]),
   midi.NoteOnEvent(tick=0, channel=9, data=[36, 100]),
   midi.NoteOnEvent(tick=0, channel=9, data=[44, 100]),
   midi.NoteOffEvent(tick=120, channel=9, data=[44, 64]),
   midi.NoteOnEvent(tick=0, channel=9, data=[44, 100]),
   midi.NoteOffEvent(tick=120, channel=9, data=[36, 64]),
   midi.NoteOffEvent(tick=0, channel=9, data=[44, 64]),
   midi.NoteOnEvent(tick=0, channel=9, data=[40, 100]),
   midi.NoteOnEvent(tick=0, channel=9, data=[44, 100]),
   midi.NoteOffEvent(tick=120, channel=9, data=[44, 64]),
   midi.NoteOnEvent(tick=0, channel=9, data=[44, 100]),
   midi.NoteOffEvent(tick=120, channel=9, data=[40, 64]),
   midi.NoteOffEvent(tick=0, channel=9, data=[44, 64]),
   midi.NoteOnEvent(tick=0, channel=9, data=[36, 100]),
   midi.NoteOnEvent(tick=0, channel=9, data=[44, 100]),
   midi.NoteOffEvent(tick=120, channel=9, data=[44, 64]),
   midi.NoteOnEvent(tick=0, channel=9, data=[44, 100]),
   midi.NoteOffEvent(tick=120, channel=9, data=[36, 64]),
   midi.NoteOffEvent(tick=0, channel=9, data=[44, 64]),
   midi.NoteOnEvent(tick=0, channel=9, data=[40, 100]),
   midi.NoteOnEvent(tick=0, channel=9, data=[44, 100]),
   midi.NoteOffEvent(tick=120, channel=9, data=[44, 64]),
   midi.NoteOnEvent(tick=0, channel=9, data=[44, 100]),
   midi.NoteOffEvent(tick=120, channel=9, data=[40, 64]),
   midi.NoteOffEvent(tick=0, channel=9, data=[44, 64]),
   midi.NoteOnEvent(tick=0, channel=9, data=[36, 100]),
   midi.NoteOnEvent(tick=0, channel=9, data=[44, 100]),
   midi.NoteOffEvent(tick=120, channel=9, data=[36, 64]),
   midi.NoteOffEvent(tick=0, channel=9, data=[44, 64]),
   midi.NoteOnEvent(tick=0, channel=9, data=[36, 100]),
   midi.NoteOnEvent(tick=0, channel=9, data=[44, 100]),
   midi.NoteOffEvent(tick=120, channel=9, data=[36, 64]),
   midi.NoteOffEvent(tick=0, channel=9, data=[44, 64]),
   midi.NoteOnEvent(tick=0, channel=9, data=[40, 100]),
   midi.NoteOnEvent(tick=0, channel=9, data=[44, 100]),
   midi.NoteOffEvent(tick=60, channel=9, data=[40, 64]),
   midi.NoteOnEvent(tick=0, channel=9, data=[40, 100]),
   midi.NoteOffEvent(tick=60, channel=9, data=[44, 64]),
   midi.NoteOffEvent(tick=0, channel=9, data=[40, 64]),
   midi.NoteOnEvent(tick=0, channel=9, data=[36, 100]),
   midi.NoteOnEvent(tick=0, channel=9, data=[44, 100]),
   midi.NoteOffEvent(tick=120, channel=9, data=[36, 64]),
   midi.NoteOffEvent(tick=0, channel=9, data=[44, 64]),
   midi.NoteOnEvent(tick=0, channel=9, data=[36, 100]),
   midi.NoteOnEvent(tick=0, channel=9, data=[44, 100]),
   midi.NoteOffEvent(tick=120, channel=9, data=[44, 64]),
   midi.NoteOnEvent(tick=0, channel=9, data=[44, 100]),
   midi.NoteOffEvent(tick=120, channel=9, data=[36, 64]),
   midi.NoteOffEvent(tick=0, channel=9, data=[44, 64]),
   midi.NoteOnEvent(tick=0, channel=9, data=[40, 100]),
   midi.NoteOnEvent(tick=0, channel=9, data=[44, 100]),
   midi.NoteOffEvent(tick=120, channel=9, data=[44, 64]),
   midi.NoteOnEvent(tick=0, channel=9, data=[44, 100]),
   midi.NoteOffEvent(tick=120, channel=9, data=[40, 64]),
   midi.NoteOffEvent(tick=0, channel=9, data=[44, 64]),
   midi.NoteOnEvent(tick=0, channel=9, data=[36, 100]),
   midi.NoteOnEvent(tick=0, channel=9, data=[44, 100]),
   midi.NoteOffEvent(tick=120, channel=9, data=[44, 64]),
   midi.NoteOnEvent(tick=0, channel=9, data=[44, 100]),
   midi.NoteOffEvent(tick=120, channel=9, data=[36, 64]),
   midi.NoteOffEvent(tick=0, channel=9, data=[44, 64]),
   midi.NoteOnEvent(tick=0, channel=9, data=[40, 100]),
   midi.NoteOnEvent(tick=0, channel=9, data=[44, 100]),
   midi.NoteOffEvent(tick=120, channel=9, data=[44, 64]),
   midi.NoteOnEvent(tick=0, channel=9, data=[44, 100]),
   midi.NoteOffEvent(tick=120, channel=9, data=[40, 64]),
   midi.NoteOffEvent(tick=0, channel=9, data=[44, 64]),
   midi.NoteOnEvent(tick=0, channel=9, data=[36, 100]),
   midi.NoteOnEvent(tick=0, channel=9, data=[44, 100]),
   midi.NoteOffEvent(tick=120, channel=9, data=[44, 64]),
   midi.NoteOnEvent(tick=0, channel=9, data=[44, 100]),
   midi.NoteOffEvent(tick=120, channel=9, data=[36, 64]),
   midi.NoteOffEvent(tick=0, channel=9, data=[44, 64]),
   midi.NoteOnEvent(tick=0, channel=9, data=[40, 100]),
   midi.NoteOnEvent(tick=0, channel=9, data=[44, 100]),
   midi.NoteOffEvent(tick=120, channel=9, data=[44, 64]),
   midi.NoteOnEvent(tick=0, channel=9, data=[44, 100]),
   midi.NoteOffEvent(tick=120, channel=9, data=[40, 64]),
   midi.NoteOffEvent(tick=0, channel=9, data=[44, 64]),
   midi.NoteOnEvent(tick=0, channel=9, data=[36, 100]),
   midi.NoteOnEvent(tick=0, channel=9, data=[44, 100]),
   midi.NoteOffEvent(tick=120, channel=9, data=[36, 64]),
   midi.NoteOffEvent(tick=0, channel=9, data=[44, 64]),
   midi.NoteOnEvent(tick=0, channel=9, data=[36, 100]),
   midi.NoteOnEvent(tick=0, channel=9, data=[44, 100]),
   midi.NoteOffEvent(tick=120, channel=9, data=[36, 64]),
   midi.NoteOffEvent(tick=0, channel=9, data=[44, 64]),
   midi.NoteOnEvent(tick=0, channel=9, data=[40, 100]),
   midi.NoteOnEvent(tick=0, channel=9, data=[44, 100]),
   midi.NoteOffEvent(tick=60, channel=9, data=[40, 64]),
   midi.NoteOnEvent(tick=0, channel=9, data=[40, 100]),
   midi.NoteOffEvent(tick=60, channel=9, data=[44, 64]),
   midi.NoteOffEvent(tick=0, channel=9, data=[40, 64]),
   midi.NoteOnEvent(tick=0, channel=9, data=[36, 100]),
   midi.NoteOnEvent(tick=0, channel=9, data=[44, 100]),
   midi.NoteOffEvent(tick=120, channel=9, data=[36, 64]),
   midi.NoteOffEvent(tick=0, channel=9, data=[44, 64]),
   midi.NoteOnEvent(tick=278, channel=9, data=[42, 100]),
   midi.NoteOnEvent(tick=2, channel=9, data=[69, 100]),
   midi.NoteOnEvent(tick=74, channel=9, data=[69, 0]),
   midi.NoteOnEvent(tick=57, channel=9, data=[42, 0]),
   midi.NoteOnEvent(tick=266, channel=9, data=[44, 100]),
   midi.NoteOnEvent(tick=1, channel=9, data=[70, 100]),
   midi.NoteOnEvent(tick=100, channel=9, data=[70, 0]),
   midi.NoteOnEvent(tick=24, channel=9, data=[44, 0]),
   midi.NoteOnEvent(tick=134, channel=9, data=[69, 100]),
   midi.NoteOnEvent(tick=78, channel=9, data=[69, 0]),
   midi.NoteOnEvent(tick=53, channel=9, data=[70, 100]),
   midi.NoteOnEvent(tick=10, channel=9, data=[42, 100]),
   midi.NoteOnEvent(tick=80, channel=9, data=[70, 0]),
   midi.NoteOnEvent(tick=25, channel=9, data=[42, 0]),
   midi.NoteOnEvent(tick=16, channel=9, data=[69, 100]),
   midi.NoteOnEvent(tick=67, channel=9, data=[69, 0]),
   midi.NoteOnEvent(tick=61, channel=9, data=[70, 100]),
   midi.NoteOnEvent(tick=15, channel=9, data=[44, 100]),
   midi.NoteOnEvent(tick=79, channel=9, data=[70, 0]),
   midi.NoteOnEvent(tick=25, channel=9, data=[44, 0]),
   midi.NoteOnEvent(tick=285, channel=9, data=[42, 100]),
   midi.NoteOnEvent(tick=6, channel=9, data=[69, 100]),
   midi.NoteOnEvent(tick=87, channel=9, data=[69, 0]),
   midi.NoteOnEvent(tick=12, channel=9, data=[42, 0]),
   midi.NoteOnEvent(tick=147, channel=9, data=[70, 100]),
   midi.NoteOnEvent(tick=63, channel=9, data=[70, 0]),
   midi.NoteOnEvent(tick=66, channel=9, data=[69, 100]),
   midi.NoteOnEvent(tick=7, channel=9, data=[44, 100]),
   midi.NoteOnEvent(tick=64, channel=9, data=[69, 0]),
   midi.NoteOnEvent(tick=32, channel=9, data=[44, 0]),
   midi.NoteOnEvent(tick=27, channel=9, data=[70, 100]),
   midi.NoteOnEvent(tick=68, channel=9, data=[70, 0]),
   midi.NoteOnEvent(tick=66, channel=9, data=[42, 100]),
   midi.NoteOnEvent(tick=3, channel=9, data=[69, 100]),
   midi.NoteOnEvent(tick=76, channel=9, data=[69, 0]),
   midi.NoteOnEvent(tick=16, channel=9, data=[42, 0]),
   midi.NoteOnEvent(tick=307, channel=9, data=[69, 100]),
   midi.NoteOnEvent(tick=2, channel=9, data=[42, 100]),
   midi.NoteOnEvent(tick=77, channel=9, data=[69, 0]),
   midi.NoteOnEvent(tick=43, channel=9, data=[42, 0]),
   midi.NoteOnEvent(tick=143, channel=9, data=[70, 100]),
   midi.NoteOnEvent(tick=64, channel=9, data=[70, 0]),
   midi.NoteOnEvent(tick=59, channel=9, data=[69, 100]),
   midi.NoteOnEvent(tick=6, channel=9, data=[44, 100]),
   midi.NoteOnEvent(tick=77, channel=9, data=[69, 0]),
   midi.NoteOnEvent(tick=30, channel=9, data=[44, 0]),
   midi.NoteOnEvent(tick=17, channel=9, data=[70, 100]),
   midi.NoteOnEvent(tick=68, channel=9, data=[70, 0]),
   midi.NoteOnEvent(tick=64, channel=9, data=[69, 100]),
   midi.NoteOnEvent(tick=8, channel=9, data=[42, 100]),
   midi.NoteOnEvent(tick=81, channel=9, data=[69, 0]),
   midi.NoteOnEvent(tick=27, channel=9, data=[42, 0]),
   midi.NoteOnEvent(tick=255, channel=9, data=[69, 100]),
   midi.NoteOnEvent(tick=4, channel=9, data=[42, 100]),
   midi.NoteOnEvent(tick=84, channel=9, data=[69, 0]),
   midi.NoteOnEvent(tick=27, channel=9, data=[42, 0]),
   midi.NoteOnEvent(tick=155, channel=9, data=[70, 100]),
   midi.NoteOnEvent(tick=71, channel=9, data=[70, 0]),
   midi.NoteOnEvent(tick=47, channel=9, data=[69, 100]),
   midi.NoteOnEvent(tick=9, channel=9, data=[44, 100]),
   midi.NoteOnEvent(tick=74, channel=9, data=[69, 0]),
   midi.NoteOnEvent(tick=20, channel=9, data=[44, 0]),
   midi.NoteOnEvent(tick=25, channel=9, data=[70, 100]),
   midi.NoteOnEvent(tick=69, channel=9, data=[70, 0]),
   midi.NoteOnEvent(tick=61, channel=9, data=[69, 100]),
   midi.NoteOnEvent(tick=16, channel=9, data=[42, 100]),
   midi.NoteOnEvent(tick=79, channel=9, data=[69, 0]),
   midi.NoteOnEvent(tick=26, channel=9, data=[42, 0]),
   midi.NoteOnEvent(tick=269, channel=9, data=[69, 100]),
   midi.NoteOnEvent(tick=7, channel=9, data=[42, 100]),
   midi.NoteOnEvent(tick=82, channel=9, data=[69, 0]),
   midi.NoteOnEvent(tick=39, channel=9, data=[42, 0]),
   midi.NoteOnEvent(tick=119, channel=9, data=[69, 100]),
   midi.NoteOnEvent(tick=44, channel=9, data=[69, 0]),
   midi.NoteOnEvent(tick=108, channel=9, data=[70, 100]),
   midi.NoteOnEvent(tick=4, channel=9, data=[44, 100]),
   midi.NoteOnEvent(tick=79, channel=9, data=[70, 0]),
   midi.NoteOnEvent(tick=21, channel=9, data=[69, 100]),
   midi.NoteOnEvent(tick=15, channel=9, data=[44, 0]),
   midi.NoteOnEvent(tick=57, channel=9, data=[69, 0]),
   midi.NoteOnEvent(tick=61, channel=9, data=[70, 100]),
   midi.NoteOnEvent(tick=22, channel=9, data=[42, 100]),
   midi.NoteOnEvent(tick=87, channel=9, data=[70, 0]),
   midi.NoteOnEvent(tick=37, channel=9, data=[42, 0]),
   midi.NoteOnEvent(tick=258, channel=9, data=[69, 100]),
   midi.NoteOnEvent(tick=9, channel=9, data=[42, 100]),
   midi.NoteOnEvent(tick=65, channel=9, data=[69, 0]),
   midi.NoteOnEvent(tick=45, channel=9, data=[42, 0]),
   midi.NoteOnEvent(tick=145, channel=9, data=[70, 100]),
   midi.NoteOnEvent(tick=57, channel=9, data=[70, 0]),
   midi.NoteOnEvent(tick=81, channel=9, data=[69, 100]),
   midi.NoteOnEvent(tick=6, channel=9, data=[44, 100]),
   midi.NoteOnEvent(tick=72, channel=9, data=[69, 0]),
   midi.NoteOnEvent(tick=28, channel=9, data=[44, 0]),
   midi.NoteOnEvent(tick=11, channel=9, data=[70, 100]),
   midi.NoteOnEvent(tick=70, channel=9, data=[70, 0]),
   midi.NoteOnEvent(tick=66, channel=9, data=[69, 100]),
   midi.NoteOnEvent(tick=4, channel=9, data=[42, 100]),
   midi.NoteOnEvent(tick=84, channel=9, data=[69, 0]),
   midi.NoteOnEvent(tick=32, channel=9, data=[42, 0]),
   midi.NoteOnEvent(tick=248, channel=9, data=[69, 100]),
   midi.NoteOnEvent(tick=5, channel=9, data=[42, 100]),
   midi.NoteOnEvent(tick=73, channel=9, data=[69, 0]),
   midi.NoteOnEvent(tick=48, channel=9, data=[42, 0]),
   midi.NoteOnEvent(tick=121, channel=9, data=[70, 100]),
   midi.NoteOnEvent(tick=64, channel=9, data=[70, 0]),
   midi.NoteOnEvent(tick=64, channel=9, data=[69, 100]),
   midi.NoteOnEvent(tick=12, channel=9, data=[44, 100]),
   midi.NoteOnEvent(tick=73, channel=9, data=[69, 0]),
   midi.NoteOnEvent(tick=24, channel=9, data=[44, 0]),
   midi.NoteOnEvent(tick=18, channel=9, data=[70, 100]),
   midi.NoteOnEvent(tick=73, channel=9, data=[70, 0]),
   midi.NoteOnEvent(tick=58, channel=9, data=[69, 100]),
   midi.NoteOnEvent(tick=11, channel=9, data=[42, 100]),
   midi.NoteOnEvent(tick=77, channel=9, data=[69, 0]),
   midi.NoteOnEvent(tick=31, channel=9, data=[42, 0]),
   midi.NoteOnEvent(tick=293, channel=9, data=[42, 100]),
   midi.NoteOnEvent(tick=1, channel=9, data=[69, 100]),
   midi.NoteOnEvent(tick=71, channel=9, data=[69, 0]),
   midi.NoteOnEvent(tick=40, channel=9, data=[42, 0]),
   midi.NoteOnEvent(tick=128, channel=9, data=[70, 100]),
   midi.NoteOnEvent(tick=79, channel=9, data=[70, 0]),
   midi.NoteOnEvent(tick=74, channel=9, data=[69, 100]),
   midi.NoteOnEvent(tick=13, channel=9, data=[44, 100]),
   midi.NoteOnEvent(tick=60, channel=9, data=[69, 0]),
   midi.NoteOnEvent(tick=32, channel=9, data=[44, 0]),
   midi.NoteOnEvent(tick=13, channel=9, data=[70, 100]),
   midi.NoteOnEvent(tick=64, channel=9, data=[70, 0]),
   midi.NoteOnEvent(tick=85, channel=9, data=[69, 100]),
   midi.NoteOnEvent(tick=5, channel=9, data=[42, 100]),
   midi.NoteOnEvent(tick=33, channel=9, data=[36, 100]),
   midi.NoteOnEvent(tick=0, channel=9, data=[44, 100]),
   midi.NoteOnEvent(tick=0, channel=9, data=[44, 100]),
   midi.NoteOnEvent(tick=21, channel=9, data=[69, 0]),
   midi.NoteOnEvent(tick=12, channel=9, data=[42, 0]),
   midi.NoteOffEvent(tick=87, channel=9, data=[44, 64]),
   midi.NoteOffEvent(tick=0, channel=9, data=[44, 64]),
   midi.NoteOnEvent(tick=0, channel=9, data=[44, 100]),
   midi.NoteOnEvent(tick=0, channel=9, data=[44, 100]),
   midi.NoteOffEvent(tick=120, channel=9, data=[36, 64]),
   midi.NoteOffEvent(tick=0, channel=9, data=[44, 64]),
   midi.NoteOffEvent(tick=0, channel=9, data=[44, 64]),
   midi.NoteOnEvent(tick=0, channel=9, data=[40, 100]),
   midi.NoteOnEvent(tick=0, channel=9, data=[44, 100]),
   midi.NoteOnEvent(tick=0, channel=9, data=[54, 100]),
   midi.NoteOffEvent(tick=120, channel=9, data=[44, 64]),
   midi.NoteOffEvent(tick=0, channel=9, data=[54, 64]),
   midi.NoteOnEvent(tick=0, channel=9, data=[44, 100]),
   midi.NoteOnEvent(tick=0, channel=9, data=[54, 100]),
   midi.NoteOffEvent(tick=120, channel=9, data=[40, 64]),
   midi.NoteOffEvent(tick=0, channel=9, data=[44, 64]),
   midi.NoteOffEvent(tick=0, channel=9, data=[54, 64]),
   midi.NoteOnEvent(tick=0, channel=9, data=[36, 100]),
   midi.NoteOnEvent(tick=0, channel=9, data=[44, 100]),
   midi.NoteOnEvent(tick=0, channel=9, data=[44, 100]),
   midi.NoteOffEvent(tick=120, channel=9, data=[44, 64]),
   midi.NoteOffEvent(tick=0, channel=9, data=[44, 64]),
   midi.NoteOnEvent(tick=0, channel=9, data=[44, 100]),
   midi.NoteOnEvent(tick=0, channel=9, data=[44, 100]),
   midi.NoteOffEvent(tick=120, channel=9, data=[36, 64]),
   midi.NoteOffEvent(tick=0, channel=9, data=[44, 64]),
   midi.NoteOffEvent(tick=0, channel=9, data=[44, 64]),
   midi.NoteOnEvent(tick=0, channel=9, data=[40, 100]),
   midi.NoteOnEvent(tick=0, channel=9, data=[44, 100]),
   midi.NoteOnEvent(tick=0, channel=9, data=[54, 100]),
   midi.NoteOffEvent(tick=120, channel=9, data=[44, 64]),
   midi.NoteOffEvent(tick=0, channel=9, data=[54, 64]),
   midi.NoteOnEvent(tick=0, channel=9, data=[44, 100]),
   midi.NoteOnEvent(tick=0, channel=9, data=[54, 100]),
   midi.NoteOffEvent(tick=120, channel=9, data=[40, 64]),
   midi.NoteOffEvent(tick=0, channel=9, data=[44, 64]),
   midi.NoteOffEvent(tick=0, channel=9, data=[54, 64]),
   midi.NoteOnEvent(tick=0, channel=9, data=[36, 100]),
   midi.NoteOnEvent(tick=0, channel=9, data=[44, 100]),
   midi.NoteOnEvent(tick=0, channel=9, data=[44, 100]),
   midi.NoteOffEvent(tick=120, channel=9, data=[44, 64]),
   midi.NoteOffEvent(tick=0, channel=9, data=[44, 64]),
   midi.NoteOnEvent(tick=0, channel=9, data=[44, 100]),
   midi.NoteOnEvent(tick=0, channel=9, data=[44, 100]),
   midi.NoteOffEvent(tick=120, channel=9, data=[36, 64]),
   midi.NoteOffEvent(tick=0, channel=9, data=[44, 64]),
   midi.NoteOffEvent(tick=0, channel=9, data=[44, 64]),
   midi.NoteOnEvent(tick=0, channel=9, data=[40, 100]),
   midi.NoteOnEvent(tick=0, channel=9, data=[44, 100]),
   midi.NoteOnEvent(tick=0, channel=9, data=[54, 100]),
   midi.NoteOffEvent(tick=120, channel=9, data=[44, 64]),
   midi.NoteOffEvent(tick=0, channel=9, data=[54, 64]),
   midi.NoteOnEvent(tick=0, channel=9, data=[44, 100]),
   midi.NoteOnEvent(tick=0, channel=9, data=[54, 100]),
   midi.NoteOffEvent(tick=120, channel=9, data=[40, 64]),
   midi.NoteOffEvent(tick=0, channel=9, data=[44, 64]),
   midi.NoteOffEvent(tick=0, channel=9, data=[54, 64]),
   midi.NoteOnEvent(tick=0, channel=9, data=[36, 100]),
   midi.NoteOnEvent(tick=0, channel=9, data=[44, 100]),
   midi.NoteOnEvent(tick=0, channel=9, data=[44, 100]),
   midi.NoteOffEvent(tick=120, channel=9, data=[44, 64]),
   midi.NoteOffEvent(tick=0, channel=9, data=[44, 64]),
   midi.NoteOnEvent(tick=0, channel=9, data=[44, 100]),
   midi.NoteOnEvent(tick=0, channel=9, data=[44, 100]),
   midi.NoteOffEvent(tick=120, channel=9, data=[36, 64]),
   midi.NoteOffEvent(tick=0, channel=9, data=[44, 64]),
   midi.NoteOffEvent(tick=0, channel=9, data=[44, 64]),
   midi.NoteOnEvent(tick=0, channel=9, data=[40, 100]),
   midi.NoteOnEvent(tick=0, channel=9, data=[44, 100]),
   midi.NoteOnEvent(tick=0, channel=9, data=[54, 100]),
   midi.NoteOffEvent(tick=120, channel=9, data=[44, 0]),
   midi.NoteOffEvent(tick=0, channel=9, data=[54, 64]),
   midi.NoteOnEvent(tick=0, channel=9, data=[44, 100]),
   midi.NoteOnEvent(tick=0, channel=9, data=[54, 100]),
   midi.NoteOnEvent(tick=117, channel=9, data=[36, 100]),
   midi.NoteOnEvent(tick=0, channel=9, data=[44, 100]),
   midi.NoteOnEvent(tick=0, channel=9, data=[44, 100]),
   midi.NoteOffEvent(tick=3, channel=9, data=[40, 64]),
   midi.NoteOffEvent(tick=0, channel=9, data=[44, 64]),
   midi.NoteOffEvent(tick=0, channel=9, data=[54, 64]),
   midi.NoteOffEvent(tick=0, channel=9, data=[44, 64]),
   midi.NoteOffEvent(tick=0, channel=9, data=[44, 64]),
   midi.NoteOnEvent(tick=117, channel=9, data=[44, 100]),
   midi.NoteOnEvent(tick=0, channel=9, data=[44, 100]),
   midi.NoteOffEvent(tick=120, channel=9, data=[36, 64]),
   midi.NoteOffEvent(tick=0, channel=9, data=[44, 64]),
   midi.NoteOffEvent(tick=0, channel=9, data=[44, 64]),
   midi.NoteOnEvent(tick=0, channel=9, data=[40, 100]),
   midi.NoteOnEvent(tick=0, channel=9, data=[44, 100]),
   midi.NoteOnEvent(tick=0, channel=9, data=[54, 100]),
   midi.NoteOffEvent(tick=120, channel=9, data=[44, 64]),
   midi.NoteOffEvent(tick=0, channel=9, data=[54, 64]),
   midi.NoteOnEvent(tick=0, channel=9, data=[44, 100]),
   midi.NoteOnEvent(tick=0, channel=9, data=[54, 100]),
   midi.NoteOffEvent(tick=120, channel=9, data=[40, 64]),
   midi.NoteOffEvent(tick=0, channel=9, data=[44, 64]),
   midi.NoteOffEvent(tick=0, channel=9, data=[54, 64]),
   midi.NoteOnEvent(tick=0, channel=9, data=[36, 100]),
   midi.NoteOnEvent(tick=0, channel=9, data=[44, 100]),
   midi.NoteOnEvent(tick=0, channel=9, data=[44, 100]),
   midi.NoteOffEvent(tick=120, channel=9, data=[44, 64]),
   midi.NoteOffEvent(tick=0, channel=9, data=[44, 64]),
   midi.NoteOnEvent(tick=0, channel=9, data=[44, 100]),
   midi.NoteOnEvent(tick=0, channel=9, data=[44, 100]),
   midi.NoteOffEvent(tick=120, channel=9, data=[36, 64]),
   midi.NoteOffEvent(tick=0, channel=9, data=[44, 64]),
   midi.NoteOffEvent(tick=0, channel=9, data=[44, 64]),
   midi.NoteOnEvent(tick=0, channel=9, data=[40, 100]),
   midi.NoteOnEvent(tick=0, channel=9, data=[44, 100]),
   midi.NoteOnEvent(tick=0, channel=9, data=[54, 100]),
   midi.NoteOffEvent(tick=120, channel=9, data=[44, 64]),
   midi.NoteOffEvent(tick=0, channel=9, data=[54, 64]),
   midi.NoteOnEvent(tick=0, channel=9, data=[44, 100]),
   midi.NoteOnEvent(tick=0, channel=9, data=[54, 100]),
   midi.NoteOffEvent(tick=120, channel=9, data=[40, 64]),
   midi.NoteOffEvent(tick=0, channel=9, data=[44, 64]),
   midi.NoteOffEvent(tick=0, channel=9, data=[54, 64]),
   midi.NoteOnEvent(tick=0, channel=9, data=[36, 100]),
   midi.NoteOnEvent(tick=0, channel=9, data=[44, 100]),
   midi.NoteOnEvent(tick=0, channel=9, data=[44, 100]),
   midi.NoteOffEvent(tick=120, channel=9, data=[44, 64]),
   midi.NoteOffEvent(tick=0, channel=9, data=[44, 64]),
   midi.NoteOnEvent(tick=0, channel=9, data=[44, 100]),
   midi.NoteOnEvent(tick=0, channel=9, data=[44, 100]),
   midi.NoteOffEvent(tick=120, channel=9, data=[36, 64]),
   midi.NoteOffEvent(tick=0, channel=9, data=[44, 64]),
   midi.NoteOffEvent(tick=0, channel=9, data=[44, 64]),
   midi.NoteOnEvent(tick=0, channel=9, data=[40, 100]),
   midi.NoteOnEvent(tick=0, channel=9, data=[44, 100]),
   midi.NoteOnEvent(tick=0, channel=9, data=[54, 100]),
   midi.NoteOffEvent(tick=120, channel=9, data=[44, 64]),
   midi.NoteOffEvent(tick=0, channel=9, data=[54, 64]),
   midi.NoteOnEvent(tick=0, channel=9, data=[44, 100]),
   midi.NoteOnEvent(tick=0, channel=9, data=[54, 100]),
   midi.NoteOffEvent(tick=120, channel=9, data=[40, 64]),
   midi.NoteOffEvent(tick=0, channel=9, data=[44, 64]),
   midi.NoteOffEvent(tick=0, channel=9, data=[54, 64]),
   midi.NoteOnEvent(tick=0, channel=9, data=[36, 100]),
   midi.NoteOnEvent(tick=0, channel=9, data=[44, 100]),
   midi.NoteOnEvent(tick=0, channel=9, data=[44, 100]),
   midi.NoteOffEvent(tick=120, channel=9, data=[44, 64]),
   midi.NoteOffEvent(tick=0, channel=9, data=[44, 64]),
   midi.NoteOnEvent(tick=0, channel=9, data=[44, 100]),
   midi.NoteOnEvent(tick=0, channel=9, data=[44, 100]),
   midi.NoteOffEvent(tick=120, channel=9, data=[36, 64]),
   midi.NoteOffEvent(tick=0, channel=9, data=[44, 64]),
   midi.NoteOffEvent(tick=0, channel=9, data=[44, 64]),
   midi.NoteOnEvent(tick=0, channel=9, data=[40, 100]),
   midi.NoteOnEvent(tick=0, channel=9, data=[44, 100]),
   midi.NoteOnEvent(tick=0, channel=9, data=[54, 100]),
   midi.NoteOffEvent(tick=120, channel=9, data=[44, 0]),
   midi.NoteOffEvent(tick=0, channel=9, data=[54, 64]),
   midi.NoteOnEvent(tick=0, channel=9, data=[44, 100]),
   midi.NoteOnEvent(tick=0, channel=9, data=[54, 100]),
   midi.NoteOffEvent(tick=120, channel=9, data=[40, 64]),
   midi.NoteOffEvent(tick=0, channel=9, data=[44, 64]),
   midi.NoteOffEvent(tick=0, channel=9, data=[54, 64]),
   midi.NoteOnEvent(tick=3, channel=9, data=[44, 100]),
   midi.NoteOnEvent(tick=0, channel=9, data=[36, 100]),
   midi.NoteOffEvent(tick=120, channel=9, data=[44, 64]),
   midi.NoteOnEvent(tick=0, channel=9, data=[44, 100]),
   midi.NoteOffEvent(tick=120, channel=9, data=[36, 64]),
   midi.NoteOffEvent(tick=0, channel=9, data=[44, 64]),
   midi.NoteOnEvent(tick=0, channel=9, data=[44, 100]),
   midi.NoteOnEvent(tick=0, channel=9, data=[40, 100]),
   midi.NoteOffEvent(tick=120, channel=9, data=[44, 64]),
   midi.NoteOnEvent(tick=0, channel=9, data=[44, 100]),
   midi.NoteOffEvent(tick=120, channel=9, data=[40, 64]),
   midi.NoteOffEvent(tick=0, channel=9, data=[44, 64]),
   midi.NoteOnEvent(tick=0, channel=9, data=[44, 100]),
   midi.NoteOnEvent(tick=0, channel=9, data=[36, 100]),
   midi.NoteOffEvent(tick=120, channel=9, data=[44, 64]),
   midi.NoteOffEvent(tick=0, channel=9, data=[36, 64]),
   midi.NoteOnEvent(tick=0, channel=9, data=[44, 100]),
   midi.NoteOnEvent(tick=0, channel=9, data=[36, 100]),
   midi.NoteOffEvent(tick=120, channel=9, data=[44, 64]),
   midi.NoteOffEvent(tick=0, channel=9, data=[36, 64]),
   midi.NoteOnEvent(tick=0, channel=9, data=[44, 100]),
   midi.NoteOnEvent(tick=0, channel=9, data=[40, 100]),
   midi.NoteOffEvent(tick=60, channel=9, data=[40, 64]),
   midi.NoteOnEvent(tick=0, channel=9, data=[40, 100]),
   midi.NoteOffEvent(tick=60, channel=9, data=[44, 64]),
   midi.NoteOffEvent(tick=0, channel=9, data=[40, 64]),
   midi.NoteOnEvent(tick=0, channel=9, data=[44, 100]),
   midi.NoteOnEvent(tick=0, channel=9, data=[36, 100]),
   midi.NoteOffEvent(tick=120, channel=9, data=[44, 64]),
   midi.NoteOffEvent(tick=0, channel=9, data=[36, 64]),
   midi.NoteOnEvent(tick=0, channel=9, data=[36, 100]),
   midi.NoteOnEvent(tick=0, channel=9, data=[44, 100]),
   midi.NoteOffEvent(tick=120, channel=9, data=[44, 64]),
   midi.NoteOnEvent(tick=0, channel=9, data=[44, 100]),
   midi.NoteOffEvent(tick=120, channel=9, data=[36, 64]),
   midi.NoteOffEvent(tick=0, channel=9, data=[44, 64]),
   midi.NoteOnEvent(tick=0, channel=9, data=[40, 100]),
   midi.NoteOnEvent(tick=0, channel=9, data=[44, 100]),
   midi.NoteOffEvent(tick=120, channel=9, data=[44, 64]),
   midi.NoteOnEvent(tick=0, channel=9, data=[44, 100]),
   midi.NoteOffEvent(tick=120, channel=9, data=[40, 64]),
   midi.NoteOffEvent(tick=0, channel=9, data=[44, 64]),
   midi.NoteOnEvent(tick=0, channel=9, data=[36, 100]),
   midi.NoteOnEvent(tick=0, channel=9, data=[44, 100]),
   midi.NoteOffEvent(tick=120, channel=9, data=[36, 64]),
   midi.NoteOffEvent(tick=0, channel=9, data=[44, 64]),
   midi.NoteOnEvent(tick=0, channel=9, data=[36, 100]),
   midi.NoteOnEvent(tick=0, channel=9, data=[44, 100]),
   midi.NoteOffEvent(tick=120, channel=9, data=[36, 64]),
   midi.NoteOffEvent(tick=0, channel=9, data=[44, 64]),
   midi.NoteOnEvent(tick=0, channel=9, data=[40, 100]),
   midi.NoteOnEvent(tick=0, channel=9, data=[44, 100]),
   midi.NoteOffEvent(tick=60, channel=9, data=[40, 64]),
   midi.NoteOnEvent(tick=0, channel=9, data=[40, 100]),
   midi.NoteOffEvent(tick=60, channel=9, data=[44, 64]),
   midi.NoteOffEvent(tick=0, channel=9, data=[40, 64]),
   midi.NoteOnEvent(tick=0, channel=9, data=[36, 100]),
   midi.NoteOnEvent(tick=0, channel=9, data=[44, 100]),
   midi.NoteOffEvent(tick=120, channel=9, data=[36, 64]),
   midi.NoteOffEvent(tick=0, channel=9, data=[44, 64]),
   midi.NoteOnEvent(tick=0, channel=9, data=[36, 100]),
   midi.NoteOnEvent(tick=0, channel=9, data=[44, 100]),
   midi.NoteOffEvent(tick=120, channel=9, data=[44, 64]),
   midi.NoteOnEvent(tick=0, channel=9, data=[44, 100]),
   midi.NoteOffEvent(tick=120, channel=9, data=[36, 64]),
   midi.NoteOffEvent(tick=0, channel=9, data=[44, 64]),
   midi.NoteOnEvent(tick=0, channel=9, data=[40, 100]),
   midi.NoteOnEvent(tick=0, channel=9, data=[44, 100]),
   midi.NoteOffEvent(tick=120, channel=9, data=[44, 64]),
   midi.NoteOnEvent(tick=0, channel=9, data=[44, 100]),
   midi.NoteOffEvent(tick=120, channel=9, data=[40, 64]),
   midi.NoteOffEvent(tick=0, channel=9, data=[44, 64]),
   midi.NoteOnEvent(tick=0, channel=9, data=[36, 100]),
   midi.NoteOnEvent(tick=0, channel=9, data=[44, 100]),
   midi.NoteOffEvent(tick=120, channel=9, data=[36, 64]),
   midi.NoteOffEvent(tick=0, channel=9, data=[44, 64]),
   midi.NoteOnEvent(tick=0, channel=9, data=[36, 100]),
   midi.NoteOnEvent(tick=0, channel=9, data=[44, 100]),
   midi.NoteOffEvent(tick=120, channel=9, data=[36, 64]),
   midi.NoteOffEvent(tick=0, channel=9, data=[44, 64]),
   midi.NoteOnEvent(tick=0, channel=9, data=[40, 100]),
   midi.NoteOnEvent(tick=0, channel=9, data=[44, 100]),
   midi.NoteOffEvent(tick=60, channel=9, data=[40, 64]),
   midi.NoteOnEvent(tick=0, channel=9, data=[40, 100]),
   midi.NoteOffEvent(tick=60, channel=9, data=[44, 64]),
   midi.NoteOffEvent(tick=0, channel=9, data=[40, 64]),
   midi.NoteOnEvent(tick=0, channel=9, data=[36, 100]),
   midi.NoteOnEvent(tick=0, channel=9, data=[44, 100]),
   midi.NoteOffEvent(tick=120, channel=9, data=[36, 64]),
   midi.NoteOffEvent(tick=0, channel=9, data=[44, 64]),
   midi.NoteOnEvent(tick=0, channel=9, data=[36, 100]),
   midi.NoteOnEvent(tick=0, channel=9, data=[44, 100]),
   midi.NoteOffEvent(tick=120, channel=9, data=[44, 64]),
   midi.NoteOnEvent(tick=0, channel=9, data=[44, 100]),
   midi.NoteOffEvent(tick=120, channel=9, data=[36, 64]),
   midi.NoteOffEvent(tick=0, channel=9, data=[44, 64]),
   midi.NoteOnEvent(tick=0, channel=9, data=[40, 100]),
   midi.NoteOnEvent(tick=0, channel=9, data=[44, 100]),
   midi.NoteOffEvent(tick=120, channel=9, data=[44, 64]),
   midi.NoteOnEvent(tick=0, channel=9, data=[44, 100]),
   midi.NoteOffEvent(tick=120, channel=9, data=[40, 64]),
   midi.NoteOffEvent(tick=0, channel=9, data=[44, 64]),
   midi.NoteOnEvent(tick=0, channel=9, data=[36, 100]),
   midi.NoteOnEvent(tick=0, channel=9, data=[44, 100]),
   midi.NoteOffEvent(tick=120, channel=9, data=[36, 64]),
   midi.NoteOffEvent(tick=0, channel=9, data=[44, 64]),
   midi.NoteOnEvent(tick=0, channel=9, data=[36, 100]),
   midi.NoteOnEvent(tick=0, channel=9, data=[44, 100]),
   midi.NoteOffEvent(tick=120, channel=9, data=[36, 64]),
   midi.NoteOffEvent(tick=0, channel=9, data=[44, 64]),
   midi.NoteOnEvent(tick=0, channel=9, data=[40, 100]),
   midi.NoteOnEvent(tick=0, channel=9, data=[44, 100]),
   midi.NoteOffEvent(tick=60, channel=9, data=[40, 64]),
   midi.NoteOnEvent(tick=0, channel=9, data=[40, 100]),
   midi.NoteOffEvent(tick=60, channel=9, data=[44, 64]),
   midi.NoteOffEvent(tick=0, channel=9, data=[40, 64]),
   midi.NoteOnEvent(tick=0, channel=9, data=[36, 100]),
   midi.NoteOnEvent(tick=0, channel=9, data=[44, 100]),
   midi.NoteOffEvent(tick=120, channel=9, data=[36, 64]),
   midi.NoteOffEvent(tick=0, channel=9, data=[44, 64]),
   midi.NoteOnEvent(tick=0, channel=9, data=[36, 100]),
   midi.NoteOnEvent(tick=0, channel=9, data=[44, 100]),
   midi.NoteOffEvent(tick=120, channel=9, data=[44, 64]),
   midi.NoteOnEvent(tick=0, channel=9, data=[44, 100]),
   midi.NoteOffEvent(tick=120, channel=9, data=[36, 64]),
   midi.NoteOffEvent(tick=0, channel=9, data=[44, 64]),
   midi.NoteOnEvent(tick=0, channel=9, data=[40, 100]),
   midi.NoteOnEvent(tick=0, channel=9, data=[44, 100]),
   midi.NoteOffEvent(tick=120, channel=9, data=[44, 64]),
   midi.NoteOnEvent(tick=0, channel=9, data=[44, 100]),
   midi.NoteOffEvent(tick=120, channel=9, data=[40, 64]),
   midi.NoteOffEvent(tick=0, channel=9, data=[44, 64]),
   midi.NoteOnEvent(tick=0, channel=9, data=[36, 100]),
   midi.NoteOnEvent(tick=0, channel=9, data=[44, 100]),
   midi.NoteOffEvent(tick=120, channel=9, data=[36, 64]),
   midi.NoteOffEvent(tick=0, channel=9, data=[44, 64]),
   midi.NoteOnEvent(tick=0, channel=9, data=[36, 100]),
   midi.NoteOnEvent(tick=0, channel=9, data=[44, 100]),
   midi.NoteOffEvent(tick=120, channel=9, data=[36, 64]),
   midi.NoteOffEvent(tick=0, channel=9, data=[44, 64]),
   midi.NoteOnEvent(tick=0, channel=9, data=[40, 100]),
   midi.NoteOnEvent(tick=0, channel=9, data=[44, 100]),
   midi.NoteOffEvent(tick=60, channel=9, data=[40, 64]),
   midi.NoteOnEvent(tick=0, channel=9, data=[40, 100]),
   midi.NoteOffEvent(tick=60, channel=9, data=[44, 64]),
   midi.NoteOffEvent(tick=0, channel=9, data=[40, 64]),
   midi.NoteOnEvent(tick=0, channel=9, data=[36, 100]),
   midi.NoteOnEvent(tick=0, channel=9, data=[44, 100]),
   midi.NoteOffEvent(tick=120, channel=9, data=[36, 64]),
   midi.NoteOffEvent(tick=0, channel=9, data=[44, 64]),
   midi.NoteOnEvent(tick=0, channel=9, data=[44, 100]),
   midi.NoteOnEvent(tick=0, channel=9, data=[36, 100]),
   midi.NoteOffEvent(tick=120, channel=9, data=[44, 64]),
   midi.NoteOnEvent(tick=0, channel=9, data=[44, 100]),
   midi.NoteOffEvent(tick=120, channel=9, data=[36, 64]),
   midi.NoteOffEvent(tick=0, channel=9, data=[44, 64]),
   midi.NoteOnEvent(tick=0, channel=9, data=[44, 100]),
   midi.NoteOnEvent(tick=0, channel=9, data=[40, 100]),
   midi.NoteOffEvent(tick=120, channel=9, data=[44, 64]),
   midi.NoteOnEvent(tick=0, channel=9, data=[44, 100]),
   midi.NoteOffEvent(tick=120, channel=9, data=[40, 64]),
   midi.NoteOffEvent(tick=0, channel=9, data=[44, 64]),
   midi.NoteOnEvent(tick=0, channel=9, data=[44, 100]),
   midi.NoteOnEvent(tick=0, channel=9, data=[36, 100]),
   midi.NoteOffEvent(tick=120, channel=9, data=[44, 64]),
   midi.NoteOffEvent(tick=0, channel=9, data=[36, 64]),
   midi.NoteOnEvent(tick=0, channel=9, data=[44, 100]),
   midi.NoteOnEvent(tick=0, channel=9, data=[36, 100]),
   midi.NoteOffEvent(tick=120, channel=9, data=[44, 64]),
   midi.NoteOffEvent(tick=0, channel=9, data=[36, 64]),
   midi.NoteOnEvent(tick=0, channel=9, data=[44, 100]),
   midi.NoteOnEvent(tick=0, channel=9, data=[40, 100]),
   midi.NoteOffEvent(tick=60, channel=9, data=[40, 64]),
   midi.NoteOnEvent(tick=0, channel=9, data=[40, 100]),
   midi.NoteOffEvent(tick=60, channel=9, data=[44, 64]),
   midi.NoteOffEvent(tick=0, channel=9, data=[40, 64]),
   midi.NoteOnEvent(tick=0, channel=9, data=[44, 100]),
   midi.NoteOnEvent(tick=0, channel=9, data=[36, 100]),
   midi.NoteOffEvent(tick=120, channel=9, data=[44, 64]),
   midi.NoteOffEvent(tick=0, channel=9, data=[36, 64]),
   midi.NoteOnEvent(tick=0, channel=9, data=[44, 100]),
   midi.NoteOnEvent(tick=0, channel=9, data=[36, 100]),
   midi.NoteOffEvent(tick=120, channel=9, data=[44, 64]),
   midi.NoteOnEvent(tick=0, channel=9, data=[44, 100]),
   midi.NoteOffEvent(tick=120, channel=9, data=[36, 64]),
   midi.NoteOffEvent(tick=0, channel=9, data=[44, 64]),
   midi.NoteOnEvent(tick=0, channel=9, data=[44, 100]),
   midi.NoteOnEvent(tick=0, channel=9, data=[40, 100]),
   midi.NoteOffEvent(tick=120, channel=9, data=[44, 64]),
   midi.NoteOnEvent(tick=0, channel=9, data=[44, 100]),
   midi.NoteOffEvent(tick=120, channel=9, data=[40, 64]),
   midi.NoteOffEvent(tick=0, channel=9, data=[44, 64]),
   midi.NoteOnEvent(tick=0, channel=9, data=[44, 100]),
   midi.NoteOnEvent(tick=0, channel=9, data=[36, 100]),
   midi.NoteOffEvent(tick=120, channel=9, data=[44, 64]),
   midi.NoteOffEvent(tick=0, channel=9, data=[36, 64]),
   midi.NoteOnEvent(tick=0, channel=9, data=[44, 100]),
   midi.NoteOnEvent(tick=0, channel=9, data=[36, 100]),
   midi.NoteOffEvent(tick=120, channel=9, data=[44, 64]),
   midi.NoteOffEvent(tick=0, channel=9, data=[36, 64]),
   midi.NoteOnEvent(tick=0, channel=9, data=[44, 100]),
   midi.NoteOnEvent(tick=0, channel=9, data=[40, 100]),
   midi.NoteOffEvent(tick=60, channel=9, data=[40, 64]),
   midi.NoteOnEvent(tick=0, channel=9, data=[40, 100]),
   midi.NoteOffEvent(tick=60, channel=9, data=[44, 64]),
   midi.NoteOffEvent(tick=0, channel=9, data=[40, 64]),
   midi.NoteOnEvent(tick=0, channel=9, data=[44, 100]),
   midi.NoteOnEvent(tick=0, channel=9, data=[36, 100]),
   midi.NoteOffEvent(tick=120, channel=9, data=[44, 64]),
   midi.NoteOffEvent(tick=0, channel=9, data=[36, 64]),
   midi.NoteOnEvent(tick=960, channel=9, data=[36, 100]),
   midi.NoteOnEvent(tick=0, channel=9, data=[44, 100]),
   midi.NoteOnEvent(tick=0, channel=9, data=[44, 100]),
   midi.NoteOffEvent(tick=120, channel=9, data=[44, 64]),
   midi.NoteOffEvent(tick=0, channel=9, data=[44, 64]),
   midi.NoteOnEvent(tick=0, channel=9, data=[44, 100]),
   midi.NoteOnEvent(tick=0, channel=9, data=[44, 100]),
   midi.NoteOffEvent(tick=120, channel=9, data=[36, 64]),
   midi.NoteOffEvent(tick=0, channel=9, data=[44, 64]),
   midi.NoteOffEvent(tick=0, channel=9, data=[44, 64]),
   midi.NoteOnEvent(tick=0, channel=9, data=[40, 100]),
   midi.NoteOnEvent(tick=0, channel=9, data=[44, 100]),
   midi.NoteOnEvent(tick=0, channel=9, data=[54, 100]),
   midi.NoteOffEvent(tick=120, channel=9, data=[44, 64]),
   midi.NoteOffEvent(tick=0, channel=9, data=[54, 64]),
   midi.NoteOnEvent(tick=0, channel=9, data=[44, 100]),
   midi.NoteOnEvent(tick=0, channel=9, data=[54, 100]),
   midi.NoteOffEvent(tick=120, channel=9, data=[40, 64]),
   midi.NoteOffEvent(tick=0, channel=9, data=[44, 64]),
   midi.NoteOffEvent(tick=0, channel=9, data=[54, 64]),
   midi.NoteOnEvent(tick=0, channel=9, data=[36, 100]),
   midi.NoteOnEvent(tick=0, channel=9, data=[44, 100]),
   midi.NoteOnEvent(tick=0, channel=9, data=[44, 100]),
   midi.NoteOffEvent(tick=120, channel=9, data=[44, 64]),
   midi.NoteOffEvent(tick=0, channel=9, data=[44, 64]),
   midi.NoteOnEvent(tick=0, channel=9, data=[44, 100]),
   midi.NoteOnEvent(tick=0, channel=9, data=[44, 100]),
   midi.NoteOffEvent(tick=120, channel=9, data=[36, 64]),
   midi.NoteOffEvent(tick=0, channel=9, data=[44, 64]),
   midi.NoteOffEvent(tick=0, channel=9, data=[44, 64]),
   midi.NoteOnEvent(tick=0, channel=9, data=[40, 100]),
   midi.NoteOnEvent(tick=0, channel=9, data=[44, 100]),
   midi.NoteOnEvent(tick=0, channel=9, data=[54, 100]),
   midi.NoteOffEvent(tick=120, channel=9, data=[44, 64]),
   midi.NoteOffEvent(tick=0, channel=9, data=[54, 64]),
   midi.NoteOnEvent(tick=0, channel=9, data=[44, 100]),
   midi.NoteOnEvent(tick=0, channel=9, data=[54, 100]),
   midi.NoteOffEvent(tick=120, channel=9, data=[40, 64]),
   midi.NoteOffEvent(tick=0, channel=9, data=[44, 64]),
   midi.NoteOffEvent(tick=0, channel=9, data=[54, 64]),
   midi.NoteOnEvent(tick=0, channel=9, data=[36, 100]),
   midi.NoteOnEvent(tick=0, channel=9, data=[44, 100]),
   midi.NoteOnEvent(tick=0, channel=9, data=[44, 100]),
   midi.NoteOffEvent(tick=120, channel=9, data=[44, 64]),
   midi.NoteOffEvent(tick=0, channel=9, data=[44, 64]),
   midi.NoteOnEvent(tick=0, channel=9, data=[44, 100]),
   midi.NoteOnEvent(tick=0, channel=9, data=[44, 100]),
   midi.NoteOffEvent(tick=120, channel=9, data=[36, 64]),
   midi.NoteOffEvent(tick=0, channel=9, data=[44, 64]),
   midi.NoteOffEvent(tick=0, channel=9, data=[44, 64]),
   midi.NoteOnEvent(tick=0, channel=9, data=[40, 100]),
   midi.NoteOnEvent(tick=0, channel=9, data=[44, 100]),
   midi.NoteOnEvent(tick=0, channel=9, data=[54, 100]),
   midi.NoteOffEvent(tick=120, channel=9, data=[44, 64]),
   midi.NoteOffEvent(tick=0, channel=9, data=[54, 64]),
   midi.NoteOnEvent(tick=0, channel=9, data=[44, 100]),
   midi.NoteOnEvent(tick=0, channel=9, data=[54, 100]),
   midi.NoteOffEvent(tick=120, channel=9, data=[40, 64]),
   midi.NoteOffEvent(tick=0, channel=9, data=[44, 64]),
   midi.NoteOffEvent(tick=0, channel=9, data=[54, 64]),
   midi.NoteOnEvent(tick=0, channel=9, data=[36, 100]),
   midi.NoteOnEvent(tick=0, channel=9, data=[44, 100]),
   midi.NoteOnEvent(tick=0, channel=9, data=[44, 100]),
   midi.NoteOffEvent(tick=120, channel=9, data=[44, 64]),
   midi.NoteOffEvent(tick=0, channel=9, data=[44, 64]),
   midi.NoteOnEvent(tick=0, channel=9, data=[44, 100]),
   midi.NoteOnEvent(tick=0, channel=9, data=[44, 100]),
   midi.NoteOffEvent(tick=120, channel=9, data=[36, 64]),
   midi.NoteOffEvent(tick=0, channel=9, data=[44, 64]),
   midi.NoteOffEvent(tick=0, channel=9, data=[44, 64]),
   midi.NoteOnEvent(tick=0, channel=9, data=[40, 100]),
   midi.NoteOnEvent(tick=0, channel=9, data=[44, 100]),
   midi.NoteOnEvent(tick=0, channel=9, data=[54, 100]),
   midi.NoteOffEvent(tick=120, channel=9, data=[44, 0]),
   midi.NoteOffEvent(tick=0, channel=9, data=[54, 64]),
   midi.NoteOnEvent(tick=0, channel=9, data=[44, 100]),
   midi.NoteOnEvent(tick=0, channel=9, data=[54, 100]),
   midi.NoteOnEvent(tick=117, channel=9, data=[36, 100]),
   midi.NoteOnEvent(tick=0, channel=9, data=[44, 100]),
   midi.NoteOnEvent(tick=0, channel=9, data=[44, 100]),
   midi.NoteOffEvent(tick=3, channel=9, data=[40, 64]),
   midi.NoteOffEvent(tick=0, channel=9, data=[44, 64]),
   midi.NoteOffEvent(tick=0, channel=9, data=[54, 64]),
   midi.NoteOffEvent(tick=0, channel=9, data=[44, 64]),
   midi.NoteOffEvent(tick=0, channel=9, data=[44, 64]),
   midi.NoteOnEvent(tick=117, channel=9, data=[44, 100]),
   midi.NoteOnEvent(tick=0, channel=9, data=[44, 100]),
   midi.NoteOffEvent(tick=120, channel=9, data=[36, 64]),
   midi.NoteOffEvent(tick=0, channel=9, data=[44, 64]),
   midi.NoteOffEvent(tick=0, channel=9, data=[44, 64]),
   midi.NoteOnEvent(tick=0, channel=9, data=[40, 100]),
   midi.NoteOnEvent(tick=0, channel=9, data=[44, 100]),
   midi.NoteOnEvent(tick=0, channel=9, data=[54, 100]),
   midi.NoteOffEvent(tick=120, channel=9, data=[44, 64]),
   midi.NoteOffEvent(tick=0, channel=9, data=[54, 64]),
   midi.NoteOnEvent(tick=0, channel=9, data=[44, 100]),
   midi.NoteOnEvent(tick=0, channel=9, data=[54, 100]),
   midi.NoteOffEvent(tick=120, channel=9, data=[40, 64]),
   midi.NoteOffEvent(tick=0, channel=9, data=[44, 64]),
   midi.NoteOffEvent(tick=0, channel=9, data=[54, 64]),
   midi.NoteOnEvent(tick=0, channel=9, data=[36, 100]),
   midi.NoteOnEvent(tick=0, channel=9, data=[44, 100]),
   midi.NoteOnEvent(tick=0, channel=9, data=[44, 100]),
   midi.NoteOffEvent(tick=120, channel=9, data=[44, 64]),
   midi.NoteOffEvent(tick=0, channel=9, data=[44, 64]),
   midi.NoteOnEvent(tick=0, channel=9, data=[44, 100]),
   midi.NoteOnEvent(tick=0, channel=9, data=[44, 100]),
   midi.NoteOffEvent(tick=120, channel=9, data=[36, 64]),
   midi.NoteOffEvent(tick=0, channel=9, data=[44, 64]),
   midi.NoteOffEvent(tick=0, channel=9, data=[44, 64]),
   midi.NoteOnEvent(tick=0, channel=9, data=[40, 100]),
   midi.NoteOnEvent(tick=0, channel=9, data=[44, 100]),
   midi.NoteOnEvent(tick=0, channel=9, data=[54, 100]),
   midi.NoteOffEvent(tick=120, channel=9, data=[44, 64]),
   midi.NoteOffEvent(tick=0, channel=9, data=[54, 64]),
   midi.NoteOnEvent(tick=0, channel=9, data=[44, 100]),
   midi.NoteOnEvent(tick=0, channel=9, data=[54, 100]),
   midi.NoteOffEvent(tick=120, channel=9, data=[40, 64]),
   midi.NoteOffEvent(tick=0, channel=9, data=[44, 64]),
   midi.NoteOffEvent(tick=0, channel=9, data=[54, 64]),
   midi.NoteOnEvent(tick=0, channel=9, data=[36, 100]),
   midi.NoteOnEvent(tick=0, channel=9, data=[44, 100]),
   midi.NoteOnEvent(tick=0, channel=9, data=[44, 100]),
   midi.NoteOffEvent(tick=120, channel=9, data=[44, 64]),
   midi.NoteOffEvent(tick=0, channel=9, data=[44, 64]),
   midi.NoteOnEvent(tick=0, channel=9, data=[44, 100]),
   midi.NoteOnEvent(tick=0, channel=9, data=[44, 100]),
   midi.NoteOffEvent(tick=120, channel=9, data=[36, 64]),
   midi.NoteOffEvent(tick=0, channel=9, data=[44, 64]),
   midi.NoteOffEvent(tick=0, channel=9, data=[44, 64]),
   midi.NoteOnEvent(tick=0, channel=9, data=[40, 100]),
   midi.NoteOnEvent(tick=0, channel=9, data=[44, 100]),
   midi.NoteOnEvent(tick=0, channel=9, data=[54, 100]),
   midi.NoteOffEvent(tick=120, channel=9, data=[44, 64]),
   midi.NoteOffEvent(tick=0, channel=9, data=[54, 64]),
   midi.NoteOnEvent(tick=0, channel=9, data=[44, 100]),
   midi.NoteOnEvent(tick=0, channel=9, data=[54, 100]),
   midi.NoteOffEvent(tick=120, channel=9, data=[40, 64]),
   midi.NoteOffEvent(tick=0, channel=9, data=[44, 64]),
   midi.NoteOffEvent(tick=0, channel=9, data=[54, 64]),
   midi.NoteOnEvent(tick=0, channel=9, data=[36, 100]),
   midi.NoteOnEvent(tick=0, channel=9, data=[44, 100]),
   midi.NoteOnEvent(tick=0, channel=9, data=[44, 100]),
   midi.NoteOffEvent(tick=120, channel=9, data=[44, 64]),
   midi.NoteOffEvent(tick=0, channel=9, data=[44, 64]),
   midi.NoteOnEvent(tick=0, channel=9, data=[44, 100]),
   midi.NoteOnEvent(tick=0, channel=9, data=[44, 100]),
   midi.NoteOffEvent(tick=120, channel=9, data=[36, 64]),
   midi.NoteOffEvent(tick=0, channel=9, data=[44, 64]),
   midi.NoteOffEvent(tick=0, channel=9, data=[44, 64]),
   midi.NoteOnEvent(tick=0, channel=9, data=[40, 100]),
   midi.NoteOnEvent(tick=0, channel=9, data=[44, 100]),
   midi.NoteOnEvent(tick=0, channel=9, data=[54, 100]),
   midi.NoteOffEvent(tick=120, channel=9, data=[44, 0]),
   midi.NoteOffEvent(tick=0, channel=9, data=[54, 64]),
   midi.NoteOnEvent(tick=0, channel=9, data=[44, 100]),
   midi.NoteOnEvent(tick=0, channel=9, data=[54, 100]),
   midi.NoteOffEvent(tick=120, channel=9, data=[40, 64]),
   midi.NoteOffEvent(tick=0, channel=9, data=[44, 64]),
   midi.NoteOffEvent(tick=0, channel=9, data=[54, 64]),
   midi.NoteOnEvent(tick=3, channel=9, data=[36, 100]),
   midi.NoteOnEvent(tick=0, channel=9, data=[44, 100]),
   midi.NoteOnEvent(tick=0, channel=9, data=[44, 100]),
   midi.NoteOffEvent(tick=120, channel=9, data=[44, 64]),
   midi.NoteOffEvent(tick=0, channel=9, data=[44, 64]),
   midi.NoteOnEvent(tick=0, channel=9, data=[44, 100]),
   midi.NoteOnEvent(tick=0, channel=9, data=[44, 100]),
   midi.NoteOffEvent(tick=120, channel=9, data=[36, 64]),
   midi.NoteOffEvent(tick=0, channel=9, data=[44, 64]),
   midi.NoteOffEvent(tick=0, channel=9, data=[44, 64]),
   midi.NoteOnEvent(tick=0, channel=9, data=[40, 100]),
   midi.NoteOnEvent(tick=0, channel=9, data=[44, 100]),
   midi.NoteOnEvent(tick=0, channel=9, data=[54, 100]),
   midi.NoteOffEvent(tick=120, channel=9, data=[44, 64]),
   midi.NoteOffEvent(tick=0, channel=9, data=[54, 64]),
   midi.NoteOnEvent(tick=0, channel=9, data=[44, 100]),
   midi.NoteOnEvent(tick=0, channel=9, data=[54, 100]),
   midi.NoteOffEvent(tick=120, channel=9, data=[40, 64]),
   midi.NoteOffEvent(tick=0, channel=9, data=[44, 64]),
   midi.NoteOffEvent(tick=0, channel=9, data=[54, 64]),
   midi.NoteOnEvent(tick=0, channel=9, data=[36, 100]),
   midi.NoteOnEvent(tick=0, channel=9, data=[44, 100]),
   midi.NoteOnEvent(tick=0, channel=9, data=[44, 100]),
   midi.NoteOffEvent(tick=120, channel=9, data=[44, 64]),
   midi.NoteOffEvent(tick=0, channel=9, data=[44, 64]),
   midi.NoteOnEvent(tick=0, channel=9, data=[44, 100]),
   midi.NoteOnEvent(tick=0, channel=9, data=[44, 100]),
   midi.NoteOffEvent(tick=120, channel=9, data=[36, 64]),
   midi.NoteOffEvent(tick=0, channel=9, data=[44, 64]),
   midi.NoteOffEvent(tick=0, channel=9, data=[44, 64]),
   midi.NoteOnEvent(tick=0, channel=9, data=[40, 100]),
   midi.NoteOnEvent(tick=0, channel=9, data=[44, 100]),
   midi.NoteOnEvent(tick=0, channel=9, data=[54, 100]),
   midi.NoteOffEvent(tick=120, channel=9, data=[44, 64]),
   midi.NoteOffEvent(tick=0, channel=9, data=[54, 64]),
   midi.NoteOnEvent(tick=0, channel=9, data=[44, 100]),
   midi.NoteOnEvent(tick=0, channel=9, data=[54, 100]),
   midi.NoteOffEvent(tick=120, channel=9, data=[40, 64]),
   midi.NoteOffEvent(tick=0, channel=9, data=[44, 64]),
   midi.NoteOffEvent(tick=0, channel=9, data=[54, 64]),
   midi.NoteOnEvent(tick=0, channel=9, data=[36, 100]),
   midi.NoteOnEvent(tick=0, channel=9, data=[44, 100]),
   midi.NoteOnEvent(tick=0, channel=9, data=[44, 100]),
   midi.NoteOffEvent(tick=120, channel=9, data=[44, 64]),
   midi.NoteOffEvent(tick=0, channel=9, data=[44, 64]),
   midi.NoteOnEvent(tick=0, channel=9, data=[44, 100]),
   midi.NoteOnEvent(tick=0, channel=9, data=[44, 100]),
   midi.NoteOffEvent(tick=120, channel=9, data=[36, 64]),
   midi.NoteOffEvent(tick=0, channel=9, data=[44, 64]),
   midi.NoteOffEvent(tick=0, channel=9, data=[44, 64]),
   midi.NoteOnEvent(tick=0, channel=9, data=[40, 100]),
   midi.NoteOnEvent(tick=0, channel=9, data=[44, 100]),
   midi.NoteOnEvent(tick=0, channel=9, data=[54, 100]),
   midi.NoteOffEvent(tick=120, channel=9, data=[44, 64]),
   midi.NoteOffEvent(tick=0, channel=9, data=[54, 64]),
   midi.NoteOnEvent(tick=0, channel=9, data=[44, 100]),
   midi.NoteOnEvent(tick=0, channel=9, data=[54, 100]),
   midi.NoteOffEvent(tick=120, channel=9, data=[40, 64]),
   midi.NoteOffEvent(tick=0, channel=9, data=[44, 64]),
   midi.NoteOffEvent(tick=0, channel=9, data=[54, 64]),
   midi.NoteOnEvent(tick=0, channel=9, data=[36, 100]),
   midi.NoteOnEvent(tick=0, channel=9, data=[44, 100]),
   midi.NoteOnEvent(tick=0, channel=9, data=[44, 100]),
   midi.NoteOffEvent(tick=120, channel=9, data=[44, 64]),
   midi.NoteOffEvent(tick=0, channel=9, data=[44, 64]),
   midi.NoteOnEvent(tick=0, channel=9, data=[44, 100]),
   midi.NoteOnEvent(tick=0, channel=9, data=[44, 100]),
   midi.NoteOffEvent(tick=120, channel=9, data=[36, 64]),
   midi.NoteOffEvent(tick=0, channel=9, data=[44, 64]),
   midi.NoteOffEvent(tick=0, channel=9, data=[44, 64]),
   midi.NoteOnEvent(tick=0, channel=9, data=[40, 100]),
   midi.NoteOnEvent(tick=0, channel=9, data=[44, 100]),
   midi.NoteOnEvent(tick=0, channel=9, data=[54, 100]),
   midi.NoteOffEvent(tick=120, channel=9, data=[44, 0]),
   midi.NoteOffEvent(tick=0, channel=9, data=[54, 64]),
   midi.NoteOnEvent(tick=0, channel=9, data=[44, 100]),
   midi.NoteOnEvent(tick=0, channel=9, data=[54, 100]),
   midi.NoteOffEvent(tick=120, channel=9, data=[40, 64]),
   midi.NoteOffEvent(tick=0, channel=9, data=[44, 64]),
   midi.NoteOffEvent(tick=0, channel=9, data=[54, 64]),
   midi.NoteOnEvent(tick=0, channel=9, data=[36, 100]),
   midi.NoteOnEvent(tick=0, channel=9, data=[44, 100]),
   midi.NoteOnEvent(tick=0, channel=9, data=[44, 100]),
   midi.NoteOffEvent(tick=120, channel=9, data=[44, 64]),
   midi.NoteOffEvent(tick=0, channel=9, data=[44, 64]),
   midi.NoteOnEvent(tick=0, channel=9, data=[44, 100]),
   midi.NoteOnEvent(tick=0, channel=9, data=[44, 100]),
   midi.NoteOffEvent(tick=120, channel=9, data=[36, 64]),
   midi.NoteOffEvent(tick=0, channel=9, data=[44, 64]),
   midi.NoteOffEvent(tick=0, channel=9, data=[44, 64]),
   midi.NoteOnEvent(tick=0, channel=9, data=[40, 100]),
   midi.NoteOnEvent(tick=0, channel=9, data=[44, 100]),
   midi.NoteOnEvent(tick=0, channel=9, data=[54, 100]),
   midi.NoteOffEvent(tick=120, channel=9, data=[44, 64]),
   midi.NoteOffEvent(tick=0, channel=9, data=[54, 64]),
   midi.NoteOnEvent(tick=0, channel=9, data=[44, 100]),
   midi.NoteOnEvent(tick=0, channel=9, data=[54, 100]),
   midi.NoteOffEvent(tick=120, channel=9, data=[40, 64]),
   midi.NoteOffEvent(tick=0, channel=9, data=[44, 64]),
   midi.NoteOffEvent(tick=0, channel=9, data=[54, 64]),
   midi.NoteOnEvent(tick=0, channel=9, data=[36, 100]),
   midi.NoteOnEvent(tick=0, channel=9, data=[44, 100]),
   midi.NoteOnEvent(tick=0, channel=9, data=[44, 100]),
   midi.NoteOffEvent(tick=120, channel=9, data=[44, 64]),
   midi.NoteOffEvent(tick=0, channel=9, data=[44, 64]),
   midi.NoteOnEvent(tick=0, channel=9, data=[44, 100]),
   midi.NoteOnEvent(tick=0, channel=9, data=[44, 100]),
   midi.NoteOffEvent(tick=120, channel=9, data=[36, 64]),
   midi.NoteOffEvent(tick=0, channel=9, data=[44, 64]),
   midi.NoteOffEvent(tick=0, channel=9, data=[44, 64]),
   midi.NoteOnEvent(tick=0, channel=9, data=[40, 100]),
   midi.NoteOnEvent(tick=0, channel=9, data=[44, 100]),
   midi.NoteOnEvent(tick=0, channel=9, data=[54, 100]),
   midi.NoteOffEvent(tick=120, channel=9, data=[44, 64]),
   midi.NoteOffEvent(tick=0, channel=9, data=[54, 64]),
   midi.NoteOnEvent(tick=0, channel=9, data=[44, 100]),
   midi.NoteOnEvent(tick=0, channel=9, data=[54, 100]),
   midi.NoteOffEvent(tick=120, channel=9, data=[40, 64]),
   midi.NoteOffEvent(tick=0, channel=9, data=[44, 64]),
   midi.NoteOffEvent(tick=0, channel=9, data=[54, 64]),
   midi.NoteOnEvent(tick=0, channel=9, data=[36, 100]),
   midi.NoteOnEvent(tick=0, channel=9, data=[44, 100]),
   midi.NoteOnEvent(tick=0, channel=9, data=[44, 100]),
   midi.NoteOffEvent(tick=120, channel=9, data=[44, 64]),
   midi.NoteOffEvent(tick=0, channel=9, data=[44, 64]),
   midi.NoteOnEvent(tick=0, channel=9, data=[44, 100]),
   midi.NoteOnEvent(tick=0, channel=9, data=[44, 100]),
   midi.NoteOffEvent(tick=120, channel=9, data=[36, 64]),
   midi.NoteOffEvent(tick=0, channel=9, data=[44, 64]),
   midi.NoteOffEvent(tick=0, channel=9, data=[44, 64]),
   midi.NoteOnEvent(tick=0, channel=9, data=[40, 100]),
   midi.NoteOnEvent(tick=0, channel=9, data=[44, 100]),
   midi.NoteOnEvent(tick=0, channel=9, data=[54, 100]),
   midi.NoteOffEvent(tick=120, channel=9, data=[44, 64]),
   midi.NoteOffEvent(tick=0, channel=9, data=[54, 64]),
   midi.NoteOnEvent(tick=0, channel=9, data=[44, 100]),
   midi.NoteOnEvent(tick=0, channel=9, data=[54, 100]),
   midi.NoteOffEvent(tick=120, channel=9, data=[40, 64]),
   midi.NoteOffEvent(tick=0, channel=9, data=[44, 64]),
   midi.NoteOffEvent(tick=0, channel=9, data=[54, 64]),
   midi.NoteOnEvent(tick=0, channel=9, data=[36, 100]),
   midi.NoteOnEvent(tick=0, channel=9, data=[44, 100]),
   midi.NoteOnEvent(tick=0, channel=9, data=[44, 100]),
   midi.NoteOffEvent(tick=120, channel=9, data=[44, 64]),
   midi.NoteOffEvent(tick=0, channel=9, data=[44, 64]),
   midi.NoteOnEvent(tick=0, channel=9, data=[44, 100]),
   midi.NoteOnEvent(tick=0, channel=9, data=[44, 100]),
   midi.NoteOffEvent(tick=120, channel=9, data=[36, 64]),
   midi.NoteOffEvent(tick=0, channel=9, data=[44, 64]),
   midi.NoteOffEvent(tick=0, channel=9, data=[44, 64]),
   midi.NoteOnEvent(tick=0, channel=9, data=[40, 100]),
   midi.NoteOnEvent(tick=0, channel=9, data=[44, 100]),
   midi.NoteOnEvent(tick=0, channel=9, data=[54, 100]),
   midi.NoteOffEvent(tick=120, channel=9, data=[44, 0]),
   midi.NoteOffEvent(tick=0, channel=9, data=[54, 64]),
   midi.NoteOnEvent(tick=0, channel=9, data=[44, 100]),
   midi.NoteOnEvent(tick=0, channel=9, data=[54, 100]),
   midi.NoteOffEvent(tick=120, channel=9, data=[40, 64]),
   midi.NoteOffEvent(tick=0, channel=9, data=[44, 64]),
   midi.NoteOffEvent(tick=0, channel=9, data=[54, 64]),
   midi.NoteOnEvent(tick=0, channel=9, data=[36, 100]),
   midi.NoteOnEvent(tick=0, channel=9, data=[44, 100]),
   midi.NoteOffEvent(tick=120, channel=9, data=[44, 64]),
   midi.NoteOnEvent(tick=0, channel=9, data=[44, 100]),
   midi.NoteOffEvent(tick=120, channel=9, data=[36, 64]),
   midi.NoteOffEvent(tick=0, channel=9, data=[44, 64]),
   midi.NoteOnEvent(tick=0, channel=9, data=[40, 100]),
   midi.NoteOnEvent(tick=0, channel=9, data=[44, 100]),
   midi.NoteOffEvent(tick=120, channel=9, data=[44, 64]),
   midi.NoteOnEvent(tick=0, channel=9, data=[44, 100]),
   midi.NoteOffEvent(tick=120, channel=9, data=[40, 64]),
   midi.NoteOffEvent(tick=0, channel=9, data=[44, 64]),
   midi.NoteOnEvent(tick=0, channel=9, data=[36, 100]),
   midi.NoteOnEvent(tick=0, channel=9, data=[44, 100]),
   midi.NoteOffEvent(tick=120, channel=9, data=[44, 64]),
   midi.NoteOnEvent(tick=0, channel=9, data=[44, 100]),
   midi.NoteOffEvent(tick=120, channel=9, data=[36, 64]),
   midi.NoteOffEvent(tick=0, channel=9, data=[44, 64]),
   midi.NoteOnEvent(tick=0, channel=9, data=[40, 100]),
   midi.NoteOnEvent(tick=0, channel=9, data=[44, 100]),
   midi.NoteOffEvent(tick=120, channel=9, data=[44, 64]),
   midi.NoteOnEvent(tick=0, channel=9, data=[44, 100]),
   midi.NoteOffEvent(tick=120, channel=9, data=[40, 64]),
   midi.NoteOffEvent(tick=0, channel=9, data=[44, 64]),
   midi.NoteOnEvent(tick=0, channel=9, data=[36, 100]),
   midi.NoteOnEvent(tick=0, channel=9, data=[44, 100]),
   midi.NoteOffEvent(tick=120, channel=9, data=[44, 64]),
   midi.NoteOnEvent(tick=0, channel=9, data=[44, 100]),
   midi.NoteOffEvent(tick=120, channel=9, data=[36, 64]),
   midi.NoteOffEvent(tick=0, channel=9, data=[44, 64]),
   midi.NoteOnEvent(tick=0, channel=9, data=[40, 100]),
   midi.NoteOnEvent(tick=0, channel=9, data=[44, 100]),
   midi.NoteOffEvent(tick=120, channel=9, data=[44, 64]),
   midi.NoteOnEvent(tick=0, channel=9, data=[44, 100]),
   midi.NoteOffEvent(tick=120, channel=9, data=[40, 64]),
   midi.NoteOffEvent(tick=0, channel=9, data=[44, 64]),
   midi.NoteOnEvent(tick=0, channel=9, data=[36, 100]),
   midi.NoteOnEvent(tick=0, channel=9, data=[44, 100]),
   midi.NoteOffEvent(tick=120, channel=9, data=[36, 64]),
   midi.NoteOffEvent(tick=0, channel=9, data=[44, 64]),
   midi.NoteOnEvent(tick=0, channel=9, data=[36, 100]),
   midi.NoteOnEvent(tick=0, channel=9, data=[44, 100]),
   midi.NoteOffEvent(tick=120, channel=9, data=[36, 64]),
   midi.NoteOffEvent(tick=0, channel=9, data=[44, 64]),
   midi.NoteOnEvent(tick=0, channel=9, data=[40, 100]),
   midi.NoteOnEvent(tick=0, channel=9, data=[44, 100]),
   midi.NoteOffEvent(tick=120, channel=9, data=[44, 64]),
   midi.NoteOnEvent(tick=0, channel=9, data=[44, 100]),
   midi.NoteOffEvent(tick=120, channel=9, data=[40, 64]),
   midi.NoteOffEvent(tick=0, channel=9, data=[44, 64]),
   midi.NoteOnEvent(tick=0, channel=9, data=[44, 100]),
   midi.NoteOnEvent(tick=0, channel=9, data=[36, 100]),
   midi.NoteOffEvent(tick=120, channel=9, data=[44, 64]),
   midi.NoteOnEvent(tick=0, channel=9, data=[44, 100]),
   midi.NoteOffEvent(tick=120, channel=9, data=[36, 64]),
   midi.NoteOffEvent(tick=0, channel=9, data=[44, 64]),
   midi.NoteOnEvent(tick=0, channel=9, data=[44, 100]),
   midi.NoteOnEvent(tick=0, channel=9, data=[40, 100]),
   midi.NoteOffEvent(tick=120, channel=9, data=[44, 64]),
   midi.NoteOnEvent(tick=0, channel=9, data=[44, 100]),
   midi.NoteOffEvent(tick=120, channel=9, data=[40, 64]),
   midi.NoteOffEvent(tick=0, channel=9, data=[44, 64]),
   midi.NoteOnEvent(tick=0, channel=9, data=[44, 100]),
   midi.NoteOnEvent(tick=0, channel=9, data=[36, 100]),
   midi.NoteOffEvent(tick=120, channel=9, data=[44, 64]),
   midi.NoteOnEvent(tick=0, channel=9, data=[44, 100]),
   midi.NoteOffEvent(tick=120, channel=9, data=[36, 64]),
   midi.NoteOffEvent(tick=0, channel=9, data=[44, 64]),
   midi.NoteOnEvent(tick=0, channel=9, data=[44, 100]),
   midi.NoteOnEvent(tick=0, channel=9, data=[40, 100]),
   midi.NoteOffEvent(tick=120, channel=9, data=[44, 64]),
   midi.NoteOnEvent(tick=0, channel=9, data=[44, 100]),
   midi.NoteOffEvent(tick=120, channel=9, data=[40, 64]),
   midi.NoteOffEvent(tick=0, channel=9, data=[44, 64]),
   midi.NoteOnEvent(tick=0, channel=9, data=[44, 100]),
   midi.NoteOnEvent(tick=0, channel=9, data=[36, 100]),
   midi.NoteOffEvent(tick=120, channel=9, data=[44, 64]),
   midi.NoteOnEvent(tick=0, channel=9, data=[44, 100]),
   midi.NoteOffEvent(tick=120, channel=9, data=[36, 64]),
   midi.NoteOffEvent(tick=0, channel=9, data=[44, 64]),
   midi.NoteOnEvent(tick=0, channel=9, data=[44, 100]),
   midi.NoteOnEvent(tick=0, channel=9, data=[40, 100]),
   midi.NoteOffEvent(tick=120, channel=9, data=[44, 64]),
   midi.NoteOnEvent(tick=0, channel=9, data=[44, 100]),
   midi.NoteOffEvent(tick=120, channel=9, data=[40, 64]),
   midi.NoteOffEvent(tick=0, channel=9, data=[44, 64]),
   midi.NoteOnEvent(tick=0, channel=9, data=[44, 100]),
   midi.NoteOnEvent(tick=0, channel=9, data=[36, 100]),
   midi.NoteOffEvent(tick=120, channel=9, data=[44, 64]),
   midi.NoteOffEvent(tick=0, channel=9, data=[36, 64]),
   midi.NoteOnEvent(tick=0, channel=9, data=[44, 100]),
   midi.NoteOnEvent(tick=0, channel=9, data=[36, 100]),
   midi.NoteOffEvent(tick=120, channel=9, data=[44, 64]),
   midi.NoteOffEvent(tick=0, channel=9, data=[36, 64]),
   midi.NoteOnEvent(tick=0, channel=9, data=[44, 100]),
   midi.NoteOnEvent(tick=0, channel=9, data=[40, 100]),
   midi.NoteOffEvent(tick=60, channel=9, data=[40, 64]),
   midi.NoteOnEvent(tick=0, channel=9, data=[40, 100]),
   midi.NoteOffEvent(tick=60, channel=9, data=[44, 64]),
   midi.NoteOffEvent(tick=0, channel=9, data=[40, 64]),
   midi.NoteOnEvent(tick=0, channel=9, data=[44, 100]),
   midi.NoteOnEvent(tick=0, channel=9, data=[36, 100]),
   midi.NoteOffEvent(tick=120, channel=9, data=[44, 64]),
   midi.NoteOffEvent(tick=0, channel=9, data=[36, 64]),
   midi.NoteOnEvent(tick=0, channel=9, data=[36, 100]),
   midi.NoteOnEvent(tick=0, channel=9, data=[44, 100]),
   midi.NoteOffEvent(tick=120, channel=9, data=[44, 64]),
   midi.NoteOnEvent(tick=0, channel=9, data=[44, 100]),
   midi.NoteOffEvent(tick=120, channel=9, data=[36, 64]),
   midi.NoteOffEvent(tick=0, channel=9, data=[44, 64]),
   midi.NoteOnEvent(tick=0, channel=9, data=[40, 100]),
   midi.NoteOnEvent(tick=0, channel=9, data=[44, 100]),
   midi.NoteOffEvent(tick=120, channel=9, data=[44, 64]),
   midi.NoteOnEvent(tick=0, channel=9, data=[44, 100]),
   midi.NoteOffEvent(tick=120, channel=9, data=[40, 64]),
   midi.NoteOffEvent(tick=0, channel=9, data=[44, 64]),
   midi.NoteOnEvent(tick=0, channel=9, data=[36, 100]),
   midi.NoteOnEvent(tick=0, channel=9, data=[44, 100]),
   midi.NoteOffEvent(tick=120, channel=9, data=[44, 64]),
   midi.NoteOnEvent(tick=0, channel=9, data=[44, 100]),
   midi.NoteOffEvent(tick=120, channel=9, data=[36, 64]),
   midi.NoteOffEvent(tick=0, channel=9, data=[44, 64]),
   midi.NoteOnEvent(tick=0, channel=9, data=[40, 100]),
   midi.NoteOnEvent(tick=0, channel=9, data=[44, 100]),
   midi.NoteOffEvent(tick=120, channel=9, data=[44, 64]),
   midi.NoteOnEvent(tick=0, channel=9, data=[44, 100]),
   midi.NoteOffEvent(tick=120, channel=9, data=[40, 64]),
   midi.NoteOffEvent(tick=0, channel=9, data=[44, 64]),
   midi.NoteOnEvent(tick=0, channel=9, data=[36, 100]),
   midi.NoteOnEvent(tick=0, channel=9, data=[44, 100]),
   midi.NoteOffEvent(tick=120, channel=9, data=[44, 64]),
   midi.NoteOnEvent(tick=0, channel=9, data=[44, 100]),
   midi.NoteOffEvent(tick=120, channel=9, data=[36, 64]),
   midi.NoteOffEvent(tick=0, channel=9, data=[44, 64]),
   midi.NoteOnEvent(tick=0, channel=9, data=[40, 100]),
   midi.NoteOnEvent(tick=0, channel=9, data=[44, 100]),
   midi.NoteOffEvent(tick=120, channel=9, data=[44, 64]),
   midi.NoteOnEvent(tick=0, channel=9, data=[44, 100]),
   midi.NoteOffEvent(tick=120, channel=9, data=[40, 64]),
   midi.NoteOffEvent(tick=0, channel=9, data=[44, 64]),
   midi.NoteOnEvent(tick=0, channel=9, data=[36, 100]),
   midi.NoteOnEvent(tick=0, channel=9, data=[44, 100]),
   midi.NoteOffEvent(tick=120, channel=9, data=[36, 64]),
   midi.NoteOffEvent(tick=0, channel=9, data=[44, 64]),
   midi.NoteOnEvent(tick=0, channel=9, data=[36, 100]),
   midi.NoteOnEvent(tick=0, channel=9, data=[44, 100]),
   midi.NoteOffEvent(tick=120, channel=9, data=[36, 64]),
   midi.NoteOffEvent(tick=0, channel=9, data=[44, 64]),
   midi.NoteOnEvent(tick=0, channel=9, data=[40, 100]),
   midi.NoteOnEvent(tick=0, channel=9, data=[44, 100]),
   midi.NoteOffEvent(tick=60, channel=9, data=[40, 64]),
   midi.NoteOnEvent(tick=0, channel=9, data=[40, 100]),
   midi.NoteOffEvent(tick=60, channel=9, data=[44, 64]),
   midi.NoteOffEvent(tick=0, channel=9, data=[40, 64]),
   midi.NoteOnEvent(tick=0, channel=9, data=[36, 100]),
   midi.NoteOnEvent(tick=0, channel=9, data=[44, 100]),
   midi.NoteOffEvent(tick=120, channel=9, data=[36, 64]),
   midi.NoteOffEvent(tick=0, channel=9, data=[44, 64]),
   midi.NoteOnEvent(tick=0, channel=9, data=[36, 100]),
   midi.NoteOnEvent(tick=0, channel=9, data=[44, 100]),
   midi.NoteOffEvent(tick=120, channel=9, data=[44, 64]),
   midi.NoteOnEvent(tick=0, channel=9, data=[44, 100]),
   midi.NoteOffEvent(tick=120, channel=9, data=[36, 64]),
   midi.NoteOffEvent(tick=0, channel=9, data=[44, 64]),
   midi.NoteOnEvent(tick=0, channel=9, data=[40, 100]),
   midi.NoteOnEvent(tick=0, channel=9, data=[44, 100]),
   midi.NoteOffEvent(tick=120, channel=9, data=[44, 64]),
   midi.NoteOnEvent(tick=0, channel=9, data=[44, 100]),
   midi.NoteOffEvent(tick=120, channel=9, data=[40, 64]),
   midi.NoteOffEvent(tick=0, channel=9, data=[44, 64]),
   midi.NoteOnEvent(tick=0, channel=9, data=[36, 100]),
   midi.NoteOnEvent(tick=0, channel=9, data=[44, 100]),
   midi.NoteOffEvent(tick=120, channel=9, data=[44, 64]),
   midi.NoteOnEvent(tick=0, channel=9, data=[44, 100]),
   midi.NoteOffEvent(tick=120, channel=9, data=[36, 64]),
   midi.NoteOffEvent(tick=0, channel=9, data=[44, 64]),
   midi.NoteOnEvent(tick=0, channel=9, data=[40, 100]),
   midi.NoteOnEvent(tick=0, channel=9, data=[44, 100]),
   midi.NoteOffEvent(tick=120, channel=9, data=[44, 64]),
   midi.NoteOnEvent(tick=0, channel=9, data=[44, 100]),
   midi.NoteOffEvent(tick=120, channel=9, data=[40, 64]),
   midi.NoteOffEvent(tick=0, channel=9, data=[44, 64]),
   midi.NoteOnEvent(tick=0, channel=9, data=[36, 100]),
   midi.NoteOnEvent(tick=0, channel=9, data=[44, 100]),
   midi.NoteOffEvent(tick=120, channel=9, data=[44, 64]),
   midi.NoteOnEvent(tick=0, channel=9, data=[44, 100]),
   midi.NoteOffEvent(tick=120, channel=9, data=[36, 64]),
   midi.NoteOffEvent(tick=0, channel=9, data=[44, 64]),
   midi.NoteOnEvent(tick=0, channel=9, data=[40, 100]),
   midi.NoteOnEvent(tick=0, channel=9, data=[44, 100]),
   midi.NoteOffEvent(tick=120, channel=9, data=[44, 64]),
   midi.NoteOnEvent(tick=0, channel=9, data=[44, 100]),
   midi.NoteOffEvent(tick=120, channel=9, data=[40, 64]),
   midi.NoteOffEvent(tick=0, channel=9, data=[44, 64]),
   midi.NoteOnEvent(tick=0, channel=9, data=[36, 100]),
   midi.NoteOnEvent(tick=0, channel=9, data=[44, 100]),
   midi.NoteOffEvent(tick=120, channel=9, data=[36, 64]),
   midi.NoteOffEvent(tick=0, channel=9, data=[44, 64]),
   midi.NoteOnEvent(tick=0, channel=9, data=[36, 100]),
   midi.NoteOnEvent(tick=0, channel=9, data=[44, 100]),
   midi.NoteOffEvent(tick=120, channel=9, data=[36, 64]),
   midi.NoteOffEvent(tick=0, channel=9, data=[44, 64]),
   midi.NoteOnEvent(tick=0, channel=9, data=[40, 100]),
   midi.NoteOnEvent(tick=0, channel=9, data=[44, 100]),
   midi.NoteOffEvent(tick=60, channel=9, data=[40, 64]),
   midi.NoteOnEvent(tick=0, channel=9, data=[40, 100]),
   midi.NoteOffEvent(tick=60, channel=9, data=[44, 64]),
   midi.NoteOffEvent(tick=0, channel=9, data=[40, 64]),
   midi.NoteOnEvent(tick=0, channel=9, data=[36, 100]),
   midi.NoteOnEvent(tick=0, channel=9, data=[44, 100]),
   midi.NoteOnEvent(tick=120, channel=9, data=[36, 100]),
   midi.NoteOnEvent(tick=0, channel=9, data=[44, 100]),
   midi.NoteOffEvent(tick=0, channel=9, data=[36, 64]),
   midi.NoteOffEvent(tick=0, channel=9, data=[44, 64]),
   midi.NoteOffEvent(tick=120, channel=9, data=[44, 64]),
   midi.NoteOnEvent(tick=0, channel=9, data=[44, 100]),
   midi.NoteOffEvent(tick=120, channel=9, data=[36, 64]),
   midi.NoteOffEvent(tick=0, channel=9, data=[44, 64]),
   midi.NoteOnEvent(tick=0, channel=9, data=[40, 100]),
   midi.NoteOnEvent(tick=0, channel=9, data=[44, 100]),
   midi.NoteOffEvent(tick=120, channel=9, data=[44, 64]),
   midi.NoteOnEvent(tick=0, channel=9, data=[44, 100]),
   midi.NoteOffEvent(tick=120, channel=9, data=[40, 64]),
   midi.NoteOffEvent(tick=0, channel=9, data=[44, 64]),
   midi.NoteOnEvent(tick=0, channel=9, data=[36, 100]),
   midi.NoteOnEvent(tick=0, channel=9, data=[44, 100]),
   midi.NoteOffEvent(tick=120, channel=9, data=[44, 64]),
   midi.NoteOnEvent(tick=0, channel=9, data=[44, 100]),
   midi.NoteOffEvent(tick=120, channel=9, data=[36, 64]),
   midi.NoteOffEvent(tick=0, channel=9, data=[44, 64]),
   midi.NoteOnEvent(tick=0, channel=9, data=[40, 100]),
   midi.NoteOnEvent(tick=0, channel=9, data=[44, 100]),
   midi.NoteOffEvent(tick=120, channel=9, data=[44, 64]),
   midi.NoteOnEvent(tick=0, channel=9, data=[44, 100]),
   midi.NoteOffEvent(tick=120, channel=9, data=[40, 64]),
   midi.NoteOffEvent(tick=0, channel=9, data=[44, 64]),
   midi.NoteOnEvent(tick=0, channel=9, data=[36, 100]),
   midi.NoteOnEvent(tick=0, channel=9, data=[44, 100]),
   midi.NoteOffEvent(tick=120, channel=9, data=[44, 64]),
   midi.NoteOnEvent(tick=0, channel=9, data=[44, 100]),
   midi.NoteOffEvent(tick=120, channel=9, data=[36, 64]),
   midi.NoteOffEvent(tick=0, channel=9, data=[44, 64]),
   midi.NoteOnEvent(tick=0, channel=9, data=[40, 100]),
   midi.NoteOnEvent(tick=0, channel=9, data=[44, 100]),
   midi.NoteOffEvent(tick=120, channel=9, data=[44, 64]),
   midi.NoteOnEvent(tick=0, channel=9, data=[44, 100]),
   midi.NoteOffEvent(tick=120, channel=9, data=[40, 64]),
   midi.NoteOffEvent(tick=0, channel=9, data=[44, 64]),
   midi.NoteOnEvent(tick=0, channel=9, data=[36, 100]),
   midi.NoteOnEvent(tick=0, channel=9, data=[44, 100]),
   midi.NoteOffEvent(tick=120, channel=9, data=[36, 64]),
   midi.NoteOffEvent(tick=0, channel=9, data=[44, 64]),
   midi.NoteOnEvent(tick=0, channel=9, data=[36, 100]),
   midi.NoteOnEvent(tick=0, channel=9, data=[44, 100]),
   midi.NoteOffEvent(tick=120, channel=9, data=[36, 64]),
   midi.NoteOffEvent(tick=0, channel=9, data=[44, 64]),
   midi.NoteOnEvent(tick=0, channel=9, data=[40, 100]),
   midi.NoteOnEvent(tick=0, channel=9, data=[44, 100]),
   midi.NoteOffEvent(tick=120, channel=9, data=[44, 64]),
   midi.NoteOnEvent(tick=0, channel=9, data=[44, 100]),
   midi.NoteOffEvent(tick=120, channel=9, data=[40, 64]),
   midi.NoteOffEvent(tick=0, channel=9, data=[44, 64]),
   midi.NoteOnEvent(tick=0, channel=9, data=[44, 100]),
   midi.NoteOnEvent(tick=0, channel=9, data=[36, 100]),
   midi.NoteOffEvent(tick=120, channel=9, data=[44, 64]),
   midi.NoteOnEvent(tick=0, channel=9, data=[44, 100]),
   midi.NoteOffEvent(tick=120, channel=9, data=[36, 64]),
   midi.NoteOffEvent(tick=0, channel=9, data=[44, 64]),
   midi.NoteOnEvent(tick=0, channel=9, data=[44, 100]),
   midi.NoteOnEvent(tick=0, channel=9, data=[40, 100]),
   midi.NoteOffEvent(tick=120, channel=9, data=[44, 64]),
   midi.NoteOnEvent(tick=0, channel=9, data=[44, 100]),
   midi.NoteOffEvent(tick=120, channel=9, data=[40, 64]),
   midi.NoteOffEvent(tick=0, channel=9, data=[44, 64]),
   midi.NoteOnEvent(tick=0, channel=9, data=[44, 100]),
   midi.NoteOnEvent(tick=0, channel=9, data=[36, 100]),
   midi.NoteOffEvent(tick=120, channel=9, data=[44, 64]),
   midi.NoteOnEvent(tick=0, channel=9, data=[44, 100]),
   midi.NoteOffEvent(tick=120, channel=9, data=[36, 64]),
   midi.NoteOffEvent(tick=0, channel=9, data=[44, 64]),
   midi.NoteOnEvent(tick=0, channel=9, data=[44, 100]),
   midi.NoteOnEvent(tick=0, channel=9, data=[40, 100]),
   midi.NoteOffEvent(tick=120, channel=9, data=[44, 64]),
   midi.NoteOnEvent(tick=0, channel=9, data=[44, 100]),
   midi.NoteOffEvent(tick=120, channel=9, data=[40, 64]),
   midi.NoteOffEvent(tick=0, channel=9, data=[44, 64]),
   midi.NoteOnEvent(tick=0, channel=9, data=[44, 100]),
   midi.NoteOnEvent(tick=0, channel=9, data=[36, 100]),
   midi.NoteOffEvent(tick=120, channel=9, data=[44, 64]),
   midi.NoteOnEvent(tick=0, channel=9, data=[44, 100]),
   midi.NoteOffEvent(tick=120, channel=9, data=[36, 64]),
   midi.NoteOffEvent(tick=0, channel=9, data=[44, 64]),
   midi.NoteOnEvent(tick=0, channel=9, data=[44, 100]),
   midi.NoteOnEvent(tick=0, channel=9, data=[40, 100]),
   midi.NoteOffEvent(tick=120, channel=9, data=[44, 64]),
   midi.NoteOnEvent(tick=0, channel=9, data=[44, 100]),
   midi.NoteOffEvent(tick=120, channel=9, data=[40, 64]),
   midi.NoteOffEvent(tick=0, channel=9, data=[44, 64]),
   midi.NoteOnEvent(tick=0, channel=9, data=[44, 100]),
   midi.NoteOnEvent(tick=0, channel=9, data=[36, 100]),
   midi.NoteOffEvent(tick=120, channel=9, data=[44, 64]),
   midi.NoteOffEvent(tick=0, channel=9, data=[36, 64]),
   midi.NoteOnEvent(tick=0, channel=9, data=[44, 100]),
   midi.NoteOnEvent(tick=0, channel=9, data=[36, 100]),
   midi.NoteOffEvent(tick=120, channel=9, data=[44, 64]),
   midi.NoteOffEvent(tick=0, channel=9, data=[36, 64]),
   midi.NoteOnEvent(tick=0, channel=9, data=[44, 100]),
   midi.NoteOnEvent(tick=0, channel=9, data=[40, 100]),
   midi.NoteOffEvent(tick=60, channel=9, data=[40, 64]),
   midi.NoteOnEvent(tick=0, channel=9, data=[40, 100]),
   midi.NoteOffEvent(tick=60, channel=9, data=[44, 64]),
   midi.NoteOffEvent(tick=0, channel=9, data=[40, 64]),
   midi.NoteOnEvent(tick=0, channel=9, data=[44, 100]),
   midi.NoteOnEvent(tick=0, channel=9, data=[36, 100]),
   midi.NoteOffEvent(tick=120, channel=9, data=[44, 64]),
   midi.NoteOffEvent(tick=0, channel=9, data=[36, 64]),
   midi.NoteOnEvent(tick=0, channel=9, data=[36, 100]),
   midi.NoteOnEvent(tick=0, channel=9, data=[44, 100]),
   midi.NoteOffEvent(tick=120, channel=9, data=[44, 64]),
   midi.NoteOnEvent(tick=0, channel=9, data=[44, 100]),
   midi.NoteOffEvent(tick=120, channel=9, data=[36, 64]),
   midi.NoteOffEvent(tick=0, channel=9, data=[44, 64]),
   midi.NoteOnEvent(tick=0, channel=9, data=[40, 100]),
   midi.NoteOnEvent(tick=0, channel=9, data=[44, 100]),
   midi.NoteOffEvent(tick=120, channel=9, data=[44, 64]),
   midi.NoteOnEvent(tick=0, channel=9, data=[44, 100]),
   midi.NoteOffEvent(tick=120, channel=9, data=[40, 64]),
   midi.NoteOffEvent(tick=0, channel=9, data=[44, 64]),
   midi.NoteOnEvent(tick=0, channel=9, data=[36, 100]),
   midi.NoteOnEvent(tick=0, channel=9, data=[44, 100]),
   midi.NoteOffEvent(tick=120, channel=9, data=[44, 64]),
   midi.NoteOnEvent(tick=0, channel=9, data=[44, 100]),
   midi.NoteOffEvent(tick=120, channel=9, data=[36, 64]),
   midi.NoteOffEvent(tick=0, channel=9, data=[44, 64]),
   midi.NoteOnEvent(tick=0, channel=9, data=[40, 100]),
   midi.NoteOnEvent(tick=0, channel=9, data=[44, 100]),
   midi.NoteOffEvent(tick=120, channel=9, data=[44, 64]),
   midi.NoteOnEvent(tick=0, channel=9, data=[44, 100]),
   midi.NoteOffEvent(tick=120, channel=9, data=[40, 64]),
   midi.NoteOffEvent(tick=0, channel=9, data=[44, 64]),
   midi.NoteOnEvent(tick=0, channel=9, data=[36, 100]),
   midi.NoteOnEvent(tick=0, channel=9, data=[44, 100]),
   midi.NoteOffEvent(tick=120, channel=9, data=[44, 64]),
   midi.NoteOnEvent(tick=0, channel=9, data=[44, 100]),
   midi.NoteOffEvent(tick=120, channel=9, data=[36, 64]),
   midi.NoteOffEvent(tick=0, channel=9, data=[44, 64]),
   midi.NoteOnEvent(tick=0, channel=9, data=[40, 100]),
   midi.NoteOnEvent(tick=0, channel=9, data=[44, 100]),
   midi.NoteOffEvent(tick=120, channel=9, data=[44, 64]),
   midi.NoteOnEvent(tick=0, channel=9, data=[44, 100]),
   midi.NoteOffEvent(tick=120, channel=9, data=[40, 64]),
   midi.NoteOffEvent(tick=0, channel=9, data=[44, 64]),
   midi.NoteOnEvent(tick=0, channel=9, data=[36, 100]),
   midi.NoteOnEvent(tick=0, channel=9, data=[44, 100]),
   midi.NoteOffEvent(tick=120, channel=9, data=[36, 64]),
   midi.NoteOffEvent(tick=0, channel=9, data=[44, 64]),
   midi.NoteOnEvent(tick=0, channel=9, data=[36, 100]),
   midi.NoteOnEvent(tick=0, channel=9, data=[44, 100]),
   midi.NoteOffEvent(tick=120, channel=9, data=[36, 64]),
   midi.NoteOffEvent(tick=0, channel=9, data=[44, 64]),
   midi.NoteOnEvent(tick=0, channel=9, data=[40, 100]),
   midi.NoteOnEvent(tick=0, channel=9, data=[44, 100]),
   midi.NoteOffEvent(tick=60, channel=9, data=[40, 64]),
   midi.NoteOnEvent(tick=0, channel=9, data=[40, 100]),
   midi.NoteOffEvent(tick=60, channel=9, data=[44, 64]),
   midi.NoteOffEvent(tick=0, channel=9, data=[40, 64]),
   midi.NoteOnEvent(tick=0, channel=9, data=[36, 100]),
   midi.NoteOnEvent(tick=0, channel=9, data=[44, 100]),
   midi.NoteOffEvent(tick=120, channel=9, data=[36, 64]),
   midi.NoteOffEvent(tick=0, channel=9, data=[44, 64]),
   midi.NoteOnEvent(tick=0, channel=9, data=[36, 100]),
   midi.NoteOnEvent(tick=0, channel=9, data=[44, 100]),
   midi.NoteOffEvent(tick=120, channel=9, data=[44, 64]),
   midi.NoteOnEvent(tick=0, channel=9, data=[44, 100]),
   midi.NoteOffEvent(tick=120, channel=9, data=[36, 64]),
   midi.NoteOffEvent(tick=0, channel=9, data=[44, 64]),
   midi.NoteOnEvent(tick=0, channel=9, data=[40, 100]),
   midi.NoteOnEvent(tick=0, channel=9, data=[44, 100]),
   midi.NoteOffEvent(tick=120, channel=9, data=[44, 64]),
   midi.NoteOnEvent(tick=0, channel=9, data=[44, 100]),
   midi.NoteOffEvent(tick=120, channel=9, data=[40, 64]),
   midi.NoteOffEvent(tick=0, channel=9, data=[44, 64]),
   midi.NoteOnEvent(tick=0, channel=9, data=[36, 100]),
   midi.NoteOnEvent(tick=0, channel=9, data=[44, 100]),
   midi.NoteOffEvent(tick=120, channel=9, data=[44, 64]),
   midi.NoteOnEvent(tick=0, channel=9, data=[44, 100]),
   midi.NoteOffEvent(tick=120, channel=9, data=[36, 64]),
   midi.NoteOffEvent(tick=0, channel=9, data=[44, 64]),
   midi.NoteOnEvent(tick=0, channel=9, data=[40, 100]),
   midi.NoteOnEvent(tick=0, channel=9, data=[44, 100]),
   midi.NoteOffEvent(tick=120, channel=9, data=[44, 64]),
   midi.NoteOnEvent(tick=0, channel=9, data=[44, 100]),
   midi.NoteOffEvent(tick=120, channel=9, data=[40, 64]),
   midi.NoteOffEvent(tick=0, channel=9, data=[44, 64]),
   midi.NoteOnEvent(tick=0, channel=9, data=[36, 100]),
   midi.NoteOnEvent(tick=0, channel=9, data=[44, 100]),
   midi.NoteOffEvent(tick=120, channel=9, data=[44, 64]),
   midi.NoteOnEvent(tick=0, channel=9, data=[44, 100]),
   midi.NoteOffEvent(tick=120, channel=9, data=[36, 64]),
   midi.NoteOffEvent(tick=0, channel=9, data=[44, 64]),
   midi.NoteOnEvent(tick=0, channel=9, data=[40, 100]),
   midi.NoteOnEvent(tick=0, channel=9, data=[44, 100]),
   midi.NoteOffEvent(tick=120, channel=9, data=[44, 64]),
   midi.NoteOnEvent(tick=0, channel=9, data=[44, 100]),
   midi.NoteOffEvent(tick=120, channel=9, data=[40, 64]),
   midi.NoteOffEvent(tick=0, channel=9, data=[44, 64]),
   midi.NoteOnEvent(tick=0, channel=9, data=[36, 100]),
   midi.NoteOnEvent(tick=0, channel=9, data=[44, 100]),
   midi.NoteOffEvent(tick=120, channel=9, data=[36, 64]),
   midi.NoteOffEvent(tick=0, channel=9, data=[44, 64]),
   midi.NoteOnEvent(tick=0, channel=9, data=[36, 100]),
   midi.NoteOnEvent(tick=0, channel=9, data=[44, 100]),
   midi.NoteOffEvent(tick=120, channel=9, data=[36, 64]),
   midi.NoteOffEvent(tick=0, channel=9, data=[44, 64]),
   midi.NoteOnEvent(tick=0, channel=9, data=[40, 100]),
   midi.NoteOnEvent(tick=0, channel=9, data=[44, 100]),
   midi.NoteOffEvent(tick=60, channel=9, data=[40, 64]),
   midi.NoteOnEvent(tick=0, channel=9, data=[40, 100]),
   midi.NoteOffEvent(tick=60, channel=9, data=[44, 64]),
   midi.NoteOffEvent(tick=0, channel=9, data=[40, 64]),
   midi.NoteOnEvent(tick=0, channel=9, data=[36, 100]),
   midi.NoteOnEvent(tick=0, channel=9, data=[44, 100]),
   midi.NoteOffEvent(tick=240, channel=9, data=[44, 64]),
   midi.NoteOffEvent(tick=120, channel=9, data=[36, 64]),
   midi.EndOfTrackEvent(tick=0, data=[])]),
 midi.Track(\
  [midi.TrackNameEvent(tick=0, text="album 'Hellbilly Deluxe'", data=[97, 108, 98, 117, 109, 32, 39, 72, 101, 108, 108, 98, 105, 108, 108, 121, 32, 68, 101, 108, 117, 120, 101, 39]),
   midi.ProgramChangeEvent(tick=0, channel=1, data=[33]),
   midi.NoteOnEvent(tick=4800, channel=1, data=[57, 100]),
   midi.NoteOnEvent(tick=0, channel=1, data=[62, 100]),
   midi.NoteOffEvent(tick=120, channel=1, data=[57, 64]),
   midi.NoteOffEvent(tick=0, channel=1, data=[62, 64]),
   midi.NoteOnEvent(tick=0, channel=1, data=[62, 100]),
   midi.NoteOnEvent(tick=0, channel=1, data=[57, 100]),
   midi.NoteOffEvent(tick=120, channel=1, data=[62, 64]),
   midi.NoteOffEvent(tick=0, channel=1, data=[57, 64]),
   midi.NoteOnEvent(tick=0, channel=1, data=[62, 100]),
   midi.NoteOnEvent(tick=0, channel=1, data=[57, 100]),
   midi.NoteOffEvent(tick=120, channel=1, data=[62, 64]),
   midi.NoteOffEvent(tick=0, channel=1, data=[57, 64]),
   midi.NoteOnEvent(tick=0, channel=1, data=[62, 100]),
   midi.NoteOnEvent(tick=0, channel=1, data=[57, 100]),
   midi.NoteOffEvent(tick=120, channel=1, data=[62, 64]),
   midi.NoteOffEvent(tick=0, channel=1, data=[57, 64]),
   midi.NoteOnEvent(tick=0, channel=1, data=[62, 100]),
   midi.NoteOnEvent(tick=0, channel=1, data=[57, 100]),
   midi.NoteOffEvent(tick=120, channel=1, data=[62, 64]),
   midi.NoteOffEvent(tick=0, channel=1, data=[57, 0]),
   midi.NoteOnEvent(tick=0, channel=1, data=[57, 100]),
   midi.NoteOnEvent(tick=0, channel=1, data=[62, 100]),
   midi.NoteOffEvent(tick=120, channel=1, data=[57, 64]),
   midi.NoteOffEvent(tick=0, channel=1, data=[62, 64]),
   midi.NoteOnEvent(tick=0, channel=1, data=[62, 100]),
   midi.NoteOnEvent(tick=0, channel=1, data=[57, 100]),
   midi.NoteOffEvent(tick=120, channel=1, data=[62, 64]),
   midi.NoteOffEvent(tick=0, channel=1, data=[57, 64]),
   midi.NoteOnEvent(tick=0, channel=1, data=[63, 100]),
   midi.NoteOnEvent(tick=0, channel=1, data=[58, 100]),
   midi.NoteOffEvent(tick=120, channel=1, data=[63, 64]),
   midi.NoteOffEvent(tick=0, channel=1, data=[58, 0]),
   midi.NoteOnEvent(tick=0, channel=1, data=[62, 100]),
   midi.NoteOnEvent(tick=0, channel=1, data=[57, 100]),
   midi.NoteOffEvent(tick=120, channel=1, data=[62, 64]),
   midi.NoteOffEvent(tick=0, channel=1, data=[57, 64]),
   midi.NoteOnEvent(tick=0, channel=1, data=[57, 100]),
   midi.NoteOnEvent(tick=0, channel=1, data=[62, 100]),
   midi.NoteOffEvent(tick=120, channel=1, data=[57, 64]),
   midi.NoteOffEvent(tick=0, channel=1, data=[62, 64]),
   midi.NoteOnEvent(tick=0, channel=1, data=[57, 100]),
   midi.NoteOnEvent(tick=0, channel=1, data=[62, 100]),
   midi.NoteOffEvent(tick=120, channel=1, data=[57, 0]),
   midi.NoteOffEvent(tick=0, channel=1, data=[62, 64]),
   midi.NoteOnEvent(tick=0, channel=1, data=[57, 100]),
   midi.NoteOnEvent(tick=0, channel=1, data=[62, 100]),
   midi.NoteOffEvent(tick=120, channel=1, data=[57, 64]),
   midi.NoteOffEvent(tick=0, channel=1, data=[62, 64]),
   midi.NoteOnEvent(tick=0, channel=1, data=[57, 100]),
   midi.NoteOnEvent(tick=0, channel=1, data=[62, 100]),
   midi.NoteOffEvent(tick=120, channel=1, data=[57, 64]),
   midi.NoteOffEvent(tick=0, channel=1, data=[62, 64]),
   midi.NoteOnEvent(tick=0, channel=1, data=[62, 100]),
   midi.NoteOnEvent(tick=0, channel=1, data=[57, 100]),
   midi.NoteOffEvent(tick=120, channel=1, data=[62, 64]),
   midi.NoteOffEvent(tick=0, channel=1, data=[57, 0]),
   midi.NoteOnEvent(tick=0, channel=1, data=[62, 100]),
   midi.NoteOnEvent(tick=0, channel=1, data=[57, 100]),
   midi.NoteOffEvent(tick=120, channel=1, data=[62, 64]),
   midi.NoteOffEvent(tick=0, channel=1, data=[57, 64]),
   midi.NoteOnEvent(tick=0, channel=1, data=[61, 100]),
   midi.NoteOnEvent(tick=0, channel=1, data=[56, 100]),
   midi.NoteOffEvent(tick=120, channel=1, data=[61, 0]),
   midi.NoteOffEvent(tick=0, channel=1, data=[56, 0]),
   midi.NoteOnEvent(tick=0, channel=1, data=[62, 100]),
   midi.NoteOnEvent(tick=0, channel=1, data=[57, 100]),
   midi.NoteOffEvent(tick=120, channel=1, data=[62, 64]),
   midi.NoteOffEvent(tick=0, channel=1, data=[57, 64]),
   midi.NoteOnEvent(tick=0, channel=1, data=[57, 100]),
   midi.NoteOnEvent(tick=0, channel=1, data=[62, 100]),
   midi.NoteOffEvent(tick=120, channel=1, data=[57, 64]),
   midi.NoteOffEvent(tick=0, channel=1, data=[62, 64]),
   midi.NoteOnEvent(tick=0, channel=1, data=[57, 100]),
   midi.NoteOnEvent(tick=0, channel=1, data=[62, 100]),
   midi.NoteOffEvent(tick=120, channel=1, data=[57, 64]),
   midi.NoteOffEvent(tick=0, channel=1, data=[62, 64]),
   midi.NoteOnEvent(tick=0, channel=1, data=[57, 100]),
   midi.NoteOnEvent(tick=0, channel=1, data=[62, 100]),
   midi.NoteOffEvent(tick=120, channel=1, data=[57, 64]),
   midi.NoteOffEvent(tick=0, channel=1, data=[62, 64]),
   midi.NoteOnEvent(tick=0, channel=1, data=[57, 100]),
   midi.NoteOnEvent(tick=0, channel=1, data=[62, 100]),
   midi.NoteOffEvent(tick=120, channel=1, data=[57, 0]),
   midi.NoteOffEvent(tick=0, channel=1, data=[62, 64]),
   midi.NoteOnEvent(tick=0, channel=1, data=[62, 100]),
   midi.NoteOnEvent(tick=0, channel=1, data=[57, 100]),
   midi.NoteOffEvent(tick=120, channel=1, data=[62, 64]),
   midi.NoteOffEvent(tick=0, channel=1, data=[57, 64]),
   midi.NoteOnEvent(tick=0, channel=1, data=[57, 100]),
   midi.NoteOnEvent(tick=0, channel=1, data=[62, 100]),
   midi.NoteOffEvent(tick=120, channel=1, data=[57, 64]),
   midi.NoteOffEvent(tick=0, channel=1, data=[62, 64]),
   midi.NoteOnEvent(tick=0, channel=1, data=[58, 100]),
   midi.NoteOnEvent(tick=0, channel=1, data=[63, 100]),
   midi.NoteOffEvent(tick=120, channel=1, data=[58, 0]),
   midi.NoteOffEvent(tick=0, channel=1, data=[63, 64]),
   midi.NoteOnEvent(tick=0, channel=1, data=[57, 100]),
   midi.NoteOnEvent(tick=0, channel=1, data=[62, 100]),
   midi.NoteOffEvent(tick=120, channel=1, data=[57, 64]),
   midi.NoteOffEvent(tick=0, channel=1, data=[62, 64]),
   midi.NoteOnEvent(tick=0, channel=1, data=[62, 100]),
   midi.NoteOnEvent(tick=0, channel=1, data=[57, 100]),
   midi.NoteOffEvent(tick=120, channel=1, data=[62, 64]),
   midi.NoteOffEvent(tick=0, channel=1, data=[57, 64]),
   midi.NoteOnEvent(tick=0, channel=1, data=[62, 100]),
   midi.NoteOnEvent(tick=0, channel=1, data=[57, 100]),
   midi.NoteOffEvent(tick=120, channel=1, data=[62, 64]),
   midi.NoteOffEvent(tick=0, channel=1, data=[57, 0]),
   midi.NoteOnEvent(tick=0, channel=1, data=[62, 100]),
   midi.NoteOnEvent(tick=0, channel=1, data=[57, 100]),
   midi.NoteOffEvent(tick=120, channel=1, data=[62, 64]),
   midi.NoteOffEvent(tick=0, channel=1, data=[57, 64]),
   midi.NoteOnEvent(tick=0, channel=1, data=[62, 100]),
   midi.NoteOnEvent(tick=0, channel=1, data=[57, 100]),
   midi.NoteOffEvent(tick=120, channel=1, data=[62, 64]),
   midi.NoteOffEvent(tick=0, channel=1, data=[57, 64]),
   midi.NoteOnEvent(tick=0, channel=1, data=[57, 100]),
   midi.NoteOnEvent(tick=0, channel=1, data=[62, 100]),
   midi.NoteOffEvent(tick=120, channel=1, data=[57, 0]),
   midi.NoteOffEvent(tick=0, channel=1, data=[62, 64]),
   midi.NoteOnEvent(tick=0, channel=1, data=[57, 100]),
   midi.NoteOnEvent(tick=0, channel=1, data=[62, 100]),
   midi.NoteOffEvent(tick=120, channel=1, data=[57, 64]),
   midi.NoteOffEvent(tick=0, channel=1, data=[62, 64]),
   midi.NoteOnEvent(tick=0, channel=1, data=[56, 100]),
   midi.NoteOnEvent(tick=0, channel=1, data=[61, 100]),
   midi.NoteOffEvent(tick=120, channel=1, data=[56, 0]),
   midi.NoteOffEvent(tick=0, channel=1, data=[61, 0]),
   midi.NoteOnEvent(tick=0, channel=1, data=[62, 100]),
   midi.NoteOnEvent(tick=0, channel=1, data=[57, 100]),
   midi.NoteOffEvent(tick=120, channel=1, data=[62, 64]),
   midi.NoteOffEvent(tick=0, channel=1, data=[57, 64]),
   midi.NoteOnEvent(tick=0, channel=1, data=[57, 100]),
   midi.NoteOnEvent(tick=0, channel=1, data=[62, 100]),
   midi.NoteOffEvent(tick=60, channel=1, data=[57, 0]),
   midi.NoteOffEvent(tick=0, channel=1, data=[62, 64]),
   midi.NoteOnEvent(tick=60, channel=1, data=[57, 100]),
   midi.NoteOnEvent(tick=0, channel=1, data=[62, 100]),
   midi.NoteOffEvent(tick=60, channel=1, data=[57, 0]),
   midi.NoteOffEvent(tick=0, channel=1, data=[62, 64]),
   midi.NoteOnEvent(tick=0, channel=1, data=[57, 100]),
   midi.NoteOnEvent(tick=0, channel=1, data=[62, 100]),
   midi.NoteOffEvent(tick=60, channel=1, data=[57, 64]),
   midi.NoteOffEvent(tick=0, channel=1, data=[62, 64]),
   midi.NoteOnEvent(tick=0, channel=1, data=[57, 100]),
   midi.NoteOnEvent(tick=0, channel=1, data=[62, 100]),
   midi.NoteOffEvent(tick=60, channel=1, data=[57, 64]),
   midi.NoteOffEvent(tick=0, channel=1, data=[62, 64]),
   midi.NoteOnEvent(tick=60, channel=1, data=[57, 100]),
   midi.NoteOnEvent(tick=0, channel=1, data=[62, 100]),
   midi.NoteOffEvent(tick=120, channel=1, data=[57, 64]),
   midi.NoteOffEvent(tick=0, channel=1, data=[62, 64]),
   midi.NoteOnEvent(tick=0, channel=1, data=[57, 100]),
   midi.NoteOnEvent(tick=0, channel=1, data=[62, 100]),
   midi.NoteOffEvent(tick=60, channel=1, data=[57, 64]),
   midi.NoteOffEvent(tick=0, channel=1, data=[62, 0]),
   midi.NoteOnEvent(tick=60, channel=1, data=[57, 100]),
   midi.NoteOnEvent(tick=0, channel=1, data=[62, 100]),
   midi.NoteOffEvent(tick=60, channel=1, data=[57, 64]),
   midi.NoteOffEvent(tick=0, channel=1, data=[62, 0]),
   midi.NoteOnEvent(tick=0, channel=1, data=[57, 100]),
   midi.NoteOnEvent(tick=0, channel=1, data=[62, 100]),
   midi.NoteOffEvent(tick=60, channel=1, data=[57, 64]),
   midi.NoteOffEvent(tick=0, channel=1, data=[62, 64]),
   midi.NoteOnEvent(tick=0, channel=1, data=[58, 100]),
   midi.NoteOnEvent(tick=0, channel=1, data=[63, 100]),
   midi.NoteOffEvent(tick=120, channel=1, data=[58, 0]),
   midi.NoteOffEvent(tick=0, channel=1, data=[63, 64]),
   midi.NoteOnEvent(tick=0, channel=1, data=[57, 100]),
   midi.NoteOnEvent(tick=0, channel=1, data=[62, 100]),
   midi.NoteOffEvent(tick=120, channel=1, data=[57, 64]),
   midi.NoteOffEvent(tick=0, channel=1, data=[62, 64]),
   midi.NoteOnEvent(tick=0, channel=1, data=[62, 100]),
   midi.NoteOnEvent(tick=0, channel=1, data=[57, 100]),
   midi.NoteOffEvent(tick=60, channel=1, data=[62, 64]),
   midi.NoteOffEvent(tick=0, channel=1, data=[57, 0]),
   midi.NoteOnEvent(tick=60, channel=1, data=[62, 100]),
   midi.NoteOnEvent(tick=0, channel=1, data=[57, 100]),
   midi.NoteOffEvent(tick=60, channel=1, data=[62, 64]),
   midi.NoteOffEvent(tick=0, channel=1, data=[57, 0]),
   midi.NoteOnEvent(tick=0, channel=1, data=[62, 100]),
   midi.NoteOnEvent(tick=0, channel=1, data=[57, 100]),
   midi.NoteOffEvent(tick=60, channel=1, data=[62, 64]),
   midi.NoteOffEvent(tick=0, channel=1, data=[57, 64]),
   midi.NoteOnEvent(tick=0, channel=1, data=[62, 100]),
   midi.NoteOnEvent(tick=0, channel=1, data=[57, 100]),
   midi.NoteOffEvent(tick=60, channel=1, data=[62, 64]),
   midi.NoteOffEvent(tick=0, channel=1, data=[57, 64]),
   midi.NoteOnEvent(tick=60, channel=1, data=[62, 100]),
   midi.NoteOnEvent(tick=0, channel=1, data=[57, 100]),
   midi.NoteOffEvent(tick=120, channel=1, data=[62, 64]),
   midi.NoteOffEvent(tick=0, channel=1, data=[57, 64]),
   midi.NoteOnEvent(tick=0, channel=1, data=[62, 100]),
   midi.NoteOnEvent(tick=0, channel=1, data=[57, 100]),
   midi.NoteOffEvent(tick=60, channel=1, data=[62, 0]),
   midi.NoteOffEvent(tick=0, channel=1, data=[57, 64]),
   midi.NoteOnEvent(tick=60, channel=1, data=[62, 100]),
   midi.NoteOnEvent(tick=0, channel=1, data=[57, 100]),
   midi.NoteOffEvent(tick=60, channel=1, data=[62, 0]),
   midi.NoteOffEvent(tick=0, channel=1, data=[57, 64]),
   midi.NoteOnEvent(tick=0, channel=1, data=[62, 100]),
   midi.NoteOnEvent(tick=0, channel=1, data=[57, 100]),
   midi.NoteOffEvent(tick=60, channel=1, data=[62, 64]),
   midi.NoteOffEvent(tick=0, channel=1, data=[57, 64]),
   midi.NoteOnEvent(tick=0, channel=1, data=[56, 100]),
   midi.NoteOnEvent(tick=0, channel=1, data=[61, 100]),
   midi.NoteOffEvent(tick=120, channel=1, data=[56, 0]),
   midi.NoteOffEvent(tick=0, channel=1, data=[61, 0]),
   midi.NoteOnEvent(tick=0, channel=1, data=[57, 100]),
   midi.NoteOnEvent(tick=0, channel=1, data=[62, 100]),
   midi.NoteOffEvent(tick=120, channel=1, data=[57, 64]),
   midi.NoteOffEvent(tick=0, channel=1, data=[62, 64]),
   midi.NoteOnEvent(tick=0, channel=1, data=[62, 100]),
   midi.NoteOnEvent(tick=0, channel=1, data=[57, 100]),
   midi.NoteOffEvent(tick=60, channel=1, data=[62, 64]),
   midi.NoteOffEvent(tick=0, channel=1, data=[57, 0]),
   midi.NoteOnEvent(tick=60, channel=1, data=[62, 100]),
   midi.NoteOnEvent(tick=0, channel=1, data=[57, 100]),
   midi.NoteOffEvent(tick=60, channel=1, data=[62, 64]),
   midi.NoteOffEvent(tick=0, channel=1, data=[57, 0]),
   midi.NoteOnEvent(tick=0, channel=1, data=[62, 100]),
   midi.NoteOnEvent(tick=0, channel=1, data=[57, 100]),
   midi.NoteOffEvent(tick=60, channel=1, data=[62, 64]),
   midi.NoteOffEvent(tick=0, channel=1, data=[57, 64]),
   midi.NoteOnEvent(tick=0, channel=1, data=[62, 100]),
   midi.NoteOnEvent(tick=0, channel=1, data=[57, 100]),
   midi.NoteOffEvent(tick=60, channel=1, data=[62, 64]),
   midi.NoteOffEvent(tick=0, channel=1, data=[57, 64]),
   midi.NoteOnEvent(tick=60, channel=1, data=[62, 100]),
   midi.NoteOnEvent(tick=0, channel=1, data=[57, 100]),
   midi.NoteOffEvent(tick=120, channel=1, data=[62, 64]),
   midi.NoteOffEvent(tick=0, channel=1, data=[57, 64]),
   midi.NoteOnEvent(tick=0, channel=1, data=[62, 100]),
   midi.NoteOnEvent(tick=0, channel=1, data=[57, 100]),
   midi.NoteOffEvent(tick=60, channel=1, data=[62, 0]),
   midi.NoteOffEvent(tick=0, channel=1, data=[57, 64]),
   midi.NoteOnEvent(tick=60, channel=1, data=[62, 100]),
   midi.NoteOnEvent(tick=0, channel=1, data=[57, 100]),
   midi.NoteOffEvent(tick=60, channel=1, data=[62, 0]),
   midi.NoteOffEvent(tick=0, channel=1, data=[57, 64]),
   midi.NoteOnEvent(tick=0, channel=1, data=[62, 100]),
   midi.NoteOnEvent(tick=0, channel=1, data=[57, 100]),
   midi.NoteOffEvent(tick=60, channel=1, data=[62, 64]),
   midi.NoteOffEvent(tick=0, channel=1, data=[57, 64]),
   midi.NoteOnEvent(tick=0, channel=1, data=[63, 100]),
   midi.NoteOnEvent(tick=0, channel=1, data=[58, 100]),
   midi.NoteOffEvent(tick=120, channel=1, data=[63, 64]),
   midi.NoteOffEvent(tick=0, channel=1, data=[58, 0]),
   midi.NoteOnEvent(tick=0, channel=1, data=[62, 100]),
   midi.NoteOnEvent(tick=0, channel=1, data=[57, 100]),
   midi.NoteOffEvent(tick=120, channel=1, data=[62, 64]),
   midi.NoteOffEvent(tick=0, channel=1, data=[57, 64]),
   midi.NoteOnEvent(tick=0, channel=1, data=[57, 100]),
   midi.NoteOnEvent(tick=0, channel=1, data=[62, 100]),
   midi.NoteOffEvent(tick=60, channel=1, data=[57, 0]),
   midi.NoteOffEvent(tick=0, channel=1, data=[62, 64]),
   midi.NoteOnEvent(tick=60, channel=1, data=[57, 100]),
   midi.NoteOnEvent(tick=0, channel=1, data=[62, 100]),
   midi.NoteOffEvent(tick=60, channel=1, data=[57, 0]),
   midi.NoteOffEvent(tick=0, channel=1, data=[62, 64]),
   midi.NoteOnEvent(tick=0, channel=1, data=[57, 100]),
   midi.NoteOnEvent(tick=0, channel=1, data=[62, 100]),
   midi.NoteOffEvent(tick=60, channel=1, data=[57, 64]),
   midi.NoteOffEvent(tick=0, channel=1, data=[62, 64]),
   midi.NoteOnEvent(tick=0, channel=1, data=[57, 100]),
   midi.NoteOnEvent(tick=0, channel=1, data=[62, 100]),
   midi.NoteOffEvent(tick=60, channel=1, data=[57, 64]),
   midi.NoteOffEvent(tick=0, channel=1, data=[62, 64]),
   midi.NoteOnEvent(tick=60, channel=1, data=[57, 100]),
   midi.NoteOnEvent(tick=0, channel=1, data=[62, 100]),
   midi.NoteOffEvent(tick=120, channel=1, data=[57, 64]),
   midi.NoteOffEvent(tick=0, channel=1, data=[62, 64]),
   midi.NoteOnEvent(tick=0, channel=1, data=[57, 100]),
   midi.NoteOnEvent(tick=0, channel=1, data=[62, 100]),
   midi.NoteOffEvent(tick=60, channel=1, data=[57, 64]),
   midi.NoteOffEvent(tick=0, channel=1, data=[62, 0]),
   midi.NoteOnEvent(tick=60, channel=1, data=[57, 100]),
   midi.NoteOnEvent(tick=0, channel=1, data=[62, 100]),
   midi.NoteOffEvent(tick=60, channel=1, data=[57, 64]),
   midi.NoteOffEvent(tick=0, channel=1, data=[62, 0]),
   midi.NoteOnEvent(tick=0, channel=1, data=[57, 100]),
   midi.NoteOnEvent(tick=0, channel=1, data=[62, 100]),
   midi.NoteOffEvent(tick=60, channel=1, data=[57, 64]),
   midi.NoteOffEvent(tick=0, channel=1, data=[62, 64]),
   midi.NoteOnEvent(tick=0, channel=1, data=[61, 100]),
   midi.NoteOnEvent(tick=0, channel=1, data=[56, 100]),
   midi.NoteOffEvent(tick=120, channel=1, data=[61, 0]),
   midi.NoteOffEvent(tick=0, channel=1, data=[56, 0]),
   midi.NoteOnEvent(tick=0, channel=1, data=[62, 100]),
   midi.NoteOnEvent(tick=0, channel=1, data=[57, 100]),
   midi.NoteOffEvent(tick=480, channel=1, data=[62, 64]),
   midi.NoteOffEvent(tick=0, channel=1, data=[57, 64]),
   midi.NoteOnEvent(tick=0, channel=1, data=[61, 100]),
   midi.NoteOnEvent(tick=0, channel=1, data=[56, 100]),
   midi.NoteOffEvent(tick=360, channel=1, data=[61, 64]),
   midi.NoteOffEvent(tick=0, channel=1, data=[56, 64]),
   midi.NoteOnEvent(tick=0, channel=1, data=[55, 100]),
   midi.NoteOnEvent(tick=0, channel=1, data=[60, 100]),
   midi.NoteOffEvent(tick=840, channel=1, data=[55, 64]),
   midi.NoteOffEvent(tick=0, channel=1, data=[60, 64]),
   midi.NoteOnEvent(tick=0, channel=1, data=[59, 100]),
   midi.NoteOnEvent(tick=0, channel=1, data=[54, 100]),
   midi.NoteOffEvent(tick=240, channel=1, data=[59, 64]),
   midi.NoteOffEvent(tick=0, channel=1, data=[54, 64]),
   midi.NoteOnEvent(tick=0, channel=1, data=[57, 100]),
   midi.NoteOnEvent(tick=0, channel=1, data=[62, 100]),
   midi.NoteOffEvent(tick=480, channel=1, data=[57, 64]),
   midi.NoteOffEvent(tick=0, channel=1, data=[62, 64]),
   midi.NoteOnEvent(tick=0, channel=1, data=[56, 100]),
   midi.NoteOnEvent(tick=0, channel=1, data=[61, 100]),
   midi.NoteOffEvent(tick=360, channel=1, data=[56, 64]),
   midi.NoteOffEvent(tick=0, channel=1, data=[61, 64]),
   midi.NoteOnEvent(tick=0, channel=1, data=[60, 100]),
   midi.NoteOnEvent(tick=0, channel=1, data=[55, 100]),
   midi.NoteOffEvent(tick=840, channel=1, data=[60, 64]),
   midi.NoteOffEvent(tick=0, channel=1, data=[55, 64]),
   midi.NoteOnEvent(tick=240, channel=1, data=[57, 100]),
   midi.NoteOnEvent(tick=0, channel=1, data=[62, 100]),
   midi.NoteOffEvent(tick=480, channel=1, data=[57, 64]),
   midi.NoteOffEvent(tick=0, channel=1, data=[62, 64]),
   midi.NoteOnEvent(tick=0, channel=1, data=[56, 100]),
   midi.NoteOnEvent(tick=0, channel=1, data=[61, 100]),
   midi.NoteOffEvent(tick=360, channel=1, data=[56, 64]),
   midi.NoteOffEvent(tick=0, channel=1, data=[61, 64]),
   midi.NoteOnEvent(tick=0, channel=1, data=[60, 100]),
   midi.NoteOnEvent(tick=0, channel=1, data=[55, 100]),
   midi.NoteOffEvent(tick=840, channel=1, data=[60, 64]),
   midi.NoteOffEvent(tick=0, channel=1, data=[55, 64]),
   midi.NoteOnEvent(tick=0, channel=1, data=[54, 100]),
   midi.NoteOnEvent(tick=0, channel=1, data=[59, 100]),
   midi.NoteOffEvent(tick=240, channel=1, data=[54, 64]),
   midi.NoteOffEvent(tick=0, channel=1, data=[59, 64]),
   midi.NoteOnEvent(tick=0, channel=1, data=[57, 100]),
   midi.NoteOnEvent(tick=0, channel=1, data=[62, 100]),
   midi.NoteOffEvent(tick=480, channel=1, data=[57, 64]),
   midi.NoteOffEvent(tick=0, channel=1, data=[62, 64]),
   midi.NoteOnEvent(tick=0, channel=1, data=[56, 100]),
   midi.NoteOnEvent(tick=0, channel=1, data=[61, 100]),
   midi.NoteOffEvent(tick=360, channel=1, data=[56, 64]),
   midi.NoteOffEvent(tick=0, channel=1, data=[61, 64]),
   midi.NoteOnEvent(tick=0, channel=1, data=[60, 100]),
   midi.NoteOnEvent(tick=0, channel=1, data=[55, 100]),
   midi.NoteOffEvent(tick=840, channel=1, data=[60, 64]),
   midi.NoteOffEvent(tick=0, channel=1, data=[55, 64]),
   midi.NoteOnEvent(tick=1200, channel=1, data=[40, 100]),
   midi.NoteOffEvent(tick=240, channel=1, data=[40, 64]),
   midi.NoteOnEvent(tick=0, channel=1, data=[38, 100]),
   midi.NoteOffEvent(tick=120, channel=1, data=[38, 64]),
   midi.NoteOnEvent(tick=0, channel=1, data=[40, 100]),
   midi.NoteOffEvent(tick=240, channel=1, data=[40, 64]),
   midi.NoteOnEvent(tick=0, channel=1, data=[40, 127]),
   midi.NoteOffEvent(tick=120, channel=1, data=[40, 64]),
   midi.NoteOnEvent(tick=0, channel=1, data=[38, 127]),
   midi.NoteOffEvent(tick=120, channel=1, data=[38, 64]),
   midi.NoteOnEvent(tick=0, channel=1, data=[40, 100]),
   midi.NoteOffEvent(tick=120, channel=1, data=[40, 64]),
   midi.NoteOnEvent(tick=0, channel=1, data=[40, 100]),
   midi.NoteOffEvent(tick=240, channel=1, data=[40, 64]),
   midi.NoteOnEvent(tick=0, channel=1, data=[38, 100]),
   midi.NoteOffEvent(tick=120, channel=1, data=[38, 64]),
   midi.NoteOnEvent(tick=0, channel=1, data=[40, 100]),
   midi.NoteOffEvent(tick=240, channel=1, data=[40, 64]),
   midi.NoteOnEvent(tick=0, channel=1, data=[40, 127]),
   midi.NoteOffEvent(tick=120, channel=1, data=[40, 64]),
   midi.NoteOnEvent(tick=0, channel=1, data=[38, 127]),
   midi.NoteOffEvent(tick=120, channel=1, data=[38, 64]),
   midi.NoteOnEvent(tick=0, channel=1, data=[40, 100]),
   midi.NoteOffEvent(tick=120, channel=1, data=[40, 64]),
   midi.NoteOnEvent(tick=0, channel=1, data=[40, 100]),
   midi.NoteOffEvent(tick=240, channel=1, data=[40, 64]),
   midi.NoteOnEvent(tick=0, channel=1, data=[38, 100]),
   midi.NoteOffEvent(tick=120, channel=1, data=[38, 64]),
   midi.NoteOnEvent(tick=0, channel=1, data=[40, 100]),
   midi.NoteOffEvent(tick=240, channel=1, data=[40, 64]),
   midi.NoteOnEvent(tick=0, channel=1, data=[40, 127]),
   midi.NoteOffEvent(tick=120, channel=1, data=[40, 64]),
   midi.NoteOnEvent(tick=0, channel=1, data=[38, 127]),
   midi.NoteOffEvent(tick=120, channel=1, data=[38, 64]),
   midi.NoteOnEvent(tick=0, channel=1, data=[40, 100]),
   midi.NoteOffEvent(tick=120, channel=1, data=[40, 64]),
   midi.NoteOnEvent(tick=0, channel=1, data=[40, 100]),
   midi.NoteOffEvent(tick=240, channel=1, data=[40, 64]),
   midi.NoteOnEvent(tick=0, channel=1, data=[38, 100]),
   midi.NoteOffEvent(tick=120, channel=1, data=[38, 64]),
   midi.NoteOnEvent(tick=0, channel=1, data=[40, 100]),
   midi.NoteOffEvent(tick=240, channel=1, data=[40, 64]),
   midi.NoteOnEvent(tick=0, channel=1, data=[40, 127]),
   midi.NoteOffEvent(tick=120, channel=1, data=[40, 64]),
   midi.NoteOnEvent(tick=0, channel=1, data=[38, 127]),
   midi.NoteOffEvent(tick=120, channel=1, data=[38, 64]),
   midi.NoteOnEvent(tick=0, channel=1, data=[40, 100]),
   midi.NoteOffEvent(tick=120, channel=1, data=[40, 64]),
   midi.NoteOnEvent(tick=0, channel=1, data=[40, 100]),
   midi.NoteOffEvent(tick=240, channel=1, data=[40, 64]),
   midi.NoteOnEvent(tick=0, channel=1, data=[38, 100]),
   midi.NoteOffEvent(tick=120, channel=1, data=[38, 64]),
   midi.NoteOnEvent(tick=0, channel=1, data=[40, 100]),
   midi.NoteOffEvent(tick=240, channel=1, data=[40, 64]),
   midi.NoteOnEvent(tick=0, channel=1, data=[40, 127]),
   midi.NoteOffEvent(tick=120, channel=1, data=[40, 64]),
   midi.NoteOnEvent(tick=0, channel=1, data=[38, 127]),
   midi.NoteOffEvent(tick=120, channel=1, data=[38, 64]),
   midi.NoteOnEvent(tick=0, channel=1, data=[40, 100]),
   midi.NoteOffEvent(tick=120, channel=1, data=[40, 64]),
   midi.NoteOnEvent(tick=0, channel=1, data=[40, 100]),
   midi.NoteOffEvent(tick=240, channel=1, data=[40, 64]),
   midi.NoteOnEvent(tick=0, channel=1, data=[38, 100]),
   midi.NoteOffEvent(tick=120, channel=1, data=[38, 64]),
   midi.NoteOnEvent(tick=0, channel=1, data=[40, 100]),
   midi.NoteOffEvent(tick=240, channel=1, data=[40, 64]),
   midi.NoteOnEvent(tick=0, channel=1, data=[40, 127]),
   midi.NoteOffEvent(tick=120, channel=1, data=[40, 64]),
   midi.NoteOnEvent(tick=0, channel=1, data=[38, 127]),
   midi.NoteOffEvent(tick=120, channel=1, data=[38, 64]),
   midi.NoteOnEvent(tick=0, channel=1, data=[40, 100]),
   midi.NoteOffEvent(tick=120, channel=1, data=[40, 64]),
   midi.NoteOnEvent(tick=0, channel=1, data=[40, 100]),
   midi.NoteOffEvent(tick=240, channel=1, data=[40, 64]),
   midi.NoteOnEvent(tick=0, channel=1, data=[38, 100]),
   midi.NoteOffEvent(tick=120, channel=1, data=[38, 64]),
   midi.NoteOnEvent(tick=0, channel=1, data=[40, 100]),
   midi.NoteOffEvent(tick=240, channel=1, data=[40, 64]),
   midi.NoteOnEvent(tick=0, channel=1, data=[40, 127]),
   midi.NoteOffEvent(tick=120, channel=1, data=[40, 64]),
   midi.NoteOnEvent(tick=0, channel=1, data=[38, 127]),
   midi.NoteOffEvent(tick=120, channel=1, data=[38, 64]),
   midi.NoteOnEvent(tick=0, channel=1, data=[40, 100]),
   midi.NoteOffEvent(tick=120, channel=1, data=[40, 64]),
   midi.NoteOnEvent(tick=0, channel=1, data=[40, 100]),
   midi.NoteOffEvent(tick=240, channel=1, data=[40, 64]),
   midi.NoteOnEvent(tick=0, channel=1, data=[38, 100]),
   midi.NoteOffEvent(tick=120, channel=1, data=[38, 64]),
   midi.NoteOnEvent(tick=0, channel=1, data=[40, 100]),
   midi.NoteOffEvent(tick=240, channel=1, data=[40, 64]),
   midi.NoteOnEvent(tick=0, channel=1, data=[40, 127]),
   midi.NoteOffEvent(tick=120, channel=1, data=[40, 64]),
   midi.NoteOnEvent(tick=0, channel=1, data=[38, 127]),
   midi.NoteOffEvent(tick=120, channel=1, data=[38, 64]),
   midi.NoteOnEvent(tick=0, channel=1, data=[40, 100]),
   midi.NoteOffEvent(tick=120, channel=1, data=[40, 64]),
   midi.NoteOnEvent(tick=0, channel=1, data=[40, 100]),
   midi.NoteOffEvent(tick=240, channel=1, data=[40, 64]),
   midi.NoteOnEvent(tick=0, channel=1, data=[38, 100]),
   midi.NoteOffEvent(tick=120, channel=1, data=[38, 64]),
   midi.NoteOnEvent(tick=0, channel=1, data=[40, 100]),
   midi.NoteOffEvent(tick=240, channel=1, data=[40, 64]),
   midi.NoteOnEvent(tick=0, channel=1, data=[40, 127]),
   midi.NoteOffEvent(tick=120, channel=1, data=[40, 64]),
   midi.NoteOnEvent(tick=0, channel=1, data=[38, 127]),
   midi.NoteOffEvent(tick=120, channel=1, data=[38, 64]),
   midi.NoteOnEvent(tick=0, channel=1, data=[40, 100]),
   midi.NoteOffEvent(tick=120, channel=1, data=[40, 64]),
   midi.NoteOnEvent(tick=0, channel=1, data=[40, 100]),
   midi.NoteOffEvent(tick=240, channel=1, data=[40, 64]),
   midi.NoteOnEvent(tick=0, channel=1, data=[38, 100]),
   midi.NoteOffEvent(tick=120, channel=1, data=[38, 64]),
   midi.NoteOnEvent(tick=0, channel=1, data=[40, 100]),
   midi.NoteOffEvent(tick=240, channel=1, data=[40, 64]),
   midi.NoteOnEvent(tick=0, channel=1, data=[40, 127]),
   midi.NoteOffEvent(tick=120, channel=1, data=[40, 64]),
   midi.NoteOnEvent(tick=0, channel=1, data=[38, 127]),
   midi.NoteOffEvent(tick=120, channel=1, data=[38, 64]),
   midi.NoteOnEvent(tick=0, channel=1, data=[40, 100]),
   midi.NoteOffEvent(tick=120, channel=1, data=[40, 64]),
   midi.NoteOnEvent(tick=0, channel=1, data=[40, 100]),
   midi.NoteOffEvent(tick=240, channel=1, data=[40, 64]),
   midi.NoteOnEvent(tick=0, channel=1, data=[38, 100]),
   midi.NoteOffEvent(tick=120, channel=1, data=[38, 64]),
   midi.NoteOnEvent(tick=0, channel=1, data=[40, 100]),
   midi.NoteOffEvent(tick=240, channel=1, data=[40, 64]),
   midi.NoteOnEvent(tick=0, channel=1, data=[40, 127]),
   midi.NoteOffEvent(tick=120, channel=1, data=[40, 64]),
   midi.NoteOnEvent(tick=0, channel=1, data=[38, 127]),
   midi.NoteOffEvent(tick=120, channel=1, data=[38, 64]),
   midi.NoteOnEvent(tick=0, channel=1, data=[40, 100]),
   midi.NoteOffEvent(tick=120, channel=1, data=[40, 64]),
   midi.NoteOnEvent(tick=0, channel=1, data=[40, 100]),
   midi.NoteOffEvent(tick=240, channel=1, data=[40, 64]),
   midi.NoteOnEvent(tick=0, channel=1, data=[38, 100]),
   midi.NoteOffEvent(tick=120, channel=1, data=[38, 64]),
   midi.NoteOnEvent(tick=0, channel=1, data=[40, 100]),
   midi.NoteOffEvent(tick=240, channel=1, data=[40, 64]),
   midi.NoteOnEvent(tick=0, channel=1, data=[40, 127]),
   midi.NoteOffEvent(tick=120, channel=1, data=[40, 64]),
   midi.NoteOnEvent(tick=0, channel=1, data=[38, 127]),
   midi.NoteOffEvent(tick=120, channel=1, data=[38, 64]),
   midi.NoteOnEvent(tick=0, channel=1, data=[40, 100]),
   midi.NoteOffEvent(tick=120, channel=1, data=[40, 64]),
   midi.NoteOnEvent(tick=0, channel=1, data=[38, 100]),
   midi.NoteOffEvent(tick=60, channel=1, data=[38, 64]),
   midi.NoteOnEvent(tick=0, channel=1, data=[38, 100]),
   midi.NoteOffEvent(tick=60, channel=1, data=[38, 64]),
   midi.NoteOnEvent(tick=0, channel=1, data=[38, 100]),
   midi.NoteOffEvent(tick=60, channel=1, data=[38, 64]),
   midi.NoteOnEvent(tick=0, channel=1, data=[38, 100]),
   midi.NoteOffEvent(tick=60, channel=1, data=[38, 64]),
   midi.NoteOnEvent(tick=0, channel=1, data=[38, 100]),
   midi.NoteOffEvent(tick=60, channel=1, data=[38, 64]),
   midi.NoteOnEvent(tick=0, channel=1, data=[38, 100]),
   midi.NoteOffEvent(tick=60, channel=1, data=[38, 64]),
   midi.NoteOnEvent(tick=0, channel=1, data=[38, 100]),
   midi.NoteOffEvent(tick=60, channel=1, data=[38, 64]),
   midi.NoteOnEvent(tick=0, channel=1, data=[38, 100]),
   midi.NoteOffEvent(tick=60, channel=1, data=[38, 64]),
   midi.NoteOnEvent(tick=0, channel=1, data=[38, 100]),
   midi.NoteOffEvent(tick=60, channel=1, data=[38, 0]),
   midi.NoteOnEvent(tick=0, channel=1, data=[38, 100]),
   midi.NoteOffEvent(tick=60, channel=1, data=[38, 64]),
   midi.NoteOnEvent(tick=0, channel=1, data=[38, 100]),
   midi.NoteOffEvent(tick=60, channel=1, data=[38, 64]),
   midi.NoteOnEvent(tick=0, channel=1, data=[38, 100]),
   midi.NoteOffEvent(tick=60, channel=1, data=[38, 64]),
   midi.NoteOnEvent(tick=240, channel=1, data=[38, 100]),
   midi.NoteOffEvent(tick=60, channel=1, data=[38, 64]),
   midi.NoteOnEvent(tick=0, channel=1, data=[38, 100]),
   midi.NoteOffEvent(tick=60, channel=1, data=[38, 64]),
   midi.NoteOnEvent(tick=0, channel=1, data=[38, 100]),
   midi.NoteOffEvent(tick=60, channel=1, data=[38, 64]),
   midi.NoteOnEvent(tick=0, channel=1, data=[38, 100]),
   midi.NoteOffEvent(tick=60, channel=1, data=[38, 64]),
   midi.NoteOnEvent(tick=0, channel=1, data=[38, 100]),
   midi.NoteOffEvent(tick=60, channel=1, data=[38, 64]),
   midi.NoteOnEvent(tick=0, channel=1, data=[38, 100]),
   midi.NoteOffEvent(tick=60, channel=1, data=[38, 64]),
   midi.NoteOnEvent(tick=0, channel=1, data=[38, 100]),
   midi.NoteOffEvent(tick=60, channel=1, data=[38, 64]),
   midi.NoteOnEvent(tick=0, channel=1, data=[38, 100]),
   midi.NoteOffEvent(tick=60, channel=1, data=[38, 64]),
   midi.NoteOnEvent(tick=0, channel=1, data=[38, 100]),
   midi.NoteOffEvent(tick=60, channel=1, data=[38, 64]),
   midi.NoteOnEvent(tick=0, channel=1, data=[38, 100]),
   midi.NoteOffEvent(tick=60, channel=1, data=[38, 64]),
   midi.NoteOnEvent(tick=0, channel=1, data=[38, 100]),
   midi.NoteOffEvent(tick=60, channel=1, data=[38, 64]),
   midi.NoteOnEvent(tick=0, channel=1, data=[38, 100]),
   midi.NoteOffEvent(tick=60, channel=1, data=[38, 64]),
   midi.NoteOnEvent(tick=240, channel=1, data=[38, 100]),
   midi.NoteOffEvent(tick=60, channel=1, data=[38, 64]),
   midi.NoteOnEvent(tick=0, channel=1, data=[38, 100]),
   midi.NoteOffEvent(tick=60, channel=1, data=[38, 64]),
   midi.NoteOnEvent(tick=0, channel=1, data=[38, 100]),
   midi.NoteOffEvent(tick=60, channel=1, data=[38, 64]),
   midi.NoteOnEvent(tick=0, channel=1, data=[38, 100]),
   midi.NoteOffEvent(tick=60, channel=1, data=[38, 64]),
   midi.NoteOnEvent(tick=0, channel=1, data=[38, 100]),
   midi.NoteOffEvent(tick=60, channel=1, data=[38, 64]),
   midi.NoteOnEvent(tick=0, channel=1, data=[38, 100]),
   midi.NoteOffEvent(tick=60, channel=1, data=[38, 64]),
   midi.NoteOnEvent(tick=0, channel=1, data=[38, 100]),
   midi.NoteOffEvent(tick=60, channel=1, data=[38, 64]),
   midi.NoteOnEvent(tick=0, channel=1, data=[38, 100]),
   midi.NoteOffEvent(tick=60, channel=1, data=[38, 64]),
   midi.NoteOnEvent(tick=0, channel=1, data=[38, 100]),
   midi.NoteOffEvent(tick=60, channel=1, data=[38, 64]),
   midi.NoteOnEvent(tick=0, channel=1, data=[38, 100]),
   midi.NoteOffEvent(tick=60, channel=1, data=[38, 64]),
   midi.NoteOnEvent(tick=0, channel=1, data=[38, 100]),
   midi.NoteOffEvent(tick=60, channel=1, data=[38, 64]),
   midi.NoteOnEvent(tick=0, channel=1, data=[38, 100]),
   midi.NoteOffEvent(tick=60, channel=1, data=[38, 64]),
   midi.NoteOnEvent(tick=0, channel=1, data=[38, 100]),
   midi.NoteOffEvent(tick=60, channel=1, data=[38, 64]),
   midi.NoteOnEvent(tick=0, channel=1, data=[38, 100]),
   midi.NoteOffEvent(tick=60, channel=1, data=[38, 64]),
   midi.NoteOnEvent(tick=0, channel=1, data=[38, 100]),
   midi.NoteOffEvent(tick=60, channel=1, data=[38, 64]),
   midi.NoteOnEvent(tick=0, channel=1, data=[38, 100]),
   midi.NoteOffEvent(tick=60, channel=1, data=[38, 64]),
   midi.NoteOnEvent(tick=0, channel=1, data=[38, 100]),
   midi.NoteOffEvent(tick=60, channel=1, data=[38, 64]),
   midi.NoteOnEvent(tick=0, channel=1, data=[38, 100]),
   midi.NoteOffEvent(tick=60, channel=1, data=[38, 64]),
   midi.NoteOnEvent(tick=0, channel=1, data=[38, 100]),
   midi.NoteOffEvent(tick=60, channel=1, data=[38, 64]),
   midi.NoteOnEvent(tick=0, channel=1, data=[38, 100]),
   midi.NoteOffEvent(tick=60, channel=1, data=[38, 64]),
   midi.NoteOnEvent(tick=0, channel=1, data=[38, 100]),
   midi.NoteOffEvent(tick=60, channel=1, data=[38, 64]),
   midi.NoteOnEvent(tick=0, channel=1, data=[38, 100]),
   midi.NoteOffEvent(tick=60, channel=1, data=[38, 64]),
   midi.NoteOnEvent(tick=0, channel=1, data=[38, 100]),
   midi.NoteOffEvent(tick=60, channel=1, data=[38, 64]),
   midi.NoteOnEvent(tick=0, channel=1, data=[38, 100]),
   midi.NoteOffEvent(tick=60, channel=1, data=[38, 64]),
   midi.NoteOnEvent(tick=0, channel=1, data=[38, 100]),
   midi.NoteOffEvent(tick=60, channel=1, data=[38, 0]),
   midi.NoteOnEvent(tick=0, channel=1, data=[38, 100]),
   midi.NoteOffEvent(tick=60, channel=1, data=[38, 64]),
   midi.NoteOnEvent(tick=0, channel=1, data=[38, 100]),
   midi.NoteOffEvent(tick=60, channel=1, data=[38, 64]),
   midi.NoteOnEvent(tick=0, channel=1, data=[38, 100]),
   midi.NoteOffEvent(tick=60, channel=1, data=[38, 64]),
   midi.NoteOnEvent(tick=0, channel=1, data=[38, 100]),
   midi.NoteOffEvent(tick=60, channel=1, data=[38, 64]),
   midi.NoteOnEvent(tick=0, channel=1, data=[38, 100]),
   midi.NoteOffEvent(tick=60, channel=1, data=[38, 64]),
   midi.NoteOnEvent(tick=0, channel=1, data=[38, 100]),
   midi.NoteOffEvent(tick=60, channel=1, data=[38, 64]),
   midi.NoteOnEvent(tick=0, channel=1, data=[38, 100]),
   midi.NoteOffEvent(tick=60, channel=1, data=[38, 64]),
   midi.NoteOnEvent(tick=0, channel=1, data=[38, 100]),
   midi.NoteOffEvent(tick=60, channel=1, data=[38, 64]),
   midi.NoteOnEvent(tick=0, channel=1, data=[38, 100]),
   midi.NoteOffEvent(tick=60, channel=1, data=[38, 64]),
   midi.NoteOnEvent(tick=0, channel=1, data=[38, 100]),
   midi.NoteOffEvent(tick=60, channel=1, data=[38, 64]),
   midi.NoteOnEvent(tick=0, channel=1, data=[38, 100]),
   midi.NoteOffEvent(tick=60, channel=1, data=[38, 64]),
   midi.NoteOnEvent(tick=0, channel=1, data=[38, 100]),
   midi.NoteOffEvent(tick=60, channel=1, data=[38, 64]),
   midi.NoteOnEvent(tick=0, channel=1, data=[38, 100]),
   midi.NoteOffEvent(tick=60, channel=1, data=[38, 64]),
   midi.NoteOnEvent(tick=0, channel=1, data=[38, 100]),
   midi.NoteOffEvent(tick=60, channel=1, data=[38, 64]),
   midi.NoteOnEvent(tick=0, channel=1, data=[38, 100]),
   midi.NoteOffEvent(tick=60, channel=1, data=[38, 64]),
   midi.NoteOnEvent(tick=0, channel=1, data=[38, 100]),
   midi.NoteOffEvent(tick=60, channel=1, data=[38, 0]),
   midi.NoteOnEvent(tick=0, channel=1, data=[38, 100]),
   midi.NoteOffEvent(tick=60, channel=1, data=[38, 64]),
   midi.NoteOnEvent(tick=0, channel=1, data=[38, 100]),
   midi.NoteOffEvent(tick=60, channel=1, data=[38, 64]),
   midi.NoteOnEvent(tick=0, channel=1, data=[38, 100]),
   midi.NoteOffEvent(tick=60, channel=1, data=[38, 64]),
   midi.NoteOnEvent(tick=240, channel=1, data=[38, 100]),
   midi.NoteOffEvent(tick=60, channel=1, data=[38, 64]),
   midi.NoteOnEvent(tick=0, channel=1, data=[38, 100]),
   midi.NoteOffEvent(tick=60, channel=1, data=[38, 64]),
   midi.NoteOnEvent(tick=0, channel=1, data=[38, 100]),
   midi.NoteOffEvent(tick=60, channel=1, data=[38, 64]),
   midi.NoteOnEvent(tick=0, channel=1, data=[38, 100]),
   midi.NoteOffEvent(tick=60, channel=1, data=[38, 64]),
   midi.NoteOnEvent(tick=0, channel=1, data=[38, 100]),
   midi.NoteOffEvent(tick=60, channel=1, data=[38, 64]),
   midi.NoteOnEvent(tick=0, channel=1, data=[38, 100]),
   midi.NoteOffEvent(tick=60, channel=1, data=[38, 64]),
   midi.NoteOnEvent(tick=0, channel=1, data=[38, 100]),
   midi.NoteOffEvent(tick=60, channel=1, data=[38, 64]),
   midi.NoteOnEvent(tick=0, channel=1, data=[38, 100]),
   midi.NoteOffEvent(tick=60, channel=1, data=[38, 64]),
   midi.NoteOnEvent(tick=0, channel=1, data=[38, 100]),
   midi.NoteOffEvent(tick=60, channel=1, data=[38, 64]),
   midi.NoteOnEvent(tick=0, channel=1, data=[38, 100]),
   midi.NoteOffEvent(tick=60, channel=1, data=[38, 64]),
   midi.NoteOnEvent(tick=0, channel=1, data=[38, 100]),
   midi.NoteOffEvent(tick=60, channel=1, data=[38, 64]),
   midi.NoteOnEvent(tick=0, channel=1, data=[38, 100]),
   midi.NoteOffEvent(tick=60, channel=1, data=[38, 64]),
   midi.NoteOnEvent(tick=240, channel=1, data=[38, 100]),
   midi.NoteOffEvent(tick=60, channel=1, data=[38, 64]),
   midi.NoteOnEvent(tick=0, channel=1, data=[38, 100]),
   midi.NoteOffEvent(tick=60, channel=1, data=[38, 64]),
   midi.NoteOnEvent(tick=0, channel=1, data=[38, 100]),
   midi.NoteOffEvent(tick=60, channel=1, data=[38, 64]),
   midi.NoteOnEvent(tick=0, channel=1, data=[38, 100]),
   midi.NoteOffEvent(tick=60, channel=1, data=[38, 64]),
   midi.NoteOnEvent(tick=0, channel=1, data=[38, 100]),
   midi.NoteOffEvent(tick=60, channel=1, data=[38, 64]),
   midi.NoteOnEvent(tick=0, channel=1, data=[38, 100]),
   midi.NoteOffEvent(tick=60, channel=1, data=[38, 64]),
   midi.NoteOnEvent(tick=0, channel=1, data=[38, 100]),
   midi.NoteOffEvent(tick=60, channel=1, data=[38, 64]),
   midi.NoteOnEvent(tick=0, channel=1, data=[38, 100]),
   midi.NoteOffEvent(tick=60, channel=1, data=[38, 64]),
   midi.NoteOnEvent(tick=0, channel=1, data=[38, 100]),
   midi.NoteOffEvent(tick=60, channel=1, data=[38, 64]),
   midi.NoteOnEvent(tick=0, channel=1, data=[38, 100]),
   midi.NoteOffEvent(tick=60, channel=1, data=[38, 64]),
   midi.NoteOnEvent(tick=0, channel=1, data=[38, 100]),
   midi.NoteOffEvent(tick=60, channel=1, data=[38, 64]),
   midi.NoteOnEvent(tick=0, channel=1, data=[38, 100]),
   midi.NoteOffEvent(tick=60, channel=1, data=[38, 64]),
   midi.NoteOnEvent(tick=0, channel=1, data=[38, 100]),
   midi.NoteOffEvent(tick=60, channel=1, data=[38, 64]),
   midi.NoteOnEvent(tick=0, channel=1, data=[38, 100]),
   midi.NoteOffEvent(tick=60, channel=1, data=[38, 64]),
   midi.NoteOnEvent(tick=0, channel=1, data=[38, 100]),
   midi.NoteOffEvent(tick=60, channel=1, data=[38, 64]),
   midi.NoteOnEvent(tick=0, channel=1, data=[38, 100]),
   midi.NoteOffEvent(tick=60, channel=1, data=[38, 64]),
   midi.NoteOnEvent(tick=0, channel=1, data=[38, 100]),
   midi.NoteOffEvent(tick=60, channel=1, data=[38, 64]),
   midi.NoteOnEvent(tick=0, channel=1, data=[38, 100]),
   midi.NoteOffEvent(tick=60, channel=1, data=[38, 64]),
   midi.NoteOnEvent(tick=0, channel=1, data=[38, 100]),
   midi.NoteOffEvent(tick=60, channel=1, data=[38, 64]),
   midi.NoteOnEvent(tick=0, channel=1, data=[38, 100]),
   midi.NoteOffEvent(tick=60, channel=1, data=[38, 64]),
   midi.NoteOnEvent(tick=0, channel=1, data=[38, 100]),
   midi.NoteOffEvent(tick=60, channel=1, data=[38, 64]),
   midi.NoteOnEvent(tick=0, channel=1, data=[38, 100]),
   midi.NoteOffEvent(tick=60, channel=1, data=[38, 64]),
   midi.NoteOnEvent(tick=0, channel=1, data=[38, 100]),
   midi.NoteOffEvent(tick=60, channel=1, data=[38, 64]),
   midi.NoteOnEvent(tick=0, channel=1, data=[38, 100]),
   midi.NoteOffEvent(tick=60, channel=1, data=[38, 64]),
   midi.NoteOnEvent(tick=0, channel=1, data=[38, 100]),
   midi.NoteOffEvent(tick=60, channel=1, data=[38, 0]),
   midi.NoteOnEvent(tick=0, channel=1, data=[38, 100]),
   midi.NoteOffEvent(tick=60, channel=1, data=[38, 64]),
   midi.NoteOnEvent(tick=0, channel=1, data=[38, 100]),
   midi.NoteOffEvent(tick=60, channel=1, data=[38, 64]),
   midi.NoteOnEvent(tick=0, channel=1, data=[38, 100]),
   midi.NoteOffEvent(tick=60, channel=1, data=[38, 64]),
   midi.NoteOnEvent(tick=0, channel=1, data=[38, 100]),
   midi.NoteOffEvent(tick=60, channel=1, data=[38, 64]),
   midi.NoteOnEvent(tick=0, channel=1, data=[38, 100]),
   midi.NoteOffEvent(tick=60, channel=1, data=[38, 64]),
   midi.NoteOnEvent(tick=0, channel=1, data=[38, 100]),
   midi.NoteOffEvent(tick=60, channel=1, data=[38, 64]),
   midi.NoteOnEvent(tick=0, channel=1, data=[38, 100]),
   midi.NoteOffEvent(tick=60, channel=1, data=[38, 64]),
   midi.NoteOnEvent(tick=0, channel=1, data=[57, 100]),
   midi.NoteOnEvent(tick=0, channel=1, data=[62, 100]),
   midi.NoteOffEvent(tick=120, channel=1, data=[57, 64]),
   midi.NoteOffEvent(tick=0, channel=1, data=[62, 64]),
   midi.NoteOnEvent(tick=0, channel=1, data=[62, 100]),
   midi.NoteOnEvent(tick=0, channel=1, data=[57, 100]),
   midi.NoteOffEvent(tick=60, channel=1, data=[62, 64]),
   midi.NoteOffEvent(tick=0, channel=1, data=[57, 0]),
   midi.NoteOnEvent(tick=60, channel=1, data=[62, 100]),
   midi.NoteOnEvent(tick=0, channel=1, data=[57, 100]),
   midi.NoteOffEvent(tick=60, channel=1, data=[62, 64]),
   midi.NoteOffEvent(tick=0, channel=1, data=[57, 0]),
   midi.NoteOnEvent(tick=0, channel=1, data=[62, 100]),
   midi.NoteOnEvent(tick=0, channel=1, data=[57, 100]),
   midi.NoteOffEvent(tick=60, channel=1, data=[62, 64]),
   midi.NoteOffEvent(tick=0, channel=1, data=[57, 64]),
   midi.NoteOnEvent(tick=0, channel=1, data=[62, 100]),
   midi.NoteOnEvent(tick=0, channel=1, data=[57, 100]),
   midi.NoteOffEvent(tick=60, channel=1, data=[62, 64]),
   midi.NoteOffEvent(tick=0, channel=1, data=[57, 64]),
   midi.NoteOnEvent(tick=60, channel=1, data=[62, 100]),
   midi.NoteOnEvent(tick=0, channel=1, data=[57, 100]),
   midi.NoteOffEvent(tick=120, channel=1, data=[62, 64]),
   midi.NoteOffEvent(tick=0, channel=1, data=[57, 64]),
   midi.NoteOnEvent(tick=0, channel=1, data=[62, 100]),
   midi.NoteOnEvent(tick=0, channel=1, data=[57, 100]),
   midi.NoteOffEvent(tick=60, channel=1, data=[62, 0]),
   midi.NoteOffEvent(tick=0, channel=1, data=[57, 64]),
   midi.NoteOnEvent(tick=60, channel=1, data=[62, 100]),
   midi.NoteOnEvent(tick=0, channel=1, data=[57, 100]),
   midi.NoteOffEvent(tick=60, channel=1, data=[62, 0]),
   midi.NoteOffEvent(tick=0, channel=1, data=[57, 64]),
   midi.NoteOnEvent(tick=0, channel=1, data=[62, 100]),
   midi.NoteOnEvent(tick=0, channel=1, data=[57, 100]),
   midi.NoteOffEvent(tick=60, channel=1, data=[62, 64]),
   midi.NoteOffEvent(tick=0, channel=1, data=[57, 64]),
   midi.NoteOnEvent(tick=0, channel=1, data=[63, 100]),
   midi.NoteOnEvent(tick=0, channel=1, data=[58, 100]),
   midi.NoteOffEvent(tick=120, channel=1, data=[63, 64]),
   midi.NoteOffEvent(tick=0, channel=1, data=[58, 0]),
   midi.NoteOnEvent(tick=0, channel=1, data=[62, 100]),
   midi.NoteOnEvent(tick=0, channel=1, data=[57, 100]),
   midi.NoteOffEvent(tick=120, channel=1, data=[62, 64]),
   midi.NoteOffEvent(tick=0, channel=1, data=[57, 64]),
   midi.NoteOnEvent(tick=0, channel=1, data=[57, 100]),
   midi.NoteOnEvent(tick=0, channel=1, data=[62, 100]),
   midi.NoteOffEvent(tick=60, channel=1, data=[57, 0]),
   midi.NoteOffEvent(tick=0, channel=1, data=[62, 64]),
   midi.NoteOnEvent(tick=60, channel=1, data=[57, 100]),
   midi.NoteOnEvent(tick=0, channel=1, data=[62, 100]),
   midi.NoteOffEvent(tick=60, channel=1, data=[57, 0]),
   midi.NoteOffEvent(tick=0, channel=1, data=[62, 64]),
   midi.NoteOnEvent(tick=0, channel=1, data=[57, 100]),
   midi.NoteOnEvent(tick=0, channel=1, data=[62, 100]),
   midi.NoteOffEvent(tick=60, channel=1, data=[57, 64]),
   midi.NoteOffEvent(tick=0, channel=1, data=[62, 64]),
   midi.NoteOnEvent(tick=0, channel=1, data=[57, 100]),
   midi.NoteOnEvent(tick=0, channel=1, data=[62, 100]),
   midi.NoteOffEvent(tick=60, channel=1, data=[57, 64]),
   midi.NoteOffEvent(tick=0, channel=1, data=[62, 64]),
   midi.NoteOnEvent(tick=60, channel=1, data=[57, 100]),
   midi.NoteOnEvent(tick=0, channel=1, data=[62, 100]),
   midi.NoteOffEvent(tick=120, channel=1, data=[57, 64]),
   midi.NoteOffEvent(tick=0, channel=1, data=[62, 64]),
   midi.NoteOnEvent(tick=0, channel=1, data=[57, 100]),
   midi.NoteOnEvent(tick=0, channel=1, data=[62, 100]),
   midi.NoteOffEvent(tick=60, channel=1, data=[57, 64]),
   midi.NoteOffEvent(tick=0, channel=1, data=[62, 0]),
   midi.NoteOnEvent(tick=60, channel=1, data=[57, 100]),
   midi.NoteOnEvent(tick=0, channel=1, data=[62, 100]),
   midi.NoteOffEvent(tick=60, channel=1, data=[57, 64]),
   midi.NoteOffEvent(tick=0, channel=1, data=[62, 0]),
   midi.NoteOnEvent(tick=0, channel=1, data=[57, 100]),
   midi.NoteOnEvent(tick=0, channel=1, data=[62, 100]),
   midi.NoteOffEvent(tick=60, channel=1, data=[57, 64]),
   midi.NoteOffEvent(tick=0, channel=1, data=[62, 64]),
   midi.NoteOnEvent(tick=0, channel=1, data=[61, 100]),
   midi.NoteOnEvent(tick=0, channel=1, data=[56, 100]),
   midi.NoteOffEvent(tick=120, channel=1, data=[61, 0]),
   midi.NoteOffEvent(tick=0, channel=1, data=[56, 0]),
   midi.NoteOnEvent(tick=0, channel=1, data=[62, 100]),
   midi.NoteOnEvent(tick=0, channel=1, data=[57, 100]),
   midi.NoteOffEvent(tick=120, channel=1, data=[62, 64]),
   midi.NoteOffEvent(tick=0, channel=1, data=[57, 64]),
   midi.NoteOnEvent(tick=0, channel=1, data=[57, 100]),
   midi.NoteOnEvent(tick=0, channel=1, data=[62, 100]),
   midi.NoteOffEvent(tick=60, channel=1, data=[57, 0]),
   midi.NoteOffEvent(tick=0, channel=1, data=[62, 64]),
   midi.NoteOnEvent(tick=60, channel=1, data=[57, 100]),
   midi.NoteOnEvent(tick=0, channel=1, data=[62, 100]),
   midi.NoteOffEvent(tick=60, channel=1, data=[57, 0]),
   midi.NoteOffEvent(tick=0, channel=1, data=[62, 64]),
   midi.NoteOnEvent(tick=0, channel=1, data=[57, 100]),
   midi.NoteOnEvent(tick=0, channel=1, data=[62, 100]),
   midi.NoteOffEvent(tick=60, channel=1, data=[57, 64]),
   midi.NoteOffEvent(tick=0, channel=1, data=[62, 64]),
   midi.NoteOnEvent(tick=0, channel=1, data=[57, 100]),
   midi.NoteOnEvent(tick=0, channel=1, data=[62, 100]),
   midi.NoteOffEvent(tick=60, channel=1, data=[57, 64]),
   midi.NoteOffEvent(tick=0, channel=1, data=[62, 64]),
   midi.NoteOnEvent(tick=60, channel=1, data=[57, 100]),
   midi.NoteOnEvent(tick=0, channel=1, data=[62, 100]),
   midi.NoteOffEvent(tick=120, channel=1, data=[57, 64]),
   midi.NoteOffEvent(tick=0, channel=1, data=[62, 64]),
   midi.NoteOnEvent(tick=0, channel=1, data=[57, 100]),
   midi.NoteOnEvent(tick=0, channel=1, data=[62, 100]),
   midi.NoteOffEvent(tick=60, channel=1, data=[57, 64]),
   midi.NoteOffEvent(tick=0, channel=1, data=[62, 0]),
   midi.NoteOnEvent(tick=60, channel=1, data=[57, 100]),
   midi.NoteOnEvent(tick=0, channel=1, data=[62, 100]),
   midi.NoteOffEvent(tick=60, channel=1, data=[57, 64]),
   midi.NoteOffEvent(tick=0, channel=1, data=[62, 0]),
   midi.NoteOnEvent(tick=0, channel=1, data=[57, 100]),
   midi.NoteOnEvent(tick=0, channel=1, data=[62, 100]),
   midi.NoteOffEvent(tick=60, channel=1, data=[57, 64]),
   midi.NoteOffEvent(tick=0, channel=1, data=[62, 64]),
   midi.NoteOnEvent(tick=0, channel=1, data=[58, 100]),
   midi.NoteOnEvent(tick=0, channel=1, data=[63, 100]),
   midi.NoteOffEvent(tick=120, channel=1, data=[58, 0]),
   midi.NoteOffEvent(tick=0, channel=1, data=[63, 64]),
   midi.NoteOnEvent(tick=0, channel=1, data=[57, 100]),
   midi.NoteOnEvent(tick=0, channel=1, data=[62, 100]),
   midi.NoteOffEvent(tick=120, channel=1, data=[57, 64]),
   midi.NoteOffEvent(tick=0, channel=1, data=[62, 64]),
   midi.NoteOnEvent(tick=0, channel=1, data=[62, 100]),
   midi.NoteOnEvent(tick=0, channel=1, data=[57, 100]),
   midi.NoteOffEvent(tick=60, channel=1, data=[62, 64]),
   midi.NoteOffEvent(tick=0, channel=1, data=[57, 0]),
   midi.NoteOnEvent(tick=60, channel=1, data=[62, 100]),
   midi.NoteOnEvent(tick=0, channel=1, data=[57, 100]),
   midi.NoteOffEvent(tick=60, channel=1, data=[62, 64]),
   midi.NoteOffEvent(tick=0, channel=1, data=[57, 0]),
   midi.NoteOnEvent(tick=0, channel=1, data=[62, 100]),
   midi.NoteOnEvent(tick=0, channel=1, data=[57, 100]),
   midi.NoteOffEvent(tick=60, channel=1, data=[62, 64]),
   midi.NoteOffEvent(tick=0, channel=1, data=[57, 64]),
   midi.NoteOnEvent(tick=0, channel=1, data=[62, 100]),
   midi.NoteOnEvent(tick=0, channel=1, data=[57, 100]),
   midi.NoteOffEvent(tick=60, channel=1, data=[62, 64]),
   midi.NoteOffEvent(tick=0, channel=1, data=[57, 64]),
   midi.NoteOnEvent(tick=60, channel=1, data=[62, 100]),
   midi.NoteOnEvent(tick=0, channel=1, data=[57, 100]),
   midi.NoteOffEvent(tick=120, channel=1, data=[62, 64]),
   midi.NoteOffEvent(tick=0, channel=1, data=[57, 64]),
   midi.NoteOnEvent(tick=0, channel=1, data=[62, 100]),
   midi.NoteOnEvent(tick=0, channel=1, data=[57, 100]),
   midi.NoteOffEvent(tick=60, channel=1, data=[62, 0]),
   midi.NoteOffEvent(tick=0, channel=1, data=[57, 64]),
   midi.NoteOnEvent(tick=60, channel=1, data=[62, 100]),
   midi.NoteOnEvent(tick=0, channel=1, data=[57, 100]),
   midi.NoteOffEvent(tick=60, channel=1, data=[62, 0]),
   midi.NoteOffEvent(tick=0, channel=1, data=[57, 64]),
   midi.NoteOnEvent(tick=0, channel=1, data=[62, 100]),
   midi.NoteOnEvent(tick=0, channel=1, data=[57, 100]),
   midi.NoteOffEvent(tick=60, channel=1, data=[62, 64]),
   midi.NoteOffEvent(tick=0, channel=1, data=[57, 64]),
   midi.NoteOnEvent(tick=0, channel=1, data=[56, 100]),
   midi.NoteOnEvent(tick=0, channel=1, data=[61, 100]),
   midi.NoteOffEvent(tick=120, channel=1, data=[56, 0]),
   midi.NoteOffEvent(tick=0, channel=1, data=[61, 0]),
   midi.NoteOnEvent(tick=0, channel=1, data=[62, 100]),
   midi.NoteOnEvent(tick=0, channel=1, data=[57, 100]),
   midi.NoteOffEvent(tick=120, channel=1, data=[62, 64]),
   midi.NoteOffEvent(tick=0, channel=1, data=[57, 64]),
   midi.NoteOnEvent(tick=0, channel=1, data=[57, 100]),
   midi.NoteOnEvent(tick=0, channel=1, data=[62, 100]),
   midi.NoteOffEvent(tick=60, channel=1, data=[57, 0]),
   midi.NoteOffEvent(tick=0, channel=1, data=[62, 64]),
   midi.NoteOnEvent(tick=60, channel=1, data=[57, 100]),
   midi.NoteOnEvent(tick=0, channel=1, data=[62, 100]),
   midi.NoteOffEvent(tick=60, channel=1, data=[57, 0]),
   midi.NoteOffEvent(tick=0, channel=1, data=[62, 64]),
   midi.NoteOnEvent(tick=0, channel=1, data=[57, 100]),
   midi.NoteOnEvent(tick=0, channel=1, data=[62, 100]),
   midi.NoteOffEvent(tick=60, channel=1, data=[57, 64]),
   midi.NoteOffEvent(tick=0, channel=1, data=[62, 64]),
   midi.NoteOnEvent(tick=0, channel=1, data=[57, 100]),
   midi.NoteOnEvent(tick=0, channel=1, data=[62, 100]),
   midi.NoteOffEvent(tick=60, channel=1, data=[57, 64]),
   midi.NoteOffEvent(tick=0, channel=1, data=[62, 64]),
   midi.NoteOnEvent(tick=60, channel=1, data=[57, 100]),
   midi.NoteOnEvent(tick=0, channel=1, data=[62, 100]),
   midi.NoteOffEvent(tick=120, channel=1, data=[57, 64]),
   midi.NoteOffEvent(tick=0, channel=1, data=[62, 64]),
   midi.NoteOnEvent(tick=0, channel=1, data=[57, 100]),
   midi.NoteOnEvent(tick=0, channel=1, data=[62, 100]),
   midi.NoteOffEvent(tick=60, channel=1, data=[57, 64]),
   midi.NoteOffEvent(tick=0, channel=1, data=[62, 0]),
   midi.NoteOnEvent(tick=60, channel=1, data=[57, 100]),
   midi.NoteOnEvent(tick=0, channel=1, data=[62, 100]),
   midi.NoteOffEvent(tick=60, channel=1, data=[57, 64]),
   midi.NoteOffEvent(tick=0, channel=1, data=[62, 0]),
   midi.NoteOnEvent(tick=0, channel=1, data=[57, 100]),
   midi.NoteOnEvent(tick=0, channel=1, data=[62, 100]),
   midi.NoteOffEvent(tick=60, channel=1, data=[57, 64]),
   midi.NoteOffEvent(tick=0, channel=1, data=[62, 64]),
   midi.NoteOnEvent(tick=0, channel=1, data=[58, 100]),
   midi.NoteOnEvent(tick=0, channel=1, data=[63, 100]),
   midi.NoteOffEvent(tick=120, channel=1, data=[58, 0]),
   midi.NoteOffEvent(tick=0, channel=1, data=[63, 64]),
   midi.NoteOnEvent(tick=0, channel=1, data=[57, 100]),
   midi.NoteOnEvent(tick=0, channel=1, data=[62, 100]),
   midi.NoteOffEvent(tick=120, channel=1, data=[57, 64]),
   midi.NoteOffEvent(tick=0, channel=1, data=[62, 64]),
   midi.NoteOnEvent(tick=0, channel=1, data=[62, 100]),
   midi.NoteOnEvent(tick=0, channel=1, data=[57, 100]),
   midi.NoteOffEvent(tick=60, channel=1, data=[62, 64]),
   midi.NoteOffEvent(tick=0, channel=1, data=[57, 0]),
   midi.NoteOnEvent(tick=60, channel=1, data=[62, 100]),
   midi.NoteOnEvent(tick=0, channel=1, data=[57, 100]),
   midi.NoteOffEvent(tick=60, channel=1, data=[62, 64]),
   midi.NoteOffEvent(tick=0, channel=1, data=[57, 0]),
   midi.NoteOnEvent(tick=0, channel=1, data=[62, 100]),
   midi.NoteOnEvent(tick=0, channel=1, data=[57, 100]),
   midi.NoteOffEvent(tick=60, channel=1, data=[62, 64]),
   midi.NoteOffEvent(tick=0, channel=1, data=[57, 64]),
   midi.NoteOnEvent(tick=0, channel=1, data=[62, 100]),
   midi.NoteOnEvent(tick=0, channel=1, data=[57, 100]),
   midi.NoteOffEvent(tick=60, channel=1, data=[62, 64]),
   midi.NoteOffEvent(tick=0, channel=1, data=[57, 64]),
   midi.NoteOnEvent(tick=60, channel=1, data=[62, 100]),
   midi.NoteOnEvent(tick=0, channel=1, data=[57, 100]),
   midi.NoteOffEvent(tick=120, channel=1, data=[62, 64]),
   midi.NoteOffEvent(tick=0, channel=1, data=[57, 64]),
   midi.NoteOnEvent(tick=0, channel=1, data=[62, 100]),
   midi.NoteOnEvent(tick=0, channel=1, data=[57, 100]),
   midi.NoteOffEvent(tick=60, channel=1, data=[62, 0]),
   midi.NoteOffEvent(tick=0, channel=1, data=[57, 64]),
   midi.NoteOnEvent(tick=60, channel=1, data=[62, 100]),
   midi.NoteOnEvent(tick=0, channel=1, data=[57, 100]),
   midi.NoteOffEvent(tick=60, channel=1, data=[62, 0]),
   midi.NoteOffEvent(tick=0, channel=1, data=[57, 64]),
   midi.NoteOnEvent(tick=0, channel=1, data=[62, 100]),
   midi.NoteOnEvent(tick=0, channel=1, data=[57, 100]),
   midi.NoteOffEvent(tick=60, channel=1, data=[62, 64]),
   midi.NoteOffEvent(tick=0, channel=1, data=[57, 64]),
   midi.NoteOnEvent(tick=0, channel=1, data=[56, 100]),
   midi.NoteOnEvent(tick=0, channel=1, data=[61, 100]),
   midi.NoteOffEvent(tick=120, channel=1, data=[56, 0]),
   midi.NoteOffEvent(tick=0, channel=1, data=[61, 0]),
   midi.NoteOnEvent(tick=0, channel=1, data=[62, 100]),
   midi.NoteOnEvent(tick=0, channel=1, data=[57, 100]),
   midi.NoteOffEvent(tick=120, channel=1, data=[62, 64]),
   midi.NoteOffEvent(tick=0, channel=1, data=[57, 64]),
   midi.NoteOnEvent(tick=0, channel=1, data=[57, 100]),
   midi.NoteOnEvent(tick=0, channel=1, data=[62, 100]),
   midi.NoteOffEvent(tick=60, channel=1, data=[57, 0]),
   midi.NoteOffEvent(tick=0, channel=1, data=[62, 64]),
   midi.NoteOnEvent(tick=60, channel=1, data=[57, 100]),
   midi.NoteOnEvent(tick=0, channel=1, data=[62, 100]),
   midi.NoteOffEvent(tick=60, channel=1, data=[57, 0]),
   midi.NoteOffEvent(tick=0, channel=1, data=[62, 64]),
   midi.NoteOnEvent(tick=0, channel=1, data=[57, 100]),
   midi.NoteOnEvent(tick=0, channel=1, data=[62, 100]),
   midi.NoteOffEvent(tick=60, channel=1, data=[57, 64]),
   midi.NoteOffEvent(tick=0, channel=1, data=[62, 64]),
   midi.NoteOnEvent(tick=0, channel=1, data=[57, 100]),
   midi.NoteOnEvent(tick=0, channel=1, data=[62, 100]),
   midi.NoteOffEvent(tick=60, channel=1, data=[57, 64]),
   midi.NoteOffEvent(tick=0, channel=1, data=[62, 64]),
   midi.NoteOnEvent(tick=60, channel=1, data=[57, 100]),
   midi.NoteOnEvent(tick=0, channel=1, data=[62, 100]),
   midi.NoteOffEvent(tick=120, channel=1, data=[57, 64]),
   midi.NoteOffEvent(tick=0, channel=1, data=[62, 64]),
   midi.NoteOnEvent(tick=0, channel=1, data=[57, 100]),
   midi.NoteOnEvent(tick=0, channel=1, data=[62, 100]),
   midi.NoteOffEvent(tick=60, channel=1, data=[57, 64]),
   midi.NoteOffEvent(tick=0, channel=1, data=[62, 0]),
   midi.NoteOnEvent(tick=60, channel=1, data=[57, 100]),
   midi.NoteOnEvent(tick=0, channel=1, data=[62, 100]),
   midi.NoteOffEvent(tick=60, channel=1, data=[57, 64]),
   midi.NoteOffEvent(tick=0, channel=1, data=[62, 0]),
   midi.NoteOnEvent(tick=0, channel=1, data=[57, 100]),
   midi.NoteOnEvent(tick=0, channel=1, data=[62, 100]),
   midi.NoteOffEvent(tick=60, channel=1, data=[57, 64]),
   midi.NoteOffEvent(tick=0, channel=1, data=[62, 64]),
   midi.NoteOnEvent(tick=0, channel=1, data=[58, 100]),
   midi.NoteOnEvent(tick=0, channel=1, data=[63, 100]),
   midi.NoteOffEvent(tick=120, channel=1, data=[58, 0]),
   midi.NoteOffEvent(tick=0, channel=1, data=[63, 64]),
   midi.NoteOnEvent(tick=0, channel=1, data=[57, 100]),
   midi.NoteOnEvent(tick=0, channel=1, data=[62, 100]),
   midi.NoteOffEvent(tick=120, channel=1, data=[57, 64]),
   midi.NoteOffEvent(tick=0, channel=1, data=[62, 64]),
   midi.NoteOnEvent(tick=0, channel=1, data=[62, 100]),
   midi.NoteOnEvent(tick=0, channel=1, data=[57, 100]),
   midi.NoteOffEvent(tick=60, channel=1, data=[62, 64]),
   midi.NoteOffEvent(tick=0, channel=1, data=[57, 0]),
   midi.NoteOnEvent(tick=60, channel=1, data=[62, 100]),
   midi.NoteOnEvent(tick=0, channel=1, data=[57, 100]),
   midi.NoteOffEvent(tick=60, channel=1, data=[62, 64]),
   midi.NoteOffEvent(tick=0, channel=1, data=[57, 0]),
   midi.NoteOnEvent(tick=0, channel=1, data=[62, 100]),
   midi.NoteOnEvent(tick=0, channel=1, data=[57, 100]),
   midi.NoteOffEvent(tick=60, channel=1, data=[62, 64]),
   midi.NoteOffEvent(tick=0, channel=1, data=[57, 64]),
   midi.NoteOnEvent(tick=0, channel=1, data=[62, 100]),
   midi.NoteOnEvent(tick=0, channel=1, data=[57, 100]),
   midi.NoteOffEvent(tick=60, channel=1, data=[62, 64]),
   midi.NoteOffEvent(tick=0, channel=1, data=[57, 64]),
   midi.NoteOnEvent(tick=60, channel=1, data=[62, 100]),
   midi.NoteOnEvent(tick=0, channel=1, data=[57, 100]),
   midi.NoteOffEvent(tick=120, channel=1, data=[62, 64]),
   midi.NoteOffEvent(tick=0, channel=1, data=[57, 64]),
   midi.NoteOnEvent(tick=0, channel=1, data=[62, 100]),
   midi.NoteOnEvent(tick=0, channel=1, data=[57, 100]),
   midi.NoteOffEvent(tick=60, channel=1, data=[62, 0]),
   midi.NoteOffEvent(tick=0, channel=1, data=[57, 64]),
   midi.NoteOnEvent(tick=60, channel=1, data=[62, 100]),
   midi.NoteOnEvent(tick=0, channel=1, data=[57, 100]),
   midi.NoteOffEvent(tick=60, channel=1, data=[62, 0]),
   midi.NoteOffEvent(tick=0, channel=1, data=[57, 64]),
   midi.NoteOnEvent(tick=0, channel=1, data=[62, 100]),
   midi.NoteOnEvent(tick=0, channel=1, data=[57, 100]),
   midi.NoteOffEvent(tick=60, channel=1, data=[62, 64]),
   midi.NoteOffEvent(tick=0, channel=1, data=[57, 64]),
   midi.NoteOnEvent(tick=0, channel=1, data=[56, 100]),
   midi.NoteOnEvent(tick=0, channel=1, data=[61, 100]),
   midi.NoteOffEvent(tick=120, channel=1, data=[56, 0]),
   midi.NoteOffEvent(tick=0, channel=1, data=[61, 0]),
   midi.NoteOnEvent(tick=0, channel=1, data=[57, 100]),
   midi.NoteOnEvent(tick=0, channel=1, data=[62, 100]),
   midi.NoteOffEvent(tick=480, channel=1, data=[57, 64]),
   midi.NoteOffEvent(tick=0, channel=1, data=[62, 64]),
   midi.NoteOnEvent(tick=0, channel=1, data=[56, 100]),
   midi.NoteOnEvent(tick=0, channel=1, data=[61, 100]),
   midi.NoteOffEvent(tick=360, channel=1, data=[56, 64]),
   midi.NoteOffEvent(tick=0, channel=1, data=[61, 64]),
   midi.NoteOnEvent(tick=0, channel=1, data=[60, 100]),
   midi.NoteOnEvent(tick=0, channel=1, data=[55, 100]),
   midi.NoteOffEvent(tick=840, channel=1, data=[60, 64]),
   midi.NoteOffEvent(tick=0, channel=1, data=[55, 64]),
   midi.NoteOnEvent(tick=0, channel=1, data=[54, 100]),
   midi.NoteOnEvent(tick=0, channel=1, data=[59, 100]),
   midi.NoteOffEvent(tick=240, channel=1, data=[54, 64]),
   midi.NoteOffEvent(tick=0, channel=1, data=[59, 64]),
   midi.NoteOnEvent(tick=0, channel=1, data=[62, 100]),
   midi.NoteOnEvent(tick=0, channel=1, data=[57, 100]),
   midi.NoteOffEvent(tick=480, channel=1, data=[62, 64]),
   midi.NoteOffEvent(tick=0, channel=1, data=[57, 64]),
   midi.NoteOnEvent(tick=0, channel=1, data=[61, 100]),
   midi.NoteOnEvent(tick=0, channel=1, data=[56, 100]),
   midi.NoteOffEvent(tick=360, channel=1, data=[61, 64]),
   midi.NoteOffEvent(tick=0, channel=1, data=[56, 64]),
   midi.NoteOnEvent(tick=0, channel=1, data=[55, 100]),
   midi.NoteOnEvent(tick=0, channel=1, data=[60, 100]),
   midi.NoteOffEvent(tick=840, channel=1, data=[55, 64]),
   midi.NoteOffEvent(tick=0, channel=1, data=[60, 64]),
   midi.NoteOnEvent(tick=240, channel=1, data=[62, 100]),
   midi.NoteOnEvent(tick=0, channel=1, data=[57, 100]),
   midi.NoteOffEvent(tick=480, channel=1, data=[62, 64]),
   midi.NoteOffEvent(tick=0, channel=1, data=[57, 64]),
   midi.NoteOnEvent(tick=0, channel=1, data=[61, 100]),
   midi.NoteOnEvent(tick=0, channel=1, data=[56, 100]),
   midi.NoteOffEvent(tick=360, channel=1, data=[61, 64]),
   midi.NoteOffEvent(tick=0, channel=1, data=[56, 64]),
   midi.NoteOnEvent(tick=0, channel=1, data=[55, 100]),
   midi.NoteOnEvent(tick=0, channel=1, data=[60, 100]),
   midi.NoteOffEvent(tick=840, channel=1, data=[55, 64]),
   midi.NoteOffEvent(tick=0, channel=1, data=[60, 64]),
   midi.NoteOnEvent(tick=0, channel=1, data=[59, 100]),
   midi.NoteOnEvent(tick=0, channel=1, data=[54, 100]),
   midi.NoteOffEvent(tick=240, channel=1, data=[59, 64]),
   midi.NoteOffEvent(tick=0, channel=1, data=[54, 64]),
   midi.NoteOnEvent(tick=0, channel=1, data=[62, 100]),
   midi.NoteOnEvent(tick=0, channel=1, data=[57, 100]),
   midi.NoteOffEvent(tick=480, channel=1, data=[62, 64]),
   midi.NoteOffEvent(tick=0, channel=1, data=[57, 64]),
   midi.NoteOnEvent(tick=0, channel=1, data=[61, 100]),
   midi.NoteOnEvent(tick=0, channel=1, data=[56, 100]),
   midi.NoteOffEvent(tick=360, channel=1, data=[61, 64]),
   midi.NoteOffEvent(tick=0, channel=1, data=[56, 64]),
   midi.NoteOnEvent(tick=0, channel=1, data=[55, 100]),
   midi.NoteOnEvent(tick=0, channel=1, data=[60, 100]),
   midi.NoteOffEvent(tick=840, channel=1, data=[55, 64]),
   midi.NoteOffEvent(tick=0, channel=1, data=[60, 64]),
   midi.NoteOnEvent(tick=4080, channel=1, data=[40, 100]),
   midi.NoteOffEvent(tick=240, channel=1, data=[40, 64]),
   midi.NoteOnEvent(tick=0, channel=1, data=[38, 100]),
   midi.NoteOffEvent(tick=120, channel=1, data=[38, 64]),
   midi.NoteOnEvent(tick=0, channel=1, data=[40, 100]),
   midi.NoteOffEvent(tick=240, channel=1, data=[40, 64]),
   midi.NoteOnEvent(tick=0, channel=1, data=[40, 127]),
   midi.NoteOffEvent(tick=120, channel=1, data=[40, 64]),
   midi.NoteOnEvent(tick=0, channel=1, data=[38, 127]),
   midi.NoteOffEvent(tick=120, channel=1, data=[38, 64]),
   midi.NoteOnEvent(tick=0, channel=1, data=[40, 100]),
   midi.NoteOffEvent(tick=120, channel=1, data=[40, 64]),
   midi.NoteOnEvent(tick=0, channel=1, data=[40, 100]),
   midi.NoteOffEvent(tick=240, channel=1, data=[40, 64]),
   midi.NoteOnEvent(tick=0, channel=1, data=[38, 100]),
   midi.NoteOffEvent(tick=120, channel=1, data=[38, 64]),
   midi.NoteOnEvent(tick=0, channel=1, data=[40, 100]),
   midi.NoteOffEvent(tick=240, channel=1, data=[40, 64]),
   midi.NoteOnEvent(tick=0, channel=1, data=[40, 127]),
   midi.NoteOffEvent(tick=120, channel=1, data=[40, 64]),
   midi.NoteOnEvent(tick=0, channel=1, data=[38, 127]),
   midi.NoteOffEvent(tick=120, channel=1, data=[38, 64]),
   midi.NoteOnEvent(tick=0, channel=1, data=[40, 100]),
   midi.NoteOffEvent(tick=120, channel=1, data=[40, 64]),
   midi.NoteOnEvent(tick=0, channel=1, data=[40, 100]),
   midi.NoteOffEvent(tick=240, channel=1, data=[40, 64]),
   midi.NoteOnEvent(tick=0, channel=1, data=[38, 100]),
   midi.NoteOffEvent(tick=120, channel=1, data=[38, 64]),
   midi.NoteOnEvent(tick=0, channel=1, data=[40, 100]),
   midi.NoteOffEvent(tick=240, channel=1, data=[40, 64]),
   midi.NoteOnEvent(tick=0, channel=1, data=[40, 127]),
   midi.NoteOffEvent(tick=120, channel=1, data=[40, 64]),
   midi.NoteOnEvent(tick=0, channel=1, data=[38, 127]),
   midi.NoteOffEvent(tick=120, channel=1, data=[38, 64]),
   midi.NoteOnEvent(tick=0, channel=1, data=[40, 100]),
   midi.NoteOffEvent(tick=120, channel=1, data=[40, 64]),
   midi.NoteOnEvent(tick=0, channel=1, data=[40, 100]),
   midi.NoteOffEvent(tick=240, channel=1, data=[40, 64]),
   midi.NoteOnEvent(tick=0, channel=1, data=[38, 100]),
   midi.NoteOffEvent(tick=120, channel=1, data=[38, 64]),
   midi.NoteOnEvent(tick=0, channel=1, data=[40, 100]),
   midi.NoteOffEvent(tick=240, channel=1, data=[40, 64]),
   midi.NoteOnEvent(tick=0, channel=1, data=[40, 127]),
   midi.NoteOffEvent(tick=120, channel=1, data=[40, 64]),
   midi.NoteOnEvent(tick=0, channel=1, data=[38, 127]),
   midi.NoteOffEvent(tick=120, channel=1, data=[38, 64]),
   midi.NoteOnEvent(tick=0, channel=1, data=[40, 100]),
   midi.NoteOffEvent(tick=120, channel=1, data=[40, 64]),
   midi.NoteOnEvent(tick=0, channel=1, data=[40, 100]),
   midi.NoteOffEvent(tick=240, channel=1, data=[40, 64]),
   midi.NoteOnEvent(tick=0, channel=1, data=[38, 100]),
   midi.NoteOffEvent(tick=120, channel=1, data=[38, 64]),
   midi.NoteOnEvent(tick=0, channel=1, data=[40, 100]),
   midi.NoteOffEvent(tick=240, channel=1, data=[40, 64]),
   midi.NoteOnEvent(tick=0, channel=1, data=[40, 127]),
   midi.NoteOffEvent(tick=120, channel=1, data=[40, 64]),
   midi.NoteOnEvent(tick=0, channel=1, data=[38, 127]),
   midi.NoteOffEvent(tick=120, channel=1, data=[38, 64]),
   midi.NoteOnEvent(tick=0, channel=1, data=[40, 100]),
   midi.NoteOffEvent(tick=120, channel=1, data=[40, 64]),
   midi.NoteOnEvent(tick=0, channel=1, data=[40, 100]),
   midi.NoteOffEvent(tick=240, channel=1, data=[40, 64]),
   midi.NoteOnEvent(tick=0, channel=1, data=[38, 100]),
   midi.NoteOffEvent(tick=120, channel=1, data=[38, 64]),
   midi.NoteOnEvent(tick=0, channel=1, data=[40, 100]),
   midi.NoteOffEvent(tick=240, channel=1, data=[40, 64]),
   midi.NoteOnEvent(tick=0, channel=1, data=[40, 127]),
   midi.NoteOffEvent(tick=120, channel=1, data=[40, 64]),
   midi.NoteOnEvent(tick=0, channel=1, data=[38, 127]),
   midi.NoteOffEvent(tick=120, channel=1, data=[38, 64]),
   midi.NoteOnEvent(tick=0, channel=1, data=[40, 100]),
   midi.NoteOffEvent(tick=120, channel=1, data=[40, 64]),
   midi.NoteOnEvent(tick=0, channel=1, data=[40, 100]),
   midi.NoteOffEvent(tick=240, channel=1, data=[40, 64]),
   midi.NoteOnEvent(tick=0, channel=1, data=[38, 100]),
   midi.NoteOffEvent(tick=120, channel=1, data=[38, 64]),
   midi.NoteOnEvent(tick=0, channel=1, data=[40, 100]),
   midi.NoteOffEvent(tick=240, channel=1, data=[40, 64]),
   midi.NoteOnEvent(tick=0, channel=1, data=[40, 127]),
   midi.NoteOffEvent(tick=120, channel=1, data=[40, 64]),
   midi.NoteOnEvent(tick=0, channel=1, data=[38, 127]),
   midi.NoteOffEvent(tick=120, channel=1, data=[38, 64]),
   midi.NoteOnEvent(tick=0, channel=1, data=[40, 100]),
   midi.NoteOffEvent(tick=120, channel=1, data=[40, 64]),
   midi.NoteOnEvent(tick=0, channel=1, data=[40, 100]),
   midi.NoteOffEvent(tick=240, channel=1, data=[40, 64]),
   midi.NoteOnEvent(tick=0, channel=1, data=[38, 100]),
   midi.NoteOffEvent(tick=120, channel=1, data=[38, 64]),
   midi.NoteOnEvent(tick=0, channel=1, data=[40, 100]),
   midi.NoteOffEvent(tick=240, channel=1, data=[40, 64]),
   midi.NoteOnEvent(tick=0, channel=1, data=[40, 127]),
   midi.NoteOffEvent(tick=120, channel=1, data=[40, 64]),
   midi.NoteOnEvent(tick=0, channel=1, data=[38, 127]),
   midi.NoteOffEvent(tick=120, channel=1, data=[38, 64]),
   midi.NoteOnEvent(tick=0, channel=1, data=[40, 100]),
   midi.NoteOffEvent(tick=120, channel=1, data=[40, 64]),
   midi.NoteOnEvent(tick=0, channel=1, data=[38, 100]),
   midi.NoteOffEvent(tick=60, channel=1, data=[38, 64]),
   midi.NoteOnEvent(tick=0, channel=1, data=[38, 100]),
   midi.NoteOffEvent(tick=60, channel=1, data=[38, 64]),
   midi.NoteOnEvent(tick=0, channel=1, data=[38, 100]),
   midi.NoteOffEvent(tick=60, channel=1, data=[38, 64]),
   midi.NoteOnEvent(tick=0, channel=1, data=[38, 100]),
   midi.NoteOffEvent(tick=60, channel=1, data=[38, 64]),
   midi.NoteOnEvent(tick=0, channel=1, data=[38, 100]),
   midi.NoteOffEvent(tick=60, channel=1, data=[38, 64]),
   midi.NoteOnEvent(tick=0, channel=1, data=[38, 100]),
   midi.NoteOffEvent(tick=60, channel=1, data=[38, 64]),
   midi.NoteOnEvent(tick=0, channel=1, data=[38, 100]),
   midi.NoteOffEvent(tick=60, channel=1, data=[38, 64]),
   midi.NoteOnEvent(tick=0, channel=1, data=[38, 100]),
   midi.NoteOffEvent(tick=60, channel=1, data=[38, 64]),
   midi.NoteOnEvent(tick=0, channel=1, data=[38, 100]),
   midi.NoteOffEvent(tick=60, channel=1, data=[38, 0]),
   midi.NoteOnEvent(tick=0, channel=1, data=[38, 100]),
   midi.NoteOffEvent(tick=60, channel=1, data=[38, 64]),
   midi.NoteOnEvent(tick=0, channel=1, data=[38, 100]),
   midi.NoteOffEvent(tick=60, channel=1, data=[38, 64]),
   midi.NoteOnEvent(tick=0, channel=1, data=[38, 100]),
   midi.NoteOffEvent(tick=60, channel=1, data=[38, 64]),
   midi.NoteOnEvent(tick=240, channel=1, data=[38, 100]),
   midi.NoteOffEvent(tick=60, channel=1, data=[38, 64]),
   midi.NoteOnEvent(tick=0, channel=1, data=[38, 100]),
   midi.NoteOffEvent(tick=60, channel=1, data=[38, 64]),
   midi.NoteOnEvent(tick=0, channel=1, data=[38, 100]),
   midi.NoteOffEvent(tick=60, channel=1, data=[38, 64]),
   midi.NoteOnEvent(tick=0, channel=1, data=[38, 100]),
   midi.NoteOffEvent(tick=60, channel=1, data=[38, 64]),
   midi.NoteOnEvent(tick=0, channel=1, data=[38, 100]),
   midi.NoteOffEvent(tick=60, channel=1, data=[38, 64]),
   midi.NoteOnEvent(tick=0, channel=1, data=[38, 100]),
   midi.NoteOffEvent(tick=60, channel=1, data=[38, 64]),
   midi.NoteOnEvent(tick=0, channel=1, data=[38, 100]),
   midi.NoteOffEvent(tick=60, channel=1, data=[38, 64]),
   midi.NoteOnEvent(tick=0, channel=1, data=[38, 100]),
   midi.NoteOffEvent(tick=60, channel=1, data=[38, 64]),
   midi.NoteOnEvent(tick=0, channel=1, data=[38, 100]),
   midi.NoteOffEvent(tick=60, channel=1, data=[38, 64]),
   midi.NoteOnEvent(tick=0, channel=1, data=[38, 100]),
   midi.NoteOffEvent(tick=60, channel=1, data=[38, 64]),
   midi.NoteOnEvent(tick=0, channel=1, data=[38, 100]),
   midi.NoteOffEvent(tick=60, channel=1, data=[38, 64]),
   midi.NoteOnEvent(tick=0, channel=1, data=[38, 100]),
   midi.NoteOffEvent(tick=60, channel=1, data=[38, 64]),
   midi.NoteOnEvent(tick=240, channel=1, data=[38, 100]),
   midi.NoteOffEvent(tick=60, channel=1, data=[38, 64]),
   midi.NoteOnEvent(tick=0, channel=1, data=[38, 100]),
   midi.NoteOffEvent(tick=60, channel=1, data=[38, 64]),
   midi.NoteOnEvent(tick=0, channel=1, data=[38, 100]),
   midi.NoteOffEvent(tick=60, channel=1, data=[38, 64]),
   midi.NoteOnEvent(tick=0, channel=1, data=[38, 100]),
   midi.NoteOffEvent(tick=60, channel=1, data=[38, 64]),
   midi.NoteOnEvent(tick=0, channel=1, data=[38, 100]),
   midi.NoteOffEvent(tick=60, channel=1, data=[38, 64]),
   midi.NoteOnEvent(tick=0, channel=1, data=[38, 100]),
   midi.NoteOffEvent(tick=60, channel=1, data=[38, 64]),
   midi.NoteOnEvent(tick=0, channel=1, data=[38, 100]),
   midi.NoteOffEvent(tick=60, channel=1, data=[38, 64]),
   midi.NoteOnEvent(tick=0, channel=1, data=[38, 100]),
   midi.NoteOffEvent(tick=60, channel=1, data=[38, 64]),
   midi.NoteOnEvent(tick=0, channel=1, data=[38, 100]),
   midi.NoteOffEvent(tick=60, channel=1, data=[38, 64]),
   midi.NoteOnEvent(tick=0, channel=1, data=[38, 100]),
   midi.NoteOffEvent(tick=60, channel=1, data=[38, 64]),
   midi.NoteOnEvent(tick=0, channel=1, data=[38, 100]),
   midi.NoteOffEvent(tick=60, channel=1, data=[38, 64]),
   midi.NoteOnEvent(tick=0, channel=1, data=[38, 100]),
   midi.NoteOffEvent(tick=60, channel=1, data=[38, 64]),
   midi.NoteOnEvent(tick=0, channel=1, data=[38, 100]),
   midi.NoteOffEvent(tick=60, channel=1, data=[38, 64]),
   midi.NoteOnEvent(tick=0, channel=1, data=[38, 100]),
   midi.NoteOffEvent(tick=60, channel=1, data=[38, 64]),
   midi.NoteOnEvent(tick=0, channel=1, data=[38, 100]),
   midi.NoteOffEvent(tick=60, channel=1, data=[38, 64]),
   midi.NoteOnEvent(tick=0, channel=1, data=[38, 100]),
   midi.NoteOffEvent(tick=60, channel=1, data=[38, 64]),
   midi.NoteOnEvent(tick=0, channel=1, data=[38, 100]),
   midi.NoteOffEvent(tick=60, channel=1, data=[38, 64]),
   midi.NoteOnEvent(tick=0, channel=1, data=[38, 100]),
   midi.NoteOffEvent(tick=60, channel=1, data=[38, 64]),
   midi.NoteOnEvent(tick=0, channel=1, data=[38, 100]),
   midi.NoteOffEvent(tick=60, channel=1, data=[38, 64]),
   midi.NoteOnEvent(tick=0, channel=1, data=[38, 100]),
   midi.NoteOffEvent(tick=60, channel=1, data=[38, 64]),
   midi.NoteOnEvent(tick=0, channel=1, data=[38, 100]),
   midi.NoteOffEvent(tick=60, channel=1, data=[38, 64]),
   midi.NoteOnEvent(tick=0, channel=1, data=[38, 100]),
   midi.NoteOffEvent(tick=60, channel=1, data=[38, 64]),
   midi.NoteOnEvent(tick=0, channel=1, data=[38, 100]),
   midi.NoteOffEvent(tick=60, channel=1, data=[38, 64]),
   midi.NoteOnEvent(tick=0, channel=1, data=[38, 100]),
   midi.NoteOffEvent(tick=60, channel=1, data=[38, 64]),
   midi.NoteOnEvent(tick=0, channel=1, data=[38, 100]),
   midi.NoteOffEvent(tick=60, channel=1, data=[38, 0]),
   midi.NoteOnEvent(tick=0, channel=1, data=[38, 100]),
   midi.NoteOffEvent(tick=60, channel=1, data=[38, 64]),
   midi.NoteOnEvent(tick=0, channel=1, data=[38, 100]),
   midi.NoteOffEvent(tick=60, channel=1, data=[38, 64]),
   midi.NoteOnEvent(tick=0, channel=1, data=[38, 100]),
   midi.NoteOffEvent(tick=60, channel=1, data=[38, 64]),
   midi.NoteOnEvent(tick=0, channel=1, data=[38, 100]),
   midi.NoteOffEvent(tick=60, channel=1, data=[38, 64]),
   midi.NoteOnEvent(tick=0, channel=1, data=[38, 100]),
   midi.NoteOffEvent(tick=60, channel=1, data=[38, 64]),
   midi.NoteOnEvent(tick=0, channel=1, data=[38, 100]),
   midi.NoteOffEvent(tick=60, channel=1, data=[38, 64]),
   midi.NoteOnEvent(tick=0, channel=1, data=[38, 100]),
   midi.NoteOffEvent(tick=60, channel=1, data=[38, 64]),
   midi.NoteOnEvent(tick=0, channel=1, data=[38, 100]),
   midi.NoteOffEvent(tick=60, channel=1, data=[38, 64]),
   midi.NoteOnEvent(tick=0, channel=1, data=[38, 100]),
   midi.NoteOffEvent(tick=60, channel=1, data=[38, 64]),
   midi.NoteOnEvent(tick=0, channel=1, data=[38, 100]),
   midi.NoteOffEvent(tick=60, channel=1, data=[38, 64]),
   midi.NoteOnEvent(tick=0, channel=1, data=[38, 100]),
   midi.NoteOffEvent(tick=60, channel=1, data=[38, 64]),
   midi.NoteOnEvent(tick=0, channel=1, data=[38, 100]),
   midi.NoteOffEvent(tick=60, channel=1, data=[38, 64]),
   midi.NoteOnEvent(tick=0, channel=1, data=[38, 100]),
   midi.NoteOffEvent(tick=60, channel=1, data=[38, 64]),
   midi.NoteOnEvent(tick=0, channel=1, data=[38, 100]),
   midi.NoteOffEvent(tick=60, channel=1, data=[38, 64]),
   midi.NoteOnEvent(tick=0, channel=1, data=[38, 100]),
   midi.NoteOffEvent(tick=60, channel=1, data=[38, 64]),
   midi.NoteOnEvent(tick=0, channel=1, data=[38, 100]),
   midi.NoteOffEvent(tick=60, channel=1, data=[38, 0]),
   midi.NoteOnEvent(tick=0, channel=1, data=[38, 100]),
   midi.NoteOffEvent(tick=60, channel=1, data=[38, 64]),
   midi.NoteOnEvent(tick=0, channel=1, data=[38, 100]),
   midi.NoteOffEvent(tick=60, channel=1, data=[38, 64]),
   midi.NoteOnEvent(tick=0, channel=1, data=[38, 100]),
   midi.NoteOffEvent(tick=60, channel=1, data=[38, 64]),
   midi.NoteOnEvent(tick=240, channel=1, data=[38, 100]),
   midi.NoteOffEvent(tick=60, channel=1, data=[38, 64]),
   midi.NoteOnEvent(tick=0, channel=1, data=[38, 100]),
   midi.NoteOffEvent(tick=60, channel=1, data=[38, 64]),
   midi.NoteOnEvent(tick=0, channel=1, data=[38, 100]),
   midi.NoteOffEvent(tick=60, channel=1, data=[38, 64]),
   midi.NoteOnEvent(tick=0, channel=1, data=[38, 100]),
   midi.NoteOffEvent(tick=60, channel=1, data=[38, 64]),
   midi.NoteOnEvent(tick=0, channel=1, data=[38, 100]),
   midi.NoteOffEvent(tick=60, channel=1, data=[38, 64]),
   midi.NoteOnEvent(tick=0, channel=1, data=[38, 100]),
   midi.NoteOffEvent(tick=60, channel=1, data=[38, 64]),
   midi.NoteOnEvent(tick=0, channel=1, data=[38, 100]),
   midi.NoteOffEvent(tick=60, channel=1, data=[38, 64]),
   midi.NoteOnEvent(tick=0, channel=1, data=[38, 100]),
   midi.NoteOffEvent(tick=60, channel=1, data=[38, 64]),
   midi.NoteOnEvent(tick=0, channel=1, data=[38, 100]),
   midi.NoteOffEvent(tick=60, channel=1, data=[38, 64]),
   midi.NoteOnEvent(tick=0, channel=1, data=[38, 100]),
   midi.NoteOffEvent(tick=60, channel=1, data=[38, 64]),
   midi.NoteOnEvent(tick=0, channel=1, data=[38, 100]),
   midi.NoteOffEvent(tick=60, channel=1, data=[38, 64]),
   midi.NoteOnEvent(tick=0, channel=1, data=[38, 100]),
   midi.NoteOffEvent(tick=60, channel=1, data=[38, 64]),
   midi.NoteOnEvent(tick=240, channel=1, data=[38, 100]),
   midi.NoteOffEvent(tick=60, channel=1, data=[38, 64]),
   midi.NoteOnEvent(tick=0, channel=1, data=[38, 100]),
   midi.NoteOffEvent(tick=60, channel=1, data=[38, 64]),
   midi.NoteOnEvent(tick=0, channel=1, data=[38, 100]),
   midi.NoteOffEvent(tick=60, channel=1, data=[38, 64]),
   midi.NoteOnEvent(tick=0, channel=1, data=[38, 100]),
   midi.NoteOffEvent(tick=60, channel=1, data=[38, 64]),
   midi.NoteOnEvent(tick=0, channel=1, data=[38, 100]),
   midi.NoteOffEvent(tick=60, channel=1, data=[38, 64]),
   midi.NoteOnEvent(tick=0, channel=1, data=[38, 100]),
   midi.NoteOffEvent(tick=60, channel=1, data=[38, 64]),
   midi.NoteOnEvent(tick=0, channel=1, data=[38, 100]),
   midi.NoteOffEvent(tick=60, channel=1, data=[38, 64]),
   midi.NoteOnEvent(tick=0, channel=1, data=[38, 100]),
   midi.NoteOffEvent(tick=60, channel=1, data=[38, 64]),
   midi.NoteOnEvent(tick=0, channel=1, data=[38, 100]),
   midi.NoteOffEvent(tick=60, channel=1, data=[38, 64]),
   midi.NoteOnEvent(tick=0, channel=1, data=[38, 100]),
   midi.NoteOffEvent(tick=60, channel=1, data=[38, 64]),
   midi.NoteOnEvent(tick=0, channel=1, data=[38, 100]),
   midi.NoteOffEvent(tick=60, channel=1, data=[38, 64]),
   midi.NoteOnEvent(tick=0, channel=1, data=[38, 100]),
   midi.NoteOffEvent(tick=60, channel=1, data=[38, 64]),
   midi.NoteOnEvent(tick=0, channel=1, data=[38, 100]),
   midi.NoteOffEvent(tick=60, channel=1, data=[38, 64]),
   midi.NoteOnEvent(tick=0, channel=1, data=[38, 100]),
   midi.NoteOffEvent(tick=60, channel=1, data=[38, 64]),
   midi.NoteOnEvent(tick=0, channel=1, data=[38, 100]),
   midi.NoteOffEvent(tick=60, channel=1, data=[38, 64]),
   midi.NoteOnEvent(tick=0, channel=1, data=[38, 100]),
   midi.NoteOffEvent(tick=60, channel=1, data=[38, 64]),
   midi.NoteOnEvent(tick=960, channel=1, data=[57, 100]),
   midi.NoteOnEvent(tick=0, channel=1, data=[62, 100]),
   midi.NoteOffEvent(tick=120, channel=1, data=[57, 64]),
   midi.NoteOffEvent(tick=0, channel=1, data=[62, 64]),
   midi.NoteOnEvent(tick=0, channel=1, data=[62, 100]),
   midi.NoteOnEvent(tick=0, channel=1, data=[57, 100]),
   midi.NoteOffEvent(tick=60, channel=1, data=[62, 64]),
   midi.NoteOffEvent(tick=0, channel=1, data=[57, 0]),
   midi.NoteOnEvent(tick=60, channel=1, data=[62, 100]),
   midi.NoteOnEvent(tick=0, channel=1, data=[57, 100]),
   midi.NoteOffEvent(tick=60, channel=1, data=[62, 64]),
   midi.NoteOffEvent(tick=0, channel=1, data=[57, 0]),
   midi.NoteOnEvent(tick=0, channel=1, data=[62, 100]),
   midi.NoteOnEvent(tick=0, channel=1, data=[57, 100]),
   midi.NoteOffEvent(tick=60, channel=1, data=[62, 64]),
   midi.NoteOffEvent(tick=0, channel=1, data=[57, 64]),
   midi.NoteOnEvent(tick=0, channel=1, data=[62, 100]),
   midi.NoteOnEvent(tick=0, channel=1, data=[57, 100]),
   midi.NoteOffEvent(tick=60, channel=1, data=[62, 64]),
   midi.NoteOffEvent(tick=0, channel=1, data=[57, 64]),
   midi.NoteOnEvent(tick=60, channel=1, data=[62, 100]),
   midi.NoteOnEvent(tick=0, channel=1, data=[57, 100]),
   midi.NoteOffEvent(tick=120, channel=1, data=[62, 64]),
   midi.NoteOffEvent(tick=0, channel=1, data=[57, 64]),
   midi.NoteOnEvent(tick=0, channel=1, data=[62, 100]),
   midi.NoteOnEvent(tick=0, channel=1, data=[57, 100]),
   midi.NoteOffEvent(tick=60, channel=1, data=[62, 0]),
   midi.NoteOffEvent(tick=0, channel=1, data=[57, 64]),
   midi.NoteOnEvent(tick=60, channel=1, data=[62, 100]),
   midi.NoteOnEvent(tick=0, channel=1, data=[57, 100]),
   midi.NoteOffEvent(tick=60, channel=1, data=[62, 0]),
   midi.NoteOffEvent(tick=0, channel=1, data=[57, 64]),
   midi.NoteOnEvent(tick=0, channel=1, data=[62, 100]),
   midi.NoteOnEvent(tick=0, channel=1, data=[57, 100]),
   midi.NoteOffEvent(tick=60, channel=1, data=[62, 64]),
   midi.NoteOffEvent(tick=0, channel=1, data=[57, 64]),
   midi.NoteOnEvent(tick=0, channel=1, data=[63, 100]),
   midi.NoteOnEvent(tick=0, channel=1, data=[58, 100]),
   midi.NoteOffEvent(tick=120, channel=1, data=[63, 64]),
   midi.NoteOffEvent(tick=0, channel=1, data=[58, 0]),
   midi.NoteOnEvent(tick=0, channel=1, data=[62, 100]),
   midi.NoteOnEvent(tick=0, channel=1, data=[57, 100]),
   midi.NoteOffEvent(tick=120, channel=1, data=[62, 64]),
   midi.NoteOffEvent(tick=0, channel=1, data=[57, 64]),
   midi.NoteOnEvent(tick=0, channel=1, data=[57, 100]),
   midi.NoteOnEvent(tick=0, channel=1, data=[62, 100]),
   midi.NoteOffEvent(tick=60, channel=1, data=[57, 0]),
   midi.NoteOffEvent(tick=0, channel=1, data=[62, 64]),
   midi.NoteOnEvent(tick=60, channel=1, data=[57, 100]),
   midi.NoteOnEvent(tick=0, channel=1, data=[62, 100]),
   midi.NoteOffEvent(tick=60, channel=1, data=[57, 0]),
   midi.NoteOffEvent(tick=0, channel=1, data=[62, 64]),
   midi.NoteOnEvent(tick=0, channel=1, data=[57, 100]),
   midi.NoteOnEvent(tick=0, channel=1, data=[62, 100]),
   midi.NoteOffEvent(tick=60, channel=1, data=[57, 64]),
   midi.NoteOffEvent(tick=0, channel=1, data=[62, 64]),
   midi.NoteOnEvent(tick=0, channel=1, data=[57, 100]),
   midi.NoteOnEvent(tick=0, channel=1, data=[62, 100]),
   midi.NoteOffEvent(tick=60, channel=1, data=[57, 64]),
   midi.NoteOffEvent(tick=0, channel=1, data=[62, 64]),
   midi.NoteOnEvent(tick=60, channel=1, data=[57, 100]),
   midi.NoteOnEvent(tick=0, channel=1, data=[62, 100]),
   midi.NoteOffEvent(tick=120, channel=1, data=[57, 64]),
   midi.NoteOffEvent(tick=0, channel=1, data=[62, 64]),
   midi.NoteOnEvent(tick=0, channel=1, data=[57, 100]),
   midi.NoteOnEvent(tick=0, channel=1, data=[62, 100]),
   midi.NoteOffEvent(tick=60, channel=1, data=[57, 64]),
   midi.NoteOffEvent(tick=0, channel=1, data=[62, 0]),
   midi.NoteOnEvent(tick=60, channel=1, data=[57, 100]),
   midi.NoteOnEvent(tick=0, channel=1, data=[62, 100]),
   midi.NoteOffEvent(tick=60, channel=1, data=[57, 64]),
   midi.NoteOffEvent(tick=0, channel=1, data=[62, 0]),
   midi.NoteOnEvent(tick=0, channel=1, data=[57, 100]),
   midi.NoteOnEvent(tick=0, channel=1, data=[62, 100]),
   midi.NoteOffEvent(tick=60, channel=1, data=[57, 64]),
   midi.NoteOffEvent(tick=0, channel=1, data=[62, 64]),
   midi.NoteOnEvent(tick=0, channel=1, data=[61, 100]),
   midi.NoteOnEvent(tick=0, channel=1, data=[56, 100]),
   midi.NoteOffEvent(tick=120, channel=1, data=[61, 0]),
   midi.NoteOffEvent(tick=0, channel=1, data=[56, 0]),
   midi.NoteOnEvent(tick=0, channel=1, data=[62, 100]),
   midi.NoteOnEvent(tick=0, channel=1, data=[57, 100]),
   midi.NoteOffEvent(tick=120, channel=1, data=[62, 64]),
   midi.NoteOffEvent(tick=0, channel=1, data=[57, 64]),
   midi.NoteOnEvent(tick=0, channel=1, data=[57, 100]),
   midi.NoteOnEvent(tick=0, channel=1, data=[62, 100]),
   midi.NoteOffEvent(tick=60, channel=1, data=[57, 0]),
   midi.NoteOffEvent(tick=0, channel=1, data=[62, 64]),
   midi.NoteOnEvent(tick=60, channel=1, data=[57, 100]),
   midi.NoteOnEvent(tick=0, channel=1, data=[62, 100]),
   midi.NoteOffEvent(tick=60, channel=1, data=[57, 0]),
   midi.NoteOffEvent(tick=0, channel=1, data=[62, 64]),
   midi.NoteOnEvent(tick=0, channel=1, data=[57, 100]),
   midi.NoteOnEvent(tick=0, channel=1, data=[62, 100]),
   midi.NoteOffEvent(tick=60, channel=1, data=[57, 64]),
   midi.NoteOffEvent(tick=0, channel=1, data=[62, 64]),
   midi.NoteOnEvent(tick=0, channel=1, data=[57, 100]),
   midi.NoteOnEvent(tick=0, channel=1, data=[62, 100]),
   midi.NoteOffEvent(tick=60, channel=1, data=[57, 64]),
   midi.NoteOffEvent(tick=0, channel=1, data=[62, 64]),
   midi.NoteOnEvent(tick=60, channel=1, data=[57, 100]),
   midi.NoteOnEvent(tick=0, channel=1, data=[62, 100]),
   midi.NoteOffEvent(tick=120, channel=1, data=[57, 64]),
   midi.NoteOffEvent(tick=0, channel=1, data=[62, 64]),
   midi.NoteOnEvent(tick=0, channel=1, data=[57, 100]),
   midi.NoteOnEvent(tick=0, channel=1, data=[62, 100]),
   midi.NoteOffEvent(tick=60, channel=1, data=[57, 64]),
   midi.NoteOffEvent(tick=0, channel=1, data=[62, 0]),
   midi.NoteOnEvent(tick=60, channel=1, data=[57, 100]),
   midi.NoteOnEvent(tick=0, channel=1, data=[62, 100]),
   midi.NoteOffEvent(tick=60, channel=1, data=[57, 64]),
   midi.NoteOffEvent(tick=0, channel=1, data=[62, 0]),
   midi.NoteOnEvent(tick=0, channel=1, data=[57, 100]),
   midi.NoteOnEvent(tick=0, channel=1, data=[62, 100]),
   midi.NoteOffEvent(tick=60, channel=1, data=[57, 64]),
   midi.NoteOffEvent(tick=0, channel=1, data=[62, 64]),
   midi.NoteOnEvent(tick=0, channel=1, data=[58, 100]),
   midi.NoteOnEvent(tick=0, channel=1, data=[63, 100]),
   midi.NoteOffEvent(tick=120, channel=1, data=[58, 0]),
   midi.NoteOffEvent(tick=0, channel=1, data=[63, 64]),
   midi.NoteOnEvent(tick=0, channel=1, data=[57, 100]),
   midi.NoteOnEvent(tick=0, channel=1, data=[62, 100]),
   midi.NoteOffEvent(tick=120, channel=1, data=[57, 64]),
   midi.NoteOffEvent(tick=0, channel=1, data=[62, 64]),
   midi.NoteOnEvent(tick=0, channel=1, data=[62, 100]),
   midi.NoteOnEvent(tick=0, channel=1, data=[57, 100]),
   midi.NoteOffEvent(tick=60, channel=1, data=[62, 64]),
   midi.NoteOffEvent(tick=0, channel=1, data=[57, 0]),
   midi.NoteOnEvent(tick=60, channel=1, data=[62, 100]),
   midi.NoteOnEvent(tick=0, channel=1, data=[57, 100]),
   midi.NoteOffEvent(tick=60, channel=1, data=[62, 64]),
   midi.NoteOffEvent(tick=0, channel=1, data=[57, 0]),
   midi.NoteOnEvent(tick=0, channel=1, data=[62, 100]),
   midi.NoteOnEvent(tick=0, channel=1, data=[57, 100]),
   midi.NoteOffEvent(tick=60, channel=1, data=[62, 64]),
   midi.NoteOffEvent(tick=0, channel=1, data=[57, 64]),
   midi.NoteOnEvent(tick=0, channel=1, data=[62, 100]),
   midi.NoteOnEvent(tick=0, channel=1, data=[57, 100]),
   midi.NoteOffEvent(tick=60, channel=1, data=[62, 64]),
   midi.NoteOffEvent(tick=0, channel=1, data=[57, 64]),
   midi.NoteOnEvent(tick=60, channel=1, data=[62, 100]),
   midi.NoteOnEvent(tick=0, channel=1, data=[57, 100]),
   midi.NoteOffEvent(tick=120, channel=1, data=[62, 64]),
   midi.NoteOffEvent(tick=0, channel=1, data=[57, 64]),
   midi.NoteOnEvent(tick=0, channel=1, data=[62, 100]),
   midi.NoteOnEvent(tick=0, channel=1, data=[57, 100]),
   midi.NoteOffEvent(tick=60, channel=1, data=[62, 0]),
   midi.NoteOffEvent(tick=0, channel=1, data=[57, 64]),
   midi.NoteOnEvent(tick=60, channel=1, data=[62, 100]),
   midi.NoteOnEvent(tick=0, channel=1, data=[57, 100]),
   midi.NoteOffEvent(tick=60, channel=1, data=[62, 0]),
   midi.NoteOffEvent(tick=0, channel=1, data=[57, 64]),
   midi.NoteOnEvent(tick=0, channel=1, data=[62, 100]),
   midi.NoteOnEvent(tick=0, channel=1, data=[57, 100]),
   midi.NoteOffEvent(tick=60, channel=1, data=[62, 64]),
   midi.NoteOffEvent(tick=0, channel=1, data=[57, 64]),
   midi.NoteOnEvent(tick=0, channel=1, data=[56, 100]),
   midi.NoteOnEvent(tick=0, channel=1, data=[61, 100]),
   midi.NoteOffEvent(tick=120, channel=1, data=[56, 0]),
   midi.NoteOffEvent(tick=0, channel=1, data=[61, 0]),
   midi.NoteOnEvent(tick=0, channel=1, data=[62, 100]),
   midi.NoteOnEvent(tick=0, channel=1, data=[57, 100]),
   midi.NoteOffEvent(tick=120, channel=1, data=[62, 64]),
   midi.NoteOffEvent(tick=0, channel=1, data=[57, 64]),
   midi.NoteOnEvent(tick=0, channel=1, data=[57, 100]),
   midi.NoteOnEvent(tick=0, channel=1, data=[62, 100]),
   midi.NoteOffEvent(tick=60, channel=1, data=[57, 0]),
   midi.NoteOffEvent(tick=0, channel=1, data=[62, 64]),
   midi.NoteOnEvent(tick=60, channel=1, data=[57, 100]),
   midi.NoteOnEvent(tick=0, channel=1, data=[62, 100]),
   midi.NoteOffEvent(tick=60, channel=1, data=[57, 0]),
   midi.NoteOffEvent(tick=0, channel=1, data=[62, 64]),
   midi.NoteOnEvent(tick=0, channel=1, data=[57, 100]),
   midi.NoteOnEvent(tick=0, channel=1, data=[62, 100]),
   midi.NoteOffEvent(tick=60, channel=1, data=[57, 64]),
   midi.NoteOffEvent(tick=0, channel=1, data=[62, 64]),
   midi.NoteOnEvent(tick=0, channel=1, data=[57, 100]),
   midi.NoteOnEvent(tick=0, channel=1, data=[62, 100]),
   midi.NoteOffEvent(tick=60, channel=1, data=[57, 64]),
   midi.NoteOffEvent(tick=0, channel=1, data=[62, 64]),
   midi.NoteOnEvent(tick=60, channel=1, data=[57, 100]),
   midi.NoteOnEvent(tick=0, channel=1, data=[62, 100]),
   midi.NoteOffEvent(tick=120, channel=1, data=[57, 64]),
   midi.NoteOffEvent(tick=0, channel=1, data=[62, 64]),
   midi.NoteOnEvent(tick=0, channel=1, data=[57, 100]),
   midi.NoteOnEvent(tick=0, channel=1, data=[62, 100]),
   midi.NoteOffEvent(tick=60, channel=1, data=[57, 64]),
   midi.NoteOffEvent(tick=0, channel=1, data=[62, 0]),
   midi.NoteOnEvent(tick=60, channel=1, data=[57, 100]),
   midi.NoteOnEvent(tick=0, channel=1, data=[62, 100]),
   midi.NoteOffEvent(tick=60, channel=1, data=[57, 64]),
   midi.NoteOffEvent(tick=0, channel=1, data=[62, 0]),
   midi.NoteOnEvent(tick=0, channel=1, data=[57, 100]),
   midi.NoteOnEvent(tick=0, channel=1, data=[62, 100]),
   midi.NoteOffEvent(tick=60, channel=1, data=[57, 64]),
   midi.NoteOffEvent(tick=0, channel=1, data=[62, 64]),
   midi.NoteOnEvent(tick=0, channel=1, data=[58, 100]),
   midi.NoteOnEvent(tick=0, channel=1, data=[63, 100]),
   midi.NoteOffEvent(tick=120, channel=1, data=[58, 0]),
   midi.NoteOffEvent(tick=0, channel=1, data=[63, 64]),
   midi.NoteOnEvent(tick=0, channel=1, data=[57, 100]),
   midi.NoteOnEvent(tick=0, channel=1, data=[62, 100]),
   midi.NoteOffEvent(tick=120, channel=1, data=[57, 64]),
   midi.NoteOffEvent(tick=0, channel=1, data=[62, 64]),
   midi.NoteOnEvent(tick=0, channel=1, data=[62, 100]),
   midi.NoteOnEvent(tick=0, channel=1, data=[57, 100]),
   midi.NoteOffEvent(tick=60, channel=1, data=[62, 64]),
   midi.NoteOffEvent(tick=0, channel=1, data=[57, 0]),
   midi.NoteOnEvent(tick=60, channel=1, data=[62, 100]),
   midi.NoteOnEvent(tick=0, channel=1, data=[57, 100]),
   midi.NoteOffEvent(tick=60, channel=1, data=[62, 64]),
   midi.NoteOffEvent(tick=0, channel=1, data=[57, 0]),
   midi.NoteOnEvent(tick=0, channel=1, data=[62, 100]),
   midi.NoteOnEvent(tick=0, channel=1, data=[57, 100]),
   midi.NoteOffEvent(tick=60, channel=1, data=[62, 64]),
   midi.NoteOffEvent(tick=0, channel=1, data=[57, 64]),
   midi.NoteOnEvent(tick=0, channel=1, data=[62, 100]),
   midi.NoteOnEvent(tick=0, channel=1, data=[57, 100]),
   midi.NoteOffEvent(tick=60, channel=1, data=[62, 64]),
   midi.NoteOffEvent(tick=0, channel=1, data=[57, 64]),
   midi.NoteOnEvent(tick=60, channel=1, data=[62, 100]),
   midi.NoteOnEvent(tick=0, channel=1, data=[57, 100]),
   midi.NoteOffEvent(tick=120, channel=1, data=[62, 64]),
   midi.NoteOffEvent(tick=0, channel=1, data=[57, 64]),
   midi.NoteOnEvent(tick=0, channel=1, data=[62, 100]),
   midi.NoteOnEvent(tick=0, channel=1, data=[57, 100]),
   midi.NoteOffEvent(tick=60, channel=1, data=[62, 0]),
   midi.NoteOffEvent(tick=0, channel=1, data=[57, 64]),
   midi.NoteOnEvent(tick=60, channel=1, data=[62, 100]),
   midi.NoteOnEvent(tick=0, channel=1, data=[57, 100]),
   midi.NoteOffEvent(tick=60, channel=1, data=[62, 0]),
   midi.NoteOffEvent(tick=0, channel=1, data=[57, 64]),
   midi.NoteOnEvent(tick=0, channel=1, data=[62, 100]),
   midi.NoteOnEvent(tick=0, channel=1, data=[57, 100]),
   midi.NoteOffEvent(tick=60, channel=1, data=[62, 64]),
   midi.NoteOffEvent(tick=0, channel=1, data=[57, 64]),
   midi.NoteOnEvent(tick=0, channel=1, data=[56, 100]),
   midi.NoteOnEvent(tick=0, channel=1, data=[61, 100]),
   midi.NoteOffEvent(tick=120, channel=1, data=[56, 0]),
   midi.NoteOffEvent(tick=0, channel=1, data=[61, 0]),
   midi.NoteOnEvent(tick=0, channel=1, data=[62, 100]),
   midi.NoteOnEvent(tick=0, channel=1, data=[57, 100]),
   midi.NoteOffEvent(tick=120, channel=1, data=[62, 64]),
   midi.NoteOffEvent(tick=0, channel=1, data=[57, 64]),
   midi.NoteOnEvent(tick=0, channel=1, data=[57, 100]),
   midi.NoteOnEvent(tick=0, channel=1, data=[62, 100]),
   midi.NoteOffEvent(tick=60, channel=1, data=[57, 0]),
   midi.NoteOffEvent(tick=0, channel=1, data=[62, 64]),
   midi.NoteOnEvent(tick=60, channel=1, data=[57, 100]),
   midi.NoteOnEvent(tick=0, channel=1, data=[62, 100]),
   midi.NoteOffEvent(tick=60, channel=1, data=[57, 0]),
   midi.NoteOffEvent(tick=0, channel=1, data=[62, 64]),
   midi.NoteOnEvent(tick=0, channel=1, data=[57, 100]),
   midi.NoteOnEvent(tick=0, channel=1, data=[62, 100]),
   midi.NoteOffEvent(tick=60, channel=1, data=[57, 64]),
   midi.NoteOffEvent(tick=0, channel=1, data=[62, 64]),
   midi.NoteOnEvent(tick=0, channel=1, data=[57, 100]),
   midi.NoteOnEvent(tick=0, channel=1, data=[62, 100]),
   midi.NoteOffEvent(tick=60, channel=1, data=[57, 64]),
   midi.NoteOffEvent(tick=0, channel=1, data=[62, 64]),
   midi.NoteOnEvent(tick=60, channel=1, data=[57, 100]),
   midi.NoteOnEvent(tick=0, channel=1, data=[62, 100]),
   midi.NoteOffEvent(tick=120, channel=1, data=[57, 64]),
   midi.NoteOffEvent(tick=0, channel=1, data=[62, 64]),
   midi.NoteOnEvent(tick=0, channel=1, data=[57, 100]),
   midi.NoteOnEvent(tick=0, channel=1, data=[62, 100]),
   midi.NoteOffEvent(tick=60, channel=1, data=[57, 64]),
   midi.NoteOffEvent(tick=0, channel=1, data=[62, 0]),
   midi.NoteOnEvent(tick=60, channel=1, data=[57, 100]),
   midi.NoteOnEvent(tick=0, channel=1, data=[62, 100]),
   midi.NoteOffEvent(tick=60, channel=1, data=[57, 64]),
   midi.NoteOffEvent(tick=0, channel=1, data=[62, 0]),
   midi.NoteOnEvent(tick=0, channel=1, data=[57, 100]),
   midi.NoteOnEvent(tick=0, channel=1, data=[62, 100]),
   midi.NoteOffEvent(tick=60, channel=1, data=[57, 64]),
   midi.NoteOffEvent(tick=0, channel=1, data=[62, 64]),
   midi.NoteOnEvent(tick=0, channel=1, data=[58, 100]),
   midi.NoteOnEvent(tick=0, channel=1, data=[63, 100]),
   midi.NoteOffEvent(tick=120, channel=1, data=[58, 0]),
   midi.NoteOffEvent(tick=0, channel=1, data=[63, 64]),
   midi.NoteOnEvent(tick=0, channel=1, data=[57, 100]),
   midi.NoteOnEvent(tick=0, channel=1, data=[62, 100]),
   midi.NoteOffEvent(tick=120, channel=1, data=[57, 64]),
   midi.NoteOffEvent(tick=0, channel=1, data=[62, 64]),
   midi.NoteOnEvent(tick=0, channel=1, data=[62, 100]),
   midi.NoteOnEvent(tick=0, channel=1, data=[57, 100]),
   midi.NoteOffEvent(tick=60, channel=1, data=[62, 64]),
   midi.NoteOffEvent(tick=0, channel=1, data=[57, 0]),
   midi.NoteOnEvent(tick=60, channel=1, data=[62, 100]),
   midi.NoteOnEvent(tick=0, channel=1, data=[57, 100]),
   midi.NoteOffEvent(tick=60, channel=1, data=[62, 64]),
   midi.NoteOffEvent(tick=0, channel=1, data=[57, 0]),
   midi.NoteOnEvent(tick=0, channel=1, data=[62, 100]),
   midi.NoteOnEvent(tick=0, channel=1, data=[57, 100]),
   midi.NoteOffEvent(tick=60, channel=1, data=[62, 64]),
   midi.NoteOffEvent(tick=0, channel=1, data=[57, 64]),
   midi.NoteOnEvent(tick=0, channel=1, data=[62, 100]),
   midi.NoteOnEvent(tick=0, channel=1, data=[57, 100]),
   midi.NoteOffEvent(tick=60, channel=1, data=[62, 64]),
   midi.NoteOffEvent(tick=0, channel=1, data=[57, 64]),
   midi.NoteOnEvent(tick=60, channel=1, data=[62, 100]),
   midi.NoteOnEvent(tick=0, channel=1, data=[57, 100]),
   midi.NoteOffEvent(tick=120, channel=1, data=[62, 64]),
   midi.NoteOffEvent(tick=0, channel=1, data=[57, 64]),
   midi.NoteOnEvent(tick=0, channel=1, data=[62, 100]),
   midi.NoteOnEvent(tick=0, channel=1, data=[57, 100]),
   midi.NoteOffEvent(tick=60, channel=1, data=[62, 0]),
   midi.NoteOffEvent(tick=0, channel=1, data=[57, 64]),
   midi.NoteOnEvent(tick=60, channel=1, data=[62, 100]),
   midi.NoteOnEvent(tick=0, channel=1, data=[57, 100]),
   midi.NoteOffEvent(tick=60, channel=1, data=[62, 0]),
   midi.NoteOffEvent(tick=0, channel=1, data=[57, 64]),
   midi.NoteOnEvent(tick=0, channel=1, data=[62, 100]),
   midi.NoteOnEvent(tick=0, channel=1, data=[57, 100]),
   midi.NoteOffEvent(tick=60, channel=1, data=[62, 64]),
   midi.NoteOffEvent(tick=0, channel=1, data=[57, 64]),
   midi.NoteOnEvent(tick=0, channel=1, data=[56, 100]),
   midi.NoteOnEvent(tick=0, channel=1, data=[61, 100]),
   midi.NoteOffEvent(tick=120, channel=1, data=[56, 0]),
   midi.NoteOffEvent(tick=0, channel=1, data=[61, 0]),
   midi.NoteOnEvent(tick=0, channel=1, data=[57, 100]),
   midi.NoteOnEvent(tick=0, channel=1, data=[62, 100]),
   midi.NoteOffEvent(tick=480, channel=1, data=[57, 64]),
   midi.NoteOffEvent(tick=0, channel=1, data=[62, 64]),
   midi.NoteOnEvent(tick=0, channel=1, data=[56, 100]),
   midi.NoteOnEvent(tick=0, channel=1, data=[61, 100]),
   midi.NoteOffEvent(tick=360, channel=1, data=[56, 64]),
   midi.NoteOffEvent(tick=0, channel=1, data=[61, 64]),
   midi.NoteOnEvent(tick=0, channel=1, data=[60, 100]),
   midi.NoteOnEvent(tick=0, channel=1, data=[55, 100]),
   midi.NoteOffEvent(tick=840, channel=1, data=[60, 64]),
   midi.NoteOffEvent(tick=0, channel=1, data=[55, 64]),
   midi.NoteOnEvent(tick=0, channel=1, data=[54, 100]),
   midi.NoteOnEvent(tick=0, channel=1, data=[59, 100]),
   midi.NoteOffEvent(tick=240, channel=1, data=[54, 64]),
   midi.NoteOffEvent(tick=0, channel=1, data=[59, 64]),
   midi.NoteOnEvent(tick=0, channel=1, data=[62, 100]),
   midi.NoteOnEvent(tick=0, channel=1, data=[57, 100]),
   midi.NoteOffEvent(tick=480, channel=1, data=[62, 64]),
   midi.NoteOffEvent(tick=0, channel=1, data=[57, 64]),
   midi.NoteOnEvent(tick=0, channel=1, data=[61, 100]),
   midi.NoteOnEvent(tick=0, channel=1, data=[56, 100]),
   midi.NoteOffEvent(tick=360, channel=1, data=[61, 64]),
   midi.NoteOffEvent(tick=0, channel=1, data=[56, 64]),
   midi.NoteOnEvent(tick=0, channel=1, data=[55, 100]),
   midi.NoteOnEvent(tick=0, channel=1, data=[60, 100]),
   midi.NoteOffEvent(tick=840, channel=1, data=[55, 64]),
   midi.NoteOffEvent(tick=0, channel=1, data=[60, 64]),
   midi.NoteOnEvent(tick=240, channel=1, data=[62, 100]),
   midi.NoteOnEvent(tick=0, channel=1, data=[57, 100]),
   midi.NoteOffEvent(tick=480, channel=1, data=[62, 64]),
   midi.NoteOffEvent(tick=0, channel=1, data=[57, 64]),
   midi.NoteOnEvent(tick=0, channel=1, data=[61, 100]),
   midi.NoteOnEvent(tick=0, channel=1, data=[56, 100]),
   midi.NoteOffEvent(tick=360, channel=1, data=[61, 64]),
   midi.NoteOffEvent(tick=0, channel=1, data=[56, 64]),
   midi.NoteOnEvent(tick=0, channel=1, data=[55, 100]),
   midi.NoteOnEvent(tick=0, channel=1, data=[60, 100]),
   midi.NoteOffEvent(tick=840, channel=1, data=[55, 64]),
   midi.NoteOffEvent(tick=0, channel=1, data=[60, 64]),
   midi.NoteOnEvent(tick=0, channel=1, data=[59, 100]),
   midi.NoteOnEvent(tick=0, channel=1, data=[54, 100]),
   midi.NoteOffEvent(tick=240, channel=1, data=[59, 64]),
   midi.NoteOffEvent(tick=0, channel=1, data=[54, 64]),
   midi.NoteOnEvent(tick=0, channel=1, data=[62, 100]),
   midi.NoteOnEvent(tick=0, channel=1, data=[57, 100]),
   midi.NoteOffEvent(tick=480, channel=1, data=[62, 64]),
   midi.NoteOffEvent(tick=0, channel=1, data=[57, 64]),
   midi.NoteOnEvent(tick=0, channel=1, data=[61, 100]),
   midi.NoteOnEvent(tick=0, channel=1, data=[56, 100]),
   midi.NoteOffEvent(tick=360, channel=1, data=[61, 64]),
   midi.NoteOffEvent(tick=0, channel=1, data=[56, 64]),
   midi.NoteOnEvent(tick=0, channel=1, data=[55, 100]),
   midi.NoteOnEvent(tick=0, channel=1, data=[60, 100]),
   midi.NoteOffEvent(tick=840, channel=1, data=[55, 64]),
   midi.NoteOffEvent(tick=0, channel=1, data=[60, 64]),
   midi.NoteOnEvent(tick=240, channel=1, data=[57, 100]),
   midi.NoteOnEvent(tick=0, channel=1, data=[62, 100]),
   midi.NoteOffEvent(tick=480, channel=1, data=[57, 64]),
   midi.NoteOffEvent(tick=0, channel=1, data=[62, 64]),
   midi.NoteOnEvent(tick=0, channel=1, data=[56, 100]),
   midi.NoteOnEvent(tick=0, channel=1, data=[61, 100]),
   midi.NoteOffEvent(tick=360, channel=1, data=[56, 64]),
   midi.NoteOffEvent(tick=0, channel=1, data=[61, 64]),
   midi.NoteOnEvent(tick=0, channel=1, data=[60, 100]),
   midi.NoteOnEvent(tick=0, channel=1, data=[55, 100]),
   midi.NoteOffEvent(tick=840, channel=1, data=[60, 64]),
   midi.NoteOffEvent(tick=0, channel=1, data=[55, 64]),
   midi.NoteOnEvent(tick=0, channel=1, data=[54, 100]),
   midi.NoteOnEvent(tick=0, channel=1, data=[59, 100]),
   midi.NoteOffEvent(tick=240, channel=1, data=[54, 64]),
   midi.NoteOffEvent(tick=0, channel=1, data=[59, 64]),
   midi.NoteOnEvent(tick=0, channel=1, data=[62, 100]),
   midi.NoteOnEvent(tick=0, channel=1, data=[57, 100]),
   midi.NoteOffEvent(tick=480, channel=1, data=[62, 64]),
   midi.NoteOffEvent(tick=0, channel=1, data=[57, 64]),
   midi.NoteOnEvent(tick=0, channel=1, data=[61, 100]),
   midi.NoteOnEvent(tick=0, channel=1, data=[56, 100]),
   midi.NoteOffEvent(tick=360, channel=1, data=[61, 64]),
   midi.NoteOffEvent(tick=0, channel=1, data=[56, 64]),
   midi.NoteOnEvent(tick=0, channel=1, data=[55, 100]),
   midi.NoteOnEvent(tick=0, channel=1, data=[60, 100]),
   midi.NoteOffEvent(tick=840, channel=1, data=[55, 64]),
   midi.NoteOffEvent(tick=0, channel=1, data=[60, 64]),
   midi.NoteOnEvent(tick=240, channel=1, data=[62, 100]),
   midi.NoteOnEvent(tick=0, channel=1, data=[57, 100]),
   midi.NoteOffEvent(tick=480, channel=1, data=[62, 64]),
   midi.NoteOffEvent(tick=0, channel=1, data=[57, 64]),
   midi.NoteOnEvent(tick=0, channel=1, data=[61, 100]),
   midi.NoteOnEvent(tick=0, channel=1, data=[56, 100]),
   midi.NoteOffEvent(tick=360, channel=1, data=[61, 64]),
   midi.NoteOffEvent(tick=0, channel=1, data=[56, 64]),
   midi.NoteOnEvent(tick=0, channel=1, data=[55, 100]),
   midi.NoteOnEvent(tick=0, channel=1, data=[60, 100]),
   midi.NoteOffEvent(tick=840, channel=1, data=[55, 64]),
   midi.NoteOffEvent(tick=0, channel=1, data=[60, 64]),
   midi.NoteOnEvent(tick=0, channel=1, data=[59, 100]),
   midi.NoteOnEvent(tick=0, channel=1, data=[54, 100]),
   midi.NoteOffEvent(tick=240, channel=1, data=[59, 64]),
   midi.NoteOffEvent(tick=0, channel=1, data=[54, 64]),
   midi.NoteOnEvent(tick=0, channel=1, data=[62, 100]),
   midi.NoteOnEvent(tick=0, channel=1, data=[57, 100]),
   midi.NoteOffEvent(tick=480, channel=1, data=[62, 64]),
   midi.NoteOffEvent(tick=0, channel=1, data=[57, 64]),
   midi.NoteOnEvent(tick=0, channel=1, data=[61, 100]),
   midi.NoteOnEvent(tick=0, channel=1, data=[56, 100]),
   midi.NoteOffEvent(tick=360, channel=1, data=[61, 64]),
   midi.NoteOffEvent(tick=0, channel=1, data=[56, 64]),
   midi.NoteOnEvent(tick=0, channel=1, data=[55, 100]),
   midi.NoteOnEvent(tick=0, channel=1, data=[60, 100]),
   midi.NoteOffEvent(tick=840, channel=1, data=[55, 64]),
   midi.NoteOffEvent(tick=0, channel=1, data=[60, 64]),
   midi.NoteOnEvent(tick=8880, channel=1, data=[57, 100]),
   midi.NoteOnEvent(tick=0, channel=1, data=[62, 100]),
   midi.NoteOffEvent(tick=120, channel=1, data=[57, 64]),
   midi.NoteOffEvent(tick=0, channel=1, data=[62, 64]),
   midi.NoteOnEvent(tick=0, channel=1, data=[62, 100]),
   midi.NoteOnEvent(tick=0, channel=1, data=[57, 100]),
   midi.NoteOffEvent(tick=60, channel=1, data=[62, 64]),
   midi.NoteOffEvent(tick=0, channel=1, data=[57, 0]),
   midi.NoteOnEvent(tick=60, channel=1, data=[62, 100]),
   midi.NoteOnEvent(tick=0, channel=1, data=[57, 100]),
   midi.NoteOffEvent(tick=60, channel=1, data=[62, 64]),
   midi.NoteOffEvent(tick=0, channel=1, data=[57, 0]),
   midi.NoteOnEvent(tick=0, channel=1, data=[62, 100]),
   midi.NoteOnEvent(tick=0, channel=1, data=[57, 100]),
   midi.NoteOffEvent(tick=60, channel=1, data=[62, 64]),
   midi.NoteOffEvent(tick=0, channel=1, data=[57, 64]),
   midi.NoteOnEvent(tick=0, channel=1, data=[62, 100]),
   midi.NoteOnEvent(tick=0, channel=1, data=[57, 100]),
   midi.NoteOffEvent(tick=60, channel=1, data=[62, 64]),
   midi.NoteOffEvent(tick=0, channel=1, data=[57, 64]),
   midi.NoteOnEvent(tick=60, channel=1, data=[62, 100]),
   midi.NoteOnEvent(tick=0, channel=1, data=[57, 100]),
   midi.NoteOffEvent(tick=120, channel=1, data=[62, 64]),
   midi.NoteOffEvent(tick=0, channel=1, data=[57, 64]),
   midi.NoteOnEvent(tick=0, channel=1, data=[62, 100]),
   midi.NoteOnEvent(tick=0, channel=1, data=[57, 100]),
   midi.NoteOffEvent(tick=60, channel=1, data=[62, 0]),
   midi.NoteOffEvent(tick=0, channel=1, data=[57, 64]),
   midi.NoteOnEvent(tick=60, channel=1, data=[62, 100]),
   midi.NoteOnEvent(tick=0, channel=1, data=[57, 100]),
   midi.NoteOffEvent(tick=60, channel=1, data=[62, 0]),
   midi.NoteOffEvent(tick=0, channel=1, data=[57, 64]),
   midi.NoteOnEvent(tick=0, channel=1, data=[62, 100]),
   midi.NoteOnEvent(tick=0, channel=1, data=[57, 100]),
   midi.NoteOffEvent(tick=60, channel=1, data=[62, 64]),
   midi.NoteOffEvent(tick=0, channel=1, data=[57, 64]),
   midi.NoteOnEvent(tick=0, channel=1, data=[63, 100]),
   midi.NoteOnEvent(tick=0, channel=1, data=[58, 100]),
   midi.NoteOffEvent(tick=120, channel=1, data=[63, 64]),
   midi.NoteOffEvent(tick=0, channel=1, data=[58, 0]),
   midi.NoteOnEvent(tick=0, channel=1, data=[62, 100]),
   midi.NoteOnEvent(tick=0, channel=1, data=[57, 100]),
   midi.NoteOffEvent(tick=120, channel=1, data=[62, 64]),
   midi.NoteOffEvent(tick=0, channel=1, data=[57, 64]),
   midi.NoteOnEvent(tick=0, channel=1, data=[57, 100]),
   midi.NoteOnEvent(tick=0, channel=1, data=[62, 100]),
   midi.NoteOffEvent(tick=60, channel=1, data=[57, 0]),
   midi.NoteOffEvent(tick=0, channel=1, data=[62, 64]),
   midi.NoteOnEvent(tick=60, channel=1, data=[57, 100]),
   midi.NoteOnEvent(tick=0, channel=1, data=[62, 100]),
   midi.NoteOffEvent(tick=60, channel=1, data=[57, 0]),
   midi.NoteOffEvent(tick=0, channel=1, data=[62, 64]),
   midi.NoteOnEvent(tick=0, channel=1, data=[57, 100]),
   midi.NoteOnEvent(tick=0, channel=1, data=[62, 100]),
   midi.NoteOffEvent(tick=60, channel=1, data=[57, 64]),
   midi.NoteOffEvent(tick=0, channel=1, data=[62, 64]),
   midi.NoteOnEvent(tick=0, channel=1, data=[57, 100]),
   midi.NoteOnEvent(tick=0, channel=1, data=[62, 100]),
   midi.NoteOffEvent(tick=60, channel=1, data=[57, 64]),
   midi.NoteOffEvent(tick=0, channel=1, data=[62, 64]),
   midi.NoteOnEvent(tick=60, channel=1, data=[57, 100]),
   midi.NoteOnEvent(tick=0, channel=1, data=[62, 100]),
   midi.NoteOffEvent(tick=120, channel=1, data=[57, 64]),
   midi.NoteOffEvent(tick=0, channel=1, data=[62, 64]),
   midi.NoteOnEvent(tick=0, channel=1, data=[57, 100]),
   midi.NoteOnEvent(tick=0, channel=1, data=[62, 100]),
   midi.NoteOffEvent(tick=60, channel=1, data=[57, 64]),
   midi.NoteOffEvent(tick=0, channel=1, data=[62, 0]),
   midi.NoteOnEvent(tick=60, channel=1, data=[57, 100]),
   midi.NoteOnEvent(tick=0, channel=1, data=[62, 100]),
   midi.NoteOffEvent(tick=60, channel=1, data=[57, 64]),
   midi.NoteOffEvent(tick=0, channel=1, data=[62, 0]),
   midi.NoteOnEvent(tick=0, channel=1, data=[57, 100]),
   midi.NoteOnEvent(tick=0, channel=1, data=[62, 100]),
   midi.NoteOffEvent(tick=60, channel=1, data=[57, 64]),
   midi.NoteOffEvent(tick=0, channel=1, data=[62, 64]),
   midi.NoteOnEvent(tick=0, channel=1, data=[61, 100]),
   midi.NoteOnEvent(tick=0, channel=1, data=[56, 100]),
   midi.NoteOffEvent(tick=120, channel=1, data=[61, 0]),
   midi.NoteOffEvent(tick=0, channel=1, data=[56, 0]),
   midi.NoteOnEvent(tick=0, channel=1, data=[62, 100]),
   midi.NoteOnEvent(tick=0, channel=1, data=[57, 100]),
   midi.NoteOffEvent(tick=120, channel=1, data=[62, 64]),
   midi.NoteOffEvent(tick=0, channel=1, data=[57, 64]),
   midi.NoteOnEvent(tick=0, channel=1, data=[57, 100]),
   midi.NoteOnEvent(tick=0, channel=1, data=[62, 100]),
   midi.NoteOffEvent(tick=60, channel=1, data=[57, 0]),
   midi.NoteOffEvent(tick=0, channel=1, data=[62, 64]),
   midi.NoteOnEvent(tick=60, channel=1, data=[57, 100]),
   midi.NoteOnEvent(tick=0, channel=1, data=[62, 100]),
   midi.NoteOffEvent(tick=60, channel=1, data=[57, 0]),
   midi.NoteOffEvent(tick=0, channel=1, data=[62, 64]),
   midi.NoteOnEvent(tick=0, channel=1, data=[57, 100]),
   midi.NoteOnEvent(tick=0, channel=1, data=[62, 100]),
   midi.NoteOffEvent(tick=60, channel=1, data=[57, 64]),
   midi.NoteOffEvent(tick=0, channel=1, data=[62, 64]),
   midi.NoteOnEvent(tick=0, channel=1, data=[57, 100]),
   midi.NoteOnEvent(tick=0, channel=1, data=[62, 100]),
   midi.NoteOffEvent(tick=60, channel=1, data=[57, 64]),
   midi.NoteOffEvent(tick=0, channel=1, data=[62, 64]),
   midi.NoteOnEvent(tick=60, channel=1, data=[57, 100]),
   midi.NoteOnEvent(tick=0, channel=1, data=[62, 100]),
   midi.NoteOffEvent(tick=120, channel=1, data=[57, 64]),
   midi.NoteOffEvent(tick=0, channel=1, data=[62, 64]),
   midi.NoteOnEvent(tick=0, channel=1, data=[57, 100]),
   midi.NoteOnEvent(tick=0, channel=1, data=[62, 100]),
   midi.NoteOffEvent(tick=60, channel=1, data=[57, 64]),
   midi.NoteOffEvent(tick=0, channel=1, data=[62, 0]),
   midi.NoteOnEvent(tick=60, channel=1, data=[57, 100]),
   midi.NoteOnEvent(tick=0, channel=1, data=[62, 100]),
   midi.NoteOffEvent(tick=60, channel=1, data=[57, 64]),
   midi.NoteOffEvent(tick=0, channel=1, data=[62, 0]),
   midi.NoteOnEvent(tick=0, channel=1, data=[57, 100]),
   midi.NoteOnEvent(tick=0, channel=1, data=[62, 100]),
   midi.NoteOffEvent(tick=60, channel=1, data=[57, 64]),
   midi.NoteOffEvent(tick=0, channel=1, data=[62, 64]),
   midi.NoteOnEvent(tick=0, channel=1, data=[58, 100]),
   midi.NoteOnEvent(tick=0, channel=1, data=[63, 100]),
   midi.NoteOffEvent(tick=120, channel=1, data=[58, 0]),
   midi.NoteOffEvent(tick=0, channel=1, data=[63, 64]),
   midi.NoteOnEvent(tick=0, channel=1, data=[57, 100]),
   midi.NoteOnEvent(tick=0, channel=1, data=[62, 100]),
   midi.NoteOffEvent(tick=120, channel=1, data=[57, 64]),
   midi.NoteOffEvent(tick=0, channel=1, data=[62, 64]),
   midi.NoteOnEvent(tick=0, channel=1, data=[62, 100]),
   midi.NoteOnEvent(tick=0, channel=1, data=[57, 100]),
   midi.NoteOffEvent(tick=60, channel=1, data=[62, 64]),
   midi.NoteOffEvent(tick=0, channel=1, data=[57, 0]),
   midi.NoteOnEvent(tick=60, channel=1, data=[62, 100]),
   midi.NoteOnEvent(tick=0, channel=1, data=[57, 100]),
   midi.NoteOffEvent(tick=60, channel=1, data=[62, 64]),
   midi.NoteOffEvent(tick=0, channel=1, data=[57, 0]),
   midi.NoteOnEvent(tick=0, channel=1, data=[62, 100]),
   midi.NoteOnEvent(tick=0, channel=1, data=[57, 100]),
   midi.NoteOffEvent(tick=60, channel=1, data=[62, 64]),
   midi.NoteOffEvent(tick=0, channel=1, data=[57, 64]),
   midi.NoteOnEvent(tick=0, channel=1, data=[62, 100]),
   midi.NoteOnEvent(tick=0, channel=1, data=[57, 100]),
   midi.NoteOffEvent(tick=60, channel=1, data=[62, 64]),
   midi.NoteOffEvent(tick=0, channel=1, data=[57, 64]),
   midi.NoteOnEvent(tick=60, channel=1, data=[62, 100]),
   midi.NoteOnEvent(tick=0, channel=1, data=[57, 100]),
   midi.NoteOffEvent(tick=120, channel=1, data=[62, 64]),
   midi.NoteOffEvent(tick=0, channel=1, data=[57, 64]),
   midi.NoteOnEvent(tick=0, channel=1, data=[62, 100]),
   midi.NoteOnEvent(tick=0, channel=1, data=[57, 100]),
   midi.NoteOffEvent(tick=60, channel=1, data=[62, 0]),
   midi.NoteOffEvent(tick=0, channel=1, data=[57, 64]),
   midi.NoteOnEvent(tick=60, channel=1, data=[62, 100]),
   midi.NoteOnEvent(tick=0, channel=1, data=[57, 100]),
   midi.NoteOffEvent(tick=60, channel=1, data=[62, 0]),
   midi.NoteOffEvent(tick=0, channel=1, data=[57, 64]),
   midi.NoteOnEvent(tick=0, channel=1, data=[62, 100]),
   midi.NoteOnEvent(tick=0, channel=1, data=[57, 100]),
   midi.NoteOffEvent(tick=60, channel=1, data=[62, 64]),
   midi.NoteOffEvent(tick=0, channel=1, data=[57, 64]),
   midi.NoteOnEvent(tick=0, channel=1, data=[56, 100]),
   midi.NoteOnEvent(tick=0, channel=1, data=[61, 100]),
   midi.NoteOffEvent(tick=120, channel=1, data=[56, 0]),
   midi.NoteOffEvent(tick=0, channel=1, data=[61, 0]),
   midi.NoteOnEvent(tick=0, channel=1, data=[38, 100]),
   midi.NoteOffEvent(tick=60, channel=1, data=[38, 64]),
   midi.NoteOnEvent(tick=0, channel=1, data=[38, 100]),
   midi.NoteOffEvent(tick=60, channel=1, data=[38, 64]),
   midi.NoteOnEvent(tick=0, channel=1, data=[38, 100]),
   midi.NoteOffEvent(tick=60, channel=1, data=[38, 64]),
   midi.NoteOnEvent(tick=0, channel=1, data=[38, 100]),
   midi.NoteOffEvent(tick=60, channel=1, data=[38, 64]),
   midi.NoteOnEvent(tick=0, channel=1, data=[38, 100]),
   midi.NoteOffEvent(tick=60, channel=1, data=[38, 64]),
   midi.NoteOnEvent(tick=0, channel=1, data=[38, 100]),
   midi.NoteOffEvent(tick=60, channel=1, data=[38, 64]),
   midi.NoteOnEvent(tick=0, channel=1, data=[38, 100]),
   midi.NoteOffEvent(tick=60, channel=1, data=[38, 64]),
   midi.NoteOnEvent(tick=0, channel=1, data=[38, 100]),
   midi.NoteOffEvent(tick=60, channel=1, data=[38, 64]),
   midi.NoteOnEvent(tick=0, channel=1, data=[38, 100]),
   midi.NoteOffEvent(tick=60, channel=1, data=[38, 0]),
   midi.NoteOnEvent(tick=0, channel=1, data=[38, 100]),
   midi.NoteOffEvent(tick=60, channel=1, data=[38, 64]),
   midi.NoteOnEvent(tick=0, channel=1, data=[38, 100]),
   midi.NoteOffEvent(tick=60, channel=1, data=[38, 64]),
   midi.NoteOnEvent(tick=0, channel=1, data=[38, 100]),
   midi.NoteOffEvent(tick=60, channel=1, data=[38, 64]),
   midi.NoteOnEvent(tick=240, channel=1, data=[38, 100]),
   midi.NoteOffEvent(tick=60, channel=1, data=[38, 64]),
   midi.NoteOnEvent(tick=0, channel=1, data=[38, 100]),
   midi.NoteOffEvent(tick=60, channel=1, data=[38, 64]),
   midi.NoteOnEvent(tick=0, channel=1, data=[38, 100]),
   midi.NoteOffEvent(tick=60, channel=1, data=[38, 64]),
   midi.NoteOnEvent(tick=0, channel=1, data=[38, 100]),
   midi.NoteOffEvent(tick=60, channel=1, data=[38, 64]),
   midi.NoteOnEvent(tick=0, channel=1, data=[38, 100]),
   midi.NoteOffEvent(tick=60, channel=1, data=[38, 64]),
   midi.NoteOnEvent(tick=0, channel=1, data=[38, 100]),
   midi.NoteOffEvent(tick=60, channel=1, data=[38, 64]),
   midi.NoteOnEvent(tick=0, channel=1, data=[38, 100]),
   midi.NoteOffEvent(tick=60, channel=1, data=[38, 64]),
   midi.NoteOnEvent(tick=0, channel=1, data=[38, 100]),
   midi.NoteOffEvent(tick=60, channel=1, data=[38, 64]),
   midi.NoteOnEvent(tick=0, channel=1, data=[38, 100]),
   midi.NoteOffEvent(tick=60, channel=1, data=[38, 64]),
   midi.NoteOnEvent(tick=0, channel=1, data=[38, 100]),
   midi.NoteOffEvent(tick=60, channel=1, data=[38, 64]),
   midi.NoteOnEvent(tick=0, channel=1, data=[38, 100]),
   midi.NoteOffEvent(tick=60, channel=1, data=[38, 64]),
   midi.NoteOnEvent(tick=0, channel=1, data=[38, 100]),
   midi.NoteOffEvent(tick=60, channel=1, data=[38, 64]),
   midi.NoteOnEvent(tick=240, channel=1, data=[38, 100]),
   midi.NoteOffEvent(tick=60, channel=1, data=[38, 64]),
   midi.NoteOnEvent(tick=0, channel=1, data=[38, 100]),
   midi.NoteOffEvent(tick=60, channel=1, data=[38, 64]),
   midi.NoteOnEvent(tick=0, channel=1, data=[38, 100]),
   midi.NoteOffEvent(tick=60, channel=1, data=[38, 64]),
   midi.NoteOnEvent(tick=0, channel=1, data=[38, 100]),
   midi.NoteOffEvent(tick=60, channel=1, data=[38, 64]),
   midi.NoteOnEvent(tick=0, channel=1, data=[38, 100]),
   midi.NoteOffEvent(tick=60, channel=1, data=[38, 64]),
   midi.NoteOnEvent(tick=0, channel=1, data=[38, 100]),
   midi.NoteOffEvent(tick=60, channel=1, data=[38, 64]),
   midi.NoteOnEvent(tick=0, channel=1, data=[38, 100]),
   midi.NoteOffEvent(tick=60, channel=1, data=[38, 64]),
   midi.NoteOnEvent(tick=0, channel=1, data=[38, 100]),
   midi.NoteOffEvent(tick=60, channel=1, data=[38, 64]),
   midi.NoteOnEvent(tick=0, channel=1, data=[38, 100]),
   midi.NoteOffEvent(tick=60, channel=1, data=[38, 64]),
   midi.NoteOnEvent(tick=0, channel=1, data=[38, 100]),
   midi.NoteOffEvent(tick=60, channel=1, data=[38, 64]),
   midi.NoteOnEvent(tick=0, channel=1, data=[38, 100]),
   midi.NoteOffEvent(tick=60, channel=1, data=[38, 64]),
   midi.NoteOnEvent(tick=0, channel=1, data=[38, 100]),
   midi.NoteOffEvent(tick=60, channel=1, data=[38, 64]),
   midi.NoteOnEvent(tick=0, channel=1, data=[38, 100]),
   midi.NoteOffEvent(tick=60, channel=1, data=[38, 64]),
   midi.NoteOnEvent(tick=0, channel=1, data=[38, 100]),
   midi.NoteOffEvent(tick=60, channel=1, data=[38, 64]),
   midi.NoteOnEvent(tick=0, channel=1, data=[38, 100]),
   midi.NoteOffEvent(tick=60, channel=1, data=[38, 64]),
   midi.NoteOnEvent(tick=0, channel=1, data=[38, 100]),
   midi.NoteOffEvent(tick=60, channel=1, data=[38, 64]),
   midi.NoteOnEvent(tick=0, channel=1, data=[38, 100]),
   midi.NoteOffEvent(tick=60, channel=1, data=[38, 64]),
   midi.NoteOnEvent(tick=0, channel=1, data=[38, 100]),
   midi.NoteOffEvent(tick=60, channel=1, data=[38, 64]),
   midi.NoteOnEvent(tick=0, channel=1, data=[38, 100]),
   midi.NoteOffEvent(tick=60, channel=1, data=[38, 64]),
   midi.NoteOnEvent(tick=0, channel=1, data=[38, 100]),
   midi.NoteOffEvent(tick=60, channel=1, data=[38, 64]),
   midi.NoteOnEvent(tick=0, channel=1, data=[38, 100]),
   midi.NoteOffEvent(tick=60, channel=1, data=[38, 64]),
   midi.NoteOnEvent(tick=0, channel=1, data=[38, 100]),
   midi.NoteOffEvent(tick=60, channel=1, data=[38, 64]),
   midi.NoteOnEvent(tick=0, channel=1, data=[38, 100]),
   midi.NoteOffEvent(tick=60, channel=1, data=[38, 64]),
   midi.NoteOnEvent(tick=0, channel=1, data=[38, 100]),
   midi.NoteOffEvent(tick=60, channel=1, data=[38, 64]),
   midi.NoteOnEvent(tick=0, channel=1, data=[38, 100]),
   midi.NoteOffEvent(tick=60, channel=1, data=[38, 0]),
   midi.NoteOnEvent(tick=0, channel=1, data=[38, 100]),
   midi.NoteOffEvent(tick=60, channel=1, data=[38, 64]),
   midi.NoteOnEvent(tick=0, channel=1, data=[38, 100]),
   midi.NoteOffEvent(tick=60, channel=1, data=[38, 64]),
   midi.NoteOnEvent(tick=0, channel=1, data=[38, 100]),
   midi.NoteOffEvent(tick=60, channel=1, data=[38, 64]),
   midi.NoteOnEvent(tick=0, channel=1, data=[38, 100]),
   midi.NoteOffEvent(tick=60, channel=1, data=[38, 64]),
   midi.NoteOnEvent(tick=0, channel=1, data=[38, 100]),
   midi.NoteOffEvent(tick=60, channel=1, data=[38, 64]),
   midi.NoteOnEvent(tick=0, channel=1, data=[38, 100]),
   midi.NoteOffEvent(tick=60, channel=1, data=[38, 64]),
   midi.NoteOnEvent(tick=0, channel=1, data=[38, 100]),
   midi.NoteOffEvent(tick=60, channel=1, data=[38, 64]),
   midi.NoteOnEvent(tick=0, channel=1, data=[38, 100]),
   midi.NoteOffEvent(tick=60, channel=1, data=[38, 64]),
   midi.NoteOnEvent(tick=0, channel=1, data=[38, 100]),
   midi.NoteOffEvent(tick=60, channel=1, data=[38, 64]),
   midi.NoteOnEvent(tick=0, channel=1, data=[38, 100]),
   midi.NoteOffEvent(tick=60, channel=1, data=[38, 64]),
   midi.NoteOnEvent(tick=0, channel=1, data=[38, 100]),
   midi.NoteOffEvent(tick=60, channel=1, data=[38, 64]),
   midi.NoteOnEvent(tick=0, channel=1, data=[38, 100]),
   midi.NoteOffEvent(tick=60, channel=1, data=[38, 64]),
   midi.NoteOnEvent(tick=0, channel=1, data=[38, 100]),
   midi.NoteOffEvent(tick=60, channel=1, data=[38, 64]),
   midi.NoteOnEvent(tick=0, channel=1, data=[38, 100]),
   midi.NoteOffEvent(tick=60, channel=1, data=[38, 64]),
   midi.NoteOnEvent(tick=0, channel=1, data=[38, 100]),
   midi.NoteOffEvent(tick=60, channel=1, data=[38, 64]),
   midi.NoteOnEvent(tick=0, channel=1, data=[38, 100]),
   midi.NoteOffEvent(tick=60, channel=1, data=[38, 0]),
   midi.NoteOnEvent(tick=0, channel=1, data=[38, 100]),
   midi.NoteOffEvent(tick=60, channel=1, data=[38, 64]),
   midi.NoteOnEvent(tick=0, channel=1, data=[38, 100]),
   midi.NoteOffEvent(tick=60, channel=1, data=[38, 64]),
   midi.NoteOnEvent(tick=0, channel=1, data=[38, 100]),
   midi.NoteOffEvent(tick=60, channel=1, data=[38, 64]),
   midi.NoteOnEvent(tick=240, channel=1, data=[38, 100]),
   midi.NoteOffEvent(tick=60, channel=1, data=[38, 64]),
   midi.NoteOnEvent(tick=0, channel=1, data=[38, 100]),
   midi.NoteOffEvent(tick=60, channel=1, data=[38, 64]),
   midi.NoteOnEvent(tick=0, channel=1, data=[38, 100]),
   midi.NoteOffEvent(tick=60, channel=1, data=[38, 64]),
   midi.NoteOnEvent(tick=0, channel=1, data=[38, 100]),
   midi.NoteOffEvent(tick=60, channel=1, data=[38, 64]),
   midi.NoteOnEvent(tick=0, channel=1, data=[38, 100]),
   midi.NoteOffEvent(tick=60, channel=1, data=[38, 64]),
   midi.NoteOnEvent(tick=0, channel=1, data=[38, 100]),
   midi.NoteOffEvent(tick=60, channel=1, data=[38, 64]),
   midi.NoteOnEvent(tick=0, channel=1, data=[38, 100]),
   midi.NoteOffEvent(tick=60, channel=1, data=[38, 64]),
   midi.NoteOnEvent(tick=0, channel=1, data=[38, 100]),
   midi.NoteOffEvent(tick=60, channel=1, data=[38, 64]),
   midi.NoteOnEvent(tick=0, channel=1, data=[38, 100]),
   midi.NoteOffEvent(tick=60, channel=1, data=[38, 64]),
   midi.NoteOnEvent(tick=0, channel=1, data=[38, 100]),
   midi.NoteOffEvent(tick=60, channel=1, data=[38, 64]),
   midi.NoteOnEvent(tick=0, channel=1, data=[38, 100]),
   midi.NoteOffEvent(tick=60, channel=1, data=[38, 64]),
   midi.NoteOnEvent(tick=0, channel=1, data=[38, 100]),
   midi.NoteOffEvent(tick=60, channel=1, data=[38, 64]),
   midi.NoteOnEvent(tick=240, channel=1, data=[38, 100]),
   midi.NoteOffEvent(tick=60, channel=1, data=[38, 64]),
   midi.NoteOnEvent(tick=0, channel=1, data=[38, 100]),
   midi.NoteOffEvent(tick=60, channel=1, data=[38, 64]),
   midi.NoteOnEvent(tick=0, channel=1, data=[38, 100]),
   midi.NoteOffEvent(tick=60, channel=1, data=[38, 64]),
   midi.NoteOnEvent(tick=0, channel=1, data=[38, 100]),
   midi.NoteOffEvent(tick=60, channel=1, data=[38, 64]),
   midi.NoteOnEvent(tick=0, channel=1, data=[38, 100]),
   midi.NoteOffEvent(tick=60, channel=1, data=[38, 64]),
   midi.NoteOnEvent(tick=0, channel=1, data=[38, 100]),
   midi.NoteOffEvent(tick=60, channel=1, data=[38, 64]),
   midi.NoteOnEvent(tick=0, channel=1, data=[38, 100]),
   midi.NoteOffEvent(tick=60, channel=1, data=[38, 64]),
   midi.NoteOnEvent(tick=0, channel=1, data=[38, 100]),
   midi.NoteOffEvent(tick=60, channel=1, data=[38, 64]),
   midi.NoteOnEvent(tick=0, channel=1, data=[38, 100]),
   midi.NoteOffEvent(tick=60, channel=1, data=[38, 64]),
   midi.NoteOnEvent(tick=0, channel=1, data=[38, 100]),
   midi.NoteOffEvent(tick=60, channel=1, data=[38, 64]),
   midi.NoteOnEvent(tick=0, channel=1, data=[38, 100]),
   midi.NoteOffEvent(tick=60, channel=1, data=[38, 64]),
   midi.NoteOnEvent(tick=0, channel=1, data=[38, 100]),
   midi.NoteOffEvent(tick=60, channel=1, data=[38, 64]),
   midi.NoteOnEvent(tick=0, channel=1, data=[38, 100]),
   midi.NoteOffEvent(tick=60, channel=1, data=[38, 64]),
   midi.NoteOnEvent(tick=0, channel=1, data=[38, 100]),
   midi.NoteOffEvent(tick=60, channel=1, data=[38, 64]),
   midi.NoteOnEvent(tick=0, channel=1, data=[38, 100]),
   midi.NoteOffEvent(tick=60, channel=1, data=[38, 64]),
   midi.NoteOnEvent(tick=0, channel=1, data=[38, 100]),
   midi.NoteOnEvent(tick=60, channel=1, data=[38, 100]),
   midi.NoteOffEvent(tick=60, channel=1, data=[38, 64]),
   midi.NoteOnEvent(tick=0, channel=1, data=[38, 100]),
   midi.NoteOffEvent(tick=0, channel=1, data=[38, 64]),
   midi.NoteOffEvent(tick=60, channel=1, data=[38, 64]),
   midi.NoteOnEvent(tick=0, channel=1, data=[38, 100]),
   midi.NoteOffEvent(tick=60, channel=1, data=[38, 64]),
   midi.NoteOnEvent(tick=0, channel=1, data=[38, 100]),
   midi.NoteOffEvent(tick=60, channel=1, data=[38, 64]),
   midi.NoteOnEvent(tick=0, channel=1, data=[38, 100]),
   midi.NoteOffEvent(tick=60, channel=1, data=[38, 64]),
   midi.NoteOnEvent(tick=0, channel=1, data=[38, 100]),
   midi.NoteOffEvent(tick=60, channel=1, data=[38, 64]),
   midi.NoteOnEvent(tick=0, channel=1, data=[38, 100]),
   midi.NoteOffEvent(tick=60, channel=1, data=[38, 64]),
   midi.NoteOnEvent(tick=0, channel=1, data=[38, 100]),
   midi.NoteOffEvent(tick=60, channel=1, data=[38, 64]),
   midi.NoteOnEvent(tick=0, channel=1, data=[38, 100]),
   midi.NoteOffEvent(tick=60, channel=1, data=[38, 0]),
   midi.NoteOnEvent(tick=0, channel=1, data=[38, 100]),
   midi.NoteOffEvent(tick=60, channel=1, data=[38, 64]),
   midi.NoteOnEvent(tick=0, channel=1, data=[38, 100]),
   midi.NoteOffEvent(tick=60, channel=1, data=[38, 64]),
   midi.NoteOnEvent(tick=0, channel=1, data=[38, 100]),
   midi.NoteOffEvent(tick=60, channel=1, data=[38, 64]),
   midi.NoteOnEvent(tick=0, channel=1, data=[38, 100]),
   midi.NoteOffEvent(tick=60, channel=1, data=[38, 64]),
   midi.NoteOnEvent(tick=0, channel=1, data=[38, 100]),
   midi.NoteOffEvent(tick=60, channel=1, data=[38, 64]),
   midi.NoteOnEvent(tick=0, channel=1, data=[38, 100]),
   midi.NoteOffEvent(tick=60, channel=1, data=[38, 64]),
   midi.NoteOnEvent(tick=0, channel=1, data=[38, 100]),
   midi.NoteOffEvent(tick=60, channel=1, data=[38, 64]),
   midi.NoteOnEvent(tick=0, channel=1, data=[57, 100]),
   midi.NoteOnEvent(tick=0, channel=1, data=[62, 100]),
   midi.NoteOffEvent(tick=120, channel=1, data=[57, 64]),
   midi.NoteOffEvent(tick=0, channel=1, data=[62, 64]),
   midi.NoteOnEvent(tick=0, channel=1, data=[62, 100]),
   midi.NoteOnEvent(tick=0, channel=1, data=[57, 100]),
   midi.NoteOffEvent(tick=60, channel=1, data=[62, 64]),
   midi.NoteOffEvent(tick=0, channel=1, data=[57, 0]),
   midi.NoteOnEvent(tick=60, channel=1, data=[62, 100]),
   midi.NoteOnEvent(tick=0, channel=1, data=[57, 100]),
   midi.NoteOffEvent(tick=60, channel=1, data=[62, 64]),
   midi.NoteOffEvent(tick=0, channel=1, data=[57, 0]),
   midi.NoteOnEvent(tick=0, channel=1, data=[62, 100]),
   midi.NoteOnEvent(tick=0, channel=1, data=[57, 100]),
   midi.NoteOffEvent(tick=60, channel=1, data=[62, 64]),
   midi.NoteOffEvent(tick=0, channel=1, data=[57, 64]),
   midi.NoteOnEvent(tick=0, channel=1, data=[62, 100]),
   midi.NoteOnEvent(tick=0, channel=1, data=[57, 100]),
   midi.NoteOffEvent(tick=60, channel=1, data=[62, 64]),
   midi.NoteOffEvent(tick=0, channel=1, data=[57, 64]),
   midi.NoteOnEvent(tick=60, channel=1, data=[62, 100]),
   midi.NoteOnEvent(tick=0, channel=1, data=[57, 100]),
   midi.NoteOffEvent(tick=120, channel=1, data=[62, 64]),
   midi.NoteOffEvent(tick=0, channel=1, data=[57, 64]),
   midi.NoteOnEvent(tick=0, channel=1, data=[62, 100]),
   midi.NoteOnEvent(tick=0, channel=1, data=[57, 100]),
   midi.NoteOffEvent(tick=60, channel=1, data=[62, 0]),
   midi.NoteOffEvent(tick=0, channel=1, data=[57, 64]),
   midi.NoteOnEvent(tick=60, channel=1, data=[62, 100]),
   midi.NoteOnEvent(tick=0, channel=1, data=[57, 100]),
   midi.NoteOffEvent(tick=60, channel=1, data=[62, 0]),
   midi.NoteOffEvent(tick=0, channel=1, data=[57, 64]),
   midi.NoteOnEvent(tick=0, channel=1, data=[62, 100]),
   midi.NoteOnEvent(tick=0, channel=1, data=[57, 100]),
   midi.NoteOffEvent(tick=60, channel=1, data=[62, 64]),
   midi.NoteOffEvent(tick=0, channel=1, data=[57, 64]),
   midi.NoteOnEvent(tick=0, channel=1, data=[63, 100]),
   midi.NoteOnEvent(tick=0, channel=1, data=[58, 100]),
   midi.NoteOffEvent(tick=120, channel=1, data=[63, 64]),
   midi.NoteOffEvent(tick=0, channel=1, data=[58, 0]),
   midi.NoteOnEvent(tick=0, channel=1, data=[62, 100]),
   midi.NoteOnEvent(tick=0, channel=1, data=[57, 100]),
   midi.NoteOffEvent(tick=120, channel=1, data=[62, 64]),
   midi.NoteOffEvent(tick=0, channel=1, data=[57, 64]),
   midi.NoteOnEvent(tick=0, channel=1, data=[57, 100]),
   midi.NoteOnEvent(tick=0, channel=1, data=[62, 100]),
   midi.NoteOffEvent(tick=60, channel=1, data=[57, 0]),
   midi.NoteOffEvent(tick=0, channel=1, data=[62, 64]),
   midi.NoteOnEvent(tick=60, channel=1, data=[57, 100]),
   midi.NoteOnEvent(tick=0, channel=1, data=[62, 100]),
   midi.NoteOffEvent(tick=60, channel=1, data=[57, 0]),
   midi.NoteOffEvent(tick=0, channel=1, data=[62, 64]),
   midi.NoteOnEvent(tick=0, channel=1, data=[57, 100]),
   midi.NoteOnEvent(tick=0, channel=1, data=[62, 100]),
   midi.NoteOffEvent(tick=60, channel=1, data=[57, 64]),
   midi.NoteOffEvent(tick=0, channel=1, data=[62, 64]),
   midi.NoteOnEvent(tick=0, channel=1, data=[57, 100]),
   midi.NoteOnEvent(tick=0, channel=1, data=[62, 100]),
   midi.NoteOffEvent(tick=60, channel=1, data=[57, 64]),
   midi.NoteOffEvent(tick=0, channel=1, data=[62, 64]),
   midi.NoteOnEvent(tick=60, channel=1, data=[57, 100]),
   midi.NoteOnEvent(tick=0, channel=1, data=[62, 100]),
   midi.NoteOffEvent(tick=120, channel=1, data=[57, 64]),
   midi.NoteOffEvent(tick=0, channel=1, data=[62, 64]),
   midi.NoteOnEvent(tick=0, channel=1, data=[57, 100]),
   midi.NoteOnEvent(tick=0, channel=1, data=[62, 100]),
   midi.NoteOffEvent(tick=60, channel=1, data=[57, 64]),
   midi.NoteOffEvent(tick=0, channel=1, data=[62, 0]),
   midi.NoteOnEvent(tick=60, channel=1, data=[57, 100]),
   midi.NoteOnEvent(tick=0, channel=1, data=[62, 100]),
   midi.NoteOffEvent(tick=60, channel=1, data=[57, 64]),
   midi.NoteOffEvent(tick=0, channel=1, data=[62, 0]),
   midi.NoteOnEvent(tick=0, channel=1, data=[57, 100]),
   midi.NoteOnEvent(tick=0, channel=1, data=[62, 100]),
   midi.NoteOffEvent(tick=60, channel=1, data=[57, 64]),
   midi.NoteOffEvent(tick=0, channel=1, data=[62, 64]),
   midi.NoteOnEvent(tick=0, channel=1, data=[61, 100]),
   midi.NoteOnEvent(tick=0, channel=1, data=[56, 100]),
   midi.NoteOffEvent(tick=120, channel=1, data=[61, 0]),
   midi.NoteOffEvent(tick=0, channel=1, data=[56, 0]),
   midi.NoteOnEvent(tick=0, channel=1, data=[62, 100]),
   midi.NoteOnEvent(tick=0, channel=1, data=[57, 100]),
   midi.NoteOffEvent(tick=120, channel=1, data=[62, 64]),
   midi.NoteOffEvent(tick=0, channel=1, data=[57, 64]),
   midi.NoteOnEvent(tick=0, channel=1, data=[57, 100]),
   midi.NoteOnEvent(tick=0, channel=1, data=[62, 100]),
   midi.NoteOffEvent(tick=60, channel=1, data=[57, 0]),
   midi.NoteOffEvent(tick=0, channel=1, data=[62, 64]),
   midi.NoteOnEvent(tick=60, channel=1, data=[57, 100]),
   midi.NoteOnEvent(tick=0, channel=1, data=[62, 100]),
   midi.NoteOffEvent(tick=60, channel=1, data=[57, 0]),
   midi.NoteOffEvent(tick=0, channel=1, data=[62, 64]),
   midi.NoteOnEvent(tick=0, channel=1, data=[57, 100]),
   midi.NoteOnEvent(tick=0, channel=1, data=[62, 100]),
   midi.NoteOffEvent(tick=60, channel=1, data=[57, 64]),
   midi.NoteOffEvent(tick=0, channel=1, data=[62, 64]),
   midi.NoteOnEvent(tick=0, channel=1, data=[57, 100]),
   midi.NoteOnEvent(tick=0, channel=1, data=[62, 100]),
   midi.NoteOffEvent(tick=60, channel=1, data=[57, 64]),
   midi.NoteOffEvent(tick=0, channel=1, data=[62, 64]),
   midi.NoteOnEvent(tick=60, channel=1, data=[57, 100]),
   midi.NoteOnEvent(tick=0, channel=1, data=[62, 100]),
   midi.NoteOffEvent(tick=120, channel=1, data=[57, 64]),
   midi.NoteOffEvent(tick=0, channel=1, data=[62, 64]),
   midi.NoteOnEvent(tick=0, channel=1, data=[57, 100]),
   midi.NoteOnEvent(tick=0, channel=1, data=[62, 100]),
   midi.NoteOffEvent(tick=60, channel=1, data=[57, 64]),
   midi.NoteOffEvent(tick=0, channel=1, data=[62, 0]),
   midi.NoteOnEvent(tick=60, channel=1, data=[57, 100]),
   midi.NoteOnEvent(tick=0, channel=1, data=[62, 100]),
   midi.NoteOffEvent(tick=60, channel=1, data=[57, 64]),
   midi.NoteOffEvent(tick=0, channel=1, data=[62, 0]),
   midi.NoteOnEvent(tick=0, channel=1, data=[57, 100]),
   midi.NoteOnEvent(tick=0, channel=1, data=[62, 100]),
   midi.NoteOffEvent(tick=60, channel=1, data=[57, 64]),
   midi.NoteOffEvent(tick=0, channel=1, data=[62, 64]),
   midi.NoteOnEvent(tick=0, channel=1, data=[58, 100]),
   midi.NoteOnEvent(tick=0, channel=1, data=[63, 100]),
   midi.NoteOffEvent(tick=120, channel=1, data=[58, 0]),
   midi.NoteOffEvent(tick=0, channel=1, data=[63, 64]),
   midi.NoteOnEvent(tick=0, channel=1, data=[57, 100]),
   midi.NoteOnEvent(tick=0, channel=1, data=[62, 100]),
   midi.NoteOffEvent(tick=120, channel=1, data=[57, 64]),
   midi.NoteOffEvent(tick=0, channel=1, data=[62, 64]),
   midi.NoteOnEvent(tick=0, channel=1, data=[62, 100]),
   midi.NoteOnEvent(tick=0, channel=1, data=[57, 100]),
   midi.NoteOffEvent(tick=60, channel=1, data=[62, 64]),
   midi.NoteOffEvent(tick=0, channel=1, data=[57, 0]),
   midi.NoteOnEvent(tick=60, channel=1, data=[62, 100]),
   midi.NoteOnEvent(tick=0, channel=1, data=[57, 100]),
   midi.NoteOffEvent(tick=60, channel=1, data=[62, 64]),
   midi.NoteOffEvent(tick=0, channel=1, data=[57, 0]),
   midi.NoteOnEvent(tick=0, channel=1, data=[62, 100]),
   midi.NoteOnEvent(tick=0, channel=1, data=[57, 100]),
   midi.NoteOffEvent(tick=60, channel=1, data=[62, 64]),
   midi.NoteOffEvent(tick=0, channel=1, data=[57, 64]),
   midi.NoteOnEvent(tick=0, channel=1, data=[62, 100]),
   midi.NoteOnEvent(tick=0, channel=1, data=[57, 100]),
   midi.NoteOffEvent(tick=60, channel=1, data=[62, 64]),
   midi.NoteOffEvent(tick=0, channel=1, data=[57, 64]),
   midi.NoteOnEvent(tick=60, channel=1, data=[62, 100]),
   midi.NoteOnEvent(tick=0, channel=1, data=[57, 100]),
   midi.NoteOffEvent(tick=120, channel=1, data=[62, 64]),
   midi.NoteOffEvent(tick=0, channel=1, data=[57, 64]),
   midi.NoteOnEvent(tick=0, channel=1, data=[62, 100]),
   midi.NoteOnEvent(tick=0, channel=1, data=[57, 100]),
   midi.NoteOffEvent(tick=60, channel=1, data=[62, 0]),
   midi.NoteOffEvent(tick=0, channel=1, data=[57, 64]),
   midi.NoteOnEvent(tick=60, channel=1, data=[62, 100]),
   midi.NoteOnEvent(tick=0, channel=1, data=[57, 100]),
   midi.NoteOffEvent(tick=60, channel=1, data=[62, 0]),
   midi.NoteOffEvent(tick=0, channel=1, data=[57, 64]),
   midi.NoteOnEvent(tick=0, channel=1, data=[62, 100]),
   midi.NoteOnEvent(tick=0, channel=1, data=[57, 100]),
   midi.NoteOffEvent(tick=60, channel=1, data=[62, 64]),
   midi.NoteOffEvent(tick=0, channel=1, data=[57, 64]),
   midi.NoteOnEvent(tick=0, channel=1, data=[56, 100]),
   midi.NoteOnEvent(tick=0, channel=1, data=[61, 100]),
   midi.NoteOffEvent(tick=120, channel=1, data=[56, 0]),
   midi.NoteOffEvent(tick=0, channel=1, data=[61, 0]),
   midi.NoteOnEvent(tick=0, channel=1, data=[62, 100]),
   midi.NoteOnEvent(tick=0, channel=1, data=[57, 100]),
   midi.NoteOffEvent(tick=120, channel=1, data=[62, 64]),
   midi.NoteOffEvent(tick=0, channel=1, data=[57, 64]),
   midi.NoteOnEvent(tick=0, channel=1, data=[57, 100]),
   midi.NoteOnEvent(tick=0, channel=1, data=[62, 100]),
   midi.NoteOffEvent(tick=60, channel=1, data=[57, 0]),
   midi.NoteOffEvent(tick=0, channel=1, data=[62, 64]),
   midi.NoteOnEvent(tick=60, channel=1, data=[57, 100]),
   midi.NoteOnEvent(tick=0, channel=1, data=[62, 100]),
   midi.NoteOffEvent(tick=60, channel=1, data=[57, 0]),
   midi.NoteOffEvent(tick=0, channel=1, data=[62, 64]),
   midi.NoteOnEvent(tick=0, channel=1, data=[57, 100]),
   midi.NoteOnEvent(tick=0, channel=1, data=[62, 100]),
   midi.NoteOffEvent(tick=60, channel=1, data=[57, 64]),
   midi.NoteOffEvent(tick=0, channel=1, data=[62, 64]),
   midi.NoteOnEvent(tick=0, channel=1, data=[57, 100]),
   midi.NoteOnEvent(tick=0, channel=1, data=[62, 100]),
   midi.NoteOffEvent(tick=60, channel=1, data=[57, 64]),
   midi.NoteOffEvent(tick=0, channel=1, data=[62, 64]),
   midi.NoteOnEvent(tick=60, channel=1, data=[57, 100]),
   midi.NoteOnEvent(tick=0, channel=1, data=[62, 100]),
   midi.NoteOffEvent(tick=120, channel=1, data=[57, 64]),
   midi.NoteOffEvent(tick=0, channel=1, data=[62, 64]),
   midi.NoteOnEvent(tick=0, channel=1, data=[57, 100]),
   midi.NoteOnEvent(tick=0, channel=1, data=[62, 100]),
   midi.NoteOffEvent(tick=60, channel=1, data=[57, 64]),
   midi.NoteOffEvent(tick=0, channel=1, data=[62, 0]),
   midi.NoteOnEvent(tick=60, channel=1, data=[57, 100]),
   midi.NoteOnEvent(tick=0, channel=1, data=[62, 100]),
   midi.NoteOffEvent(tick=60, channel=1, data=[57, 64]),
   midi.NoteOffEvent(tick=0, channel=1, data=[62, 0]),
   midi.NoteOnEvent(tick=0, channel=1, data=[57, 100]),
   midi.NoteOnEvent(tick=0, channel=1, data=[62, 100]),
   midi.NoteOffEvent(tick=60, channel=1, data=[57, 64]),
   midi.NoteOffEvent(tick=0, channel=1, data=[62, 64]),
   midi.NoteOnEvent(tick=0, channel=1, data=[58, 100]),
   midi.NoteOnEvent(tick=0, channel=1, data=[63, 100]),
   midi.NoteOffEvent(tick=120, channel=1, data=[58, 0]),
   midi.NoteOffEvent(tick=0, channel=1, data=[63, 64]),
   midi.NoteOnEvent(tick=0, channel=1, data=[57, 100]),
   midi.NoteOnEvent(tick=0, channel=1, data=[62, 100]),
   midi.NoteOffEvent(tick=120, channel=1, data=[57, 64]),
   midi.NoteOffEvent(tick=0, channel=1, data=[62, 64]),
   midi.NoteOnEvent(tick=0, channel=1, data=[62, 100]),
   midi.NoteOnEvent(tick=0, channel=1, data=[57, 100]),
   midi.NoteOffEvent(tick=60, channel=1, data=[62, 64]),
   midi.NoteOffEvent(tick=0, channel=1, data=[57, 0]),
   midi.NoteOnEvent(tick=60, channel=1, data=[62, 100]),
   midi.NoteOnEvent(tick=0, channel=1, data=[57, 100]),
   midi.NoteOffEvent(tick=60, channel=1, data=[62, 64]),
   midi.NoteOffEvent(tick=0, channel=1, data=[57, 0]),
   midi.NoteOnEvent(tick=0, channel=1, data=[62, 100]),
   midi.NoteOnEvent(tick=0, channel=1, data=[57, 100]),
   midi.NoteOffEvent(tick=60, channel=1, data=[62, 64]),
   midi.NoteOffEvent(tick=0, channel=1, data=[57, 64]),
   midi.NoteOnEvent(tick=0, channel=1, data=[62, 100]),
   midi.NoteOnEvent(tick=0, channel=1, data=[57, 100]),
   midi.NoteOffEvent(tick=60, channel=1, data=[62, 64]),
   midi.NoteOffEvent(tick=0, channel=1, data=[57, 64]),
   midi.NoteOnEvent(tick=60, channel=1, data=[62, 100]),
   midi.NoteOnEvent(tick=0, channel=1, data=[57, 100]),
   midi.NoteOffEvent(tick=120, channel=1, data=[62, 64]),
   midi.NoteOffEvent(tick=0, channel=1, data=[57, 64]),
   midi.NoteOnEvent(tick=0, channel=1, data=[62, 100]),
   midi.NoteOnEvent(tick=0, channel=1, data=[57, 100]),
   midi.NoteOffEvent(tick=60, channel=1, data=[62, 0]),
   midi.NoteOffEvent(tick=0, channel=1, data=[57, 64]),
   midi.NoteOnEvent(tick=60, channel=1, data=[62, 100]),
   midi.NoteOnEvent(tick=0, channel=1, data=[57, 100]),
   midi.NoteOffEvent(tick=60, channel=1, data=[62, 0]),
   midi.NoteOffEvent(tick=0, channel=1, data=[57, 64]),
   midi.NoteOnEvent(tick=0, channel=1, data=[62, 100]),
   midi.NoteOnEvent(tick=0, channel=1, data=[57, 100]),
   midi.NoteOffEvent(tick=60, channel=1, data=[62, 64]),
   midi.NoteOffEvent(tick=0, channel=1, data=[57, 64]),
   midi.NoteOnEvent(tick=0, channel=1, data=[56, 100]),
   midi.NoteOnEvent(tick=0, channel=1, data=[61, 100]),
   midi.NoteOffEvent(tick=120, channel=1, data=[56, 0]),
   midi.NoteOffEvent(tick=0, channel=1, data=[61, 0]),
   midi.NoteOnEvent(tick=0, channel=1, data=[62, 100]),
   midi.NoteOnEvent(tick=0, channel=1, data=[57, 100]),
   midi.NoteOffEvent(tick=120, channel=1, data=[62, 64]),
   midi.NoteOffEvent(tick=0, channel=1, data=[57, 64]),
   midi.NoteOnEvent(tick=0, channel=1, data=[57, 100]),
   midi.NoteOnEvent(tick=0, channel=1, data=[62, 100]),
   midi.NoteOffEvent(tick=60, channel=1, data=[57, 0]),
   midi.NoteOffEvent(tick=0, channel=1, data=[62, 64]),
   midi.NoteOnEvent(tick=60, channel=1, data=[57, 100]),
   midi.NoteOnEvent(tick=0, channel=1, data=[62, 100]),
   midi.NoteOffEvent(tick=60, channel=1, data=[57, 0]),
   midi.NoteOffEvent(tick=0, channel=1, data=[62, 64]),
   midi.NoteOnEvent(tick=0, channel=1, data=[57, 100]),
   midi.NoteOnEvent(tick=0, channel=1, data=[62, 100]),
   midi.NoteOffEvent(tick=60, channel=1, data=[57, 64]),
   midi.NoteOffEvent(tick=0, channel=1, data=[62, 64]),
   midi.NoteOnEvent(tick=0, channel=1, data=[57, 100]),
   midi.NoteOnEvent(tick=0, channel=1, data=[62, 100]),
   midi.NoteOffEvent(tick=60, channel=1, data=[57, 64]),
   midi.NoteOffEvent(tick=0, channel=1, data=[62, 64]),
   midi.NoteOnEvent(tick=60, channel=1, data=[57, 100]),
   midi.NoteOnEvent(tick=0, channel=1, data=[62, 100]),
   midi.NoteOffEvent(tick=120, channel=1, data=[57, 64]),
   midi.NoteOffEvent(tick=0, channel=1, data=[62, 64]),
   midi.NoteOnEvent(tick=0, channel=1, data=[57, 100]),
   midi.NoteOnEvent(tick=0, channel=1, data=[62, 100]),
   midi.NoteOffEvent(tick=60, channel=1, data=[57, 64]),
   midi.NoteOffEvent(tick=0, channel=1, data=[62, 0]),
   midi.NoteOnEvent(tick=60, channel=1, data=[57, 100]),
   midi.NoteOnEvent(tick=0, channel=1, data=[62, 100]),
   midi.NoteOffEvent(tick=60, channel=1, data=[57, 64]),
   midi.NoteOffEvent(tick=0, channel=1, data=[62, 0]),
   midi.NoteOnEvent(tick=0, channel=1, data=[57, 100]),
   midi.NoteOnEvent(tick=0, channel=1, data=[62, 100]),
   midi.NoteOffEvent(tick=60, channel=1, data=[57, 64]),
   midi.NoteOffEvent(tick=0, channel=1, data=[62, 64]),
   midi.NoteOnEvent(tick=0, channel=1, data=[58, 100]),
   midi.NoteOnEvent(tick=0, channel=1, data=[63, 100]),
   midi.NoteOffEvent(tick=120, channel=1, data=[58, 0]),
   midi.NoteOffEvent(tick=0, channel=1, data=[63, 64]),
   midi.NoteOnEvent(tick=0, channel=1, data=[57, 100]),
   midi.NoteOnEvent(tick=0, channel=1, data=[62, 100]),
   midi.NoteOffEvent(tick=120, channel=1, data=[57, 64]),
   midi.NoteOffEvent(tick=0, channel=1, data=[62, 64]),
   midi.NoteOnEvent(tick=0, channel=1, data=[62, 100]),
   midi.NoteOnEvent(tick=0, channel=1, data=[57, 100]),
   midi.NoteOffEvent(tick=60, channel=1, data=[62, 64]),
   midi.NoteOffEvent(tick=0, channel=1, data=[57, 0]),
   midi.NoteOnEvent(tick=60, channel=1, data=[62, 100]),
   midi.NoteOnEvent(tick=0, channel=1, data=[57, 100]),
   midi.NoteOffEvent(tick=60, channel=1, data=[62, 64]),
   midi.NoteOffEvent(tick=0, channel=1, data=[57, 0]),
   midi.NoteOnEvent(tick=0, channel=1, data=[62, 100]),
   midi.NoteOnEvent(tick=0, channel=1, data=[57, 100]),
   midi.NoteOffEvent(tick=60, channel=1, data=[62, 64]),
   midi.NoteOffEvent(tick=0, channel=1, data=[57, 64]),
   midi.NoteOnEvent(tick=0, channel=1, data=[62, 100]),
   midi.NoteOnEvent(tick=0, channel=1, data=[57, 100]),
   midi.NoteOffEvent(tick=60, channel=1, data=[62, 64]),
   midi.NoteOffEvent(tick=0, channel=1, data=[57, 64]),
   midi.NoteOnEvent(tick=60, channel=1, data=[62, 100]),
   midi.NoteOnEvent(tick=0, channel=1, data=[57, 100]),
   midi.NoteOffEvent(tick=120, channel=1, data=[62, 64]),
   midi.NoteOffEvent(tick=0, channel=1, data=[57, 64]),
   midi.NoteOnEvent(tick=0, channel=1, data=[62, 100]),
   midi.NoteOnEvent(tick=0, channel=1, data=[57, 100]),
   midi.NoteOffEvent(tick=60, channel=1, data=[62, 0]),
   midi.NoteOffEvent(tick=0, channel=1, data=[57, 64]),
   midi.NoteOnEvent(tick=60, channel=1, data=[62, 100]),
   midi.NoteOnEvent(tick=0, channel=1, data=[57, 100]),
   midi.NoteOffEvent(tick=60, channel=1, data=[62, 0]),
   midi.NoteOffEvent(tick=0, channel=1, data=[57, 64]),
   midi.NoteOnEvent(tick=0, channel=1, data=[62, 100]),
   midi.NoteOnEvent(tick=0, channel=1, data=[57, 100]),
   midi.NoteOffEvent(tick=60, channel=1, data=[62, 64]),
   midi.NoteOffEvent(tick=0, channel=1, data=[57, 64]),
   midi.NoteOnEvent(tick=0, channel=1, data=[56, 100]),
   midi.NoteOnEvent(tick=0, channel=1, data=[61, 100]),
   midi.NoteOffEvent(tick=120, channel=1, data=[56, 0]),
   midi.NoteOffEvent(tick=0, channel=1, data=[61, 0]),
   midi.NoteOnEvent(tick=0, channel=1, data=[57, 100]),
   midi.NoteOnEvent(tick=0, channel=1, data=[62, 100]),
   midi.NoteOffEvent(tick=480, channel=1, data=[57, 64]),
   midi.NoteOffEvent(tick=0, channel=1, data=[62, 64]),
   midi.NoteOnEvent(tick=0, channel=1, data=[56, 100]),
   midi.NoteOnEvent(tick=0, channel=1, data=[61, 100]),
   midi.NoteOffEvent(tick=360, channel=1, data=[56, 64]),
   midi.NoteOffEvent(tick=0, channel=1, data=[61, 64]),
   midi.NoteOnEvent(tick=0, channel=1, data=[60, 100]),
   midi.NoteOnEvent(tick=0, channel=1, data=[55, 100]),
   midi.NoteOffEvent(tick=840, channel=1, data=[60, 64]),
   midi.NoteOffEvent(tick=0, channel=1, data=[55, 64]),
   midi.NoteOnEvent(tick=0, channel=1, data=[54, 100]),
   midi.NoteOnEvent(tick=0, channel=1, data=[59, 100]),
   midi.NoteOffEvent(tick=240, channel=1, data=[54, 64]),
   midi.NoteOffEvent(tick=0, channel=1, data=[59, 64]),
   midi.NoteOnEvent(tick=0, channel=1, data=[62, 100]),
   midi.NoteOnEvent(tick=0, channel=1, data=[57, 100]),
   midi.NoteOffEvent(tick=480, channel=1, data=[62, 64]),
   midi.NoteOffEvent(tick=0, channel=1, data=[57, 64]),
   midi.NoteOnEvent(tick=0, channel=1, data=[61, 100]),
   midi.NoteOnEvent(tick=0, channel=1, data=[56, 100]),
   midi.NoteOffEvent(tick=360, channel=1, data=[61, 64]),
   midi.NoteOffEvent(tick=0, channel=1, data=[56, 64]),
   midi.NoteOnEvent(tick=0, channel=1, data=[55, 100]),
   midi.NoteOnEvent(tick=0, channel=1, data=[60, 100]),
   midi.NoteOffEvent(tick=840, channel=1, data=[55, 64]),
   midi.NoteOffEvent(tick=0, channel=1, data=[60, 64]),
   midi.NoteOnEvent(tick=240, channel=1, data=[62, 100]),
   midi.NoteOnEvent(tick=0, channel=1, data=[57, 100]),
   midi.NoteOffEvent(tick=480, channel=1, data=[62, 64]),
   midi.NoteOffEvent(tick=0, channel=1, data=[57, 64]),
   midi.NoteOnEvent(tick=0, channel=1, data=[61, 100]),
   midi.NoteOnEvent(tick=0, channel=1, data=[56, 100]),
   midi.NoteOffEvent(tick=360, channel=1, data=[61, 64]),
   midi.NoteOffEvent(tick=0, channel=1, data=[56, 64]),
   midi.NoteOnEvent(tick=0, channel=1, data=[55, 100]),
   midi.NoteOnEvent(tick=0, channel=1, data=[60, 100]),
   midi.NoteOffEvent(tick=840, channel=1, data=[55, 64]),
   midi.NoteOffEvent(tick=0, channel=1, data=[60, 64]),
   midi.NoteOnEvent(tick=0, channel=1, data=[59, 100]),
   midi.NoteOnEvent(tick=0, channel=1, data=[54, 100]),
   midi.NoteOffEvent(tick=240, channel=1, data=[59, 64]),
   midi.NoteOffEvent(tick=0, channel=1, data=[54, 64]),
   midi.NoteOnEvent(tick=0, channel=1, data=[62, 100]),
   midi.NoteOnEvent(tick=0, channel=1, data=[57, 100]),
   midi.NoteOffEvent(tick=480, channel=1, data=[62, 64]),
   midi.NoteOffEvent(tick=0, channel=1, data=[57, 64]),
   midi.NoteOnEvent(tick=0, channel=1, data=[61, 100]),
   midi.NoteOnEvent(tick=0, channel=1, data=[56, 100]),
   midi.NoteOffEvent(tick=360, channel=1, data=[61, 64]),
   midi.NoteOffEvent(tick=0, channel=1, data=[56, 64]),
   midi.NoteOnEvent(tick=0, channel=1, data=[55, 100]),
   midi.NoteOnEvent(tick=0, channel=1, data=[60, 100]),
   midi.NoteOffEvent(tick=840, channel=1, data=[55, 64]),
   midi.NoteOffEvent(tick=0, channel=1, data=[60, 64]),
   midi.NoteOnEvent(tick=240, channel=1, data=[57, 100]),
   midi.NoteOnEvent(tick=0, channel=1, data=[62, 100]),
   midi.NoteOffEvent(tick=480, channel=1, data=[57, 64]),
   midi.NoteOffEvent(tick=0, channel=1, data=[62, 64]),
   midi.NoteOnEvent(tick=0, channel=1, data=[56, 100]),
   midi.NoteOnEvent(tick=0, channel=1, data=[61, 100]),
   midi.NoteOffEvent(tick=360, channel=1, data=[56, 64]),
   midi.NoteOffEvent(tick=0, channel=1, data=[61, 64]),
   midi.NoteOnEvent(tick=0, channel=1, data=[60, 100]),
   midi.NoteOnEvent(tick=0, channel=1, data=[55, 100]),
   midi.NoteOffEvent(tick=840, channel=1, data=[60, 64]),
   midi.NoteOffEvent(tick=0, channel=1, data=[55, 64]),
   midi.NoteOnEvent(tick=0, channel=1, data=[54, 100]),
   midi.NoteOnEvent(tick=0, channel=1, data=[59, 100]),
   midi.NoteOffEvent(tick=240, channel=1, data=[54, 64]),
   midi.NoteOffEvent(tick=0, channel=1, data=[59, 64]),
   midi.NoteOnEvent(tick=0, channel=1, data=[62, 100]),
   midi.NoteOnEvent(tick=0, channel=1, data=[57, 100]),
   midi.NoteOffEvent(tick=480, channel=1, data=[62, 64]),
   midi.NoteOffEvent(tick=0, channel=1, data=[57, 64]),
   midi.NoteOnEvent(tick=0, channel=1, data=[61, 100]),
   midi.NoteOnEvent(tick=0, channel=1, data=[56, 100]),
   midi.NoteOffEvent(tick=360, channel=1, data=[61, 64]),
   midi.NoteOffEvent(tick=0, channel=1, data=[56, 64]),
   midi.NoteOnEvent(tick=0, channel=1, data=[55, 100]),
   midi.NoteOnEvent(tick=0, channel=1, data=[60, 100]),
   midi.NoteOffEvent(tick=840, channel=1, data=[55, 64]),
   midi.NoteOffEvent(tick=0, channel=1, data=[60, 64]),
   midi.NoteOnEvent(tick=240, channel=1, data=[62, 100]),
   midi.NoteOnEvent(tick=0, channel=1, data=[57, 100]),
   midi.NoteOffEvent(tick=480, channel=1, data=[62, 64]),
   midi.NoteOffEvent(tick=0, channel=1, data=[57, 64]),
   midi.NoteOnEvent(tick=0, channel=1, data=[61, 100]),
   midi.NoteOnEvent(tick=0, channel=1, data=[56, 100]),
   midi.NoteOffEvent(tick=360, channel=1, data=[61, 64]),
   midi.NoteOffEvent(tick=0, channel=1, data=[56, 64]),
   midi.NoteOnEvent(tick=0, channel=1, data=[55, 100]),
   midi.NoteOnEvent(tick=0, channel=1, data=[60, 100]),
   midi.NoteOffEvent(tick=840, channel=1, data=[55, 64]),
   midi.NoteOffEvent(tick=0, channel=1, data=[60, 64]),
   midi.NoteOnEvent(tick=0, channel=1, data=[59, 100]),
   midi.NoteOnEvent(tick=0, channel=1, data=[54, 100]),
   midi.NoteOffEvent(tick=240, channel=1, data=[59, 64]),
   midi.NoteOffEvent(tick=0, channel=1, data=[54, 64]),
   midi.NoteOnEvent(tick=0, channel=1, data=[62, 100]),
   midi.NoteOnEvent(tick=0, channel=1, data=[57, 100]),
   midi.NoteOffEvent(tick=480, channel=1, data=[62, 64]),
   midi.NoteOffEvent(tick=0, channel=1, data=[57, 64]),
   midi.NoteOnEvent(tick=0, channel=1, data=[61, 100]),
   midi.NoteOnEvent(tick=0, channel=1, data=[56, 100]),
   midi.NoteOffEvent(tick=360, channel=1, data=[61, 64]),
   midi.NoteOffEvent(tick=0, channel=1, data=[56, 64]),
   midi.NoteOnEvent(tick=0, channel=1, data=[55, 100]),
   midi.NoteOnEvent(tick=0, channel=1, data=[60, 100]),
   midi.NoteOffEvent(tick=840, channel=1, data=[55, 64]),
   midi.NoteOffEvent(tick=0, channel=1, data=[60, 64]),
   midi.EndOfTrackEvent(tick=0, data=[])]),
 midi.Track(\
  [midi.TrackNameEvent(tick=0, text='sequenced by:', data=[115, 101, 113, 117, 101, 110, 99, 101, 100, 32, 98, 121, 58]),
   midi.ProgramChangeEvent(tick=0, channel=3, data=[34]),
   midi.NoteOnEvent(tick=4830, channel=3, data=[38, 100]),
   midi.NoteOnEvent(tick=75, channel=3, data=[50, 100]),
   midi.NoteOnEvent(tick=18, channel=3, data=[38, 0]),
   midi.NoteOnEvent(tick=118, channel=3, data=[38, 100]),
   midi.NoteOnEvent(tick=4, channel=3, data=[50, 0]),
   midi.NoteOnEvent(tick=64, channel=3, data=[50, 100]),
   midi.NoteOnEvent(tick=12, channel=3, data=[38, 0]),
   midi.NoteOnEvent(tick=61, channel=3, data=[38, 100]),
   midi.NoteOnEvent(tick=10, channel=3, data=[50, 0]),
   midi.NoteOnEvent(tick=103, channel=3, data=[50, 100]),
   midi.NoteOnEvent(tick=4, channel=3, data=[38, 0]),
   midi.NoteOnEvent(tick=108, channel=3, data=[38, 100]),
   midi.NoteOnEvent(tick=2, channel=3, data=[50, 0]),
   midi.NoteOnEvent(tick=61, channel=3, data=[50, 100]),
   midi.NoteOnEvent(tick=20, channel=3, data=[38, 0]),
   midi.NoteOnEvent(tick=95, channel=3, data=[50, 0]),
   midi.NoteOnEvent(tick=2, channel=3, data=[38, 100]),
   midi.NoteOnEvent(tick=50, channel=3, data=[50, 100]),
   midi.NoteOnEvent(tick=21, channel=3, data=[38, 0]),
   midi.NoteOnEvent(tick=84, channel=3, data=[38, 100]),
   midi.NoteOnEvent(tick=20, channel=3, data=[50, 0]),
   midi.NoteOnEvent(tick=102, channel=3, data=[50, 100]),
   midi.NoteOnEvent(tick=7, channel=3, data=[38, 0]),
   midi.NoteOnEvent(tick=120, channel=3, data=[38, 100]),
   midi.NoteOnEvent(tick=2, channel=3, data=[50, 0]),
   midi.NoteOnEvent(tick=55, channel=3, data=[50, 100]),
   midi.NoteOnEvent(tick=24, channel=3, data=[38, 0]),
   midi.NoteOnEvent(tick=50, channel=3, data=[38, 100]),
   midi.NoteOnEvent(tick=7, channel=3, data=[50, 0]),
   midi.NoteOnEvent(tick=93, channel=3, data=[50, 100]),
   midi.NoteOnEvent(tick=15, channel=3, data=[38, 0]),
   midi.NoteOnEvent(tick=118, channel=3, data=[50, 0]),
   midi.NoteOnEvent(tick=4, channel=3, data=[38, 100]),
   midi.NoteOnEvent(tick=49, channel=3, data=[50, 100]),
   midi.NoteOnEvent(tick=25, channel=3, data=[38, 0]),
   midi.NoteOnEvent(tick=110, channel=3, data=[38, 100]),
   midi.NoteOnEvent(tick=3, channel=3, data=[50, 0]),
   midi.NoteOnEvent(tick=50, channel=3, data=[50, 100]),
   midi.NoteOnEvent(tick=22, channel=3, data=[38, 0]),
   midi.NoteOnEvent(tick=114, channel=3, data=[38, 100]),
   midi.NoteOnEvent(tick=9, channel=3, data=[50, 0]),
   midi.NoteOnEvent(tick=103, channel=3, data=[50, 100]),
   midi.NoteOnEvent(tick=7, channel=3, data=[38, 0]),
   midi.NoteOnEvent(tick=117, channel=3, data=[38, 100]),
   midi.NoteOnEvent(tick=1, channel=3, data=[50, 0]),
   midi.NoteOnEvent(tick=65, channel=3, data=[50, 100]),
   midi.NoteOnEvent(tick=13, channel=3, data=[38, 0]),
   midi.NoteOnEvent(tick=59, channel=3, data=[38, 100]),
   midi.NoteOnEvent(tick=9, channel=3, data=[50, 0]),
   midi.NoteOnEvent(tick=106, channel=3, data=[50, 100]),
   midi.NoteOnEvent(tick=11, channel=3, data=[38, 0]),
   midi.NoteOnEvent(tick=98, channel=3, data=[50, 0]),
   midi.NoteOnEvent(tick=0, channel=3, data=[38, 100]),
   midi.NoteOnEvent(tick=60, channel=3, data=[50, 100]),
   midi.NoteOnEvent(tick=27, channel=3, data=[38, 0]),
   midi.NoteOnEvent(tick=85, channel=3, data=[38, 100]),
   midi.NoteOnEvent(tick=8, channel=3, data=[50, 0]),
   midi.NoteOnEvent(tick=51, channel=3, data=[50, 100]),
   midi.NoteOnEvent(tick=26, channel=3, data=[38, 0]),
   midi.NoteOnEvent(tick=94, channel=3, data=[38, 100]),
   midi.NoteOnEvent(tick=14, channel=3, data=[50, 0]),
   midi.NoteOnEvent(tick=99, channel=3, data=[50, 100]),
   midi.NoteOnEvent(tick=7, channel=3, data=[38, 0]),
   midi.NoteOnEvent(tick=120, channel=3, data=[50, 0]),
   midi.NoteOnEvent(tick=1, channel=3, data=[38, 100]),
   midi.NoteOnEvent(tick=54, channel=3, data=[50, 100]),
   midi.NoteOnEvent(tick=14, channel=3, data=[38, 0]),
   midi.NoteOnEvent(tick=86, channel=3, data=[38, 100]),
   midi.NoteOnEvent(tick=14, channel=3, data=[50, 0]),
   midi.NoteOnEvent(tick=86, channel=3, data=[50, 100]),
   midi.NoteOnEvent(tick=15, channel=3, data=[38, 0]),
   midi.NoteOnEvent(tick=104, channel=3, data=[38, 100]),
   midi.NoteOnEvent(tick=2, channel=3, data=[50, 0]),
   midi.NoteOnEvent(tick=42, channel=3, data=[50, 100]),
   midi.NoteOnEvent(tick=27, channel=3, data=[38, 0]),
   midi.NoteOnEvent(tick=101, channel=3, data=[38, 100]),
   midi.NoteOnEvent(tick=6, channel=3, data=[50, 0]),
   midi.NoteOnEvent(tick=51, channel=3, data=[50, 100]),
   midi.NoteOnEvent(tick=22, channel=3, data=[38, 0]),
   midi.NoteOnEvent(tick=105, channel=3, data=[38, 100]),
   midi.NoteOnEvent(tick=10, channel=3, data=[50, 0]),
   midi.NoteOnEvent(tick=96, channel=3, data=[50, 100]),
   midi.NoteOnEvent(tick=8, channel=3, data=[38, 0]),
   midi.NoteOnEvent(tick=108, channel=3, data=[38, 100]),
   midi.NoteOnEvent(tick=2, channel=3, data=[50, 0]),
   midi.NoteOnEvent(tick=50, channel=3, data=[50, 100]),
   midi.NoteOnEvent(tick=9, channel=3, data=[38, 0]),
   midi.NoteOnEvent(tick=64, channel=3, data=[38, 100]),
   midi.NoteOnEvent(tick=17, channel=3, data=[50, 0]),
   midi.NoteOnEvent(tick=112, channel=3, data=[50, 100]),
   midi.NoteOnEvent(tick=16, channel=3, data=[38, 0]),
   midi.NoteOnEvent(tick=107, channel=3, data=[38, 100]),
   midi.NoteOnEvent(tick=1, channel=3, data=[50, 0]),
   midi.NoteOnEvent(tick=57, channel=3, data=[50, 100]),
   midi.NoteOnEvent(tick=32, channel=3, data=[38, 0]),
   midi.NoteOnEvent(tick=92, channel=3, data=[38, 100]),
   midi.NoteOnEvent(tick=8, channel=3, data=[50, 0]),
   midi.NoteOnEvent(tick=53, channel=3, data=[50, 100]),
   midi.NoteOnEvent(tick=17, channel=3, data=[38, 0]),
   midi.NoteOnEvent(tick=99, channel=3, data=[38, 100]),
   midi.NoteOnEvent(tick=10, channel=3, data=[50, 0]),
   midi.NoteOnEvent(tick=104, channel=3, data=[50, 100]),
   midi.NoteOnEvent(tick=9, channel=3, data=[38, 0]),
   midi.NoteOnEvent(tick=107, channel=3, data=[50, 0]),
   midi.NoteOnEvent(tick=1, channel=3, data=[38, 100]),
   midi.NoteOnEvent(tick=59, channel=3, data=[50, 100]),
   midi.NoteOnEvent(tick=19, channel=3, data=[38, 0]),
   midi.NoteOnEvent(tick=57, channel=3, data=[38, 100]),
   midi.NoteOnEvent(tick=20, channel=3, data=[50, 0]),
   midi.NoteOnEvent(tick=92, channel=3, data=[50, 100]),
   midi.NoteOnEvent(tick=10, channel=3, data=[38, 0]),
   midi.NoteOnEvent(tick=105, channel=3, data=[38, 100]),
   midi.NoteOnEvent(tick=3, channel=3, data=[50, 0]),
   midi.NoteOnEvent(tick=61, channel=3, data=[50, 100]),
   midi.NoteOnEvent(tick=10, channel=3, data=[38, 0]),
   midi.NoteOnEvent(tick=107, channel=3, data=[38, 100]),
   midi.NoteOnEvent(tick=1, channel=3, data=[50, 0]),
   midi.NoteOnEvent(tick=49, channel=3, data=[50, 100]),
   midi.NoteOnEvent(tick=25, channel=3, data=[38, 0]),
   midi.NoteOnEvent(tick=96, channel=3, data=[38, 100]),
   midi.NoteOnEvent(tick=15, channel=3, data=[50, 0]),
   midi.NoteOnEvent(tick=109, channel=3, data=[50, 100]),
   midi.NoteOnEvent(tick=8, channel=3, data=[38, 0]),
   midi.NoteOnEvent(tick=101, channel=3, data=[50, 0]),
   midi.NoteOnEvent(tick=8, channel=3, data=[38, 100]),
   midi.NoteOnEvent(tick=52, channel=3, data=[50, 100]),
   midi.NoteOnEvent(tick=19, channel=3, data=[38, 0]),
   midi.NoteOnEvent(tick=75, channel=3, data=[38, 100]),
   midi.NoteOnEvent(tick=11, channel=3, data=[50, 0]),
   midi.NoteOnEvent(tick=93, channel=3, data=[50, 100]),
   midi.NoteOnEvent(tick=18, channel=3, data=[38, 0]),
   midi.NoteOnEvent(tick=103, channel=3, data=[38, 100]),
   midi.NoteOnEvent(tick=1, channel=3, data=[50, 0]),
   midi.NoteOnEvent(tick=56, channel=3, data=[50, 100]),
   midi.NoteOnEvent(tick=31, channel=3, data=[38, 0]),
   midi.NoteOnEvent(tick=88, channel=3, data=[38, 100]),
   midi.NoteOnEvent(tick=4, channel=3, data=[50, 0]),
   midi.NoteOnEvent(tick=55, channel=3, data=[50, 100]),
   midi.NoteOnEvent(tick=24, channel=3, data=[38, 0]),
   midi.NoteOnEvent(tick=92, channel=3, data=[38, 100]),
   midi.NoteOnEvent(tick=9, channel=3, data=[50, 0]),
   midi.NoteOnEvent(tick=109, channel=3, data=[50, 100]),
   midi.NoteOnEvent(tick=19, channel=3, data=[38, 0]),
   midi.NoteOnEvent(tick=114, channel=3, data=[50, 0]),
   midi.NoteOnEvent(tick=0, channel=3, data=[38, 100]),
   midi.NoteOnEvent(tick=59, channel=3, data=[50, 100]),
   midi.NoteOnEvent(tick=27, channel=3, data=[38, 0]),
   midi.NoteOnEvent(tick=71, channel=3, data=[38, 100]),
   midi.NoteOnEvent(tick=3, channel=3, data=[50, 0]),
   midi.NoteOnEvent(tick=81, channel=3, data=[50, 100]),
   midi.NoteOnEvent(tick=44, channel=3, data=[38, 0]),
   midi.NoteOnEvent(tick=82, channel=3, data=[38, 100]),
   midi.NoteOnEvent(tick=2, channel=3, data=[50, 0]),
   midi.NoteOnEvent(tick=58, channel=3, data=[50, 100]),
   midi.NoteOnEvent(tick=31, channel=3, data=[38, 0]),
   midi.NoteOnEvent(tick=80, channel=3, data=[38, 100]),
   midi.NoteOnEvent(tick=5, channel=3, data=[50, 0]),
   midi.NoteOnEvent(tick=61, channel=3, data=[50, 100]),
   midi.NoteOnEvent(tick=40, channel=3, data=[38, 0]),
   midi.NoteOnEvent(tick=42, channel=3, data=[50, 0]),
   midi.NoteOnEvent(tick=20, channel=3, data=[38, 100]),
   midi.NoteOnEvent(tick=1694, channel=3, data=[38, 0]),
   midi.NoteOnEvent(tick=26182, channel=3, data=[38, 100]),
   midi.NoteOnEvent(tick=75, channel=3, data=[50, 100]),
   midi.NoteOnEvent(tick=18, channel=3, data=[38, 0]),
   midi.NoteOnEvent(tick=118, channel=3, data=[38, 100]),
   midi.NoteOnEvent(tick=4, channel=3, data=[50, 0]),
   midi.NoteOnEvent(tick=64, channel=3, data=[50, 100]),
   midi.NoteOnEvent(tick=12, channel=3, data=[38, 0]),
   midi.NoteOnEvent(tick=61, channel=3, data=[38, 100]),
   midi.NoteOnEvent(tick=10, channel=3, data=[50, 0]),
   midi.NoteOnEvent(tick=103, channel=3, data=[50, 100]),
   midi.NoteOnEvent(tick=4, channel=3, data=[38, 0]),
   midi.NoteOnEvent(tick=108, channel=3, data=[38, 100]),
   midi.NoteOnEvent(tick=2, channel=3, data=[50, 0]),
   midi.NoteOnEvent(tick=61, channel=3, data=[50, 100]),
   midi.NoteOnEvent(tick=20, channel=3, data=[38, 0]),
   midi.NoteOnEvent(tick=95, channel=3, data=[50, 0]),
   midi.NoteOnEvent(tick=2, channel=3, data=[38, 100]),
   midi.NoteOnEvent(tick=50, channel=3, data=[50, 100]),
   midi.NoteOnEvent(tick=21, channel=3, data=[38, 0]),
   midi.NoteOnEvent(tick=84, channel=3, data=[38, 100]),
   midi.NoteOnEvent(tick=20, channel=3, data=[50, 0]),
   midi.NoteOnEvent(tick=102, channel=3, data=[50, 100]),
   midi.NoteOnEvent(tick=7, channel=3, data=[38, 0]),
   midi.NoteOnEvent(tick=120, channel=3, data=[38, 100]),
   midi.NoteOnEvent(tick=2, channel=3, data=[50, 0]),
   midi.NoteOnEvent(tick=55, channel=3, data=[50, 100]),
   midi.NoteOnEvent(tick=24, channel=3, data=[38, 0]),
   midi.NoteOnEvent(tick=50, channel=3, data=[38, 100]),
   midi.NoteOnEvent(tick=7, channel=3, data=[50, 0]),
   midi.NoteOnEvent(tick=93, channel=3, data=[50, 100]),
   midi.NoteOnEvent(tick=15, channel=3, data=[38, 0]),
   midi.NoteOnEvent(tick=118, channel=3, data=[50, 0]),
   midi.NoteOnEvent(tick=4, channel=3, data=[38, 100]),
   midi.NoteOnEvent(tick=49, channel=3, data=[50, 100]),
   midi.NoteOnEvent(tick=25, channel=3, data=[38, 0]),
   midi.NoteOnEvent(tick=110, channel=3, data=[38, 100]),
   midi.NoteOnEvent(tick=3, channel=3, data=[50, 0]),
   midi.NoteOnEvent(tick=50, channel=3, data=[50, 100]),
   midi.NoteOnEvent(tick=22, channel=3, data=[38, 0]),
   midi.NoteOnEvent(tick=114, channel=3, data=[38, 100]),
   midi.NoteOnEvent(tick=9, channel=3, data=[50, 0]),
   midi.NoteOnEvent(tick=103, channel=3, data=[50, 100]),
   midi.NoteOnEvent(tick=7, channel=3, data=[38, 0]),
   midi.NoteOnEvent(tick=117, channel=3, data=[38, 100]),
   midi.NoteOnEvent(tick=1, channel=3, data=[50, 0]),
   midi.NoteOnEvent(tick=65, channel=3, data=[50, 100]),
   midi.NoteOnEvent(tick=13, channel=3, data=[38, 0]),
   midi.NoteOnEvent(tick=59, channel=3, data=[38, 100]),
   midi.NoteOnEvent(tick=9, channel=3, data=[50, 0]),
   midi.NoteOnEvent(tick=106, channel=3, data=[50, 100]),
   midi.NoteOnEvent(tick=11, channel=3, data=[38, 0]),
   midi.NoteOnEvent(tick=98, channel=3, data=[50, 0]),
   midi.NoteOnEvent(tick=0, channel=3, data=[38, 100]),
   midi.NoteOnEvent(tick=60, channel=3, data=[50, 100]),
   midi.NoteOnEvent(tick=27, channel=3, data=[38, 0]),
   midi.NoteOnEvent(tick=85, channel=3, data=[38, 100]),
   midi.NoteOnEvent(tick=8, channel=3, data=[50, 0]),
   midi.NoteOnEvent(tick=51, channel=3, data=[50, 100]),
   midi.NoteOnEvent(tick=26, channel=3, data=[38, 0]),
   midi.NoteOnEvent(tick=94, channel=3, data=[38, 100]),
   midi.NoteOnEvent(tick=14, channel=3, data=[50, 0]),
   midi.NoteOnEvent(tick=99, channel=3, data=[50, 100]),
   midi.NoteOnEvent(tick=7, channel=3, data=[38, 0]),
   midi.NoteOnEvent(tick=120, channel=3, data=[50, 0]),
   midi.NoteOnEvent(tick=1, channel=3, data=[38, 100]),
   midi.NoteOnEvent(tick=54, channel=3, data=[50, 100]),
   midi.NoteOnEvent(tick=14, channel=3, data=[38, 0]),
   midi.NoteOnEvent(tick=86, channel=3, data=[38, 100]),
   midi.NoteOnEvent(tick=14, channel=3, data=[50, 0]),
   midi.NoteOnEvent(tick=86, channel=3, data=[50, 100]),
   midi.NoteOnEvent(tick=15, channel=3, data=[38, 0]),
   midi.NoteOnEvent(tick=104, channel=3, data=[38, 100]),
   midi.NoteOnEvent(tick=2, channel=3, data=[50, 0]),
   midi.NoteOnEvent(tick=42, channel=3, data=[50, 100]),
   midi.NoteOnEvent(tick=27, channel=3, data=[38, 0]),
   midi.NoteOnEvent(tick=101, channel=3, data=[38, 100]),
   midi.NoteOnEvent(tick=6, channel=3, data=[50, 0]),
   midi.NoteOnEvent(tick=51, channel=3, data=[50, 100]),
   midi.NoteOnEvent(tick=22, channel=3, data=[38, 0]),
   midi.NoteOnEvent(tick=105, channel=3, data=[38, 100]),
   midi.NoteOnEvent(tick=10, channel=3, data=[50, 0]),
   midi.NoteOnEvent(tick=96, channel=3, data=[50, 100]),
   midi.NoteOnEvent(tick=8, channel=3, data=[38, 0]),
   midi.NoteOnEvent(tick=108, channel=3, data=[38, 100]),
   midi.NoteOnEvent(tick=2, channel=3, data=[50, 0]),
   midi.NoteOnEvent(tick=50, channel=3, data=[50, 100]),
   midi.NoteOnEvent(tick=9, channel=3, data=[38, 0]),
   midi.NoteOnEvent(tick=64, channel=3, data=[38, 100]),
   midi.NoteOnEvent(tick=17, channel=3, data=[50, 0]),
   midi.NoteOnEvent(tick=112, channel=3, data=[50, 100]),
   midi.NoteOnEvent(tick=16, channel=3, data=[38, 0]),
   midi.NoteOnEvent(tick=107, channel=3, data=[38, 100]),
   midi.NoteOnEvent(tick=1, channel=3, data=[50, 0]),
   midi.NoteOnEvent(tick=57, channel=3, data=[50, 100]),
   midi.NoteOnEvent(tick=32, channel=3, data=[38, 0]),
   midi.NoteOnEvent(tick=92, channel=3, data=[38, 100]),
   midi.NoteOnEvent(tick=8, channel=3, data=[50, 0]),
   midi.NoteOnEvent(tick=53, channel=3, data=[50, 100]),
   midi.NoteOnEvent(tick=17, channel=3, data=[38, 0]),
   midi.NoteOnEvent(tick=99, channel=3, data=[38, 100]),
   midi.NoteOnEvent(tick=10, channel=3, data=[50, 0]),
   midi.NoteOnEvent(tick=104, channel=3, data=[50, 100]),
   midi.NoteOnEvent(tick=9, channel=3, data=[38, 0]),
   midi.NoteOnEvent(tick=107, channel=3, data=[50, 0]),
   midi.NoteOnEvent(tick=1, channel=3, data=[38, 100]),
   midi.NoteOnEvent(tick=59, channel=3, data=[50, 100]),
   midi.NoteOnEvent(tick=19, channel=3, data=[38, 0]),
   midi.NoteOnEvent(tick=57, channel=3, data=[38, 100]),
   midi.NoteOnEvent(tick=20, channel=3, data=[50, 0]),
   midi.NoteOnEvent(tick=92, channel=3, data=[50, 100]),
   midi.NoteOnEvent(tick=10, channel=3, data=[38, 0]),
   midi.NoteOnEvent(tick=105, channel=3, data=[38, 100]),
   midi.NoteOnEvent(tick=3, channel=3, data=[50, 0]),
   midi.NoteOnEvent(tick=61, channel=3, data=[50, 100]),
   midi.NoteOnEvent(tick=10, channel=3, data=[38, 0]),
   midi.NoteOnEvent(tick=107, channel=3, data=[38, 100]),
   midi.NoteOnEvent(tick=1, channel=3, data=[50, 0]),
   midi.NoteOnEvent(tick=49, channel=3, data=[50, 100]),
   midi.NoteOnEvent(tick=25, channel=3, data=[38, 0]),
   midi.NoteOnEvent(tick=96, channel=3, data=[38, 100]),
   midi.NoteOnEvent(tick=15, channel=3, data=[50, 0]),
   midi.NoteOnEvent(tick=109, channel=3, data=[50, 100]),
   midi.NoteOnEvent(tick=8, channel=3, data=[38, 0]),
   midi.NoteOnEvent(tick=101, channel=3, data=[50, 0]),
   midi.NoteOnEvent(tick=8, channel=3, data=[38, 100]),
   midi.NoteOnEvent(tick=52, channel=3, data=[50, 100]),
   midi.NoteOnEvent(tick=19, channel=3, data=[38, 0]),
   midi.NoteOnEvent(tick=75, channel=3, data=[38, 100]),
   midi.NoteOnEvent(tick=11, channel=3, data=[50, 0]),
   midi.NoteOnEvent(tick=93, channel=3, data=[50, 100]),
   midi.NoteOnEvent(tick=18, channel=3, data=[38, 0]),
   midi.NoteOnEvent(tick=103, channel=3, data=[38, 100]),
   midi.NoteOnEvent(tick=1, channel=3, data=[50, 0]),
   midi.NoteOnEvent(tick=56, channel=3, data=[50, 100]),
   midi.NoteOnEvent(tick=31, channel=3, data=[38, 0]),
   midi.NoteOnEvent(tick=88, channel=3, data=[38, 100]),
   midi.NoteOnEvent(tick=4, channel=3, data=[50, 0]),
   midi.NoteOnEvent(tick=55, channel=3, data=[50, 100]),
   midi.NoteOnEvent(tick=24, channel=3, data=[38, 0]),
   midi.NoteOnEvent(tick=92, channel=3, data=[38, 100]),
   midi.NoteOnEvent(tick=9, channel=3, data=[50, 0]),
   midi.NoteOnEvent(tick=109, channel=3, data=[50, 100]),
   midi.NoteOnEvent(tick=19, channel=3, data=[38, 0]),
   midi.NoteOnEvent(tick=114, channel=3, data=[50, 0]),
   midi.NoteOnEvent(tick=0, channel=3, data=[38, 100]),
   midi.NoteOnEvent(tick=59, channel=3, data=[50, 100]),
   midi.NoteOnEvent(tick=27, channel=3, data=[38, 0]),
   midi.NoteOnEvent(tick=71, channel=3, data=[38, 100]),
   midi.NoteOnEvent(tick=3, channel=3, data=[50, 0]),
   midi.NoteOnEvent(tick=81, channel=3, data=[50, 100]),
   midi.NoteOnEvent(tick=44, channel=3, data=[38, 0]),
   midi.NoteOnEvent(tick=82, channel=3, data=[38, 100]),
   midi.NoteOnEvent(tick=2, channel=3, data=[50, 0]),
   midi.NoteOnEvent(tick=58, channel=3, data=[50, 100]),
   midi.NoteOnEvent(tick=31, channel=3, data=[38, 0]),
   midi.NoteOnEvent(tick=80, channel=3, data=[38, 100]),
   midi.NoteOnEvent(tick=5, channel=3, data=[50, 0]),
   midi.NoteOnEvent(tick=61, channel=3, data=[50, 100]),
   midi.NoteOnEvent(tick=40, channel=3, data=[38, 0]),
   midi.NoteOnEvent(tick=42, channel=3, data=[50, 0]),
   midi.NoteOnEvent(tick=20, channel=3, data=[38, 100]),
   midi.NoteOnEvent(tick=1694, channel=3, data=[38, 0]),
   midi.NoteOnEvent(tick=25222, channel=3, data=[38, 100]),
   midi.NoteOnEvent(tick=75, channel=3, data=[50, 100]),
   midi.NoteOnEvent(tick=18, channel=3, data=[38, 0]),
   midi.NoteOnEvent(tick=118, channel=3, data=[38, 100]),
   midi.NoteOnEvent(tick=4, channel=3, data=[50, 0]),
   midi.NoteOnEvent(tick=64, channel=3, data=[50, 100]),
   midi.NoteOnEvent(tick=12, channel=3, data=[38, 0]),
   midi.NoteOnEvent(tick=61, channel=3, data=[38, 100]),
   midi.NoteOnEvent(tick=10, channel=3, data=[50, 0]),
   midi.NoteOnEvent(tick=103, channel=3, data=[50, 100]),
   midi.NoteOnEvent(tick=4, channel=3, data=[38, 0]),
   midi.NoteOnEvent(tick=108, channel=3, data=[38, 100]),
   midi.NoteOnEvent(tick=2, channel=3, data=[50, 0]),
   midi.NoteOnEvent(tick=61, channel=3, data=[50, 100]),
   midi.NoteOnEvent(tick=20, channel=3, data=[38, 0]),
   midi.NoteOnEvent(tick=95, channel=3, data=[50, 0]),
   midi.NoteOnEvent(tick=2, channel=3, data=[38, 100]),
   midi.NoteOnEvent(tick=50, channel=3, data=[50, 100]),
   midi.NoteOnEvent(tick=21, channel=3, data=[38, 0]),
   midi.NoteOnEvent(tick=84, channel=3, data=[38, 100]),
   midi.NoteOnEvent(tick=20, channel=3, data=[50, 0]),
   midi.NoteOnEvent(tick=102, channel=3, data=[50, 100]),
   midi.NoteOnEvent(tick=7, channel=3, data=[38, 0]),
   midi.NoteOnEvent(tick=120, channel=3, data=[38, 100]),
   midi.NoteOnEvent(tick=2, channel=3, data=[50, 0]),
   midi.NoteOnEvent(tick=55, channel=3, data=[50, 100]),
   midi.NoteOnEvent(tick=24, channel=3, data=[38, 0]),
   midi.NoteOnEvent(tick=50, channel=3, data=[38, 100]),
   midi.NoteOnEvent(tick=7, channel=3, data=[50, 0]),
   midi.NoteOnEvent(tick=93, channel=3, data=[50, 100]),
   midi.NoteOnEvent(tick=15, channel=3, data=[38, 0]),
   midi.NoteOnEvent(tick=118, channel=3, data=[50, 0]),
   midi.NoteOnEvent(tick=4, channel=3, data=[38, 100]),
   midi.NoteOnEvent(tick=49, channel=3, data=[50, 100]),
   midi.NoteOnEvent(tick=25, channel=3, data=[38, 0]),
   midi.NoteOnEvent(tick=110, channel=3, data=[38, 100]),
   midi.NoteOnEvent(tick=3, channel=3, data=[50, 0]),
   midi.NoteOnEvent(tick=50, channel=3, data=[50, 100]),
   midi.NoteOnEvent(tick=22, channel=3, data=[38, 0]),
   midi.NoteOnEvent(tick=114, channel=3, data=[38, 100]),
   midi.NoteOnEvent(tick=9, channel=3, data=[50, 0]),
   midi.NoteOnEvent(tick=103, channel=3, data=[50, 100]),
   midi.NoteOnEvent(tick=7, channel=3, data=[38, 0]),
   midi.NoteOnEvent(tick=117, channel=3, data=[38, 100]),
   midi.NoteOnEvent(tick=1, channel=3, data=[50, 0]),
   midi.NoteOnEvent(tick=65, channel=3, data=[50, 100]),
   midi.NoteOnEvent(tick=13, channel=3, data=[38, 0]),
   midi.NoteOnEvent(tick=59, channel=3, data=[38, 100]),
   midi.NoteOnEvent(tick=9, channel=3, data=[50, 0]),
   midi.NoteOnEvent(tick=106, channel=3, data=[50, 100]),
   midi.NoteOnEvent(tick=11, channel=3, data=[38, 0]),
   midi.NoteOnEvent(tick=98, channel=3, data=[50, 0]),
   midi.NoteOnEvent(tick=0, channel=3, data=[38, 100]),
   midi.NoteOnEvent(tick=60, channel=3, data=[50, 100]),
   midi.NoteOnEvent(tick=27, channel=3, data=[38, 0]),
   midi.NoteOnEvent(tick=85, channel=3, data=[38, 100]),
   midi.NoteOnEvent(tick=8, channel=3, data=[50, 0]),
   midi.NoteOnEvent(tick=51, channel=3, data=[50, 100]),
   midi.NoteOnEvent(tick=26, channel=3, data=[38, 0]),
   midi.NoteOnEvent(tick=94, channel=3, data=[38, 100]),
   midi.NoteOnEvent(tick=14, channel=3, data=[50, 0]),
   midi.NoteOnEvent(tick=99, channel=3, data=[50, 100]),
   midi.NoteOnEvent(tick=7, channel=3, data=[38, 0]),
   midi.NoteOnEvent(tick=120, channel=3, data=[50, 0]),
   midi.NoteOnEvent(tick=1, channel=3, data=[38, 100]),
   midi.NoteOnEvent(tick=54, channel=3, data=[50, 100]),
   midi.NoteOnEvent(tick=14, channel=3, data=[38, 0]),
   midi.NoteOnEvent(tick=86, channel=3, data=[38, 100]),
   midi.NoteOnEvent(tick=14, channel=3, data=[50, 0]),
   midi.NoteOnEvent(tick=86, channel=3, data=[50, 100]),
   midi.NoteOnEvent(tick=15, channel=3, data=[38, 0]),
   midi.NoteOnEvent(tick=104, channel=3, data=[38, 100]),
   midi.NoteOnEvent(tick=2, channel=3, data=[50, 0]),
   midi.NoteOnEvent(tick=42, channel=3, data=[50, 100]),
   midi.NoteOnEvent(tick=27, channel=3, data=[38, 0]),
   midi.NoteOnEvent(tick=101, channel=3, data=[38, 100]),
   midi.NoteOnEvent(tick=6, channel=3, data=[50, 0]),
   midi.NoteOnEvent(tick=51, channel=3, data=[50, 100]),
   midi.NoteOnEvent(tick=22, channel=3, data=[38, 0]),
   midi.NoteOnEvent(tick=105, channel=3, data=[38, 100]),
   midi.NoteOnEvent(tick=10, channel=3, data=[50, 0]),
   midi.NoteOnEvent(tick=96, channel=3, data=[50, 100]),
   midi.NoteOnEvent(tick=8, channel=3, data=[38, 0]),
   midi.NoteOnEvent(tick=108, channel=3, data=[38, 100]),
   midi.NoteOnEvent(tick=2, channel=3, data=[50, 0]),
   midi.NoteOnEvent(tick=50, channel=3, data=[50, 100]),
   midi.NoteOnEvent(tick=9, channel=3, data=[38, 0]),
   midi.NoteOnEvent(tick=64, channel=3, data=[38, 100]),
   midi.NoteOnEvent(tick=17, channel=3, data=[50, 0]),
   midi.NoteOnEvent(tick=112, channel=3, data=[50, 100]),
   midi.NoteOnEvent(tick=16, channel=3, data=[38, 0]),
   midi.NoteOnEvent(tick=107, channel=3, data=[38, 100]),
   midi.NoteOnEvent(tick=1, channel=3, data=[50, 0]),
   midi.NoteOnEvent(tick=57, channel=3, data=[50, 100]),
   midi.NoteOnEvent(tick=32, channel=3, data=[38, 0]),
   midi.NoteOnEvent(tick=92, channel=3, data=[38, 100]),
   midi.NoteOnEvent(tick=8, channel=3, data=[50, 0]),
   midi.NoteOnEvent(tick=53, channel=3, data=[50, 100]),
   midi.NoteOnEvent(tick=17, channel=3, data=[38, 0]),
   midi.NoteOnEvent(tick=99, channel=3, data=[38, 100]),
   midi.NoteOnEvent(tick=10, channel=3, data=[50, 0]),
   midi.NoteOnEvent(tick=104, channel=3, data=[50, 100]),
   midi.NoteOnEvent(tick=9, channel=3, data=[38, 0]),
   midi.NoteOnEvent(tick=107, channel=3, data=[50, 0]),
   midi.NoteOnEvent(tick=1, channel=3, data=[38, 100]),
   midi.NoteOnEvent(tick=59, channel=3, data=[50, 100]),
   midi.NoteOnEvent(tick=19, channel=3, data=[38, 0]),
   midi.NoteOnEvent(tick=57, channel=3, data=[38, 100]),
   midi.NoteOnEvent(tick=20, channel=3, data=[50, 0]),
   midi.NoteOnEvent(tick=92, channel=3, data=[50, 100]),
   midi.NoteOnEvent(tick=10, channel=3, data=[38, 0]),
   midi.NoteOnEvent(tick=105, channel=3, data=[38, 100]),
   midi.NoteOnEvent(tick=3, channel=3, data=[50, 0]),
   midi.NoteOnEvent(tick=61, channel=3, data=[50, 100]),
   midi.NoteOnEvent(tick=10, channel=3, data=[38, 0]),
   midi.NoteOnEvent(tick=107, channel=3, data=[38, 100]),
   midi.NoteOnEvent(tick=1, channel=3, data=[50, 0]),
   midi.NoteOnEvent(tick=49, channel=3, data=[50, 100]),
   midi.NoteOnEvent(tick=25, channel=3, data=[38, 0]),
   midi.NoteOnEvent(tick=96, channel=3, data=[38, 100]),
   midi.NoteOnEvent(tick=15, channel=3, data=[50, 0]),
   midi.NoteOnEvent(tick=109, channel=3, data=[50, 100]),
   midi.NoteOnEvent(tick=8, channel=3, data=[38, 0]),
   midi.NoteOnEvent(tick=101, channel=3, data=[50, 0]),
   midi.NoteOnEvent(tick=8, channel=3, data=[38, 100]),
   midi.NoteOnEvent(tick=52, channel=3, data=[50, 100]),
   midi.NoteOnEvent(tick=19, channel=3, data=[38, 0]),
   midi.NoteOnEvent(tick=75, channel=3, data=[38, 100]),
   midi.NoteOnEvent(tick=11, channel=3, data=[50, 0]),
   midi.NoteOnEvent(tick=93, channel=3, data=[50, 100]),
   midi.NoteOnEvent(tick=18, channel=3, data=[38, 0]),
   midi.NoteOnEvent(tick=103, channel=3, data=[38, 100]),
   midi.NoteOnEvent(tick=1, channel=3, data=[50, 0]),
   midi.NoteOnEvent(tick=56, channel=3, data=[50, 100]),
   midi.NoteOnEvent(tick=31, channel=3, data=[38, 0]),
   midi.NoteOnEvent(tick=88, channel=3, data=[38, 100]),
   midi.NoteOnEvent(tick=4, channel=3, data=[50, 0]),
   midi.NoteOnEvent(tick=55, channel=3, data=[50, 100]),
   midi.NoteOnEvent(tick=24, channel=3, data=[38, 0]),
   midi.NoteOnEvent(tick=92, channel=3, data=[38, 100]),
   midi.NoteOnEvent(tick=9, channel=3, data=[50, 0]),
   midi.NoteOnEvent(tick=109, channel=3, data=[50, 100]),
   midi.NoteOnEvent(tick=19, channel=3, data=[38, 0]),
   midi.NoteOnEvent(tick=114, channel=3, data=[50, 0]),
   midi.NoteOnEvent(tick=0, channel=3, data=[38, 100]),
   midi.NoteOnEvent(tick=59, channel=3, data=[50, 100]),
   midi.NoteOnEvent(tick=27, channel=3, data=[38, 0]),
   midi.NoteOnEvent(tick=71, channel=3, data=[38, 100]),
   midi.NoteOnEvent(tick=3, channel=3, data=[50, 0]),
   midi.NoteOnEvent(tick=81, channel=3, data=[50, 100]),
   midi.NoteOnEvent(tick=44, channel=3, data=[38, 0]),
   midi.NoteOnEvent(tick=82, channel=3, data=[38, 100]),
   midi.NoteOnEvent(tick=2, channel=3, data=[50, 0]),
   midi.NoteOnEvent(tick=58, channel=3, data=[50, 100]),
   midi.NoteOnEvent(tick=31, channel=3, data=[38, 0]),
   midi.NoteOnEvent(tick=80, channel=3, data=[38, 100]),
   midi.NoteOnEvent(tick=5, channel=3, data=[50, 0]),
   midi.NoteOnEvent(tick=61, channel=3, data=[50, 100]),
   midi.NoteOnEvent(tick=40, channel=3, data=[38, 0]),
   midi.NoteOnEvent(tick=42, channel=3, data=[50, 0]),
   midi.NoteOnEvent(tick=20, channel=3, data=[38, 100]),
   midi.NoteOnEvent(tick=1694, channel=3, data=[38, 0]),
   midi.NoteOnEvent(tick=22342, channel=3, data=[38, 100]),
   midi.NoteOnEvent(tick=75, channel=3, data=[50, 100]),
   midi.NoteOnEvent(tick=18, channel=3, data=[38, 0]),
   midi.NoteOnEvent(tick=118, channel=3, data=[38, 100]),
   midi.NoteOnEvent(tick=4, channel=3, data=[50, 0]),
   midi.NoteOnEvent(tick=64, channel=3, data=[50, 100]),
   midi.NoteOnEvent(tick=12, channel=3, data=[38, 0]),
   midi.NoteOnEvent(tick=61, channel=3, data=[38, 100]),
   midi.NoteOnEvent(tick=10, channel=3, data=[50, 0]),
   midi.NoteOnEvent(tick=103, channel=3, data=[50, 100]),
   midi.NoteOnEvent(tick=4, channel=3, data=[38, 0]),
   midi.NoteOnEvent(tick=108, channel=3, data=[38, 100]),
   midi.NoteOnEvent(tick=2, channel=3, data=[50, 0]),
   midi.NoteOnEvent(tick=61, channel=3, data=[50, 100]),
   midi.NoteOnEvent(tick=20, channel=3, data=[38, 0]),
   midi.NoteOnEvent(tick=95, channel=3, data=[50, 0]),
   midi.NoteOnEvent(tick=2, channel=3, data=[38, 100]),
   midi.NoteOnEvent(tick=50, channel=3, data=[50, 100]),
   midi.NoteOnEvent(tick=21, channel=3, data=[38, 0]),
   midi.NoteOnEvent(tick=84, channel=3, data=[38, 100]),
   midi.NoteOnEvent(tick=20, channel=3, data=[50, 0]),
   midi.NoteOnEvent(tick=102, channel=3, data=[50, 100]),
   midi.NoteOnEvent(tick=7, channel=3, data=[38, 0]),
   midi.NoteOnEvent(tick=120, channel=3, data=[38, 100]),
   midi.NoteOnEvent(tick=2, channel=3, data=[50, 0]),
   midi.NoteOnEvent(tick=55, channel=3, data=[50, 100]),
   midi.NoteOnEvent(tick=24, channel=3, data=[38, 0]),
   midi.NoteOnEvent(tick=50, channel=3, data=[38, 100]),
   midi.NoteOnEvent(tick=7, channel=3, data=[50, 0]),
   midi.NoteOnEvent(tick=93, channel=3, data=[50, 100]),
   midi.NoteOnEvent(tick=15, channel=3, data=[38, 0]),
   midi.NoteOnEvent(tick=118, channel=3, data=[50, 0]),
   midi.NoteOnEvent(tick=4, channel=3, data=[38, 100]),
   midi.NoteOnEvent(tick=49, channel=3, data=[50, 100]),
   midi.NoteOnEvent(tick=25, channel=3, data=[38, 0]),
   midi.NoteOnEvent(tick=110, channel=3, data=[38, 100]),
   midi.NoteOnEvent(tick=3, channel=3, data=[50, 0]),
   midi.NoteOnEvent(tick=50, channel=3, data=[50, 100]),
   midi.NoteOnEvent(tick=22, channel=3, data=[38, 0]),
   midi.NoteOnEvent(tick=114, channel=3, data=[38, 100]),
   midi.NoteOnEvent(tick=9, channel=3, data=[50, 0]),
   midi.NoteOnEvent(tick=103, channel=3, data=[50, 100]),
   midi.NoteOnEvent(tick=7, channel=3, data=[38, 0]),
   midi.NoteOnEvent(tick=117, channel=3, data=[38, 100]),
   midi.NoteOnEvent(tick=1, channel=3, data=[50, 0]),
   midi.NoteOnEvent(tick=65, channel=3, data=[50, 100]),
   midi.NoteOnEvent(tick=13, channel=3, data=[38, 0]),
   midi.NoteOnEvent(tick=59, channel=3, data=[38, 100]),
   midi.NoteOnEvent(tick=9, channel=3, data=[50, 0]),
   midi.NoteOnEvent(tick=106, channel=3, data=[50, 100]),
   midi.NoteOnEvent(tick=11, channel=3, data=[38, 0]),
   midi.NoteOnEvent(tick=98, channel=3, data=[50, 0]),
   midi.NoteOnEvent(tick=0, channel=3, data=[38, 100]),
   midi.NoteOnEvent(tick=60, channel=3, data=[50, 100]),
   midi.NoteOnEvent(tick=27, channel=3, data=[38, 0]),
   midi.NoteOnEvent(tick=85, channel=3, data=[38, 100]),
   midi.NoteOnEvent(tick=8, channel=3, data=[50, 0]),
   midi.NoteOnEvent(tick=51, channel=3, data=[50, 100]),
   midi.NoteOnEvent(tick=26, channel=3, data=[38, 0]),
   midi.NoteOnEvent(tick=94, channel=3, data=[38, 100]),
   midi.NoteOnEvent(tick=14, channel=3, data=[50, 0]),
   midi.NoteOnEvent(tick=99, channel=3, data=[50, 100]),
   midi.NoteOnEvent(tick=7, channel=3, data=[38, 0]),
   midi.NoteOnEvent(tick=120, channel=3, data=[50, 0]),
   midi.NoteOnEvent(tick=1, channel=3, data=[38, 100]),
   midi.NoteOnEvent(tick=54, channel=3, data=[50, 100]),
   midi.NoteOnEvent(tick=14, channel=3, data=[38, 0]),
   midi.NoteOnEvent(tick=86, channel=3, data=[38, 100]),
   midi.NoteOnEvent(tick=14, channel=3, data=[50, 0]),
   midi.NoteOnEvent(tick=86, channel=3, data=[50, 100]),
   midi.NoteOnEvent(tick=15, channel=3, data=[38, 0]),
   midi.NoteOnEvent(tick=104, channel=3, data=[38, 100]),
   midi.NoteOnEvent(tick=2, channel=3, data=[50, 0]),
   midi.NoteOnEvent(tick=42, channel=3, data=[50, 100]),
   midi.NoteOnEvent(tick=27, channel=3, data=[38, 0]),
   midi.NoteOnEvent(tick=101, channel=3, data=[38, 100]),
   midi.NoteOnEvent(tick=6, channel=3, data=[50, 0]),
   midi.NoteOnEvent(tick=51, channel=3, data=[50, 100]),
   midi.NoteOnEvent(tick=22, channel=3, data=[38, 0]),
   midi.NoteOnEvent(tick=115, channel=3, data=[50, 0]),
   midi.NoteOnEvent(tick=7689, channel=3, data=[38, 100]),
   midi.NoteOnEvent(tick=75, channel=3, data=[50, 100]),
   midi.NoteOnEvent(tick=18, channel=3, data=[38, 0]),
   midi.NoteOnEvent(tick=118, channel=3, data=[38, 100]),
   midi.NoteOnEvent(tick=4, channel=3, data=[50, 0]),
   midi.NoteOnEvent(tick=64, channel=3, data=[50, 100]),
   midi.NoteOnEvent(tick=12, channel=3, data=[38, 0]),
   midi.NoteOnEvent(tick=61, channel=3, data=[38, 100]),
   midi.NoteOnEvent(tick=10, channel=3, data=[50, 0]),
   midi.NoteOnEvent(tick=103, channel=3, data=[50, 100]),
   midi.NoteOnEvent(tick=4, channel=3, data=[38, 0]),
   midi.NoteOnEvent(tick=108, channel=3, data=[38, 100]),
   midi.NoteOnEvent(tick=2, channel=3, data=[50, 0]),
   midi.NoteOnEvent(tick=61, channel=3, data=[50, 100]),
   midi.NoteOnEvent(tick=20, channel=3, data=[38, 0]),
   midi.NoteOnEvent(tick=95, channel=3, data=[50, 0]),
   midi.NoteOnEvent(tick=2, channel=3, data=[38, 100]),
   midi.NoteOnEvent(tick=50, channel=3, data=[50, 100]),
   midi.NoteOnEvent(tick=21, channel=3, data=[38, 0]),
   midi.NoteOnEvent(tick=84, channel=3, data=[38, 100]),
   midi.NoteOnEvent(tick=20, channel=3, data=[50, 0]),
   midi.NoteOnEvent(tick=102, channel=3, data=[50, 100]),
   midi.NoteOnEvent(tick=7, channel=3, data=[38, 0]),
   midi.NoteOnEvent(tick=120, channel=3, data=[38, 100]),
   midi.NoteOnEvent(tick=2, channel=3, data=[50, 0]),
   midi.NoteOnEvent(tick=55, channel=3, data=[50, 100]),
   midi.NoteOnEvent(tick=24, channel=3, data=[38, 0]),
   midi.NoteOnEvent(tick=50, channel=3, data=[38, 100]),
   midi.NoteOnEvent(tick=7, channel=3, data=[50, 0]),
   midi.NoteOnEvent(tick=93, channel=3, data=[50, 100]),
   midi.NoteOnEvent(tick=15, channel=3, data=[38, 0]),
   midi.NoteOnEvent(tick=118, channel=3, data=[50, 0]),
   midi.NoteOnEvent(tick=4, channel=3, data=[38, 100]),
   midi.NoteOnEvent(tick=49, channel=3, data=[50, 100]),
   midi.NoteOnEvent(tick=25, channel=3, data=[38, 0]),
   midi.NoteOnEvent(tick=110, channel=3, data=[38, 100]),
   midi.NoteOnEvent(tick=3, channel=3, data=[50, 0]),
   midi.NoteOnEvent(tick=50, channel=3, data=[50, 100]),
   midi.NoteOnEvent(tick=22, channel=3, data=[38, 0]),
   midi.NoteOnEvent(tick=114, channel=3, data=[38, 100]),
   midi.NoteOnEvent(tick=9, channel=3, data=[50, 0]),
   midi.NoteOnEvent(tick=103, channel=3, data=[50, 100]),
   midi.NoteOnEvent(tick=7, channel=3, data=[38, 0]),
   midi.NoteOnEvent(tick=117, channel=3, data=[38, 100]),
   midi.NoteOnEvent(tick=1, channel=3, data=[50, 0]),
   midi.NoteOnEvent(tick=65, channel=3, data=[50, 100]),
   midi.NoteOnEvent(tick=13, channel=3, data=[38, 0]),
   midi.NoteOnEvent(tick=59, channel=3, data=[38, 100]),
   midi.NoteOnEvent(tick=9, channel=3, data=[50, 0]),
   midi.NoteOnEvent(tick=106, channel=3, data=[50, 100]),
   midi.NoteOnEvent(tick=11, channel=3, data=[38, 0]),
   midi.NoteOnEvent(tick=98, channel=3, data=[50, 0]),
   midi.NoteOnEvent(tick=0, channel=3, data=[38, 100]),
   midi.NoteOnEvent(tick=60, channel=3, data=[50, 100]),
   midi.NoteOnEvent(tick=27, channel=3, data=[38, 0]),
   midi.NoteOnEvent(tick=85, channel=3, data=[38, 100]),
   midi.NoteOnEvent(tick=8, channel=3, data=[50, 0]),
   midi.NoteOnEvent(tick=51, channel=3, data=[50, 100]),
   midi.NoteOnEvent(tick=26, channel=3, data=[38, 0]),
   midi.NoteOnEvent(tick=94, channel=3, data=[38, 100]),
   midi.NoteOnEvent(tick=14, channel=3, data=[50, 0]),
   midi.NoteOnEvent(tick=99, channel=3, data=[50, 100]),
   midi.NoteOnEvent(tick=7, channel=3, data=[38, 0]),
   midi.NoteOnEvent(tick=120, channel=3, data=[50, 0]),
   midi.NoteOnEvent(tick=1, channel=3, data=[38, 100]),
   midi.NoteOnEvent(tick=54, channel=3, data=[50, 100]),
   midi.NoteOnEvent(tick=14, channel=3, data=[38, 0]),
   midi.NoteOnEvent(tick=86, channel=3, data=[38, 100]),
   midi.NoteOnEvent(tick=14, channel=3, data=[50, 0]),
   midi.NoteOnEvent(tick=86, channel=3, data=[50, 100]),
   midi.NoteOnEvent(tick=15, channel=3, data=[38, 0]),
   midi.NoteOnEvent(tick=104, channel=3, data=[38, 100]),
   midi.NoteOnEvent(tick=2, channel=3, data=[50, 0]),
   midi.NoteOnEvent(tick=42, channel=3, data=[50, 100]),
   midi.NoteOnEvent(tick=27, channel=3, data=[38, 0]),
   midi.NoteOnEvent(tick=101, channel=3, data=[38, 100]),
   midi.NoteOnEvent(tick=6, channel=3, data=[50, 0]),
   midi.NoteOnEvent(tick=51, channel=3, data=[50, 100]),
   midi.NoteOnEvent(tick=22, channel=3, data=[38, 0]),
   midi.NoteOnEvent(tick=105, channel=3, data=[38, 100]),
   midi.NoteOnEvent(tick=10, channel=3, data=[50, 0]),
   midi.NoteOnEvent(tick=96, channel=3, data=[50, 100]),
   midi.NoteOnEvent(tick=8, channel=3, data=[38, 0]),
   midi.NoteOnEvent(tick=108, channel=3, data=[38, 100]),
   midi.NoteOnEvent(tick=2, channel=3, data=[50, 0]),
   midi.NoteOnEvent(tick=50, channel=3, data=[50, 100]),
   midi.NoteOnEvent(tick=9, channel=3, data=[38, 0]),
   midi.NoteOnEvent(tick=64, channel=3, data=[38, 100]),
   midi.NoteOnEvent(tick=17, channel=3, data=[50, 0]),
   midi.NoteOnEvent(tick=112, channel=3, data=[50, 100]),
   midi.NoteOnEvent(tick=16, channel=3, data=[38, 0]),
   midi.NoteOnEvent(tick=107, channel=3, data=[38, 100]),
   midi.NoteOnEvent(tick=1, channel=3, data=[50, 0]),
   midi.NoteOnEvent(tick=57, channel=3, data=[50, 100]),
   midi.NoteOnEvent(tick=32, channel=3, data=[38, 0]),
   midi.NoteOnEvent(tick=92, channel=3, data=[38, 100]),
   midi.NoteOnEvent(tick=8, channel=3, data=[50, 0]),
   midi.NoteOnEvent(tick=53, channel=3, data=[50, 100]),
   midi.NoteOnEvent(tick=17, channel=3, data=[38, 0]),
   midi.NoteOnEvent(tick=99, channel=3, data=[38, 100]),
   midi.NoteOnEvent(tick=10, channel=3, data=[50, 0]),
   midi.NoteOnEvent(tick=104, channel=3, data=[50, 100]),
   midi.NoteOnEvent(tick=9, channel=3, data=[38, 0]),
   midi.NoteOnEvent(tick=107, channel=3, data=[50, 0]),
   midi.NoteOnEvent(tick=1, channel=3, data=[38, 100]),
   midi.NoteOnEvent(tick=59, channel=3, data=[50, 100]),
   midi.NoteOnEvent(tick=19, channel=3, data=[38, 0]),
   midi.NoteOnEvent(tick=57, channel=3, data=[38, 100]),
   midi.NoteOnEvent(tick=20, channel=3, data=[50, 0]),
   midi.NoteOnEvent(tick=92, channel=3, data=[50, 100]),
   midi.NoteOnEvent(tick=10, channel=3, data=[38, 0]),
   midi.NoteOnEvent(tick=105, channel=3, data=[38, 100]),
   midi.NoteOnEvent(tick=3, channel=3, data=[50, 0]),
   midi.NoteOnEvent(tick=61, channel=3, data=[50, 100]),
   midi.NoteOnEvent(tick=10, channel=3, data=[38, 0]),
   midi.NoteOnEvent(tick=107, channel=3, data=[38, 100]),
   midi.NoteOnEvent(tick=1, channel=3, data=[50, 0]),
   midi.NoteOnEvent(tick=49, channel=3, data=[50, 100]),
   midi.NoteOnEvent(tick=25, channel=3, data=[38, 0]),
   midi.NoteOnEvent(tick=96, channel=3, data=[38, 100]),
   midi.NoteOnEvent(tick=15, channel=3, data=[50, 0]),
   midi.NoteOnEvent(tick=109, channel=3, data=[50, 100]),
   midi.NoteOnEvent(tick=8, channel=3, data=[38, 0]),
   midi.NoteOnEvent(tick=101, channel=3, data=[50, 0]),
   midi.NoteOnEvent(tick=8, channel=3, data=[38, 100]),
   midi.NoteOnEvent(tick=52, channel=3, data=[50, 100]),
   midi.NoteOnEvent(tick=19, channel=3, data=[38, 0]),
   midi.NoteOnEvent(tick=75, channel=3, data=[38, 100]),
   midi.NoteOnEvent(tick=11, channel=3, data=[50, 0]),
   midi.NoteOnEvent(tick=93, channel=3, data=[50, 100]),
   midi.NoteOnEvent(tick=18, channel=3, data=[38, 0]),
   midi.NoteOnEvent(tick=103, channel=3, data=[38, 100]),
   midi.NoteOnEvent(tick=1, channel=3, data=[50, 0]),
   midi.NoteOnEvent(tick=56, channel=3, data=[50, 100]),
   midi.NoteOnEvent(tick=31, channel=3, data=[38, 0]),
   midi.NoteOnEvent(tick=88, channel=3, data=[38, 100]),
   midi.NoteOnEvent(tick=4, channel=3, data=[50, 0]),
   midi.NoteOnEvent(tick=55, channel=3, data=[50, 100]),
   midi.NoteOnEvent(tick=24, channel=3, data=[38, 0]),
   midi.NoteOnEvent(tick=92, channel=3, data=[38, 100]),
   midi.NoteOnEvent(tick=9, channel=3, data=[50, 0]),
   midi.NoteOnEvent(tick=109, channel=3, data=[50, 100]),
   midi.NoteOnEvent(tick=19, channel=3, data=[38, 0]),
   midi.NoteOnEvent(tick=114, channel=3, data=[50, 0]),
   midi.NoteOnEvent(tick=0, channel=3, data=[38, 100]),
   midi.NoteOnEvent(tick=59, channel=3, data=[50, 100]),
   midi.NoteOnEvent(tick=27, channel=3, data=[38, 0]),
   midi.NoteOnEvent(tick=71, channel=3, data=[38, 100]),
   midi.NoteOnEvent(tick=3, channel=3, data=[50, 0]),
   midi.NoteOnEvent(tick=81, channel=3, data=[50, 100]),
   midi.NoteOnEvent(tick=44, channel=3, data=[38, 0]),
   midi.NoteOnEvent(tick=82, channel=3, data=[38, 100]),
   midi.NoteOnEvent(tick=2, channel=3, data=[50, 0]),
   midi.NoteOnEvent(tick=58, channel=3, data=[50, 100]),
   midi.NoteOnEvent(tick=31, channel=3, data=[38, 0]),
   midi.NoteOnEvent(tick=80, channel=3, data=[38, 100]),
   midi.NoteOnEvent(tick=5, channel=3, data=[50, 0]),
   midi.NoteOnEvent(tick=61, channel=3, data=[50, 100]),
   midi.NoteOnEvent(tick=40, channel=3, data=[38, 0]),
   midi.NoteOnEvent(tick=42, channel=3, data=[50, 0]),
   midi.NoteOnEvent(tick=20, channel=3, data=[38, 100]),
   midi.NoteOnEvent(tick=1694, channel=3, data=[38, 0]),
   midi.NoteOnEvent(tick=13672, channel=3, data=[62, 100]),
   midi.NoteOnEvent(tick=0, channel=3, data=[57, 100]),
   midi.NoteOffEvent(tick=480, channel=3, data=[62, 64]),
   midi.NoteOffEvent(tick=0, channel=3, data=[57, 64]),
   midi.NoteOnEvent(tick=0, channel=3, data=[61, 100]),
   midi.NoteOnEvent(tick=0, channel=3, data=[56, 100]),
   midi.NoteOffEvent(tick=360, channel=3, data=[61, 64]),
   midi.NoteOffEvent(tick=0, channel=3, data=[56, 64]),
   midi.NoteOnEvent(tick=0, channel=3, data=[55, 100]),
   midi.NoteOnEvent(tick=0, channel=3, data=[60, 100]),
   midi.NoteOffEvent(tick=840, channel=3, data=[55, 64]),
   midi.NoteOffEvent(tick=0, channel=3, data=[60, 64]),
   midi.NoteOnEvent(tick=0, channel=3, data=[59, 100]),
   midi.NoteOnEvent(tick=0, channel=3, data=[54, 100]),
   midi.NoteOffEvent(tick=240, channel=3, data=[59, 64]),
   midi.NoteOffEvent(tick=0, channel=3, data=[54, 64]),
   midi.NoteOnEvent(tick=0, channel=3, data=[62, 100]),
   midi.NoteOnEvent(tick=0, channel=3, data=[57, 100]),
   midi.NoteOffEvent(tick=480, channel=3, data=[62, 64]),
   midi.NoteOffEvent(tick=0, channel=3, data=[57, 64]),
   midi.NoteOnEvent(tick=0, channel=3, data=[61, 100]),
   midi.NoteOnEvent(tick=0, channel=3, data=[56, 100]),
   midi.NoteOffEvent(tick=360, channel=3, data=[61, 64]),
   midi.NoteOffEvent(tick=0, channel=3, data=[56, 64]),
   midi.NoteOnEvent(tick=0, channel=3, data=[55, 100]),
   midi.NoteOnEvent(tick=0, channel=3, data=[60, 100]),
   midi.NoteOffEvent(tick=840, channel=3, data=[55, 64]),
   midi.NoteOffEvent(tick=0, channel=3, data=[60, 64]),
   midi.NoteOnEvent(tick=240, channel=3, data=[62, 60]),
   midi.NoteOnEvent(tick=0, channel=3, data=[57, 60]),
   midi.NoteOffEvent(tick=480, channel=3, data=[62, 64]),
   midi.NoteOffEvent(tick=0, channel=3, data=[57, 64]),
   midi.NoteOnEvent(tick=0, channel=3, data=[61, 60]),
   midi.NoteOnEvent(tick=0, channel=3, data=[56, 60]),
   midi.NoteOnEvent(tick=240, channel=3, data=[59, 0]),
   midi.NoteOnEvent(tick=0, channel=3, data=[54, 0]),
   midi.NoteOffEvent(tick=240, channel=3, data=[59, 64]),
   midi.NoteOffEvent(tick=0, channel=3, data=[54, 64]),
   midi.NoteOnEvent(tick=0, channel=3, data=[62, 0]),
   midi.NoteOnEvent(tick=0, channel=3, data=[57, 0]),
   midi.NoteOffEvent(tick=480, channel=3, data=[62, 64]),
   midi.NoteOffEvent(tick=0, channel=3, data=[57, 64]),
   midi.NoteOnEvent(tick=360, channel=3, data=[55, 0]),
   midi.NoteOnEvent(tick=0, channel=3, data=[60, 0]),
   midi.NoteOffEvent(tick=4294966144L, channel=3, data=[55, 64]),
   midi.NoteOffEvent(tick=0, channel=3, data=[60, 64]),
   midi.NoteOffEvent(tick=120, channel=3, data=[61, 64]),
   midi.NoteOffEvent(tick=0, channel=3, data=[56, 64]),
   midi.NoteOnEvent(tick=0, channel=3, data=[55, 100]),
   midi.NoteOnEvent(tick=0, channel=3, data=[60, 100]),
   midi.NoteOffEvent(tick=0, channel=3, data=[61, 64]),
   midi.NoteOffEvent(tick=0, channel=3, data=[56, 64]),
   midi.NoteOffEvent(tick=0, channel=3, data=[61, 64]),
   midi.NoteOffEvent(tick=0, channel=3, data=[56, 64]),
   midi.NoteOffEvent(tick=840, channel=3, data=[55, 64]),
   midi.NoteOffEvent(tick=0, channel=3, data=[60, 64]),
   midi.NoteOnEvent(tick=0, channel=3, data=[59, 100]),
   midi.NoteOnEvent(tick=0, channel=3, data=[54, 100]),
   midi.NoteOffEvent(tick=240, channel=3, data=[59, 64]),
   midi.NoteOffEvent(tick=0, channel=3, data=[54, 64]),
   midi.NoteOnEvent(tick=0, channel=3, data=[62, 100]),
   midi.NoteOnEvent(tick=0, channel=3, data=[57, 100]),
   midi.NoteOffEvent(tick=480, channel=3, data=[62, 64]),
   midi.NoteOffEvent(tick=0, channel=3, data=[57, 64]),
   midi.NoteOnEvent(tick=0, channel=3, data=[61, 100]),
   midi.NoteOnEvent(tick=0, channel=3, data=[56, 100]),
   midi.NoteOffEvent(tick=360, channel=3, data=[61, 64]),
   midi.NoteOffEvent(tick=0, channel=3, data=[56, 64]),
   midi.NoteOnEvent(tick=0, channel=3, data=[55, 100]),
   midi.NoteOnEvent(tick=0, channel=3, data=[60, 100]),
   midi.NoteOffEvent(tick=840, channel=3, data=[55, 64]),
   midi.NoteOffEvent(tick=0, channel=3, data=[60, 64]),
   midi.EndOfTrackEvent(tick=0, data=[])]),
 midi.Track(\
  [midi.TrackNameEvent(tick=0, text='ShotguN GuarD', data=[83, 104, 111, 116, 103, 117, 78, 32, 71, 117, 97, 114, 68]),
   midi.ProgramChangeEvent(tick=0, channel=4, data=[109]),
   midi.NoteOnEvent(tick=24553, channel=4, data=[62, 100]),
   midi.NoteOnEvent(tick=389, channel=4, data=[65, 100]),
   midi.NoteOnEvent(tick=3, channel=4, data=[62, 0]),
   midi.NoteOnEvent(tick=90, channel=4, data=[65, 0]),
   midi.NoteOnEvent(tick=46, channel=4, data=[65, 100]),
   midi.NoteOnEvent(tick=178, channel=4, data=[65, 0]),
   midi.NoteOnEvent(tick=60, channel=4, data=[65, 100]),
   midi.NoteOnEvent(tick=368, channel=4, data=[65, 0]),
   midi.NoteOnEvent(tick=90, channel=4, data=[68, 100]),
   midi.NoteOnEvent(tick=69, channel=4, data=[68, 0]),
   midi.NoteOnEvent(tick=50, channel=4, data=[68, 100]),
   midi.NoteOnEvent(tick=87, channel=4, data=[68, 0]),
   midi.NoteOnEvent(tick=49, channel=4, data=[68, 100]),
   midi.NoteOnEvent(tick=129, channel=4, data=[68, 0]),
   midi.NoteOnEvent(tick=102, channel=4, data=[67, 100]),
   midi.NoteOnEvent(tick=509, channel=4, data=[67, 0]),
   midi.NoteOnEvent(tick=1922, channel=4, data=[64, 100]),
   midi.NoteOnEvent(tick=75, channel=4, data=[64, 0]),
   midi.NoteOnEvent(tick=47, channel=4, data=[64, 100]),
   midi.NoteOnEvent(tick=76, channel=4, data=[64, 0]),
   midi.NoteOnEvent(tick=49, channel=4, data=[64, 100]),
   midi.NoteOnEvent(tick=155, channel=4, data=[64, 0]),
   midi.NoteOnEvent(tick=80, channel=4, data=[63, 100]),
   midi.NoteOnEvent(tick=349, channel=4, data=[63, 0]),
   midi.NoteOnEvent(tick=99, channel=4, data=[67, 100]),
   midi.NoteOnEvent(tick=76, channel=4, data=[67, 0]),
   midi.NoteOnEvent(tick=49, channel=4, data=[67, 100]),
   midi.NoteOnEvent(tick=74, channel=4, data=[67, 0]),
   midi.NoteOnEvent(tick=66, channel=4, data=[67, 100]),
   midi.NoteOnEvent(tick=104, channel=4, data=[67, 0]),
   midi.NoteOnEvent(tick=121, channel=4, data=[70, 100]),
   midi.NoteOnEvent(tick=374, channel=4, data=[70, 0]),
   midi.NoteOnEvent(tick=2157, channel=4, data=[64, 100]),
   midi.NoteOnEvent(tick=182, channel=4, data=[64, 0]),
   midi.NoteOnEvent(tick=50, channel=4, data=[64, 100]),
   midi.NoteOnEvent(tick=109, channel=4, data=[64, 0]),
   midi.NoteOnEvent(tick=27, channel=4, data=[65, 100]),
   midi.NoteOnEvent(tick=225, channel=4, data=[65, 0]),
   midi.NoteOnEvent(tick=18, channel=4, data=[64, 100]),
   midi.NoteOnEvent(tick=150, channel=4, data=[64, 0]),
   midi.NoteOnEvent(tick=177, channel=4, data=[64, 100]),
   midi.NoteOnEvent(tick=68, channel=4, data=[64, 0]),
   midi.NoteOnEvent(tick=64, channel=4, data=[64, 100]),
   midi.NoteOnEvent(tick=124, channel=4, data=[64, 0]),
   midi.NoteOnEvent(tick=98, channel=4, data=[65, 100]),
   midi.NoteOnEvent(tick=227, channel=4, data=[65, 0]),
   midi.NoteOnEvent(tick=37, channel=4, data=[64, 100]),
   midi.NoteOnEvent(tick=147, channel=4, data=[64, 0]),
   midi.NoteOnEvent(tick=193, channel=4, data=[64, 100]),
   midi.NoteOnEvent(tick=173, channel=4, data=[64, 0]),
   midi.NoteOnEvent(tick=70, channel=4, data=[64, 100]),
   midi.NoteOnEvent(tick=103, channel=4, data=[64, 0]),
   midi.NoteOnEvent(tick=44, channel=4, data=[65, 100]),
   midi.NoteOnEvent(tick=288, channel=4, data=[65, 0]),
   midi.NoteOnEvent(tick=41, channel=4, data=[63, 100]),
   midi.NoteOnEvent(tick=163, channel=4, data=[63, 0]),
   midi.NoteOnEvent(tick=82, channel=4, data=[63, 100]),
   midi.NoteOnEvent(tick=160, channel=4, data=[63, 0]),
   midi.NoteOnEvent(tick=68, channel=4, data=[63, 100]),
   midi.NoteOnEvent(tick=89, channel=4, data=[63, 0]),
   midi.NoteOnEvent(tick=52, channel=4, data=[65, 100]),
   midi.NoteOnEvent(tick=188, channel=4, data=[65, 0]),
   midi.NoteOnEvent(tick=69, channel=4, data=[64, 100]),
   midi.NoteOnEvent(tick=147, channel=4, data=[64, 0]),
   midi.NoteOnEvent(tick=192, channel=4, data=[64, 100]),
   midi.NoteOnEvent(tick=167, channel=4, data=[64, 0]),
   midi.NoteOnEvent(tick=88, channel=4, data=[64, 100]),
   midi.NoteOnEvent(tick=91, channel=4, data=[64, 0]),
   midi.NoteOnEvent(tick=43, channel=4, data=[65, 100]),
   midi.NoteOnEvent(tick=215, channel=4, data=[65, 0]),
   midi.NoteOnEvent(tick=48, channel=4, data=[64, 100]),
   midi.NoteOnEvent(tick=130, channel=4, data=[64, 0]),
   midi.NoteOnEvent(tick=183, channel=4, data=[64, 100]),
   midi.NoteOnEvent(tick=81, channel=4, data=[64, 0]),
   midi.NoteOnEvent(tick=48, channel=4, data=[64, 100]),
   midi.NoteOnEvent(tick=117, channel=4, data=[64, 0]),
   midi.NoteOnEvent(tick=119, channel=4, data=[65, 100]),
   midi.NoteOnEvent(tick=204, channel=4, data=[65, 0]),
   midi.NoteOnEvent(tick=52, channel=4, data=[64, 100]),
   midi.NoteOnEvent(tick=141, channel=4, data=[64, 0]),
   midi.NoteOnEvent(tick=186, channel=4, data=[64, 100]),
   midi.NoteOnEvent(tick=177, channel=4, data=[64, 0]),
   midi.NoteOnEvent(tick=61, channel=4, data=[64, 100]),
   midi.NoteOnEvent(tick=110, channel=4, data=[64, 0]),
   midi.NoteOnEvent(tick=35, channel=4, data=[65, 100]),
   midi.NoteOnEvent(tick=285, channel=4, data=[65, 0]),
   midi.NoteOnEvent(tick=46, channel=4, data=[63, 100]),
   midi.NoteOnEvent(tick=126, channel=4, data=[63, 0]),
   midi.NoteOnEvent(tick=22144, channel=4, data=[60, 100]),
   midi.NoteOnEvent(tick=65, channel=4, data=[62, 100]),
   midi.NoteOnEvent(tick=13, channel=4, data=[60, 0]),
   midi.NoteOnEvent(tick=87, channel=4, data=[62, 0]),
   midi.NoteOnEvent(tick=33, channel=4, data=[62, 100]),
   midi.NoteOnEvent(tick=81, channel=4, data=[62, 0]),
   midi.NoteOnEvent(tick=32, channel=4, data=[62, 100]),
   midi.NoteOnEvent(tick=82, channel=4, data=[62, 0]),
   midi.NoteOnEvent(tick=40, channel=4, data=[62, 100]),
   midi.NoteOnEvent(tick=138, channel=4, data=[62, 0]),
   midi.NoteOnEvent(tick=106, channel=4, data=[63, 100]),
   midi.NoteOnEvent(tick=251, channel=4, data=[63, 0]),
   midi.NoteOnEvent(tick=927, channel=4, data=[63, 100]),
   midi.NoteOnEvent(tick=112, channel=4, data=[65, 100]),
   midi.NoteOnEvent(tick=12, channel=4, data=[63, 0]),
   midi.NoteOnEvent(tick=82, channel=4, data=[65, 0]),
   midi.NoteOnEvent(tick=50, channel=4, data=[66, 100]),
   midi.NoteOnEvent(tick=88, channel=4, data=[66, 0]),
   midi.NoteOnEvent(tick=39, channel=4, data=[66, 100]),
   midi.NoteOnEvent(tick=62, channel=4, data=[66, 0]),
   midi.NoteOnEvent(tick=58, channel=4, data=[66, 100]),
   midi.NoteOnEvent(tick=140, channel=4, data=[66, 0]),
   midi.NoteOnEvent(tick=101, channel=4, data=[66, 100]),
   midi.NoteOnEvent(tick=207, channel=4, data=[66, 0]),
   midi.NoteOnEvent(tick=947, channel=4, data=[71, 100]),
   midi.NoteOnEvent(tick=68, channel=4, data=[71, 0]),
   midi.NoteOnEvent(tick=52, channel=4, data=[71, 100]),
   midi.NoteOnEvent(tick=74, channel=4, data=[71, 0]),
   midi.NoteOnEvent(tick=53, channel=4, data=[71, 100]),
   midi.NoteOnEvent(tick=94, channel=4, data=[71, 0]),
   midi.NoteOnEvent(tick=70, channel=4, data=[71, 100]),
   midi.NoteOnEvent(tick=76, channel=4, data=[71, 0]),
   midi.NoteOnEvent(tick=31, channel=4, data=[72, 100]),
   midi.NoteOnEvent(tick=197, channel=4, data=[72, 0]),
   midi.NoteOnEvent(tick=60, channel=4, data=[70, 100]),
   midi.NoteOnEvent(tick=212, channel=4, data=[70, 0]),
   midi.NoteOnEvent(tick=1098, channel=4, data=[64, 100]),
   midi.NoteOnEvent(tick=182, channel=4, data=[64, 0]),
   midi.NoteOnEvent(tick=50, channel=4, data=[64, 100]),
   midi.NoteOnEvent(tick=109, channel=4, data=[64, 0]),
   midi.NoteOnEvent(tick=27, channel=4, data=[65, 100]),
   midi.NoteOnEvent(tick=225, channel=4, data=[65, 0]),
   midi.NoteOnEvent(tick=18, channel=4, data=[64, 100]),
   midi.NoteOnEvent(tick=150, channel=4, data=[64, 0]),
   midi.NoteOnEvent(tick=177, channel=4, data=[64, 100]),
   midi.NoteOnEvent(tick=68, channel=4, data=[64, 0]),
   midi.NoteOnEvent(tick=64, channel=4, data=[64, 100]),
   midi.NoteOnEvent(tick=124, channel=4, data=[64, 0]),
   midi.NoteOnEvent(tick=98, channel=4, data=[65, 100]),
   midi.NoteOnEvent(tick=227, channel=4, data=[65, 0]),
   midi.NoteOnEvent(tick=37, channel=4, data=[64, 100]),
   midi.NoteOnEvent(tick=147, channel=4, data=[64, 0]),
   midi.NoteOnEvent(tick=193, channel=4, data=[64, 100]),
   midi.NoteOnEvent(tick=173, channel=4, data=[64, 0]),
   midi.NoteOnEvent(tick=70, channel=4, data=[64, 100]),
   midi.NoteOnEvent(tick=103, channel=4, data=[64, 0]),
   midi.NoteOnEvent(tick=44, channel=4, data=[65, 100]),
   midi.NoteOnEvent(tick=288, channel=4, data=[65, 0]),
   midi.NoteOnEvent(tick=41, channel=4, data=[63, 100]),
   midi.NoteOnEvent(tick=163, channel=4, data=[63, 0]),
   midi.NoteOnEvent(tick=82, channel=4, data=[63, 100]),
   midi.NoteOnEvent(tick=160, channel=4, data=[63, 0]),
   midi.NoteOnEvent(tick=68, channel=4, data=[63, 100]),
   midi.NoteOnEvent(tick=89, channel=4, data=[63, 0]),
   midi.NoteOnEvent(tick=52, channel=4, data=[65, 100]),
   midi.NoteOnEvent(tick=188, channel=4, data=[65, 0]),
   midi.NoteOnEvent(tick=69, channel=4, data=[64, 100]),
   midi.NoteOnEvent(tick=147, channel=4, data=[64, 0]),
   midi.NoteOnEvent(tick=192, channel=4, data=[64, 100]),
   midi.NoteOnEvent(tick=167, channel=4, data=[64, 0]),
   midi.NoteOnEvent(tick=88, channel=4, data=[64, 100]),
   midi.NoteOnEvent(tick=91, channel=4, data=[64, 0]),
   midi.NoteOnEvent(tick=43, channel=4, data=[65, 100]),
   midi.NoteOnEvent(tick=215, channel=4, data=[65, 0]),
   midi.NoteOnEvent(tick=48, channel=4, data=[64, 100]),
   midi.NoteOnEvent(tick=130, channel=4, data=[64, 0]),
   midi.NoteOnEvent(tick=183, channel=4, data=[64, 100]),
   midi.NoteOnEvent(tick=81, channel=4, data=[64, 0]),
   midi.NoteOnEvent(tick=48, channel=4, data=[64, 100]),
   midi.NoteOnEvent(tick=117, channel=4, data=[64, 0]),
   midi.NoteOnEvent(tick=119, channel=4, data=[65, 100]),
   midi.NoteOnEvent(tick=204, channel=4, data=[65, 0]),
   midi.NoteOnEvent(tick=52, channel=4, data=[64, 100]),
   midi.NoteOnEvent(tick=141, channel=4, data=[64, 0]),
   midi.NoteOnEvent(tick=186, channel=4, data=[64, 100]),
   midi.NoteOnEvent(tick=177, channel=4, data=[64, 0]),
   midi.NoteOnEvent(tick=61, channel=4, data=[64, 100]),
   midi.NoteOnEvent(tick=110, channel=4, data=[64, 0]),
   midi.NoteOnEvent(tick=35, channel=4, data=[65, 100]),
   midi.NoteOnEvent(tick=285, channel=4, data=[65, 0]),
   midi.NoteOnEvent(tick=46, channel=4, data=[63, 100]),
   midi.NoteOnEvent(tick=126, channel=4, data=[63, 0]),
   midi.NoteOnEvent(tick=36622, channel=4, data=[64, 100]),
   midi.NoteOnEvent(tick=182, channel=4, data=[64, 0]),
   midi.NoteOnEvent(tick=50, channel=4, data=[64, 100]),
   midi.NoteOnEvent(tick=109, channel=4, data=[64, 0]),
   midi.NoteOnEvent(tick=27, channel=4, data=[65, 100]),
   midi.NoteOnEvent(tick=225, channel=4, data=[65, 0]),
   midi.NoteOnEvent(tick=18, channel=4, data=[64, 100]),
   midi.NoteOnEvent(tick=150, channel=4, data=[64, 0]),
   midi.NoteOnEvent(tick=177, channel=4, data=[64, 100]),
   midi.NoteOnEvent(tick=68, channel=4, data=[64, 0]),
   midi.NoteOnEvent(tick=64, channel=4, data=[64, 100]),
   midi.NoteOnEvent(tick=124, channel=4, data=[64, 0]),
   midi.NoteOnEvent(tick=98, channel=4, data=[65, 100]),
   midi.NoteOnEvent(tick=227, channel=4, data=[65, 0]),
   midi.NoteOnEvent(tick=37, channel=4, data=[64, 100]),
   midi.NoteOnEvent(tick=147, channel=4, data=[64, 0]),
   midi.NoteOnEvent(tick=193, channel=4, data=[64, 100]),
   midi.NoteOnEvent(tick=173, channel=4, data=[64, 0]),
   midi.NoteOnEvent(tick=70, channel=4, data=[64, 100]),
   midi.NoteOnEvent(tick=103, channel=4, data=[64, 0]),
   midi.NoteOnEvent(tick=44, channel=4, data=[65, 100]),
   midi.NoteOnEvent(tick=288, channel=4, data=[65, 0]),
   midi.NoteOnEvent(tick=41, channel=4, data=[63, 100]),
   midi.NoteOnEvent(tick=163, channel=4, data=[63, 0]),
   midi.NoteOnEvent(tick=82, channel=4, data=[63, 100]),
   midi.NoteOnEvent(tick=160, channel=4, data=[63, 0]),
   midi.NoteOnEvent(tick=68, channel=4, data=[63, 100]),
   midi.NoteOnEvent(tick=89, channel=4, data=[63, 0]),
   midi.NoteOnEvent(tick=52, channel=4, data=[65, 100]),
   midi.NoteOnEvent(tick=188, channel=4, data=[65, 0]),
   midi.NoteOnEvent(tick=69, channel=4, data=[64, 100]),
   midi.NoteOnEvent(tick=147, channel=4, data=[64, 0]),
   midi.NoteOnEvent(tick=192, channel=4, data=[64, 100]),
   midi.NoteOnEvent(tick=167, channel=4, data=[64, 0]),
   midi.NoteOnEvent(tick=88, channel=4, data=[64, 100]),
   midi.NoteOnEvent(tick=91, channel=4, data=[64, 0]),
   midi.NoteOnEvent(tick=43, channel=4, data=[65, 100]),
   midi.NoteOnEvent(tick=215, channel=4, data=[65, 0]),
   midi.NoteOnEvent(tick=48, channel=4, data=[64, 100]),
   midi.NoteOnEvent(tick=130, channel=4, data=[64, 0]),
   midi.NoteOnEvent(tick=183, channel=4, data=[64, 100]),
   midi.NoteOnEvent(tick=81, channel=4, data=[64, 0]),
   midi.NoteOnEvent(tick=48, channel=4, data=[64, 100]),
   midi.NoteOnEvent(tick=117, channel=4, data=[64, 0]),
   midi.NoteOnEvent(tick=119, channel=4, data=[65, 100]),
   midi.NoteOnEvent(tick=204, channel=4, data=[65, 0]),
   midi.NoteOnEvent(tick=52, channel=4, data=[64, 100]),
   midi.NoteOnEvent(tick=141, channel=4, data=[64, 0]),
   midi.NoteOnEvent(tick=186, channel=4, data=[64, 100]),
   midi.NoteOnEvent(tick=177, channel=4, data=[64, 0]),
   midi.NoteOnEvent(tick=61, channel=4, data=[64, 100]),
   midi.NoteOnEvent(tick=110, channel=4, data=[64, 0]),
   midi.NoteOnEvent(tick=35, channel=4, data=[65, 100]),
   midi.NoteOnEvent(tick=285, channel=4, data=[65, 0]),
   midi.NoteOnEvent(tick=46, channel=4, data=[63, 100]),
   midi.NoteOnEvent(tick=126, channel=4, data=[63, 0]),
   midi.EndOfTrackEvent(tick=0, data=[])]),
 midi.Track(\
  [midi.TrackNameEvent(tick=0, text='forbtower@yahoo.com', data=[102, 111, 114, 98, 116, 111, 119, 101, 114, 64, 121, 97, 104, 111, 111, 46, 99, 111, 109]),
   midi.ProgramChangeEvent(tick=0, channel=5, data=[97]),
   midi.NoteOnEvent(tick=185, channel=5, data=[69, 100]),
   midi.NoteOnEvent(tick=246, channel=5, data=[69, 0]),
   midi.NoteOnEvent(tick=526, channel=5, data=[68, 100]),
   midi.NoteOnEvent(tick=102, channel=5, data=[68, 0]),
   midi.NoteOnEvent(tick=795, channel=5, data=[69, 100]),
   midi.NoteOnEvent(tick=164, channel=5, data=[69, 0]),
   midi.NoteOnEvent(tick=705, channel=5, data=[68, 100]),
   midi.NoteOnEvent(tick=95, channel=5, data=[68, 0]),
   midi.NoteOnEvent(tick=747, channel=5, data=[69, 100]),
   midi.NoteOnEvent(tick=153, channel=5, data=[69, 0]),
   midi.NoteOnEvent(tick=698, channel=5, data=[68, 100]),
   midi.NoteOnEvent(tick=116, channel=5, data=[68, 0]),
   midi.NoteOnEvent(tick=93497, channel=5, data=[50, 100]),
   midi.NoteOnEvent(tick=50, channel=5, data=[50, 0]),
   midi.NoteOnEvent(tick=18, channel=5, data=[48, 100]),
   midi.NoteOnEvent(tick=53, channel=5, data=[48, 0]),
   midi.NoteOnEvent(tick=98, channel=5, data=[50, 100]),
   midi.NoteOnEvent(tick=54, channel=5, data=[50, 0]),
   midi.NoteOnEvent(tick=114, channel=5, data=[48, 100]),
   midi.NoteOnEvent(tick=35, channel=5, data=[48, 0]),
   midi.NoteOnEvent(tick=51, channel=5, data=[50, 100]),
   midi.NoteOnEvent(tick=67, channel=5, data=[49, 100]),
   midi.NoteOnEvent(tick=5, channel=5, data=[50, 0]),
   midi.NoteOnEvent(tick=1, channel=5, data=[49, 0]),
   midi.NoteOnEvent(tick=7, channel=5, data=[49, 100]),
   midi.NoteOnEvent(tick=11, channel=5, data=[49, 0]),
   midi.NoteOnEvent(tick=129, channel=5, data=[52, 100]),
   midi.NoteOnEvent(tick=59, channel=5, data=[52, 0]),
   midi.NoteOnEvent(tick=4, channel=5, data=[49, 100]),
   midi.NoteOnEvent(tick=58, channel=5, data=[49, 0]),
   midi.NoteOnEvent(tick=58, channel=5, data=[52, 100]),
   midi.NoteOnEvent(tick=57, channel=5, data=[52, 0]),
   midi.NoteOnEvent(tick=83, channel=5, data=[46, 100]),
   midi.NoteOnEvent(tick=4, channel=5, data=[46, 0]),
   midi.NoteOnEvent(tick=185, channel=5, data=[46, 100]),
   midi.NoteOnEvent(tick=104, channel=5, data=[46, 0]),
   midi.NoteOnEvent(tick=82, channel=5, data=[50, 100]),
   midi.NoteOnEvent(tick=14, channel=5, data=[50, 0]),
   midi.NoteOnEvent(tick=8, channel=5, data=[51, 100]),
   midi.NoteOnEvent(tick=4, channel=5, data=[51, 0]),
   midi.NoteOnEvent(tick=5, channel=5, data=[51, 100]),
   midi.NoteOnEvent(tick=52, channel=5, data=[51, 0]),
   midi.NoteOnEvent(tick=75, channel=5, data=[46, 100]),
   midi.NoteOnEvent(tick=56, channel=5, data=[46, 0]),
   midi.NoteOnEvent(tick=134, channel=5, data=[45, 100]),
   midi.NoteOnEvent(tick=54, channel=5, data=[45, 0]),
   midi.NoteOnEvent(tick=47, channel=5, data=[52, 100]),
   midi.NoteOnEvent(tick=63, channel=5, data=[52, 0]),
   midi.NoteOnEvent(tick=268, channel=5, data=[53, 100]),
   midi.NoteOnEvent(tick=20, channel=5, data=[53, 0]),
   midi.NoteOnEvent(tick=94, channel=5, data=[53, 100]),
   midi.NoteOnEvent(tick=78, channel=5, data=[53, 0]),
   midi.NoteOnEvent(tick=56, channel=5, data=[51, 100]),
   midi.NoteOnEvent(tick=62, channel=5, data=[51, 0]),
   midi.NoteOnEvent(tick=95, channel=5, data=[45, 100]),
   midi.NoteOnEvent(tick=28, channel=5, data=[45, 0]),
   midi.NoteOnEvent(tick=122, channel=5, data=[53, 100]),
   midi.NoteOnEvent(tick=96, channel=5, data=[53, 0]),
   midi.NoteOnEvent(tick=157, channel=5, data=[54, 100]),
   midi.NoteOnEvent(tick=48, channel=5, data=[54, 0]),
   midi.NoteOnEvent(tick=86, channel=5, data=[54, 100]),
   midi.NoteOnEvent(tick=34, channel=5, data=[54, 0]),
   midi.NoteOnEvent(tick=209, channel=5, data=[53, 100]),
   midi.NoteOnEvent(tick=79, channel=5, data=[53, 0]),
   midi.NoteOnEvent(tick=51, channel=5, data=[44, 100]),
   midi.NoteOnEvent(tick=53, channel=5, data=[44, 0]),
   midi.NoteOnEvent(tick=131, channel=5, data=[41, 100]),
   midi.NoteOnEvent(tick=27, channel=5, data=[41, 0]),
   midi.NoteOnEvent(tick=185, channel=5, data=[41, 100]),
   midi.NoteOnEvent(tick=70, channel=5, data=[41, 0]),
   midi.NoteOnEvent(tick=67, channel=5, data=[50, 100]),
   midi.NoteOnEvent(tick=52, channel=5, data=[50, 0]),
   midi.NoteOnEvent(tick=88, channel=5, data=[49, 100]),
   midi.NoteOnEvent(tick=33, channel=5, data=[49, 0]),
   midi.NoteOnEvent(tick=38, channel=5, data=[49, 100]),
   midi.NoteOnEvent(tick=20, channel=5, data=[49, 0]),
   midi.NoteOnEvent(tick=87, channel=5, data=[38, 100]),
   midi.NoteOnEvent(tick=29, channel=5, data=[38, 0]),
   midi.NoteOnEvent(tick=105, channel=5, data=[38, 100]),
   midi.NoteOnEvent(tick=91, channel=5, data=[38, 0]),
   midi.NoteOnEvent(tick=191, channel=5, data=[47, 100]),
   midi.NoteOnEvent(tick=58, channel=5, data=[47, 0]),
   midi.NoteOnEvent(tick=104, channel=5, data=[48, 100]),
   midi.NoteOnEvent(tick=20, channel=5, data=[48, 0]),
   midi.NoteOnEvent(tick=161, channel=5, data=[48, 100]),
   midi.NoteOnEvent(tick=41, channel=5, data=[46, 100]),
   midi.NoteOnEvent(tick=23, channel=5, data=[46, 0]),
   midi.NoteOnEvent(tick=36, channel=5, data=[48, 0]),
   midi.NoteOnEvent(tick=49, channel=5, data=[40, 100]),
   midi.NoteOnEvent(tick=1, channel=5, data=[38, 100]),
   midi.NoteOnEvent(tick=24, channel=5, data=[38, 0]),
   midi.NoteOnEvent(tick=10, channel=5, data=[40, 0]),
   midi.NoteOnEvent(tick=17, channel=5, data=[48, 100]),
   midi.NoteOnEvent(tick=76, channel=5, data=[48, 0]),
   midi.NoteOnEvent(tick=58, channel=5, data=[36, 100]),
   midi.NoteOnEvent(tick=59, channel=5, data=[36, 0]),
   midi.NoteOnEvent(tick=64, channel=5, data=[48, 100]),
   midi.NoteOnEvent(tick=92, channel=5, data=[48, 0]),
   midi.NoteOnEvent(tick=223, channel=5, data=[48, 100]),
   midi.NoteOnEvent(tick=92, channel=5, data=[48, 0]),
   midi.NoteOnEvent(tick=26, channel=5, data=[44, 100]),
   midi.NoteOnEvent(tick=46, channel=5, data=[44, 0]),
   midi.NoteOnEvent(tick=60, channel=5, data=[48, 100]),
   midi.NoteOnEvent(tick=44, channel=5, data=[48, 0]),
   midi.NoteOnEvent(tick=115, channel=5, data=[40, 100]),
   midi.NoteOnEvent(tick=29, channel=5, data=[40, 0]),
   midi.NoteOnEvent(tick=88, channel=5, data=[48, 100]),
   midi.NoteOnEvent(tick=72, channel=5, data=[48, 0]),
   midi.NoteOnEvent(tick=59, channel=5, data=[44, 100]),
   midi.NoteOnEvent(tick=45, channel=5, data=[44, 0]),
   midi.NoteOnEvent(tick=67, channel=5, data=[48, 100]),
   midi.NoteOnEvent(tick=45, channel=5, data=[41, 100]),
   midi.NoteOnEvent(tick=16, channel=5, data=[48, 0]),
   midi.NoteOnEvent(tick=79, channel=5, data=[41, 0]),
   midi.NoteOnEvent(tick=11, channel=5, data=[48, 100]),
   midi.NoteOnEvent(tick=61, channel=5, data=[48, 0]),
   midi.NoteOnEvent(tick=43, channel=5, data=[44, 100]),
   midi.NoteOnEvent(tick=60, channel=5, data=[44, 0]),
   midi.NoteOnEvent(tick=61, channel=5, data=[46, 100]),
   midi.NoteOnEvent(tick=39, channel=5, data=[46, 0]),
   midi.NoteOnEvent(tick=117, channel=5, data=[40, 100]),
   midi.NoteOnEvent(tick=23, channel=5, data=[40, 0]),
   midi.NoteOnEvent(tick=93, channel=5, data=[46, 100]),
   midi.NoteOnEvent(tick=5, channel=5, data=[48, 100]),
   midi.NoteOnEvent(tick=1, channel=5, data=[46, 0]),
   midi.NoteOnEvent(tick=49, channel=5, data=[48, 0]),
   midi.NoteOnEvent(tick=64, channel=5, data=[40, 100]),
   midi.NoteOnEvent(tick=11, channel=5, data=[44, 100]),
   midi.NoteOnEvent(tick=38, channel=5, data=[40, 0]),
   midi.NoteOnEvent(tick=9, channel=5, data=[44, 0]),
   midi.NoteOnEvent(tick=75, channel=5, data=[47, 100]),
   midi.NoteOnEvent(tick=49, channel=5, data=[47, 0]),
   midi.NoteOnEvent(tick=53, channel=5, data=[44, 100]),
   midi.NoteOnEvent(tick=54, channel=5, data=[44, 0]),
   midi.NoteOnEvent(tick=92, channel=5, data=[47, 100]),
   midi.NoteOnEvent(tick=47, channel=5, data=[47, 0]),
   midi.NoteOnEvent(tick=185, channel=5, data=[47, 100]),
   midi.NoteOnEvent(tick=63, channel=5, data=[47, 0]),
   midi.NoteOnEvent(tick=54, channel=5, data=[44, 100]),
   midi.NoteOnEvent(tick=46, channel=5, data=[44, 0]),
   midi.NoteOnEvent(tick=124, channel=5, data=[47, 100]),
   midi.NoteOnEvent(tick=2, channel=5, data=[44, 100]),
   midi.NoteOnEvent(tick=7, channel=5, data=[44, 0]),
   midi.NoteOnEvent(tick=4, channel=5, data=[44, 100]),
   midi.NoteOnEvent(tick=15, channel=5, data=[44, 0]),
   midi.NoteOnEvent(tick=39, channel=5, data=[47, 0]),
   midi.EndOfTrackEvent(tick=0, data=[])]),
 midi.Track(\
  [midi.TrackNameEvent(tick=0, text='or avoird@concepts.nl', data=[111, 114, 32, 97, 118, 111, 105, 114, 100, 64, 99, 111, 110, 99, 101, 112, 116, 115, 46, 110, 108]),
   midi.ProgramChangeEvent(tick=0, channel=6, data=[100]),
   midi.NoteOnEvent(tick=720, channel=6, data=[77, 100]),
   midi.NoteOnEvent(tick=29, channel=6, data=[79, 100]),
   midi.NoteOnEvent(tick=6, channel=6, data=[81, 100]),
   midi.NoteOnEvent(tick=35, channel=6, data=[77, 0]),
   midi.NoteOnEvent(tick=17, channel=6, data=[79, 0]),
   midi.NoteOnEvent(tick=9, channel=6, data=[81, 0]),
   midi.NoteOnEvent(tick=333, channel=6, data=[77, 100]),
   midi.NoteOnEvent(tick=31, channel=6, data=[81, 100]),
   midi.NoteOnEvent(tick=3, channel=6, data=[79, 100]),
   midi.NoteOnEvent(tick=44, channel=6, data=[77, 0]),
   midi.NoteOnEvent(tick=10, channel=6, data=[79, 0]),
   midi.NoteOnEvent(tick=22, channel=6, data=[81, 0]),
   midi.NoteOnEvent(tick=363, channel=6, data=[72, 100]),
   midi.NoteOnEvent(tick=23, channel=6, data=[76, 100]),
   midi.NoteOnEvent(tick=2, channel=6, data=[74, 100]),
   midi.NoteOnEvent(tick=30, channel=6, data=[72, 0]),
   midi.NoteOnEvent(tick=22, channel=6, data=[74, 0]),
   midi.NoteOnEvent(tick=9, channel=6, data=[76, 0]),
   midi.NoteOnEvent(tick=539, channel=6, data=[77, 100]),
   midi.NoteOnEvent(tick=32, channel=6, data=[79, 100]),
   midi.NoteOnEvent(tick=4, channel=6, data=[81, 100]),
   midi.NoteOnEvent(tick=58, channel=6, data=[77, 0]),
   midi.NoteOnEvent(tick=3, channel=6, data=[79, 0]),
   midi.NoteOnEvent(tick=34, channel=6, data=[81, 0]),
   midi.NoteOnEvent(tick=354, channel=6, data=[77, 100]),
   midi.NoteOnEvent(tick=28, channel=6, data=[79, 100]),
   midi.NoteOnEvent(tick=4, channel=6, data=[81, 100]),
   midi.NoteOnEvent(tick=50, channel=6, data=[77, 0]),
   midi.NoteOnEvent(tick=18, channel=6, data=[79, 0]),
   midi.NoteOnEvent(tick=6, channel=6, data=[81, 0]),
   midi.NoteOnEvent(tick=392, channel=6, data=[72, 100]),
   midi.NoteOnEvent(tick=15, channel=6, data=[74, 100]),
   midi.NoteOnEvent(tick=3, channel=6, data=[76, 100]),
   midi.NoteOnEvent(tick=48, channel=6, data=[72, 0]),
   midi.NoteOnEvent(tick=13, channel=6, data=[74, 0]),
   midi.NoteOnEvent(tick=15, channel=6, data=[76, 0]),
   midi.NoteOnEvent(tick=594, channel=6, data=[77, 100]),
   midi.NoteOnEvent(tick=26, channel=6, data=[79, 100]),
   midi.NoteOnEvent(tick=1, channel=6, data=[81, 100]),
   midi.NoteOnEvent(tick=57, channel=6, data=[77, 0]),
   midi.NoteOnEvent(tick=7, channel=6, data=[79, 0]),
   midi.NoteOnEvent(tick=9, channel=6, data=[81, 0]),
   midi.NoteOnEvent(tick=287, channel=6, data=[77, 100]),
   midi.NoteOnEvent(tick=25, channel=6, data=[81, 100]),
   midi.NoteOnEvent(tick=0, channel=6, data=[79, 100]),
   midi.NoteOnEvent(tick=70, channel=6, data=[77, 0]),
   midi.NoteOnEvent(tick=2, channel=6, data=[81, 0]),
   midi.NoteOnEvent(tick=6, channel=6, data=[79, 0]),
   midi.NoteOnEvent(tick=15752, channel=6, data=[83, 100]),
   midi.NoteOnEvent(tick=12, channel=6, data=[84, 100]),
   midi.NoteOnEvent(tick=791, channel=6, data=[83, 0]),
   midi.NoteOnEvent(tick=11, channel=6, data=[84, 0]),
   midi.NoteOnEvent(tick=76934, channel=6, data=[72, 100]),
   midi.NoteOnEvent(tick=136, channel=6, data=[72, 0]),
   midi.NoteOnEvent(tick=232, channel=6, data=[74, 100]),
   midi.NoteOnEvent(tick=79, channel=6, data=[74, 0]),
   midi.NoteOnEvent(tick=57, channel=6, data=[72, 100]),
   midi.NoteOnEvent(tick=105, channel=6, data=[72, 0]),
   midi.NoteOnEvent(tick=162, channel=6, data=[71, 100]),
   midi.NoteOnEvent(tick=97, channel=6, data=[71, 0]),
   midi.NoteOnEvent(tick=145, channel=6, data=[72, 100]),
   midi.NoteOnEvent(tick=85, channel=6, data=[72, 0]),
   midi.NoteOnEvent(tick=314, channel=6, data=[74, 100]),
   midi.NoteOnEvent(tick=56, channel=6, data=[74, 0]),
   midi.NoteOnEvent(tick=71, channel=6, data=[72, 100]),
   midi.NoteOnEvent(tick=76, channel=6, data=[72, 0]),
   midi.NoteOnEvent(tick=177, channel=6, data=[71, 100]),
   midi.NoteOnEvent(tick=96, channel=6, data=[71, 0]),
   midi.NoteOnEvent(tick=152, channel=6, data=[72, 100]),
   midi.NoteOnEvent(tick=85, channel=6, data=[72, 0]),
   midi.NoteOnEvent(tick=322, channel=6, data=[74, 100]),
   midi.NoteOnEvent(tick=59, channel=6, data=[74, 0]),
   midi.NoteOnEvent(tick=65, channel=6, data=[72, 100]),
   midi.NoteOnEvent(tick=77, channel=6, data=[72, 0]),
   midi.NoteOnEvent(tick=201, channel=6, data=[71, 100]),
   midi.NoteOnEvent(tick=90, channel=6, data=[71, 0]),
   midi.NoteOnEvent(tick=153, channel=6, data=[72, 100]),
   midi.NoteOnEvent(tick=79, channel=6, data=[72, 0]),
   midi.NoteOnEvent(tick=319, channel=6, data=[74, 100]),
   midi.NoteOnEvent(tick=59, channel=6, data=[74, 0]),
   midi.NoteOnEvent(tick=63, channel=6, data=[72, 100]),
   midi.NoteOnEvent(tick=76, channel=6, data=[72, 0]),
   midi.NoteOnEvent(tick=198, channel=6, data=[71, 100]),
   midi.NoteOnEvent(tick=67, channel=6, data=[71, 0]),
   midi.NoteOnEvent(tick=194, channel=6, data=[72, 100]),
   midi.NoteOnEvent(tick=78, channel=6, data=[72, 0]),
   midi.NoteOnEvent(tick=333, channel=6, data=[74, 100]),
   midi.NoteOnEvent(tick=51, channel=6, data=[74, 0]),
   midi.NoteOnEvent(tick=87, channel=6, data=[72, 100]),
   midi.NoteOnEvent(tick=71, channel=6, data=[72, 0]),
   midi.NoteOnEvent(tick=206, channel=6, data=[71, 100]),
   midi.NoteOnEvent(tick=88, channel=6, data=[71, 0]),
   midi.NoteOnEvent(tick=177, channel=6, data=[72, 100]),
   midi.NoteOnEvent(tick=69, channel=6, data=[72, 0]),
   midi.NoteOnEvent(tick=327, channel=6, data=[74, 100]),
   midi.NoteOnEvent(tick=57, channel=6, data=[74, 0]),
   midi.NoteOnEvent(tick=85, channel=6, data=[72, 100]),
   midi.NoteOnEvent(tick=60, channel=6, data=[72, 0]),
   midi.NoteOnEvent(tick=209, channel=6, data=[71, 100]),
   midi.NoteOnEvent(tick=87, channel=6, data=[71, 0]),
   midi.NoteOnEvent(tick=162, channel=6, data=[72, 100]),
   midi.NoteOnEvent(tick=72, channel=6, data=[72, 0]),
   midi.NoteOnEvent(tick=312, channel=6, data=[74, 100]),
   midi.NoteOnEvent(tick=64, channel=6, data=[74, 0]),
   midi.NoteOnEvent(tick=74, channel=6, data=[72, 100]),
   midi.NoteOnEvent(tick=76, channel=6, data=[72, 0]),
   midi.NoteOnEvent(tick=182, channel=6, data=[71, 100]),
   midi.NoteOnEvent(tick=87, channel=6, data=[71, 0]),
   midi.NoteOnEvent(tick=154, channel=6, data=[72, 100]),
   midi.NoteOnEvent(tick=73, channel=6, data=[72, 0]),
   midi.NoteOnEvent(tick=296, channel=6, data=[74, 100]),
   midi.NoteOnEvent(tick=60, channel=6, data=[74, 0]),
   midi.NoteOnEvent(tick=63, channel=6, data=[72, 100]),
   midi.NoteOnEvent(tick=72, channel=6, data=[72, 0]),
   midi.NoteOnEvent(tick=202, channel=6, data=[71, 100]),
   midi.NoteOnEvent(tick=103, channel=6, data=[71, 0]),
   midi.EndOfTrackEvent(tick=0, data=[])]),
 midi.Track(\
  [midi.TrackNameEvent(tick=0, text='THIS WAS A REAL HARD', data=[84, 72, 73, 83, 32, 87, 65, 83, 32, 65, 32, 82, 69, 65, 76, 32, 72, 65, 82, 68]),
   midi.ProgramChangeEvent(tick=0, channel=7, data=[73]),
   midi.NoteOnEvent(tick=1494, channel=7, data=[77, 100]),
   midi.NoteOnEvent(tick=115, channel=7, data=[78, 100]),
   midi.NoteOnEvent(tick=18, channel=7, data=[77, 0]),
   midi.NoteOnEvent(tick=81, channel=7, data=[78, 0]),
   midi.NoteOnEvent(tick=11, channel=7, data=[77, 100]),
   midi.NoteOnEvent(tick=109, channel=7, data=[74, 100]),
   midi.NoteOnEvent(tick=18, channel=7, data=[77, 0]),
   midi.NoteOnEvent(tick=28, channel=7, data=[73, 100]),
   midi.NoteOnEvent(tick=23, channel=7, data=[74, 0]),
   midi.NoteOnEvent(tick=95, channel=7, data=[73, 0]),
   midi.NoteOnEvent(tick=0, channel=7, data=[74, 100]),
   midi.NoteOnEvent(tick=123, channel=7, data=[74, 0]),
   midi.NoteOnEvent(tick=350, channel=7, data=[74, 100]),
   midi.NoteOnEvent(tick=100, channel=7, data=[74, 0]),
   midi.NoteOnEvent(tick=8, channel=7, data=[73, 100]),
   midi.NoteOnEvent(tick=169, channel=7, data=[73, 0]),
   midi.NoteOnEvent(tick=30, channel=7, data=[74, 100]),
   midi.NoteOnEvent(tick=163, channel=7, data=[74, 0]),
   midi.NoteOnEvent(tick=22, channel=7, data=[72, 100]),
   midi.NoteOnEvent(tick=106, channel=7, data=[73, 100]),
   midi.NoteOnEvent(tick=52, channel=7, data=[72, 0]),
   midi.NoteOnEvent(tick=22, channel=7, data=[74, 100]),
   midi.NoteOnEvent(tick=7, channel=7, data=[73, 0]),
   midi.NoteOnEvent(tick=223, channel=7, data=[74, 0]),
   midi.NoteOnEvent(tick=70646, channel=7, data=[64, 100]),
   midi.NoteOnEvent(tick=77, channel=7, data=[64, 0]),
   midi.NoteOnEvent(tick=29, channel=7, data=[64, 100]),
   midi.NoteOnEvent(tick=97, channel=7, data=[64, 0]),
   midi.NoteOnEvent(tick=7, channel=7, data=[63, 100]),
   midi.NoteOnEvent(tick=80, channel=7, data=[63, 0]),
   midi.NoteOnEvent(tick=9, channel=7, data=[64, 100]),
   midi.NoteOnEvent(tick=80, channel=7, data=[64, 0]),
   midi.NoteOnEvent(tick=23, channel=7, data=[62, 100]),
   midi.NoteOnEvent(tick=67, channel=7, data=[61, 100]),
   midi.NoteOnEvent(tick=14, channel=7, data=[62, 0]),
   midi.NoteOnEvent(tick=77, channel=7, data=[62, 100]),
   midi.NoteOnEvent(tick=14, channel=7, data=[61, 0]),
   midi.NoteOnEvent(tick=73, channel=7, data=[62, 0]),
   midi.NoteOnEvent(tick=39, channel=7, data=[63, 100]),
   midi.NoteOnEvent(tick=87, channel=7, data=[64, 100]),
   midi.NoteOnEvent(tick=12, channel=7, data=[63, 0]),
   midi.NoteOnEvent(tick=87, channel=7, data=[64, 0]),
   midi.EndOfTrackEvent(tick=0, data=[])]),
 midi.Track(\
  [midi.TrackNameEvent(tick=0, text='ONE! THE SONG IS', data=[79, 78, 69, 33, 32, 84, 72, 69, 32, 83, 79, 78, 71, 32, 73, 83]),
   midi.ProgramChangeEvent(tick=0, channel=8, data=[58]),
   midi.NoteOnEvent(tick=3495, channel=8, data=[74, 100]),
   midi.NoteOnEvent(tick=72, channel=8, data=[74, 0]),
   midi.NoteOnEvent(tick=50, channel=8, data=[74, 100]),
   midi.NoteOnEvent(tick=58, channel=8, data=[74, 0]),
   midi.NoteOnEvent(tick=59, channel=8, data=[74, 100]),
   midi.NoteOnEvent(tick=185, channel=8, data=[74, 0]),
   midi.NoteOnEvent(tick=285, channel=8, data=[77, 100]),
   midi.NoteOnEvent(tick=7, channel=8, data=[76, 100]),
   midi.NoteOnEvent(tick=61, channel=8, data=[76, 0]),
   midi.NoteOnEvent(tick=4, channel=8, data=[77, 0]),
   midi.NoteOnEvent(tick=36, channel=8, data=[77, 100]),
   midi.NoteOnEvent(tick=32, channel=8, data=[76, 100]),
   midi.NoteOnEvent(tick=30, channel=8, data=[77, 0]),
   midi.NoteOnEvent(tick=15, channel=8, data=[76, 0]),
   midi.NoteOnEvent(tick=62, channel=8, data=[76, 100]),
   midi.NoteOnEvent(tick=0, channel=8, data=[77, 100]),
   midi.NoteOnEvent(tick=6, channel=8, data=[84, 100]),
   midi.NoteOnEvent(tick=5, channel=8, data=[81, 100]),
   midi.NoteOnEvent(tick=9, channel=8, data=[83, 100]),
   midi.NoteOnEvent(tick=51, channel=8, data=[83, 0]),
   midi.NoteOnEvent(tick=463, channel=8, data=[77, 0]),
   midi.NoteOnEvent(tick=6, channel=8, data=[76, 0]),
   midi.NoteOnEvent(tick=5, channel=8, data=[81, 0]),
   midi.NoteOnEvent(tick=2, channel=8, data=[84, 0]),
   midi.EndOfTrackEvent(tick=0, data=[])]),
 midi.Track(\
  [midi.TrackNameEvent(tick=0, text='REALLY SIMPLE, BUT', data=[82, 69, 65, 76, 76, 89, 32, 83, 73, 77, 80, 76, 69, 44, 32, 66, 85, 84]),
   midi.ProgramChangeEvent(tick=0, channel=10, data=[119]),
   midi.NoteOnEvent(tick=5284, channel=10, data=[64, 100]),
   midi.NoteOnEvent(tick=437, channel=10, data=[64, 0]),
   midi.NoteOnEvent(tick=593, channel=10, data=[64, 100]),
   midi.NoteOnEvent(tick=458, channel=10, data=[64, 0]),
   midi.NoteOnEvent(tick=519, channel=10, data=[64, 100]),
   midi.NoteOnEvent(tick=416, channel=10, data=[64, 0]),
   midi.NoteOnEvent(tick=530, channel=10, data=[64, 100]),
   midi.NoteOnEvent(tick=415, channel=10, data=[64, 0]),
   midi.NoteOnEvent(tick=521, channel=10, data=[64, 100]),
   midi.NoteOnEvent(tick=409, channel=10, data=[64, 0]),
   midi.NoteOnEvent(tick=545, channel=10, data=[64, 100]),
   midi.NoteOnEvent(tick=399, channel=10, data=[64, 0]),
   midi.NoteOnEvent(tick=462, channel=10, data=[64, 100]),
   midi.NoteOnEvent(tick=458, channel=10, data=[64, 0]),
   midi.NoteOnEvent(tick=466, channel=10, data=[64, 100]),
   midi.NoteOnEvent(tick=484, channel=10, data=[64, 0]),
   midi.EndOfTrackEvent(tick=0, data=[])]),
 midi.Track(\
  [midi.TrackNameEvent(tick=0, text='I DID MY BEST TO ', data=[73, 32, 68, 73, 68, 32, 77, 89, 32, 66, 69, 83, 84, 32, 84, 79, 32]),
   midi.ProgramChangeEvent(tick=0, channel=11, data=[116]),
   midi.NoteOnEvent(tick=55680, channel=11, data=[40, 100]),
   midi.NoteOffEvent(tick=240, channel=11, data=[40, 64]),
   midi.NoteOnEvent(tick=0, channel=11, data=[38, 100]),
   midi.NoteOffEvent(tick=120, channel=11, data=[38, 64]),
   midi.NoteOnEvent(tick=0, channel=11, data=[40, 100]),
   midi.NoteOffEvent(tick=240, channel=11, data=[40, 64]),
   midi.NoteOnEvent(tick=0, channel=11, data=[40, 127]),
   midi.NoteOffEvent(tick=120, channel=11, data=[40, 64]),
   midi.NoteOnEvent(tick=0, channel=11, data=[38, 127]),
   midi.NoteOffEvent(tick=120, channel=11, data=[38, 64]),
   midi.NoteOnEvent(tick=0, channel=11, data=[40, 100]),
   midi.NoteOffEvent(tick=120, channel=11, data=[40, 64]),
   midi.NoteOnEvent(tick=0, channel=11, data=[40, 100]),
   midi.NoteOffEvent(tick=240, channel=11, data=[40, 64]),
   midi.NoteOnEvent(tick=0, channel=11, data=[38, 100]),
   midi.NoteOffEvent(tick=120, channel=11, data=[38, 64]),
   midi.NoteOnEvent(tick=0, channel=11, data=[40, 100]),
   midi.NoteOffEvent(tick=240, channel=11, data=[40, 64]),
   midi.NoteOnEvent(tick=0, channel=11, data=[40, 127]),
   midi.NoteOffEvent(tick=120, channel=11, data=[40, 64]),
   midi.NoteOnEvent(tick=0, channel=11, data=[38, 127]),
   midi.NoteOffEvent(tick=120, channel=11, data=[38, 64]),
   midi.NoteOnEvent(tick=0, channel=11, data=[40, 100]),
   midi.NoteOffEvent(tick=120, channel=11, data=[40, 64]),
   midi.NoteOnEvent(tick=0, channel=11, data=[40, 100]),
   midi.NoteOffEvent(tick=240, channel=11, data=[40, 64]),
   midi.NoteOnEvent(tick=0, channel=11, data=[38, 100]),
   midi.NoteOffEvent(tick=120, channel=11, data=[38, 64]),
   midi.NoteOnEvent(tick=0, channel=11, data=[40, 100]),
   midi.NoteOffEvent(tick=240, channel=11, data=[40, 64]),
   midi.NoteOnEvent(tick=0, channel=11, data=[40, 127]),
   midi.NoteOffEvent(tick=120, channel=11, data=[40, 64]),
   midi.NoteOnEvent(tick=0, channel=11, data=[38, 127]),
   midi.NoteOffEvent(tick=120, channel=11, data=[38, 64]),
   midi.NoteOnEvent(tick=0, channel=11, data=[40, 100]),
   midi.NoteOffEvent(tick=120, channel=11, data=[40, 64]),
   midi.NoteOnEvent(tick=0, channel=11, data=[40, 100]),
   midi.NoteOffEvent(tick=0, channel=11, data=[40, 64]),
   midi.NoteOnEvent(tick=240, channel=11, data=[38, 100]),
   midi.NoteOffEvent(tick=120, channel=11, data=[38, 64]),
   midi.NoteOnEvent(tick=0, channel=11, data=[40, 100]),
   midi.NoteOffEvent(tick=240, channel=11, data=[40, 64]),
   midi.NoteOnEvent(tick=0, channel=11, data=[40, 127]),
   midi.NoteOffEvent(tick=120, channel=11, data=[40, 64]),
   midi.NoteOnEvent(tick=0, channel=11, data=[38, 127]),
   midi.NoteOffEvent(tick=120, channel=11, data=[38, 64]),
   midi.NoteOnEvent(tick=0, channel=11, data=[40, 100]),
   midi.NoteOffEvent(tick=120, channel=11, data=[40, 64]),
   midi.EndOfTrackEvent(tick=0, data=[])]),
 midi.Track(\
  [midi.TrackNameEvent(tick=0, text='CONVERT ALL THE', data=[67, 79, 78, 86, 69, 82, 84, 32, 65, 76, 76, 32, 84, 72, 69]),
   midi.ProgramChangeEvent(tick=0, channel=12, data=[109]),
   midi.NoteOnEvent(tick=26865, channel=12, data=[65, 100]),
   midi.NoteOnEvent(tick=84, channel=12, data=[65, 0]),
   midi.NoteOnEvent(tick=73, channel=12, data=[65, 100]),
   midi.NoteOnEvent(tick=107, channel=12, data=[65, 0]),
   midi.NoteOnEvent(tick=79, channel=12, data=[65, 100]),
   midi.NoteOnEvent(tick=65, channel=12, data=[65, 0]),
   midi.NoteOnEvent(tick=58, channel=12, data=[65, 100]),
   midi.NoteOnEvent(tick=106, channel=12, data=[65, 0]),
   midi.NoteOnEvent(tick=68, channel=12, data=[66, 100]),
   midi.NoteOnEvent(tick=249, channel=12, data=[66, 0]),
   midi.NoteOnEvent(tick=75, channel=12, data=[68, 100]),
   midi.NoteOnEvent(tick=109, channel=12, data=[68, 0]),
   midi.NoteOnEvent(tick=70, channel=12, data=[68, 100]),
   midi.NoteOnEvent(tick=102, channel=12, data=[68, 0]),
   midi.NoteOnEvent(tick=63, channel=12, data=[68, 100]),
   midi.NoteOnEvent(tick=88, channel=12, data=[68, 0]),
   midi.NoteOnEvent(tick=66, channel=12, data=[68, 100]),
   midi.NoteOnEvent(tick=101, channel=12, data=[68, 0]),
   midi.NoteOnEvent(tick=54, channel=12, data=[67, 100]),
   midi.NoteOnEvent(tick=234, channel=12, data=[67, 0]),
   midi.NoteOnEvent(tick=2000, channel=12, data=[65, 100]),
   midi.NoteOnEvent(tick=72, channel=12, data=[65, 0]),
   midi.NoteOnEvent(tick=40, channel=12, data=[65, 100]),
   midi.NoteOnEvent(tick=60, channel=12, data=[65, 0]),
   midi.NoteOnEvent(tick=51, channel=12, data=[65, 100]),
   midi.NoteOnEvent(tick=74, channel=12, data=[65, 0]),
   midi.NoteOnEvent(tick=65, channel=12, data=[65, 100]),
   midi.NoteOnEvent(tick=222, channel=12, data=[65, 0]),
   midi.NoteOnEvent(tick=12, channel=12, data=[66, 100]),
   midi.NoteOnEvent(tick=251, channel=12, data=[66, 0]),
   midi.NoteOnEvent(tick=83, channel=12, data=[69, 100]),
   midi.NoteOnEvent(tick=107, channel=12, data=[69, 0]),
   midi.NoteOnEvent(tick=72, channel=12, data=[69, 100]),
   midi.NoteOnEvent(tick=88, channel=12, data=[69, 0]),
   midi.NoteOnEvent(tick=88, channel=12, data=[69, 100]),
   midi.NoteOnEvent(tick=88, channel=12, data=[69, 0]),
   midi.NoteOnEvent(tick=68, channel=12, data=[68, 100]),
   midi.NoteOnEvent(tick=119, channel=12, data=[68, 0]),
   midi.NoteOnEvent(tick=65, channel=12, data=[67, 100]),
   midi.NoteOnEvent(tick=287, channel=12, data=[67, 0]),
   midi.NoteOnEvent(tick=7725, channel=12, data=[62, 100]),
   midi.NoteOnEvent(tick=160, channel=12, data=[62, 0]),
   midi.NoteOnEvent(tick=35, channel=12, data=[62, 100]),
   midi.NoteOnEvent(tick=176, channel=12, data=[62, 0]),
   midi.NoteOnEvent(tick=70, channel=12, data=[61, 100]),
   midi.NoteOnEvent(tick=168, channel=12, data=[61, 0]),
   midi.NoteOnEvent(tick=63, channel=12, data=[62, 100]),
   midi.NoteOnEvent(tick=105, channel=12, data=[62, 0]),
   midi.NoteOnEvent(tick=41, channel=12, data=[62, 100]),
   midi.NoteOnEvent(tick=165, channel=12, data=[62, 0]),
   midi.NoteOnEvent(tick=62, channel=12, data=[62, 100]),
   midi.NoteOnEvent(tick=168, channel=12, data=[62, 0]),
   midi.NoteOnEvent(tick=69, channel=12, data=[60, 100]),
   midi.NoteOnEvent(tick=426, channel=12, data=[60, 0]),
   midi.NoteOnEvent(tick=47, channel=12, data=[62, 100]),
   midi.NoteOnEvent(tick=67, channel=12, data=[62, 0]),
   midi.NoteOnEvent(tick=48, channel=12, data=[62, 100]),
   midi.NoteOnEvent(tick=164, channel=12, data=[62, 0]),
   midi.NoteOnEvent(tick=67, channel=12, data=[62, 100]),
   midi.NoteOnEvent(tick=158, channel=12, data=[62, 0]),
   midi.NoteOnEvent(tick=82, channel=12, data=[61, 100]),
   midi.NoteOnEvent(tick=153, channel=12, data=[61, 0]),
   midi.NoteOnEvent(tick=91, channel=12, data=[62, 100]),
   midi.NoteOnEvent(tick=77, channel=12, data=[62, 0]),
   midi.NoteOnEvent(tick=51, channel=12, data=[62, 100]),
   midi.NoteOnEvent(tick=160, channel=12, data=[62, 0]),
   midi.NoteOnEvent(tick=87, channel=12, data=[62, 100]),
   midi.NoteOnEvent(tick=133, channel=12, data=[62, 0]),
   midi.NoteOnEvent(tick=87, channel=12, data=[60, 100]),
   midi.NoteOnEvent(tick=531, channel=12, data=[60, 0]),
   midi.NoteOnEvent(tick=82, channel=12, data=[62, 100]),
   midi.NoteOnEvent(tick=161, channel=12, data=[62, 0]),
   midi.NoteOnEvent(tick=77, channel=12, data=[62, 100]),
   midi.NoteOnEvent(tick=146, channel=12, data=[62, 0]),
   midi.NoteOnEvent(tick=98, channel=12, data=[61, 100]),
   midi.NoteOnEvent(tick=160, channel=12, data=[61, 0]),
   midi.NoteOnEvent(tick=75, channel=12, data=[62, 100]),
   midi.NoteOnEvent(tick=82, channel=12, data=[62, 0]),
   midi.NoteOnEvent(tick=55, channel=12, data=[62, 100]),
   midi.NoteOnEvent(tick=163, channel=12, data=[62, 0]),
   midi.NoteOnEvent(tick=69, channel=12, data=[62, 100]),
   midi.NoteOnEvent(tick=162, channel=12, data=[62, 0]),
   midi.NoteOnEvent(tick=69, channel=12, data=[60, 100]),
   midi.NoteOnEvent(tick=441, channel=12, data=[60, 0]),
   midi.NoteOnEvent(tick=15, channel=12, data=[62, 100]),
   midi.NoteOnEvent(tick=68, channel=12, data=[62, 0]),
   midi.NoteOnEvent(tick=51, channel=12, data=[62, 100]),
   midi.NoteOnEvent(tick=179, channel=12, data=[62, 0]),
   midi.NoteOnEvent(tick=80, channel=12, data=[62, 100]),
   midi.NoteOnEvent(tick=180, channel=12, data=[62, 0]),
   midi.NoteOnEvent(tick=81, channel=12, data=[61, 100]),
   midi.NoteOnEvent(tick=159, channel=12, data=[61, 0]),
   midi.NoteOnEvent(tick=69, channel=12, data=[62, 100]),
   midi.NoteOnEvent(tick=84, channel=12, data=[62, 0]),
   midi.NoteOnEvent(tick=50, channel=12, data=[62, 100]),
   midi.NoteOnEvent(tick=158, channel=12, data=[62, 0]),
   midi.NoteOnEvent(tick=70, channel=12, data=[62, 100]),
   midi.NoteOnEvent(tick=139, channel=12, data=[62, 0]),
   midi.NoteOnEvent(tick=93, channel=12, data=[60, 100]),
   midi.NoteOnEvent(tick=502, channel=12, data=[60, 0]),
   midi.NoteOnEvent(tick=11229, channel=12, data=[61, 100]),
   midi.NoteOnEvent(tick=265, channel=12, data=[62, 100]),
   midi.NoteOnEvent(tick=1, channel=12, data=[61, 0]),
   midi.NoteOnEvent(tick=81, channel=12, data=[62, 0]),
   midi.NoteOnEvent(tick=47, channel=12, data=[62, 100]),
   midi.NoteOnEvent(tick=77, channel=12, data=[62, 0]),
   midi.NoteOnEvent(tick=62, channel=12, data=[62, 100]),
   midi.NoteOnEvent(tick=162, channel=12, data=[62, 0]),
   midi.NoteOnEvent(tick=64, channel=12, data=[61, 100]),
   midi.NoteOnEvent(tick=361, channel=12, data=[61, 0]),
   midi.NoteOnEvent(tick=99, channel=12, data=[64, 100]),
   midi.NoteOnEvent(tick=76, channel=12, data=[64, 0]),
   midi.NoteOnEvent(tick=56, channel=12, data=[64, 100]),
   midi.NoteOnEvent(tick=79, channel=12, data=[64, 0]),
   midi.NoteOnEvent(tick=49, channel=12, data=[64, 100]),
   midi.NoteOnEvent(tick=139, channel=12, data=[64, 0]),
   midi.NoteOnEvent(tick=84, channel=12, data=[63, 100]),
   midi.NoteOnEvent(tick=323, channel=12, data=[63, 0]),
   midi.NoteOnEvent(tick=1146, channel=12, data=[68, 100]),
   midi.NoteOnEvent(tick=60, channel=12, data=[68, 0]),
   midi.NoteOnEvent(tick=52, channel=12, data=[68, 100]),
   midi.NoteOnEvent(tick=112, channel=12, data=[68, 0]),
   midi.NoteOnEvent(tick=49, channel=12, data=[66, 100]),
   midi.NoteOnEvent(tick=125, channel=12, data=[66, 0]),
   midi.NoteOnEvent(tick=38, channel=12, data=[63, 100]),
   midi.NoteOnEvent(tick=102, channel=12, data=[63, 0]),
   midi.NoteOnEvent(tick=48, channel=12, data=[66, 100]),
   midi.NoteOnEvent(tick=115, channel=12, data=[66, 0]),
   midi.NoteOnEvent(tick=70, channel=12, data=[68, 100]),
   midi.NoteOnEvent(tick=144, channel=12, data=[68, 0]),
   midi.NoteOnEvent(tick=1012, channel=12, data=[71, 100]),
   midi.NoteOnEvent(tick=76, channel=12, data=[71, 0]),
   midi.NoteOnEvent(tick=60, channel=12, data=[73, 100]),
   midi.NoteOnEvent(tick=48, channel=12, data=[73, 0]),
   midi.NoteOnEvent(tick=84, channel=12, data=[72, 100]),
   midi.NoteOnEvent(tick=66, channel=12, data=[72, 0]),
   midi.NoteOnEvent(tick=27, channel=12, data=[74, 100]),
   midi.NoteOnEvent(tick=67, channel=12, data=[74, 0]),
   midi.NoteOnEvent(tick=63, channel=12, data=[75, 100]),
   midi.NoteOnEvent(tick=129, channel=12, data=[75, 0]),
   midi.NoteOnEvent(tick=85, channel=12, data=[76, 100]),
   midi.NoteOnEvent(tick=258, channel=12, data=[76, 0]),
   midi.NoteOnEvent(tick=956, channel=12, data=[72, 100]),
   midi.NoteOnEvent(tick=104, channel=12, data=[72, 0]),
   midi.NoteOnEvent(tick=11, channel=12, data=[73, 100]),
   midi.NoteOnEvent(tick=154, channel=12, data=[72, 100]),
   midi.NoteOnEvent(tick=2, channel=12, data=[73, 0]),
   midi.NoteOnEvent(tick=181, channel=12, data=[71, 100]),
   midi.NoteOnEvent(tick=7, channel=12, data=[72, 0]),
   midi.NoteOnEvent(tick=121, channel=12, data=[71, 0]),
   midi.NoteOnEvent(tick=4, channel=12, data=[70, 100]),
   midi.NoteOnEvent(tick=164, channel=12, data=[70, 0]),
   midi.NoteOnEvent(tick=2, channel=12, data=[69, 100]),
   midi.NoteOnEvent(tick=236, channel=12, data=[69, 0]),
   midi.NoteOnEvent(tick=7799, channel=12, data=[62, 100]),
   midi.NoteOnEvent(tick=160, channel=12, data=[62, 0]),
   midi.NoteOnEvent(tick=35, channel=12, data=[62, 100]),
   midi.NoteOnEvent(tick=176, channel=12, data=[62, 0]),
   midi.NoteOnEvent(tick=70, channel=12, data=[61, 100]),
   midi.NoteOnEvent(tick=168, channel=12, data=[61, 0]),
   midi.NoteOnEvent(tick=63, channel=12, data=[62, 100]),
   midi.NoteOnEvent(tick=105, channel=12, data=[62, 0]),
   midi.NoteOnEvent(tick=41, channel=12, data=[62, 100]),
   midi.NoteOnEvent(tick=165, channel=12, data=[62, 0]),
   midi.NoteOnEvent(tick=62, channel=12, data=[62, 100]),
   midi.NoteOnEvent(tick=168, channel=12, data=[62, 0]),
   midi.NoteOnEvent(tick=69, channel=12, data=[60, 100]),
   midi.NoteOnEvent(tick=426, channel=12, data=[60, 0]),
   midi.NoteOnEvent(tick=47, channel=12, data=[62, 100]),
   midi.NoteOnEvent(tick=67, channel=12, data=[62, 0]),
   midi.NoteOnEvent(tick=48, channel=12, data=[62, 100]),
   midi.NoteOnEvent(tick=164, channel=12, data=[62, 0]),
   midi.NoteOnEvent(tick=67, channel=12, data=[62, 100]),
   midi.NoteOnEvent(tick=158, channel=12, data=[62, 0]),
   midi.NoteOnEvent(tick=82, channel=12, data=[61, 100]),
   midi.NoteOnEvent(tick=153, channel=12, data=[61, 0]),
   midi.NoteOnEvent(tick=91, channel=12, data=[62, 100]),
   midi.NoteOnEvent(tick=77, channel=12, data=[62, 0]),
   midi.NoteOnEvent(tick=51, channel=12, data=[62, 100]),
   midi.NoteOnEvent(tick=160, channel=12, data=[62, 0]),
   midi.NoteOnEvent(tick=87, channel=12, data=[62, 100]),
   midi.NoteOnEvent(tick=133, channel=12, data=[62, 0]),
   midi.NoteOnEvent(tick=87, channel=12, data=[60, 100]),
   midi.NoteOnEvent(tick=531, channel=12, data=[60, 0]),
   midi.NoteOnEvent(tick=82, channel=12, data=[62, 100]),
   midi.NoteOnEvent(tick=161, channel=12, data=[62, 0]),
   midi.NoteOnEvent(tick=77, channel=12, data=[62, 100]),
   midi.NoteOnEvent(tick=146, channel=12, data=[62, 0]),
   midi.NoteOnEvent(tick=98, channel=12, data=[61, 100]),
   midi.NoteOnEvent(tick=160, channel=12, data=[61, 0]),
   midi.NoteOnEvent(tick=75, channel=12, data=[62, 100]),
   midi.NoteOnEvent(tick=82, channel=12, data=[62, 0]),
   midi.NoteOnEvent(tick=55, channel=12, data=[62, 100]),
   midi.NoteOnEvent(tick=163, channel=12, data=[62, 0]),
   midi.NoteOnEvent(tick=69, channel=12, data=[62, 100]),
   midi.NoteOnEvent(tick=162, channel=12, data=[62, 0]),
   midi.NoteOnEvent(tick=69, channel=12, data=[60, 100]),
   midi.NoteOnEvent(tick=441, channel=12, data=[60, 0]),
   midi.NoteOnEvent(tick=15, channel=12, data=[62, 100]),
   midi.NoteOnEvent(tick=68, channel=12, data=[62, 0]),
   midi.NoteOnEvent(tick=51, channel=12, data=[62, 100]),
   midi.NoteOnEvent(tick=179, channel=12, data=[62, 0]),
   midi.NoteOnEvent(tick=80, channel=12, data=[62, 100]),
   midi.NoteOnEvent(tick=180, channel=12, data=[62, 0]),
   midi.NoteOnEvent(tick=81, channel=12, data=[61, 100]),
   midi.NoteOnEvent(tick=159, channel=12, data=[61, 0]),
   midi.NoteOnEvent(tick=69, channel=12, data=[62, 100]),
   midi.NoteOnEvent(tick=84, channel=12, data=[62, 0]),
   midi.NoteOnEvent(tick=50, channel=12, data=[62, 100]),
   midi.NoteOnEvent(tick=158, channel=12, data=[62, 0]),
   midi.NoteOnEvent(tick=70, channel=12, data=[62, 100]),
   midi.NoteOnEvent(tick=139, channel=12, data=[62, 0]),
   midi.NoteOnEvent(tick=93, channel=12, data=[60, 100]),
   midi.NoteOnEvent(tick=502, channel=12, data=[60, 0]),
   midi.NoteOnEvent(tick=35671, channel=12, data=[62, 100]),
   midi.NoteOnEvent(tick=160, channel=12, data=[62, 0]),
   midi.NoteOnEvent(tick=35, channel=12, data=[62, 100]),
   midi.NoteOnEvent(tick=176, channel=12, data=[62, 0]),
   midi.NoteOnEvent(tick=70, channel=12, data=[61, 100]),
   midi.NoteOnEvent(tick=168, channel=12, data=[61, 0]),
   midi.NoteOnEvent(tick=63, channel=12, data=[62, 100]),
   midi.NoteOnEvent(tick=105, channel=12, data=[62, 0]),
   midi.NoteOnEvent(tick=41, channel=12, data=[62, 100]),
   midi.NoteOnEvent(tick=165, channel=12, data=[62, 0]),
   midi.NoteOnEvent(tick=62, channel=12, data=[62, 100]),
   midi.NoteOnEvent(tick=168, channel=12, data=[62, 0]),
   midi.NoteOnEvent(tick=69, channel=12, data=[60, 100]),
   midi.NoteOnEvent(tick=426, channel=12, data=[60, 0]),
   midi.NoteOnEvent(tick=47, channel=12, data=[62, 100]),
   midi.NoteOnEvent(tick=67, channel=12, data=[62, 0]),
   midi.NoteOnEvent(tick=48, channel=12, data=[62, 100]),
   midi.NoteOnEvent(tick=164, channel=12, data=[62, 0]),
   midi.NoteOnEvent(tick=67, channel=12, data=[62, 100]),
   midi.NoteOnEvent(tick=158, channel=12, data=[62, 0]),
   midi.NoteOnEvent(tick=82, channel=12, data=[61, 100]),
   midi.NoteOnEvent(tick=153, channel=12, data=[61, 0]),
   midi.NoteOnEvent(tick=91, channel=12, data=[62, 100]),
   midi.NoteOnEvent(tick=77, channel=12, data=[62, 0]),
   midi.NoteOnEvent(tick=51, channel=12, data=[62, 100]),
   midi.NoteOnEvent(tick=160, channel=12, data=[62, 0]),
   midi.NoteOnEvent(tick=87, channel=12, data=[62, 100]),
   midi.NoteOnEvent(tick=133, channel=12, data=[62, 0]),
   midi.NoteOnEvent(tick=87, channel=12, data=[60, 100]),
   midi.NoteOnEvent(tick=531, channel=12, data=[60, 0]),
   midi.NoteOnEvent(tick=82, channel=12, data=[62, 100]),
   midi.NoteOnEvent(tick=161, channel=12, data=[62, 0]),
   midi.NoteOnEvent(tick=77, channel=12, data=[62, 100]),
   midi.NoteOnEvent(tick=146, channel=12, data=[62, 0]),
   midi.NoteOnEvent(tick=98, channel=12, data=[61, 100]),
   midi.NoteOnEvent(tick=160, channel=12, data=[61, 0]),
   midi.NoteOnEvent(tick=75, channel=12, data=[62, 100]),
   midi.NoteOnEvent(tick=82, channel=12, data=[62, 0]),
   midi.NoteOnEvent(tick=55, channel=12, data=[62, 100]),
   midi.NoteOnEvent(tick=163, channel=12, data=[62, 0]),
   midi.NoteOnEvent(tick=69, channel=12, data=[62, 100]),
   midi.NoteOnEvent(tick=162, channel=12, data=[62, 0]),
   midi.NoteOnEvent(tick=69, channel=12, data=[60, 100]),
   midi.NoteOnEvent(tick=441, channel=12, data=[60, 0]),
   midi.NoteOnEvent(tick=15, channel=12, data=[62, 100]),
   midi.NoteOnEvent(tick=68, channel=12, data=[62, 0]),
   midi.NoteOnEvent(tick=51, channel=12, data=[62, 100]),
   midi.NoteOnEvent(tick=179, channel=12, data=[62, 0]),
   midi.NoteOnEvent(tick=80, channel=12, data=[62, 100]),
   midi.NoteOnEvent(tick=180, channel=12, data=[62, 0]),
   midi.NoteOnEvent(tick=81, channel=12, data=[61, 100]),
   midi.NoteOnEvent(tick=159, channel=12, data=[61, 0]),
   midi.NoteOnEvent(tick=69, channel=12, data=[62, 100]),
   midi.NoteOnEvent(tick=84, channel=12, data=[62, 0]),
   midi.NoteOnEvent(tick=50, channel=12, data=[62, 100]),
   midi.NoteOnEvent(tick=158, channel=12, data=[62, 0]),
   midi.NoteOnEvent(tick=70, channel=12, data=[62, 100]),
   midi.NoteOnEvent(tick=139, channel=12, data=[62, 0]),
   midi.NoteOnEvent(tick=93, channel=12, data=[60, 100]),
   midi.NoteOnEvent(tick=502, channel=12, data=[60, 0]),
   midi.EndOfTrackEvent(tick=0, data=[])]),
 midi.Track(\
  [midi.TrackNameEvent(tick=0, text='INDUSTRIAL SOUND-', data=[73, 78, 68, 85, 83, 84, 82, 73, 65, 76, 32, 83, 79, 85, 78, 68, 45]),
   midi.ProgramChangeEvent(tick=0, channel=13, data=[55]),
   midi.NoteOnEvent(tick=33370, channel=13, data=[63, 100]),
   midi.NoteOnEvent(tick=5, channel=13, data=[58, 100]),
   midi.NoteOnEvent(tick=105, channel=13, data=[58, 0]),
   midi.NoteOnEvent(tick=8, channel=13, data=[63, 0]),
   midi.NoteOnEvent(tick=831, channel=13, data=[63, 100]),
   midi.NoteOnEvent(tick=11, channel=13, data=[58, 100]),
   midi.NoteOnEvent(tick=111, channel=13, data=[58, 0]),
   midi.NoteOnEvent(tick=14, channel=13, data=[63, 0]),
   midi.NoteOnEvent(tick=2739, channel=13, data=[63, 100]),
   midi.NoteOnEvent(tick=6, channel=13, data=[58, 100]),
   midi.NoteOnEvent(tick=134, channel=13, data=[58, 0]),
   midi.NoteOnEvent(tick=15, channel=13, data=[63, 0]),
   midi.NoteOnEvent(tick=795, channel=13, data=[63, 100]),
   midi.NoteOnEvent(tick=11, channel=13, data=[58, 100]),
   midi.NoteOnEvent(tick=168, channel=13, data=[58, 0]),
   midi.NoteOnEvent(tick=13, channel=13, data=[63, 0]),
   midi.NoteOnEvent(tick=29594, channel=13, data=[63, 100]),
   midi.NoteOnEvent(tick=5, channel=13, data=[58, 100]),
   midi.NoteOnEvent(tick=105, channel=13, data=[58, 0]),
   midi.NoteOnEvent(tick=8, channel=13, data=[63, 0]),
   midi.NoteOnEvent(tick=831, channel=13, data=[63, 100]),
   midi.NoteOnEvent(tick=11, channel=13, data=[58, 100]),
   midi.NoteOnEvent(tick=111, channel=13, data=[58, 0]),
   midi.NoteOnEvent(tick=14, channel=13, data=[63, 0]),
   midi.NoteOnEvent(tick=2739, channel=13, data=[63, 100]),
   midi.NoteOnEvent(tick=6, channel=13, data=[58, 100]),
   midi.NoteOnEvent(tick=134, channel=13, data=[58, 0]),
   midi.NoteOnEvent(tick=15, channel=13, data=[63, 0]),
   midi.NoteOnEvent(tick=795, channel=13, data=[63, 100]),
   midi.NoteOnEvent(tick=11, channel=13, data=[58, 100]),
   midi.NoteOnEvent(tick=168, channel=13, data=[58, 0]),
   midi.NoteOnEvent(tick=13, channel=13, data=[63, 0]),
   midi.NoteOnEvent(tick=38234, channel=13, data=[63, 100]),
   midi.NoteOnEvent(tick=5, channel=13, data=[58, 100]),
   midi.NoteOnEvent(tick=105, channel=13, data=[58, 0]),
   midi.NoteOnEvent(tick=8, channel=13, data=[63, 0]),
   midi.NoteOnEvent(tick=831, channel=13, data=[63, 100]),
   midi.NoteOnEvent(tick=11, channel=13, data=[58, 100]),
   midi.NoteOnEvent(tick=111, channel=13, data=[58, 0]),
   midi.NoteOnEvent(tick=14, channel=13, data=[63, 0]),
   midi.NoteOnEvent(tick=2739, channel=13, data=[63, 100]),
   midi.NoteOnEvent(tick=6, channel=13, data=[58, 100]),
   midi.NoteOnEvent(tick=134, channel=13, data=[58, 0]),
   midi.NoteOnEvent(tick=15, channel=13, data=[63, 0]),
   midi.NoteOnEvent(tick=795, channel=13, data=[63, 100]),
   midi.NoteOnEvent(tick=11, channel=13, data=[58, 100]),
   midi.NoteOnEvent(tick=168, channel=13, data=[58, 0]),
   midi.NoteOnEvent(tick=13, channel=13, data=[63, 0]),
   midi.NoteOnEvent(tick=1021, channel=13, data=[63, 100]),
   midi.NoteOnEvent(tick=12, channel=13, data=[58, 100]),
   midi.NoteOnEvent(tick=164, channel=13, data=[58, 0]),
   midi.NoteOnEvent(tick=58, channel=13, data=[63, 0]),
   midi.NoteOnEvent(tick=248, channel=13, data=[63, 100]),
   midi.NoteOnEvent(tick=15, channel=13, data=[58, 100]),
   midi.NoteOnEvent(tick=150, channel=13, data=[58, 0]),
   midi.NoteOnEvent(tick=28, channel=13, data=[63, 0]),
   midi.NoteOnEvent(tick=18008, channel=13, data=[63, 100]),
   midi.NoteOnEvent(tick=20, channel=13, data=[58, 100]),
   midi.NoteOnEvent(tick=134, channel=13, data=[58, 0]),
   midi.NoteOnEvent(tick=28, channel=13, data=[63, 0]),
   midi.NoteOnEvent(tick=341, channel=13, data=[63, 100]),
   midi.NoteOnEvent(tick=23, channel=13, data=[58, 100]),
   midi.NoteOnEvent(tick=117, channel=13, data=[58, 0]),
   midi.NoteOnEvent(tick=31, channel=13, data=[63, 0]),
   midi.NoteOnEvent(tick=287, channel=13, data=[63, 100]),
   midi.NoteOnEvent(tick=9, channel=13, data=[58, 100]),
   midi.NoteOnEvent(tick=120, channel=13, data=[58, 0]),
   midi.NoteOnEvent(tick=22, channel=13, data=[63, 0]),
   midi.NoteOnEvent(tick=582, channel=13, data=[63, 100]),
   midi.NoteOnEvent(tick=6, channel=13, data=[58, 100]),
   midi.NoteOnEvent(tick=128, channel=13, data=[58, 0]),
   midi.NoteOnEvent(tick=24, channel=13, data=[63, 0]),
   midi.NoteOnEvent(tick=328, channel=13, data=[63, 100]),
   midi.NoteOnEvent(tick=9, channel=13, data=[58, 100]),
   midi.NoteOnEvent(tick=123, channel=13, data=[58, 0]),
   midi.NoteOnEvent(tick=13, channel=13, data=[63, 0]),
   midi.NoteOnEvent(tick=321, channel=13, data=[58, 100]),
   midi.NoteOnEvent(tick=1, channel=13, data=[63, 100]),
   midi.NoteOnEvent(tick=121, channel=13, data=[58, 0]),
   midi.NoteOnEvent(tick=9, channel=13, data=[63, 0]),
   midi.NoteOnEvent(tick=845, channel=13, data=[63, 100]),
   midi.NoteOnEvent(tick=7, channel=13, data=[58, 100]),
   midi.NoteOnEvent(tick=120, channel=13, data=[58, 0]),
   midi.NoteOnEvent(tick=5, channel=13, data=[63, 0]),
   midi.NoteOnEvent(tick=353, channel=13, data=[63, 100]),
   midi.NoteOnEvent(tick=0, channel=13, data=[58, 100]),
   midi.NoteOnEvent(tick=126, channel=13, data=[63, 0]),
   midi.NoteOnEvent(tick=11, channel=13, data=[58, 0]),
   midi.NoteOnEvent(tick=336, channel=13, data=[63, 100]),
   midi.NoteOnEvent(tick=2, channel=13, data=[58, 100]),
   midi.NoteOnEvent(tick=125, channel=13, data=[58, 0]),
   midi.NoteOnEvent(tick=5, channel=13, data=[63, 0]),
   midi.EndOfTrackEvent(tick=0, data=[])]),
 midi.Track(\
  [midi.TrackNameEvent(tick=0, text='EFFECTS!', data=[69, 70, 70, 69, 67, 84, 83, 33]),
   midi.EndOfTrackEvent(tick=0, data=[])]),
 midi.Track(\
  [midi.TrackNameEvent(tick=0, text='this took me a few months,', data=[116, 104, 105, 115, 32, 116, 111, 111, 107, 32, 109, 101, 32, 97, 32, 102, 101, 119, 32, 109, 111, 110, 116, 104, 115, 44]),
   midi.EndOfTrackEvent(tick=0, data=[])]),
 midi.Track(\
  [midi.TrackNameEvent(tick=0, text='but here it is! (01-25-99)', data=[98, 117, 116, 32, 104, 101, 114, 101, 32, 105, 116, 32, 105, 115, 33, 32, 40, 48, 49, 45, 50, 53, 45, 57, 57, 41]),
   midi.EndOfTrackEvent(tick=0, data=[])])])
